<?xml version="1.0" encoding="us-ascii" standalone="no"?><svg xmlns="http://www.w3.org/2000/svg" xmlns:xlink="http://www.w3.org/1999/xlink" contentStyleType="text/css" height="545px" preserveAspectRatio="none" style="width:944px;height:545px;background:#FFFFFF;" version="1.1" viewBox="0 0 944 545" width="944px" zoomAndPan="magnify"><defs/><g><!--class CreateAccountUI--><g id="elem_CreateAccountUI"><rect codeLine="9" fill="#F1F1F1" height="48" id="CreateAccountUI" rx="2.5" ry="2.5" style="stroke:#181818;stroke-width:0.5;" width="138" x="7" y="38.5"/><ellipse cx="22" cy="54.5" fill="#ADD1B2" rx="11" ry="11" style="stroke:#181818;stroke-width:1.0;"/><path d="M24.7656,50.375 Q24.9219,50.1563 25.1094,50.0469 Q25.2969,49.9375 25.5156,49.9375 Q25.8906,49.9375 26.125,50.2031 Q26.3594,50.4531 26.3594,51.0625 L26.3594,52.5156 Q26.3594,53.125 26.125,53.3906 Q25.8906,53.6563 25.5156,53.6563 Q25.1719,53.6563 24.9688,53.4531 Q24.7656,53.2656 24.6563,52.75 Q24.6094,52.3906 24.4219,52.2031 Q24.0938,51.8281 23.4844,51.6094 Q22.875,51.3906 22.25,51.3906 Q21.4844,51.3906 20.8438,51.7188 Q20.2188,52.0469 19.7188,52.7969 Q19.2344,53.5469 19.2344,54.5781 L19.2344,55.6719 Q19.2344,56.9063 20.125,57.7344 Q21.0156,58.5469 22.6094,58.5469 Q23.5469,58.5469 24.2031,58.2969 Q24.5938,58.1406 25.0156,57.7031 Q25.2813,57.4375 25.4219,57.3594 Q25.5781,57.2813 25.7813,57.2813 Q26.1094,57.2813 26.3594,57.5469 Q26.625,57.7969 26.625,58.1406 Q26.625,58.4844 26.2813,58.8906 Q25.7813,59.4688 24.9844,59.7969 Q23.9063,60.25 22.6094,60.25 Q21.0938,60.25 19.8906,59.625 Q18.9063,59.125 18.2188,58.0625 Q17.5313,56.9844 17.5313,55.7031 L17.5313,54.5469 Q17.5313,53.2188 18.1406,52.0781 Q18.7656,50.9219 19.8594,50.3125 Q20.9531,49.6875 22.1875,49.6875 Q22.9219,49.6875 23.5625,49.8594 Q24.2188,50.0156 24.7656,50.375 Z " fill="#000000"/><text fill="#000000" font-family="sans-serif" font-size="14" lengthAdjust="spacing" textLength="106" x="36" y="59.3535">CreateAccountUI</text><line style="stroke:#181818;stroke-width:0.5;" x1="8" x2="144" y1="70.5" y2="70.5"/><line style="stroke:#181818;stroke-width:0.5;" x1="8" x2="144" y1="78.5" y2="78.5"/></g><!--class CreateAccountController--><g id="elem_CreateAccountController"><rect codeLine="11" fill="#F1F1F1" height="110.5625" id="CreateAccountController" rx="2.5" ry="2.5" style="stroke:#181818;stroke-width:0.5;" width="373" x="180.5" y="7"/><ellipse cx="284.75" cy="23" fill="#ADD1B2" rx="11" ry="11" style="stroke:#181818;stroke-width:1.0;"/><path d="M287.5156,18.875 Q287.6719,18.6563 287.8594,18.5469 Q288.0469,18.4375 288.2656,18.4375 Q288.6406,18.4375 288.875,18.7031 Q289.1094,18.9531 289.1094,19.5625 L289.1094,21.0156 Q289.1094,21.625 288.875,21.8906 Q288.6406,22.1563 288.2656,22.1563 Q287.9219,22.1563 287.7188,21.9531 Q287.5156,21.7656 287.4063,21.25 Q287.3594,20.8906 287.1719,20.7031 Q286.8438,20.3281 286.2344,20.1094 Q285.625,19.8906 285,19.8906 Q284.2344,19.8906 283.5938,20.2188 Q282.9688,20.5469 282.4688,21.2969 Q281.9844,22.0469 281.9844,23.0781 L281.9844,24.1719 Q281.9844,25.4063 282.875,26.2344 Q283.7656,27.0469 285.3594,27.0469 Q286.2969,27.0469 286.9531,26.7969 Q287.3438,26.6406 287.7656,26.2031 Q288.0313,25.9375 288.1719,25.8594 Q288.3281,25.7813 288.5313,25.7813 Q288.8594,25.7813 289.1094,26.0469 Q289.375,26.2969 289.375,26.6406 Q289.375,26.9844 289.0313,27.3906 Q288.5313,27.9688 287.7344,28.2969 Q286.6563,28.75 285.3594,28.75 Q283.8438,28.75 282.6406,28.125 Q281.6563,27.625 280.9688,26.5625 Q280.2813,25.4844 280.2813,24.2031 L280.2813,23.0469 Q280.2813,21.7188 280.8906,20.5781 Q281.5156,19.4219 282.6094,18.8125 Q283.7031,18.1875 284.9375,18.1875 Q285.6719,18.1875 286.3125,18.3594 Q286.9688,18.5156 287.5156,18.875 Z " fill="#000000"/><text fill="#000000" font-family="sans-serif" font-size="14" lengthAdjust="spacing" textLength="156" x="305.25" y="27.8535">CreateAccountController</text><line style="stroke:#181818;stroke-width:0.5;" x1="181.5" x2="552.5" y1="39" y2="39"/><line style="stroke:#181818;stroke-width:0.5;" x1="181.5" x2="552.5" y1="47" y2="47"/><text fill="#000000" font-family="sans-serif" font-size="14" lengthAdjust="spacing" textLength="292" x="186.5" y="63.6738">+CreateAccountController(accountRepository)</text><text fill="#000000" font-family="sans-serif" font-size="14" lengthAdjust="spacing" textLength="157" x="186.5" y="79.3145">+getAccountRepository()</text><text fill="#000000" font-family="sans-serif" font-size="14" lengthAdjust="spacing" textLength="361" x="186.5" y="94.9551">+createAccount(name, passportCardNumber, taxNumber,</text><text fill="#000000" font-family="sans-serif" font-size="14" lengthAdjust="spacing" textLength="330" x="186.5" y="110.5957">address, email, telephoneNumber,state, district, city)</text></g><!--class Repositories--><g id="elem_Repositories"><rect codeLine="18" fill="#F1F1F1" height="48" id="Repositories" rx="2.5" ry="2.5" style="stroke:#181818;stroke-width:0.5;" width="111" x="657.5" y="38.5"/><ellipse cx="672.5" cy="54.5" fill="#ADD1B2" rx="11" ry="11" style="stroke:#181818;stroke-width:1.0;"/><path d="M675.2656,50.375 Q675.4219,50.1563 675.6094,50.0469 Q675.7969,49.9375 676.0156,49.9375 Q676.3906,49.9375 676.625,50.2031 Q676.8594,50.4531 676.8594,51.0625 L676.8594,52.5156 Q676.8594,53.125 676.625,53.3906 Q676.3906,53.6563 676.0156,53.6563 Q675.6719,53.6563 675.4688,53.4531 Q675.2656,53.2656 675.1563,52.75 Q675.1094,52.3906 674.9219,52.2031 Q674.5938,51.8281 673.9844,51.6094 Q673.375,51.3906 672.75,51.3906 Q671.9844,51.3906 671.3438,51.7188 Q670.7188,52.0469 670.2188,52.7969 Q669.7344,53.5469 669.7344,54.5781 L669.7344,55.6719 Q669.7344,56.9063 670.625,57.7344 Q671.5156,58.5469 673.1094,58.5469 Q674.0469,58.5469 674.7031,58.2969 Q675.0938,58.1406 675.5156,57.7031 Q675.7813,57.4375 675.9219,57.3594 Q676.0781,57.2813 676.2813,57.2813 Q676.6094,57.2813 676.8594,57.5469 Q677.125,57.7969 677.125,58.1406 Q677.125,58.4844 676.7813,58.8906 Q676.2813,59.4688 675.4844,59.7969 Q674.4063,60.25 673.1094,60.25 Q671.5938,60.25 670.3906,59.625 Q669.4063,59.125 668.7188,58.0625 Q668.0313,56.9844 668.0313,55.7031 L668.0313,54.5469 Q668.0313,53.2188 668.6406,52.0781 Q669.2656,50.9219 670.3594,50.3125 Q671.4531,49.6875 672.6875,49.6875 Q673.4219,49.6875 674.0625,49.8594 Q674.7188,50.0156 675.2656,50.375 Z " fill="#000000"/><text fill="#000000" font-family="sans-serif" font-size="14" lengthAdjust="spacing" textLength="79" x="686.5" y="59.3535">Repositories</text><line style="stroke:#181818;stroke-width:0.5;" x1="658.5" x2="767.5" y1="70.5" y2="70.5"/><line style="stroke:#181818;stroke-width:0.5;" x1="658.5" x2="767.5" y1="78.5" y2="78.5"/></g><!--class AccountRepository--><g id="elem_AccountRepository"><rect codeLine="20" fill="#F1F1F1" height="63.6406" id="AccountRepository" rx="2.5" ry="2.5" style="stroke:#181818;stroke-width:0.5;" width="151" x="637.5" y="272"/><ellipse cx="652.5" cy="288" fill="#ADD1B2" rx="11" ry="11" style="stroke:#181818;stroke-width:1.0;"/><path d="M655.2656,283.875 Q655.4219,283.6563 655.6094,283.5469 Q655.7969,283.4375 656.0156,283.4375 Q656.3906,283.4375 656.625,283.7031 Q656.8594,283.9531 656.8594,284.5625 L656.8594,286.0156 Q656.8594,286.625 656.625,286.8906 Q656.3906,287.1563 656.0156,287.1563 Q655.6719,287.1563 655.4688,286.9531 Q655.2656,286.7656 655.1563,286.25 Q655.1094,285.8906 654.9219,285.7031 Q654.5938,285.3281 653.9844,285.1094 Q653.375,284.8906 652.75,284.8906 Q651.9844,284.8906 651.3438,285.2188 Q650.7188,285.5469 650.2188,286.2969 Q649.7344,287.0469 649.7344,288.0781 L649.7344,289.1719 Q649.7344,290.4063 650.625,291.2344 Q651.5156,292.0469 653.1094,292.0469 Q654.0469,292.0469 654.7031,291.7969 Q655.0938,291.6406 655.5156,291.2031 Q655.7813,290.9375 655.9219,290.8594 Q656.0781,290.7813 656.2813,290.7813 Q656.6094,290.7813 656.8594,291.0469 Q657.125,291.2969 657.125,291.6406 Q657.125,291.9844 656.7813,292.3906 Q656.2813,292.9688 655.4844,293.2969 Q654.4063,293.75 653.1094,293.75 Q651.5938,293.75 650.3906,293.125 Q649.4063,292.625 648.7188,291.5625 Q648.0313,290.4844 648.0313,289.2031 L648.0313,288.0469 Q648.0313,286.7188 648.6406,285.5781 Q649.2656,284.4219 650.3594,283.8125 Q651.4531,283.1875 652.6875,283.1875 Q653.4219,283.1875 654.0625,283.3594 Q654.7188,283.5156 655.2656,283.875 Z " fill="#000000"/><text fill="#000000" font-family="sans-serif" font-size="14" lengthAdjust="spacing" textLength="119" x="666.5" y="292.8535">AccountRepository</text><line style="stroke:#181818;stroke-width:0.5;" x1="638.5" x2="787.5" y1="304" y2="304"/><text fill="#000000" font-family="sans-serif" font-size="14" lengthAdjust="spacing" textLength="38" x="643.5" y="320.6738">-email</text><line style="stroke:#181818;stroke-width:0.5;" x1="638.5" x2="787.5" y1="327.6406" y2="327.6406"/></g><!--class Account--><g id="elem_Account"><rect codeLine="24" fill="#F1F1F1" height="220.0469" id="Account" rx="2.5" ry="2.5" style="stroke:#181818;stroke-width:0.5;" width="342" x="196" y="194"/><ellipse cx="337.25" cy="210" fill="#ADD1B2" rx="11" ry="11" style="stroke:#181818;stroke-width:1.0;"/><path d="M340.0156,205.875 Q340.1719,205.6563 340.3594,205.5469 Q340.5469,205.4375 340.7656,205.4375 Q341.1406,205.4375 341.375,205.7031 Q341.6094,205.9531 341.6094,206.5625 L341.6094,208.0156 Q341.6094,208.625 341.375,208.8906 Q341.1406,209.1563 340.7656,209.1563 Q340.4219,209.1563 340.2188,208.9531 Q340.0156,208.7656 339.9063,208.25 Q339.8594,207.8906 339.6719,207.7031 Q339.3438,207.3281 338.7344,207.1094 Q338.125,206.8906 337.5,206.8906 Q336.7344,206.8906 336.0938,207.2188 Q335.4688,207.5469 334.9688,208.2969 Q334.4844,209.0469 334.4844,210.0781 L334.4844,211.1719 Q334.4844,212.4063 335.375,213.2344 Q336.2656,214.0469 337.8594,214.0469 Q338.7969,214.0469 339.4531,213.7969 Q339.8438,213.6406 340.2656,213.2031 Q340.5313,212.9375 340.6719,212.8594 Q340.8281,212.7813 341.0313,212.7813 Q341.3594,212.7813 341.6094,213.0469 Q341.875,213.2969 341.875,213.6406 Q341.875,213.9844 341.5313,214.3906 Q341.0313,214.9688 340.2344,215.2969 Q339.1563,215.75 337.8594,215.75 Q336.3438,215.75 335.1406,215.125 Q334.1563,214.625 333.4688,213.5625 Q332.7813,212.4844 332.7813,211.2031 L332.7813,210.0469 Q332.7813,208.7188 333.3906,207.5781 Q334.0156,206.4219 335.1094,205.8125 Q336.2031,205.1875 337.4375,205.1875 Q338.1719,205.1875 338.8125,205.3594 Q339.4688,205.5156 340.0156,205.875 Z " fill="#000000"/><text fill="#000000" font-family="sans-serif" font-size="14" lengthAdjust="spacing" textLength="51" x="357.75" y="214.8535">Account</text><line style="stroke:#181818;stroke-width:0.5;" x1="197" x2="537" y1="226" y2="226"/><text fill="#000000" font-family="sans-serif" font-size="14" lengthAdjust="spacing" textLength="81" x="202" y="242.6738">-String name</text><text fill="#000000" font-family="sans-serif" font-size="14" lengthAdjust="spacing" textLength="189" x="202" y="258.3145">-String passaportCardNumber</text><text fill="#000000" font-family="sans-serif" font-size="14" lengthAdjust="spacing" textLength="120" x="202" y="273.9551">-Integer taxNumber</text><text fill="#000000" font-family="sans-serif" font-size="14" lengthAdjust="spacing" textLength="97" x="202" y="289.5957">-String address</text><text fill="#000000" font-family="sans-serif" font-size="14" lengthAdjust="spacing" textLength="79" x="202" y="305.2363">-String email</text><text fill="#000000" font-family="sans-serif" font-size="14" lengthAdjust="spacing" textLength="158" x="202" y="320.877">-String telephoneNumber</text><text fill="#000000" font-family="sans-serif" font-size="14" lengthAdjust="spacing" textLength="77" x="202" y="336.5176">-String state</text><text fill="#000000" font-family="sans-serif" font-size="14" lengthAdjust="spacing" textLength="87" x="202" y="352.1582">-String district</text><text fill="#000000" font-family="sans-serif" font-size="14" lengthAdjust="spacing" textLength="67" x="202" y="367.7988">-String city</text><line style="stroke:#181818;stroke-width:0.5;" x1="197" x2="537" y1="374.7656" y2="374.7656"/><text fill="#000000" font-family="sans-serif" font-size="14" lengthAdjust="spacing" textLength="310" x="202" y="391.4395">+create(name, passportCardNumber, taxNumber,</text><text fill="#000000" font-family="sans-serif" font-size="14" lengthAdjust="spacing" textLength="330" x="202" y="407.0801">address, email, telephoneNumber,state, district, city)</text></g><!--class UnregistedUser--><g id="elem_UnregistedUser"><rect codeLine="38" fill="#F1F1F1" height="48" id="UnregistedUser" rx="2.5" ry="2.5" style="stroke:#181818;stroke-width:0.5;" width="129" x="302.5" y="490"/><ellipse cx="317.5" cy="506" fill="#ADD1B2" rx="11" ry="11" style="stroke:#181818;stroke-width:1.0;"/><path d="M320.2656,501.875 Q320.4219,501.6563 320.6094,501.5469 Q320.7969,501.4375 321.0156,501.4375 Q321.3906,501.4375 321.625,501.7031 Q321.8594,501.9531 321.8594,502.5625 L321.8594,504.0156 Q321.8594,504.625 321.625,504.8906 Q321.3906,505.1563 321.0156,505.1563 Q320.6719,505.1563 320.4688,504.9531 Q320.2656,504.7656 320.1563,504.25 Q320.1094,503.8906 319.9219,503.7031 Q319.5938,503.3281 318.9844,503.1094 Q318.375,502.8906 317.75,502.8906 Q316.9844,502.8906 316.3438,503.2188 Q315.7188,503.5469 315.2188,504.2969 Q314.7344,505.0469 314.7344,506.0781 L314.7344,507.1719 Q314.7344,508.4063 315.625,509.2344 Q316.5156,510.0469 318.1094,510.0469 Q319.0469,510.0469 319.7031,509.7969 Q320.0938,509.6406 320.5156,509.2031 Q320.7813,508.9375 320.9219,508.8594 Q321.0781,508.7813 321.2813,508.7813 Q321.6094,508.7813 321.8594,509.0469 Q322.125,509.2969 322.125,509.6406 Q322.125,509.9844 321.7813,510.3906 Q321.2813,510.9688 320.4844,511.2969 Q319.4063,511.75 318.1094,511.75 Q316.5938,511.75 315.3906,511.125 Q314.4063,510.625 313.7188,509.5625 Q313.0313,508.4844 313.0313,507.2031 L313.0313,506.0469 Q313.0313,504.7188 313.6406,503.5781 Q314.2656,502.4219 315.3594,501.8125 Q316.4531,501.1875 317.6875,501.1875 Q318.4219,501.1875 319.0625,501.3594 Q319.7188,501.5156 320.2656,501.875 Z " fill="#000000"/><text fill="#000000" font-family="sans-serif" font-size="14" lengthAdjust="spacing" textLength="97" x="331.5" y="510.8535">UnregistedUser</text><line style="stroke:#181818;stroke-width:0.5;" x1="303.5" x2="430.5" y1="522" y2="522"/><line style="stroke:#181818;stroke-width:0.5;" x1="303.5" x2="430.5" y1="530" y2="530"/></g><!--link CreateAccountUI to CreateAccountController--><g id="link_CreateAccountUI_CreateAccountController"><path codeLine="40" d="M145.2,62.5 C160.88,62.5 173,62.5 173,62.5 C173,62.5 173.77,62.5 175.18,62.5 " fill="none" id="CreateAccountUI-to-CreateAccountController" style="stroke:#181818;stroke-width:1.0;stroke-dasharray:7.0,7.0;"/><polygon fill="#181818" points="180.29,62.5,171.29,58.5,175.29,62.5,171.29,66.5,180.29,62.5" style="stroke:#181818;stroke-width:1.0;"/></g><!--link CreateAccountController to Repositories--><g id="link_CreateAccountController_Repositories"><path codeLine="41" d="M553.67,62.5 C589.28,62.5 624.11,62.5 652.08,62.5 " fill="none" id="CreateAccountController-to-Repositories" style="stroke:#181818;stroke-width:1.0;stroke-dasharray:7.0,7.0;"/><polygon fill="#181818" points="657.22,62.5,648.22,58.5,652.22,62.5,648.22,66.5,657.22,62.5" style="stroke:#181818;stroke-width:1.0;"/><text fill="#000000" font-family="sans-serif" font-size="13" lengthAdjust="spacing" textLength="67" x="572" y="56.2686">repositories</text></g><!--link Repositories to Repositories--><g id="link_Repositories_Repositories"><path codeLine="42" d="M768.68,45.25 C787.94,45.07 803.5,50.82 803.5,62.5 C803.5,73.08 790.72,78.8 773.99,79.64 " fill="none" id="Repositories-to-Repositories" style="stroke:#181818;stroke-width:1.0;"/><polygon fill="#181818" points="768.68,79.75,777.7582,83.5692,773.679,79.65,777.5982,75.5708,768.68,79.75" style="stroke:#181818;stroke-width:1.0;"/><text fill="#000000" font-family="sans-serif" font-size="13" lengthAdjust="spacing" textLength="49" x="809.5" y="67.2686">instance</text></g><!--link Repositories to AccountRepository--><g id="link_Repositories_AccountRepository"><path codeLine="43" d="M713,86.9 C713,128.69 713,216.45 713,266.32 " fill="none" id="Repositories-to-AccountRepository" style="stroke:#181818;stroke-width:1.0;"/><polygon fill="#181818" points="713,271.61,717,262.61,713,266.61,709,262.61,713,271.61" style="stroke:#181818;stroke-width:1.0;"/><text fill="#000000" font-family="sans-serif" font-size="13" lengthAdjust="spacing" textLength="7" x="705.2781" y="261.3454">1</text></g><!--link AccountRepository to AccountRepository--><g id="link_AccountRepository_AccountRepository"><path codeLine="44" d="M788.66,276.51 C808.5,278.14 823.5,287.31 823.5,304 C823.5,319.26 810.97,328.22 793.66,330.9 " fill="none" id="AccountRepository-to-AccountRepository" style="stroke:#181818;stroke-width:1.0;"/><polygon fill="#181818" points="788.66,331.49,798.0662,334.4095,793.6257,330.905,797.1302,326.4644,788.66,331.49" style="stroke:#181818;stroke-width:1.0;"/><text fill="#000000" font-family="sans-serif" font-size="13" lengthAdjust="spacing" textLength="102" x="829.5" y="308.7686">verifyIfIUserExists</text></g><!--link CreateAccountController to Account--><g id="link_CreateAccountController_Account"><path codeLine="45" d="M367,118.15 C367,139.16 367,164.01 367,188.56 " fill="none" id="CreateAccountController-to-Account" style="stroke:#181818;stroke-width:1.0;stroke-dasharray:7.0,7.0;"/><polygon fill="#181818" points="367,193.79,371,184.79,367,188.79,363,184.79,367,193.79" style="stroke:#181818;stroke-width:1.0;"/><text fill="#000000" font-family="sans-serif" font-size="13" lengthAdjust="spacing" textLength="110" x="368" y="160.7686">AccountRepository</text></g><!--link Account to UnregistedUser--><g id="link_Account_UnregistedUser"><path codeLine="46" d="M367,414.18 C367,440.36 367,466.1 367,484.74 " fill="none" id="Account-to-UnregistedUser" style="stroke:#181818;stroke-width:1.0;"/><polygon fill="#181818" points="367,489.81,371,480.81,367,484.81,363,480.81,367,489.81" style="stroke:#181818;stroke-width:1.0;"/><text fill="#000000" font-family="sans-serif" font-size="13" lengthAdjust="spacing" textLength="59" x="368" y="456.7686">createdBy</text></g><!--SRC=[jLEnReCm4Dtz5LQMf2g9sZL3fJJgmDAXKROkZhaGAyP6zj66Hltt7eGG364i4znxPx_txfZwepAvS2BZcJLM7fpDWAChWDsGNCYZI663fGRkGA8mgUuI_44azbkPbE-5zbr4AmDOvi1pgylgWqtlWDQXPPqkgONtAqIdTWL2BAtPg1_WJupL25yx40WhAMrXS1lpy-zTP6qDEgirE7vcd9x7CNmcBfKFoArNQ5tvq3IaWAi-Dhk2idlQp8WC8WhB-vmChOLBteji1oxYA4xDwwSHIUB0-uX39fGc33Ja1skWONYa8oEUA4_s9KPSAYGrhBNOwb3WEyu7AXlFy_eUrkTTKRwXQsXmbVYmKXaHePE641k4b49jROMDZSEmU54Hb7hEGx2E8InT8mchLJmicCV_3g8DSciSf0H2ilNLXX7Gtyl5ozZ2iR55fPPWm4lwuMwVBC3c0wuofDf8wF68E7cU35U43PU6gCFYad-1K_iotiULrxSJsVRZ5XRj6TGvUcajgnVYiXbXybgoFm00]--></g></svg>