<?xml version="1.0" encoding="us-ascii" standalone="no"?><svg xmlns="http://www.w3.org/2000/svg" xmlns:xlink="http://www.w3.org/1999/xlink" contentStyleType="text/css" height="820px" preserveAspectRatio="none" style="width:968px;height:820px;background:#FFFFFF;" version="1.1" viewBox="0 0 968 820" width="968px" zoomAndPan="magnify"><defs/><g><rect fill="#FFFFFF" height="639.4688" style="stroke:#181818;stroke-width:1.0;" width="10" x="32.5" y="90.6406"/><rect fill="#FFFFFF" height="274.4219" style="stroke:#181818;stroke-width:1.0;" width="10" x="171.5" y="111.1641"/><rect fill="#FFFFFF" height="30.6406" style="stroke:#181818;stroke-width:1.0;" width="10" x="302.5" y="149.6875"/><rect fill="#FFFFFF" height="58.5234" style="stroke:#181818;stroke-width:1.0;" width="10" x="302.5" y="355.5859"/><rect fill="#FFFFFF" height="198.9531" style="stroke:#181818;stroke-width:1.0;" width="10" x="302.5" y="491.1563"/><rect fill="#FFFFFF" height="136.7344" style="stroke:#181818;stroke-width:1.0;" width="10" x="458.5" y="190.3281"/><rect fill="#FFFFFF" height="141.9063" style="stroke:#181818;stroke-width:1.0;" width="10" x="458.5" y="519.6797"/><rect fill="#FFFFFF" height="38.7852" style="stroke:#181818;stroke-width:1.0;" width="10" x="615" y="231.2305"/><rect fill="#FFFFFF" height="84.8594" style="stroke:#181818;stroke-width:1.0;" width="10" x="615" y="548.2031"/><rect fill="#FFFFFF" height="28.5234" style="stroke:#181818;stroke-width:1.0;" width="10" x="760" y="298.5391"/><rect fill="none" height="269" style="stroke:#000000;stroke-width:1.5;" width="952.5" x="10" y="454.1094"/><line style="stroke:#181818;stroke-width:0.5;stroke-dasharray:5.0,5.0;" x1="37" x2="37" y1="80.6406" y2="740.1094"/><line style="stroke:#181818;stroke-width:0.5;stroke-dasharray:5.0,5.0;" x1="176" x2="176" y1="80.6406" y2="740.1094"/><line style="stroke:#181818;stroke-width:0.5;stroke-dasharray:5.0,5.0;" x1="307.5" x2="307.5" y1="149.4844" y2="740.1094"/><line style="stroke:#181818;stroke-width:0.5;stroke-dasharray:5.0,5.0;" x1="463.5" x2="463.5" y1="190.125" y2="740.1094"/><line style="stroke:#181818;stroke-width:0.5;stroke-dasharray:5.0,5.0;" x1="619.5" x2="619.5" y1="80.6406" y2="740.1094"/><line style="stroke:#181818;stroke-width:0.5;stroke-dasharray:5.0,5.0;" x1="764.5" x2="764.5" y1="80.6406" y2="740.1094"/><line style="stroke:#181818;stroke-width:0.5;stroke-dasharray:5.0,5.0;" x1="897.5" x2="897.5" y1="80.6406" y2="740.1094"/><text fill="#000000" font-family="sans-serif" font-size="14" lengthAdjust="spacing" textLength="29" x="20" y="77.6738">User</text><ellipse cx="37.5" cy="13.5" fill="#E3E3E3" rx="8" ry="8" style="stroke:#181818;stroke-width:0.5;"/><path d="M37.5,21.5 L37.5,48.5 M24.5,29.5 L50.5,29.5 M37.5,48.5 L24.5,63.5 M37.5,48.5 L50.5,63.5 " fill="none" style="stroke:#181818;stroke-width:0.5;"/><text fill="#000000" font-family="sans-serif" font-size="14" lengthAdjust="spacing" textLength="29" x="20" y="751.7832">User</text><ellipse cx="37.5" cy="763.25" fill="#E3E3E3" rx="8" ry="8" style="stroke:#181818;stroke-width:0.5;"/><path d="M37.5,771.25 L37.5,798.25 M24.5,779.25 L50.5,779.25 M37.5,798.25 L24.5,813.25 M37.5,798.25 L50.5,813.25 " fill="none" style="stroke:#181818;stroke-width:0.5;"/><rect fill="#E3E3E3" height="29.6406" rx="2.5" ry="2.5" style="stroke:#181818;stroke-width:0.5;" width="83" x="135" y="50"/><text fill="#000000" font-family="sans-serif" font-size="14" lengthAdjust="spacing" textLength="69" x="142" y="69.6738">:{MenuX}UI</text><rect fill="#E3E3E3" height="29.6406" rx="2.5" ry="2.5" style="stroke:#181818;stroke-width:0.5;" width="83" x="135" y="739.1094"/><text fill="#000000" font-family="sans-serif" font-size="14" lengthAdjust="spacing" textLength="69" x="142" y="758.7832">:{MenuX}UI</text><rect fill="#E3E3E3" height="29.6406" rx="2.5" ry="2.5" style="stroke:#181818;stroke-width:0.5;" width="110" x="252.5" y="739.1094"/><text fill="#000000" font-family="sans-serif" font-size="14" lengthAdjust="spacing" textLength="96" x="259.5" y="758.7832">:{NameOfUC}UI</text><rect fill="#E3E3E3" height="29.6406" rx="2.5" ry="2.5" style="stroke:#181818;stroke-width:0.5;" width="160" x="383.5" y="739.1094"/><text fill="#000000" font-family="sans-serif" font-size="14" lengthAdjust="spacing" textLength="146" x="390.5" y="758.7832">:{NameOfUC}Controller</text><rect fill="#E3E3E3" height="29.6406" rx="2.5" ry="2.5" style="stroke:#181818;stroke-width:0.5;" width="133" x="553.5" y="50"/><text fill="#000000" font-family="sans-serif" font-size="14" lengthAdjust="spacing" textLength="119" x="560.5" y="69.6738">ApplicationSession</text><rect fill="#E3E3E3" height="29.6406" rx="2.5" ry="2.5" style="stroke:#181818;stroke-width:0.5;" width="133" x="553.5" y="739.1094"/><text fill="#000000" font-family="sans-serif" font-size="14" lengthAdjust="spacing" textLength="119" x="560.5" y="758.7832">ApplicationSession</text><rect fill="#E3E3E3" height="45.2813" rx="2.5" ry="2.5" style="stroke:#181818;stroke-width:0.5;" width="137" x="696.5" y="34.3594"/><text fill="#000000" font-family="sans-serif" font-size="14" lengthAdjust="spacing" textLength="74" x="728" y="54.0332">appSession</text><text fill="#000000" font-family="sans-serif" font-size="14" lengthAdjust="spacing" textLength="123" x="703.5" y="69.6738">:ApplicationSession</text><rect fill="#E3E3E3" height="45.2813" rx="2.5" ry="2.5" style="stroke:#181818;stroke-width:0.5;" width="137" x="696.5" y="739.1094"/><text fill="#000000" font-family="sans-serif" font-size="14" lengthAdjust="spacing" textLength="74" x="728" y="758.7832">appSession</text><text fill="#000000" font-family="sans-serif" font-size="14" lengthAdjust="spacing" textLength="123" x="703.5" y="774.4238">:ApplicationSession</text><rect fill="#E3E3E3" height="45.2813" rx="2.5" ry="2.5" style="stroke:#181818;stroke-width:0.5;" width="109" x="843.5" y="34.3594"/><text fill="#000000" font-family="sans-serif" font-size="14" lengthAdjust="spacing" textLength="95" x="850.5" y="54.0332">currentSession</text><text fill="#000000" font-family="sans-serif" font-size="14" lengthAdjust="spacing" textLength="83" x="856.5" y="69.6738">:UserSession</text><rect fill="#E3E3E3" height="45.2813" rx="2.5" ry="2.5" style="stroke:#181818;stroke-width:0.5;" width="109" x="843.5" y="739.1094"/><text fill="#000000" font-family="sans-serif" font-size="14" lengthAdjust="spacing" textLength="95" x="850.5" y="758.7832">currentSession</text><text fill="#000000" font-family="sans-serif" font-size="14" lengthAdjust="spacing" textLength="83" x="856.5" y="774.4238">:UserSession</text><rect fill="#FFFFFF" height="639.4688" style="stroke:#181818;stroke-width:1.0;" width="10" x="32.5" y="90.6406"/><rect fill="#FFFFFF" height="274.4219" style="stroke:#181818;stroke-width:1.0;" width="10" x="171.5" y="111.1641"/><rect fill="#FFFFFF" height="30.6406" style="stroke:#181818;stroke-width:1.0;" width="10" x="302.5" y="149.6875"/><rect fill="#FFFFFF" height="58.5234" style="stroke:#181818;stroke-width:1.0;" width="10" x="302.5" y="355.5859"/><rect fill="#FFFFFF" height="198.9531" style="stroke:#181818;stroke-width:1.0;" width="10" x="302.5" y="491.1563"/><rect fill="#FFFFFF" height="136.7344" style="stroke:#181818;stroke-width:1.0;" width="10" x="458.5" y="190.3281"/><rect fill="#FFFFFF" height="141.9063" style="stroke:#181818;stroke-width:1.0;" width="10" x="458.5" y="519.6797"/><rect fill="#FFFFFF" height="38.7852" style="stroke:#181818;stroke-width:1.0;" width="10" x="615" y="231.2305"/><rect fill="#FFFFFF" height="84.8594" style="stroke:#181818;stroke-width:1.0;" width="10" x="615" y="548.2031"/><rect fill="#FFFFFF" height="28.5234" style="stroke:#181818;stroke-width:1.0;" width="10" x="760" y="298.5391"/><polygon fill="#181818" points="159.5,107.1641,169.5,111.1641,159.5,115.1641,163.5,111.1641" style="stroke:#181818;stroke-width:1.0;"/><line style="stroke:#181818;stroke-width:1.0;" x1="42.5" x2="165.5" y1="111.1641" y2="111.1641"/><text fill="#000000" font-family="sans-serif" font-size="13" font-weight="bold" lengthAdjust="spacing" textLength="7" x="49.5" y="106.4092">1</text><text fill="#000000" font-family="sans-serif" font-size="13" lengthAdjust="spacing" textLength="99" x="60.5" y="106.4092">selects an option</text><polygon fill="#181818" points="240.5,135.6875,250.5,139.6875,240.5,143.6875,244.5,139.6875" style="stroke:#181818;stroke-width:1.0;"/><line style="stroke:#181818;stroke-width:1.0;stroke-dasharray:2.0,2.0;" x1="181.5" x2="246.5" y1="139.6875" y2="139.6875"/><text fill="#000000" font-family="sans-serif" font-size="13" font-weight="bold" lengthAdjust="spacing" textLength="7" x="188.5" y="134.9326">2</text><text fill="#000000" font-family="sans-serif" font-size="13" lengthAdjust="spacing" textLength="36" x="199.5" y="134.9326">create</text><rect fill="#E3E3E3" height="29.6406" rx="2.5" ry="2.5" style="stroke:#181818;stroke-width:0.5;" width="110" x="252.5" y="119.1641"/><text fill="#000000" font-family="sans-serif" font-size="14" lengthAdjust="spacing" textLength="96" x="259.5" y="138.8379">:{NameOfUC}UI</text><polygon fill="#181818" points="371.5,176.3281,381.5,180.3281,371.5,184.3281,375.5,180.3281" style="stroke:#181818;stroke-width:1.0;"/><line style="stroke:#181818;stroke-width:1.0;stroke-dasharray:2.0,2.0;" x1="307.5" x2="377.5" y1="180.3281" y2="180.3281"/><text fill="#000000" font-family="sans-serif" font-size="13" font-weight="bold" lengthAdjust="spacing" textLength="7" x="314.5" y="175.5732">3</text><text fill="#000000" font-family="sans-serif" font-size="13" lengthAdjust="spacing" textLength="36" x="325.5" y="175.5732">create</text><rect fill="#E3E3E3" height="29.6406" rx="2.5" ry="2.5" style="stroke:#181818;stroke-width:0.5;" width="160" x="383.5" y="159.8047"/><text fill="#000000" font-family="sans-serif" font-size="14" lengthAdjust="spacing" textLength="146" x="390.5" y="179.4785">:{NameOfUC}Controller</text><polygon fill="#181818" points="603,227.2305,613,231.2305,603,235.2305,607,231.2305" style="stroke:#181818;stroke-width:1.0;"/><line style="stroke:#181818;stroke-width:1.0;" x1="468.5" x2="609" y1="231.2305" y2="231.2305"/><text fill="#000000" font-family="sans-serif" font-size="13" font-weight="bold" lengthAdjust="spacing" textLength="7" x="475.5" y="226.4756">4</text><text fill="#000000" font-family="sans-serif" font-size="13" lengthAdjust="spacing" textLength="75" x="486.5" y="226.4756">getinstance()</text><path d="M630,205.4453 L630,244.4453 L757,244.4453 L757,215.4453 L747,205.4453 L630,205.4453 " fill="#FAFAFA" style="stroke:#181818;stroke-width:0.5;"/><path d="M747,205.4453 L747,215.4453 L757,215.4453 L747,205.4453 " fill="#FAFAFA" style="stroke:#181818;stroke-width:0.5;"/><text fill="#000000" font-family="sans-serif" font-size="13" lengthAdjust="spacing" textLength="79" x="636" y="222.2139">static method</text><text fill="#000000" font-family="sans-serif" font-size="13" lengthAdjust="spacing" textLength="106" x="636" y="236.7373">(Singleton pattern)</text><polygon fill="#181818" points="479.5,266.0156,469.5,270.0156,479.5,274.0156,475.5,270.0156" style="stroke:#181818;stroke-width:1.0;"/><line style="stroke:#181818;stroke-width:1.0;stroke-dasharray:2.0,2.0;" x1="473.5" x2="619" y1="270.0156" y2="270.0156"/><text fill="#000000" font-family="sans-serif" font-size="13" font-weight="bold" lengthAdjust="spacing" textLength="7" x="485.5" y="265.2607">5</text><text fill="#000000" font-family="sans-serif" font-size="13" lengthAdjust="spacing" textLength="68" x="496.5" y="265.2607">appSession</text><polygon fill="#181818" points="748,294.5391,758,298.5391,748,302.5391,752,298.5391" style="stroke:#181818;stroke-width:1.0;"/><line style="stroke:#181818;stroke-width:1.0;" x1="468.5" x2="754" y1="298.5391" y2="298.5391"/><text fill="#000000" font-family="sans-serif" font-size="13" font-weight="bold" lengthAdjust="spacing" textLength="7" x="475.5" y="293.7842">6</text><text fill="#000000" font-family="sans-serif" font-size="13" lengthAdjust="spacing" textLength="115" x="486.5" y="293.7842">getCurrentSession()</text><polygon fill="#181818" points="474.5,323.0625,464.5,327.0625,474.5,331.0625,470.5,327.0625" style="stroke:#181818;stroke-width:1.0;"/><line style="stroke:#181818;stroke-width:1.0;stroke-dasharray:2.0,2.0;" x1="468.5" x2="764" y1="327.0625" y2="327.0625"/><text fill="#000000" font-family="sans-serif" font-size="13" font-weight="bold" lengthAdjust="spacing" textLength="7" x="480.5" y="322.3076">7</text><text fill="#000000" font-family="sans-serif" font-size="13" lengthAdjust="spacing" textLength="87" x="491.5" y="322.3076">currentSession</text><polygon fill="#181818" points="290.5,351.5859,300.5,355.5859,290.5,359.5859,294.5,355.5859" style="stroke:#181818;stroke-width:1.0;"/><line style="stroke:#181818;stroke-width:1.0;" x1="181.5" x2="296.5" y1="355.5859" y2="355.5859"/><text fill="#000000" font-family="sans-serif" font-size="13" font-weight="bold" lengthAdjust="spacing" textLength="7" x="188.5" y="350.8311">8</text><text fill="#000000" font-family="sans-serif" font-size="13" lengthAdjust="spacing" textLength="26" x="199.5" y="350.8311">run()</text><polygon fill="#181818" points="53.5,410.1094,43.5,414.1094,53.5,418.1094,49.5,414.1094" style="stroke:#181818;stroke-width:1.0;"/><line style="stroke:#181818;stroke-width:1.0;stroke-dasharray:2.0,2.0;" x1="47.5" x2="306.5" y1="414.1094" y2="414.1094"/><text fill="#000000" font-family="sans-serif" font-size="13" font-weight="bold" lengthAdjust="spacing" textLength="7" x="59.5" y="409.3545">9</text><text fill="#000000" font-family="sans-serif" font-size="13" lengthAdjust="spacing" textLength="114" x="70.5" y="409.3545">requests something</text><path d="M10,454.1094 L83,454.1094 L83,460.6328 L73,470.6328 L10,470.6328 L10,454.1094 " fill="#EEEEEE" style="stroke:#000000;stroke-width:1.5;"/><rect fill="none" height="269" style="stroke:#000000;stroke-width:1.5;" width="952.5" x="10" y="454.1094"/><text fill="#000000" font-family="sans-serif" font-size="13" font-weight="bold" lengthAdjust="spacing" textLength="28" x="25" y="466.8779">loop</text><polygon fill="#181818" points="290.5,487.1563,300.5,491.1563,290.5,495.1563,294.5,491.1563" style="stroke:#181818;stroke-width:1.0;"/><line style="stroke:#181818;stroke-width:1.0;" x1="42.5" x2="296.5" y1="491.1563" y2="491.1563"/><text fill="#000000" font-family="sans-serif" font-size="13" font-weight="bold" lengthAdjust="spacing" textLength="14" x="49.5" y="486.4014">10</text><text fill="#000000" font-family="sans-serif" font-size="13" lengthAdjust="spacing" textLength="92" x="67.5" y="486.4014">does something</text><polygon fill="#181818" points="446.5,515.6797,456.5,519.6797,446.5,523.6797,450.5,519.6797" style="stroke:#181818;stroke-width:1.0;"/><line style="stroke:#181818;stroke-width:1.0;" x1="312.5" x2="452.5" y1="519.6797" y2="519.6797"/><text fill="#000000" font-family="sans-serif" font-size="13" font-weight="bold" lengthAdjust="spacing" textLength="14" x="319.5" y="514.9248">11</text><text fill="#000000" font-family="sans-serif" font-size="13" lengthAdjust="spacing" textLength="70" x="337.5" y="514.9248">methodX(...)</text><polygon fill="#181818" points="603,544.2031,613,548.2031,603,552.2031,607,548.2031" style="stroke:#181818;stroke-width:1.0;"/><line style="stroke:#181818;stroke-width:1.0;" x1="468.5" x2="609" y1="548.2031" y2="548.2031"/><text fill="#000000" font-family="sans-serif" font-size="13" font-weight="bold" lengthAdjust="spacing" textLength="14" x="475.5" y="543.4482">12</text><text fill="#000000" font-family="sans-serif" font-size="13" lengthAdjust="spacing" textLength="72" x="493.5" y="543.4482">methodY(...)</text><rect fill="none" height="51.3359" style="stroke:#000000;stroke-width:1.5;" width="405" x="550.5" y="556.2031"/><path d="M550.5,556.2031 L612.5,556.2031 L612.5,562.2031 L602.5,572.2031 L550.5,572.2031 L550.5,556.2031 " fill="#EEEEEE" style="stroke:#000000;stroke-width:2.0;"/><text fill="#000000" font-family="sans-serif" font-size="13" font-weight="bold" lengthAdjust="spacing" textLength="17" x="563.5" y="569.9717">ref</text><text fill="#000000" font-family="sans-serif" font-size="12" lengthAdjust="spacing" textLength="3" x="751.5" y="587.0664">&#160;</text><text fill="#000000" font-family="sans-serif" font-size="12" lengthAdjust="spacing" textLength="3" x="751.5" y="600.4727">&#160;</text><polygon fill="#181818" points="479.5,629.0625,469.5,633.0625,479.5,637.0625,475.5,633.0625" style="stroke:#181818;stroke-width:1.0;"/><line style="stroke:#181818;stroke-width:1.0;stroke-dasharray:2.0,2.0;" x1="473.5" x2="619" y1="633.0625" y2="633.0625"/><text fill="#000000" font-family="sans-serif" font-size="13" font-weight="bold" lengthAdjust="spacing" textLength="14" x="485.5" y="628.3076">13</text><text fill="#000000" font-family="sans-serif" font-size="13" lengthAdjust="spacing" textLength="41" x="503.5" y="628.3076">answer</text><polygon fill="#181818" points="323.5,657.5859,313.5,661.5859,323.5,665.5859,319.5,661.5859" style="stroke:#181818;stroke-width:1.0;"/><line style="stroke:#181818;stroke-width:1.0;stroke-dasharray:2.0,2.0;" x1="317.5" x2="462.5" y1="661.5859" y2="661.5859"/><text fill="#000000" font-family="sans-serif" font-size="13" font-weight="bold" lengthAdjust="spacing" textLength="14" x="329.5" y="656.8311">14</text><text fill="#000000" font-family="sans-serif" font-size="13" lengthAdjust="spacing" textLength="41" x="347.5" y="656.8311">answer</text><polygon fill="#181818" points="53.5,686.1094,43.5,690.1094,53.5,694.1094,49.5,690.1094" style="stroke:#181818;stroke-width:1.0;"/><line style="stroke:#181818;stroke-width:1.0;stroke-dasharray:2.0,2.0;" x1="47.5" x2="306.5" y1="690.1094" y2="690.1094"/><text fill="#000000" font-family="sans-serif" font-size="13" font-weight="bold" lengthAdjust="spacing" textLength="14" x="59.5" y="685.3545">15</text><text fill="#000000" font-family="sans-serif" font-size="13" lengthAdjust="spacing" textLength="181" x="77.5" y="685.3545">answers/requests another thing</text><!--SRC=[bLNBRjim4BphAmXVwWQ9U_UXW27u8A1s0gi2Kg0NHbfBH2HI9QcaHTr_xvAs95AFEE751dTsk9oTfTGpupMLj2ALu28jfAY0QDb0eBf8JTDdcaEi_vH09AIQyhnq0QgWcNXbF2T7MYe80jfemPlg2MGGV2fO1kGeX7uIlmEQQY798b4W5uGgaiJRGu0icgMifboJnVhl3dZp-2-9B62ttIT3m9vMS7zCmXQJXFlDRfj4ixXGS2r5MLuE3RyVlldOJLsNBAMQ2Hw3KlXZWPk7XtWRnz7zFlJnjAulk9zyVJLvK5ZQI0bSzmH63JSpJ0wNpC08nbweXhDI0S5b_f6xhrOQiYOAIko98fGJKPiYBAZBimAIox8fTvZRIdPpWmof14HseFx8LjSkP8-_x5eU8-KKHmPli7GXsmYNssoOgpd28tSEcd65jajX-Td3Su4iakM5zhRDGZnAJYhGXSX6qMNCZ8dHfcXlhK5odnXuPiczpQvkrnT3PhVqLY6yG-yOByFHoIMz8afq5YNqZ3IGPe8tUgFOo2tMT-ZrWgEfljlc3fpN6mzFaOrRyzWl0pvhv7adsgb0KlZLWC9nKCAq7hlifPnEf-iUBOMeErGxRKxXcO0f_kaRZ8ljP3vxyt6vMgrcUZSQaFaXEPFz69EzsxbcIJWIyGBI1TuwZRvrtwP91ZCvo38PcviDhbxnKp54lsSsUZty5arGpbfppafd3lMbinJ55w50RJvkgrOOwwp0HPXN_Jy0]--></g></svg>