<?xml version="1.0" encoding="us-ascii" standalone="no"?><svg xmlns="http://www.w3.org/2000/svg" xmlns:xlink="http://www.w3.org/1999/xlink" contentStyleType="text/css" height="708px" preserveAspectRatio="none" style="width:702px;height:708px;background:#FFFFFF;" version="1.1" viewBox="0 0 702 708" width="702px" zoomAndPan="magnify"><defs/><g><!--entity System_Administrator--><g id="elem_System_Administrator"><ellipse cx="52" cy="602" fill="#F1F1F1" rx="8" ry="8" style="stroke:#181818;stroke-width:0.5;"/><path d="M52,610 L52,637 M39,618 L65,618 M52,637 L39,652 M52,637 L65,652 " fill="none" style="stroke:#181818;stroke-width:0.5;"/><text fill="#000000" font-family="sans-serif" font-size="14" lengthAdjust="spacing" textLength="46" x="10.5" y="668.6074">System</text><text fill="#000000" font-family="sans-serif" font-size="14" lengthAdjust="spacing" textLength="83" x="10.5" y="687.2285">Administrator</text></g><!--entity User--><g id="elem_User"><ellipse cx="52" cy="488" fill="#F1F1F1" rx="8" ry="8" style="stroke:#181818;stroke-width:0.5;"/><path d="M52,496 L52,523 M39,504 L65,504 M52,523 L39,538 M52,523 L65,538 " fill="none" style="stroke:#181818;stroke-width:0.5;"/><text fill="#000000" font-family="sans-serif" font-size="14" lengthAdjust="spacing" textLength="29" x="37.5" y="554.6074">User</text></g><!--entity Unregistered_User--><g id="elem_Unregistered_User"><ellipse cx="52" cy="356" fill="#F1F1F1" rx="8" ry="8" style="stroke:#181818;stroke-width:0.5;"/><path d="M52,364 L52,391 M39,372 L65,372 M52,391 L39,406 M52,391 L65,406 " fill="none" style="stroke:#181818;stroke-width:0.5;"/><text fill="#000000" font-family="sans-serif" font-size="14" lengthAdjust="spacing" textLength="81" x="11.5" y="422.6074">Unregistered</text><text fill="#000000" font-family="sans-serif" font-size="14" lengthAdjust="spacing" textLength="29" x="11.5" y="441.2285">User</text></g><!--entity Owner--><g id="elem_Owner"><ellipse cx="52" cy="242" fill="#F1F1F1" rx="8" ry="8" style="stroke:#181818;stroke-width:0.5;"/><path d="M52,250 L52,277 M39,258 L65,258 M52,277 L39,292 M52,277 L65,292 " fill="none" style="stroke:#181818;stroke-width:0.5;"/><text fill="#000000" font-family="sans-serif" font-size="14" lengthAdjust="spacing" textLength="41" x="31.5" y="308.6074">Owner</text></g><!--entity Agent--><g id="elem_Agent"><ellipse cx="52" cy="128" fill="#F1F1F1" rx="8" ry="8" style="stroke:#181818;stroke-width:0.5;"/><path d="M52,136 L52,163 M39,144 L65,144 M52,163 L39,178 M52,163 L65,178 " fill="none" style="stroke:#181818;stroke-width:0.5;"/><text fill="#000000" font-family="sans-serif" font-size="14" lengthAdjust="spacing" textLength="37" x="33.5" y="194.6074">Agent</text></g><!--entity New_Employee--><g id="elem_New_Employee"><ellipse cx="52" cy="14" fill="#F1F1F1" rx="8" ry="8" style="stroke:#181818;stroke-width:0.5;"/><path d="M52,22 L52,49 M39,30 L65,30 M52,49 L39,64 M52,49 L65,64 " fill="none" style="stroke:#181818;stroke-width:0.5;"/><text fill="#000000" font-family="sans-serif" font-size="14" lengthAdjust="spacing" textLength="92" x="6" y="80.6074">New Employee</text></g><g id="elem_UC5"><ellipse cx="259.0431" cy="604.0086" fill="#F1F1F1" rx="78.0431" ry="18.0086" style="stroke:#181818;stroke-width:0.5;"/><text fill="#000000" font-family="sans-serif" font-size="14" lengthAdjust="spacing" textLength="103" x="204.5431" y="608.8123">registers a store</text></g><g id="elem_UC1"><ellipse cx="259.0589" cy="371.9118" fill="#F1F1F1" rx="87.5589" ry="19.9118" style="stroke:#181818;stroke-width:0.5;"/><text fill="#000000" font-family="sans-serif" font-size="14" lengthAdjust="spacing" textLength="128" x="192.0589" y="376.7155">see listed properties</text></g><g id="elem_UC21"><ellipse cx="558.6041" cy="158.8729" fill="#F1F1F1" rx="81.6041" ry="29.3729" style="stroke:#181818;stroke-width:0.5;"/><text fill="#000000" font-family="sans-serif" font-size="14" lengthAdjust="spacing" textLength="99" x="506.1041" y="154.366">launches a sale</text><text fill="#000000" font-family="sans-serif" font-size="14" lengthAdjust="spacing" textLength="94" x="508.6041" y="172.9871">announcement</text></g><g id="elem_UC22"><ellipse cx="259.0286" cy="159.2057" fill="#F1F1F1" rx="94.0286" ry="21.2057" style="stroke:#181818;stroke-width:0.5;"/><text fill="#000000" font-family="sans-serif" font-size="14" lengthAdjust="spacing" textLength="144" x="184.0286" y="164.0094">is contacted by a client</text></g><g id="elem_UC3"><ellipse cx="259.244" cy="680.1488" fill="#F1F1F1" rx="101.244" ry="22.6488" style="stroke:#181818;stroke-width:0.5;"/><text fill="#000000" font-family="sans-serif" font-size="14" lengthAdjust="spacing" textLength="161" x="177.9994" y="684.2223">registers a new employee</text></g><g id="elem_UC41"><ellipse cx="258.7712" cy="273.0542" fill="#F1F1F1" rx="83.2712" ry="19.0542" style="stroke:#181818;stroke-width:0.5;"/><text fill="#000000" font-family="sans-serif" font-size="14" lengthAdjust="spacing" textLength="117" x="197.2712" y="277.8579">chooses the agent</text></g><g id="elem_UC42"><ellipse cx="558.2633" cy="273.0527" fill="#F1F1F1" rx="138.2633" ry="30.0527" style="stroke:#181818;stroke-width:0.5;"/><text fill="#000000" font-family="sans-serif" font-size="14" lengthAdjust="spacing" textLength="242" x="437.2633" y="276.8495">submits a request for listing a property</text></g><g id="elem_UC7"><ellipse cx="258.8136" cy="446.8627" fill="#F1F1F1" rx="84.8136" ry="19.3627" style="stroke:#181818;stroke-width:0.5;"/><text fill="#000000" font-family="sans-serif" font-size="14" lengthAdjust="spacing" textLength="121" x="195.3136" y="451.6664">creates an account</text></g><!--link Unregistered_User to UC1--><g id="link_Unregistered_User_UC1"><path d="M92.53,391.37 C116.08,388.62 146.87,385.01 175.49,381.66 " fill="none" id="Unregistered_User-to-UC1" style="stroke:#181818;stroke-width:1.0;"/><polygon fill="#181818" points="180.81,381.04,171.4038,378.1205,175.8443,381.625,172.3398,386.0656,180.81,381.04" style="stroke:#181818;stroke-width:1.0;"/></g><!--link Agent to UC22--><g id="link_Agent_UC22"><path d="M70.83,159 C91.07,159 125.71,159 159.73,159 " fill="none" id="Agent-to-UC22" style="stroke:#181818;stroke-width:1.0;"/><polygon fill="#181818" points="164.74,159,155.74,155,159.74,159,155.74,163,164.74,159" style="stroke:#181818;stroke-width:1.0;"/></g><!--link UC22 to UC21--><g id="link_UC22_UC21"><path d="M353.31,159 C391,159 434.21,159 471.16,159 " fill="none" id="UC22-to-UC21" style="stroke:#181818;stroke-width:1.0;"/><polygon fill="#181818" points="476.56,159,467.56,155,471.56,159,467.56,163,476.56,159" style="stroke:#181818;stroke-width:1.0;"/></g><!--link System_Administrator to UC3--><g id="link_System_Administrator_UC3"><path d="M93.5,649.51 C116.9,653.84 147.2,659.46 175.41,664.69 " fill="none" id="System_Administrator-to-UC3" style="stroke:#181818;stroke-width:1.0;"/><polygon fill="#181818" points="180.65,665.66,172.5178,660.1041,175.7318,664.7593,171.0767,667.9733,180.65,665.66" style="stroke:#181818;stroke-width:1.0;"/></g><!--link Owner to UC41--><g id="link_Owner_UC41"><path d="M72.66,273 C95.2,273 133.71,273 169.8,273 " fill="none" id="Owner-to-UC41" style="stroke:#181818;stroke-width:1.0;"/><polygon fill="#181818" points="175.11,273,166.11,269,170.11,273,166.11,277,175.11,273" style="stroke:#181818;stroke-width:1.0;"/></g><!--link UC41 to UC42--><g id="link_UC41_UC42"><path d="M342.87,273 C365.18,273 389.97,273 414.55,273 " fill="none" id="UC41-to-UC42" style="stroke:#181818;stroke-width:1.0;"/><polygon fill="#181818" points="419.79,273,410.79,269,414.79,273,410.79,277,419.79,273" style="stroke:#181818;stroke-width:1.0;"/></g><!--link System_Administrator to UC5--><g id="link_System_Administrator_UC5"><path d="M93.5,634.49 C121.75,629.26 160.05,622.16 192.59,616.12 " fill="none" id="System_Administrator-to-UC5" style="stroke:#181818;stroke-width:1.0;"/><polygon fill="#181818" points="197.76,615.17,188.1802,612.8837,192.8443,616.0845,189.6435,620.7487,197.76,615.17" style="stroke:#181818;stroke-width:1.0;"/></g><!--link Unregistered_User to UC7--><g id="link_Unregistered_User_UC7"><path d="M92.53,405.83 C121.8,413.12 162.27,423.18 195.86,431.54 " fill="none" id="Unregistered_User-to-UC7" style="stroke:#181818;stroke-width:1.0;"/><polygon fill="#181818" points="200.76,432.76,192.9821,426.7181,195.9059,431.5608,191.0633,434.4846,200.76,432.76" style="stroke:#181818;stroke-width:1.0;"/></g><!--SRC=[XL9DRzim3BthLn2vvDJ3iXMz3UYyNhT3a5k0W9KPMwXCUHADp1ZstqVvex6phVN181xVuySJj-d5SOiH6sW21rl7q118xCXSCotQ5wneBxqdY6G5kV9ajbT6gh4C5ySLdD4dCWlnA_-N0Vs-X5XIB88F4Iwr4pA_ZTcA4orzI0G5wk-hmofhdtvYqsedu-ai806Ygsg1qkMYBh0PIg8LBRRPzqceEV9ZsJXsII8gl05CC6PEgyHIgNr7OWvM2OvKgO8YbKU-qXRmwLRp_S8JROYMgSUAM8RK42rJt-W2Jxfhw8a6XWAd6J3ZdbqYcztPx5KoiWx5_JgLYC3dqKfeOsWfYgCqKJ-igHuxjZKbG4ZewSZ871IYPfxoKEnkD2w13Imwj3PuxbLglLlGTslwR5FkmReXBJSy51_NR5k7a7GUgGcmkbRzT3D4wfuR9xbcf1yT9O6pMfYtpWU8y-BzB7zZgFH_9sqabEmEwnjPDMOUvs5yZR-E0ExkFh-wF3pmX4okv616HjA_xd9YZDOC5pGXamivc97TUrNktvpquGy0]--></g></svg>