<?xml version="1.0" encoding="us-ascii" standalone="no"?><svg xmlns="http://www.w3.org/2000/svg" xmlns:xlink="http://www.w3.org/1999/xlink" contentStyleType="text/css" height="560px" preserveAspectRatio="none" style="width:844px;height:560px;background:#FFFFFF;" version="1.1" viewBox="0 0 844 560" width="844px" zoomAndPan="magnify"><defs/><g><!--class DisplayPropertiesUI--><g id="elem_DisplayPropertiesUI"><rect codeLine="11" fill="#F1F1F1" height="48" id="DisplayPropertiesUI" rx="2.5" ry="2.5" style="stroke:#181818;stroke-width:0.5;" width="155" x="7" y="30.5"/><ellipse cx="22" cy="46.5" fill="#ADD1B2" rx="11" ry="11" style="stroke:#181818;stroke-width:1.0;"/><path d="M24.7656,42.375 Q24.9219,42.1563 25.1094,42.0469 Q25.2969,41.9375 25.5156,41.9375 Q25.8906,41.9375 26.125,42.2031 Q26.3594,42.4531 26.3594,43.0625 L26.3594,44.5156 Q26.3594,45.125 26.125,45.3906 Q25.8906,45.6563 25.5156,45.6563 Q25.1719,45.6563 24.9688,45.4531 Q24.7656,45.2656 24.6563,44.75 Q24.6094,44.3906 24.4219,44.2031 Q24.0938,43.8281 23.4844,43.6094 Q22.875,43.3906 22.25,43.3906 Q21.4844,43.3906 20.8438,43.7188 Q20.2188,44.0469 19.7188,44.7969 Q19.2344,45.5469 19.2344,46.5781 L19.2344,47.6719 Q19.2344,48.9063 20.125,49.7344 Q21.0156,50.5469 22.6094,50.5469 Q23.5469,50.5469 24.2031,50.2969 Q24.5938,50.1406 25.0156,49.7031 Q25.2813,49.4375 25.4219,49.3594 Q25.5781,49.2813 25.7813,49.2813 Q26.1094,49.2813 26.3594,49.5469 Q26.625,49.7969 26.625,50.1406 Q26.625,50.4844 26.2813,50.8906 Q25.7813,51.4688 24.9844,51.7969 Q23.9063,52.25 22.6094,52.25 Q21.0938,52.25 19.8906,51.625 Q18.9063,51.125 18.2188,50.0625 Q17.5313,48.9844 17.5313,47.7031 L17.5313,46.5469 Q17.5313,45.2188 18.1406,44.0781 Q18.7656,42.9219 19.8594,42.3125 Q20.9531,41.6875 22.1875,41.6875 Q22.9219,41.6875 23.5625,41.8594 Q24.2188,42.0156 24.7656,42.375 Z " fill="#000000"/><text fill="#000000" font-family="sans-serif" font-size="14" lengthAdjust="spacing" textLength="123" x="36" y="51.3535">DisplayPropertiesUI</text><line style="stroke:#181818;stroke-width:0.5;" x1="8" x2="161" y1="62.5" y2="62.5"/><line style="stroke:#181818;stroke-width:0.5;" x1="8" x2="161" y1="70.5" y2="70.5"/></g><!--class DisplayPropertiesController--><g id="elem_DisplayPropertiesController"><rect codeLine="13" fill="#F1F1F1" height="79.2813" id="DisplayPropertiesController" rx="2.5" ry="2.5" style="stroke:#181818;stroke-width:0.5;" width="246" x="197.5" y="15"/><ellipse cx="230.95" cy="31" fill="#ADD1B2" rx="11" ry="11" style="stroke:#181818;stroke-width:1.0;"/><path d="M233.7156,26.875 Q233.8719,26.6563 234.0594,26.5469 Q234.2469,26.4375 234.4656,26.4375 Q234.8406,26.4375 235.075,26.7031 Q235.3094,26.9531 235.3094,27.5625 L235.3094,29.0156 Q235.3094,29.625 235.075,29.8906 Q234.8406,30.1563 234.4656,30.1563 Q234.1219,30.1563 233.9188,29.9531 Q233.7156,29.7656 233.6063,29.25 Q233.5594,28.8906 233.3719,28.7031 Q233.0438,28.3281 232.4344,28.1094 Q231.825,27.8906 231.2,27.8906 Q230.4344,27.8906 229.7938,28.2188 Q229.1688,28.5469 228.6688,29.2969 Q228.1844,30.0469 228.1844,31.0781 L228.1844,32.1719 Q228.1844,33.4063 229.075,34.2344 Q229.9656,35.0469 231.5594,35.0469 Q232.4969,35.0469 233.1531,34.7969 Q233.5438,34.6406 233.9656,34.2031 Q234.2313,33.9375 234.3719,33.8594 Q234.5281,33.7813 234.7313,33.7813 Q235.0594,33.7813 235.3094,34.0469 Q235.575,34.2969 235.575,34.6406 Q235.575,34.9844 235.2313,35.3906 Q234.7313,35.9688 233.9344,36.2969 Q232.8563,36.75 231.5594,36.75 Q230.0438,36.75 228.8406,36.125 Q227.8563,35.625 227.1688,34.5625 Q226.4813,33.4844 226.4813,32.2031 L226.4813,31.0469 Q226.4813,29.7188 227.0906,28.5781 Q227.7156,27.4219 228.8094,26.8125 Q229.9031,26.1875 231.1375,26.1875 Q231.8719,26.1875 232.5125,26.3594 Q233.1688,26.5156 233.7156,26.875 Z " fill="#000000"/><text fill="#000000" font-family="sans-serif" font-size="14" lengthAdjust="spacing" textLength="173" x="249.05" y="35.8535">DisplayPropertiesController</text><line style="stroke:#181818;stroke-width:0.5;" x1="198.5" x2="442.5" y1="47" y2="47"/><line style="stroke:#181818;stroke-width:0.5;" x1="198.5" x2="442.5" y1="55" y2="55"/><text fill="#000000" font-family="sans-serif" font-size="14" lengthAdjust="spacing" textLength="234" x="203.5" y="71.6738">+CreateDisplayPropertiesController()</text><text fill="#000000" font-family="sans-serif" font-size="14" lengthAdjust="spacing" textLength="171" x="203.5" y="87.3145">+getPropertiesRepository()</text></g><!--class Repositories--><g id="elem_Repositories"><rect codeLine="18" fill="#F1F1F1" height="94.9219" id="Repositories" rx="2.5" ry="2.5" style="stroke:#181818;stroke-width:0.5;" width="194" x="547.5" y="7"/><ellipse cx="600.75" cy="23" fill="#ADD1B2" rx="11" ry="11" style="stroke:#181818;stroke-width:1.0;"/><path d="M603.5156,18.875 Q603.6719,18.6563 603.8594,18.5469 Q604.0469,18.4375 604.2656,18.4375 Q604.6406,18.4375 604.875,18.7031 Q605.1094,18.9531 605.1094,19.5625 L605.1094,21.0156 Q605.1094,21.625 604.875,21.8906 Q604.6406,22.1563 604.2656,22.1563 Q603.9219,22.1563 603.7188,21.9531 Q603.5156,21.7656 603.4063,21.25 Q603.3594,20.8906 603.1719,20.7031 Q602.8438,20.3281 602.2344,20.1094 Q601.625,19.8906 601,19.8906 Q600.2344,19.8906 599.5938,20.2188 Q598.9688,20.5469 598.4688,21.2969 Q597.9844,22.0469 597.9844,23.0781 L597.9844,24.1719 Q597.9844,25.4063 598.875,26.2344 Q599.7656,27.0469 601.3594,27.0469 Q602.2969,27.0469 602.9531,26.7969 Q603.3438,26.6406 603.7656,26.2031 Q604.0313,25.9375 604.1719,25.8594 Q604.3281,25.7813 604.5313,25.7813 Q604.8594,25.7813 605.1094,26.0469 Q605.375,26.2969 605.375,26.6406 Q605.375,26.9844 605.0313,27.3906 Q604.5313,27.9688 603.7344,28.2969 Q602.6563,28.75 601.3594,28.75 Q599.8438,28.75 598.6406,28.125 Q597.6563,27.625 596.9688,26.5625 Q596.2813,25.4844 596.2813,24.2031 L596.2813,23.0469 Q596.2813,21.7188 596.8906,20.5781 Q597.5156,19.4219 598.6094,18.8125 Q599.7031,18.1875 600.9375,18.1875 Q601.6719,18.1875 602.3125,18.3594 Q602.9688,18.5156 603.5156,18.875 Z " fill="#000000"/><text fill="#000000" font-family="sans-serif" font-size="14" lengthAdjust="spacing" textLength="79" x="621.25" y="27.8535">Repositories</text><line style="stroke:#181818;stroke-width:0.5;" x1="548.5" x2="740.5" y1="39" y2="39"/><text fill="#000000" font-family="sans-serif" font-size="14" lengthAdjust="spacing" textLength="84" x="553.5" y="55.6738">-Repositories</text><line style="stroke:#181818;stroke-width:0.5;" x1="548.5" x2="740.5" y1="62.6406" y2="62.6406"/><text fill="#000000" font-family="sans-serif" font-size="14" lengthAdjust="spacing" textLength="182" x="553.5" y="79.3145">+getInstance() : Repositories</text><text fill="#000000" font-family="sans-serif" font-size="14" lengthAdjust="spacing" textLength="171" x="553.5" y="94.9551">+getPropertiesRepository()</text></g><!--class PropertiesRepository--><g id="elem_PropertiesRepository"><rect codeLine="24" fill="#F1F1F1" height="63.6406" id="PropertiesRepository" rx="2.5" ry="2.5" style="stroke:#181818;stroke-width:0.5;" width="165" x="562" y="271.5"/><ellipse cx="577" cy="287.5" fill="#ADD1B2" rx="11" ry="11" style="stroke:#181818;stroke-width:1.0;"/><path d="M579.7656,283.375 Q579.9219,283.1563 580.1094,283.0469 Q580.2969,282.9375 580.5156,282.9375 Q580.8906,282.9375 581.125,283.2031 Q581.3594,283.4531 581.3594,284.0625 L581.3594,285.5156 Q581.3594,286.125 581.125,286.3906 Q580.8906,286.6563 580.5156,286.6563 Q580.1719,286.6563 579.9688,286.4531 Q579.7656,286.2656 579.6563,285.75 Q579.6094,285.3906 579.4219,285.2031 Q579.0938,284.8281 578.4844,284.6094 Q577.875,284.3906 577.25,284.3906 Q576.4844,284.3906 575.8438,284.7188 Q575.2188,285.0469 574.7188,285.7969 Q574.2344,286.5469 574.2344,287.5781 L574.2344,288.6719 Q574.2344,289.9063 575.125,290.7344 Q576.0156,291.5469 577.6094,291.5469 Q578.5469,291.5469 579.2031,291.2969 Q579.5938,291.1406 580.0156,290.7031 Q580.2813,290.4375 580.4219,290.3594 Q580.5781,290.2813 580.7813,290.2813 Q581.1094,290.2813 581.3594,290.5469 Q581.625,290.7969 581.625,291.1406 Q581.625,291.4844 581.2813,291.8906 Q580.7813,292.4688 579.9844,292.7969 Q578.9063,293.25 577.6094,293.25 Q576.0938,293.25 574.8906,292.625 Q573.9063,292.125 573.2188,291.0625 Q572.5313,289.9844 572.5313,288.7031 L572.5313,287.5469 Q572.5313,286.2188 573.1406,285.0781 Q573.7656,283.9219 574.8594,283.3125 Q575.9531,282.6875 577.1875,282.6875 Q577.9219,282.6875 578.5625,282.8594 Q579.2188,283.0156 579.7656,283.375 Z " fill="#000000"/><text fill="#000000" font-family="sans-serif" font-size="14" lengthAdjust="spacing" textLength="133" x="591" y="292.3535">PropertiesRepository</text><line style="stroke:#181818;stroke-width:0.5;" x1="563" x2="726" y1="303.5" y2="303.5"/><text fill="#000000" font-family="sans-serif" font-size="14" lengthAdjust="spacing" textLength="70" x="568" y="320.1738">-Properties</text><line style="stroke:#181818;stroke-width:0.5;" x1="563" x2="726" y1="327.1406" y2="327.1406"/></g><!--class UnregisteredUser--><g id="elem_UnregisteredUser"><rect codeLine="28" fill="#F1F1F1" height="48" id="UnregisteredUser" rx="2.5" ry="2.5" style="stroke:#181818;stroke-width:0.5;" width="142" x="249.5" y="505"/><ellipse cx="264.5" cy="521" fill="#ADD1B2" rx="11" ry="11" style="stroke:#181818;stroke-width:1.0;"/><path d="M267.2656,516.875 Q267.4219,516.6563 267.6094,516.5469 Q267.7969,516.4375 268.0156,516.4375 Q268.3906,516.4375 268.625,516.7031 Q268.8594,516.9531 268.8594,517.5625 L268.8594,519.0156 Q268.8594,519.625 268.625,519.8906 Q268.3906,520.1563 268.0156,520.1563 Q267.6719,520.1563 267.4688,519.9531 Q267.2656,519.7656 267.1563,519.25 Q267.1094,518.8906 266.9219,518.7031 Q266.5938,518.3281 265.9844,518.1094 Q265.375,517.8906 264.75,517.8906 Q263.9844,517.8906 263.3438,518.2188 Q262.7188,518.5469 262.2188,519.2969 Q261.7344,520.0469 261.7344,521.0781 L261.7344,522.1719 Q261.7344,523.4063 262.625,524.2344 Q263.5156,525.0469 265.1094,525.0469 Q266.0469,525.0469 266.7031,524.7969 Q267.0938,524.6406 267.5156,524.2031 Q267.7813,523.9375 267.9219,523.8594 Q268.0781,523.7813 268.2813,523.7813 Q268.6094,523.7813 268.8594,524.0469 Q269.125,524.2969 269.125,524.6406 Q269.125,524.9844 268.7813,525.3906 Q268.2813,525.9688 267.4844,526.2969 Q266.4063,526.75 265.1094,526.75 Q263.5938,526.75 262.3906,526.125 Q261.4063,525.625 260.7188,524.5625 Q260.0313,523.4844 260.0313,522.2031 L260.0313,521.0469 Q260.0313,519.7188 260.6406,518.5781 Q261.2656,517.4219 262.3594,516.8125 Q263.4531,516.1875 264.6875,516.1875 Q265.4219,516.1875 266.0625,516.3594 Q266.7188,516.5156 267.2656,516.875 Z " fill="#000000"/><text fill="#000000" font-family="sans-serif" font-size="14" lengthAdjust="spacing" textLength="110" x="278.5" y="525.8535">UnregisteredUser</text><line style="stroke:#181818;stroke-width:0.5;" x1="250.5" x2="390.5" y1="537" y2="537"/><line style="stroke:#181818;stroke-width:0.5;" x1="250.5" x2="390.5" y1="545" y2="545"/></g><!--class Property--><g id="elem_Property"><rect codeLine="30" fill="#F1F1F1" height="251.3281" id="Property" rx="2.5" ry="2.5" style="stroke:#181818;stroke-width:0.5;" width="149" x="246" y="178"/><ellipse cx="289.35" cy="194" fill="#ADD1B2" rx="11" ry="11" style="stroke:#181818;stroke-width:1.0;"/><path d="M292.1156,189.875 Q292.2719,189.6563 292.4594,189.5469 Q292.6469,189.4375 292.8656,189.4375 Q293.2406,189.4375 293.475,189.7031 Q293.7094,189.9531 293.7094,190.5625 L293.7094,192.0156 Q293.7094,192.625 293.475,192.8906 Q293.2406,193.1563 292.8656,193.1563 Q292.5219,193.1563 292.3188,192.9531 Q292.1156,192.7656 292.0063,192.25 Q291.9594,191.8906 291.7719,191.7031 Q291.4438,191.3281 290.8344,191.1094 Q290.225,190.8906 289.6,190.8906 Q288.8344,190.8906 288.1938,191.2188 Q287.5688,191.5469 287.0688,192.2969 Q286.5844,193.0469 286.5844,194.0781 L286.5844,195.1719 Q286.5844,196.4063 287.475,197.2344 Q288.3656,198.0469 289.9594,198.0469 Q290.8969,198.0469 291.5531,197.7969 Q291.9438,197.6406 292.3656,197.2031 Q292.6313,196.9375 292.7719,196.8594 Q292.9281,196.7813 293.1313,196.7813 Q293.4594,196.7813 293.7094,197.0469 Q293.975,197.2969 293.975,197.6406 Q293.975,197.9844 293.6313,198.3906 Q293.1313,198.9688 292.3344,199.2969 Q291.2563,199.75 289.9594,199.75 Q288.4438,199.75 287.2406,199.125 Q286.2563,198.625 285.5688,197.5625 Q284.8813,196.4844 284.8813,195.2031 L284.8813,194.0469 Q284.8813,192.7188 285.4906,191.5781 Q286.1156,190.4219 287.2094,189.8125 Q288.3031,189.1875 289.5375,189.1875 Q290.2719,189.1875 290.9125,189.3594 Q291.5688,189.5156 292.1156,189.875 Z " fill="#000000"/><text fill="#000000" font-family="sans-serif" font-size="14" lengthAdjust="spacing" textLength="54" x="309.65" y="198.8535">Property</text><line style="stroke:#181818;stroke-width:0.5;" x1="247" x2="394" y1="210" y2="210"/><text fill="#000000" font-family="sans-serif" font-size="14" lengthAdjust="spacing" textLength="59" x="252" y="226.6738">+address</text><text fill="#000000" font-family="sans-serif" font-size="14" lengthAdjust="spacing" textLength="51" x="252" y="242.3145">+photos</text><text fill="#000000" font-family="sans-serif" font-size="14" lengthAdjust="spacing" textLength="37" x="252" y="257.9551">+area</text><text fill="#000000" font-family="sans-serif" font-size="14" lengthAdjust="spacing" textLength="137" x="252" y="273.5957">+distanceFromCenter</text><text fill="#000000" font-family="sans-serif" font-size="14" lengthAdjust="spacing" textLength="39" x="252" y="289.2363">+price</text><text fill="#000000" font-family="sans-serif" font-size="14" lengthAdjust="spacing" textLength="47" x="252" y="304.877">+parish</text><text fill="#000000" font-family="sans-serif" font-size="14" lengthAdjust="spacing" textLength="29" x="252" y="320.5176">+city</text><text fill="#000000" font-family="sans-serif" font-size="14" lengthAdjust="spacing" textLength="39" x="252" y="336.1582">+state</text><text fill="#000000" font-family="sans-serif" font-size="14" lengthAdjust="spacing" textLength="35" x="252" y="351.7988">+type</text><text fill="#000000" font-family="sans-serif" font-size="14" lengthAdjust="spacing" textLength="46" x="252" y="367.4395">+owner</text><text fill="#000000" font-family="sans-serif" font-size="14" lengthAdjust="spacing" textLength="44" x="252" y="383.0801">+agent</text><text fill="#000000" font-family="sans-serif" font-size="14" lengthAdjust="spacing" textLength="92" x="252" y="398.7207">+visitRequests</text><text fill="#000000" font-family="sans-serif" font-size="14" lengthAdjust="spacing" textLength="81" x="252" y="414.3613">+commission</text><line style="stroke:#181818;stroke-width:0.5;" x1="247" x2="394" y1="421.3281" y2="421.3281"/></g><!--link Repositories to Repositories--><g id="link_Repositories_Repositories"><path codeLine="46" d="M741.78,39.3 C761.98,40.9 776.5,45.97 776.5,54.5 C776.5,62.3 764.37,67.2 746.86,69.21 " fill="none" id="Repositories-to-Repositories" style="stroke:#181818;stroke-width:1.0;"/><polygon fill="#181818" points="741.78,69.7,751.1166,72.835,746.7578,69.2293,750.3635,64.8705,741.78,69.7" style="stroke:#181818;stroke-width:1.0;"/><text fill="#000000" font-family="sans-serif" font-size="13" lengthAdjust="spacing" textLength="49" x="782.5" y="59.2686">instance</text></g><!--link DisplayPropertiesUI to DisplayPropertiesController--><g id="link_DisplayPropertiesUI_DisplayPropertiesController"><path codeLine="48" d="M162.05,54.5 C162.78,54.5 163.17,54.5 163.17,54.5 C163.17,54.5 176.43,54.5 192.06,54.5 " fill="none" id="DisplayPropertiesUI-to-DisplayPropertiesController" style="stroke:#181818;stroke-width:1.0;stroke-dasharray:7.0,7.0;"/><polygon fill="#181818" points="197.44,54.5,188.44,50.5,192.44,54.5,188.44,58.5,197.44,54.5" style="stroke:#181818;stroke-width:1.0;"/></g><!--link DisplayPropertiesController to Repositories--><g id="link_DisplayPropertiesController_Repositories"><path codeLine="50" d="M443.91,54.5 C476.29,54.5 510.84,54.5 541.99,54.5 " fill="none" id="DisplayPropertiesController-to-Repositories" style="stroke:#181818;stroke-width:1.0;stroke-dasharray:7.0,7.0;"/><polygon fill="#181818" points="547.36,54.5,538.36,50.5,542.36,54.5,538.36,58.5,547.36,54.5" style="stroke:#181818;stroke-width:1.0;"/><text fill="#000000" font-family="sans-serif" font-size="13" lengthAdjust="spacing" textLength="67" x="462" y="48.2686">repositories</text></g><!--link Repositories to PropertiesRepository--><g id="link_Repositories_PropertiesRepository"><path codeLine="52" d="M644.5,102.25 C644.5,149.83 644.5,222.58 644.5,266.05 " fill="none" id="Repositories-to-PropertiesRepository" style="stroke:#181818;stroke-width:1.0;"/><polygon fill="#181818" points="644.5,271.2,648.5,262.2,644.5,266.2,640.5,262.2,644.5,271.2" style="stroke:#181818;stroke-width:1.0;"/><text fill="#000000" font-family="sans-serif" font-size="13" lengthAdjust="spacing" textLength="7" x="636.7781" y="260.954">1</text></g><!--link DisplayPropertiesController to Property--><g id="link_DisplayPropertiesController_Property"><path codeLine="54" d="M320.5,94.09 C320.5,115.62 320.5,143.81 320.5,172.47 " fill="none" id="DisplayPropertiesController-to-Property" style="stroke:#181818;stroke-width:1.0;stroke-dasharray:7.0,7.0;"/><polygon fill="#181818" points="320.5,177.82,324.5,168.82,320.5,172.82,316.5,168.82,320.5,177.82" style="stroke:#181818;stroke-width:1.0;"/><text fill="#000000" font-family="sans-serif" font-size="13" lengthAdjust="spacing" textLength="121" x="321.5" y="144.7686">PropertiesRepository</text></g><!--link Property to UnregisteredUser--><g id="link_Property_UnregisteredUser"><path codeLine="56" d="M320.5,429.32 C320.5,455.82 320.5,481.34 320.5,499.78 " fill="none" id="Property-to-UnregisteredUser" style="stroke:#181818;stroke-width:1.0;"/><polygon fill="#181818" points="320.5,504.79,324.5,495.79,320.5,499.79,316.5,495.79,320.5,504.79" style="stroke:#181818;stroke-width:1.0;"/><text fill="#000000" font-family="sans-serif" font-size="13" lengthAdjust="spacing" textLength="44" x="321.5" y="471.7686">seenBy</text></g><!--SRC=[XLB1Jkj03BplLrXS2a8WkFQ017rwKcy8r0zODYQnsAo3xO82uj_Pa3GD422dIMRicTXUw0EbnekleUR4eHAk4KoswFPCuyE3B_7MseWW6CodCau5Mlc2docLSE-ZJfb82Qrj41gERVVY5ZCaYx6RL8NeLI_DXEwsXkl0wPPU4CwSMqIyDp06eR8oAAYBGvoS-wY1VwHDzEsrS8DYXBfPm-lRZ-oAamd7Y0Al3l9pl1BqXhy83uzwOOcsfs-mOILZQJCzserVisBeVpBzDZPQ9yqp3NXu14kOLVnbDSVlBFVSNhz9WYMfeM2nqUxtlxRQbH_xeX3K8KfJiV60VHvLZmhgy__FrxF2bBiEQg600_H2MlKuaBKzocKs2Bf3w14_frs3V7N9UlX4-Qzky76BQaE0m7LDgjtwS_fFqpwv-3pz9T0mO-VcRkJquhVZcAcPNCxfDo-Phl1Bi9piuFnWTc5_s6IVSJVB7ngCWixdsvANe8ZfgdNl]--></g></svg>