<?xml version="1.0" encoding="us-ascii" standalone="no"?><svg xmlns="http://www.w3.org/2000/svg" xmlns:xlink="http://www.w3.org/1999/xlink" contentStyleType="text/css" height="607px" preserveAspectRatio="none" style="width:488px;height:607px;background:#FFFFFF;" version="1.1" viewBox="0 0 488 607" width="488px" zoomAndPan="magnify"><defs/><g><text fill="#000000" font-family="sans-serif" font-size="14" font-weight="bold" lengthAdjust="spacing" textLength="228" x="131.75" y="30.1074">System Sequence Diagram (SSD)</text><rect fill="#FFFFFF" height="381.7832" style="stroke:#181818;stroke-width:1.0;" width="10" x="84.5" y="133.2422"/><rect fill="#FFFFFF" height="31.291" style="stroke:#181818;stroke-width:1.0;" width="10" x="435.5" y="156.5332"/><rect fill="#FFFFFF" height="57.582" style="stroke:#181818;stroke-width:1.0;" width="10" x="435.5" y="219.1152"/><rect fill="#FFFFFF" height="38.291" style="stroke:#181818;stroke-width:1.0;" width="10" x="435.5" y="307.9883"/><rect fill="#FFFFFF" height="31.291" style="stroke:#181818;stroke-width:1.0;" width="10" x="435.5" y="412.1523"/><rect fill="none" height="81.873" style="stroke:#000000;stroke-width:1.5;" width="472.5" x="10" y="234.1152"/><line style="stroke:#181818;stroke-width:0.5;stroke-dasharray:5.0,5.0;" x1="89" x2="89" y1="123.2422" y2="524.0254"/><line style="stroke:#181818;stroke-width:0.5;stroke-dasharray:5.0,5.0;" x1="440.5" x2="440.5" y1="123.2422" y2="524.0254"/><text fill="#000000" font-family="sans-serif" font-size="14" lengthAdjust="spacing" textLength="133" x="20" y="119.7285">System Administrator</text><ellipse cx="89.5" cy="53.1211" fill="#E3E3E3" rx="8" ry="8" style="stroke:#181818;stroke-width:0.5;"/><path d="M89.5,61.1211 L89.5,88.1211 M76.5,69.1211 L102.5,69.1211 M89.5,88.1211 L76.5,103.1211 M89.5,88.1211 L102.5,103.1211 " fill="none" style="stroke:#181818;stroke-width:0.5;"/><text fill="#000000" font-family="sans-serif" font-size="14" lengthAdjust="spacing" textLength="133" x="20" y="538.1328">System Administrator</text><ellipse cx="89.5" cy="550.1465" fill="#E3E3E3" rx="8" ry="8" style="stroke:#181818;stroke-width:0.5;"/><path d="M89.5,558.1465 L89.5,585.1465 M76.5,566.1465 L102.5,566.1465 M89.5,585.1465 L76.5,600.1465 M89.5,585.1465 L102.5,600.1465 " fill="none" style="stroke:#181818;stroke-width:0.5;"/><rect fill="#E3E3E3" height="32.6211" rx="2.5" ry="2.5" style="stroke:#181818;stroke-width:0.5;" width="64" x="408.5" y="89.6211"/><text fill="#000000" font-family="sans-serif" font-size="14" lengthAdjust="spacing" textLength="50" x="415.5" y="111.7285">:System</text><rect fill="#E3E3E3" height="32.6211" rx="2.5" ry="2.5" style="stroke:#181818;stroke-width:0.5;" width="64" x="408.5" y="523.0254"/><text fill="#000000" font-family="sans-serif" font-size="14" lengthAdjust="spacing" textLength="50" x="415.5" y="545.1328">:System</text><rect fill="#FFFFFF" height="381.7832" style="stroke:#181818;stroke-width:1.0;" width="10" x="84.5" y="133.2422"/><rect fill="#FFFFFF" height="31.291" style="stroke:#181818;stroke-width:1.0;" width="10" x="435.5" y="156.5332"/><rect fill="#FFFFFF" height="57.582" style="stroke:#181818;stroke-width:1.0;" width="10" x="435.5" y="219.1152"/><rect fill="#FFFFFF" height="38.291" style="stroke:#181818;stroke-width:1.0;" width="10" x="435.5" y="307.9883"/><rect fill="#FFFFFF" height="31.291" style="stroke:#181818;stroke-width:1.0;" width="10" x="435.5" y="412.1523"/><polygon fill="#181818" points="423.5,152.5332,433.5,156.5332,423.5,160.5332,427.5,156.5332" style="stroke:#181818;stroke-width:1.0;"/><line style="stroke:#181818;stroke-width:1.0;" x1="94.5" x2="429.5" y1="156.5332" y2="156.5332"/><text fill="#000000" font-family="sans-serif" font-size="13" font-weight="bold" lengthAdjust="spacing" textLength="7" x="101.5" y="151.2705">1</text><text fill="#000000" font-family="sans-serif" font-size="13" lengthAdjust="spacing" textLength="188" x="112.5" y="151.2705">asks to register a new employee</text><polygon fill="#181818" points="105.5,183.8242,95.5,187.8242,105.5,191.8242,101.5,187.8242" style="stroke:#181818;stroke-width:1.0;"/><line style="stroke:#181818;stroke-width:1.0;stroke-dasharray:2.0,2.0;" x1="99.5" x2="439.5" y1="187.8242" y2="187.8242"/><text fill="#000000" font-family="sans-serif" font-size="13" font-weight="bold" lengthAdjust="spacing" textLength="7" x="111.5" y="182.5615">2</text><text fill="#000000" font-family="sans-serif" font-size="13" lengthAdjust="spacing" textLength="225" x="122.5" y="182.5615">shows agencies list and asks to select</text><polygon fill="#181818" points="423.5,215.1152,433.5,219.1152,423.5,223.1152,427.5,219.1152" style="stroke:#181818;stroke-width:1.0;"/><line style="stroke:#181818;stroke-width:1.0;" x1="94.5" x2="429.5" y1="219.1152" y2="219.1152"/><text fill="#000000" font-family="sans-serif" font-size="13" font-weight="bold" lengthAdjust="spacing" textLength="7" x="101.5" y="213.8525">3</text><text fill="#000000" font-family="sans-serif" font-size="13" lengthAdjust="spacing" textLength="106" x="112.5" y="213.8525">selects an agency</text><path d="M10,234.1152 L83,234.1152 L83,243.4063 L73,253.4063 L10,253.4063 L10,234.1152 " fill="#EEEEEE" style="stroke:#000000;stroke-width:1.5;"/><rect fill="none" height="81.873" style="stroke:#000000;stroke-width:1.5;" width="472.5" x="10" y="234.1152"/><text fill="#000000" font-family="sans-serif" font-size="13" font-weight="bold" lengthAdjust="spacing" textLength="28" x="25" y="249.1436">loop</text><text fill="#000000" font-family="sans-serif" font-size="11" font-weight="bold" lengthAdjust="spacing" textLength="210" x="98" y="247.9854">[till System Administrator is satisfied]</text><polygon fill="#181818" points="105.5,272.6973,95.5,276.6973,105.5,280.6973,101.5,276.6973" style="stroke:#181818;stroke-width:1.0;"/><line style="stroke:#181818;stroke-width:1.0;stroke-dasharray:2.0,2.0;" x1="99.5" x2="439.5" y1="276.6973" y2="276.6973"/><text fill="#000000" font-family="sans-serif" font-size="13" font-weight="bold" lengthAdjust="spacing" textLength="7" x="111.5" y="271.4346">4</text><text fill="#000000" font-family="sans-serif" font-size="13" lengthAdjust="spacing" textLength="201" x="122.5" y="271.4346">shows roles list and asks to select</text><polygon fill="#181818" points="423.5,303.9883,433.5,307.9883,423.5,311.9883,427.5,307.9883" style="stroke:#181818;stroke-width:1.0;"/><line style="stroke:#181818;stroke-width:1.0;" x1="94.5" x2="429.5" y1="307.9883" y2="307.9883"/><text fill="#000000" font-family="sans-serif" font-size="13" font-weight="bold" lengthAdjust="spacing" textLength="7" x="101.5" y="302.7256">5</text><text fill="#000000" font-family="sans-serif" font-size="13" lengthAdjust="spacing" textLength="71" x="112.5" y="302.7256">select a role</text><polygon fill="#181818" points="105.5,342.2793,95.5,346.2793,105.5,350.2793,101.5,346.2793" style="stroke:#181818;stroke-width:1.0;"/><line style="stroke:#181818;stroke-width:1.0;stroke-dasharray:2.0,2.0;" x1="99.5" x2="439.5" y1="346.2793" y2="346.2793"/><text fill="#000000" font-family="sans-serif" font-size="13" font-weight="bold" lengthAdjust="spacing" textLength="7" x="111.5" y="341.0166">6</text><text fill="#000000" font-family="sans-serif" font-size="13" lengthAdjust="spacing" textLength="79" x="122.5" y="341.0166">requests data</text><polygon fill="#181818" points="423.5,408.1523,433.5,412.1523,423.5,416.1523,427.5,412.1523" style="stroke:#181818;stroke-width:1.0;"/><line style="stroke:#181818;stroke-width:1.0;" x1="94.5" x2="429.5" y1="412.1523" y2="412.1523"/><text fill="#000000" font-family="sans-serif" font-size="13" font-weight="bold" lengthAdjust="spacing" textLength="7" x="101.5" y="389.5986">7</text><text fill="#000000" font-family="sans-serif" font-size="13" lengthAdjust="spacing" textLength="297" x="112.5" y="372.3076">types requested data (name, citizen's card number,</text><text fill="#000000" font-family="sans-serif" font-size="13" lengthAdjust="spacing" textLength="212" x="112.5" y="389.5986">tax number, address, email address,</text><text fill="#000000" font-family="sans-serif" font-size="13" lengthAdjust="spacing" textLength="154" x="116.5" y="406.8896">contact telephone number)</text><polygon fill="#181818" points="105.5,439.4434,95.5,443.4434,105.5,447.4434,101.5,443.4434" style="stroke:#181818;stroke-width:1.0;"/><line style="stroke:#181818;stroke-width:1.0;stroke-dasharray:2.0,2.0;" x1="99.5" x2="439.5" y1="443.4434" y2="443.4434"/><text fill="#000000" font-family="sans-serif" font-size="13" font-weight="bold" lengthAdjust="spacing" textLength="7" x="111.5" y="438.1807">8</text><text fill="#000000" font-family="sans-serif" font-size="13" lengthAdjust="spacing" textLength="306" x="122.5" y="438.1807">shows the selected agency, role(s) and inserted data</text><polygon fill="#181818" points="428.5,470.7344,438.5,474.7344,428.5,478.7344,432.5,474.7344" style="stroke:#181818;stroke-width:1.0;"/><line style="stroke:#181818;stroke-width:1.0;" x1="94.5" x2="434.5" y1="474.7344" y2="474.7344"/><text fill="#000000" font-family="sans-serif" font-size="13" font-weight="bold" lengthAdjust="spacing" textLength="7" x="101.5" y="469.4717">9</text><text fill="#000000" font-family="sans-serif" font-size="13" lengthAdjust="spacing" textLength="75" x="112.5" y="469.4717">submits data</text><polygon fill="#181818" points="105.5,502.0254,95.5,506.0254,105.5,510.0254,101.5,506.0254" style="stroke:#181818;stroke-width:1.0;"/><line style="stroke:#181818;stroke-width:1.0;stroke-dasharray:2.0,2.0;" x1="99.5" x2="439.5" y1="506.0254" y2="506.0254"/><text fill="#000000" font-family="sans-serif" font-size="13" font-weight="bold" lengthAdjust="spacing" textLength="14" x="111.5" y="500.7627">10</text><text fill="#000000" font-family="sans-serif" font-size="13" lengthAdjust="spacing" textLength="152" x="129.5" y="500.7627">informs operation success</text><!--SRC=[hLBBZjim3BpxAuXScW3P7zX3WG3x1xxkXIin3X69SaLwK_VhIp-IBO9qYnRLIR9cHZDZwfcbnuePSf4IJhLa0gi3DNgxwJ6SiQFMnaHGAHXAbtu5w0bZkR1qSCIar3J6vj1sLACCBNqRI0B12sCtmRTj-x9h6Xoio93VgFe-MAcmMHc7c5bOhQ9_tG0gj8V6dp8EtACOR9uNv78tRsSDVaUZ2To0h_O0Jr-lBfuTUbQmuWawrwOA248NeDodCXBDb0-DLHJMjQeyJO875zDJkIXuAnAO598h0agyFQAKlAYP7kcXwfsxXU2IigYE3_rSxQHIUZ1E2HvL1goWQAn7flY72BMa_-ZVEvq4F_LESlDqRwbEewBUGaJ3ltZSnjv3h6oACnssWfds4DZu1yaNXO0rmZ9nUtWLm- -t4yPOINNlqu2SFewl0g4uqfEP1-nFHMWbxVvbOEn4QrFkSldF-xcnhUxc_bcKwZN29mtSjp-yPRxsrlokNfPZgLcXzEHpmaMS5u87RPgV]--></g></svg>