<?xml version="1.0" encoding="us-ascii" standalone="no"?><svg xmlns="http://www.w3.org/2000/svg" xmlns:xlink="http://www.w3.org/1999/xlink" contentStyleType="text/css" height="1040px" preserveAspectRatio="none" style="width:1100px;height:1040px;background:#FFFFFF;" version="1.1" viewBox="0 0 1100 1040" width="1100px" zoomAndPan="magnify"><defs/><g><rect fill="#FFFFFF" height="858.8516" style="stroke:#181818;stroke-width:1.0;" width="10" x="48.5" y="91.2969"/><rect fill="#FFFFFF" height="186.7969" style="stroke:#181818;stroke-width:1.0;" width="10" x="1033.5" y="112.4297"/><rect fill="#FFFFFF" height="29.1328" style="stroke:#181818;stroke-width:1.0;" width="10" x="1033.5" y="320.3594"/><rect fill="#FFFFFF" height="29.1328" style="stroke:#181818;stroke-width:1.0;" width="10" x="1033.5" y="378.625"/><rect fill="#FFFFFF" height="142.6641" style="stroke:#181818;stroke-width:1.0;" width="10" x="1033.5" y="436.8906"/><rect fill="#FFFFFF" height="29.1328" style="stroke:#181818;stroke-width:1.0;" width="10" x="1033.5" y="608.6875"/><rect fill="#FFFFFF" height="29.1328" style="stroke:#181818;stroke-width:1.0;" width="10" x="1033.5" y="666.9531"/><rect fill="#FFFFFF" height="217.9297" style="stroke:#181818;stroke-width:1.0;" width="10" x="1033.5" y="725.2188"/><rect fill="none" height="135.6641" style="stroke:#000000;stroke-width:1.5;" width="1084" x="10" y="156.5625"/><rect fill="none" height="46.2656" style="stroke:#000000;stroke-width:1.5;" width="1064" x="20" y="209.8281"/><rect fill="none" height="75.3984" style="stroke:#000000;stroke-width:1.5;" width="1064" x="20" y="451.8906"/><rect fill="none" height="401.8594" style="stroke:#000000;stroke-width:1.5;" width="1084" x="10" y="541.2891"/><rect fill="none" height="46.2656" style="stroke:#000000;stroke-width:1.5;" width="1064" x="20" y="769.3516"/><rect fill="none" height="46.2656" style="stroke:#000000;stroke-width:1.5;" width="1064" x="20" y="829.6172"/><rect fill="none" height="46.2656" style="stroke:#000000;stroke-width:1.5;" width="1064" x="20" y="889.8828"/><line style="stroke:#181818;stroke-width:0.5;stroke-dasharray:5.0,5.0;" x1="53" x2="53" y1="81.2969" y2="960.1484"/><line style="stroke:#181818;stroke-width:0.5;stroke-dasharray:5.0,5.0;" x1="1038" x2="1038" y1="81.2969" y2="960.1484"/><text fill="#000000" font-family="sans-serif" font-size="14" lengthAdjust="spacing" textLength="41" x="30" y="77.9951">Client</text><ellipse cx="53.5" cy="13.5" fill="#E3E3E3" rx="8" ry="8" style="stroke:#181818;stroke-width:0.5;"/><path d="M53.5,21.5 L53.5,48.5 M40.5,29.5 L66.5,29.5 M53.5,48.5 L40.5,63.5 M53.5,48.5 L66.5,63.5 " fill="none" style="stroke:#181818;stroke-width:0.5;"/><text fill="#000000" font-family="sans-serif" font-size="14" lengthAdjust="spacing" textLength="41" x="30" y="972.1436">Client</text><ellipse cx="53.5" cy="983.9453" fill="#E3E3E3" rx="8" ry="8" style="stroke:#181818;stroke-width:0.5;"/><path d="M53.5,991.9453 L53.5,1018.9453 M40.5,999.9453 L66.5,999.9453 M53.5,1018.9453 L40.5,1033.9453 M53.5,1018.9453 L66.5,1033.9453 " fill="none" style="stroke:#181818;stroke-width:0.5;"/><rect fill="#E3E3E3" height="30.2969" rx="2.5" ry="2.5" style="stroke:#181818;stroke-width:0.5;" width="71" x="1003" y="50"/><text fill="#000000" font-family="sans-serif" font-size="14" lengthAdjust="spacing" textLength="57" x="1010" y="69.9951">:System</text><rect fill="#E3E3E3" height="30.2969" rx="2.5" ry="2.5" style="stroke:#181818;stroke-width:0.5;" width="71" x="1003" y="959.1484"/><text fill="#000000" font-family="sans-serif" font-size="14" lengthAdjust="spacing" textLength="57" x="1010" y="979.1436">:System</text><rect fill="#FFFFFF" height="858.8516" style="stroke:#181818;stroke-width:1.0;" width="10" x="48.5" y="91.2969"/><rect fill="#FFFFFF" height="186.7969" style="stroke:#181818;stroke-width:1.0;" width="10" x="1033.5" y="112.4297"/><rect fill="#FFFFFF" height="29.1328" style="stroke:#181818;stroke-width:1.0;" width="10" x="1033.5" y="320.3594"/><rect fill="#FFFFFF" height="29.1328" style="stroke:#181818;stroke-width:1.0;" width="10" x="1033.5" y="378.625"/><rect fill="#FFFFFF" height="142.6641" style="stroke:#181818;stroke-width:1.0;" width="10" x="1033.5" y="436.8906"/><rect fill="#FFFFFF" height="29.1328" style="stroke:#181818;stroke-width:1.0;" width="10" x="1033.5" y="608.6875"/><rect fill="#FFFFFF" height="29.1328" style="stroke:#181818;stroke-width:1.0;" width="10" x="1033.5" y="666.9531"/><rect fill="#FFFFFF" height="217.9297" style="stroke:#181818;stroke-width:1.0;" width="10" x="1033.5" y="725.2188"/><polygon fill="#181818" points="1021.5,108.4297,1031.5,112.4297,1021.5,116.4297,1025.5,112.4297" style="stroke:#181818;stroke-width:1.0;"/><line style="stroke:#181818;stroke-width:1.0;" x1="58.5" x2="1027.5" y1="112.4297" y2="112.4297"/><text fill="#000000" font-family="sans-serif" font-size="13" font-weight="bold" lengthAdjust="spacing" textLength="9" x="65.5" y="107.3638">1</text><text fill="#000000" font-family="sans-serif" font-size="13" lengthAdjust="spacing" textLength="142" x="78.5" y="107.3638">Enters the application</text><polygon fill="#181818" points="69.5,137.5625,59.5,141.5625,69.5,145.5625,65.5,141.5625" style="stroke:#181818;stroke-width:1.0;"/><line style="stroke:#181818;stroke-width:1.0;stroke-dasharray:2.0,2.0;" x1="63.5" x2="1032.5" y1="141.5625" y2="141.5625"/><text fill="#000000" font-family="sans-serif" font-size="13" font-weight="bold" lengthAdjust="spacing" textLength="9" x="75.5" y="136.4966">2</text><text fill="#000000" font-family="sans-serif" font-size="13" lengthAdjust="spacing" textLength="596" x="88.5" y="136.4966">Shows a complete list of the available properties, sorted from the most recent to the oldest</text><path d="M10,156.5625 L79,156.5625 L79,163.6953 L69,173.6953 L10,173.6953 L10,156.5625 " fill="#EEEEEE" style="stroke:#000000;stroke-width:1.5;"/><rect fill="none" height="135.6641" style="stroke:#000000;stroke-width:1.5;" width="1084" x="10" y="156.5625"/><text fill="#000000" font-family="sans-serif" font-size="13" font-weight="bold" lengthAdjust="spacing" textLength="24" x="25" y="169.6294">opt</text><text fill="#000000" font-family="sans-serif" font-size="11" font-weight="bold" lengthAdjust="spacing" textLength="512" x="94" y="168.7729">[Selects the type of business, property, number of rooms, price, city and/or state]</text><polygon fill="#181818" points="1021.5,190.8281,1031.5,194.8281,1021.5,198.8281,1025.5,194.8281" style="stroke:#181818;stroke-width:1.0;"/><line style="stroke:#181818;stroke-width:1.0;" x1="58.5" x2="1027.5" y1="194.8281" y2="194.8281"/><text fill="#000000" font-family="sans-serif" font-size="13" font-weight="bold" lengthAdjust="spacing" textLength="9" x="65.5" y="189.7622">3</text><text fill="#000000" font-family="sans-serif" font-size="13" lengthAdjust="spacing" textLength="124" x="78.5" y="189.7622">Selects the filter(s)</text><path d="M20,209.8281 L89,209.8281 L89,216.9609 L79,226.9609 L20,226.9609 L20,209.8281 " fill="#EEEEEE" style="stroke:#000000;stroke-width:1.5;"/><rect fill="none" height="46.2656" style="stroke:#000000;stroke-width:1.5;" width="1064" x="20" y="209.8281"/><text fill="#000000" font-family="sans-serif" font-size="13" font-weight="bold" lengthAdjust="spacing" textLength="24" x="35" y="222.895">opt</text><text fill="#000000" font-family="sans-serif" font-size="11" font-weight="bold" lengthAdjust="spacing" textLength="409" x="104" y="222.0386">[Filters by price (or more) and sorts by ascending or descending]</text><polygon fill="#181818" points="1021.5,244.0938,1031.5,248.0938,1021.5,252.0938,1025.5,248.0938" style="stroke:#181818;stroke-width:1.0;"/><line style="stroke:#181818;stroke-width:1.0;" x1="58.5" x2="1027.5" y1="248.0938" y2="248.0938"/><text fill="#000000" font-family="sans-serif" font-size="13" font-weight="bold" lengthAdjust="spacing" textLength="9" x="65.5" y="243.0278">4</text><text fill="#000000" font-family="sans-serif" font-size="13" lengthAdjust="spacing" textLength="124" x="78.5" y="243.0278">Selects the filter(s)</text><polygon fill="#181818" points="69.5,280.2266,59.5,284.2266,69.5,288.2266,65.5,284.2266" style="stroke:#181818;stroke-width:1.0;"/><line style="stroke:#181818;stroke-width:1.0;stroke-dasharray:2.0,2.0;" x1="63.5" x2="1032.5" y1="284.2266" y2="284.2266"/><text fill="#000000" font-family="sans-serif" font-size="13" font-weight="bold" lengthAdjust="spacing" textLength="9" x="75.5" y="279.1606">5</text><text fill="#000000" font-family="sans-serif" font-size="13" lengthAdjust="spacing" textLength="596" x="88.5" y="279.1606">Shows a complete list of the available properties, sorted from the most recent to the oldest</text><polygon fill="#181818" points="1021.5,316.3594,1031.5,320.3594,1021.5,324.3594,1025.5,320.3594" style="stroke:#181818;stroke-width:1.0;"/><line style="stroke:#181818;stroke-width:1.0;" x1="58.5" x2="1027.5" y1="320.3594" y2="320.3594"/><text fill="#000000" font-family="sans-serif" font-size="13" font-weight="bold" lengthAdjust="spacing" textLength="9" x="65.5" y="315.2935">6</text><text fill="#000000" font-family="sans-serif" font-size="13" lengthAdjust="spacing" textLength="237" x="78.5" y="315.2935">Clicks on the property of his interest</text><polygon fill="#181818" points="69.5,345.4922,59.5,349.4922,69.5,353.4922,65.5,349.4922" style="stroke:#181818;stroke-width:1.0;"/><line style="stroke:#181818;stroke-width:1.0;stroke-dasharray:2.0,2.0;" x1="63.5" x2="1037.5" y1="349.4922" y2="349.4922"/><text fill="#000000" font-family="sans-serif" font-size="13" font-weight="bold" lengthAdjust="spacing" textLength="9" x="75.5" y="344.4263">7</text><text fill="#000000" font-family="sans-serif" font-size="13" lengthAdjust="spacing" textLength="265" x="88.5" y="344.4263">Renders the page of the chosen property</text><polygon fill="#181818" points="1021.5,374.625,1031.5,378.625,1021.5,382.625,1025.5,378.625" style="stroke:#181818;stroke-width:1.0;"/><line style="stroke:#181818;stroke-width:1.0;" x1="58.5" x2="1027.5" y1="378.625" y2="378.625"/><text fill="#000000" font-family="sans-serif" font-size="13" font-weight="bold" lengthAdjust="spacing" textLength="9" x="65.5" y="373.5591">8</text><text fill="#000000" font-family="sans-serif" font-size="13" lengthAdjust="spacing" textLength="249" x="78.5" y="373.5591">Clicks on the "Schedule a visit" button</text><polygon fill="#181818" points="69.5,403.7578,59.5,407.7578,69.5,411.7578,65.5,407.7578" style="stroke:#181818;stroke-width:1.0;"/><line style="stroke:#181818;stroke-width:1.0;stroke-dasharray:2.0,2.0;" x1="63.5" x2="1037.5" y1="407.7578" y2="407.7578"/><text fill="#000000" font-family="sans-serif" font-size="13" font-weight="bold" lengthAdjust="spacing" textLength="9" x="75.5" y="402.6919">9</text><text fill="#000000" font-family="sans-serif" font-size="13" lengthAdjust="spacing" textLength="929" x="88.5" y="402.6919">Renders the chat with the respective agent, which has some required fields such as client's name, phone number, preferred date and time slot</text><polygon fill="#181818" points="1021.5,432.8906,1031.5,436.8906,1021.5,440.8906,1025.5,436.8906" style="stroke:#181818;stroke-width:1.0;"/><line style="stroke:#181818;stroke-width:1.0;" x1="58.5" x2="1027.5" y1="436.8906" y2="436.8906"/><text fill="#000000" font-family="sans-serif" font-size="13" font-weight="bold" lengthAdjust="spacing" textLength="18" x="65.5" y="431.8247">10</text><text fill="#000000" font-family="sans-serif" font-size="13" lengthAdjust="spacing" textLength="287" x="87.5" y="431.8247">Fills in the fields and sends the visit request</text><path d="M20,451.8906 L84,451.8906 L84,459.0234 L74,469.0234 L20,469.0234 L20,451.8906 " fill="#EEEEEE" style="stroke:#000000;stroke-width:1.5;"/><rect fill="none" height="75.3984" style="stroke:#000000;stroke-width:1.5;" width="1064" x="20" y="451.8906"/><text fill="#000000" font-family="sans-serif" font-size="13" font-weight="bold" lengthAdjust="spacing" textLength="19" x="35" y="464.9575">alt</text><text fill="#000000" font-family="sans-serif" font-size="11" font-weight="bold" lengthAdjust="spacing" textLength="222" x="99" y="464.1011">[Checks if the visit request is valid]</text><polygon fill="#181818" points="69.5,486.1563,59.5,490.1563,69.5,494.1563,65.5,490.1563" style="stroke:#181818;stroke-width:1.0;"/><line style="stroke:#181818;stroke-width:1.0;stroke-dasharray:2.0,2.0;" x1="63.5" x2="1032.5" y1="490.1563" y2="490.1563"/><text fill="#000000" font-family="sans-serif" font-size="13" font-weight="bold" lengthAdjust="spacing" textLength="18" x="75.5" y="485.0903">11</text><text fill="#000000" font-family="sans-serif" font-size="13" lengthAdjust="spacing" textLength="500" x="97.5" y="485.0903">If the request is valid, registers it in the system and shows success message</text><polygon fill="#181818" points="69.5,515.2891,59.5,519.2891,69.5,523.2891,65.5,519.2891" style="stroke:#181818;stroke-width:1.0;"/><line style="stroke:#181818;stroke-width:1.0;stroke-dasharray:2.0,2.0;" x1="63.5" x2="1032.5" y1="519.2891" y2="519.2891"/><text fill="#000000" font-family="sans-serif" font-size="13" font-weight="bold" lengthAdjust="spacing" textLength="18" x="75.5" y="514.2231">12</text><text fill="#000000" font-family="sans-serif" font-size="13" lengthAdjust="spacing" textLength="310" x="97.5" y="514.2231">If the request is not valid, shows error message</text><path d="M10,541.2891 L79,541.2891 L79,548.4219 L69,558.4219 L10,558.4219 L10,541.2891 " fill="#EEEEEE" style="stroke:#000000;stroke-width:1.5;"/><rect fill="none" height="401.8594" style="stroke:#000000;stroke-width:1.5;" width="1084" x="10" y="541.2891"/><text fill="#000000" font-family="sans-serif" font-size="13" font-weight="bold" lengthAdjust="spacing" textLength="24" x="25" y="554.356">opt</text><text fill="#000000" font-family="sans-serif" font-size="11" font-weight="bold" lengthAdjust="spacing" textLength="327" x="94" y="553.4995">[Submits multiple visit requests to other properties]</text><polygon fill="#181818" points="69.5,575.5547,59.5,579.5547,69.5,583.5547,65.5,579.5547" style="stroke:#181818;stroke-width:1.0;"/><line style="stroke:#181818;stroke-width:1.0;stroke-dasharray:2.0,2.0;" x1="63.5" x2="1037.5" y1="579.5547" y2="579.5547"/><text fill="#000000" font-family="sans-serif" font-size="13" font-weight="bold" lengthAdjust="spacing" textLength="18" x="75.5" y="574.4888">13</text><text fill="#000000" font-family="sans-serif" font-size="13" lengthAdjust="spacing" textLength="596" x="97.5" y="574.4888">Shows a complete list of the available properties, sorted from the most recent to the oldest</text><polygon fill="#181818" points="1021.5,604.6875,1031.5,608.6875,1021.5,612.6875,1025.5,608.6875" style="stroke:#181818;stroke-width:1.0;"/><line style="stroke:#181818;stroke-width:1.0;" x1="58.5" x2="1027.5" y1="608.6875" y2="608.6875"/><text fill="#000000" font-family="sans-serif" font-size="13" font-weight="bold" lengthAdjust="spacing" textLength="18" x="65.5" y="603.6216">14</text><text fill="#000000" font-family="sans-serif" font-size="13" lengthAdjust="spacing" textLength="237" x="87.5" y="603.6216">Clicks on the property of his interest</text><polygon fill="#181818" points="69.5,633.8203,59.5,637.8203,69.5,641.8203,65.5,637.8203" style="stroke:#181818;stroke-width:1.0;"/><line style="stroke:#181818;stroke-width:1.0;stroke-dasharray:2.0,2.0;" x1="63.5" x2="1037.5" y1="637.8203" y2="637.8203"/><text fill="#000000" font-family="sans-serif" font-size="13" font-weight="bold" lengthAdjust="spacing" textLength="18" x="75.5" y="632.7544">15</text><text fill="#000000" font-family="sans-serif" font-size="13" lengthAdjust="spacing" textLength="265" x="97.5" y="632.7544">Renders the page of the chosen property</text><polygon fill="#181818" points="1021.5,662.9531,1031.5,666.9531,1021.5,670.9531,1025.5,666.9531" style="stroke:#181818;stroke-width:1.0;"/><line style="stroke:#181818;stroke-width:1.0;" x1="58.5" x2="1027.5" y1="666.9531" y2="666.9531"/><text fill="#000000" font-family="sans-serif" font-size="13" font-weight="bold" lengthAdjust="spacing" textLength="18" x="65.5" y="661.8872">16</text><text fill="#000000" font-family="sans-serif" font-size="13" lengthAdjust="spacing" textLength="249" x="87.5" y="661.8872">Clicks on the "Schedule a visit" button</text><polygon fill="#181818" points="69.5,692.0859,59.5,696.0859,69.5,700.0859,65.5,696.0859" style="stroke:#181818;stroke-width:1.0;"/><line style="stroke:#181818;stroke-width:1.0;stroke-dasharray:2.0,2.0;" x1="63.5" x2="1037.5" y1="696.0859" y2="696.0859"/><text fill="#000000" font-family="sans-serif" font-size="13" font-weight="bold" lengthAdjust="spacing" textLength="18" x="75.5" y="691.02">17</text><text fill="#000000" font-family="sans-serif" font-size="13" lengthAdjust="spacing" textLength="929" x="97.5" y="691.02">Renders the chat with the respective agent, which has some required fields such as client's name, phone number, preferred date and time slot</text><polygon fill="#181818" points="1021.5,721.2188,1031.5,725.2188,1021.5,729.2188,1025.5,725.2188" style="stroke:#181818;stroke-width:1.0;"/><line style="stroke:#181818;stroke-width:1.0;" x1="58.5" x2="1027.5" y1="725.2188" y2="725.2188"/><text fill="#000000" font-family="sans-serif" font-size="13" font-weight="bold" lengthAdjust="spacing" textLength="18" x="65.5" y="720.1528">18</text><text fill="#000000" font-family="sans-serif" font-size="13" lengthAdjust="spacing" textLength="287" x="87.5" y="720.1528">Fills in the fields and sends the visit request</text><polygon fill="#181818" points="69.5,750.3516,59.5,754.3516,69.5,758.3516,65.5,754.3516" style="stroke:#181818;stroke-width:1.0;"/><line style="stroke:#181818;stroke-width:1.0;" x1="63.5" x2="1032.5" y1="754.3516" y2="754.3516"/><text fill="#000000" font-family="sans-serif" font-size="13" font-weight="bold" lengthAdjust="spacing" textLength="18" x="75.5" y="749.2856">19</text><text fill="#000000" font-family="sans-serif" font-size="13" lengthAdjust="spacing" textLength="237" x="97.5" y="749.2856">Checks the visit request's validation</text><path d="M20,769.3516 L84,769.3516 L84,776.4844 L74,786.4844 L20,786.4844 L20,769.3516 " fill="#EEEEEE" style="stroke:#000000;stroke-width:1.5;"/><rect fill="none" height="46.2656" style="stroke:#000000;stroke-width:1.5;" width="1064" x="20" y="769.3516"/><text fill="#000000" font-family="sans-serif" font-size="13" font-weight="bold" lengthAdjust="spacing" textLength="19" x="35" y="782.4185">alt</text><text fill="#000000" font-family="sans-serif" font-size="11" font-weight="bold" lengthAdjust="spacing" textLength="143" x="99" y="781.562">[If the request is valid]</text><polygon fill="#181818" points="69.5,803.6172,59.5,807.6172,69.5,811.6172,65.5,807.6172" style="stroke:#181818;stroke-width:1.0;"/><line style="stroke:#181818;stroke-width:1.0;stroke-dasharray:2.0,2.0;" x1="63.5" x2="1032.5" y1="807.6172" y2="807.6172"/><text fill="#000000" font-family="sans-serif" font-size="13" font-weight="bold" lengthAdjust="spacing" textLength="18" x="75.5" y="802.5513">20</text><text fill="#000000" font-family="sans-serif" font-size="13" lengthAdjust="spacing" textLength="455" x="97.5" y="802.5513">Registers the visit request in the system and shows success message</text><path d="M20,829.6172 L84,829.6172 L84,836.75 L74,846.75 L20,846.75 L20,829.6172 " fill="#EEEEEE" style="stroke:#000000;stroke-width:1.5;"/><rect fill="none" height="46.2656" style="stroke:#000000;stroke-width:1.5;" width="1064" x="20" y="829.6172"/><text fill="#000000" font-family="sans-serif" font-size="13" font-weight="bold" lengthAdjust="spacing" textLength="19" x="35" y="842.6841">alt</text><text fill="#000000" font-family="sans-serif" font-size="11" font-weight="bold" lengthAdjust="spacing" textLength="262" x="99" y="841.8276">[If the request is not valid due to overlap]</text><polygon fill="#181818" points="69.5,863.8828,59.5,867.8828,69.5,871.8828,65.5,867.8828" style="stroke:#181818;stroke-width:1.0;"/><line style="stroke:#181818;stroke-width:1.0;stroke-dasharray:2.0,2.0;" x1="63.5" x2="1032.5" y1="867.8828" y2="867.8828"/><text fill="#000000" font-family="sans-serif" font-size="13" font-weight="bold" lengthAdjust="spacing" textLength="18" x="75.5" y="862.8169">21</text><text fill="#000000" font-family="sans-serif" font-size="13" lengthAdjust="spacing" textLength="363" x="97.5" y="862.8169">If the request is not valid, shows overlap error message</text><path d="M20,889.8828 L84,889.8828 L84,897.0156 L74,907.0156 L20,907.0156 L20,889.8828 " fill="#EEEEEE" style="stroke:#000000;stroke-width:1.5;"/><rect fill="none" height="46.2656" style="stroke:#000000;stroke-width:1.5;" width="1064" x="20" y="889.8828"/><text fill="#000000" font-family="sans-serif" font-size="13" font-weight="bold" lengthAdjust="spacing" textLength="19" x="35" y="902.9497">alt</text><text fill="#000000" font-family="sans-serif" font-size="11" font-weight="bold" lengthAdjust="spacing" textLength="298" x="99" y="902.0933">[If the request is not valid due to another error]</text><polygon fill="#181818" points="69.5,924.1484,59.5,928.1484,69.5,932.1484,65.5,928.1484" style="stroke:#181818;stroke-width:1.0;"/><line style="stroke:#181818;stroke-width:1.0;stroke-dasharray:2.0,2.0;" x1="63.5" x2="1032.5" y1="928.1484" y2="928.1484"/><text fill="#000000" font-family="sans-serif" font-size="13" font-weight="bold" lengthAdjust="spacing" textLength="18" x="75.5" y="923.0825">22</text><text fill="#000000" font-family="sans-serif" font-size="13" lengthAdjust="spacing" textLength="310" x="97.5" y="923.0825">If the request is not valid, shows error message</text><!--SRC=[nLR1Rjim33t7Nq7aqXP8iNiFknGRiDkmV84Yqv4GMT8aEa7-VfGi1pPY5sbQh3a4ZYG-FZxnCOu7RRq8eeNMMITLS2q2XGwhUDdnGXx47hTqDWW19GcxD-C3KOdQdRJTGoDCnAeI7JdRjJiC_2p91LY_6esMrY0Y_COGdQqubhJKNbY2zSls70dRlDy_vaXz58H3GBNg7-3vUpa3B_334Yy2AGJXlT5IaCvdBz43t6fLWfuvlY2zm5QvKmG1qhNU81ytEXAufaSy2ct4ZilsmNbalXWt45qWhA5XhVAfrd44wyBr0Rcyv4oDaL9EvmcsQ5YrdYITFIRuNHUrnSXm1VgyWLwoj1kSQ_EMbhW1gUaCmjRVMCX8N5DLmUWpeyeuOwCDI_GOdwPHa9Zzp7iHTkS-5pnoYjO5V4hvSgLvKqIkhautpFjSMlar1RoJ1qDDL_x_DKseh6gyxfsPshYZvI42hoQeuHOJ9wKZwDINVG_Ss8b_EFlGofxzDbGdbOjeBmdk9RZUIeLrno89EEgesOkxZkWzNXapb4eGd3If_8ihzPX067tF0c_WfBHKeDZECOsKW7yx7T9rQ3GrBtQyovioZuM725QqtEbUEOl51wdziS6Gekf4BdKaQGQBnj6y30jjo6rkqfMKFimCSdzpGNqvMP7CSk7E4h8m1AyAawYwkGu3llQZC3hrq9nylvgYrVJqXbVstCr9MGOhB6CFa5dctcV59CyBQFcBDRurXNKqfEbnMD3ayO9IJHoOHW9ikrshsRDjPqYpsQP5nkGTnqd2o6n5dZdDlcBgvhmBtV4H9-VuTrHviwC_HlWDPt-4yTSx_2rPFilfomgD_uf64fK1S0NrKEnStZy6X3Gp5en_dMPw5SDGc1aqDyw8QlO_TfxIPL10tM4s-H634VvjbZSCd88pDtZkfIPiFu4oPBd3pnk7gmkbfUPRV4yOBPMNrdy0]--></g></svg>