<?xml version="1.0" encoding="us-ascii" standalone="no"?><svg xmlns="http://www.w3.org/2000/svg" xmlns:xlink="http://www.w3.org/1999/xlink" contentStyleType="text/css" height="575px" preserveAspectRatio="none" style="width:873px;height:575px;background:#FFFFFF;" version="1.1" viewBox="0 0 873 575" width="873px" zoomAndPan="magnify"><defs/><g><!--class CreateAgencyUI--><g id="elem_CreateAgencyUI"><rect codeLine="8" fill="#F1F1F1" height="48" id="CreateAgencyUI" rx="2.5" ry="2.5" style="stroke:#181818;stroke-width:0.5;" width="134" x="7" y="46"/><ellipse cx="22" cy="62" fill="#ADD1B2" rx="11" ry="11" style="stroke:#181818;stroke-width:1.0;"/><path d="M24.7656,57.875 Q24.9219,57.6563 25.1094,57.5469 Q25.2969,57.4375 25.5156,57.4375 Q25.8906,57.4375 26.125,57.7031 Q26.3594,57.9531 26.3594,58.5625 L26.3594,60.0156 Q26.3594,60.625 26.125,60.8906 Q25.8906,61.1563 25.5156,61.1563 Q25.1719,61.1563 24.9688,60.9531 Q24.7656,60.7656 24.6563,60.25 Q24.6094,59.8906 24.4219,59.7031 Q24.0938,59.3281 23.4844,59.1094 Q22.875,58.8906 22.25,58.8906 Q21.4844,58.8906 20.8438,59.2188 Q20.2188,59.5469 19.7188,60.2969 Q19.2344,61.0469 19.2344,62.0781 L19.2344,63.1719 Q19.2344,64.4063 20.125,65.2344 Q21.0156,66.0469 22.6094,66.0469 Q23.5469,66.0469 24.2031,65.7969 Q24.5938,65.6406 25.0156,65.2031 Q25.2813,64.9375 25.4219,64.8594 Q25.5781,64.7813 25.7813,64.7813 Q26.1094,64.7813 26.3594,65.0469 Q26.625,65.2969 26.625,65.6406 Q26.625,65.9844 26.2813,66.3906 Q25.7813,66.9688 24.9844,67.2969 Q23.9063,67.75 22.6094,67.75 Q21.0938,67.75 19.8906,67.125 Q18.9063,66.625 18.2188,65.5625 Q17.5313,64.4844 17.5313,63.2031 L17.5313,62.0469 Q17.5313,60.7188 18.1406,59.5781 Q18.7656,58.4219 19.8594,57.8125 Q20.9531,57.1875 22.1875,57.1875 Q22.9219,57.1875 23.5625,57.3594 Q24.2188,57.5156 24.7656,57.875 Z " fill="#000000"/><text fill="#000000" font-family="sans-serif" font-size="14" lengthAdjust="spacing" textLength="102" x="36" y="66.8535">CreateAgencyUI</text><line style="stroke:#181818;stroke-width:0.5;" x1="8" x2="140" y1="78" y2="78"/><line style="stroke:#181818;stroke-width:0.5;" x1="8" x2="140" y1="86" y2="86"/></g><!--class CreateAgencyController--><g id="elem_CreateAgencyController"><rect codeLine="10" fill="#F1F1F1" height="126.2031" id="CreateAgencyController" rx="2.5" ry="2.5" style="stroke:#181818;stroke-width:0.5;" width="296" x="176" y="7"/><ellipse cx="243.75" cy="23" fill="#ADD1B2" rx="11" ry="11" style="stroke:#181818;stroke-width:1.0;"/><path d="M246.5156,18.875 Q246.6719,18.6563 246.8594,18.5469 Q247.0469,18.4375 247.2656,18.4375 Q247.6406,18.4375 247.875,18.7031 Q248.1094,18.9531 248.1094,19.5625 L248.1094,21.0156 Q248.1094,21.625 247.875,21.8906 Q247.6406,22.1563 247.2656,22.1563 Q246.9219,22.1563 246.7188,21.9531 Q246.5156,21.7656 246.4063,21.25 Q246.3594,20.8906 246.1719,20.7031 Q245.8438,20.3281 245.2344,20.1094 Q244.625,19.8906 244,19.8906 Q243.2344,19.8906 242.5938,20.2188 Q241.9688,20.5469 241.4688,21.2969 Q240.9844,22.0469 240.9844,23.0781 L240.9844,24.1719 Q240.9844,25.4063 241.875,26.2344 Q242.7656,27.0469 244.3594,27.0469 Q245.2969,27.0469 245.9531,26.7969 Q246.3438,26.6406 246.7656,26.2031 Q247.0313,25.9375 247.1719,25.8594 Q247.3281,25.7813 247.5313,25.7813 Q247.8594,25.7813 248.1094,26.0469 Q248.375,26.2969 248.375,26.6406 Q248.375,26.9844 248.0313,27.3906 Q247.5313,27.9688 246.7344,28.2969 Q245.6563,28.75 244.3594,28.75 Q242.8438,28.75 241.6406,28.125 Q240.6563,27.625 239.9688,26.5625 Q239.2813,25.4844 239.2813,24.2031 L239.2813,23.0469 Q239.2813,21.7188 239.8906,20.5781 Q240.5156,19.4219 241.6094,18.8125 Q242.7031,18.1875 243.9375,18.1875 Q244.6719,18.1875 245.3125,18.3594 Q245.9688,18.5156 246.5156,18.875 Z " fill="#000000"/><text fill="#000000" font-family="sans-serif" font-size="14" lengthAdjust="spacing" textLength="152" x="264.25" y="27.8535">CreateAgencyController</text><line style="stroke:#181818;stroke-width:0.5;" x1="177" x2="471" y1="39" y2="39"/><line style="stroke:#181818;stroke-width:0.5;" x1="177" x2="471" y1="47" y2="47"/><text fill="#000000" font-family="sans-serif" font-size="14" lengthAdjust="spacing" textLength="284" x="182" y="63.6738">+CreateAgencyController(agencyRepository)</text><text fill="#000000" font-family="sans-serif" font-size="14" lengthAdjust="spacing" textLength="153" x="182" y="79.3145">+getAgencyRepository()</text><text fill="#000000" font-family="sans-serif" font-size="14" lengthAdjust="spacing" textLength="265" x="182" y="94.9551">+createAgency(designation, state, district,</text><text fill="#000000" font-family="sans-serif" font-size="14" lengthAdjust="spacing" textLength="84" x="182" y="110.5957">city, address,</text><text fill="#000000" font-family="sans-serif" font-size="14" lengthAdjust="spacing" textLength="138" x="182" y="126.2363">email, phone number)</text></g><!--class AgencyRepository--><g id="elem_AgencyRepository"><rect codeLine="17" fill="#F1F1F1" height="48" id="AgencyRepository" rx="2.5" ry="2.5" style="stroke:#181818;stroke-width:0.5;" width="147" x="599.5" y="279.5"/><ellipse cx="614.5" cy="295.5" fill="#ADD1B2" rx="11" ry="11" style="stroke:#181818;stroke-width:1.0;"/><path d="M617.2656,291.375 Q617.4219,291.1563 617.6094,291.0469 Q617.7969,290.9375 618.0156,290.9375 Q618.3906,290.9375 618.625,291.2031 Q618.8594,291.4531 618.8594,292.0625 L618.8594,293.5156 Q618.8594,294.125 618.625,294.3906 Q618.3906,294.6563 618.0156,294.6563 Q617.6719,294.6563 617.4688,294.4531 Q617.2656,294.2656 617.1563,293.75 Q617.1094,293.3906 616.9219,293.2031 Q616.5938,292.8281 615.9844,292.6094 Q615.375,292.3906 614.75,292.3906 Q613.9844,292.3906 613.3438,292.7188 Q612.7188,293.0469 612.2188,293.7969 Q611.7344,294.5469 611.7344,295.5781 L611.7344,296.6719 Q611.7344,297.9063 612.625,298.7344 Q613.5156,299.5469 615.1094,299.5469 Q616.0469,299.5469 616.7031,299.2969 Q617.0938,299.1406 617.5156,298.7031 Q617.7813,298.4375 617.9219,298.3594 Q618.0781,298.2813 618.2813,298.2813 Q618.6094,298.2813 618.8594,298.5469 Q619.125,298.7969 619.125,299.1406 Q619.125,299.4844 618.7813,299.8906 Q618.2813,300.4688 617.4844,300.7969 Q616.4063,301.25 615.1094,301.25 Q613.5938,301.25 612.3906,300.625 Q611.4063,300.125 610.7188,299.0625 Q610.0313,297.9844 610.0313,296.7031 L610.0313,295.5469 Q610.0313,294.2188 610.6406,293.0781 Q611.2656,291.9219 612.3594,291.3125 Q613.4531,290.6875 614.6875,290.6875 Q615.4219,290.6875 616.0625,290.8594 Q616.7188,291.0156 617.2656,291.375 Z " fill="#000000"/><text fill="#000000" font-family="sans-serif" font-size="14" lengthAdjust="spacing" textLength="115" x="628.5" y="300.3535">AgencyRepository</text><line style="stroke:#181818;stroke-width:0.5;" x1="600.5" x2="745.5" y1="311.5" y2="311.5"/><line style="stroke:#181818;stroke-width:0.5;" x1="600.5" x2="745.5" y1="319.5" y2="319.5"/></g><!--class Agency--><g id="elem_Agency"><rect codeLine="19" fill="#F1F1F1" height="188.7656" id="Agency" rx="2.5" ry="2.5" style="stroke:#181818;stroke-width:0.5;" width="460" x="94" y="209"/><ellipse cx="296.25" cy="225" fill="#ADD1B2" rx="11" ry="11" style="stroke:#181818;stroke-width:1.0;"/><path d="M299.0156,220.875 Q299.1719,220.6563 299.3594,220.5469 Q299.5469,220.4375 299.7656,220.4375 Q300.1406,220.4375 300.375,220.7031 Q300.6094,220.9531 300.6094,221.5625 L300.6094,223.0156 Q300.6094,223.625 300.375,223.8906 Q300.1406,224.1563 299.7656,224.1563 Q299.4219,224.1563 299.2188,223.9531 Q299.0156,223.7656 298.9063,223.25 Q298.8594,222.8906 298.6719,222.7031 Q298.3438,222.3281 297.7344,222.1094 Q297.125,221.8906 296.5,221.8906 Q295.7344,221.8906 295.0938,222.2188 Q294.4688,222.5469 293.9688,223.2969 Q293.4844,224.0469 293.4844,225.0781 L293.4844,226.1719 Q293.4844,227.4063 294.375,228.2344 Q295.2656,229.0469 296.8594,229.0469 Q297.7969,229.0469 298.4531,228.7969 Q298.8438,228.6406 299.2656,228.2031 Q299.5313,227.9375 299.6719,227.8594 Q299.8281,227.7813 300.0313,227.7813 Q300.3594,227.7813 300.6094,228.0469 Q300.875,228.2969 300.875,228.6406 Q300.875,228.9844 300.5313,229.3906 Q300.0313,229.9688 299.2344,230.2969 Q298.1563,230.75 296.8594,230.75 Q295.3438,230.75 294.1406,230.125 Q293.1563,229.625 292.4688,228.5625 Q291.7813,227.4844 291.7813,226.2031 L291.7813,225.0469 Q291.7813,223.7188 292.3906,222.5781 Q293.0156,221.4219 294.1094,220.8125 Q295.2031,220.1875 296.4375,220.1875 Q297.1719,220.1875 297.8125,220.3594 Q298.4688,220.5156 299.0156,220.875 Z " fill="#000000"/><text fill="#000000" font-family="sans-serif" font-size="14" lengthAdjust="spacing" textLength="47" x="316.75" y="229.8535">Agency</text><line style="stroke:#181818;stroke-width:0.5;" x1="95" x2="553" y1="241" y2="241"/><text fill="#000000" font-family="sans-serif" font-size="14" lengthAdjust="spacing" textLength="119" x="100" y="257.6738">-String designation</text><text fill="#000000" font-family="sans-serif" font-size="14" lengthAdjust="spacing" textLength="77" x="100" y="273.3145">-String state</text><text fill="#000000" font-family="sans-serif" font-size="14" lengthAdjust="spacing" textLength="87" x="100" y="288.9551">-String district</text><text fill="#000000" font-family="sans-serif" font-size="14" lengthAdjust="spacing" textLength="67" x="100" y="304.5957">-String city</text><text fill="#000000" font-family="sans-serif" font-size="14" lengthAdjust="spacing" textLength="97" x="100" y="320.2363">-String address</text><text fill="#000000" font-family="sans-serif" font-size="14" lengthAdjust="spacing" textLength="79" x="100" y="335.877">-String email</text><text fill="#000000" font-family="sans-serif" font-size="14" lengthAdjust="spacing" textLength="128" x="100" y="351.5176">-long phone number</text><text fill="#000000" font-family="sans-serif" font-size="14" lengthAdjust="spacing" textLength="43" x="100" y="367.1582">-int vat</text><line style="stroke:#181818;stroke-width:0.5;" x1="95" x2="553" y1="374.125" y2="374.125"/><text fill="#000000" font-family="sans-serif" font-size="14" lengthAdjust="spacing" textLength="448" x="100" y="390.7988">+create(designation, state, district, city, address, email, phone number)</text></g><!--class SystemAdministrator--><g id="elem_SystemAdministrator"><rect codeLine="32" fill="#F1F1F1" height="94.9219" id="SystemAdministrator" rx="2.5" ry="2.5" style="stroke:#181818;stroke-width:0.5;" width="161" x="243.5" y="474"/><ellipse cx="258.5" cy="490" fill="#ADD1B2" rx="11" ry="11" style="stroke:#181818;stroke-width:1.0;"/><path d="M261.2656,485.875 Q261.4219,485.6563 261.6094,485.5469 Q261.7969,485.4375 262.0156,485.4375 Q262.3906,485.4375 262.625,485.7031 Q262.8594,485.9531 262.8594,486.5625 L262.8594,488.0156 Q262.8594,488.625 262.625,488.8906 Q262.3906,489.1563 262.0156,489.1563 Q261.6719,489.1563 261.4688,488.9531 Q261.2656,488.7656 261.1563,488.25 Q261.1094,487.8906 260.9219,487.7031 Q260.5938,487.3281 259.9844,487.1094 Q259.375,486.8906 258.75,486.8906 Q257.9844,486.8906 257.3438,487.2188 Q256.7188,487.5469 256.2188,488.2969 Q255.7344,489.0469 255.7344,490.0781 L255.7344,491.1719 Q255.7344,492.4063 256.625,493.2344 Q257.5156,494.0469 259.1094,494.0469 Q260.0469,494.0469 260.7031,493.7969 Q261.0938,493.6406 261.5156,493.2031 Q261.7813,492.9375 261.9219,492.8594 Q262.0781,492.7813 262.2813,492.7813 Q262.6094,492.7813 262.8594,493.0469 Q263.125,493.2969 263.125,493.6406 Q263.125,493.9844 262.7813,494.3906 Q262.2813,494.9688 261.4844,495.2969 Q260.4063,495.75 259.1094,495.75 Q257.5938,495.75 256.3906,495.125 Q255.4063,494.625 254.7188,493.5625 Q254.0313,492.4844 254.0313,491.2031 L254.0313,490.0469 Q254.0313,488.7188 254.6406,487.5781 Q255.2656,486.4219 256.3594,485.8125 Q257.4531,485.1875 258.6875,485.1875 Q259.4219,485.1875 260.0625,485.3594 Q260.7188,485.5156 261.2656,485.875 Z " fill="#000000"/><text fill="#000000" font-family="sans-serif" font-size="14" lengthAdjust="spacing" textLength="129" x="272.5" y="494.8535">SystemAdministrator</text><line style="stroke:#181818;stroke-width:0.5;" x1="244.5" x2="403.5" y1="506" y2="506"/><text fill="#000000" font-family="sans-serif" font-size="14" lengthAdjust="spacing" textLength="97" x="249.5" y="522.6738">-phone number</text><text fill="#000000" font-family="sans-serif" font-size="14" lengthAdjust="spacing" textLength="38" x="249.5" y="538.3145">-email</text><text fill="#000000" font-family="sans-serif" font-size="14" lengthAdjust="spacing" textLength="65" x="249.5" y="553.9551">-password</text><line style="stroke:#181818;stroke-width:0.5;" x1="244.5" x2="403.5" y1="560.9219" y2="560.9219"/></g><!--class Repositories--><g id="elem_Repositories"><rect codeLine="38" fill="#F1F1F1" height="94.9219" id="Repositories" rx="2.5" ry="2.5" style="stroke:#181818;stroke-width:0.5;" width="194" x="576" y="22.5"/><ellipse cx="629.25" cy="38.5" fill="#ADD1B2" rx="11" ry="11" style="stroke:#181818;stroke-width:1.0;"/><path d="M632.0156,34.375 Q632.1719,34.1563 632.3594,34.0469 Q632.5469,33.9375 632.7656,33.9375 Q633.1406,33.9375 633.375,34.2031 Q633.6094,34.4531 633.6094,35.0625 L633.6094,36.5156 Q633.6094,37.125 633.375,37.3906 Q633.1406,37.6563 632.7656,37.6563 Q632.4219,37.6563 632.2188,37.4531 Q632.0156,37.2656 631.9063,36.75 Q631.8594,36.3906 631.6719,36.2031 Q631.3438,35.8281 630.7344,35.6094 Q630.125,35.3906 629.5,35.3906 Q628.7344,35.3906 628.0938,35.7188 Q627.4688,36.0469 626.9688,36.7969 Q626.4844,37.5469 626.4844,38.5781 L626.4844,39.6719 Q626.4844,40.9063 627.375,41.7344 Q628.2656,42.5469 629.8594,42.5469 Q630.7969,42.5469 631.4531,42.2969 Q631.8438,42.1406 632.2656,41.7031 Q632.5313,41.4375 632.6719,41.3594 Q632.8281,41.2813 633.0313,41.2813 Q633.3594,41.2813 633.6094,41.5469 Q633.875,41.7969 633.875,42.1406 Q633.875,42.4844 633.5313,42.8906 Q633.0313,43.4688 632.2344,43.7969 Q631.1563,44.25 629.8594,44.25 Q628.3438,44.25 627.1406,43.625 Q626.1563,43.125 625.4688,42.0625 Q624.7813,40.9844 624.7813,39.7031 L624.7813,38.5469 Q624.7813,37.2188 625.3906,36.0781 Q626.0156,34.9219 627.1094,34.3125 Q628.2031,33.6875 629.4375,33.6875 Q630.1719,33.6875 630.8125,33.8594 Q631.4688,34.0156 632.0156,34.375 Z " fill="#000000"/><text fill="#000000" font-family="sans-serif" font-size="14" lengthAdjust="spacing" textLength="79" x="649.75" y="43.3535">Repositories</text><line style="stroke:#181818;stroke-width:0.5;" x1="577" x2="769" y1="54.5" y2="54.5"/><line style="stroke:#181818;stroke-width:0.5;" x1="577" x2="769" y1="62.5" y2="62.5"/><text fill="#000000" font-family="sans-serif" font-size="14" lengthAdjust="spacing" textLength="94" x="582" y="79.1738">-Repositories()</text><text fill="#000000" font-family="sans-serif" font-size="14" lengthAdjust="spacing" textLength="182" x="582" y="94.8145">+getInstance() : Repositories</text><text fill="#000000" font-family="sans-serif" font-size="14" lengthAdjust="spacing" textLength="153" x="582" y="110.4551">+getAgencyRepository()</text></g><!--link Repositories to Repositories--><g id="link_Repositories_Repositories"><path codeLine="44" d="M770.28,51.91 C790.48,53.81 805,59.84 805,70 C805,79.28 792.87,85.12 775.36,87.51 " fill="none" id="Repositories-to-Repositories" style="stroke:#181818;stroke-width:1.0;"/><polygon fill="#181818" points="770.28,88.09,779.6779,91.0361,775.2473,87.519,778.7644,83.0884,770.28,88.09" style="stroke:#181818;stroke-width:1.0;"/><text fill="#000000" font-family="sans-serif" font-size="13" lengthAdjust="spacing" textLength="49" x="811" y="74.7686">instance</text></g><!--link CreateAgencyUI to CreateAgencyController--><g id="link_CreateAgencyUI_CreateAgencyController"><path codeLine="46" d="M141.27,70 C150.74,70 157.33,70 157.33,70 C157.33,70 162.64,70 170.57,70 " fill="none" id="CreateAgencyUI-to-CreateAgencyController" style="stroke:#181818;stroke-width:1.0;stroke-dasharray:7.0,7.0;"/><polygon fill="#181818" points="175.83,70,166.83,66,170.83,70,166.83,74,175.83,70" style="stroke:#181818;stroke-width:1.0;"/></g><!--link CreateAgencyController to Repositories--><g id="link_CreateAgencyController_Repositories"><path codeLine="48" d="M472.01,70 C505.2,70 539.7,70 570.56,70 " fill="none" id="CreateAgencyController-to-Repositories" style="stroke:#181818;stroke-width:1.0;stroke-dasharray:7.0,7.0;"/><polygon fill="#181818" points="575.87,70,566.87,66,570.87,70,566.87,74,575.87,70" style="stroke:#181818;stroke-width:1.0;"/><text fill="#000000" font-family="sans-serif" font-size="13" lengthAdjust="spacing" textLength="67" x="490.5" y="63.7686">repositories</text></g><!--link Repositories to AgencyRepository--><g id="link_Repositories_AgencyRepository"><path codeLine="50" d="M673,117.57 C673,164.45 673,235.24 673,274.24 " fill="none" id="Repositories-to-AgencyRepository" style="stroke:#181818;stroke-width:1.0;"/><polygon fill="#181818" points="673,279.29,677,270.29,673,274.29,669,270.29,673,279.29" style="stroke:#181818;stroke-width:1.0;"/><text fill="#000000" font-family="sans-serif" font-size="13" lengthAdjust="spacing" textLength="7" x="665.0594" y="268.7412">1</text></g><!--link CreateAgencyController to Agency--><g id="link_CreateAgencyController_Agency"><path codeLine="52" d="M324,133.04 C324,154.79 324,179.8 324,203.81 " fill="none" id="CreateAgencyController-to-Agency" style="stroke:#181818;stroke-width:1.0;stroke-dasharray:7.0,7.0;"/><polygon fill="#181818" points="324,208.92,328,199.92,324,203.92,320,199.92,324,208.92" style="stroke:#181818;stroke-width:1.0;"/><text fill="#000000" font-family="sans-serif" font-size="13" lengthAdjust="spacing" textLength="106" x="325" y="175.7686">AgencyRepository</text></g><!--link Agency to SystemAdministrator--><g id="link_Agency_SystemAdministrator"><path codeLine="54" d="M324,398.3 C324,422.54 324,447.75 324,468.94 " fill="none" id="Agency-to-SystemAdministrator" style="stroke:#181818;stroke-width:1.0;"/><polygon fill="#181818" points="324,473.95,328,464.95,324,468.95,320,464.95,324,473.95" style="stroke:#181818;stroke-width:1.0;"/><text fill="#000000" font-family="sans-serif" font-size="13" lengthAdjust="spacing" textLength="59" x="325" y="440.7686">createdBy</text></g><!--SRC=[VLAnRi8m5Dpz5KzCGGseNHcGKYRMHjsw6ESrM3XsP3-AKjH_hmDkQeT0DjyztpjVpXsaRhdb3RHS77YD9NKAmQ8Whck5p0q3RiyhSvAwXa-kNCmegP6w5g4rgkiFB2A5uiuLH5RkZeHRONGfln6U6RimiB782OiQjUZUjt3-cI8sHfCrIg65CmF_FTsXCtu1th0rJfAntJoCrqZ5YCh-E159PHKwMMjEqkWS77aYXqewxrzG_g65f2u7NbKMdVDdRBXKERHxen7qiTcXdJCsF6AyCthVbGhlMK3fD_Xie_KfSR4ocWssKhHtc2B1RGfUZ0T86G_4JmYur0HVd5YIq-E480q89lCPCYWxHzWKLIDrBy1zH4CW4tvYpws_VpAs-XSRKfRe1fKOpA8oRBLthWLcSrWbGm_xudSbMnRhTElAHtRLPMnKxENwJcNJoQZfonjn6_iSEV5MPY-pcyBTL_VoeOAhYLk1wcMdVj8gbA5wxTWl]--></g></svg>