<?xml version="1.0" encoding="us-ascii" standalone="no"?><svg xmlns="http://www.w3.org/2000/svg" xmlns:xlink="http://www.w3.org/1999/xlink" contentStyleType="text/css" height="829px" preserveAspectRatio="none" style="width:1411px;height:829px;background:#FFFFFF;" version="1.1" viewBox="0 0 1411 829" width="1411px" zoomAndPan="magnify"><defs/><g><rect fill="#FFFFFF" height="640.8672" style="stroke:#181818;stroke-width:1.0;" width="10" x="69.5" y="90.6406"/><rect fill="#FFFFFF" height="620.3438" style="stroke:#181818;stroke-width:1.0;" width="10" x="398.5" y="111.1641"/><rect fill="#FFFFFF" height="436.5625" style="stroke:#181818;stroke-width:1.0;" width="10" x="676.5" y="266.4219"/><rect fill="#FFFFFF" height="28.5234" style="stroke:#181818;stroke-width:1.0;" width="10" x="820" y="294.9453"/><rect fill="#FFFFFF" height="28.5234" style="stroke:#181818;stroke-width:1.0;" width="10" x="927" y="351.9922"/><rect fill="#FFFFFF" height="250.8984" style="stroke:#181818;stroke-width:1.0;" width="10" x="1052" y="423.5625"/><rect fill="#FFFFFF" height="122.5703" style="stroke:#181818;stroke-width:1.0;" width="10" x="1057" y="516.3672"/><rect fill="#FFFFFF" height="39.5234" style="stroke:#181818;stroke-width:1.0;" width="10" x="1062" y="557.8906"/><line style="stroke:#181818;stroke-width:0.5;stroke-dasharray:5.0,5.0;" x1="74" x2="74" y1="80.6406" y2="749.5078"/><line style="stroke:#181818;stroke-width:0.5;stroke-dasharray:5.0,5.0;" x1="403.5" x2="403.5" y1="80.6406" y2="749.5078"/><line style="stroke:#181818;stroke-width:0.5;stroke-dasharray:5.0,5.0;" x1="681.5" x2="681.5" y1="149.4844" y2="749.5078"/><line style="stroke:#181818;stroke-width:0.5;stroke-dasharray:5.0,5.0;" x1="824.5" x2="824.5" y1="80.6406" y2="749.5078"/><line style="stroke:#181818;stroke-width:0.5;stroke-dasharray:5.0,5.0;" x1="931.5" x2="931.5" y1="80.6406" y2="749.5078"/><line style="stroke:#181818;stroke-width:0.5;stroke-dasharray:5.0,5.0;" x1="1056.5" x2="1056.5" y1="80.6406" y2="749.5078"/><line style="stroke:#181818;stroke-width:0.5;stroke-dasharray:5.0,5.0;" x1="1372" x2="1372" y1="469.7031" y2="749.5078"/><text fill="#000000" font-family="sans-serif" font-size="14" lengthAdjust="spacing" textLength="133" x="5" y="77.6738">System Administrator</text><ellipse cx="74.5" cy="13.5" fill="#E3E3E3" rx="8" ry="8" style="stroke:#181818;stroke-width:0.5;"/><path d="M74.5,21.5 L74.5,48.5 M61.5,29.5 L87.5,29.5 M74.5,48.5 L61.5,63.5 M74.5,48.5 L87.5,63.5 " fill="none" style="stroke:#181818;stroke-width:0.5;"/><text fill="#000000" font-family="sans-serif" font-size="14" lengthAdjust="spacing" textLength="133" x="5" y="761.1816">System Administrator</text><ellipse cx="74.5" cy="772.6484" fill="#E3E3E3" rx="8" ry="8" style="stroke:#181818;stroke-width:0.5;"/><path d="M74.5,780.6484 L74.5,807.6484 M61.5,788.6484 L87.5,788.6484 M74.5,807.6484 L61.5,822.6484 M74.5,807.6484 L87.5,822.6484 " fill="none" style="stroke:#181818;stroke-width:0.5;"/><rect fill="#E3E3E3" height="29.6406" rx="2.5" ry="2.5" style="stroke:#181818;stroke-width:0.5;" width="120" x="343.5" y="50"/><text fill="#000000" font-family="sans-serif" font-size="14" lengthAdjust="spacing" textLength="106" x="350.5" y="69.6738">:CreateAgencyUI</text><rect fill="#E3E3E3" height="29.6406" rx="2.5" ry="2.5" style="stroke:#181818;stroke-width:0.5;" width="120" x="343.5" y="748.5078"/><text fill="#000000" font-family="sans-serif" font-size="14" lengthAdjust="spacing" textLength="106" x="350.5" y="768.1816">:CreateAgencyUI</text><rect fill="#E3E3E3" height="29.6406" rx="2.5" ry="2.5" style="stroke:#181818;stroke-width:0.5;" width="170" x="596.5" y="748.5078"/><text fill="#000000" font-family="sans-serif" font-size="14" lengthAdjust="spacing" textLength="156" x="603.5" y="768.1816">:CreateAgencyController</text><rect fill="#E3E3E3" height="29.6406" rx="2.5" ry="2.5" style="stroke:#181818;stroke-width:0.5;" width="97" x="776.5" y="50"/><text fill="#000000" font-family="sans-serif" font-size="14" lengthAdjust="spacing" textLength="83" x="783.5" y="69.6738">:Repositories</text><rect fill="#E3E3E3" height="29.6406" rx="2.5" ry="2.5" style="stroke:#181818;stroke-width:0.5;" width="97" x="776.5" y="748.5078"/><text fill="#000000" font-family="sans-serif" font-size="14" lengthAdjust="spacing" textLength="83" x="783.5" y="768.1816">:Repositories</text><rect fill="#E3E3E3" height="45.2813" rx="2.5" ry="2.5" style="stroke:#181818;stroke-width:0.5;" width="97" x="883.5" y="34.3594"/><text fill="#000000" font-family="sans-serif" font-size="14" lengthAdjust="spacing" textLength="74" x="895" y="54.0332">repositories</text><text fill="#000000" font-family="sans-serif" font-size="14" lengthAdjust="spacing" textLength="83" x="890.5" y="69.6738">:Repositories</text><rect fill="#E3E3E3" height="45.2813" rx="2.5" ry="2.5" style="stroke:#181818;stroke-width:0.5;" width="97" x="883.5" y="748.5078"/><text fill="#000000" font-family="sans-serif" font-size="14" lengthAdjust="spacing" textLength="74" x="895" y="768.1816">repositories</text><text fill="#000000" font-family="sans-serif" font-size="14" lengthAdjust="spacing" textLength="83" x="890.5" y="783.8223">:Repositories</text><rect fill="#E3E3E3" height="45.2813" rx="2.5" ry="2.5" style="stroke:#181818;stroke-width:0.5;" width="133" x="990.5" y="34.3594"/><text fill="#000000" font-family="sans-serif" font-size="14" lengthAdjust="spacing" textLength="119" x="997.5" y="54.0332">AgencyRepository:</text><text fill="#000000" font-family="sans-serif" font-size="14" lengthAdjust="spacing" textLength="114" x="1000" y="69.6738">agencyRepository</text><rect fill="#E3E3E3" height="45.2813" rx="2.5" ry="2.5" style="stroke:#181818;stroke-width:0.5;" width="133" x="990.5" y="748.5078"/><text fill="#000000" font-family="sans-serif" font-size="14" lengthAdjust="spacing" textLength="119" x="997.5" y="768.1816">AgencyRepository:</text><text fill="#000000" font-family="sans-serif" font-size="14" lengthAdjust="spacing" textLength="114" x="1000" y="783.8223">agencyRepository</text><rect fill="#E3E3E3" height="45.2813" rx="2.5" ry="2.5" style="stroke:#181818;stroke-width:0.5;" width="65" x="1340" y="748.5078"/><text fill="#000000" font-family="sans-serif" font-size="14" lengthAdjust="spacing" textLength="46" x="1349.5" y="768.1816">agency</text><text fill="#000000" font-family="sans-serif" font-size="14" lengthAdjust="spacing" textLength="51" x="1347" y="783.8223">:Agency</text><rect fill="#FFFFFF" height="640.8672" style="stroke:#181818;stroke-width:1.0;" width="10" x="69.5" y="90.6406"/><rect fill="#FFFFFF" height="620.3438" style="stroke:#181818;stroke-width:1.0;" width="10" x="398.5" y="111.1641"/><rect fill="#FFFFFF" height="436.5625" style="stroke:#181818;stroke-width:1.0;" width="10" x="676.5" y="266.4219"/><rect fill="#FFFFFF" height="28.5234" style="stroke:#181818;stroke-width:1.0;" width="10" x="820" y="294.9453"/><rect fill="#FFFFFF" height="28.5234" style="stroke:#181818;stroke-width:1.0;" width="10" x="927" y="351.9922"/><rect fill="#FFFFFF" height="250.8984" style="stroke:#181818;stroke-width:1.0;" width="10" x="1052" y="423.5625"/><rect fill="#FFFFFF" height="122.5703" style="stroke:#181818;stroke-width:1.0;" width="10" x="1057" y="516.3672"/><rect fill="#FFFFFF" height="39.5234" style="stroke:#181818;stroke-width:1.0;" width="10" x="1062" y="557.8906"/><polygon fill="#181818" points="386.5,107.1641,396.5,111.1641,386.5,115.1641,390.5,111.1641" style="stroke:#181818;stroke-width:1.0;"/><line style="stroke:#181818;stroke-width:1.0;" x1="79.5" x2="392.5" y1="111.1641" y2="111.1641"/><text fill="#000000" font-family="sans-serif" font-size="13" font-weight="bold" lengthAdjust="spacing" textLength="7" x="86.5" y="106.4092">1</text><text fill="#000000" font-family="sans-serif" font-size="13" lengthAdjust="spacing" textLength="154" x="97.5" y="106.4092">asks to create a new store</text><polygon fill="#181818" points="584.5,135.6875,594.5,139.6875,584.5,143.6875,588.5,139.6875" style="stroke:#181818;stroke-width:1.0;"/><line style="stroke:#181818;stroke-width:1.0;" x1="408.5" x2="590.5" y1="139.6875" y2="139.6875"/><text fill="#000000" font-family="sans-serif" font-size="13" font-weight="bold" lengthAdjust="spacing" textLength="7" x="415.5" y="134.9326">2</text><text fill="#000000" font-family="sans-serif" font-size="13" lengthAdjust="spacing" textLength="36" x="426.5" y="134.9326">create</text><rect fill="#E3E3E3" height="29.6406" rx="2.5" ry="2.5" style="stroke:#181818;stroke-width:0.5;" width="170" x="596.5" y="119.1641"/><text fill="#000000" font-family="sans-serif" font-size="14" lengthAdjust="spacing" textLength="156" x="603.5" y="138.8379">:CreateAgencyController</text><polygon fill="#181818" points="90.5,176.3281,80.5,180.3281,90.5,184.3281,86.5,180.3281" style="stroke:#181818;stroke-width:1.0;"/><line style="stroke:#181818;stroke-width:1.0;stroke-dasharray:2.0,2.0;" x1="84.5" x2="397.5" y1="180.3281" y2="180.3281"/><text fill="#000000" font-family="sans-serif" font-size="13" font-weight="bold" lengthAdjust="spacing" textLength="7" x="96.5" y="175.5732">3</text><text fill="#000000" font-family="sans-serif" font-size="13" lengthAdjust="spacing" textLength="79" x="107.5" y="175.5732">requests data</text><polygon fill="#181818" points="386.5,219.375,396.5,223.375,386.5,227.375,390.5,223.375" style="stroke:#181818;stroke-width:1.0;"/><line style="stroke:#181818;stroke-width:1.0;" x1="79.5" x2="392.5" y1="223.375" y2="223.375"/><text fill="#000000" font-family="sans-serif" font-size="13" font-weight="bold" lengthAdjust="spacing" textLength="7" x="86.5" y="211.3584">4</text><text fill="#000000" font-family="sans-serif" font-size="13" lengthAdjust="spacing" textLength="284" x="97.5" y="204.0967">types requested data (designation, state, district,</text><text fill="#000000" font-family="sans-serif" font-size="13" lengthAdjust="spacing" textLength="232" x="101.5" y="218.6201">city, address, email, phone number, vat)</text><polygon fill="#181818" points="664.5,262.4219,674.5,266.4219,664.5,270.4219,668.5,266.4219" style="stroke:#181818;stroke-width:1.0;"/><line style="stroke:#181818;stroke-width:1.0;" x1="408.5" x2="670.5" y1="266.4219" y2="266.4219"/><text fill="#000000" font-family="sans-serif" font-size="13" font-weight="bold" lengthAdjust="spacing" textLength="7" x="415.5" y="254.4053">5</text><text fill="#000000" font-family="sans-serif" font-size="13" lengthAdjust="spacing" textLength="238" x="426.5" y="247.1436">createAgency(designation, state, district,</text><text fill="#000000" font-family="sans-serif" font-size="13" lengthAdjust="spacing" textLength="232" x="430.5" y="261.667">city, address, email, phone number, vat)</text><polygon fill="#181818" points="808,290.9453,818,294.9453,808,298.9453,812,294.9453" style="stroke:#181818;stroke-width:1.0;"/><line style="stroke:#181818;stroke-width:1.0;" x1="686.5" x2="814" y1="294.9453" y2="294.9453"/><text fill="#000000" font-family="sans-serif" font-size="13" font-weight="bold" lengthAdjust="spacing" textLength="7" x="693.5" y="290.1904">6</text><text fill="#000000" font-family="sans-serif" font-size="13" lengthAdjust="spacing" textLength="75" x="704.5" y="290.1904">getInstance()</text><polygon fill="#181818" points="697.5,319.4688,687.5,323.4688,697.5,327.4688,693.5,323.4688" style="stroke:#181818;stroke-width:1.0;"/><line style="stroke:#181818;stroke-width:1.0;stroke-dasharray:2.0,2.0;" x1="691.5" x2="824" y1="323.4688" y2="323.4688"/><text fill="#000000" font-family="sans-serif" font-size="13" font-weight="bold" lengthAdjust="spacing" textLength="7" x="703.5" y="318.7139">7</text><text fill="#000000" font-family="sans-serif" font-size="13" lengthAdjust="spacing" textLength="67" x="714.5" y="318.7139">repositories</text><polygon fill="#181818" points="915,347.9922,925,351.9922,915,355.9922,919,351.9922" style="stroke:#181818;stroke-width:1.0;"/><line style="stroke:#181818;stroke-width:1.0;" x1="686.5" x2="921" y1="351.9922" y2="351.9922"/><text fill="#000000" font-family="sans-serif" font-size="13" font-weight="bold" lengthAdjust="spacing" textLength="7" x="693.5" y="347.2373">8</text><text fill="#000000" font-family="sans-serif" font-size="13" lengthAdjust="spacing" textLength="119" x="704.5" y="347.2373">getStoreRepository()</text><polygon fill="#181818" points="697.5,376.5156,687.5,380.5156,697.5,384.5156,693.5,380.5156" style="stroke:#181818;stroke-width:1.0;"/><line style="stroke:#181818;stroke-width:1.0;stroke-dasharray:2.0,2.0;" x1="691.5" x2="931" y1="380.5156" y2="380.5156"/><text fill="#000000" font-family="sans-serif" font-size="13" font-weight="bold" lengthAdjust="spacing" textLength="7" x="703.5" y="375.7607">9</text><text fill="#000000" font-family="sans-serif" font-size="13" lengthAdjust="spacing" textLength="91" x="714.5" y="375.7607">storeRepository</text><polygon fill="#181818" points="1040,419.5625,1050,423.5625,1040,427.5625,1044,423.5625" style="stroke:#181818;stroke-width:1.0;"/><line style="stroke:#181818;stroke-width:1.0;" x1="686.5" x2="1046" y1="423.5625" y2="423.5625"/><text fill="#000000" font-family="sans-serif" font-size="13" font-weight="bold" lengthAdjust="spacing" textLength="14" x="693.5" y="411.5459">10</text><text fill="#000000" font-family="sans-serif" font-size="13" lengthAdjust="spacing" textLength="238" x="711.5" y="404.2842">createAgency(designation, state, district,</text><text fill="#000000" font-family="sans-serif" font-size="13" lengthAdjust="spacing" textLength="232" x="715.5" y="418.8076">city, address, email, phone number, vat)</text><polygon fill="#181818" points="1328,462.6094,1338,466.6094,1328,470.6094,1332,466.6094" style="stroke:#181818;stroke-width:1.0;"/><line style="stroke:#181818;stroke-width:1.0;" x1="1062" x2="1334" y1="466.6094" y2="466.6094"/><text fill="#000000" font-family="sans-serif" font-size="13" font-weight="bold" lengthAdjust="spacing" textLength="14" x="1069" y="454.5928">11</text><text fill="#000000" font-family="sans-serif" font-size="13" lengthAdjust="spacing" textLength="194" x="1087" y="447.3311">create(designation, state, district,</text><text fill="#000000" font-family="sans-serif" font-size="13" lengthAdjust="spacing" textLength="232" x="1091" y="461.8545">city, address, email, phone number, vat)</text><rect fill="#E3E3E3" height="45.2813" rx="2.5" ry="2.5" style="stroke:#181818;stroke-width:0.5;" width="65" x="1340" y="431.5625"/><text fill="#000000" font-family="sans-serif" font-size="14" lengthAdjust="spacing" textLength="46" x="1349.5" y="451.2363">agency</text><text fill="#000000" font-family="sans-serif" font-size="14" lengthAdjust="spacing" textLength="51" x="1347" y="466.877">:Agency</text><line style="stroke:#181818;stroke-width:1.0;" x1="1062" x2="1109" y1="503.3672" y2="503.3672"/><line style="stroke:#181818;stroke-width:1.0;" x1="1109" x2="1109" y1="503.3672" y2="516.3672"/><line style="stroke:#181818;stroke-width:1.0;" x1="1068" x2="1109" y1="516.3672" y2="516.3672"/><polygon fill="#181818" points="1078,512.3672,1068,516.3672,1078,520.3672,1074,516.3672" style="stroke:#181818;stroke-width:1.0;"/><text fill="#000000" font-family="sans-serif" font-size="13" font-weight="bold" lengthAdjust="spacing" textLength="14" x="1074" y="498.6123">12</text><text fill="#000000" font-family="sans-serif" font-size="13" lengthAdjust="spacing" textLength="119" x="1092" y="498.6123">addAgency (agency)</text><line style="stroke:#181818;stroke-width:1.0;" x1="1067" x2="1114" y1="544.8906" y2="544.8906"/><line style="stroke:#181818;stroke-width:1.0;" x1="1114" x2="1114" y1="544.8906" y2="557.8906"/><line style="stroke:#181818;stroke-width:1.0;" x1="1073" x2="1114" y1="557.8906" y2="557.8906"/><polygon fill="#181818" points="1083,553.8906,1073,557.8906,1083,561.8906,1079,557.8906" style="stroke:#181818;stroke-width:1.0;"/><text fill="#000000" font-family="sans-serif" font-size="13" font-weight="bold" lengthAdjust="spacing" textLength="14" x="1079" y="540.1357">13</text><text fill="#000000" font-family="sans-serif" font-size="13" lengthAdjust="spacing" textLength="137" x="1097" y="540.1357">validateAgency(agency)</text><line style="stroke:#181818;stroke-width:1.0;stroke-dasharray:2.0,2.0;" x1="1072" x2="1114" y1="596.4141" y2="596.4141"/><line style="stroke:#181818;stroke-width:1.0;stroke-dasharray:2.0,2.0;" x1="1114" x2="1114" y1="596.4141" y2="609.4141"/><line style="stroke:#181818;stroke-width:1.0;stroke-dasharray:2.0,2.0;" x1="1067" x2="1114" y1="609.4141" y2="609.4141"/><polygon fill="#181818" points="1077,605.4141,1067,609.4141,1077,613.4141,1073,609.4141" style="stroke:#181818;stroke-width:1.0;"/><text fill="#000000" font-family="sans-serif" font-size="13" font-weight="bold" lengthAdjust="spacing" textLength="14" x="1079" y="591.6592">14</text><text fill="#000000" font-family="sans-serif" font-size="13" lengthAdjust="spacing" textLength="4" x="1097" y="591.6592">&#160;</text><line style="stroke:#181818;stroke-width:1.0;stroke-dasharray:2.0,2.0;" x1="1067" x2="1109" y1="637.9375" y2="637.9375"/><line style="stroke:#181818;stroke-width:1.0;stroke-dasharray:2.0,2.0;" x1="1109" x2="1109" y1="637.9375" y2="650.9375"/><line style="stroke:#181818;stroke-width:1.0;stroke-dasharray:2.0,2.0;" x1="1062" x2="1109" y1="650.9375" y2="650.9375"/><polygon fill="#181818" points="1072,646.9375,1062,650.9375,1072,654.9375,1068,650.9375" style="stroke:#181818;stroke-width:1.0;"/><text fill="#000000" font-family="sans-serif" font-size="13" font-weight="bold" lengthAdjust="spacing" textLength="14" x="1074" y="633.1826">15</text><text fill="#000000" font-family="sans-serif" font-size="13" lengthAdjust="spacing" textLength="4" x="1092" y="633.1826">&#160;</text><polygon fill="#181818" points="697.5,670.4609,687.5,674.4609,697.5,678.4609,693.5,674.4609" style="stroke:#181818;stroke-width:1.0;"/><line style="stroke:#181818;stroke-width:1.0;stroke-dasharray:2.0,2.0;" x1="691.5" x2="1056" y1="674.4609" y2="674.4609"/><text fill="#000000" font-family="sans-serif" font-size="13" font-weight="bold" lengthAdjust="spacing" textLength="14" x="703.5" y="669.7061">16</text><text fill="#000000" font-family="sans-serif" font-size="13" lengthAdjust="spacing" textLength="42" x="721.5" y="669.7061">agency</text><polygon fill="#181818" points="419.5,698.9844,409.5,702.9844,419.5,706.9844,415.5,702.9844" style="stroke:#181818;stroke-width:1.0;"/><line style="stroke:#181818;stroke-width:1.0;stroke-dasharray:2.0,2.0;" x1="413.5" x2="680.5" y1="702.9844" y2="702.9844"/><text fill="#000000" font-family="sans-serif" font-size="13" font-weight="bold" lengthAdjust="spacing" textLength="14" x="425.5" y="698.2295">17</text><text fill="#000000" font-family="sans-serif" font-size="13" lengthAdjust="spacing" textLength="42" x="443.5" y="698.2295">agency</text><polygon fill="#181818" points="85.5,727.5078,75.5,731.5078,85.5,735.5078,81.5,731.5078" style="stroke:#181818;stroke-width:1.0;"/><line style="stroke:#181818;stroke-width:1.0;stroke-dasharray:2.0,2.0;" x1="79.5" x2="402.5" y1="731.5078" y2="731.5078"/><text fill="#000000" font-family="sans-serif" font-size="13" font-weight="bold" lengthAdjust="spacing" textLength="14" x="91.5" y="726.7529">18</text><text fill="#000000" font-family="sans-serif" font-size="13" lengthAdjust="spacing" textLength="158" x="109.5" y="726.7529">displays operation success</text><!--SRC=[lLNBRjim4BpxAnO-EO7y0peKCDoYC90MHPmS2lYofROoOObKIIg1_hvBqjR3KXqxQCkJJStEp2w7aZr8LQ714agjjDWRNH8uKzFCjayg50VCQUkQWi2GSAZoeW-mUypqgrGv_CJ2qco6jTEgBd-GuT_2QGFpRMCTbR3AIgcaTGPvTmveOVNnounfd1IoGkLWdguDeQDLJaeqpvi0UjvSmAorSaON1KN2zTFZmndwaIfj9IjAiW7JRZHRwPjXkyCIqwlOgJ71juVLqx0YUkc8qvt2iwtOxzdca2MMi6A4nOhFdxwkluT9oXVkEeni1iV5Vs3vWIS4AOCF5fm64QO328fUmR8ATVYMXMVQRlh53CpZftT_proHOmnXZ9TCEGc_QhBEGeOE8wxlnJKLsHE8ie22HKPMvWgTr2fXPwoGGERp88LBTWg4T4q2c6M6h4s0IfH50jLUAuAOg0JO_LtdgxFTcewp-mTQW_c5d0qU-HMCiA69XB6_dDn6iHKbQ74tBcwvf_8vGlir9RCypiCVKHVRSNr6j-cTMlFPZxriVRIwseijXHipsKFWMtQ7Q8Ui5urFivwSdj-r_voGqLKV6HqPzAR3TU_TmRzdyohvySoOEUx28hwVBftpsqtVeFo2XSowy_gZ-ZiSJBkOi35TtilWUpk-IkicdKcDuwsAinlMN4qUBrHujR_9D7ulTf-DrEUsAh2ne2io8T9WQo4ukB6cH-G_K7s7_DNx3G00]--></g></svg>