<?xml version="1.0" encoding="us-ascii" standalone="no"?><svg xmlns="http://www.w3.org/2000/svg" xmlns:xlink="http://www.w3.org/1999/xlink" contentStyleType="text/css" height="533px" preserveAspectRatio="none" style="width:455px;height:533px;background:#FFFFFF;" version="1.1" viewBox="0 0 455 533" width="455px" zoomAndPan="magnify"><defs/><g><!--class System Administrator--><g id="elem_System Administrator"><rect codeLine="10" fill="#F1F1F1" height="80.5625" id="System Administrator" rx="2.5" ry="2.5" style="stroke:#181818;stroke-width:0.5;" width="139" x="99.7" y="7"/><text fill="#000000" font-family="sans-serif" font-size="14" lengthAdjust="spacing" textLength="133" x="102.7" y="24.6738">System Administrator</text><line style="stroke:#181818;stroke-width:0.5;" x1="100.7" x2="237.7" y1="32.6406" y2="32.6406"/><text fill="#000000" font-family="sans-serif" font-size="14" lengthAdjust="spacing" textLength="89" x="105.7" y="49.3145">phoneNumber</text><text fill="#000000" font-family="sans-serif" font-size="14" lengthAdjust="spacing" textLength="33" x="105.7" y="64.9551">email</text><text fill="#000000" font-family="sans-serif" font-size="14" lengthAdjust="spacing" textLength="60" x="105.7" y="80.5957">password</text></g><!--class Store Network--><g id="elem_Store Network"><rect codeLine="16" fill="#F1F1F1" height="96.2031" id="Store Network" rx="2.5" ry="2.5" style="stroke:#181818;stroke-width:0.5;" width="124" x="107.2" y="164"/><text fill="#000000" font-family="sans-serif" font-size="14" lengthAdjust="spacing" textLength="88" x="125.2" y="181.6738">Store Network</text><line style="stroke:#181818;stroke-width:0.5;" x1="108.2" x2="230.2" y1="189.6406" y2="189.6406"/><text fill="#000000" font-family="sans-serif" font-size="14" lengthAdjust="spacing" textLength="73" x="113.2" y="206.3145">designation</text><text fill="#000000" font-family="sans-serif" font-size="14" lengthAdjust="spacing" textLength="33" x="113.2" y="221.9551">email</text><text fill="#000000" font-family="sans-serif" font-size="14" lengthAdjust="spacing" textLength="51" x="113.2" y="237.5957">address</text><text fill="#000000" font-family="sans-serif" font-size="14" lengthAdjust="spacing" textLength="112" x="113.2" y="253.2363">telephoneNumber</text></g><!--class Store--><g id="elem_Store"><rect codeLine="23" fill="#F1F1F1" height="80.5625" id="Store" rx="2.5" ry="2.5" style="stroke:#181818;stroke-width:0.5;" width="100" x="192.2" y="336"/><text fill="#000000" font-family="sans-serif" font-size="14" lengthAdjust="spacing" textLength="34" x="225.2" y="353.6738">Store</text><line style="stroke:#181818;stroke-width:0.5;" x1="193.2" x2="291.2" y1="361.6406" y2="361.6406"/><text fill="#000000" font-family="sans-serif" font-size="14" lengthAdjust="spacing" textLength="73" x="198.2" y="378.3145">designation</text><text fill="#000000" font-family="sans-serif" font-size="14" lengthAdjust="spacing" textLength="51" x="198.2" y="393.9551">address</text><text fill="#000000" font-family="sans-serif" font-size="14" lengthAdjust="spacing" textLength="88" x="198.2" y="409.5957">storeManager</text></g><!--class State--><g id="elem_State"><rect codeLine="29" fill="#F1F1F1" height="33.6406" id="State" rx="2.5" ry="2.5" style="stroke:#181818;stroke-width:0.5;" width="39" x="36.7" y="493"/><text fill="#000000" font-family="sans-serif" font-size="14" lengthAdjust="spacing" textLength="33" x="39.7" y="510.6738">State</text><line style="stroke:#181818;stroke-width:0.5;" x1="37.7" x2="74.7" y1="518.6406" y2="518.6406"/></g><!--class District--><g id="elem_District"><rect codeLine="31" fill="#F1F1F1" height="33.6406" id="District" rx="2.5" ry="2.5" style="stroke:#181818;stroke-width:0.5;" width="49" x="363.7" y="493"/><text fill="#000000" font-family="sans-serif" font-size="14" lengthAdjust="spacing" textLength="43" x="366.7" y="510.6738">District</text><line style="stroke:#181818;stroke-width:0.5;" x1="364.7" x2="411.7" y1="518.6406" y2="518.6406"/></g><!--class City--><g id="elem_City"><rect codeLine="33" fill="#F1F1F1" height="33.6406" id="City" rx="2.5" ry="2.5" style="stroke:#181818;stroke-width:0.5;" width="30" x="172.2" y="493"/><text fill="#000000" font-family="sans-serif" font-size="14" lengthAdjust="spacing" textLength="24" x="175.2" y="510.6738">City</text><line style="stroke:#181818;stroke-width:0.5;" x1="173.2" x2="201.2" y1="518.6406" y2="518.6406"/></g><!--link System Administrator to Store Network--><g id="link_System Administrator_Store Network"><path codeLine="35" d="M169.2,88.25 C169.2,111.08 169.2,139.89 169.2,163.86 " fill="none" id="System Administrator-Store Network" style="stroke:#181818;stroke-width:1.0;"/><polygon fill="#000000" points="174.2,131.2617,177.1389,122.2166,171.2611,122.2166,174.2,131.2617" style="stroke:#000000;stroke-width:1.0;"/><text fill="#000000" font-family="sans-serif" font-size="13" lengthAdjust="spacing" textLength="21" x="183.2" y="130.7686">has</text><text fill="#000000" font-family="sans-serif" font-size="13" lengthAdjust="spacing" textLength="7" x="161.6641" y="107.4038">1</text><text fill="#000000" font-family="sans-serif" font-size="13" lengthAdjust="spacing" textLength="5" x="163.8172" y="153.2098">*</text></g><!--link Store Network to Store--><g id="link_Store Network_Store"><path codeLine="36" d="M190.32,260 C201.1,284 214.07,312.87 224.34,335.75 " fill="none" id="Store Network-Store" style="stroke:#181818;stroke-width:1.0;"/><polygon fill="#000000" points="216.2484,302.8228,215.2237,293.3676,209.8618,295.7757,216.2484,302.8228" style="stroke:#000000;stroke-width:1.0;"/><text fill="#000000" font-family="sans-serif" font-size="13" lengthAdjust="spacing" textLength="21" x="223.2" y="302.7686">has</text><text fill="#000000" font-family="sans-serif" font-size="13" lengthAdjust="spacing" textLength="7" x="185.9079" y="279.8702">1</text><text fill="#000000" font-family="sans-serif" font-size="13" lengthAdjust="spacing" textLength="5" x="215.7134" y="325.0987">*</text></g><!--link Store Network to State--><g id="link_Store Network_State"><path codeLine="37" d="M107,250.14 C77.88,271.27 46.15,300.6 30.2,336 C6,389.72 33.41,461.37 48.11,492.93 " fill="none" id="Store Network-State" style="stroke:#181818;stroke-width:1.0;"/><polygon fill="#000000" points="34.0214,381.6208,39.0096,373.5234,33.2974,372.1379,34.0214,381.6208" style="stroke:#000000;stroke-width:1.0;"/><text fill="#000000" font-family="sans-serif" font-size="13" lengthAdjust="spacing" textLength="44" x="44.2" y="381.2686">Selects</text><text fill="#000000" font-family="sans-serif" font-size="13" lengthAdjust="spacing" textLength="7" x="92.4034" y="251.5276">1</text><text fill="#000000" font-family="sans-serif" font-size="13" lengthAdjust="spacing" textLength="5" x="39.3373" y="482.2809">*</text></g><!--link Store Network to District--><g id="link_Store Network_District"><path codeLine="38" d="M231.36,251.54 C289.54,291.89 372.04,361.28 403.2,447 C408.73,462.2 403.07,480.22 397.19,492.91 " fill="none" id="Store Network-District" style="stroke:#181818;stroke-width:1.0;"/><polygon fill="#000000" points="397.0313,380.8828,394.3317,371.7635,389.4871,375.0919,397.0313,380.8828" style="stroke:#000000;stroke-width:1.0;"/><text fill="#000000" font-family="sans-serif" font-size="13" lengthAdjust="spacing" textLength="44" x="403.2" y="381.2686">Selects</text><text fill="#000000" font-family="sans-serif" font-size="13" lengthAdjust="spacing" textLength="7" x="239.3623" y="253.2939">1</text><text fill="#000000" font-family="sans-serif" font-size="13" lengthAdjust="spacing" textLength="5" x="394.5021" y="482.2537">*</text></g><!--link Store Network to City--><g id="link_Store Network_City"><path codeLine="39" d="M140,260.04 C111.53,312.51 77.33,398.47 113.2,463 C125.69,485.48 154.23,498.39 171.99,504.52 " fill="none" id="Store Network-City" style="stroke:#181818;stroke-width:1.0;"/><polygon fill="#000000" points="111.8487,381.7195,113.5893,372.3695,107.7611,373.1321,111.8487,381.7195" style="stroke:#000000;stroke-width:1.0;"/><text fill="#000000" font-family="sans-serif" font-size="13" lengthAdjust="spacing" textLength="44" x="120.2" y="381.2686">Selects</text><text fill="#000000" font-family="sans-serif" font-size="13" lengthAdjust="spacing" textLength="7" x="128.1972" y="279.9161">1</text><text fill="#000000" font-family="sans-serif" font-size="13" lengthAdjust="spacing" textLength="5" x="159.2419" y="497.0217">*</text></g><!--link Store to State--><g id="link_Store_State"><path codeLine="40" d="M191.98,412.15 C176.02,423.23 158.34,435.58 142.2,447 C119.37,463.16 93.33,481.99 75.94,494.62 " fill="none" id="Store-State" style="stroke:#181818;stroke-width:1.0;"/><polygon fill="#000000" points="143.1244,458.1582,152.1997,455.3139,148.7947,450.5228,143.1244,458.1582" style="stroke:#000000;stroke-width:1.0;"/><text fill="#000000" font-family="sans-serif" font-size="13" lengthAdjust="spacing" textLength="44" x="156.2" y="459.7686">Selects</text><text fill="#000000" font-family="sans-serif" font-size="13" lengthAdjust="spacing" textLength="7" x="177.0899" y="414.1971">1</text><text fill="#000000" font-family="sans-serif" font-size="13" lengthAdjust="spacing" textLength="5" x="83.585" y="484.8472">*</text></g><!--link Store to District--><g id="link_Store_District"><path codeLine="41" d="M286.4,417.31 C314.6,442.71 349.63,474.26 370.38,492.95 " fill="none" id="Store-District" style="stroke:#181818;stroke-width:1.0;"/><polygon fill="#000000" points="344.9152,458.608,340.1612,450.3708,336.2275,454.7383,344.9152,458.608" style="stroke:#000000;stroke-width:1.0;"/><text fill="#000000" font-family="sans-serif" font-size="13" lengthAdjust="spacing" textLength="44" x="350.2" y="459.7686">Selects</text><text fill="#000000" font-family="sans-serif" font-size="13" lengthAdjust="spacing" textLength="7" x="285.6322" y="436.473">1</text><text fill="#000000" font-family="sans-serif" font-size="13" lengthAdjust="spacing" textLength="5" x="358.141" y="482.308">*</text></g><!--link Store to City--><g id="link_Store_City"><path codeLine="42" d="M227.56,417.35 C222.04,431.82 215.57,448.24 209.2,463 C204.85,473.08 199.56,484.19 195.25,492.96 " fill="none" id="Store-City" style="stroke:#181818;stroke-width:1.0;"/><polygon fill="#000000" points="217.2352,459.8595,223.492,452.6969,218.087,450.3872,217.2352,459.8595" style="stroke:#000000;stroke-width:1.0;"/><text fill="#000000" font-family="sans-serif" font-size="13" lengthAdjust="spacing" textLength="44" x="228.2" y="459.7686">Selects</text><text fill="#000000" font-family="sans-serif" font-size="13" lengthAdjust="spacing" textLength="7" x="217.8957" y="436.2171">1</text><text fill="#000000" font-family="sans-serif" font-size="13" lengthAdjust="spacing" textLength="5" x="192.2272" y="482.3216">*</text></g><!--SRC=[ZP3FJiCm3CRlUGghHwH9SDq1QO8B1tRf4tY9QQqsoHHxcZR4kvEseeHrm7Bodz_tERPq7FQOq8EF8TesHK-WwK16viuUROSDrNhg2H9PnT3q9I0jkdZaqC0RzaAcQDaUHJQgYNS7fHSRGyrdWdjZMdO4bfFDLcFiITlen9XH0rLz4YKF6-Svi6X2ZQc2TmFvxTiOQ7lmEqfZJXwvdpfPUup9cOzleomas9BcUlVbu4Yu2QWSmuK3EfT8P8oLUYfdpQQJvtMhqa06xXL3ljyFDMfMp_dpi1zRBKfFhASn_UKErKC5gnLKTzLYmJMqAF1eBkk5PEhS10u_NKET3s7r7tXUuqP-tB5a9_JFyGlawj05jHZr2G00]--></g></svg>