<?xml version="1.0" encoding="us-ascii" standalone="no"?><svg xmlns="http://www.w3.org/2000/svg" xmlns:xlink="http://www.w3.org/1999/xlink" contentStyleType="text/css" height="637px" preserveAspectRatio="none" style="width:1324px;height:637px;background:#FFFFFF;" version="1.1" viewBox="0 0 1324 637" width="1324px" zoomAndPan="magnify"><defs/><g><!--class Owner--><g id="elem_Owner"><rect codeLine="8" fill="#F1F1F1" height="79.2813" id="Owner" rx="2.5" ry="2.5" style="stroke:#181818;stroke-width:0.5;" width="98" x="260.5" y="7"/><ellipse cx="286.75" cy="23" fill="#ADD1B2" rx="11" ry="11" style="stroke:#181818;stroke-width:1.0;"/><path d="M289.5156,18.875 Q289.6719,18.6563 289.8594,18.5469 Q290.0469,18.4375 290.2656,18.4375 Q290.6406,18.4375 290.875,18.7031 Q291.1094,18.9531 291.1094,19.5625 L291.1094,21.0156 Q291.1094,21.625 290.875,21.8906 Q290.6406,22.1563 290.2656,22.1563 Q289.9219,22.1563 289.7188,21.9531 Q289.5156,21.7656 289.4063,21.25 Q289.3594,20.8906 289.1719,20.7031 Q288.8438,20.3281 288.2344,20.1094 Q287.625,19.8906 287,19.8906 Q286.2344,19.8906 285.5938,20.2188 Q284.9688,20.5469 284.4688,21.2969 Q283.9844,22.0469 283.9844,23.0781 L283.9844,24.1719 Q283.9844,25.4063 284.875,26.2344 Q285.7656,27.0469 287.3594,27.0469 Q288.2969,27.0469 288.9531,26.7969 Q289.3438,26.6406 289.7656,26.2031 Q290.0313,25.9375 290.1719,25.8594 Q290.3281,25.7813 290.5313,25.7813 Q290.8594,25.7813 291.1094,26.0469 Q291.375,26.2969 291.375,26.6406 Q291.375,26.9844 291.0313,27.3906 Q290.5313,27.9688 289.7344,28.2969 Q288.6563,28.75 287.3594,28.75 Q285.8438,28.75 284.6406,28.125 Q283.6563,27.625 282.9688,26.5625 Q282.2813,25.4844 282.2813,24.2031 L282.2813,23.0469 Q282.2813,21.7188 282.8906,20.5781 Q283.5156,19.4219 284.6094,18.8125 Q285.7031,18.1875 286.9375,18.1875 Q287.6719,18.1875 288.3125,18.3594 Q288.9688,18.5156 289.5156,18.875 Z " fill="#000000"/><text fill="#000000" font-family="sans-serif" font-size="14" lengthAdjust="spacing" textLength="41" x="303.25" y="27.8535">Owner</text><line style="stroke:#181818;stroke-width:0.5;" x1="261.5" x2="357.5" y1="39" y2="39"/><text fill="#000000" font-family="sans-serif" font-size="14" lengthAdjust="spacing" textLength="79" x="266.5" y="55.6738">-String email</text><text fill="#000000" font-family="sans-serif" font-size="14" lengthAdjust="spacing" textLength="86" x="266.5" y="71.3145">-String phone</text><line style="stroke:#181818;stroke-width:0.5;" x1="261.5" x2="357.5" y1="78.2813" y2="78.2813"/></g><!--class CreateRequestUI--><g id="elem_CreateRequestUI"><rect codeLine="60" fill="#F1F1F1" height="63.6406" id="CreateRequestUI" rx="2.5" ry="2.5" style="stroke:#181818;stroke-width:0.5;" width="140" x="643.5" y="14.5"/><ellipse cx="658.5" cy="30.5" fill="#ADD1B2" rx="11" ry="11" style="stroke:#181818;stroke-width:1.0;"/><path d="M661.2656,26.375 Q661.4219,26.1563 661.6094,26.0469 Q661.7969,25.9375 662.0156,25.9375 Q662.3906,25.9375 662.625,26.2031 Q662.8594,26.4531 662.8594,27.0625 L662.8594,28.5156 Q662.8594,29.125 662.625,29.3906 Q662.3906,29.6563 662.0156,29.6563 Q661.6719,29.6563 661.4688,29.4531 Q661.2656,29.2656 661.1563,28.75 Q661.1094,28.3906 660.9219,28.2031 Q660.5938,27.8281 659.9844,27.6094 Q659.375,27.3906 658.75,27.3906 Q657.9844,27.3906 657.3438,27.7188 Q656.7188,28.0469 656.2188,28.7969 Q655.7344,29.5469 655.7344,30.5781 L655.7344,31.6719 Q655.7344,32.9063 656.625,33.7344 Q657.5156,34.5469 659.1094,34.5469 Q660.0469,34.5469 660.7031,34.2969 Q661.0938,34.1406 661.5156,33.7031 Q661.7813,33.4375 661.9219,33.3594 Q662.0781,33.2813 662.2813,33.2813 Q662.6094,33.2813 662.8594,33.5469 Q663.125,33.7969 663.125,34.1406 Q663.125,34.4844 662.7813,34.8906 Q662.2813,35.4688 661.4844,35.7969 Q660.4063,36.25 659.1094,36.25 Q657.5938,36.25 656.3906,35.625 Q655.4063,35.125 654.7188,34.0625 Q654.0313,32.9844 654.0313,31.7031 L654.0313,30.5469 Q654.0313,29.2188 654.6406,28.0781 Q655.2656,26.9219 656.3594,26.3125 Q657.4531,25.6875 658.6875,25.6875 Q659.4219,25.6875 660.0625,25.8594 Q660.7188,26.0156 661.2656,26.375 Z " fill="#000000"/><text fill="#000000" font-family="sans-serif" font-size="14" lengthAdjust="spacing" textLength="108" x="672.5" y="35.3535">CreateRequestUI</text><line style="stroke:#181818;stroke-width:0.5;" x1="644.5" x2="782.5" y1="46.5" y2="46.5"/><line style="stroke:#181818;stroke-width:0.5;" x1="644.5" x2="782.5" y1="54.5" y2="54.5"/><text fill="#000000" font-family="sans-serif" font-size="14" lengthAdjust="spacing" textLength="82" x="649.5" y="71.1738">+getAgents()</text></g><!--class CreateRequestController--><g id="elem_CreateRequestController"><rect codeLine="64" fill="#F1F1F1" height="126.2031" id="CreateRequestController" rx="2.5" ry="2.5" style="stroke:#181818;stroke-width:0.5;" width="520" x="453.5" y="170"/><ellipse cx="630.25" cy="186" fill="#ADD1B2" rx="11" ry="11" style="stroke:#181818;stroke-width:1.0;"/><path d="M633.0156,181.875 Q633.1719,181.6563 633.3594,181.5469 Q633.5469,181.4375 633.7656,181.4375 Q634.1406,181.4375 634.375,181.7031 Q634.6094,181.9531 634.6094,182.5625 L634.6094,184.0156 Q634.6094,184.625 634.375,184.8906 Q634.1406,185.1563 633.7656,185.1563 Q633.4219,185.1563 633.2188,184.9531 Q633.0156,184.7656 632.9063,184.25 Q632.8594,183.8906 632.6719,183.7031 Q632.3438,183.3281 631.7344,183.1094 Q631.125,182.8906 630.5,182.8906 Q629.7344,182.8906 629.0938,183.2188 Q628.4688,183.5469 627.9688,184.2969 Q627.4844,185.0469 627.4844,186.0781 L627.4844,187.1719 Q627.4844,188.4063 628.375,189.2344 Q629.2656,190.0469 630.8594,190.0469 Q631.7969,190.0469 632.4531,189.7969 Q632.8438,189.6406 633.2656,189.2031 Q633.5313,188.9375 633.6719,188.8594 Q633.8281,188.7813 634.0313,188.7813 Q634.3594,188.7813 634.6094,189.0469 Q634.875,189.2969 634.875,189.6406 Q634.875,189.9844 634.5313,190.3906 Q634.0313,190.9688 633.2344,191.2969 Q632.1563,191.75 630.8594,191.75 Q629.3438,191.75 628.1406,191.125 Q627.1563,190.625 626.4688,189.5625 Q625.7813,188.4844 625.7813,187.2031 L625.7813,186.0469 Q625.7813,184.7188 626.3906,183.5781 Q627.0156,182.4219 628.1094,181.8125 Q629.2031,181.1875 630.4375,181.1875 Q631.1719,181.1875 631.8125,181.3594 Q632.4688,181.5156 633.0156,181.875 Z " fill="#000000"/><text fill="#000000" font-family="sans-serif" font-size="14" lengthAdjust="spacing" textLength="158" x="650.75" y="190.8535">CreateRequestController</text><line style="stroke:#181818;stroke-width:0.5;" x1="454.5" x2="972.5" y1="202" y2="202"/><line style="stroke:#181818;stroke-width:0.5;" x1="454.5" x2="972.5" y1="210" y2="210"/><text fill="#000000" font-family="sans-serif" font-size="14" lengthAdjust="spacing" textLength="82" x="459.5" y="226.6738">+getAgents()</text><text fill="#000000" font-family="sans-serif" font-size="14" lengthAdjust="spacing" textLength="150" x="459.5" y="242.3145">+getUserFromSession()</text><text fill="#000000" font-family="sans-serif" font-size="14" lengthAdjust="spacing" textLength="467" x="459.5" y="257.9551">+createLandRequest(adress, area, price, distanceFromCenter, city, state)</text><text fill="#000000" font-family="sans-serif" font-size="14" lengthAdjust="spacing" textLength="475" x="459.5" y="273.5957">+createHouseRequest(adress, area, price, distanceFromCenter, city, state)</text><text fill="#000000" font-family="sans-serif" font-size="14" lengthAdjust="spacing" textLength="508" x="459.5" y="289.2363">+createAppartmentRequest(adress, area, price, distanceFromCenter, city, state)</text></g><!--class RequestRepository--><g id="elem_RequestRepository"><rect codeLine="72" fill="#F1F1F1" height="94.9219" id="RequestRepository" rx="2.5" ry="2.5" style="stroke:#181818;stroke-width:0.5;" width="303" x="7" y="536"/><ellipse cx="93.75" cy="552" fill="#ADD1B2" rx="11" ry="11" style="stroke:#181818;stroke-width:1.0;"/><path d="M96.5156,547.875 Q96.6719,547.6563 96.8594,547.5469 Q97.0469,547.4375 97.2656,547.4375 Q97.6406,547.4375 97.875,547.7031 Q98.1094,547.9531 98.1094,548.5625 L98.1094,550.0156 Q98.1094,550.625 97.875,550.8906 Q97.6406,551.1563 97.2656,551.1563 Q96.9219,551.1563 96.7188,550.9531 Q96.5156,550.7656 96.4063,550.25 Q96.3594,549.8906 96.1719,549.7031 Q95.8438,549.3281 95.2344,549.1094 Q94.625,548.8906 94,548.8906 Q93.2344,548.8906 92.5938,549.2188 Q91.9688,549.5469 91.4688,550.2969 Q90.9844,551.0469 90.9844,552.0781 L90.9844,553.1719 Q90.9844,554.4063 91.875,555.2344 Q92.7656,556.0469 94.3594,556.0469 Q95.2969,556.0469 95.9531,555.7969 Q96.3438,555.6406 96.7656,555.2031 Q97.0313,554.9375 97.1719,554.8594 Q97.3281,554.7813 97.5313,554.7813 Q97.8594,554.7813 98.1094,555.0469 Q98.375,555.2969 98.375,555.6406 Q98.375,555.9844 98.0313,556.3906 Q97.5313,556.9688 96.7344,557.2969 Q95.6563,557.75 94.3594,557.75 Q92.8438,557.75 91.6406,557.125 Q90.6563,556.625 89.9688,555.5625 Q89.2813,554.4844 89.2813,553.2031 L89.2813,552.0469 Q89.2813,550.7188 89.8906,549.5781 Q90.5156,548.4219 91.6094,547.8125 Q92.7031,547.1875 93.9375,547.1875 Q94.6719,547.1875 95.3125,547.3594 Q95.9688,547.5156 96.5156,547.875 Z " fill="#000000"/><text fill="#000000" font-family="sans-serif" font-size="14" lengthAdjust="spacing" textLength="121" x="114.25" y="556.8535">RequestRepository</text><line style="stroke:#181818;stroke-width:0.5;" x1="8" x2="309" y1="568" y2="568"/><line style="stroke:#181818;stroke-width:0.5;" x1="8" x2="309" y1="576" y2="576"/><text fill="#000000" font-family="sans-serif" font-size="14" lengthAdjust="spacing" textLength="98" x="13" y="592.6738">+getInstances()</text><text fill="#000000" font-family="sans-serif" font-size="14" lengthAdjust="spacing" textLength="291" x="13" y="608.3145">+validateRequest(business, user, land, agent)</text><text fill="#000000" font-family="sans-serif" font-size="14" lengthAdjust="spacing" textLength="143" x="13" y="623.9551">+addRequest(request)</text></g><!--class EmployeeRepository--><g id="elem_EmployeeRepository"><rect codeLine="78" fill="#F1F1F1" height="63.6406" id="EmployeeRepository" rx="2.5" ry="2.5" style="stroke:#181818;stroke-width:0.5;" width="162" x="345.5" y="551.5"/><ellipse cx="360.5" cy="567.5" fill="#ADD1B2" rx="11" ry="11" style="stroke:#181818;stroke-width:1.0;"/><path d="M363.2656,563.375 Q363.4219,563.1563 363.6094,563.0469 Q363.7969,562.9375 364.0156,562.9375 Q364.3906,562.9375 364.625,563.2031 Q364.8594,563.4531 364.8594,564.0625 L364.8594,565.5156 Q364.8594,566.125 364.625,566.3906 Q364.3906,566.6563 364.0156,566.6563 Q363.6719,566.6563 363.4688,566.4531 Q363.2656,566.2656 363.1563,565.75 Q363.1094,565.3906 362.9219,565.2031 Q362.5938,564.8281 361.9844,564.6094 Q361.375,564.3906 360.75,564.3906 Q359.9844,564.3906 359.3438,564.7188 Q358.7188,565.0469 358.2188,565.7969 Q357.7344,566.5469 357.7344,567.5781 L357.7344,568.6719 Q357.7344,569.9063 358.625,570.7344 Q359.5156,571.5469 361.1094,571.5469 Q362.0469,571.5469 362.7031,571.2969 Q363.0938,571.1406 363.5156,570.7031 Q363.7813,570.4375 363.9219,570.3594 Q364.0781,570.2813 364.2813,570.2813 Q364.6094,570.2813 364.8594,570.5469 Q365.125,570.7969 365.125,571.1406 Q365.125,571.4844 364.7813,571.8906 Q364.2813,572.4688 363.4844,572.7969 Q362.4063,573.25 361.1094,573.25 Q359.5938,573.25 358.3906,572.625 Q357.4063,572.125 356.7188,571.0625 Q356.0313,569.9844 356.0313,568.7031 L356.0313,567.5469 Q356.0313,566.2188 356.6406,565.0781 Q357.2656,563.9219 358.3594,563.3125 Q359.4531,562.6875 360.6875,562.6875 Q361.4219,562.6875 362.0625,562.8594 Q362.7188,563.0156 363.2656,563.375 Z " fill="#000000"/><text fill="#000000" font-family="sans-serif" font-size="14" lengthAdjust="spacing" textLength="130" x="374.5" y="572.3535">EmployeeRepository</text><line style="stroke:#181818;stroke-width:0.5;" x1="346.5" x2="506.5" y1="583.5" y2="583.5"/><line style="stroke:#181818;stroke-width:0.5;" x1="346.5" x2="506.5" y1="591.5" y2="591.5"/><text fill="#000000" font-family="sans-serif" font-size="14" lengthAdjust="spacing" textLength="82" x="351.5" y="608.1738">+getAgents()</text></g><!--class Request--><g id="elem_Request"><rect codeLine="21" fill="#F1F1F1" height="141.8438" id="Request" rx="2.5" ry="2.5" style="stroke:#181818;stroke-width:0.5;" width="182" x="1008.5" y="162"/><ellipse cx="1068.75" cy="178" fill="#ADD1B2" rx="11" ry="11" style="stroke:#181818;stroke-width:1.0;"/><path d="M1071.5156,173.875 Q1071.6719,173.6563 1071.8594,173.5469 Q1072.0469,173.4375 1072.2656,173.4375 Q1072.6406,173.4375 1072.875,173.7031 Q1073.1094,173.9531 1073.1094,174.5625 L1073.1094,176.0156 Q1073.1094,176.625 1072.875,176.8906 Q1072.6406,177.1563 1072.2656,177.1563 Q1071.9219,177.1563 1071.7188,176.9531 Q1071.5156,176.7656 1071.4063,176.25 Q1071.3594,175.8906 1071.1719,175.7031 Q1070.8438,175.3281 1070.2344,175.1094 Q1069.625,174.8906 1069,174.8906 Q1068.2344,174.8906 1067.5938,175.2188 Q1066.9688,175.5469 1066.4688,176.2969 Q1065.9844,177.0469 1065.9844,178.0781 L1065.9844,179.1719 Q1065.9844,180.4063 1066.875,181.2344 Q1067.7656,182.0469 1069.3594,182.0469 Q1070.2969,182.0469 1070.9531,181.7969 Q1071.3438,181.6406 1071.7656,181.2031 Q1072.0313,180.9375 1072.1719,180.8594 Q1072.3281,180.7813 1072.5313,180.7813 Q1072.8594,180.7813 1073.1094,181.0469 Q1073.375,181.2969 1073.375,181.6406 Q1073.375,181.9844 1073.0313,182.3906 Q1072.5313,182.9688 1071.7344,183.2969 Q1070.6563,183.75 1069.3594,183.75 Q1067.8438,183.75 1066.6406,183.125 Q1065.6563,182.625 1064.9688,181.5625 Q1064.2813,180.4844 1064.2813,179.2031 L1064.2813,178.0469 Q1064.2813,176.7188 1064.8906,175.5781 Q1065.5156,174.4219 1066.6094,173.8125 Q1067.7031,173.1875 1068.9375,173.1875 Q1069.6719,173.1875 1070.3125,173.3594 Q1070.9688,173.5156 1071.5156,173.875 Z " fill="#000000"/><text fill="#000000" font-family="sans-serif" font-size="14" lengthAdjust="spacing" textLength="53" x="1089.25" y="182.8535">Request</text><line style="stroke:#181818;stroke-width:0.5;" x1="1009.5" x2="1189.5" y1="194" y2="194"/><text fill="#000000" font-family="sans-serif" font-size="14" lengthAdjust="spacing" textLength="89" x="1014.5" y="210.6738">-String adress</text><text fill="#000000" font-family="sans-serif" font-size="14" lengthAdjust="spacing" textLength="75" x="1014.5" y="226.3145">-String area</text><text fill="#000000" font-family="sans-serif" font-size="14" lengthAdjust="spacing" textLength="67" x="1014.5" y="241.9551">-String city</text><text fill="#000000" font-family="sans-serif" font-size="14" lengthAdjust="spacing" textLength="77" x="1014.5" y="257.5957">-String state</text><text fill="#000000" font-family="sans-serif" font-size="14" lengthAdjust="spacing" textLength="72" x="1014.5" y="273.2363">-Float price</text><text fill="#000000" font-family="sans-serif" font-size="14" lengthAdjust="spacing" textLength="170" x="1014.5" y="288.877">-Float distanceFromCenter</text><line style="stroke:#181818;stroke-width:0.5;" x1="1009.5" x2="1189.5" y1="295.8438" y2="295.8438"/></g><!--class land--><g id="elem_land"><rect codeLine="30" fill="#F1F1F1" height="48" id="land" rx="2.5" ry="2.5" style="stroke:#181818;stroke-width:0.5;" width="59" x="119" y="209"/><ellipse cx="134" cy="225" fill="#ADD1B2" rx="11" ry="11" style="stroke:#181818;stroke-width:1.0;"/><path d="M136.7656,220.875 Q136.9219,220.6563 137.1094,220.5469 Q137.2969,220.4375 137.5156,220.4375 Q137.8906,220.4375 138.125,220.7031 Q138.3594,220.9531 138.3594,221.5625 L138.3594,223.0156 Q138.3594,223.625 138.125,223.8906 Q137.8906,224.1563 137.5156,224.1563 Q137.1719,224.1563 136.9688,223.9531 Q136.7656,223.7656 136.6563,223.25 Q136.6094,222.8906 136.4219,222.7031 Q136.0938,222.3281 135.4844,222.1094 Q134.875,221.8906 134.25,221.8906 Q133.4844,221.8906 132.8438,222.2188 Q132.2188,222.5469 131.7188,223.2969 Q131.2344,224.0469 131.2344,225.0781 L131.2344,226.1719 Q131.2344,227.4063 132.125,228.2344 Q133.0156,229.0469 134.6094,229.0469 Q135.5469,229.0469 136.2031,228.7969 Q136.5938,228.6406 137.0156,228.2031 Q137.2813,227.9375 137.4219,227.8594 Q137.5781,227.7813 137.7813,227.7813 Q138.1094,227.7813 138.3594,228.0469 Q138.625,228.2969 138.625,228.6406 Q138.625,228.9844 138.2813,229.3906 Q137.7813,229.9688 136.9844,230.2969 Q135.9063,230.75 134.6094,230.75 Q133.0938,230.75 131.8906,230.125 Q130.9063,229.625 130.2188,228.5625 Q129.5313,227.4844 129.5313,226.2031 L129.5313,225.0469 Q129.5313,223.7188 130.1406,222.5781 Q130.7656,221.4219 131.8594,220.8125 Q132.9531,220.1875 134.1875,220.1875 Q134.9219,220.1875 135.5625,220.3594 Q136.2188,220.5156 136.7656,220.875 Z " fill="#000000"/><text fill="#000000" font-family="sans-serif" font-size="14" lengthAdjust="spacing" textLength="27" x="148" y="229.8535">land</text><line style="stroke:#181818;stroke-width:0.5;" x1="120" x2="177" y1="241" y2="241"/><line style="stroke:#181818;stroke-width:0.5;" x1="120" x2="177" y1="249" y2="249"/></g><!--class Repositories--><g id="elem_Repositories"><rect codeLine="32" fill="#F1F1F1" height="94.9219" id="Repositories" rx="2.5" ry="2.5" style="stroke:#181818;stroke-width:0.5;" width="194" x="329.5" y="380"/><ellipse cx="382.75" cy="396" fill="#ADD1B2" rx="11" ry="11" style="stroke:#181818;stroke-width:1.0;"/><path d="M385.5156,391.875 Q385.6719,391.6563 385.8594,391.5469 Q386.0469,391.4375 386.2656,391.4375 Q386.6406,391.4375 386.875,391.7031 Q387.1094,391.9531 387.1094,392.5625 L387.1094,394.0156 Q387.1094,394.625 386.875,394.8906 Q386.6406,395.1563 386.2656,395.1563 Q385.9219,395.1563 385.7188,394.9531 Q385.5156,394.7656 385.4063,394.25 Q385.3594,393.8906 385.1719,393.7031 Q384.8438,393.3281 384.2344,393.1094 Q383.625,392.8906 383,392.8906 Q382.2344,392.8906 381.5938,393.2188 Q380.9688,393.5469 380.4688,394.2969 Q379.9844,395.0469 379.9844,396.0781 L379.9844,397.1719 Q379.9844,398.4063 380.875,399.2344 Q381.7656,400.0469 383.3594,400.0469 Q384.2969,400.0469 384.9531,399.7969 Q385.3438,399.6406 385.7656,399.2031 Q386.0313,398.9375 386.1719,398.8594 Q386.3281,398.7813 386.5313,398.7813 Q386.8594,398.7813 387.1094,399.0469 Q387.375,399.2969 387.375,399.6406 Q387.375,399.9844 387.0313,400.3906 Q386.5313,400.9688 385.7344,401.2969 Q384.6563,401.75 383.3594,401.75 Q381.8438,401.75 380.6406,401.125 Q379.6563,400.625 378.9688,399.5625 Q378.2813,398.4844 378.2813,397.2031 L378.2813,396.0469 Q378.2813,394.7188 378.8906,393.5781 Q379.5156,392.4219 380.6094,391.8125 Q381.7031,391.1875 382.9375,391.1875 Q383.6719,391.1875 384.3125,391.3594 Q384.9688,391.5156 385.5156,391.875 Z " fill="#000000"/><text fill="#000000" font-family="sans-serif" font-size="14" lengthAdjust="spacing" textLength="79" x="403.25" y="400.8535">Repositories</text><line style="stroke:#181818;stroke-width:0.5;" x1="330.5" x2="522.5" y1="412" y2="412"/><text fill="#000000" font-family="sans-serif" font-size="14" lengthAdjust="spacing" textLength="84" x="335.5" y="428.6738">-Repositories</text><line style="stroke:#181818;stroke-width:0.5;" x1="330.5" x2="522.5" y1="435.6406" y2="435.6406"/><text fill="#000000" font-family="sans-serif" font-size="14" lengthAdjust="spacing" textLength="182" x="335.5" y="452.3145">+getInstance() : Repositories</text><text fill="#000000" font-family="sans-serif" font-size="14" lengthAdjust="spacing" textLength="135" x="335.5" y="467.9551">+getUserRepository()</text></g><!--class House--><g id="elem_House"><rect codeLine="41" fill="#F1F1F1" height="48" id="House" rx="2.5" ry="2.5" style="stroke:#181818;stroke-width:0.5;" width="72" x="213.5" y="209"/><ellipse cx="228.5" cy="225" fill="#ADD1B2" rx="11" ry="11" style="stroke:#181818;stroke-width:1.0;"/><path d="M231.2656,220.875 Q231.4219,220.6563 231.6094,220.5469 Q231.7969,220.4375 232.0156,220.4375 Q232.3906,220.4375 232.625,220.7031 Q232.8594,220.9531 232.8594,221.5625 L232.8594,223.0156 Q232.8594,223.625 232.625,223.8906 Q232.3906,224.1563 232.0156,224.1563 Q231.6719,224.1563 231.4688,223.9531 Q231.2656,223.7656 231.1563,223.25 Q231.1094,222.8906 230.9219,222.7031 Q230.5938,222.3281 229.9844,222.1094 Q229.375,221.8906 228.75,221.8906 Q227.9844,221.8906 227.3438,222.2188 Q226.7188,222.5469 226.2188,223.2969 Q225.7344,224.0469 225.7344,225.0781 L225.7344,226.1719 Q225.7344,227.4063 226.625,228.2344 Q227.5156,229.0469 229.1094,229.0469 Q230.0469,229.0469 230.7031,228.7969 Q231.0938,228.6406 231.5156,228.2031 Q231.7813,227.9375 231.9219,227.8594 Q232.0781,227.7813 232.2813,227.7813 Q232.6094,227.7813 232.8594,228.0469 Q233.125,228.2969 233.125,228.6406 Q233.125,228.9844 232.7813,229.3906 Q232.2813,229.9688 231.4844,230.2969 Q230.4063,230.75 229.1094,230.75 Q227.5938,230.75 226.3906,230.125 Q225.4063,229.625 224.7188,228.5625 Q224.0313,227.4844 224.0313,226.2031 L224.0313,225.0469 Q224.0313,223.7188 224.6406,222.5781 Q225.2656,221.4219 226.3594,220.8125 Q227.4531,220.1875 228.6875,220.1875 Q229.4219,220.1875 230.0625,220.3594 Q230.7188,220.5156 231.2656,220.875 Z " fill="#000000"/><text fill="#000000" font-family="sans-serif" font-size="14" lengthAdjust="spacing" textLength="40" x="242.5" y="229.8535">House</text><line style="stroke:#181818;stroke-width:0.5;" x1="214.5" x2="284.5" y1="241" y2="241"/><line style="stroke:#181818;stroke-width:0.5;" x1="214.5" x2="284.5" y1="249" y2="249"/></g><!--class Apartment--><g id="elem_Apartment"><rect codeLine="43" fill="#F1F1F1" height="48" id="Apartment" rx="2.5" ry="2.5" style="stroke:#181818;stroke-width:0.5;" width="97" x="321" y="209"/><ellipse cx="336" cy="225" fill="#ADD1B2" rx="11" ry="11" style="stroke:#181818;stroke-width:1.0;"/><path d="M338.7656,220.875 Q338.9219,220.6563 339.1094,220.5469 Q339.2969,220.4375 339.5156,220.4375 Q339.8906,220.4375 340.125,220.7031 Q340.3594,220.9531 340.3594,221.5625 L340.3594,223.0156 Q340.3594,223.625 340.125,223.8906 Q339.8906,224.1563 339.5156,224.1563 Q339.1719,224.1563 338.9688,223.9531 Q338.7656,223.7656 338.6563,223.25 Q338.6094,222.8906 338.4219,222.7031 Q338.0938,222.3281 337.4844,222.1094 Q336.875,221.8906 336.25,221.8906 Q335.4844,221.8906 334.8438,222.2188 Q334.2188,222.5469 333.7188,223.2969 Q333.2344,224.0469 333.2344,225.0781 L333.2344,226.1719 Q333.2344,227.4063 334.125,228.2344 Q335.0156,229.0469 336.6094,229.0469 Q337.5469,229.0469 338.2031,228.7969 Q338.5938,228.6406 339.0156,228.2031 Q339.2813,227.9375 339.4219,227.8594 Q339.5781,227.7813 339.7813,227.7813 Q340.1094,227.7813 340.3594,228.0469 Q340.625,228.2969 340.625,228.6406 Q340.625,228.9844 340.2813,229.3906 Q339.7813,229.9688 338.9844,230.2969 Q337.9063,230.75 336.6094,230.75 Q335.0938,230.75 333.8906,230.125 Q332.9063,229.625 332.2188,228.5625 Q331.5313,227.4844 331.5313,226.2031 L331.5313,225.0469 Q331.5313,223.7188 332.1406,222.5781 Q332.7656,221.4219 333.8594,220.8125 Q334.9531,220.1875 336.1875,220.1875 Q336.9219,220.1875 337.5625,220.3594 Q338.2188,220.5156 338.7656,220.875 Z " fill="#000000"/><text fill="#000000" font-family="sans-serif" font-size="14" lengthAdjust="spacing" textLength="65" x="350" y="229.8535">Apartment</text><line style="stroke:#181818;stroke-width:0.5;" x1="322" x2="417" y1="241" y2="241"/><line style="stroke:#181818;stroke-width:0.5;" x1="322" x2="417" y1="249" y2="249"/></g><!--class UserRepository--><g id="elem_UserRepository"><rect codeLine="45" fill="#F1F1F1" height="79.2813" id="UserRepository" rx="2.5" ry="2.5" style="stroke:#181818;stroke-width:0.5;" width="129" x="543" y="544"/><ellipse cx="558" cy="560" fill="#ADD1B2" rx="11" ry="11" style="stroke:#181818;stroke-width:1.0;"/><path d="M560.7656,555.875 Q560.9219,555.6563 561.1094,555.5469 Q561.2969,555.4375 561.5156,555.4375 Q561.8906,555.4375 562.125,555.7031 Q562.3594,555.9531 562.3594,556.5625 L562.3594,558.0156 Q562.3594,558.625 562.125,558.8906 Q561.8906,559.1563 561.5156,559.1563 Q561.1719,559.1563 560.9688,558.9531 Q560.7656,558.7656 560.6563,558.25 Q560.6094,557.8906 560.4219,557.7031 Q560.0938,557.3281 559.4844,557.1094 Q558.875,556.8906 558.25,556.8906 Q557.4844,556.8906 556.8438,557.2188 Q556.2188,557.5469 555.7188,558.2969 Q555.2344,559.0469 555.2344,560.0781 L555.2344,561.1719 Q555.2344,562.4063 556.125,563.2344 Q557.0156,564.0469 558.6094,564.0469 Q559.5469,564.0469 560.2031,563.7969 Q560.5938,563.6406 561.0156,563.2031 Q561.2813,562.9375 561.4219,562.8594 Q561.5781,562.7813 561.7813,562.7813 Q562.1094,562.7813 562.3594,563.0469 Q562.625,563.2969 562.625,563.6406 Q562.625,563.9844 562.2813,564.3906 Q561.7813,564.9688 560.9844,565.2969 Q559.9063,565.75 558.6094,565.75 Q557.0938,565.75 555.8906,565.125 Q554.9063,564.625 554.2188,563.5625 Q553.5313,562.4844 553.5313,561.2031 L553.5313,560.0469 Q553.5313,558.7188 554.1406,557.5781 Q554.7656,556.4219 555.8594,555.8125 Q556.9531,555.1875 558.1875,555.1875 Q558.9219,555.1875 559.5625,555.3594 Q560.2188,555.5156 560.7656,555.875 Z " fill="#000000"/><text fill="#000000" font-family="sans-serif" font-size="14" lengthAdjust="spacing" textLength="97" x="572" y="564.8535">UserRepository</text><line style="stroke:#181818;stroke-width:0.5;" x1="544" x2="671" y1="576" y2="576"/><text fill="#000000" font-family="sans-serif" font-size="14" lengthAdjust="spacing" textLength="33" x="549" y="592.6738">-user</text><line style="stroke:#181818;stroke-width:0.5;" x1="544" x2="671" y1="599.6406" y2="599.6406"/><text fill="#000000" font-family="sans-serif" font-size="14" lengthAdjust="spacing" textLength="101" x="549" y="616.3145">+getUserEmail()</text></g><!--class ApplicationSession--><g id="elem_ApplicationSession"><rect codeLine="88" fill="#F1F1F1" height="94.9219" id="ApplicationSession" rx="2.5" ry="2.5" style="stroke:#181818;stroke-width:0.5;" width="151" x="638" y="380"/><ellipse cx="653" cy="396" fill="#ADD1B2" rx="11" ry="11" style="stroke:#181818;stroke-width:1.0;"/><path d="M655.7656,391.875 Q655.9219,391.6563 656.1094,391.5469 Q656.2969,391.4375 656.5156,391.4375 Q656.8906,391.4375 657.125,391.7031 Q657.3594,391.9531 657.3594,392.5625 L657.3594,394.0156 Q657.3594,394.625 657.125,394.8906 Q656.8906,395.1563 656.5156,395.1563 Q656.1719,395.1563 655.9688,394.9531 Q655.7656,394.7656 655.6563,394.25 Q655.6094,393.8906 655.4219,393.7031 Q655.0938,393.3281 654.4844,393.1094 Q653.875,392.8906 653.25,392.8906 Q652.4844,392.8906 651.8438,393.2188 Q651.2188,393.5469 650.7188,394.2969 Q650.2344,395.0469 650.2344,396.0781 L650.2344,397.1719 Q650.2344,398.4063 651.125,399.2344 Q652.0156,400.0469 653.6094,400.0469 Q654.5469,400.0469 655.2031,399.7969 Q655.5938,399.6406 656.0156,399.2031 Q656.2813,398.9375 656.4219,398.8594 Q656.5781,398.7813 656.7813,398.7813 Q657.1094,398.7813 657.3594,399.0469 Q657.625,399.2969 657.625,399.6406 Q657.625,399.9844 657.2813,400.3906 Q656.7813,400.9688 655.9844,401.2969 Q654.9063,401.75 653.6094,401.75 Q652.0938,401.75 650.8906,401.125 Q649.9063,400.625 649.2188,399.5625 Q648.5313,398.4844 648.5313,397.2031 L648.5313,396.0469 Q648.5313,394.7188 649.1406,393.5781 Q649.7656,392.4219 650.8594,391.8125 Q651.9531,391.1875 653.1875,391.1875 Q653.9219,391.1875 654.5625,391.3594 Q655.2188,391.5156 655.7656,391.875 Z " fill="#000000"/><text fill="#000000" font-family="sans-serif" font-size="14" lengthAdjust="spacing" textLength="119" x="667" y="400.8535">ApplicationSession</text><line style="stroke:#181818;stroke-width:0.5;" x1="639" x2="788" y1="412" y2="412"/><text fill="#000000" font-family="sans-serif" font-size="14" lengthAdjust="spacing" textLength="79" x="644" y="428.6738">-appSession</text><line style="stroke:#181818;stroke-width:0.5;" x1="639" x2="788" y1="435.6406" y2="435.6406"/><text fill="#000000" font-family="sans-serif" font-size="14" lengthAdjust="spacing" textLength="136" x="644" y="452.3145">+getCurrentSession()</text><text fill="#000000" font-family="sans-serif" font-size="14" lengthAdjust="spacing" textLength="91" x="644" y="467.9551">+getInstance()</text></g><!--class User--><g id="elem_User"><rect codeLine="52" fill="#F1F1F1" height="63.6406" id="User" rx="2.5" ry="2.5" style="stroke:#181818;stroke-width:0.5;" width="91" x="96" y="14.5"/><ellipse cx="124.5" cy="30.5" fill="#ADD1B2" rx="11" ry="11" style="stroke:#181818;stroke-width:1.0;"/><path d="M127.2656,26.375 Q127.4219,26.1563 127.6094,26.0469 Q127.7969,25.9375 128.0156,25.9375 Q128.3906,25.9375 128.625,26.2031 Q128.8594,26.4531 128.8594,27.0625 L128.8594,28.5156 Q128.8594,29.125 128.625,29.3906 Q128.3906,29.6563 128.0156,29.6563 Q127.6719,29.6563 127.4688,29.4531 Q127.2656,29.2656 127.1563,28.75 Q127.1094,28.3906 126.9219,28.2031 Q126.5938,27.8281 125.9844,27.6094 Q125.375,27.3906 124.75,27.3906 Q123.9844,27.3906 123.3438,27.7188 Q122.7188,28.0469 122.2188,28.7969 Q121.7344,29.5469 121.7344,30.5781 L121.7344,31.6719 Q121.7344,32.9063 122.625,33.7344 Q123.5156,34.5469 125.1094,34.5469 Q126.0469,34.5469 126.7031,34.2969 Q127.0938,34.1406 127.5156,33.7031 Q127.7813,33.4375 127.9219,33.3594 Q128.0781,33.2813 128.2813,33.2813 Q128.6094,33.2813 128.8594,33.5469 Q129.125,33.7969 129.125,34.1406 Q129.125,34.4844 128.7813,34.8906 Q128.2813,35.4688 127.4844,35.7969 Q126.4063,36.25 125.1094,36.25 Q123.5938,36.25 122.3906,35.625 Q121.4063,35.125 120.7188,34.0625 Q120.0313,32.9844 120.0313,31.7031 L120.0313,30.5469 Q120.0313,29.2188 120.6406,28.0781 Q121.2656,26.9219 122.3594,26.3125 Q123.4531,25.6875 124.6875,25.6875 Q125.4219,25.6875 126.0625,25.8594 Q126.7188,26.0156 127.2656,26.375 Z " fill="#000000"/><text fill="#000000" font-family="sans-serif" font-size="14" lengthAdjust="spacing" textLength="29" x="141.5" y="35.3535">User</text><line style="stroke:#181818;stroke-width:0.5;" x1="97" x2="186" y1="46.5" y2="46.5"/><text fill="#000000" font-family="sans-serif" font-size="14" lengthAdjust="spacing" textLength="79" x="102" y="63.1738">-String email</text><line style="stroke:#181818;stroke-width:0.5;" x1="97" x2="186" y1="70.1406" y2="70.1406"/></g><!--class Agent--><g id="elem_Agent"><rect codeLine="56" fill="#F1F1F1" height="63.6406" id="Agent" rx="2.5" ry="2.5" style="stroke:#181818;stroke-width:0.5;" width="91" x="1226" y="201"/><ellipse cx="1250.9" cy="217" fill="#ADD1B2" rx="11" ry="11" style="stroke:#181818;stroke-width:1.0;"/><path d="M1253.6656,212.875 Q1253.8219,212.6563 1254.0094,212.5469 Q1254.1969,212.4375 1254.4156,212.4375 Q1254.7906,212.4375 1255.025,212.7031 Q1255.2594,212.9531 1255.2594,213.5625 L1255.2594,215.0156 Q1255.2594,215.625 1255.025,215.8906 Q1254.7906,216.1563 1254.4156,216.1563 Q1254.0719,216.1563 1253.8688,215.9531 Q1253.6656,215.7656 1253.5563,215.25 Q1253.5094,214.8906 1253.3219,214.7031 Q1252.9938,214.3281 1252.3844,214.1094 Q1251.775,213.8906 1251.15,213.8906 Q1250.3844,213.8906 1249.7438,214.2188 Q1249.1188,214.5469 1248.6188,215.2969 Q1248.1344,216.0469 1248.1344,217.0781 L1248.1344,218.1719 Q1248.1344,219.4063 1249.025,220.2344 Q1249.9156,221.0469 1251.5094,221.0469 Q1252.4469,221.0469 1253.1031,220.7969 Q1253.4938,220.6406 1253.9156,220.2031 Q1254.1813,219.9375 1254.3219,219.8594 Q1254.4781,219.7813 1254.6813,219.7813 Q1255.0094,219.7813 1255.2594,220.0469 Q1255.525,220.2969 1255.525,220.6406 Q1255.525,220.9844 1255.1813,221.3906 Q1254.6813,221.9688 1253.8844,222.2969 Q1252.8063,222.75 1251.5094,222.75 Q1249.9938,222.75 1248.7906,222.125 Q1247.8063,221.625 1247.1188,220.5625 Q1246.4313,219.4844 1246.4313,218.2031 L1246.4313,217.0469 Q1246.4313,215.7188 1247.0406,214.5781 Q1247.6656,213.4219 1248.7594,212.8125 Q1249.8531,212.1875 1251.0875,212.1875 Q1251.8219,212.1875 1252.4625,212.3594 Q1253.1188,212.5156 1253.6656,212.875 Z " fill="#000000"/><text fill="#000000" font-family="sans-serif" font-size="14" lengthAdjust="spacing" textLength="37" x="1267.1" y="221.8535">Agent</text><line style="stroke:#181818;stroke-width:0.5;" x1="1227" x2="1316" y1="233" y2="233"/><text fill="#000000" font-family="sans-serif" font-size="14" lengthAdjust="spacing" textLength="79" x="1232" y="249.6738">-String email</text><line style="stroke:#181818;stroke-width:0.5;" x1="1227" x2="1316" y1="256.6406" y2="256.6406"/></g><!--class UserSession--><g id="elem_UserSession"><rect codeLine="83" fill="#F1F1F1" height="79.2813" id="UserSession" rx="2.5" ry="2.5" style="stroke:#181818;stroke-width:0.5;" width="113" x="824" y="388"/><ellipse cx="839.9" cy="404" fill="#ADD1B2" rx="11" ry="11" style="stroke:#181818;stroke-width:1.0;"/><path d="M842.6656,399.875 Q842.8219,399.6563 843.0094,399.5469 Q843.1969,399.4375 843.4156,399.4375 Q843.7906,399.4375 844.025,399.7031 Q844.2594,399.9531 844.2594,400.5625 L844.2594,402.0156 Q844.2594,402.625 844.025,402.8906 Q843.7906,403.1563 843.4156,403.1563 Q843.0719,403.1563 842.8688,402.9531 Q842.6656,402.7656 842.5563,402.25 Q842.5094,401.8906 842.3219,401.7031 Q841.9938,401.3281 841.3844,401.1094 Q840.775,400.8906 840.15,400.8906 Q839.3844,400.8906 838.7438,401.2188 Q838.1188,401.5469 837.6188,402.2969 Q837.1344,403.0469 837.1344,404.0781 L837.1344,405.1719 Q837.1344,406.4063 838.025,407.2344 Q838.9156,408.0469 840.5094,408.0469 Q841.4469,408.0469 842.1031,407.7969 Q842.4938,407.6406 842.9156,407.2031 Q843.1813,406.9375 843.3219,406.8594 Q843.4781,406.7813 843.6813,406.7813 Q844.0094,406.7813 844.2594,407.0469 Q844.525,407.2969 844.525,407.6406 Q844.525,407.9844 844.1813,408.3906 Q843.6813,408.9688 842.8844,409.2969 Q841.8063,409.75 840.5094,409.75 Q838.9938,409.75 837.7906,409.125 Q836.8063,408.625 836.1188,407.5625 Q835.4313,406.4844 835.4313,405.2031 L835.4313,404.0469 Q835.4313,402.7188 836.0406,401.5781 Q836.6656,400.4219 837.7594,399.8125 Q838.8531,399.1875 840.0875,399.1875 Q840.8219,399.1875 841.4625,399.3594 Q842.1188,399.5156 842.6656,399.875 Z " fill="#000000"/><text fill="#000000" font-family="sans-serif" font-size="14" lengthAdjust="spacing" textLength="79" x="854.1" y="408.8535">UserSession</text><line style="stroke:#181818;stroke-width:0.5;" x1="825" x2="936" y1="420" y2="420"/><text fill="#000000" font-family="sans-serif" font-size="14" lengthAdjust="spacing" textLength="38" x="830" y="436.6738">-email</text><line style="stroke:#181818;stroke-width:0.5;" x1="825" x2="936" y1="443.6406" y2="443.6406"/><text fill="#000000" font-family="sans-serif" font-size="14" lengthAdjust="spacing" textLength="101" x="830" y="460.3145">+getUserEmail()</text></g><!--link Owner to House--><g id="link_Owner_House"><path codeLine="38" d="M296.92,86.18 C285.47,121.38 268.84,172.52 258.62,203.94 " fill="none" id="Owner-to-House" style="stroke:#181818;stroke-width:1.0;"/><polygon fill="#181818" points="257.04,208.81,263.6214,201.483,258.5825,204.0539,256.0117,199.015,257.04,208.81" style="stroke:#181818;stroke-width:1.0;"/><text fill="#000000" font-family="sans-serif" font-size="13" lengthAdjust="spacing" textLength="30" x="288.5" y="128.7686">owns</text></g><!--link Owner to Apartment--><g id="link_Owner_Apartment"><path codeLine="39" d="M322.08,86.18 C333.53,121.38 350.16,172.52 360.38,203.94 " fill="none" id="Owner-to-Apartment" style="stroke:#181818;stroke-width:1.0;"/><polygon fill="#181818" points="361.96,208.81,362.9883,199.015,360.4175,204.0539,355.3786,201.483,361.96,208.81" style="stroke:#181818;stroke-width:1.0;"/><text fill="#000000" font-family="sans-serif" font-size="13" lengthAdjust="spacing" textLength="30" x="337.5" y="128.7686">owns</text></g><!--link User to Owner--><g id="link_User_Owner"><path codeLine="94" d="M187.41,46.5 C208.36,46.5 233.33,46.5 255.21,46.5 " fill="none" id="User-to-Owner" style="stroke:#181818;stroke-width:1.0;"/><polygon fill="#181818" points="260.41,46.5,251.41,42.5,255.41,46.5,251.41,50.5,260.41,46.5" style="stroke:#181818;stroke-width:1.0;"/><text fill="#000000" font-family="sans-serif" font-size="13" lengthAdjust="spacing" textLength="37" x="205.25" y="40.2686">canBe</text></g><!--link CreateRequestUI to CreateRequestController--><g id="link_CreateRequestUI_CreateRequestController"><path codeLine="95" d="M713.5,78.8 C713.5,102.32 713.5,135.4 713.5,164.81 " fill="none" id="CreateRequestUI-to-CreateRequestController" style="stroke:#181818;stroke-width:1.0;stroke-dasharray:7.0,7.0;"/><polygon fill="#181818" points="713.5,169.88,717.5,160.88,713.5,164.88,709.5,160.88,713.5,169.88" style="stroke:#181818;stroke-width:1.0;"/></g><!--link CreateRequestUI to Agent--><g id="link_CreateRequestUI_Agent"><path codeLine="96" d="M783.75,63.78 C920.14,95.39 1207.5,162 1207.5,162 C1207.5,162 1223.34,179.33 1239.26,196.74 " fill="none" id="CreateRequestUI-to-Agent" style="stroke:#181818;stroke-width:1.0;"/><polygon fill="#181818" points="1242.87,200.69,1239.7453,191.35,1239.4946,197.0013,1233.8433,196.7506,1242.87,200.69" style="stroke:#181818;stroke-width:1.0;"/></g><!--link CreateRequestController to Request--><g id="link_CreateRequestController_Request"><path codeLine="97" d="M973.52,233 C978.41,233 989.52,233 1003.22,233 " fill="none" id="CreateRequestController-to-Request" style="stroke:#181818;stroke-width:1.0;"/><polygon fill="#181818" points="1008.37,233,999.37,229,1003.37,233,999.37,237,1008.37,233" style="stroke:#181818;stroke-width:1.0;"/></g><!--link CreateRequestController to Repositories--><g id="link_CreateRequestController_Repositories"><path codeLine="98" d="M620.72,296.23 C581.84,322.31 537.27,352.2 500.64,376.77 " fill="none" id="CreateRequestController-to-Repositories" style="stroke:#181818;stroke-width:1.0;stroke-dasharray:7.0,7.0;"/><polygon fill="#181818" points="496.22,379.74,505.9233,378.0528,500.3737,376.9566,501.4699,371.407,496.22,379.74" style="stroke:#181818;stroke-width:1.0;"/><text fill="#000000" font-family="sans-serif" font-size="13" lengthAdjust="spacing" textLength="72" x="562.5" y="346.7686">Repositories</text></g><!--link CreateRequestController to UserSession--><g id="link_CreateRequestController_UserSession"><path codeLine="99" d="M767.49,296.23 C792.27,324.8 821.04,357.96 843.35,383.67 " fill="none" id="CreateRequestController-to-UserSession" style="stroke:#181818;stroke-width:1.0;stroke-dasharray:7.0,7.0;"/><polygon fill="#181818" points="846.87,387.74,843.9916,378.3211,843.5926,383.9639,837.9499,383.5649,846.87,387.74" style="stroke:#181818;stroke-width:1.0;"/></g><!--link CreateRequestController to ApplicationSession--><g id="link_CreateRequestController_ApplicationSession"><path codeLine="100" d="M713.5,296.23 C713.5,321.56 713.5,350.5 713.5,374.66 " fill="none" id="CreateRequestController-to-ApplicationSession" style="stroke:#181818;stroke-width:1.0;stroke-dasharray:7.0,7.0;"/><polygon fill="#181818" points="713.5,379.74,717.5,370.74,713.5,374.74,709.5,370.74,713.5,379.74" style="stroke:#181818;stroke-width:1.0;"/></g><!--link Repositories to Repositories--><g id="link_Repositories_Repositories"><path codeLine="101" d="M523.78,413.39 C543.98,414.87 558.5,419.58 558.5,427.5 C558.5,434.74 546.37,439.29 528.86,441.16 " fill="none" id="Repositories-to-Repositories" style="stroke:#181818;stroke-width:1.0;"/><polygon fill="#181818" points="523.78,441.61,533.1076,444.7715,528.7591,441.1535,532.3772,436.8049,523.78,441.61" style="stroke:#181818;stroke-width:1.0;"/><text fill="#000000" font-family="sans-serif" font-size="13" lengthAdjust="spacing" textLength="49" x="564.5" y="432.2686">instance</text></g><!--link Repositories to UserRepository--><g id="link_Repositories_UserRepository"><path codeLine="102" d="M481.3,475.12 C505.69,495.88 534.2,520.14 557.95,540.34 " fill="none" id="Repositories-to-UserRepository" style="stroke:#181818;stroke-width:1.0;"/><polygon fill="#181818" points="562.02,543.81,557.7541,534.9329,558.2107,540.5713,552.5723,541.0279,562.02,543.81" style="stroke:#181818;stroke-width:1.0;"/></g><!--link Repositories to RequestRepository--><g id="link_Repositories_RequestRepository"><path codeLine="103" d="M345.36,475.12 C313.37,493.51 276.59,514.64 244.16,533.28 " fill="none" id="Repositories-to-RequestRepository" style="stroke:#181818;stroke-width:1.0;"/><polygon fill="#181818" points="239.82,535.77,249.618,534.7708,244.1595,533.2862,245.644,527.8277,239.82,535.77" style="stroke:#181818;stroke-width:1.0;"/></g><!--link Repositories to EmployeeRepository--><g id="link_Repositories_EmployeeRepository"><path codeLine="104" d="M426.5,475.12 C426.5,497.81 426.5,524.69 426.5,545.88 " fill="none" id="Repositories-to-EmployeeRepository" style="stroke:#181818;stroke-width:1.0;"/><polygon fill="#181818" points="426.5,551.14,430.5,542.14,426.5,546.14,422.5,542.14,426.5,551.14" style="stroke:#181818;stroke-width:1.0;"/></g><!--link Owner to land--><g id="link_Owner_land"><path codeLine="105" d="M270.9,86.26 C237.83,119.48 195.5,162 195.5,162 C195.5,162 180.22,184.76 167.09,204.32 " fill="none" id="Owner-to-land" style="stroke:#181818;stroke-width:1.0;"/><polygon fill="#181818" points="164.15,208.69,172.4954,203.4599,166.9432,204.543,165.8601,198.9907,164.15,208.69" style="stroke:#181818;stroke-width:1.0;"/><text fill="#000000" font-family="sans-serif" font-size="13" lengthAdjust="spacing" textLength="30" x="240.5" y="128.7686">owns</text></g><!--link Owner to CreateRequestUI--><g id="link_Owner_CreateRequestUI"><path codeLine="106" d="M358.63,46.5 C428.29,46.5 556.34,46.5 638.07,46.5 " fill="none" id="Owner-to-CreateRequestUI" style="stroke:#181818;stroke-width:1.0;"/><polygon fill="#181818" points="643.39,46.5,634.39,42.5,638.39,46.5,634.39,50.5,643.39,46.5" style="stroke:#181818;stroke-width:1.0;"/><text fill="#000000" font-family="sans-serif" font-size="13" lengthAdjust="spacing" textLength="50" x="476" y="40.2686">requests</text></g><!--SRC=[hLJRQjmm47tNL-XnG-pGvtrOI9U4BXGAMV81YZrrH6H9bUG6D_JVExfuRVcoK5g_2C-ScJcQEHhxngLcXhLKi-gDDN1slG1ge79CDWA8lG3iAwlLEvSD_Sw4dNe4b-1w3LGhqViVCd5MWbbxxvpXBvs3KwNacVy2-ecGuA7VtYMO3qBnAy-8mlpGCYuoYtvLcFNt47Cqm1mymOyEh7i-qOzrpr59PvGGO2Q8v7i2hIntolGJtqEhXUe1LfqfCAVAQWFMvYQaa1agxlhCO1roZ9P7ePYZsl0gCzGSCRA2HwFQ8qW7PhoyOBBEQ2Mk72nDv39ZCDtI1jn9ngox6xhVW3nRCEFjTpU-B8qpeYMENvO7-aLr5Z03_jc5ynwdxbgaF00IpHWqqXvneoqlxkzIOf31ypPHU_3AYAo6D5hmYZcEii91u37BjwQiCRf10bSH2wKbCY7IJfbiAcyUCTx6JpUnZlOgvFYA0qvvTb5VHH1L4NLIhAYZ228heh8cgKBN_rCkR7KQsRyblFOIKtC6eQPs_MI2rsDpTo-TnINZAtjv5E5580lVu81dzQL_9fwJgcjlV6Me4mbTXEK5EUoclrAa3sHQf_yKVUoCmNgP0B97wdFw4kKXFB5znUHd83D5tjqTjgGtXvR-UVehaeq0z2VR5i9NcowEsHhPZfhqyGfgsJkIhRSohuuhXgTkpN1f6UKBPHspKE4wR2aR4gOo-Bq6qyQBziDyT-nf4gCbVm00]--></g></svg>