<?xml version="1.0" encoding="us-ascii" standalone="no"?><svg xmlns="http://www.w3.org/2000/svg" xmlns:xlink="http://www.w3.org/1999/xlink" contentStyleType="text/css" height="606px" preserveAspectRatio="none" style="width:1066px;height:606px;background:#FFFFFF;" version="1.1" viewBox="0 0 1066 606" width="1066px" zoomAndPan="magnify"><defs/><g><rect fill="#FFFFFF" height="416.0234" style="stroke:#181818;stroke-width:1.0;" width="10" x="92" y="91.2969"/><rect fill="#FFFFFF" height="394.8906" style="stroke:#181818;stroke-width:1.0;" width="10" x="342" y="112.4297"/><rect fill="#FFFFFF" height="326.625" style="stroke:#181818;stroke-width:1.0;" width="10" x="537.5" y="151.5625"/><rect fill="#FFFFFF" height="29.1328" style="stroke:#181818;stroke-width:1.0;" width="10" x="708" y="303.3906"/><rect fill="#FFFFFF" height="29.1328" style="stroke:#181818;stroke-width:1.0;" width="10" x="825" y="361.6563"/><rect fill="#FFFFFF" height="29.1328" style="stroke:#181818;stroke-width:1.0;" width="10" x="972" y="419.9219"/><rect fill="none" height="106.5313" style="stroke:#000000;stroke-width:1.5;" width="659.5" x="10" y="168.7266"/><rect fill="none" height="46.2656" style="stroke:#000000;stroke-width:1.5;" width="639.5" x="20" y="221.9922"/><line style="stroke:#181818;stroke-width:0.5;stroke-dasharray:5.0,5.0;" x1="97" x2="97" y1="81.2969" y2="525.3203"/><line style="stroke:#181818;stroke-width:0.5;stroke-dasharray:5.0,5.0;" x1="346.5" x2="346.5" y1="81.2969" y2="525.3203"/><line style="stroke:#181818;stroke-width:0.5;stroke-dasharray:5.0,5.0;" x1="542.5" x2="542.5" y1="151.0781" y2="525.3203"/><line style="stroke:#181818;stroke-width:0.5;stroke-dasharray:5.0,5.0;" x1="712.5" x2="712.5" y1="81.2969" y2="525.3203"/><line style="stroke:#181818;stroke-width:0.5;stroke-dasharray:5.0,5.0;" x1="829.5" x2="829.5" y1="81.2969" y2="525.3203"/><line style="stroke:#181818;stroke-width:0.5;stroke-dasharray:5.0,5.0;" x1="976.5" x2="976.5" y1="81.2969" y2="525.3203"/><text fill="#000000" font-family="sans-serif" font-size="14" lengthAdjust="spacing" textLength="128" x="30" y="77.9951">Unregistered User</text><ellipse cx="97" cy="13.5" fill="#E3E3E3" rx="8" ry="8" style="stroke:#181818;stroke-width:0.5;"/><path d="M97,21.5 L97,48.5 M84,29.5 L110,29.5 M97,48.5 L84,63.5 M97,48.5 L110,63.5 " fill="none" style="stroke:#181818;stroke-width:0.5;"/><text fill="#000000" font-family="sans-serif" font-size="14" lengthAdjust="spacing" textLength="128" x="30" y="537.3154">Unregistered User</text><ellipse cx="97" cy="549.1172" fill="#E3E3E3" rx="8" ry="8" style="stroke:#181818;stroke-width:0.5;"/><path d="M97,557.1172 L97,584.1172 M84,565.1172 L110,565.1172 M97,584.1172 L84,599.1172 M97,584.1172 L110,599.1172 " fill="none" style="stroke:#181818;stroke-width:0.5;"/><rect fill="#E3E3E3" height="30.2969" rx="2.5" ry="2.5" style="stroke:#181818;stroke-width:0.5;" width="157" x="268.5" y="50"/><text fill="#000000" font-family="sans-serif" font-size="14" lengthAdjust="spacing" textLength="143" x="275.5" y="69.9951">:DisplayPropertiesUI</text><rect fill="#E3E3E3" height="30.2969" rx="2.5" ry="2.5" style="stroke:#181818;stroke-width:0.5;" width="157" x="268.5" y="524.3203"/><text fill="#000000" font-family="sans-serif" font-size="14" lengthAdjust="spacing" textLength="143" x="275.5" y="544.3154">:DisplayPropertiesUI</text><rect fill="#E3E3E3" height="30.2969" rx="2.5" ry="2.5" style="stroke:#181818;stroke-width:0.5;" width="214" x="435.5" y="524.3203"/><text fill="#000000" font-family="sans-serif" font-size="14" lengthAdjust="spacing" textLength="200" x="442.5" y="544.3154">:DisplayPropertiesController</text><rect fill="#E3E3E3" height="30.2969" rx="2.5" ry="2.5" style="stroke:#181818;stroke-width:0.5;" width="107" x="659.5" y="50"/><text fill="#000000" font-family="sans-serif" font-size="14" lengthAdjust="spacing" textLength="93" x="666.5" y="69.9951">:Repositories</text><rect fill="#E3E3E3" height="30.2969" rx="2.5" ry="2.5" style="stroke:#181818;stroke-width:0.5;" width="107" x="659.5" y="524.3203"/><text fill="#000000" font-family="sans-serif" font-size="14" lengthAdjust="spacing" textLength="93" x="666.5" y="544.3154">:Repositories</text><rect fill="#E3E3E3" height="46.5938" rx="2.5" ry="2.5" style="stroke:#181818;stroke-width:0.5;" width="107" x="776.5" y="33.7031"/><text fill="#000000" font-family="sans-serif" font-size="14" lengthAdjust="spacing" textLength="84" x="788" y="53.6982">repositories</text><text fill="#000000" font-family="sans-serif" font-size="14" lengthAdjust="spacing" textLength="93" x="783.5" y="69.9951">:Repositories</text><rect fill="#E3E3E3" height="46.5938" rx="2.5" ry="2.5" style="stroke:#181818;stroke-width:0.5;" width="107" x="776.5" y="524.3203"/><text fill="#000000" font-family="sans-serif" font-size="14" lengthAdjust="spacing" textLength="84" x="788" y="544.3154">repositories</text><text fill="#000000" font-family="sans-serif" font-size="14" lengthAdjust="spacing" textLength="93" x="783.5" y="560.6123">:Repositories</text><rect fill="#E3E3E3" height="46.5938" rx="2.5" ry="2.5" style="stroke:#181818;stroke-width:0.5;" width="167" x="893.5" y="33.7031"/><text fill="#000000" font-family="sans-serif" font-size="14" lengthAdjust="spacing" textLength="153" x="900.5" y="53.6982">PropertiesRepository:</text><text fill="#000000" font-family="sans-serif" font-size="14" lengthAdjust="spacing" textLength="149" x="902.5" y="69.9951">propertiesRepository</text><rect fill="#E3E3E3" height="46.5938" rx="2.5" ry="2.5" style="stroke:#181818;stroke-width:0.5;" width="167" x="893.5" y="524.3203"/><text fill="#000000" font-family="sans-serif" font-size="14" lengthAdjust="spacing" textLength="153" x="900.5" y="544.3154">PropertiesRepository:</text><text fill="#000000" font-family="sans-serif" font-size="14" lengthAdjust="spacing" textLength="149" x="902.5" y="560.6123">propertiesRepository</text><rect fill="#FFFFFF" height="416.0234" style="stroke:#181818;stroke-width:1.0;" width="10" x="92" y="91.2969"/><rect fill="#FFFFFF" height="394.8906" style="stroke:#181818;stroke-width:1.0;" width="10" x="342" y="112.4297"/><rect fill="#FFFFFF" height="326.625" style="stroke:#181818;stroke-width:1.0;" width="10" x="537.5" y="151.5625"/><rect fill="#FFFFFF" height="29.1328" style="stroke:#181818;stroke-width:1.0;" width="10" x="708" y="303.3906"/><rect fill="#FFFFFF" height="29.1328" style="stroke:#181818;stroke-width:1.0;" width="10" x="825" y="361.6563"/><rect fill="#FFFFFF" height="29.1328" style="stroke:#181818;stroke-width:1.0;" width="10" x="972" y="419.9219"/><polygon fill="#181818" points="330,108.4297,340,112.4297,330,116.4297,334,112.4297" style="stroke:#181818;stroke-width:1.0;"/><line style="stroke:#181818;stroke-width:1.0;" x1="102" x2="336" y1="112.4297" y2="112.4297"/><text fill="#000000" font-family="sans-serif" font-size="13" font-weight="bold" lengthAdjust="spacing" textLength="9" x="109" y="107.3638">1</text><text fill="#000000" font-family="sans-serif" font-size="13" lengthAdjust="spacing" textLength="208" x="122" y="107.3638">asks to display listed properties</text><polygon fill="#181818" points="423.5,137.5625,433.5,141.5625,423.5,145.5625,427.5,141.5625" style="stroke:#181818;stroke-width:1.0;"/><line style="stroke:#181818;stroke-width:1.0;" x1="352" x2="429.5" y1="141.5625" y2="141.5625"/><text fill="#000000" font-family="sans-serif" font-size="13" font-weight="bold" lengthAdjust="spacing" textLength="9" x="359" y="136.4966">2</text><text fill="#000000" font-family="sans-serif" font-size="13" lengthAdjust="spacing" textLength="41" x="372" y="136.4966">create</text><rect fill="#E3E3E3" height="30.2969" rx="2.5" ry="2.5" style="stroke:#181818;stroke-width:0.5;" width="214" x="435.5" y="120.4297"/><text fill="#000000" font-family="sans-serif" font-size="14" lengthAdjust="spacing" textLength="200" x="442.5" y="140.4248">:DisplayPropertiesController</text><path d="M10,168.7266 L79,168.7266 L79,175.8594 L69,185.8594 L10,185.8594 L10,168.7266 " fill="#EEEEEE" style="stroke:#000000;stroke-width:1.5;"/><rect fill="none" height="106.5313" style="stroke:#000000;stroke-width:1.5;" width="659.5" x="10" y="168.7266"/><text fill="#000000" font-family="sans-serif" font-size="13" font-weight="bold" lengthAdjust="spacing" textLength="24" x="25" y="181.7935">opt</text><text fill="#000000" font-family="sans-serif" font-size="11" font-weight="bold" lengthAdjust="spacing" textLength="512" x="94" y="180.937">[Selects the type of business, property, number of rooms, price, city and/or state]</text><polygon fill="#181818" points="525.5,202.9922,535.5,206.9922,525.5,210.9922,529.5,206.9922" style="stroke:#181818;stroke-width:1.0;"/><line style="stroke:#181818;stroke-width:1.0;" x1="102" x2="531.5" y1="206.9922" y2="206.9922"/><text fill="#000000" font-family="sans-serif" font-size="13" font-weight="bold" lengthAdjust="spacing" textLength="9" x="109" y="201.9263">3</text><text fill="#000000" font-family="sans-serif" font-size="13" lengthAdjust="spacing" textLength="122" x="122" y="201.9263">Selects the type(s)</text><path d="M20,221.9922 L89,221.9922 L89,229.125 L79,239.125 L20,239.125 L20,221.9922 " fill="#EEEEEE" style="stroke:#000000;stroke-width:1.5;"/><rect fill="none" height="46.2656" style="stroke:#000000;stroke-width:1.5;" width="639.5" x="20" y="221.9922"/><text fill="#000000" font-family="sans-serif" font-size="13" font-weight="bold" lengthAdjust="spacing" textLength="24" x="35" y="235.0591">opt</text><text fill="#000000" font-family="sans-serif" font-size="11" font-weight="bold" lengthAdjust="spacing" textLength="409" x="104" y="234.2026">[Filters by price (or more) and sorts by ascending or descending]</text><polygon fill="#181818" points="525.5,256.2578,535.5,260.2578,525.5,264.2578,529.5,260.2578" style="stroke:#181818;stroke-width:1.0;"/><line style="stroke:#181818;stroke-width:1.0;" x1="102" x2="531.5" y1="260.2578" y2="260.2578"/><text fill="#000000" font-family="sans-serif" font-size="13" font-weight="bold" lengthAdjust="spacing" textLength="9" x="109" y="255.1919">4</text><text fill="#000000" font-family="sans-serif" font-size="13" lengthAdjust="spacing" textLength="122" x="122" y="255.1919">Selects the type(s)</text><polygon fill="#181818" points="696,299.3906,706,303.3906,696,307.3906,700,303.3906" style="stroke:#181818;stroke-width:1.0;"/><line style="stroke:#181818;stroke-width:1.0;" x1="547.5" x2="702" y1="303.3906" y2="303.3906"/><text fill="#000000" font-family="sans-serif" font-size="13" font-weight="bold" lengthAdjust="spacing" textLength="9" x="554.5" y="298.3247">5</text><text fill="#000000" font-family="sans-serif" font-size="13" lengthAdjust="spacing" textLength="86" x="567.5" y="298.3247">getInstance()</text><polygon fill="#181818" points="558.5,328.5234,548.5,332.5234,558.5,336.5234,554.5,332.5234" style="stroke:#181818;stroke-width:1.0;"/><line style="stroke:#181818;stroke-width:1.0;stroke-dasharray:2.0,2.0;" x1="552.5" x2="712" y1="332.5234" y2="332.5234"/><text fill="#000000" font-family="sans-serif" font-size="13" font-weight="bold" lengthAdjust="spacing" textLength="9" x="564.5" y="327.4575">6</text><text fill="#000000" font-family="sans-serif" font-size="13" lengthAdjust="spacing" textLength="77" x="577.5" y="327.4575">repositories</text><polygon fill="#181818" points="813,357.6563,823,361.6563,813,365.6563,817,361.6563" style="stroke:#181818;stroke-width:1.0;"/><line style="stroke:#181818;stroke-width:1.0;" x1="547.5" x2="819" y1="361.6563" y2="361.6563"/><text fill="#000000" font-family="sans-serif" font-size="13" font-weight="bold" lengthAdjust="spacing" textLength="9" x="554.5" y="356.5903">7</text><text fill="#000000" font-family="sans-serif" font-size="13" lengthAdjust="spacing" textLength="167" x="567.5" y="356.5903">getPropertiesRepository()</text><polygon fill="#181818" points="558.5,386.7891,548.5,390.7891,558.5,394.7891,554.5,390.7891" style="stroke:#181818;stroke-width:1.0;"/><line style="stroke:#181818;stroke-width:1.0;stroke-dasharray:2.0,2.0;" x1="552.5" x2="829" y1="390.7891" y2="390.7891"/><text fill="#000000" font-family="sans-serif" font-size="13" font-weight="bold" lengthAdjust="spacing" textLength="9" x="564.5" y="385.7231">8</text><text fill="#000000" font-family="sans-serif" font-size="13" lengthAdjust="spacing" textLength="136" x="577.5" y="385.7231">propertiesRepository</text><polygon fill="#181818" points="960,415.9219,970,419.9219,960,423.9219,964,419.9219" style="stroke:#181818;stroke-width:1.0;"/><line style="stroke:#181818;stroke-width:1.0;" x1="547.5" x2="966" y1="419.9219" y2="419.9219"/><text fill="#000000" font-family="sans-serif" font-size="13" font-weight="bold" lengthAdjust="spacing" textLength="9" x="554.5" y="414.856">9</text><text fill="#000000" font-family="sans-serif" font-size="13" lengthAdjust="spacing" textLength="97" x="567.5" y="414.856">getProperties()</text><polygon fill="#181818" points="558.5,445.0547,548.5,449.0547,558.5,453.0547,554.5,449.0547" style="stroke:#181818;stroke-width:1.0;"/><line style="stroke:#181818;stroke-width:1.0;stroke-dasharray:2.0,2.0;" x1="552.5" x2="976" y1="449.0547" y2="449.0547"/><text fill="#000000" font-family="sans-serif" font-size="13" font-weight="bold" lengthAdjust="spacing" textLength="18" x="564.5" y="443.9888">10</text><text fill="#000000" font-family="sans-serif" font-size="13" lengthAdjust="spacing" textLength="66" x="586.5" y="443.9888">properties</text><polygon fill="#181818" points="363,474.1875,353,478.1875,363,482.1875,359,478.1875" style="stroke:#181818;stroke-width:1.0;"/><line style="stroke:#181818;stroke-width:1.0;stroke-dasharray:2.0,2.0;" x1="357" x2="541.5" y1="478.1875" y2="478.1875"/><text fill="#000000" font-family="sans-serif" font-size="13" font-weight="bold" lengthAdjust="spacing" textLength="18" x="369" y="473.1216">11</text><text fill="#000000" font-family="sans-serif" font-size="13" lengthAdjust="spacing" textLength="66" x="391" y="473.1216">properties</text><polygon fill="#181818" points="108,503.3203,98,507.3203,108,511.3203,104,507.3203" style="stroke:#181818;stroke-width:1.0;"/><line style="stroke:#181818;stroke-width:1.0;stroke-dasharray:2.0,2.0;" x1="102" x2="346" y1="507.3203" y2="507.3203"/><text fill="#000000" font-family="sans-serif" font-size="13" font-weight="bold" lengthAdjust="spacing" textLength="18" x="114" y="502.2544">12</text><text fill="#000000" font-family="sans-serif" font-size="13" lengthAdjust="spacing" textLength="157" x="136" y="502.2544">display listed properties</text><!--SRC=[dLLDSzem4BthL-pa19cGfZHDMnyoRI7fa98f4r1woKNO6z1WInv9fkD_tvKTi4CKIEkRz-Ezj-lTDTYLLBam8eDCAnqlZSuGd2cGGUFAHRmI2vowCaKm63kX5kcp2BiKYVuZrG8UHMgHCH25qwh8vcZyI-oqWIEk32waTMWm0MxH786mm3aZ1kDaB7EX71n5GsdpL9GJetCaEre-gYD71oC7MZcZq_G9Up2x6-_ct66khIH155u5RGtbLFh2IFXEZccbFAYN29FnjzbEIYEfWOyUL1umrn01HzqvkHOEVPSOR1xEeNT9xO28KbSMd8QaxWIalhy9D3ojj0PirB9MW2CFwBjrV4oWiK4AsudPPbTDVUxpZyuTJ36byI11IvgYCaVGZp0lh5HexSb6L7a2zMHuhz4wgrmonXE8fIj1gEGTZOjrNWE47ivxbru5ITrbxDWk2oTvVTSofUcpC2zhHkWGKQODTZqhM6rSvHGsHfNuUIP_Wfkt_r8Jp26yW4nlVM6ieEdh1CQK61VeHefQfMBiX2hVVhNGb8UrXOXwJ-CHGNiN0W09_YFZfZo_GtKzeLNONrkrV-5YAjYDUiBFmtksfunNmBUw0u2xTNHUcSc6ussgV3qXkc1z1wewp5XNM1sQFRWjpC1Xy8V58_3eJHUg1LRTgFQxFu1VQKEAB6LiajALvRTZMDCwInhGzwVzi_w7qtvdMYYunZdqB-3iIzJ_69r_WjzNC_3kBklyc8nfpGj3kq-2d97pmb5-bzs8jO2xGZcPOGI_SbGtmvyR0rofjJHQPQWSkxc_RG8kpdlVfJzyXfJ0_IqRugCeKaSPiVOt8m8-k-vzPcFwQHRq5ureozb04oxz481F_m80]--></g></svg>