<?xml version="1.0" encoding="us-ascii" standalone="no"?><svg xmlns="http://www.w3.org/2000/svg" xmlns:xlink="http://www.w3.org/1999/xlink" contentStyleType="text/css" height="486px" preserveAspectRatio="none" style="width:611px;height:486px;background:#FFFFFF;" version="1.1" viewBox="0 0 611 486" width="611px" zoomAndPan="magnify"><defs/><g><!--class Employee--><g id="elem_Employee"><rect codeLine="10" fill="#F1F1F1" height="148.3477" id="Employee" rx="2.5" ry="2.5" style="stroke:#181818;stroke-width:0.5;" width="177" x="236.36" y="7"/><text fill="#000000" font-family="sans-serif" font-size="14" lengthAdjust="spacing" textLength="62" x="293.86" y="27.1074">Employee</text><line style="stroke:#181818;stroke-width:0.5;" x1="237.36" x2="412.36" y1="35.6211" y2="35.6211"/><text fill="#000000" font-family="sans-serif" font-size="14" lengthAdjust="spacing" textLength="35" x="242.36" y="54.7285">name</text><text fill="#000000" font-family="sans-serif" font-size="14" lengthAdjust="spacing" textLength="156" x="242.36" y="73.3496">passports's card number</text><text fill="#000000" font-family="sans-serif" font-size="14" lengthAdjust="spacing" textLength="70" x="242.36" y="91.9707">tax number</text><text fill="#000000" font-family="sans-serif" font-size="14" lengthAdjust="spacing" textLength="51" x="242.36" y="110.5918">address</text><text fill="#000000" font-family="sans-serif" font-size="14" lengthAdjust="spacing" textLength="88" x="242.36" y="129.2129">email address</text><text fill="#000000" font-family="sans-serif" font-size="14" lengthAdjust="spacing" textLength="165" x="242.36" y="147.834">contact telephone number</text></g><!--class TransactionRequest--><g id="elem_TransactionRequest"><rect codeLine="20" fill="#F1F1F1" height="129.7266" id="TransactionRequest" rx="2.5" ry="2.5" style="stroke:#181818;stroke-width:0.5;" width="134" x="100.86" y="234"/><text fill="#000000" font-family="sans-serif" font-size="14" lengthAdjust="spacing" textLength="128" x="103.86" y="254.1074">TransactionRequest</text><line style="stroke:#181818;stroke-width:0.5;" x1="101.86" x2="233.86" y1="262.6211" y2="262.6211"/><text fill="#000000" font-family="sans-serif" font-size="14" lengthAdjust="spacing" textLength="51" x="106.86" y="281.7285">address</text><text fill="#000000" font-family="sans-serif" font-size="14" lengthAdjust="spacing" textLength="29" x="106.86" y="300.3496">area</text><text fill="#000000" font-family="sans-serif" font-size="14" lengthAdjust="spacing" textLength="31" x="106.86" y="318.9707">price</text><text fill="#000000" font-family="sans-serif" font-size="14" lengthAdjust="spacing" textLength="27" x="106.86" y="337.5918">type</text><text fill="#000000" font-family="sans-serif" font-size="14" lengthAdjust="spacing" textLength="73" x="106.86" y="356.2129">commission</text></g><!--class Role--><g id="elem_Role"><rect codeLine="28" fill="#F1F1F1" height="73.8633" id="Role" rx="2.5" ry="2.5" style="stroke:#181818;stroke-width:0.5;" width="113" x="484.36" y="44"/><text fill="#000000" font-family="sans-serif" font-size="14" lengthAdjust="spacing" textLength="29" x="526.36" y="64.1074">Role</text><line style="stroke:#181818;stroke-width:0.5;" x1="485.36" x2="596.36" y1="72.6211" y2="72.6211"/><text fill="#000000" font-family="sans-serif" font-size="14" lengthAdjust="spacing" textLength="24" x="490.36" y="91.7285">role</text><text fill="#000000" font-family="sans-serif" font-size="14" lengthAdjust="spacing" textLength="101" x="490.36" y="110.3496">permission level</text></g><!--class Agency--><g id="elem_Agency"><rect codeLine="33" fill="#F1F1F1" height="129.7266" id="Agency" rx="2.5" ry="2.5" style="stroke:#181818;stroke-width:0.5;" width="75" x="282.36" y="234"/><text fill="#000000" font-family="sans-serif" font-size="14" lengthAdjust="spacing" textLength="47" x="296.36" y="254.1074">Agency</text><line style="stroke:#181818;stroke-width:0.5;" x1="283.36" x2="356.36" y1="262.6211" y2="262.6211"/><text fill="#000000" font-family="sans-serif" font-size="14" lengthAdjust="spacing" textLength="35" x="288.36" y="281.7285">name</text><text fill="#000000" font-family="sans-serif" font-size="14" lengthAdjust="spacing" textLength="33" x="288.36" y="300.3496">email</text><text fill="#000000" font-family="sans-serif" font-size="14" lengthAdjust="spacing" textLength="63" x="288.36" y="318.9707">telephone</text><text fill="#000000" font-family="sans-serif" font-size="14" lengthAdjust="spacing" textLength="19" x="288.36" y="337.5918">vat</text><text fill="#000000" font-family="sans-serif" font-size="14" lengthAdjust="spacing" textLength="49" x="288.36" y="356.2129">location</text></g><!--class State--><g id="elem_State"><rect codeLine="41" fill="#F1F1F1" height="36.6211" id="State" rx="2.5" ry="2.5" style="stroke:#181818;stroke-width:0.5;" width="39" x="68.36" y="443"/><text fill="#000000" font-family="sans-serif" font-size="14" lengthAdjust="spacing" textLength="33" x="71.36" y="463.1074">State</text><line style="stroke:#181818;stroke-width:0.5;" x1="69.36" x2="106.36" y1="471.6211" y2="471.6211"/></g><!--class District--><g id="elem_District"><rect codeLine="44" fill="#F1F1F1" height="36.6211" id="District" rx="2.5" ry="2.5" style="stroke:#181818;stroke-width:0.5;" width="49" x="443.36" y="443"/><text fill="#000000" font-family="sans-serif" font-size="14" lengthAdjust="spacing" textLength="43" x="446.36" y="463.1074">District</text><line style="stroke:#181818;stroke-width:0.5;" x1="444.36" x2="491.36" y1="471.6211" y2="471.6211"/></g><!--class City--><g id="elem_City"><rect codeLine="47" fill="#F1F1F1" height="36.6211" id="City" rx="2.5" ry="2.5" style="stroke:#181818;stroke-width:0.5;" width="30" x="300.86" y="443"/><text fill="#000000" font-family="sans-serif" font-size="14" lengthAdjust="spacing" textLength="24" x="303.86" y="463.1074">City</text><line style="stroke:#181818;stroke-width:0.5;" x1="301.86" x2="329.86" y1="471.6211" y2="471.6211"/></g><!--link Employee to TransactionRequest--><g id="link_Employee_TransactionRequest"><path codeLine="52" d="M236.15,140.68 C221.32,153.78 207.37,168.69 196.86,185 C187.49,199.56 181.14,217 176.84,233.77 " fill="none" id="Employee-TransactionRequest" style="stroke:#181818;stroke-width:1.0;"/><polygon fill="#000000" points="199.1733,198.8624,206.5122,192.8132,201.555,189.6548,199.1733,198.8624" style="stroke:#000000;stroke-width:1.0;"/><text fill="#000000" font-family="sans-serif" font-size="13" lengthAdjust="spacing" textLength="102" x="210.86" y="200.0283">Accepts/Declines</text><text fill="#000000" font-family="sans-serif" font-size="13" lengthAdjust="spacing" textLength="7" x="221.2257" y="142.1042">1</text><text fill="#000000" font-family="sans-serif" font-size="13" lengthAdjust="spacing" textLength="5" x="172.5488" y="222.765">*</text></g><!--link Employee to Role--><g id="link_Employee_Role"><path codeLine="53" d="M413.65,81 C437.51,81 462.65,81 484.23,81 " fill="none" id="Employee-Role" style="stroke:#181818;stroke-width:1.0;"/><polygon fill="#000000" points="440.86,68.6455,431.8149,65.7066,431.8149,71.5844,440.86,68.6455" style="stroke:#000000;stroke-width:1.0;"/><text fill="#000000" font-family="sans-serif" font-size="13" lengthAdjust="spacing" textLength="21" x="444.86" y="74.0283">has</text><text fill="#000000" font-family="sans-serif" font-size="13" lengthAdjust="spacing" textLength="7" x="421.2928" y="77.3221">1</text><text fill="#000000" font-family="sans-serif" font-size="13" lengthAdjust="spacing" textLength="5" x="471.2844" y="76.9149">*</text></g><!--link Employee to Agency--><g id="link_Employee_Agency"><path codeLine="54" d="M323.17,155.13 C322.58,180.71 321.92,209.21 321.34,233.99 " fill="none" id="Employee-Agency" style="stroke:#181818;stroke-width:1.0;"/><polygon fill="#000000" points="326.744,199.6442,329.892,190.6697,324.0157,190.5333,326.744,199.6442" style="stroke:#000000;stroke-width:1.0;"/><text fill="#000000" font-family="sans-serif" font-size="13" lengthAdjust="spacing" textLength="49" x="335.86" y="200.0283">works at</text><text fill="#000000" font-family="sans-serif" font-size="13" lengthAdjust="spacing" textLength="7" x="315.6591" y="177.2894">1</text><text fill="#000000" font-family="sans-serif" font-size="13" lengthAdjust="spacing" textLength="7" x="314.1064" y="222.5514">1</text></g><!--link Employee to State--><g id="link_Employee_State"><path codeLine="55" d="M236.34,104.25 C171.33,125.74 87.54,165.39 46.86,234 C6,302.92 54.29,402.82 77.16,442.9 " fill="none" id="Employee-State" style="stroke:#181818;stroke-width:1.0;"/><polygon fill="#000000" points="49.733,303.6706,56.2405,296.7349,50.921,294.2345,49.733,303.6706" style="stroke:#000000;stroke-width:1.0;"/><text fill="#000000" font-family="sans-serif" font-size="13" lengthAdjust="spacing" textLength="21" x="60.86" y="304.5283">has</text><text fill="#000000" font-family="sans-serif" font-size="13" lengthAdjust="spacing" textLength="7" x="221.432" y="102.5435">1</text><text fill="#000000" font-family="sans-serif" font-size="13" lengthAdjust="spacing" textLength="7" x="65.8113" y="431.7315">1</text></g><!--link Employee to City--><g id="link_Employee_City"><path codeLine="56" d="M404.41,155.02 C471.27,225.34 546.9,332.57 485.86,413 C466.83,438.08 368.81,453.5 330.88,458.61 " fill="none" id="Employee-City" style="stroke:#181818;stroke-width:1.0;"/><polygon fill="#000000" points="511.683,304.005,516.6685,295.9059,510.9559,294.5223,511.683,304.005" style="stroke:#000000;stroke-width:1.0;"/><text fill="#000000" font-family="sans-serif" font-size="13" lengthAdjust="spacing" textLength="21" x="521.86" y="304.5283">has</text><text fill="#000000" font-family="sans-serif" font-size="13" lengthAdjust="spacing" textLength="7" x="405.2527" y="177.5553">1</text><text fill="#000000" font-family="sans-serif" font-size="13" lengthAdjust="spacing" textLength="7" x="338.9825" y="450.8017">1</text></g><!--link Employee to District--><g id="link_Employee_District"><path codeLine="57" d="M413.43,129.65 C470.28,162.3 536.28,204.82 551.86,234 C579.07,284.97 569.5,308.98 551.86,364 C541.29,397 512.41,425.61 491.46,442.93 " fill="none" id="Employee-District" style="stroke:#181818;stroke-width:1.0;"/><polygon fill="#000000" points="575.0685,303.9973,575.7341,294.51,570.0305,295.9307,575.0685,303.9973" style="stroke:#000000;stroke-width:1.0;"/><text fill="#000000" font-family="sans-serif" font-size="13" lengthAdjust="spacing" textLength="21" x="582.86" y="304.5283">has</text><text fill="#000000" font-family="sans-serif" font-size="13" lengthAdjust="spacing" textLength="7" x="421.3423" y="130.1263">1</text><text fill="#000000" font-family="sans-serif" font-size="13" lengthAdjust="spacing" textLength="7" x="490.6156" y="431.7707">1</text></g><!--link Agency to State--><g id="link_Agency_State"><path codeLine="58" d="M282.25,342.68 C260.25,365.74 230.95,393.42 200.86,413 C170.72,432.61 131.13,447.03 107.7,454.57 " fill="none" id="Agency-State" style="stroke:#181818;stroke-width:1.0;"/><polygon fill="#000000" points="226.6506,406.3438,235.8515,403.9368,232.6795,398.9883,226.6506,406.3438" style="stroke:#000000;stroke-width:1.0;"/><text fill="#000000" font-family="sans-serif" font-size="13" lengthAdjust="spacing" textLength="21" x="239.86" y="409.0283">has</text><text fill="#000000" font-family="sans-serif" font-size="13" lengthAdjust="spacing" textLength="7" x="267.4134" y="346.4683">1</text><text fill="#000000" font-family="sans-serif" font-size="13" lengthAdjust="spacing" textLength="7" x="115.4314" y="446.5981">1</text></g><!--link Agency to City--><g id="link_Agency_City"><path codeLine="59" d="M313.8,364.21 C312.87,380.14 312.36,397.19 312.86,413 C313.18,422.91 313.85,433.97 314.49,442.92 " fill="none" id="Agency-City" style="stroke:#181818;stroke-width:1.0;"/><polygon fill="#000000" points="317.9038,408.6453,320.7634,399.5748,314.8857,399.6263,317.9038,408.6453" style="stroke:#000000;stroke-width:1.0;"/><text fill="#000000" font-family="sans-serif" font-size="13" lengthAdjust="spacing" textLength="21" x="326.86" y="409.0283">has</text><text fill="#000000" font-family="sans-serif" font-size="13" lengthAdjust="spacing" textLength="7" x="305.8141" y="385.8688">1</text><text fill="#000000" font-family="sans-serif" font-size="13" lengthAdjust="spacing" textLength="7" x="305.9986" y="431.7577">1</text></g><!--link Agency to District--><g id="link_Agency_District"><path codeLine="60" d="M357.46,327.36 C379.85,344.83 407.91,368.85 428.86,394 C441.46,409.11 452.45,428.8 459.52,442.82 " fill="none" id="Agency-District" style="stroke:#181818;stroke-width:1.0;"/><polygon fill="#000000" points="450.1715,407.3917,446.383,398.6683,441.979,402.5612,450.1715,407.3917" style="stroke:#000000;stroke-width:1.0;"/><text fill="#000000" font-family="sans-serif" font-size="13" lengthAdjust="spacing" textLength="21" x="455.86" y="409.0283">has</text><text fill="#000000" font-family="sans-serif" font-size="13" lengthAdjust="spacing" textLength="7" x="365.2947" y="328.2279">1</text><text fill="#000000" font-family="sans-serif" font-size="13" lengthAdjust="spacing" textLength="7" x="448.894" y="431.627">1</text></g><!--link TransactionRequest to State--><g id="link_TransactionRequest_State"><path codeLine="61" d="M101.18,364.04 C94.56,373.44 88.83,383.51 84.86,394 C78.89,409.78 80.71,429.19 83.37,442.96 " fill="none" id="TransactionRequest-State" style="stroke:#181818;stroke-width:1.0;"/><polygon fill="#000000" points="88.7593,408.5229,93.6173,400.3466,87.8836,399.0527,88.7593,408.5229" style="stroke:#000000;stroke-width:1.0;"/><text fill="#000000" font-family="sans-serif" font-size="13" lengthAdjust="spacing" textLength="21" x="98.86" y="409.0283">has</text><text fill="#000000" font-family="sans-serif" font-size="13" lengthAdjust="spacing" textLength="7" x="86.9427" y="385.6812">1</text></g><!--link TransactionRequest to City--><g id="link_TransactionRequest_City"><path codeLine="62" d="M149.49,364.15 C148.19,381.39 150.58,399.09 160.86,413 C194,457.81 268.6,461.72 300.7,461.19 " fill="none" id="TransactionRequest-City" style="stroke:#181818;stroke-width:1.0;"/><polygon fill="#000000" points="170.068,406.346,164.043,398.9874,160.8683,403.9341,170.068,406.346" style="stroke:#000000;stroke-width:1.0;"/><text fill="#000000" font-family="sans-serif" font-size="13" lengthAdjust="spacing" textLength="21" x="174.86" y="409.0283">has</text><text fill="#000000" font-family="sans-serif" font-size="13" lengthAdjust="spacing" textLength="7" x="140.2347" y="385.8026">1</text></g><!--link TransactionRequest to District--><g id="link_TransactionRequest_District"><path codeLine="63" d="M234.93,347.37 C244.74,353.37 254.9,359.11 264.86,364 C301.96,382.19 315.34,376.69 352.86,394 C367.88,400.93 370.57,404.67 384.86,413 C404.37,424.37 426.58,437.07 443.11,446.47 " fill="none" id="TransactionRequest-District" style="stroke:#181818;stroke-width:1.0;"/><polygon fill="#000000" points="394.3746,405.7946,387.4708,399.2533,384.9444,404.5605,394.3746,405.7946" style="stroke:#000000;stroke-width:1.0;"/><text fill="#000000" font-family="sans-serif" font-size="13" lengthAdjust="spacing" textLength="21" x="398.86" y="409.0283">has</text><text fill="#000000" font-family="sans-serif" font-size="13" lengthAdjust="spacing" textLength="7" x="242.6486" y="348.79">1</text></g><!--SRC=[VP9DJyCm38Rl-HLMBqX82BZkW3G11wuRVy1BJHij7oNsW8BuxsJfnzfHwA5nuiT-NwVblV4DHdJWWW-wZi4HI3oGuZ7JeDvZHLjfBK4aBUWhEmMunZAy6r_12recDKbfYynhaMXs1w4d7VpMV1BSA5MRaa2Rg5Eh73kIEfIiLAw1HzVOq1B1buBqU7IKWoObcn25BnWqnXBymUqevfpWntIBPHc9ESVaqDZPIV8Yg0M4B3Lry3IKgk_1mtD4puanmM_ezK0ilPjf7uo4dRDeTETHsePw3USCSwe_DTq4EmmLKzYLKkmviFH6zaIlA_AwFR-4F4qdDRZFkpUKlDgWKMQgMq4voeu73uRJLz4oFRitqdPxfSRxBsuBkBg2uh9Ok8yLhBMcHlZwWRGrdXZkpafpvN7e5TIub4xlRieLl8UuPq19L35WnUWWBTqOGwTb9a_nFp8EFsATW_-q5eYvqWBmIsVXZ-hnkThVt4ppR-oNyWy0]--></g></svg>