<?xml version="1.0" encoding="us-ascii" standalone="no"?><svg xmlns="http://www.w3.org/2000/svg" xmlns:xlink="http://www.w3.org/1999/xlink" contentStyleType="text/css" height="605px" preserveAspectRatio="none" style="width:453px;height:605px;background:#FFFFFF;" version="1.1" viewBox="0 0 453 605" width="453px" zoomAndPan="magnify"><defs/><g><text fill="#000000" font-family="sans-serif" font-size="14" font-weight="bold" lengthAdjust="spacing" textLength="228" x="111.75" y="30.1074">System Sequence Diagram (SSD)</text><rect fill="#FFFFFF" height="379.7832" style="stroke:#181818;stroke-width:1.0;" width="10" x="69.5" y="133.2422"/><rect fill="#FFFFFF" height="31.291" style="stroke:#181818;stroke-width:1.0;" width="10" x="410.5" y="156.5332"/><rect fill="#FFFFFF" height="31.291" style="stroke:#181818;stroke-width:1.0;" width="10" x="410.5" y="219.1152"/><rect fill="#FFFFFF" height="31.291" style="stroke:#181818;stroke-width:1.0;" width="10" x="410.5" y="281.6973"/><rect fill="#FFFFFF" height="31.291" style="stroke:#181818;stroke-width:1.0;" width="10" x="410.5" y="378.8613"/><line style="stroke:#181818;stroke-width:0.5;stroke-dasharray:5.0,5.0;" x1="74" x2="74" y1="123.2422" y2="522.0254"/><line style="stroke:#181818;stroke-width:0.5;stroke-dasharray:5.0,5.0;" x1="188" x2="188" y1="123.2422" y2="522.0254"/><line style="stroke:#181818;stroke-width:0.5;stroke-dasharray:5.0,5.0;" x1="415.5" x2="415.5" y1="123.2422" y2="522.0254"/><text fill="#000000" font-family="sans-serif" font-size="14" lengthAdjust="spacing" textLength="133" x="5" y="119.7285">System Administrator</text><ellipse cx="74.5" cy="53.1211" fill="#E3E3E3" rx="8" ry="8" style="stroke:#181818;stroke-width:0.5;"/><path d="M74.5,61.1211 L74.5,88.1211 M61.5,69.1211 L87.5,69.1211 M74.5,88.1211 L61.5,103.1211 M74.5,88.1211 L87.5,103.1211 " fill="none" style="stroke:#181818;stroke-width:0.5;"/><text fill="#000000" font-family="sans-serif" font-size="14" lengthAdjust="spacing" textLength="133" x="5" y="536.1328">System Administrator</text><ellipse cx="74.5" cy="548.1465" fill="#E3E3E3" rx="8" ry="8" style="stroke:#181818;stroke-width:0.5;"/><path d="M74.5,556.1465 L74.5,583.1465 M61.5,564.1465 L87.5,564.1465 M74.5,583.1465 L61.5,598.1465 M74.5,583.1465 L87.5,598.1465 " fill="none" style="stroke:#181818;stroke-width:0.5;"/><text fill="#000000" font-family="sans-serif" font-size="14" lengthAdjust="spacing" textLength="62" x="154" y="119.7285">Employee</text><ellipse cx="188" cy="53.1211" fill="#E3E3E3" rx="8" ry="8" style="stroke:#181818;stroke-width:0.5;"/><path d="M188,61.1211 L188,88.1211 M175,69.1211 L201,69.1211 M188,88.1211 L175,103.1211 M188,88.1211 L201,103.1211 " fill="none" style="stroke:#181818;stroke-width:0.5;"/><text fill="#000000" font-family="sans-serif" font-size="14" lengthAdjust="spacing" textLength="62" x="154" y="536.1328">Employee</text><ellipse cx="188" cy="548.1465" fill="#E3E3E3" rx="8" ry="8" style="stroke:#181818;stroke-width:0.5;"/><path d="M188,556.1465 L188,583.1465 M175,564.1465 L201,564.1465 M188,583.1465 L175,598.1465 M188,583.1465 L201,598.1465 " fill="none" style="stroke:#181818;stroke-width:0.5;"/><rect fill="#E3E3E3" height="32.6211" rx="2.5" ry="2.5" style="stroke:#181818;stroke-width:0.5;" width="64" x="383.5" y="89.6211"/><text fill="#000000" font-family="sans-serif" font-size="14" lengthAdjust="spacing" textLength="50" x="390.5" y="111.7285">:System</text><rect fill="#E3E3E3" height="32.6211" rx="2.5" ry="2.5" style="stroke:#181818;stroke-width:0.5;" width="64" x="383.5" y="521.0254"/><text fill="#000000" font-family="sans-serif" font-size="14" lengthAdjust="spacing" textLength="50" x="390.5" y="543.1328">:System</text><rect fill="#FFFFFF" height="379.7832" style="stroke:#181818;stroke-width:1.0;" width="10" x="69.5" y="133.2422"/><rect fill="#FFFFFF" height="31.291" style="stroke:#181818;stroke-width:1.0;" width="10" x="410.5" y="156.5332"/><rect fill="#FFFFFF" height="31.291" style="stroke:#181818;stroke-width:1.0;" width="10" x="410.5" y="219.1152"/><rect fill="#FFFFFF" height="31.291" style="stroke:#181818;stroke-width:1.0;" width="10" x="410.5" y="281.6973"/><rect fill="#FFFFFF" height="31.291" style="stroke:#181818;stroke-width:1.0;" width="10" x="410.5" y="378.8613"/><polygon fill="#181818" points="398.5,152.5332,408.5,156.5332,398.5,160.5332,402.5,156.5332" style="stroke:#181818;stroke-width:1.0;"/><line style="stroke:#181818;stroke-width:1.0;" x1="79.5" x2="404.5" y1="156.5332" y2="156.5332"/><text fill="#000000" font-family="sans-serif" font-size="13" font-weight="bold" lengthAdjust="spacing" textLength="7" x="86.5" y="151.2705">1</text><text fill="#000000" font-family="sans-serif" font-size="13" lengthAdjust="spacing" textLength="188" x="97.5" y="151.2705">asks to register a new employee</text><polygon fill="#181818" points="90.5,183.8242,80.5,187.8242,90.5,191.8242,86.5,187.8242" style="stroke:#181818;stroke-width:1.0;"/><line style="stroke:#181818;stroke-width:1.0;stroke-dasharray:2.0,2.0;" x1="84.5" x2="414.5" y1="187.8242" y2="187.8242"/><text fill="#000000" font-family="sans-serif" font-size="13" font-weight="bold" lengthAdjust="spacing" textLength="7" x="96.5" y="182.5615">2</text><text fill="#000000" font-family="sans-serif" font-size="13" lengthAdjust="spacing" textLength="225" x="107.5" y="182.5615">shows agencies list and asks to select</text><polygon fill="#181818" points="398.5,215.1152,408.5,219.1152,398.5,223.1152,402.5,219.1152" style="stroke:#181818;stroke-width:1.0;"/><line style="stroke:#181818;stroke-width:1.0;" x1="79.5" x2="404.5" y1="219.1152" y2="219.1152"/><text fill="#000000" font-family="sans-serif" font-size="13" font-weight="bold" lengthAdjust="spacing" textLength="7" x="86.5" y="213.8525">3</text><text fill="#000000" font-family="sans-serif" font-size="13" lengthAdjust="spacing" textLength="106" x="97.5" y="213.8525">selects an agency</text><polygon fill="#181818" points="90.5,246.4063,80.5,250.4063,90.5,254.4063,86.5,250.4063" style="stroke:#181818;stroke-width:1.0;"/><line style="stroke:#181818;stroke-width:1.0;stroke-dasharray:2.0,2.0;" x1="84.5" x2="414.5" y1="250.4063" y2="250.4063"/><text fill="#000000" font-family="sans-serif" font-size="13" font-weight="bold" lengthAdjust="spacing" textLength="7" x="96.5" y="245.1436">4</text><text fill="#000000" font-family="sans-serif" font-size="13" lengthAdjust="spacing" textLength="201" x="107.5" y="245.1436">shows roles list and asks to select</text><polygon fill="#181818" points="398.5,277.6973,408.5,281.6973,398.5,285.6973,402.5,281.6973" style="stroke:#181818;stroke-width:1.0;"/><line style="stroke:#181818;stroke-width:1.0;" x1="79.5" x2="404.5" y1="281.6973" y2="281.6973"/><text fill="#000000" font-family="sans-serif" font-size="13" font-weight="bold" lengthAdjust="spacing" textLength="7" x="86.5" y="276.4346">5</text><text fill="#000000" font-family="sans-serif" font-size="13" lengthAdjust="spacing" textLength="71" x="97.5" y="276.4346">select a role</text><polygon fill="#181818" points="90.5,308.9883,80.5,312.9883,90.5,316.9883,86.5,312.9883" style="stroke:#181818;stroke-width:1.0;"/><line style="stroke:#181818;stroke-width:1.0;stroke-dasharray:2.0,2.0;" x1="84.5" x2="414.5" y1="312.9883" y2="312.9883"/><text fill="#000000" font-family="sans-serif" font-size="13" font-weight="bold" lengthAdjust="spacing" textLength="7" x="96.5" y="307.7256">6</text><text fill="#000000" font-family="sans-serif" font-size="13" lengthAdjust="spacing" textLength="79" x="107.5" y="307.7256">requests data</text><polygon fill="#181818" points="398.5,374.8613,408.5,378.8613,398.5,382.8613,402.5,378.8613" style="stroke:#181818;stroke-width:1.0;"/><line style="stroke:#181818;stroke-width:1.0;" x1="79.5" x2="404.5" y1="378.8613" y2="378.8613"/><text fill="#000000" font-family="sans-serif" font-size="13" font-weight="bold" lengthAdjust="spacing" textLength="7" x="86.5" y="356.3076">7</text><text fill="#000000" font-family="sans-serif" font-size="13" lengthAdjust="spacing" textLength="297" x="97.5" y="339.0166">types requested data (name, citizen's card number,</text><text fill="#000000" font-family="sans-serif" font-size="13" lengthAdjust="spacing" textLength="212" x="97.5" y="356.3076">tax number, address, email address,</text><text fill="#000000" font-family="sans-serif" font-size="13" lengthAdjust="spacing" textLength="154" x="101.5" y="373.5986">contact telephone number)</text><polygon fill="#181818" points="90.5,406.1523,80.5,410.1523,90.5,414.1523,86.5,410.1523" style="stroke:#181818;stroke-width:1.0;"/><line style="stroke:#181818;stroke-width:1.0;stroke-dasharray:2.0,2.0;" x1="84.5" x2="414.5" y1="410.1523" y2="410.1523"/><text fill="#000000" font-family="sans-serif" font-size="13" font-weight="bold" lengthAdjust="spacing" textLength="7" x="96.5" y="404.8896">8</text><text fill="#000000" font-family="sans-serif" font-size="13" lengthAdjust="spacing" textLength="291" x="107.5" y="404.8896">shows the selected agency, role and inserted data</text><polygon fill="#181818" points="403.5,437.4434,413.5,441.4434,403.5,445.4434,407.5,441.4434" style="stroke:#181818;stroke-width:1.0;"/><line style="stroke:#181818;stroke-width:1.0;" x1="79.5" x2="409.5" y1="441.4434" y2="441.4434"/><text fill="#000000" font-family="sans-serif" font-size="13" font-weight="bold" lengthAdjust="spacing" textLength="7" x="86.5" y="436.1807">9</text><text fill="#000000" font-family="sans-serif" font-size="13" lengthAdjust="spacing" textLength="75" x="97.5" y="436.1807">submits data</text><polygon fill="#181818" points="199,468.7344,189,472.7344,199,476.7344,195,472.7344" style="stroke:#181818;stroke-width:1.0;"/><line style="stroke:#181818;stroke-width:1.0;stroke-dasharray:2.0,2.0;" x1="193" x2="414.5" y1="472.7344" y2="472.7344"/><text fill="#000000" font-family="sans-serif" font-size="13" font-weight="bold" lengthAdjust="spacing" textLength="14" x="205" y="467.4717">10</text><text fill="#000000" font-family="sans-serif" font-size="13" lengthAdjust="spacing" textLength="156" x="223" y="467.4717">sends password (via email)</text><polygon fill="#181818" points="90.5,500.0254,80.5,504.0254,90.5,508.0254,86.5,504.0254" style="stroke:#181818;stroke-width:1.0;"/><line style="stroke:#181818;stroke-width:1.0;stroke-dasharray:2.0,2.0;" x1="84.5" x2="414.5" y1="504.0254" y2="504.0254"/><text fill="#000000" font-family="sans-serif" font-size="13" font-weight="bold" lengthAdjust="spacing" textLength="14" x="96.5" y="498.7627">11</text><text fill="#000000" font-family="sans-serif" font-size="13" lengthAdjust="spacing" textLength="152" x="114.5" y="498.7627">informs operation success</text><!--SRC=[hLFDJiCm3BxdAQnTsAJn0XoG9i4JzCh59AQDrZWbTXdbwN7_1fe02KHEIUhlnvzJEKRki622b3dxfkH4eAKd9-Sl7VeZrbJfq18KyefSjvyBfC6GJv5hUC9Mo3cDQgNL84e9AdhkYJt1NSHwBDzMrTtEEUmrSvyUgTZUQowmMH27a297qO9skm4Kg0vhoNtgsZmGJTVhmPaFZJvso0gRcvbc1axRII2-eDB8vC1MTO3hszNYZPKU1JHRUxK9Km44fXFGAZ12FZWMKbZMmd8z4XwCJ9fy4h38s4SIQ8qHaCDPHAYr52Tue2zPBzpD0AFacNNuYv-IstyqOm6DX3yQkVHHnfSWraT0nLyewj2PymLDOOB3bZ7H7dpK-4Py9U2n19WVr1uUMF7rVC8G2ediRPuOsu_Z0uFFLcdjg7NLDPbf0Ut-4h4sjCHZBkT9xQUOfiGZ2vNL_m_jN-RTFwQuXkO-2Q-lVve91x4VLUIKBONjIyIvrzrtiuZyb4iIo1tPRnOpcuxtbefpxm00]--></g></svg>