<?xml version="1.0" encoding="us-ascii" standalone="no"?><svg xmlns="http://www.w3.org/2000/svg" xmlns:xlink="http://www.w3.org/1999/xlink" contentStyleType="text/css" height="250px" preserveAspectRatio="none" style="width:334px;height:250px;background:#FFFFFF;" version="1.1" viewBox="0 0 334 250" width="334px" zoomAndPan="magnify"><defs/><g><!--class Unregistered_User--><g id="elem_Unregistered_User"><rect codeLine="12" fill="#F1F1F1" height="127.4844" id="Unregistered_User" rx="2.5" ry="2.5" style="stroke:#181818;stroke-width:0.5;" width="147" x="97.5" y="7"/><text fill="#000000" font-family="sans-serif" font-size="14" lengthAdjust="spacing" textLength="118" x="112" y="24.6738">Unregistered_User</text><line style="stroke:#181818;stroke-width:0.5;" x1="98.5" x2="243.5" y1="32.6406" y2="32.6406"/><text fill="#000000" font-family="sans-serif" font-size="14" lengthAdjust="spacing" textLength="35" x="103.5" y="49.3145">name</text><text fill="#000000" font-family="sans-serif" font-size="14" lengthAdjust="spacing" textLength="135" x="103.5" y="64.9551">passportCardNumber</text><text fill="#000000" font-family="sans-serif" font-size="14" lengthAdjust="spacing" textLength="51" x="103.5" y="80.5957">address</text><text fill="#000000" font-family="sans-serif" font-size="14" lengthAdjust="spacing" textLength="67" x="103.5" y="96.2363">taxNumber</text><text fill="#000000" font-family="sans-serif" font-size="14" lengthAdjust="spacing" textLength="33" x="103.5" y="111.877">email</text><text fill="#000000" font-family="sans-serif" font-size="14" lengthAdjust="spacing" textLength="112" x="103.5" y="127.5176">telephoneNumber</text></g><!--class System--><g id="elem_System"><rect codeLine="21" fill="#F1F1F1" height="33.6406" id="System" rx="2.5" ry="2.5" style="stroke:#181818;stroke-width:0.5;" width="52" x="7" y="210"/><text fill="#000000" font-family="sans-serif" font-size="14" lengthAdjust="spacing" textLength="46" x="10" y="227.6738">System</text><line style="stroke:#181818;stroke-width:0.5;" x1="8" x2="58" y1="235.6406" y2="235.6406"/></g><!--class State--><g id="elem_State"><rect codeLine="23" fill="#F1F1F1" height="33.6406" id="State" rx="2.5" ry="2.5" style="stroke:#181818;stroke-width:0.5;" width="39" x="105.5" y="210"/><text fill="#000000" font-family="sans-serif" font-size="14" lengthAdjust="spacing" textLength="33" x="108.5" y="227.6738">State</text><line style="stroke:#181818;stroke-width:0.5;" x1="106.5" x2="143.5" y1="235.6406" y2="235.6406"/></g><!--class District--><g id="elem_District"><rect codeLine="25" fill="#F1F1F1" height="33.6406" id="District" rx="2.5" ry="2.5" style="stroke:#181818;stroke-width:0.5;" width="49" x="192.5" y="210"/><text fill="#000000" font-family="sans-serif" font-size="14" lengthAdjust="spacing" textLength="43" x="195.5" y="227.6738">District</text><line style="stroke:#181818;stroke-width:0.5;" x1="193.5" x2="240.5" y1="235.6406" y2="235.6406"/></g><!--class City--><g id="elem_City"><rect codeLine="27" fill="#F1F1F1" height="33.6406" id="City" rx="2.5" ry="2.5" style="stroke:#181818;stroke-width:0.5;" width="30" x="294" y="210"/><text fill="#000000" font-family="sans-serif" font-size="14" lengthAdjust="spacing" textLength="24" x="297" y="227.6738">City</text><line style="stroke:#181818;stroke-width:0.5;" x1="295" x2="323" y1="235.6406" y2="235.6406"/></g><!--link Unregistered_User to System--><g id="link_Unregistered_User_System"><path codeLine="29" d="M97.33,124.53 C83.79,136.48 70.61,149.85 60,164 C49.51,178 42.08,196.7 37.71,209.9 " fill="none" id="Unregistered_User-System" style="stroke:#181818;stroke-width:1.0;"/><polygon fill="#000000" points="62.1372,176.361,69.7256,170.6281,64.9066,167.2626,62.1372,176.361" style="stroke:#000000;stroke-width:1.0;"/><text fill="#000000" font-family="sans-serif" font-size="13" lengthAdjust="spacing" textLength="37" x="74" y="176.7686">Sends</text><text fill="#000000" font-family="sans-serif" font-size="13" lengthAdjust="spacing" textLength="7" x="82.3718" y="127.1505">1</text><text fill="#000000" font-family="sans-serif" font-size="13" lengthAdjust="spacing" textLength="7" x="31.1411" y="199.2402">1</text></g><!--link Unregistered_User to State--><g id="link_Unregistered_User_State"><path codeLine="30" d="M132.73,134.06 C128.31,143.79 124.5,153.95 122,164 C118.21,179.27 119.71,197.29 121.71,209.95 " fill="none" id="Unregistered_User-State" style="stroke:#181818;stroke-width:1.0;"/><polygon fill="#000000" points="126.2815,177.2098,130.4897,168.681,124.6729,167.8363,126.2815,177.2098" style="stroke:#000000;stroke-width:1.0;"/><text fill="#000000" font-family="sans-serif" font-size="13" lengthAdjust="spacing" textLength="37" x="136" y="176.7686">Select</text><text fill="#000000" font-family="sans-serif" font-size="13" lengthAdjust="spacing" textLength="7" x="120.6393" y="154.4304">1</text><text fill="#000000" font-family="sans-serif" font-size="13" lengthAdjust="spacing" textLength="5" x="114.6473" y="199.308">*</text></g><!--link Unregistered_User to District--><g id="link_Unregistered_User_District"><path codeLine="31" d="M189.71,134.34 C197.92,161.91 206.88,192.02 212.22,209.94 " fill="none" id="Unregistered_User-District" style="stroke:#181818;stroke-width:1.0;"/><polygon fill="#000000" points="209.4269,177.0538,209.6624,167.5462,204.0289,169.2235,209.4269,177.0538" style="stroke:#000000;stroke-width:1.0;"/><text fill="#000000" font-family="sans-serif" font-size="13" lengthAdjust="spacing" textLength="37" x="217" y="176.7686">Select</text><text fill="#000000" font-family="sans-serif" font-size="13" lengthAdjust="spacing" textLength="7" x="184.4687" y="154.3017">1</text><text fill="#000000" font-family="sans-serif" font-size="13" lengthAdjust="spacing" textLength="5" x="204.6265" y="199.2944">*</text></g><!--link Unregistered_User to City--><g id="link_Unregistered_User_City"><path codeLine="32" d="M235.6,134.04 C245.02,143.85 254.43,154.04 263,164 C275.85,178.94 289.11,197.16 298.07,209.97 " fill="none" id="Unregistered_User-City" style="stroke:#181818;stroke-width:1.0;"/><polygon fill="#000000" points="283.1767,176.1229,279.6995,167.2708,275.1605,171.0052,283.1767,176.1229" style="stroke:#000000;stroke-width:1.0;"/><text fill="#000000" font-family="sans-serif" font-size="13" lengthAdjust="spacing" textLength="37" x="289" y="176.7686">Select</text><text fill="#000000" font-family="sans-serif" font-size="13" lengthAdjust="spacing" textLength="7" x="236.0466" y="154.408">1</text><text fill="#000000" font-family="sans-serif" font-size="13" lengthAdjust="spacing" textLength="5" x="288.2856" y="199.3351">*</text></g><!--SRC=[ZL3BIWH13BptLuGv2WjwzI38Ul7YPTYpPBlZJBFz8icWu-A_szC-Pa1G-vAagf8gMau-5MIC47FATkGS2PGdClBD5BGd7AZNEH0mMSKqXAr0HdJvsQS1dZ08cVfMqWOKkLLbVvoKxcrElNybk3Hcz8x0UhRrMEiZwPYT6DDsu92O1YzAJExn8CHd0m098osrL4d9h7jazp358_62edDC8akh-BBY5D67XbAWCkP4dzpRbri_LwS8vnLGLDhCTpKAUwiRQEzrRkEFgD1TTR3RjV9n-HfwIaxWvXVnHTTC5sce__o7TatqtuMMToD-1m00]--></g></svg>