<?xml version="1.0" encoding="us-ascii" standalone="no"?><svg xmlns="http://www.w3.org/2000/svg" xmlns:xlink="http://www.w3.org/1999/xlink" contentStyleType="text/css" height="419px" preserveAspectRatio="none" style="width:708px;height:419px;background:#FFFFFF;" version="1.1" viewBox="0 0 708 419" width="708px" zoomAndPan="magnify"><defs/><g><rect fill="#FFFFFF" height="238.0625" style="stroke:#181818;stroke-width:1.0;" width="10" x="91.5" y="91.2969"/><rect fill="#FFFFFF" height="29.1328" style="stroke:#181818;stroke-width:1.0;" width="10" x="641.5" y="112.4297"/><rect fill="#FFFFFF" height="29.1328" style="stroke:#181818;stroke-width:1.0;" width="10" x="641.5" y="194.8281"/><rect fill="#FFFFFF" height="29.1328" style="stroke:#181818;stroke-width:1.0;" width="10" x="641.5" y="277.2266"/><rect fill="none" height="164.7969" style="stroke:#000000;stroke-width:1.5;" width="692" x="10" y="156.5625"/><rect fill="none" height="75.3984" style="stroke:#000000;stroke-width:1.5;" width="672" x="20" y="238.9609"/><line style="stroke:#181818;stroke-width:0.5;stroke-dasharray:5.0,5.0;" x1="96" x2="96" y1="81.2969" y2="338.3594"/><line style="stroke:#181818;stroke-width:0.5;stroke-dasharray:5.0,5.0;" x1="646" x2="646" y1="81.2969" y2="338.3594"/><text fill="#000000" font-family="sans-serif" font-size="14" lengthAdjust="spacing" textLength="127" x="30" y="77.9951">Unregistered user</text><ellipse cx="96.5" cy="13.5" fill="#E3E3E3" rx="8" ry="8" style="stroke:#181818;stroke-width:0.5;"/><path d="M96.5,21.5 L96.5,48.5 M83.5,29.5 L109.5,29.5 M96.5,48.5 L83.5,63.5 M96.5,48.5 L109.5,63.5 " fill="none" style="stroke:#181818;stroke-width:0.5;"/><text fill="#000000" font-family="sans-serif" font-size="14" lengthAdjust="spacing" textLength="127" x="30" y="350.3545">Unregistered user</text><ellipse cx="96.5" cy="362.1563" fill="#E3E3E3" rx="8" ry="8" style="stroke:#181818;stroke-width:0.5;"/><path d="M96.5,370.1563 L96.5,397.1563 M83.5,378.1563 L109.5,378.1563 M96.5,397.1563 L83.5,412.1563 M96.5,397.1563 L109.5,412.1563 " fill="none" style="stroke:#181818;stroke-width:0.5;"/><rect fill="#E3E3E3" height="30.2969" rx="2.5" ry="2.5" style="stroke:#181818;stroke-width:0.5;" width="71" x="611" y="50"/><text fill="#000000" font-family="sans-serif" font-size="14" lengthAdjust="spacing" textLength="57" x="618" y="69.9951">:System</text><rect fill="#E3E3E3" height="30.2969" rx="2.5" ry="2.5" style="stroke:#181818;stroke-width:0.5;" width="71" x="611" y="337.3594"/><text fill="#000000" font-family="sans-serif" font-size="14" lengthAdjust="spacing" textLength="57" x="618" y="357.3545">:System</text><rect fill="#FFFFFF" height="238.0625" style="stroke:#181818;stroke-width:1.0;" width="10" x="91.5" y="91.2969"/><rect fill="#FFFFFF" height="29.1328" style="stroke:#181818;stroke-width:1.0;" width="10" x="641.5" y="112.4297"/><rect fill="#FFFFFF" height="29.1328" style="stroke:#181818;stroke-width:1.0;" width="10" x="641.5" y="194.8281"/><rect fill="#FFFFFF" height="29.1328" style="stroke:#181818;stroke-width:1.0;" width="10" x="641.5" y="277.2266"/><polygon fill="#181818" points="629.5,108.4297,639.5,112.4297,629.5,116.4297,633.5,112.4297" style="stroke:#181818;stroke-width:1.0;"/><line style="stroke:#181818;stroke-width:1.0;" x1="101.5" x2="635.5" y1="112.4297" y2="112.4297"/><text fill="#000000" font-family="sans-serif" font-size="13" font-weight="bold" lengthAdjust="spacing" textLength="9" x="108.5" y="107.3638">1</text><text fill="#000000" font-family="sans-serif" font-size="13" lengthAdjust="spacing" textLength="142" x="121.5" y="107.3638">Enters the application</text><polygon fill="#181818" points="112.5,137.5625,102.5,141.5625,112.5,145.5625,108.5,141.5625" style="stroke:#181818;stroke-width:1.0;"/><line style="stroke:#181818;stroke-width:1.0;stroke-dasharray:2.0,2.0;" x1="106.5" x2="645.5" y1="141.5625" y2="141.5625"/><text fill="#000000" font-family="sans-serif" font-size="13" font-weight="bold" lengthAdjust="spacing" textLength="9" x="118.5" y="136.4966">2</text><text fill="#000000" font-family="sans-serif" font-size="13" lengthAdjust="spacing" textLength="388" x="131.5" y="136.4966">Display listed properties the same way as a registered user</text><path d="M10,156.5625 L79,156.5625 L79,163.6953 L69,173.6953 L10,173.6953 L10,156.5625 " fill="#EEEEEE" style="stroke:#000000;stroke-width:1.5;"/><rect fill="none" height="164.7969" style="stroke:#000000;stroke-width:1.5;" width="692" x="10" y="156.5625"/><text fill="#000000" font-family="sans-serif" font-size="13" font-weight="bold" lengthAdjust="spacing" textLength="24" x="25" y="169.6294">opt</text><text fill="#000000" font-family="sans-serif" font-size="11" font-weight="bold" lengthAdjust="spacing" textLength="112" x="94" y="168.7729">[User uses filters]</text><polygon fill="#181818" points="629.5,190.8281,639.5,194.8281,629.5,198.8281,633.5,194.8281" style="stroke:#181818;stroke-width:1.0;"/><line style="stroke:#181818;stroke-width:1.0;" x1="101.5" x2="635.5" y1="194.8281" y2="194.8281"/><text fill="#000000" font-family="sans-serif" font-size="13" font-weight="bold" lengthAdjust="spacing" textLength="9" x="108.5" y="189.7622">3</text><text fill="#000000" font-family="sans-serif" font-size="13" lengthAdjust="spacing" textLength="508" x="121.5" y="189.7622">Filters by type of business, property, number of rooms, price, city and/or state</text><polygon fill="#181818" points="112.5,219.9609,102.5,223.9609,112.5,227.9609,108.5,223.9609" style="stroke:#181818;stroke-width:1.0;"/><line style="stroke:#181818;stroke-width:1.0;stroke-dasharray:2.0,2.0;" x1="106.5" x2="645.5" y1="223.9609" y2="223.9609"/><text fill="#000000" font-family="sans-serif" font-size="13" font-weight="bold" lengthAdjust="spacing" textLength="9" x="118.5" y="218.895">4</text><text fill="#000000" font-family="sans-serif" font-size="13" lengthAdjust="spacing" textLength="341" x="131.5" y="218.895">Returns the properties according to the filter(s) used</text><path d="M20,238.9609 L89,238.9609 L89,246.0938 L79,256.0938 L20,256.0938 L20,238.9609 " fill="#EEEEEE" style="stroke:#000000;stroke-width:1.5;"/><rect fill="none" height="75.3984" style="stroke:#000000;stroke-width:1.5;" width="672" x="20" y="238.9609"/><text fill="#000000" font-family="sans-serif" font-size="13" font-weight="bold" lengthAdjust="spacing" textLength="24" x="35" y="252.0278">opt</text><polygon fill="#181818" points="629.5,273.2266,639.5,277.2266,629.5,281.2266,633.5,277.2266" style="stroke:#181818;stroke-width:1.0;"/><line style="stroke:#181818;stroke-width:1.0;" x1="101.5" x2="635.5" y1="277.2266" y2="277.2266"/><text fill="#000000" font-family="sans-serif" font-size="13" font-weight="bold" lengthAdjust="spacing" textLength="9" x="108.5" y="272.1606">5</text><text fill="#000000" font-family="sans-serif" font-size="13" lengthAdjust="spacing" textLength="410" x="121.5" y="272.1606">Filters by price (or more) and sorts by ascending or descending</text><polygon fill="#181818" points="112.5,302.3594,102.5,306.3594,112.5,310.3594,108.5,306.3594" style="stroke:#181818;stroke-width:1.0;"/><line style="stroke:#181818;stroke-width:1.0;" x1="106.5" x2="645.5" y1="306.3594" y2="306.3594"/><text fill="#000000" font-family="sans-serif" font-size="13" font-weight="bold" lengthAdjust="spacing" textLength="9" x="118.5" y="301.2935">6</text><text fill="#000000" font-family="sans-serif" font-size="13" lengthAdjust="spacing" textLength="405" x="131.5" y="301.2935">Returns the properties according to the filter(s) and sorts used</text><!--SRC=[fP71Ri8m38RlVGgB4qYWtJdijEq1Dl409Z4beasYs1tgsyz9Ia5JnGxhfKv_v_V_kNnnFcB27lhWWpcdq1D86gZXMObeBjZIbumTGI8ZwDlkiO7FQCFL-HPEs34r3GuI_D0VAMbj92HO7NoYrh5G8Wi3Kre1CXoqQDH4d74HlS1g_pLgKr_KMXOBzur2jRq1VN85kzUf1VRmxjMQGSu466Fd38eBllJErsz- -UDqSQSUnMiFRuvZXoDqEQM5c48a3KRLb54NSrLPSo7yOYcEbXO7XIXrWZOod5oNSoupV5GHZYF860d22Ou3Eq_CsrkUSGjrirbD8VH5SeQsO9neF6zVTDyicgDPn5-c_oGPag-i3-XeJ4Ws_re9HQi0Qzva7liCV8AVwsUuXG3M6hmFYJQP0ZWaAIAo8Lyog6xfThfFMI9yfFm7v3t8ZFi7iePhflSF]--></g></svg>