<?xml version="1.0" encoding="us-ascii" standalone="no"?><svg xmlns="http://www.w3.org/2000/svg" xmlns:xlink="http://www.w3.org/1999/xlink" contentStyleType="text/css" height="340px" preserveAspectRatio="none" style="width:439px;height:340px;background:#FFFFFF;" version="1.1" viewBox="0 0 439 340" width="439px" zoomAndPan="magnify"><defs/><g><!--class ApplicationSession--><g id="elem_ApplicationSession"><rect codeLine="3" fill="#F1F1F1" height="79.2813" id="ApplicationSession" rx="2.5" ry="2.5" style="stroke:#181818;stroke-width:0.5;" width="151" x="7" y="254"/><ellipse cx="22" cy="270" fill="#ADD1B2" rx="11" ry="11" style="stroke:#181818;stroke-width:1.0;"/><path d="M24.7656,265.875 Q24.9219,265.6563 25.1094,265.5469 Q25.2969,265.4375 25.5156,265.4375 Q25.8906,265.4375 26.125,265.7031 Q26.3594,265.9531 26.3594,266.5625 L26.3594,268.0156 Q26.3594,268.625 26.125,268.8906 Q25.8906,269.1563 25.5156,269.1563 Q25.1719,269.1563 24.9688,268.9531 Q24.7656,268.7656 24.6563,268.25 Q24.6094,267.8906 24.4219,267.7031 Q24.0938,267.3281 23.4844,267.1094 Q22.875,266.8906 22.25,266.8906 Q21.4844,266.8906 20.8438,267.2188 Q20.2188,267.5469 19.7188,268.2969 Q19.2344,269.0469 19.2344,270.0781 L19.2344,271.1719 Q19.2344,272.4063 20.125,273.2344 Q21.0156,274.0469 22.6094,274.0469 Q23.5469,274.0469 24.2031,273.7969 Q24.5938,273.6406 25.0156,273.2031 Q25.2813,272.9375 25.4219,272.8594 Q25.5781,272.7813 25.7813,272.7813 Q26.1094,272.7813 26.3594,273.0469 Q26.625,273.2969 26.625,273.6406 Q26.625,273.9844 26.2813,274.3906 Q25.7813,274.9688 24.9844,275.2969 Q23.9063,275.75 22.6094,275.75 Q21.0938,275.75 19.8906,275.125 Q18.9063,274.625 18.2188,273.5625 Q17.5313,272.4844 17.5313,271.2031 L17.5313,270.0469 Q17.5313,268.7188 18.1406,267.5781 Q18.7656,266.4219 19.8594,265.8125 Q20.9531,265.1875 22.1875,265.1875 Q22.9219,265.1875 23.5625,265.3594 Q24.2188,265.5156 24.7656,265.875 Z " fill="#000000"/><text fill="#000000" font-family="sans-serif" font-size="14" lengthAdjust="spacing" textLength="119" x="36" y="274.8535">ApplicationSession</text><line style="stroke:#181818;stroke-width:0.5;" x1="8" x2="157" y1="286" y2="286"/><line style="stroke:#181818;stroke-width:0.5;" x1="8" x2="157" y1="294" y2="294"/><text fill="#000000" font-family="sans-serif" font-size="14" lengthAdjust="spacing" textLength="128" x="13" y="310.6738">+static getInstance()</text><text fill="#000000" font-family="sans-serif" font-size="14" lengthAdjust="spacing" textLength="136" x="13" y="326.3145">+getCurrentSession()</text></g><!--class UserSession--><g id="elem_UserSession"><rect codeLine="9" fill="#F1F1F1" height="63.6406" id="UserSession" rx="2.5" ry="2.5" style="stroke:#181818;stroke-width:0.5;" width="239" x="193" y="261.5"/><ellipse cx="268.75" cy="277.5" fill="#ADD1B2" rx="11" ry="11" style="stroke:#181818;stroke-width:1.0;"/><path d="M271.5156,273.375 Q271.6719,273.1563 271.8594,273.0469 Q272.0469,272.9375 272.2656,272.9375 Q272.6406,272.9375 272.875,273.2031 Q273.1094,273.4531 273.1094,274.0625 L273.1094,275.5156 Q273.1094,276.125 272.875,276.3906 Q272.6406,276.6563 272.2656,276.6563 Q271.9219,276.6563 271.7188,276.4531 Q271.5156,276.2656 271.4063,275.75 Q271.3594,275.3906 271.1719,275.2031 Q270.8438,274.8281 270.2344,274.6094 Q269.625,274.3906 269,274.3906 Q268.2344,274.3906 267.5938,274.7188 Q266.9688,275.0469 266.4688,275.7969 Q265.9844,276.5469 265.9844,277.5781 L265.9844,278.6719 Q265.9844,279.9063 266.875,280.7344 Q267.7656,281.5469 269.3594,281.5469 Q270.2969,281.5469 270.9531,281.2969 Q271.3438,281.1406 271.7656,280.7031 Q272.0313,280.4375 272.1719,280.3594 Q272.3281,280.2813 272.5313,280.2813 Q272.8594,280.2813 273.1094,280.5469 Q273.375,280.7969 273.375,281.1406 Q273.375,281.4844 273.0313,281.8906 Q272.5313,282.4688 271.7344,282.7969 Q270.6563,283.25 269.3594,283.25 Q267.8438,283.25 266.6406,282.625 Q265.6563,282.125 264.9688,281.0625 Q264.2813,279.9844 264.2813,278.7031 L264.2813,277.5469 Q264.2813,276.2188 264.8906,275.0781 Q265.5156,273.9219 266.6094,273.3125 Q267.7031,272.6875 268.9375,272.6875 Q269.6719,272.6875 270.3125,272.8594 Q270.9688,273.0156 271.5156,273.375 Z " fill="#000000"/><text fill="#000000" font-family="sans-serif" font-size="14" lengthAdjust="spacing" textLength="79" x="289.25" y="282.3535">UserSession</text><line style="stroke:#181818;stroke-width:0.5;" x1="194" x2="431" y1="293.5" y2="293.5"/><line style="stroke:#181818;stroke-width:0.5;" x1="194" x2="431" y1="301.5" y2="301.5"/><text fill="#000000" font-family="sans-serif" font-size="14" lengthAdjust="spacing" textLength="227" x="199" y="318.1738">+isLoggedInWithRole(USER_ROLE)</text></g><!--class {NameOfUC}Controller--><g id="elem_{NameOfUC}Controller"><rect codeLine="14" fill="#F1F1F1" height="79.2813" id="{NameOfUC}Controller" rx="2.5" ry="2.5" style="stroke:#181818;stroke-width:0.5;" width="174" x="110.5" y="115"/><ellipse cx="125.5" cy="131" fill="#ADD1B2" rx="11" ry="11" style="stroke:#181818;stroke-width:1.0;"/><path d="M128.2656,126.875 Q128.4219,126.6563 128.6094,126.5469 Q128.7969,126.4375 129.0156,126.4375 Q129.3906,126.4375 129.625,126.7031 Q129.8594,126.9531 129.8594,127.5625 L129.8594,129.0156 Q129.8594,129.625 129.625,129.8906 Q129.3906,130.1563 129.0156,130.1563 Q128.6719,130.1563 128.4688,129.9531 Q128.2656,129.7656 128.1563,129.25 Q128.1094,128.8906 127.9219,128.7031 Q127.5938,128.3281 126.9844,128.1094 Q126.375,127.8906 125.75,127.8906 Q124.9844,127.8906 124.3438,128.2188 Q123.7188,128.5469 123.2188,129.2969 Q122.7344,130.0469 122.7344,131.0781 L122.7344,132.1719 Q122.7344,133.4063 123.625,134.2344 Q124.5156,135.0469 126.1094,135.0469 Q127.0469,135.0469 127.7031,134.7969 Q128.0938,134.6406 128.5156,134.2031 Q128.7813,133.9375 128.9219,133.8594 Q129.0781,133.7813 129.2813,133.7813 Q129.6094,133.7813 129.8594,134.0469 Q130.125,134.2969 130.125,134.6406 Q130.125,134.9844 129.7813,135.3906 Q129.2813,135.9688 128.4844,136.2969 Q127.4063,136.75 126.1094,136.75 Q124.5938,136.75 123.3906,136.125 Q122.4063,135.625 121.7188,134.5625 Q121.0313,133.4844 121.0313,132.2031 L121.0313,131.0469 Q121.0313,129.7188 121.6406,128.5781 Q122.2656,127.4219 123.3594,126.8125 Q124.4531,126.1875 125.6875,126.1875 Q126.4219,126.1875 127.0625,126.3594 Q127.7188,126.5156 128.2656,126.875 Z " fill="#000000"/><text fill="#000000" font-family="sans-serif" font-size="14" lengthAdjust="spacing" textLength="142" x="139.5" y="135.8535">{NameOfUC}Controller</text><line style="stroke:#181818;stroke-width:0.5;" x1="111.5" x2="283.5" y1="147" y2="147"/><line style="stroke:#181818;stroke-width:0.5;" x1="111.5" x2="283.5" y1="155" y2="155"/><text fill="#000000" font-family="sans-serif" font-size="14" lengthAdjust="spacing" textLength="160" x="116.5" y="171.6738">+{NameOfUC}Controller()</text><text fill="#000000" font-family="sans-serif" font-size="14" lengthAdjust="spacing" textLength="85" x="116.5" y="187.3145">+methodX(...)</text></g><!--class {NameOfUC}UI--><g id="elem_{NameOfUC}UI"><rect codeLine="19" fill="#F1F1F1" height="48" id="{NameOfUC}UI" rx="2.5" ry="2.5" style="stroke:#181818;stroke-width:0.5;" width="124" x="135.5" y="7"/><ellipse cx="150.5" cy="23" fill="#ADD1B2" rx="11" ry="11" style="stroke:#181818;stroke-width:1.0;"/><path d="M153.2656,18.875 Q153.4219,18.6563 153.6094,18.5469 Q153.7969,18.4375 154.0156,18.4375 Q154.3906,18.4375 154.625,18.7031 Q154.8594,18.9531 154.8594,19.5625 L154.8594,21.0156 Q154.8594,21.625 154.625,21.8906 Q154.3906,22.1563 154.0156,22.1563 Q153.6719,22.1563 153.4688,21.9531 Q153.2656,21.7656 153.1563,21.25 Q153.1094,20.8906 152.9219,20.7031 Q152.5938,20.3281 151.9844,20.1094 Q151.375,19.8906 150.75,19.8906 Q149.9844,19.8906 149.3438,20.2188 Q148.7188,20.5469 148.2188,21.2969 Q147.7344,22.0469 147.7344,23.0781 L147.7344,24.1719 Q147.7344,25.4063 148.625,26.2344 Q149.5156,27.0469 151.1094,27.0469 Q152.0469,27.0469 152.7031,26.7969 Q153.0938,26.6406 153.5156,26.2031 Q153.7813,25.9375 153.9219,25.8594 Q154.0781,25.7813 154.2813,25.7813 Q154.6094,25.7813 154.8594,26.0469 Q155.125,26.2969 155.125,26.6406 Q155.125,26.9844 154.7813,27.3906 Q154.2813,27.9688 153.4844,28.2969 Q152.4063,28.75 151.1094,28.75 Q149.5938,28.75 148.3906,28.125 Q147.4063,27.625 146.7188,26.5625 Q146.0313,25.4844 146.0313,24.2031 L146.0313,23.0469 Q146.0313,21.7188 146.6406,20.5781 Q147.2656,19.4219 148.3594,18.8125 Q149.4531,18.1875 150.6875,18.1875 Q151.4219,18.1875 152.0625,18.3594 Q152.7188,18.5156 153.2656,18.875 Z " fill="#000000"/><text fill="#000000" font-family="sans-serif" font-size="14" lengthAdjust="spacing" textLength="92" x="164.5" y="27.8535">{NameOfUC}UI</text><line style="stroke:#181818;stroke-width:0.5;" x1="136.5" x2="258.5" y1="39" y2="39"/><line style="stroke:#181818;stroke-width:0.5;" x1="136.5" x2="258.5" y1="47" y2="47"/></g><!--link {NameOfUC}UI to {NameOfUC}Controller--><g id="link_{NameOfUC}UI_{NameOfUC}Controller"><path codeLine="22" d="M197.5,55.14 C197.5,70.5 197.5,91.14 197.5,109.55 " fill="none" id="{NameOfUC}UI-to-{NameOfUC}Controller" style="stroke:#181818;stroke-width:1.0;stroke-dasharray:7.0,7.0;"/><polygon fill="#181818" points="197.5,114.67,201.5,105.67,197.5,109.67,193.5,105.67,197.5,114.67" style="stroke:#181818;stroke-width:1.0;"/></g><!--link {NameOfUC}Controller to ApplicationSession--><g id="link_{NameOfUC}Controller_ApplicationSession"><path codeLine="23" d="M165.16,194.03 C150.58,211.39 133.32,231.96 118.35,249.79 " fill="none" id="{NameOfUC}Controller-to-ApplicationSession" style="stroke:#181818;stroke-width:1.0;stroke-dasharray:7.0,7.0;"/><polygon fill="#181818" points="115,253.79,123.8504,249.4691,118.215,249.9606,117.7234,244.3252,115,253.79" style="stroke:#181818;stroke-width:1.0;"/></g><!--link {NameOfUC}Controller to UserSession--><g id="link_{NameOfUC}Controller_UserSession"><path codeLine="24" d="M229.84,194.03 C246.39,213.75 266.41,237.59 282.6,256.88 " fill="none" id="{NameOfUC}Controller-to-UserSession" style="stroke:#181818;stroke-width:1.0;stroke-dasharray:7.0,7.0;"/><polygon fill="#181818" points="286.2,261.17,283.4766,251.7052,282.985,257.3406,277.3496,256.8491,286.2,261.17" style="stroke:#181818;stroke-width:1.0;"/></g><!--SRC=[VP312i8m38RlVOgoqqGeFe4mnWw3uM1Zw4rg5xTYruuskoY-kwqeg6oUMlul-HBYBbAFtFA12iMTIn2jF4q8kJ2wbbUW6qAUX2RZgAJWA3q0v_n3ReJIjKEV2Te1vjh_jO1u5N8Vf9EreF5LxkFxMzOui5yMwGhJTT3cUY-nhuo2kAcpwbYLHVRH5zrsV83otAJtr6YqHYcm4GqABw5pzBbDW0DWRzf3p1YRDpPvC7doap6sNHXC5lO97JFt-bFzUP07]--></g></svg>