<?xml version="1.0" encoding="us-ascii" standalone="no"?><svg xmlns="http://www.w3.org/2000/svg" xmlns:xlink="http://www.w3.org/1999/xlink" contentStyleType="text/css" height="516px" preserveAspectRatio="none" style="width:782px;height:516px;background:#FFFFFF;" version="1.1" viewBox="0 0 782 516" width="782px" zoomAndPan="magnify"><defs/><g><rect fill="#FFFFFF" height="394.7578" style="stroke:#181818;stroke-width:1.0;" width="10" x="271" y="61.2813"/><rect fill="#FFFFFF" height="33.5234" style="stroke:#181818;stroke-width:1.0;" width="10" x="276" y="312.9922"/><rect fill="#FFFFFF" height="28.5234" style="stroke:#181818;stroke-width:1.0;" width="10" x="427.5" y="110.3281"/><rect fill="#FFFFFF" height="28.5234" style="stroke:#181818;stroke-width:1.0;" width="10" x="572.5" y="167.375"/><rect fill="#FFFFFF" height="28.5234" style="stroke:#181818;stroke-width:1.0;" width="10" x="705.5" y="224.4219"/><rect fill="none" height="181.0938" style="stroke:#000000;stroke-width:1.5;" width="764" x="11" y="267.9453"/><line style="stroke:#181818;stroke-width:0.5;stroke-dasharray:5.0,5.0;" x1="276" x2="276" y1="51.2813" y2="466.0391"/><line style="stroke:#181818;stroke-width:0.5;stroke-dasharray:5.0,5.0;" x1="432" x2="432" y1="51.2813" y2="466.0391"/><line style="stroke:#181818;stroke-width:0.5;stroke-dasharray:5.0,5.0;" x1="577" x2="577" y1="51.2813" y2="466.0391"/><line style="stroke:#181818;stroke-width:0.5;stroke-dasharray:5.0,5.0;" x1="710" x2="710" y1="51.2813" y2="466.0391"/><rect fill="#E3E3E3" height="29.6406" rx="2.5" ry="2.5" style="stroke:#181818;stroke-width:0.5;" width="160" x="196" y="20.6406"/><text fill="#000000" font-family="sans-serif" font-size="14" lengthAdjust="spacing" textLength="146" x="203" y="40.3145">:{NameOfUC}Controller</text><rect fill="#E3E3E3" height="29.6406" rx="2.5" ry="2.5" style="stroke:#181818;stroke-width:0.5;" width="160" x="196" y="465.0391"/><text fill="#000000" font-family="sans-serif" font-size="14" lengthAdjust="spacing" textLength="146" x="203" y="484.7129">:{NameOfUC}Controller</text><rect fill="#E3E3E3" height="29.6406" rx="2.5" ry="2.5" style="stroke:#181818;stroke-width:0.5;" width="133" x="366" y="20.6406"/><text fill="#000000" font-family="sans-serif" font-size="14" lengthAdjust="spacing" textLength="119" x="373" y="40.3145">ApplicationSession</text><rect fill="#E3E3E3" height="29.6406" rx="2.5" ry="2.5" style="stroke:#181818;stroke-width:0.5;" width="133" x="366" y="465.0391"/><text fill="#000000" font-family="sans-serif" font-size="14" lengthAdjust="spacing" textLength="119" x="373" y="484.7129">ApplicationSession</text><rect fill="#E3E3E3" height="45.2813" rx="2.5" ry="2.5" style="stroke:#181818;stroke-width:0.5;" width="137" x="509" y="5"/><text fill="#000000" font-family="sans-serif" font-size="14" lengthAdjust="spacing" textLength="74" x="540.5" y="24.6738">appSession</text><text fill="#000000" font-family="sans-serif" font-size="14" lengthAdjust="spacing" textLength="123" x="516" y="40.3145">:ApplicationSession</text><rect fill="#E3E3E3" height="45.2813" rx="2.5" ry="2.5" style="stroke:#181818;stroke-width:0.5;" width="137" x="509" y="465.0391"/><text fill="#000000" font-family="sans-serif" font-size="14" lengthAdjust="spacing" textLength="74" x="540.5" y="484.7129">appSession</text><text fill="#000000" font-family="sans-serif" font-size="14" lengthAdjust="spacing" textLength="123" x="516" y="500.3535">:ApplicationSession</text><rect fill="#E3E3E3" height="45.2813" rx="2.5" ry="2.5" style="stroke:#181818;stroke-width:0.5;" width="109" x="656" y="5"/><text fill="#000000" font-family="sans-serif" font-size="14" lengthAdjust="spacing" textLength="95" x="663" y="24.6738">currentSession</text><text fill="#000000" font-family="sans-serif" font-size="14" lengthAdjust="spacing" textLength="83" x="669" y="40.3145">:UserSession</text><rect fill="#E3E3E3" height="45.2813" rx="2.5" ry="2.5" style="stroke:#181818;stroke-width:0.5;" width="109" x="656" y="465.0391"/><text fill="#000000" font-family="sans-serif" font-size="14" lengthAdjust="spacing" textLength="95" x="663" y="484.7129">currentSession</text><text fill="#000000" font-family="sans-serif" font-size="14" lengthAdjust="spacing" textLength="83" x="669" y="500.3535">:UserSession</text><rect fill="#FFFFFF" height="394.7578" style="stroke:#181818;stroke-width:1.0;" width="10" x="271" y="61.2813"/><rect fill="#FFFFFF" height="33.5234" style="stroke:#181818;stroke-width:1.0;" width="10" x="276" y="312.9922"/><rect fill="#FFFFFF" height="28.5234" style="stroke:#181818;stroke-width:1.0;" width="10" x="427.5" y="110.3281"/><rect fill="#FFFFFF" height="28.5234" style="stroke:#181818;stroke-width:1.0;" width="10" x="572.5" y="167.375"/><rect fill="#FFFFFF" height="28.5234" style="stroke:#181818;stroke-width:1.0;" width="10" x="705.5" y="224.4219"/><ellipse cx="7.5" cy="81.0547" fill="none" rx="4" ry="4" style="stroke:#181818;stroke-width:1.5;"/><polygon fill="#181818" points="259,77.8047,269,81.8047,259,85.8047,263,81.8047" style="stroke:#181818;stroke-width:1.0;"/><line style="stroke:#181818;stroke-width:1.0;" x1="12" x2="265" y1="81.8047" y2="81.8047"/><text fill="#000000" font-family="sans-serif" font-size="13" font-weight="bold" lengthAdjust="spacing" textLength="7" x="15" y="77.0498">1</text><text fill="#000000" font-family="sans-serif" font-size="13" lengthAdjust="spacing" textLength="44" x="26" y="77.0498">create()</text><polygon fill="#181818" points="415.5,106.3281,425.5,110.3281,415.5,114.3281,419.5,110.3281" style="stroke:#181818;stroke-width:1.0;"/><line style="stroke:#181818;stroke-width:1.0;" x1="281" x2="421.5" y1="110.3281" y2="110.3281"/><text fill="#000000" font-family="sans-serif" font-size="13" font-weight="bold" lengthAdjust="spacing" textLength="7" x="288" y="105.5732">2</text><text fill="#000000" font-family="sans-serif" font-size="13" lengthAdjust="spacing" textLength="75" x="299" y="105.5732">getinstance()</text><polygon fill="#181818" points="292,134.8516,282,138.8516,292,142.8516,288,138.8516" style="stroke:#181818;stroke-width:1.0;"/><line style="stroke:#181818;stroke-width:1.0;stroke-dasharray:2.0,2.0;" x1="286" x2="431.5" y1="138.8516" y2="138.8516"/><text fill="#000000" font-family="sans-serif" font-size="13" font-weight="bold" lengthAdjust="spacing" textLength="7" x="298" y="134.0967">3</text><text fill="#000000" font-family="sans-serif" font-size="13" lengthAdjust="spacing" textLength="68" x="309" y="134.0967">appSession</text><polygon fill="#181818" points="560.5,163.375,570.5,167.375,560.5,171.375,564.5,167.375" style="stroke:#181818;stroke-width:1.0;"/><line style="stroke:#181818;stroke-width:1.0;" x1="281" x2="566.5" y1="167.375" y2="167.375"/><text fill="#000000" font-family="sans-serif" font-size="13" font-weight="bold" lengthAdjust="spacing" textLength="7" x="288" y="162.6201">4</text><text fill="#000000" font-family="sans-serif" font-size="13" lengthAdjust="spacing" textLength="115" x="299" y="162.6201">getCurrentSession()</text><polygon fill="#181818" points="292,191.8984,282,195.8984,292,199.8984,288,195.8984" style="stroke:#181818;stroke-width:1.0;"/><line style="stroke:#181818;stroke-width:1.0;stroke-dasharray:2.0,2.0;" x1="286" x2="576.5" y1="195.8984" y2="195.8984"/><text fill="#000000" font-family="sans-serif" font-size="13" font-weight="bold" lengthAdjust="spacing" textLength="7" x="298" y="191.1436">5</text><text fill="#000000" font-family="sans-serif" font-size="13" lengthAdjust="spacing" textLength="87" x="309" y="191.1436">currentSession</text><polygon fill="#181818" points="693.5,220.4219,703.5,224.4219,693.5,228.4219,697.5,224.4219" style="stroke:#181818;stroke-width:1.0;"/><line style="stroke:#181818;stroke-width:1.0;" x1="281" x2="699.5" y1="224.4219" y2="224.4219"/><text fill="#000000" font-family="sans-serif" font-size="13" font-weight="bold" lengthAdjust="spacing" textLength="7" x="288" y="219.667">6</text><text fill="#000000" font-family="sans-serif" font-size="13" lengthAdjust="spacing" textLength="201" x="299" y="219.667">isLoggedInWithRole(USER_ROLE)</text><polygon fill="#181818" points="292,248.9453,282,252.9453,292,256.9453,288,252.9453" style="stroke:#181818;stroke-width:1.0;"/><line style="stroke:#181818;stroke-width:1.0;stroke-dasharray:2.0,2.0;" x1="286" x2="709.5" y1="252.9453" y2="252.9453"/><text fill="#000000" font-family="sans-serif" font-size="13" font-weight="bold" lengthAdjust="spacing" textLength="7" x="298" y="248.1904">7</text><text fill="#000000" font-family="sans-serif" font-size="13" lengthAdjust="spacing" textLength="41" x="309" y="248.1904">answer</text><path d="M11,267.9453 L72,267.9453 L72,274.4688 L62,284.4688 L11,284.4688 L11,267.9453 " fill="#EEEEEE" style="stroke:#000000;stroke-width:1.5;"/><rect fill="none" height="181.0938" style="stroke:#000000;stroke-width:1.5;" width="764" x="11" y="267.9453"/><text fill="#000000" font-family="sans-serif" font-size="13" font-weight="bold" lengthAdjust="spacing" textLength="16" x="26" y="280.7139">alt</text><text fill="#000000" font-family="sans-serif" font-size="11" font-weight="bold" lengthAdjust="spacing" textLength="85" x="87" y="279.9033">[answer = true]</text><line style="stroke:#181818;stroke-width:1.0;" x1="281" x2="328" y1="299.9922" y2="299.9922"/><line style="stroke:#181818;stroke-width:1.0;" x1="328" x2="328" y1="299.9922" y2="312.9922"/><line style="stroke:#181818;stroke-width:1.0;" x1="287" x2="328" y1="312.9922" y2="312.9922"/><polygon fill="#181818" points="297,308.9922,287,312.9922,297,316.9922,293,312.9922" style="stroke:#181818;stroke-width:1.0;"/><text fill="#000000" font-family="sans-serif" font-size="13" font-weight="bold" lengthAdjust="spacing" textLength="7" x="293" y="295.2373">8</text><text fill="#000000" font-family="sans-serif" font-size="13" lengthAdjust="spacing" textLength="99" x="304" y="295.2373">doesOtherThing()</text><ellipse cx="7.5" cy="345.7656" fill="none" rx="4" ry="4" style="stroke:#181818;stroke-width:1.5;"/><polygon fill="#181818" points="24.5,342.5156,14.5,346.5156,24.5,350.5156,20.5,346.5156" style="stroke:#181818;stroke-width:1.0;"/><line style="stroke:#181818;stroke-width:1.0;stroke-dasharray:2.0,2.0;" x1="22.5" x2="270" y1="346.5156" y2="346.5156"/><text fill="#000000" font-family="sans-serif" font-size="13" font-weight="bold" lengthAdjust="spacing" textLength="7" x="25" y="341.7607">9</text><text fill="#000000" font-family="sans-serif" font-size="13" lengthAdjust="spacing" textLength="14" x="36" y="341.7607">ok</text><polygon fill="#FFFFFF" points="698.5,356.5156,708.5,360.5156,698.5,364.5156,702.5,360.5156" style="stroke:#FFFFFF;stroke-width:1.0;"/><line style="stroke:#FFFFFF;stroke-width:1.0;" x1="281" x2="704.5" y1="360.5156" y2="360.5156"/><line style="stroke:#000000;stroke-width:1.0;stroke-dasharray:2.0,2.0;" x1="11" x2="775" y1="369.5156" y2="369.5156"/><ellipse cx="7.5" cy="415.2891" fill="none" rx="4" ry="4" style="stroke:#181818;stroke-width:1.5;"/><polygon fill="#181818" points="24.5,412.0391,14.5,416.0391,24.5,420.0391,20.5,416.0391" style="stroke:#181818;stroke-width:1.0;"/><line style="stroke:#181818;stroke-width:1.0;stroke-dasharray:2.0,2.0;" x1="22.5" x2="270" y1="416.0391" y2="416.0391"/><text fill="#000000" font-family="sans-serif" font-size="13" font-weight="bold" lengthAdjust="spacing" textLength="14" x="25" y="411.2842">10</text><text fill="#000000" font-family="sans-serif" font-size="13" lengthAdjust="spacing" textLength="226" x="43" y="411.2842">illegalStateException("Not Authorized")</text><!--SRC=[XPFFZjem4CRlVWgBFPGzy09eknAAE4H2i4eMzK2hokiCYONZYUn9sRRqtUlyWJWqg_gIoFw-Bx-PUDn9cKfOKV8I3Sh2OWcSR0tCtKug8KyYXvH-Qk0M90cJwr3W2f7XMPcS7uLsm9Ye2KrTle5bx5EXCk17H7h3T-ODfAIgX24-M_xUYX9snttq9q935hK6E-F2yUWrsOorgwhIIWfIQ59mpZzQuUhb9LsdQRpRHcEzgAfUzzKi_skEnsPPMmk6Xe2z0niwettIEtsnajGFGT117t3ntBxn9PSM_FxyaN6_sZr_5X1xIGwaZFCTbOsk5TxomjfulqBtOlZIK6shp60ov0EEkEE8HaNtr1CvyGHC7CACk_SnK3m66dhgCvJRO9v35filYee4DSptwJhvdkmswpkou5zSmOAei4d6dVsDlEC9VsMRgwbNyi_T9DnIhw1TN8RWTbI0VItyrU_xDIPhBWGFrW6V5ekh7q-tin0dz0npn1rXTKToU3WNYk3RyrGB0gi5LvTT6T2CvrLokLpO99doSvWBdP87MhzBg9h1cS-sI7nLKu5M_O9izlXF49YiQHzZz_Ny1G00]--></g></svg>