<?xml version="1.0" encoding="us-ascii" standalone="no"?><svg xmlns="http://www.w3.org/2000/svg" xmlns:xlink="http://www.w3.org/1999/xlink" contentStyleType="text/css" height="425px" preserveAspectRatio="none" style="width:447px;height:425px;background:#FFFFFF;" version="1.1" viewBox="0 0 447 425" width="447px" zoomAndPan="magnify"><defs/><g><rect fill="#FFFFFF" height="244.4766" style="stroke:#181818;stroke-width:1.0;" width="10" x="84.5" y="90.6406"/><rect fill="#FFFFFF" height="28.5234" style="stroke:#181818;stroke-width:1.0;" width="10" x="369.5" y="111.1641"/><rect fill="#FFFFFF" height="28.5234" style="stroke:#181818;stroke-width:1.0;" width="10" x="369.5" y="168.2109"/><rect fill="#FFFFFF" height="94.8594" style="stroke:#181818;stroke-width:1.0;" width="10" x="369.5" y="225.2578"/><rect fill="none" height="87.8594" style="stroke:#000000;stroke-width:1.5;" width="430" x="10" y="240.2578"/><line style="stroke:#181818;stroke-width:0.5;stroke-dasharray:5.0,5.0;" x1="89" x2="89" y1="80.6406" y2="345.1172"/><line style="stroke:#181818;stroke-width:0.5;stroke-dasharray:5.0,5.0;" x1="374.5" x2="374.5" y1="80.6406" y2="345.1172"/><text fill="#000000" font-family="sans-serif" font-size="14" lengthAdjust="spacing" textLength="133" x="20" y="77.6738">System Administrator</text><ellipse cx="89.5" cy="13.5" fill="#E3E3E3" rx="8" ry="8" style="stroke:#181818;stroke-width:0.5;"/><path d="M89.5,21.5 L89.5,48.5 M76.5,29.5 L102.5,29.5 M89.5,48.5 L76.5,63.5 M89.5,48.5 L102.5,63.5 " fill="none" style="stroke:#181818;stroke-width:0.5;"/><text fill="#000000" font-family="sans-serif" font-size="14" lengthAdjust="spacing" textLength="133" x="20" y="356.791">System Administrator</text><ellipse cx="89.5" cy="368.2578" fill="#E3E3E3" rx="8" ry="8" style="stroke:#181818;stroke-width:0.5;"/><path d="M89.5,376.2578 L89.5,403.2578 M76.5,384.2578 L102.5,384.2578 M89.5,403.2578 L76.5,418.2578 M89.5,403.2578 L102.5,418.2578 " fill="none" style="stroke:#181818;stroke-width:0.5;"/><rect fill="#E3E3E3" height="29.6406" rx="2.5" ry="2.5" style="stroke:#181818;stroke-width:0.5;" width="64" x="342.5" y="50"/><text fill="#000000" font-family="sans-serif" font-size="14" lengthAdjust="spacing" textLength="50" x="349.5" y="69.6738">:System</text><rect fill="#E3E3E3" height="29.6406" rx="2.5" ry="2.5" style="stroke:#181818;stroke-width:0.5;" width="64" x="342.5" y="344.1172"/><text fill="#000000" font-family="sans-serif" font-size="14" lengthAdjust="spacing" textLength="50" x="349.5" y="363.791">:System</text><rect fill="#FFFFFF" height="244.4766" style="stroke:#181818;stroke-width:1.0;" width="10" x="84.5" y="90.6406"/><rect fill="#FFFFFF" height="28.5234" style="stroke:#181818;stroke-width:1.0;" width="10" x="369.5" y="111.1641"/><rect fill="#FFFFFF" height="28.5234" style="stroke:#181818;stroke-width:1.0;" width="10" x="369.5" y="168.2109"/><rect fill="#FFFFFF" height="94.8594" style="stroke:#181818;stroke-width:1.0;" width="10" x="369.5" y="225.2578"/><polygon fill="#181818" points="357.5,107.1641,367.5,111.1641,357.5,115.1641,361.5,111.1641" style="stroke:#181818;stroke-width:1.0;"/><line style="stroke:#181818;stroke-width:1.0;" x1="94.5" x2="363.5" y1="111.1641" y2="111.1641"/><text fill="#000000" font-family="sans-serif" font-size="13" font-weight="bold" lengthAdjust="spacing" textLength="7" x="101.5" y="106.4092">1</text><text fill="#000000" font-family="sans-serif" font-size="13" lengthAdjust="spacing" textLength="245" x="112.5" y="106.4092">Asks to import a file from a legacy system</text><polygon fill="#181818" points="105.5,135.6875,95.5,139.6875,105.5,143.6875,101.5,139.6875" style="stroke:#181818;stroke-width:1.0;"/><line style="stroke:#181818;stroke-width:1.0;stroke-dasharray:2.0,2.0;" x1="99.5" x2="373.5" y1="139.6875" y2="139.6875"/><text fill="#000000" font-family="sans-serif" font-size="13" font-weight="bold" lengthAdjust="spacing" textLength="7" x="111.5" y="134.9326">2</text><text fill="#000000" font-family="sans-serif" font-size="13" lengthAdjust="spacing" textLength="77" x="122.5" y="134.9326">Request data</text><polygon fill="#181818" points="357.5,164.2109,367.5,168.2109,357.5,172.2109,361.5,168.2109" style="stroke:#181818;stroke-width:1.0;"/><line style="stroke:#181818;stroke-width:1.0;" x1="94.5" x2="363.5" y1="168.2109" y2="168.2109"/><text fill="#000000" font-family="sans-serif" font-size="13" font-weight="bold" lengthAdjust="spacing" textLength="7" x="101.5" y="163.4561">3</text><text fill="#000000" font-family="sans-serif" font-size="13" lengthAdjust="spacing" textLength="180" x="112.5" y="163.4561">Types requested data (filePath)</text><polygon fill="#181818" points="105.5,192.7344,95.5,196.7344,105.5,200.7344,101.5,196.7344" style="stroke:#181818;stroke-width:1.0;"/><line style="stroke:#181818;stroke-width:1.0;stroke-dasharray:2.0,2.0;" x1="99.5" x2="373.5" y1="196.7344" y2="196.7344"/><text fill="#000000" font-family="sans-serif" font-size="13" font-weight="bold" lengthAdjust="spacing" textLength="7" x="111.5" y="191.9795">4</text><text fill="#000000" font-family="sans-serif" font-size="13" lengthAdjust="spacing" textLength="236" x="122.5" y="191.9795">Shows requested data and asks submits</text><polygon fill="#181818" points="357.5,221.2578,367.5,225.2578,357.5,229.2578,361.5,225.2578" style="stroke:#181818;stroke-width:1.0;"/><line style="stroke:#181818;stroke-width:1.0;" x1="94.5" x2="363.5" y1="225.2578" y2="225.2578"/><text fill="#000000" font-family="sans-serif" font-size="13" font-weight="bold" lengthAdjust="spacing" textLength="7" x="101.5" y="220.5029">5</text><text fill="#000000" font-family="sans-serif" font-size="13" lengthAdjust="spacing" textLength="193" x="112.5" y="220.5029">Submits requested data (filePath)</text><path d="M10,240.2578 L71,240.2578 L71,246.7813 L61,256.7813 L10,256.7813 L10,240.2578 " fill="#EEEEEE" style="stroke:#000000;stroke-width:1.5;"/><rect fill="none" height="87.8594" style="stroke:#000000;stroke-width:1.5;" width="430" x="10" y="240.2578"/><text fill="#000000" font-family="sans-serif" font-size="13" font-weight="bold" lengthAdjust="spacing" textLength="16" x="25" y="253.0264">alt</text><text fill="#000000" font-family="sans-serif" font-size="11" font-weight="bold" lengthAdjust="spacing" textLength="349" x="86" y="252.2158">[The file is empty or its content is not in the requested format.]</text><polygon fill="#181818" points="105.5,273.3047,95.5,277.3047,105.5,281.3047,101.5,277.3047" style="stroke:#181818;stroke-width:1.0;"/><line style="stroke:#181818;stroke-width:1.0;stroke-dasharray:2.0,2.0;" x1="99.5" x2="368.5" y1="277.3047" y2="277.3047"/><text fill="#000000" font-family="sans-serif" font-size="13" font-weight="bold" lengthAdjust="spacing" textLength="7" x="111.5" y="272.5498">6</text><text fill="#000000" font-family="sans-serif" font-size="13" lengthAdjust="spacing" textLength="174" x="122.5" y="272.5498">Show the insuccess message</text><line style="stroke:#000000;stroke-width:1.0;stroke-dasharray:2.0,2.0;" x1="10" x2="440" y1="286.3047" y2="286.3047"/><text fill="#000000" font-family="sans-serif" font-size="11" font-weight="bold" lengthAdjust="spacing" textLength="32" x="15" y="296.2627">[else]</text><polygon fill="#181818" points="105.5,316.1172,95.5,320.1172,105.5,324.1172,101.5,320.1172" style="stroke:#181818;stroke-width:1.0;"/><line style="stroke:#181818;stroke-width:1.0;stroke-dasharray:2.0,2.0;" x1="99.5" x2="373.5" y1="320.1172" y2="320.1172"/><text fill="#000000" font-family="sans-serif" font-size="13" font-weight="bold" lengthAdjust="spacing" textLength="7" x="111.5" y="315.3623">7</text><text fill="#000000" font-family="sans-serif" font-size="13" lengthAdjust="spacing" textLength="164" x="122.5" y="315.3623">Show the success message</text><!--SRC=[dP9TReCm3CVVSmghJzj3Tu0-JEeDfj4Bk8c1g2HXiLd5xMS2gzX7fGeUWcNd__D7p1SVUymO8AIOR9jJ890yaE5Rf4TxmOOg6Jk2J5OmDjtw0hVeqjN71chic8p1GL8SmfcosbPIXbqrib20emi-UfQCwjq1Cd095BzHd7ZhUum2kyCiAPTciy3y9mhzK1dGR-M0_UiYW0CS-S8W2NpeKnP0gBrsKMkVQdVKe1qNRS7S4dndd9mBRA_STPe3lDF7G2pWKB3STFGlu5vnfx4drf4M2hd2WQUfmZUKzdb3HLMRhd-869qEKUV0mpbuuIsbLhDqIx7O2PnQcYVl6IZqCe8knSIpAGhfSwi_9lr5a9PMMUgK0yhB0sqNeOyyM4lC4FJGhOLPIRgNvNWKz0jZxiniyiu9eZDc5Lylw1S0]--></g></svg>