<?xml version="1.0" encoding="us-ascii" standalone="no"?><svg xmlns="http://www.w3.org/2000/svg" xmlns:xlink="http://www.w3.org/1999/xlink" contentStyleType="text/css" height="489px" preserveAspectRatio="none" style="width:832px;height:489px;background:#FFFFFF;" version="1.1" viewBox="0 0 832 489" width="832.2px" zoomAndPan="magnify"><defs/><g><!--class RegisterEmployeeUI--><g id="elem_RegisterEmployeeUI"><rect codeLine="8" fill="#F1F1F1" height="28.8" id="RegisterEmployeeUI" rx="1.5" ry="1.5" style="stroke:#181818;stroke-width:0.3;" width="95.4" x="4.2" y="32.1"/><ellipse cx="13.2" cy="41.7" fill="#ADD1B2" rx="6.6" ry="6.6" style="stroke:#181818;stroke-width:0.6;"/><path d="M14.8594,39.225 Q14.9531,39.0938 15.0656,39.0281 Q15.1781,38.9625 15.3094,38.9625 Q15.5344,38.9625 15.675,39.1219 Q15.8156,39.2719 15.8156,39.6375 L15.8156,40.5094 Q15.8156,40.875 15.675,41.0344 Q15.5344,41.1938 15.3094,41.1938 Q15.1031,41.1938 14.9813,41.0719 Q14.8594,40.9594 14.7938,40.65 Q14.7656,40.4344 14.6531,40.3219 Q14.4562,40.0969 14.0906,39.9656 Q13.725,39.8344 13.35,39.8344 Q12.8906,39.8344 12.5063,40.0313 Q12.1313,40.2281 11.8312,40.6781 Q11.5406,41.1281 11.5406,41.7469 L11.5406,42.4031 Q11.5406,43.1438 12.075,43.6406 Q12.6094,44.1281 13.5656,44.1281 Q14.1281,44.1281 14.5219,43.9781 Q14.7563,43.8844 15.0094,43.6219 Q15.1688,43.4625 15.2531,43.4156 Q15.3469,43.3688 15.4688,43.3688 Q15.6656,43.3688 15.8156,43.5281 Q15.975,43.6781 15.975,43.8844 Q15.975,44.0906 15.7687,44.3344 Q15.4688,44.6813 14.9906,44.8781 Q14.3438,45.15 13.5656,45.15 Q12.6563,45.15 11.9344,44.775 Q11.3438,44.475 10.9313,43.8375 Q10.5187,43.1906 10.5187,42.4219 L10.5187,41.7281 Q10.5187,40.9313 10.8844,40.2469 Q11.2594,39.5531 11.9156,39.1875 Q12.5719,38.8125 13.3125,38.8125 Q13.7531,38.8125 14.1375,38.9156 Q14.5313,39.0094 14.8594,39.225 Z " fill="#000000"/><text fill="#000000" font-family="sans-serif" font-size="8.4" lengthAdjust="spacing" textLength="76.2" x="21.6" y="45.1781">RegisterEmployeeUI</text><line style="stroke:#181818;stroke-width:0.3;" x1="4.8" x2="99" y1="51.3" y2="51.3"/><line style="stroke:#181818;stroke-width:0.3;" x1="4.8" x2="99" y1="56.1" y2="56.1"/></g><!--class RegisterEmployeeController--><g id="elem_RegisterEmployeeController"><rect codeLine="10" fill="#F1F1F1" height="84.6633" id="RegisterEmployeeController" rx="1.5" ry="1.5" style="stroke:#181818;stroke-width:0.3;" width="252.6" x="120.6" y="4.2"/><ellipse cx="191.25" cy="13.8" fill="#ADD1B2" rx="6.6" ry="6.6" style="stroke:#181818;stroke-width:0.6;"/><path d="M192.9094,11.325 Q193.0031,11.1938 193.1156,11.1281 Q193.2281,11.0625 193.3594,11.0625 Q193.5844,11.0625 193.725,11.2219 Q193.8656,11.3719 193.8656,11.7375 L193.8656,12.6094 Q193.8656,12.975 193.725,13.1344 Q193.5844,13.2938 193.3594,13.2938 Q193.1531,13.2938 193.0313,13.1719 Q192.9094,13.0594 192.8438,12.75 Q192.8156,12.5344 192.7031,12.4219 Q192.5063,12.1969 192.1406,12.0656 Q191.775,11.9344 191.4,11.9344 Q190.9406,11.9344 190.5563,12.1313 Q190.1813,12.3281 189.8813,12.7781 Q189.5906,13.2281 189.5906,13.8469 L189.5906,14.5031 Q189.5906,15.2437 190.125,15.7406 Q190.6594,16.2281 191.6156,16.2281 Q192.1781,16.2281 192.5719,16.0781 Q192.8063,15.9844 193.0594,15.7219 Q193.2188,15.5625 193.3031,15.5156 Q193.3969,15.4688 193.5187,15.4688 Q193.7156,15.4688 193.8656,15.6281 Q194.025,15.7781 194.025,15.9844 Q194.025,16.1906 193.8188,16.4344 Q193.5187,16.7813 193.0406,16.9781 Q192.3937,17.25 191.6156,17.25 Q190.7062,17.25 189.9844,16.875 Q189.3937,16.575 188.9813,15.9375 Q188.5688,15.2906 188.5688,14.5219 L188.5688,13.8281 Q188.5688,13.0313 188.9344,12.3469 Q189.3094,11.6531 189.9656,11.2875 Q190.6219,10.9125 191.3625,10.9125 Q191.8031,10.9125 192.1875,11.0156 Q192.5812,11.1094 192.9094,11.325 Z " fill="#000000"/><text fill="#000000" font-family="sans-serif" font-size="8.4" lengthAdjust="spacing" textLength="106.2" x="203.55" y="17.2781">RegisterEmployeeController</text><line style="stroke:#181818;stroke-width:0.3;" x1="121.2" x2="372.6" y1="23.4" y2="23.4"/><line style="stroke:#181818;stroke-width:0.3;" x1="121.2" x2="372.6" y1="28.2" y2="28.2"/><text fill="#000000" font-family="sans-serif" font-size="8.4" lengthAdjust="spacing" textLength="245.4" x="124.2" y="39.6645">+RegisterEmployeeController(agencyRepository, roleRepository)</text><text fill="#000000" font-family="sans-serif" font-size="8.4" lengthAdjust="spacing" textLength="91.8" x="124.2" y="50.8371">+getAgencyRepository()</text><text fill="#000000" font-family="sans-serif" font-size="8.4" lengthAdjust="spacing" textLength="81" x="124.2" y="62.0098">+getRoleRepository()</text><text fill="#000000" font-family="sans-serif" font-size="8.4" lengthAdjust="spacing" textLength="238.2" x="124.2" y="73.1824">+registerEmployee(name, passport's card number, tax number,</text><text fill="#000000" font-family="sans-serif" font-size="8.4" lengthAdjust="spacing" textLength="216.6" x="124.2" y="84.3551">address, email address, telephone number, agency, role)</text></g><!--class Repositories--><g id="elem_Repositories"><rect codeLine="18" fill="#F1F1F1" height="84.6633" id="Repositories" rx="1.5" ry="1.5" style="stroke:#181818;stroke-width:0.3;" width="116.4" x="504.9" y="4.2"/><ellipse cx="536.85" cy="13.8" fill="#ADD1B2" rx="6.6" ry="6.6" style="stroke:#181818;stroke-width:0.6;"/><path d="M538.5094,11.325 Q538.6031,11.1938 538.7156,11.1281 Q538.8281,11.0625 538.9594,11.0625 Q539.1844,11.0625 539.325,11.2219 Q539.4656,11.3719 539.4656,11.7375 L539.4656,12.6094 Q539.4656,12.975 539.325,13.1344 Q539.1844,13.2938 538.9594,13.2938 Q538.7531,13.2938 538.6313,13.1719 Q538.5094,13.0594 538.4438,12.75 Q538.4156,12.5344 538.3031,12.4219 Q538.1062,12.1969 537.7406,12.0656 Q537.375,11.9344 537,11.9344 Q536.5406,11.9344 536.1563,12.1313 Q535.7813,12.3281 535.4812,12.7781 Q535.1906,13.2281 535.1906,13.8469 L535.1906,14.5031 Q535.1906,15.2437 535.725,15.7406 Q536.2594,16.2281 537.2156,16.2281 Q537.7781,16.2281 538.1719,16.0781 Q538.4063,15.9844 538.6594,15.7219 Q538.8188,15.5625 538.9031,15.5156 Q538.9969,15.4688 539.1188,15.4688 Q539.3156,15.4688 539.4656,15.6281 Q539.625,15.7781 539.625,15.9844 Q539.625,16.1906 539.4187,16.4344 Q539.1188,16.7813 538.6406,16.9781 Q537.9938,17.25 537.2156,17.25 Q536.3063,17.25 535.5844,16.875 Q534.9938,16.575 534.5813,15.9375 Q534.1687,15.2906 534.1687,14.5219 L534.1687,13.8281 Q534.1687,13.0313 534.5344,12.3469 Q534.9094,11.6531 535.5656,11.2875 Q536.2219,10.9125 536.9625,10.9125 Q537.4031,10.9125 537.7875,11.0156 Q538.1813,11.1094 538.5094,11.325 Z " fill="#000000"/><text fill="#000000" font-family="sans-serif" font-size="8.4" lengthAdjust="spacing" textLength="47.4" x="549.15" y="17.2781">Repositories</text><line style="stroke:#181818;stroke-width:0.3;" x1="505.5" x2="620.7" y1="23.4" y2="23.4"/><line style="stroke:#181818;stroke-width:0.3;" x1="505.5" x2="620.7" y1="28.2" y2="28.2"/><text fill="#000000" font-family="sans-serif" font-size="8.4" lengthAdjust="spacing" textLength="56.4" x="508.5" y="39.6645">-Repositories()</text><text fill="#000000" font-family="sans-serif" font-size="8.4" lengthAdjust="spacing" textLength="109.2" x="508.5" y="50.8371">+getInstance() : Repositories</text><text fill="#000000" font-family="sans-serif" font-size="8.4" lengthAdjust="spacing" textLength="91.8" x="508.5" y="62.0098">+getAgencyRepository()</text><text fill="#000000" font-family="sans-serif" font-size="8.4" lengthAdjust="spacing" textLength="59.4" x="508.5" y="73.1824">+getPassword()</text><text fill="#000000" font-family="sans-serif" font-size="8.4" lengthAdjust="spacing" textLength="81" x="508.5" y="84.3551">+getRoleRepository()</text></g><!--class AgencyRepository--><g id="elem_AgencyRepository"><rect codeLine="26" fill="#F1F1F1" height="28.8" id="AgencyRepository" rx="1.5" ry="1.5" style="stroke:#181818;stroke-width:0.3;" width="88.2" x="739.8" y="131.1"/><ellipse cx="748.8" cy="140.7" fill="#ADD1B2" rx="6.6" ry="6.6" style="stroke:#181818;stroke-width:0.6;"/><path d="M750.4594,138.225 Q750.5531,138.0938 750.6656,138.0281 Q750.7781,137.9625 750.9094,137.9625 Q751.1344,137.9625 751.275,138.1219 Q751.4156,138.2719 751.4156,138.6375 L751.4156,139.5094 Q751.4156,139.875 751.275,140.0344 Q751.1344,140.1938 750.9094,140.1938 Q750.7031,140.1938 750.5813,140.0719 Q750.4594,139.9594 750.3938,139.65 Q750.3656,139.4344 750.2531,139.3219 Q750.0563,139.0969 749.6906,138.9656 Q749.325,138.8344 748.95,138.8344 Q748.4906,138.8344 748.1062,139.0313 Q747.7312,139.2281 747.4313,139.6781 Q747.1406,140.1281 747.1406,140.7469 L747.1406,141.4031 Q747.1406,142.1437 747.675,142.6406 Q748.2094,143.1281 749.1656,143.1281 Q749.7281,143.1281 750.1219,142.9781 Q750.3562,142.8844 750.6094,142.6219 Q750.7688,142.4625 750.8531,142.4156 Q750.9469,142.3688 751.0688,142.3688 Q751.2656,142.3688 751.4156,142.5281 Q751.575,142.6781 751.575,142.8844 Q751.575,143.0906 751.3688,143.3344 Q751.0688,143.6813 750.5906,143.8781 Q749.9438,144.15 749.1656,144.15 Q748.2563,144.15 747.5344,143.775 Q746.9438,143.475 746.5313,142.8375 Q746.1188,142.1906 746.1188,141.4219 L746.1188,140.7281 Q746.1188,139.9313 746.4844,139.2469 Q746.8594,138.5531 747.5156,138.1875 Q748.1719,137.8125 748.9125,137.8125 Q749.3531,137.8125 749.7375,137.9156 Q750.1313,138.0094 750.4594,138.225 Z " fill="#000000"/><text fill="#000000" font-family="sans-serif" font-size="8.4" lengthAdjust="spacing" textLength="69" x="757.2" y="144.1781">AgencyRepository</text><line style="stroke:#181818;stroke-width:0.3;" x1="740.4" x2="827.4" y1="150.3" y2="150.3"/><line style="stroke:#181818;stroke-width:0.3;" x1="740.4" x2="827.4" y1="155.1" y2="155.1"/></g><!--class Agency--><g id="elem_Agency"><rect codeLine="28" fill="#F1F1F1" height="28.8" id="Agency" rx="1.5" ry="1.5" style="stroke:#181818;stroke-width:0.3;" width="47.4" x="760.2" y="279.9"/><ellipse cx="769.2" cy="289.5" fill="#ADD1B2" rx="6.6" ry="6.6" style="stroke:#181818;stroke-width:0.6;"/><path d="M770.8594,287.025 Q770.9531,286.8938 771.0656,286.8281 Q771.1781,286.7625 771.3094,286.7625 Q771.5344,286.7625 771.675,286.9219 Q771.8156,287.0719 771.8156,287.4375 L771.8156,288.3094 Q771.8156,288.675 771.675,288.8344 Q771.5344,288.9938 771.3094,288.9938 Q771.1031,288.9938 770.9812,288.8719 Q770.8594,288.7594 770.7937,288.45 Q770.7656,288.2344 770.6531,288.1219 Q770.4563,287.8969 770.0906,287.7656 Q769.725,287.6344 769.35,287.6344 Q768.8906,287.6344 768.5063,287.8313 Q768.1313,288.0281 767.8313,288.4781 Q767.5406,288.9281 767.5406,289.5469 L767.5406,290.2031 Q767.5406,290.9437 768.075,291.4406 Q768.6094,291.9281 769.5656,291.9281 Q770.1281,291.9281 770.5219,291.7781 Q770.7563,291.6844 771.0094,291.4219 Q771.1687,291.2625 771.2531,291.2156 Q771.3469,291.1688 771.4688,291.1688 Q771.6656,291.1688 771.8156,291.3281 Q771.975,291.4781 771.975,291.6844 Q771.975,291.8906 771.7688,292.1344 Q771.4688,292.4813 770.9906,292.6781 Q770.3438,292.95 769.5656,292.95 Q768.6563,292.95 767.9344,292.575 Q767.3438,292.275 766.9313,291.6375 Q766.5188,290.9906 766.5188,290.2219 L766.5188,289.5281 Q766.5188,288.7313 766.8844,288.0469 Q767.2594,287.3531 767.9156,286.9875 Q768.5719,286.6125 769.3125,286.6125 Q769.7531,286.6125 770.1375,286.7156 Q770.5313,286.8094 770.8594,287.025 Z " fill="#000000"/><text fill="#000000" font-family="sans-serif" font-size="8.4" lengthAdjust="spacing" textLength="28.2" x="777.6" y="292.9781">Agency</text><line style="stroke:#181818;stroke-width:0.3;" x1="760.8" x2="807" y1="299.1" y2="299.1"/><line style="stroke:#181818;stroke-width:0.3;" x1="760.8" x2="807" y1="303.9" y2="303.9"/></g><!--class RoleRepository--><g id="elem_RoleRepository"><rect codeLine="30" fill="#F1F1F1" height="28.8" id="RoleRepository" rx="1.5" ry="1.5" style="stroke:#181818;stroke-width:0.3;" width="77.4" x="641.4" y="131.1"/><ellipse cx="650.4" cy="140.7" fill="#ADD1B2" rx="6.6" ry="6.6" style="stroke:#181818;stroke-width:0.6;"/><path d="M652.0594,138.225 Q652.1531,138.0938 652.2656,138.0281 Q652.3781,137.9625 652.5094,137.9625 Q652.7344,137.9625 652.875,138.1219 Q653.0156,138.2719 653.0156,138.6375 L653.0156,139.5094 Q653.0156,139.875 652.875,140.0344 Q652.7344,140.1938 652.5094,140.1938 Q652.3031,140.1938 652.1813,140.0719 Q652.0594,139.9594 651.9938,139.65 Q651.9656,139.4344 651.8531,139.3219 Q651.6563,139.0969 651.2906,138.9656 Q650.925,138.8344 650.55,138.8344 Q650.0906,138.8344 649.7063,139.0313 Q649.3313,139.2281 649.0313,139.6781 Q648.7406,140.1281 648.7406,140.7469 L648.7406,141.4031 Q648.7406,142.1437 649.275,142.6406 Q649.8094,143.1281 650.7656,143.1281 Q651.3281,143.1281 651.7219,142.9781 Q651.9563,142.8844 652.2094,142.6219 Q652.3688,142.4625 652.4531,142.4156 Q652.5469,142.3688 652.6687,142.3688 Q652.8656,142.3688 653.0156,142.5281 Q653.175,142.6781 653.175,142.8844 Q653.175,143.0906 652.9688,143.3344 Q652.6687,143.6813 652.1906,143.8781 Q651.5437,144.15 650.7656,144.15 Q649.8562,144.15 649.1344,143.775 Q648.5437,143.475 648.1313,142.8375 Q647.7188,142.1906 647.7188,141.4219 L647.7188,140.7281 Q647.7188,139.9313 648.0844,139.2469 Q648.4594,138.5531 649.1156,138.1875 Q649.7719,137.8125 650.5125,137.8125 Q650.9531,137.8125 651.3375,137.9156 Q651.7312,138.0094 652.0594,138.225 Z " fill="#000000"/><text fill="#000000" font-family="sans-serif" font-size="8.4" lengthAdjust="spacing" textLength="58.2" x="658.8" y="144.1781">RoleRepository</text><line style="stroke:#181818;stroke-width:0.3;" x1="642" x2="718.2" y1="150.3" y2="150.3"/><line style="stroke:#181818;stroke-width:0.3;" x1="642" x2="718.2" y1="155.1" y2="155.1"/></g><!--class Role--><g id="elem_Role"><rect codeLine="32" fill="#F1F1F1" height="28.8" id="Role" rx="1.5" ry="1.5" style="stroke:#181818;stroke-width:0.3;" width="36.6" x="661.8" y="279.9"/><ellipse cx="670.8" cy="289.5" fill="#ADD1B2" rx="6.6" ry="6.6" style="stroke:#181818;stroke-width:0.6;"/><path d="M672.4594,287.025 Q672.5531,286.8938 672.6656,286.8281 Q672.7781,286.7625 672.9094,286.7625 Q673.1344,286.7625 673.275,286.9219 Q673.4156,287.0719 673.4156,287.4375 L673.4156,288.3094 Q673.4156,288.675 673.275,288.8344 Q673.1344,288.9938 672.9094,288.9938 Q672.7031,288.9938 672.5813,288.8719 Q672.4594,288.7594 672.3938,288.45 Q672.3656,288.2344 672.2531,288.1219 Q672.0563,287.8969 671.6906,287.7656 Q671.325,287.6344 670.95,287.6344 Q670.4906,287.6344 670.1062,287.8313 Q669.7312,288.0281 669.4313,288.4781 Q669.1406,288.9281 669.1406,289.5469 L669.1406,290.2031 Q669.1406,290.9437 669.675,291.4406 Q670.2094,291.9281 671.1656,291.9281 Q671.7281,291.9281 672.1219,291.7781 Q672.3562,291.6844 672.6094,291.4219 Q672.7688,291.2625 672.8531,291.2156 Q672.9469,291.1688 673.0688,291.1688 Q673.2656,291.1688 673.4156,291.3281 Q673.575,291.4781 673.575,291.6844 Q673.575,291.8906 673.3688,292.1344 Q673.0688,292.4813 672.5906,292.6781 Q671.9438,292.95 671.1656,292.95 Q670.2563,292.95 669.5344,292.575 Q668.9438,292.275 668.5313,291.6375 Q668.1188,290.9906 668.1188,290.2219 L668.1188,289.5281 Q668.1188,288.7313 668.4844,288.0469 Q668.8594,287.3531 669.5156,286.9875 Q670.1719,286.6125 670.9125,286.6125 Q671.3531,286.6125 671.7375,286.7156 Q672.1313,286.8094 672.4594,287.025 Z " fill="#000000"/><text fill="#000000" font-family="sans-serif" font-size="8.4" lengthAdjust="spacing" textLength="17.4" x="679.2" y="292.9781">Role</text><line style="stroke:#181818;stroke-width:0.3;" x1="662.4" x2="697.8" y1="299.1" y2="299.1"/><line style="stroke:#181818;stroke-width:0.3;" x1="662.4" x2="697.8" y1="303.9" y2="303.9"/></g><!--class EmployeeRepository--><g id="elem_EmployeeRepository"><rect codeLine="34" fill="#F1F1F1" height="28.8" id="EmployeeRepository" rx="1.5" ry="1.5" style="stroke:#181818;stroke-width:0.3;" width="97.2" x="387.9" y="131.1"/><ellipse cx="396.9" cy="140.7" fill="#ADD1B2" rx="6.6" ry="6.6" style="stroke:#181818;stroke-width:0.6;"/><path d="M398.5594,138.225 Q398.6531,138.0938 398.7656,138.0281 Q398.8781,137.9625 399.0094,137.9625 Q399.2344,137.9625 399.375,138.1219 Q399.5156,138.2719 399.5156,138.6375 L399.5156,139.5094 Q399.5156,139.875 399.375,140.0344 Q399.2344,140.1938 399.0094,140.1938 Q398.8031,140.1938 398.6813,140.0719 Q398.5594,139.9594 398.4938,139.65 Q398.4656,139.4344 398.3531,139.3219 Q398.1563,139.0969 397.7906,138.9656 Q397.425,138.8344 397.05,138.8344 Q396.5906,138.8344 396.2063,139.0313 Q395.8313,139.2281 395.5313,139.6781 Q395.2406,140.1281 395.2406,140.7469 L395.2406,141.4031 Q395.2406,142.1437 395.775,142.6406 Q396.3094,143.1281 397.2656,143.1281 Q397.8281,143.1281 398.2219,142.9781 Q398.4563,142.8844 398.7094,142.6219 Q398.8688,142.4625 398.9531,142.4156 Q399.0469,142.3688 399.1688,142.3688 Q399.3656,142.3688 399.5156,142.5281 Q399.675,142.6781 399.675,142.8844 Q399.675,143.0906 399.4688,143.3344 Q399.1688,143.6813 398.6906,143.8781 Q398.0438,144.15 397.2656,144.15 Q396.3563,144.15 395.6344,143.775 Q395.0438,143.475 394.6312,142.8375 Q394.2188,142.1906 394.2188,141.4219 L394.2188,140.7281 Q394.2188,139.9313 394.5844,139.2469 Q394.9594,138.5531 395.6156,138.1875 Q396.2719,137.8125 397.0125,137.8125 Q397.4531,137.8125 397.8375,137.9156 Q398.2313,138.0094 398.5594,138.225 Z " fill="#000000"/><text fill="#000000" font-family="sans-serif" font-size="8.4" lengthAdjust="spacing" textLength="78" x="405.3" y="144.1781">EmployeeRepository</text><line style="stroke:#181818;stroke-width:0.3;" x1="388.5" x2="484.5" y1="150.3" y2="150.3"/><line style="stroke:#181818;stroke-width:0.3;" x1="388.5" x2="484.5" y1="155.1" y2="155.1"/></g><!--class PasswordGenerator--><g id="elem_PasswordGenerator"><rect codeLine="36" fill="#F1F1F1" height="28.8" id="PasswordGenerator" rx="1.5" ry="1.5" style="stroke:#181818;stroke-width:0.3;" width="94.8" x="272.1" y="131.1"/><ellipse cx="281.1" cy="140.7" fill="#ADD1B2" rx="6.6" ry="6.6" style="stroke:#181818;stroke-width:0.6;"/><path d="M282.7594,138.225 Q282.8531,138.0938 282.9656,138.0281 Q283.0781,137.9625 283.2094,137.9625 Q283.4344,137.9625 283.575,138.1219 Q283.7156,138.2719 283.7156,138.6375 L283.7156,139.5094 Q283.7156,139.875 283.575,140.0344 Q283.4344,140.1938 283.2094,140.1938 Q283.0031,140.1938 282.8812,140.0719 Q282.7594,139.9594 282.6937,139.65 Q282.6656,139.4344 282.5531,139.3219 Q282.3563,139.0969 281.9906,138.9656 Q281.625,138.8344 281.25,138.8344 Q280.7906,138.8344 280.4063,139.0313 Q280.0313,139.2281 279.7313,139.6781 Q279.4406,140.1281 279.4406,140.7469 L279.4406,141.4031 Q279.4406,142.1437 279.975,142.6406 Q280.5094,143.1281 281.4656,143.1281 Q282.0281,143.1281 282.4219,142.9781 Q282.6563,142.8844 282.9094,142.6219 Q283.0687,142.4625 283.1531,142.4156 Q283.2469,142.3688 283.3688,142.3688 Q283.5656,142.3688 283.7156,142.5281 Q283.875,142.6781 283.875,142.8844 Q283.875,143.0906 283.6688,143.3344 Q283.3688,143.6813 282.8906,143.8781 Q282.2438,144.15 281.4656,144.15 Q280.5563,144.15 279.8344,143.775 Q279.2438,143.475 278.8313,142.8375 Q278.4188,142.1906 278.4188,141.4219 L278.4188,140.7281 Q278.4188,139.9313 278.7844,139.2469 Q279.1594,138.5531 279.8156,138.1875 Q280.4719,137.8125 281.2125,137.8125 Q281.6531,137.8125 282.0375,137.9156 Q282.4313,138.0094 282.7594,138.225 Z " fill="#000000"/><text fill="#000000" font-family="sans-serif" font-size="8.4" lengthAdjust="spacing" textLength="75.6" x="289.5" y="144.1781">PasswordGenerator</text><line style="stroke:#181818;stroke-width:0.3;" x1="272.7" x2="366.3" y1="150.3" y2="150.3"/><line style="stroke:#181818;stroke-width:0.3;" x1="272.7" x2="366.3" y1="155.1" y2="155.1"/></g><!--class AuthenticationRepository--><g id="elem_AuthenticationRepository"><rect codeLine="38" fill="#F1F1F1" height="39.9727" id="AuthenticationRepository" rx="1.5" ry="1.5" style="stroke:#181818;stroke-width:0.3;" width="114" x="506.1" y="125.4"/><ellipse cx="515.1" cy="135" fill="#ADD1B2" rx="6.6" ry="6.6" style="stroke:#181818;stroke-width:0.6;"/><path d="M516.7594,132.525 Q516.8531,132.3937 516.9656,132.3281 Q517.0781,132.2625 517.2094,132.2625 Q517.4344,132.2625 517.575,132.4219 Q517.7156,132.5719 517.7156,132.9375 L517.7156,133.8094 Q517.7156,134.175 517.575,134.3344 Q517.4344,134.4938 517.2094,134.4938 Q517.0031,134.4938 516.8813,134.3719 Q516.7594,134.2594 516.6938,133.95 Q516.6656,133.7344 516.5531,133.6219 Q516.3562,133.3969 515.9906,133.2656 Q515.625,133.1344 515.25,133.1344 Q514.7906,133.1344 514.4063,133.3312 Q514.0313,133.5281 513.7312,133.9781 Q513.4406,134.4281 513.4406,135.0469 L513.4406,135.7031 Q513.4406,136.4438 513.975,136.9406 Q514.5094,137.4281 515.4656,137.4281 Q516.0281,137.4281 516.4219,137.2781 Q516.6563,137.1844 516.9094,136.9219 Q517.0688,136.7625 517.1531,136.7156 Q517.2469,136.6688 517.3688,136.6688 Q517.5656,136.6688 517.7156,136.8281 Q517.875,136.9781 517.875,137.1844 Q517.875,137.3906 517.6687,137.6344 Q517.3688,137.9813 516.8906,138.1781 Q516.2438,138.45 515.4656,138.45 Q514.5563,138.45 513.8344,138.075 Q513.2438,137.775 512.8313,137.1375 Q512.4187,136.4906 512.4187,135.7219 L512.4187,135.0281 Q512.4187,134.2313 512.7844,133.5469 Q513.1594,132.8531 513.8156,132.4875 Q514.4719,132.1125 515.2125,132.1125 Q515.6531,132.1125 516.0375,132.2156 Q516.4313,132.3094 516.7594,132.525 Z " fill="#000000"/><text fill="#000000" font-family="sans-serif" font-size="8.4" lengthAdjust="spacing" textLength="94.8" x="523.5" y="138.4781">AuthenticationRepository</text><line style="stroke:#181818;stroke-width:0.3;" x1="506.7" x2="619.5" y1="144.6" y2="144.6"/><line style="stroke:#181818;stroke-width:0.3;" x1="506.7" x2="619.5" y1="149.4" y2="149.4"/><text fill="#000000" font-family="sans-serif" font-size="8.4" lengthAdjust="spacing" textLength="71.4" x="509.7" y="160.8645">+userExists (email)</text></g><!--class Employee--><g id="elem_Employee"><rect codeLine="42" fill="#F1F1F1" height="162.8719" id="Employee" rx="1.5" ry="1.5" style="stroke:#181818;stroke-width:0.3;" width="264.6" x="187.2" y="213"/><ellipse cx="298.35" cy="222.6" fill="#ADD1B2" rx="6.6" ry="6.6" style="stroke:#181818;stroke-width:0.6;"/><path d="M300.0094,220.125 Q300.1031,219.9938 300.2156,219.9281 Q300.3281,219.8625 300.4594,219.8625 Q300.6844,219.8625 300.825,220.0219 Q300.9656,220.1719 300.9656,220.5375 L300.9656,221.4094 Q300.9656,221.775 300.825,221.9344 Q300.6844,222.0938 300.4594,222.0938 Q300.2531,222.0938 300.1312,221.9719 Q300.0094,221.8594 299.9437,221.55 Q299.9156,221.3344 299.8031,221.2219 Q299.6063,220.9969 299.2406,220.8656 Q298.875,220.7344 298.5,220.7344 Q298.0406,220.7344 297.6563,220.9313 Q297.2813,221.1281 296.9813,221.5781 Q296.6906,222.0281 296.6906,222.6469 L296.6906,223.3031 Q296.6906,224.0438 297.225,224.5406 Q297.7594,225.0281 298.7156,225.0281 Q299.2781,225.0281 299.6719,224.8781 Q299.9063,224.7844 300.1594,224.5219 Q300.3187,224.3625 300.4031,224.3156 Q300.4969,224.2687 300.6188,224.2687 Q300.8156,224.2687 300.9656,224.4281 Q301.125,224.5781 301.125,224.7844 Q301.125,224.9906 300.9188,225.2344 Q300.6188,225.5812 300.1406,225.7781 Q299.4938,226.05 298.7156,226.05 Q297.8063,226.05 297.0844,225.675 Q296.4938,225.375 296.0813,224.7375 Q295.6688,224.0906 295.6688,223.3219 L295.6688,222.6281 Q295.6688,221.8312 296.0344,221.1469 Q296.4094,220.4531 297.0656,220.0875 Q297.7219,219.7125 298.4625,219.7125 Q298.9031,219.7125 299.2875,219.8156 Q299.6813,219.9094 300.0094,220.125 Z " fill="#000000"/><text fill="#000000" font-family="sans-serif" font-size="8.4" lengthAdjust="spacing" textLength="37.2" x="310.65" y="226.0781">Employee</text><line style="stroke:#181818;stroke-width:0.3;" x1="187.8" x2="451.2" y1="232.2" y2="232.2"/><text fill="#000000" font-family="sans-serif" font-size="8.4" lengthAdjust="spacing" textLength="48.6" x="190.8" y="243.6645">-String name</text><text fill="#000000" font-family="sans-serif" font-size="8.4" lengthAdjust="spacing" textLength="117" x="190.8" y="254.8371">-String passport's card number</text><text fill="#000000" font-family="sans-serif" font-size="8.4" lengthAdjust="spacing" textLength="69.6" x="190.8" y="266.0098">-String tax number</text><text fill="#000000" font-family="sans-serif" font-size="8.4" lengthAdjust="spacing" textLength="58.2" x="190.8" y="277.1824">-String address</text><text fill="#000000" font-family="sans-serif" font-size="8.4" lengthAdjust="spacing" textLength="80.4" x="190.8" y="288.3551">-String email address</text><text fill="#000000" font-family="sans-serif" font-size="8.4" lengthAdjust="spacing" textLength="96.6" x="190.8" y="299.5277">-String telephone number</text><text fill="#000000" font-family="sans-serif" font-size="8.4" lengthAdjust="spacing" textLength="87" x="190.8" y="310.7004">-Integer phone number</text><text fill="#000000" font-family="sans-serif" font-size="8.4" lengthAdjust="spacing" textLength="55.2" x="190.8" y="321.873">-String agency</text><text fill="#000000" font-family="sans-serif" font-size="8.4" lengthAdjust="spacing" textLength="42" x="190.8" y="333.0457">-String role</text><text fill="#000000" font-family="sans-serif" font-size="8.4" lengthAdjust="spacing" textLength="63.6" x="190.8" y="344.2184">-String password</text><line style="stroke:#181818;stroke-width:0.3;" x1="187.8" x2="451.2" y1="348.7266" y2="348.7266"/><text fill="#000000" font-family="sans-serif" font-size="8.4" lengthAdjust="spacing" textLength="196.2" x="190.8" y="360.191">+create(name, passport's card number, tax number,</text><text fill="#000000" font-family="sans-serif" font-size="8.4" lengthAdjust="spacing" textLength="257.4" x="190.8" y="371.3637">address, email address, telephone number, agency, role, password)</text></g><!--class SystemAdministrator--><g id="elem_SystemAdministrator"><rect codeLine="57" fill="#F1F1F1" height="62.318" id="SystemAdministrator" rx="1.5" ry="1.5" style="stroke:#181818;stroke-width:0.3;" width="96.6" x="271.2" y="423"/><ellipse cx="280.2" cy="432.6" fill="#ADD1B2" rx="6.6" ry="6.6" style="stroke:#181818;stroke-width:0.6;"/><path d="M281.8594,430.125 Q281.9531,429.9938 282.0656,429.9281 Q282.1781,429.8625 282.3094,429.8625 Q282.5344,429.8625 282.675,430.0219 Q282.8156,430.1719 282.8156,430.5375 L282.8156,431.4094 Q282.8156,431.775 282.675,431.9344 Q282.5344,432.0938 282.3094,432.0938 Q282.1031,432.0938 281.9813,431.9719 Q281.8594,431.8594 281.7938,431.55 Q281.7656,431.3344 281.6531,431.2219 Q281.4563,430.9969 281.0906,430.8656 Q280.725,430.7344 280.35,430.7344 Q279.8906,430.7344 279.5062,430.9313 Q279.1312,431.1281 278.8313,431.5781 Q278.5406,432.0281 278.5406,432.6469 L278.5406,433.3031 Q278.5406,434.0438 279.075,434.5406 Q279.6094,435.0281 280.5656,435.0281 Q281.1281,435.0281 281.5219,434.8781 Q281.7562,434.7844 282.0094,434.5219 Q282.1688,434.3625 282.2531,434.3156 Q282.3469,434.2688 282.4688,434.2688 Q282.6656,434.2688 282.8156,434.4281 Q282.975,434.5781 282.975,434.7844 Q282.975,434.9906 282.7688,435.2344 Q282.4688,435.5813 281.9906,435.7781 Q281.3438,436.05 280.5656,436.05 Q279.6563,436.05 278.9344,435.675 Q278.3438,435.375 277.9313,434.7375 Q277.5188,434.0906 277.5188,433.3219 L277.5188,432.6281 Q277.5188,431.8313 277.8844,431.1469 Q278.2594,430.4531 278.9156,430.0875 Q279.5719,429.7125 280.3125,429.7125 Q280.7531,429.7125 281.1375,429.8156 Q281.5313,429.9094 281.8594,430.125 Z " fill="#000000"/><text fill="#000000" font-family="sans-serif" font-size="8.4" lengthAdjust="spacing" textLength="77.4" x="288.6" y="436.0781">SystemAdministrator</text><line style="stroke:#181818;stroke-width:0.3;" x1="271.8" x2="367.2" y1="442.2" y2="442.2"/><text fill="#000000" font-family="sans-serif" font-size="8.4" lengthAdjust="spacing" textLength="58.2" x="274.8" y="453.6645">-phone number</text><text fill="#000000" font-family="sans-serif" font-size="8.4" lengthAdjust="spacing" textLength="22.8" x="274.8" y="464.8371">-email</text><text fill="#000000" font-family="sans-serif" font-size="8.4" lengthAdjust="spacing" textLength="39" x="274.8" y="476.0098">-password</text><line style="stroke:#181818;stroke-width:0.3;" x1="271.8" x2="367.2" y1="480.518" y2="480.518"/></g><!--link Repositories to Repositories--><g id="link_Repositories_Repositories"><path codeLine="64" d="M621.468,35.646 C633.588,36.786 642.3,40.404 642.3,46.5 C642.3,52.068 635.022,55.572 624.516,57.006 " fill="none" id="Repositories-to-Repositories" style="stroke:#181818;stroke-width:0.6;"/><polygon fill="#181818" points="621.468,57.354,627.1067,59.1217,624.4484,57.0114,626.5586,54.3531,621.468,57.354" style="stroke:#181818;stroke-width:0.6;"/><text fill="#000000" font-family="sans-serif" font-size="7.8" lengthAdjust="spacing" textLength="29.4" x="645.9" y="49.817">instance</text></g><!--link RegisterEmployeeUI to RegisterEmployeeController--><g id="link_RegisterEmployeeUI_RegisterEmployeeController"><path codeLine="66" d="M99.654,46.5 C109.476,46.5 116.898,46.5 116.898,46.5 C116.898,46.5 117.09,46.5 117.45,46.5 " fill="none" id="RegisterEmployeeUI-to-RegisterEmployeeController" style="stroke:#181818;stroke-width:0.6;stroke-dasharray:7.0,7.0;"/><polygon fill="#181818" points="120.582,46.5,115.182,44.1,117.582,46.5,115.182,48.9,120.582,46.5" style="stroke:#181818;stroke-width:0.6;"/></g><!--link RegisterEmployeeController to Repositories--><g id="link_RegisterEmployeeController_Repositories"><path codeLine="68" d="M373.236,46.5 C417.486,46.5 465.21,46.5 501.738,46.5 " fill="none" id="RegisterEmployeeController-to-Repositories" style="stroke:#181818;stroke-width:0.6;stroke-dasharray:7.0,7.0;"/><polygon fill="#181818" points="504.792,46.5,499.392,44.1,501.792,46.5,499.392,48.9,504.792,46.5" style="stroke:#181818;stroke-width:0.6;"/><text fill="#000000" font-family="sans-serif" font-size="7.8" lengthAdjust="spacing" textLength="40.2" x="418.95" y="42.317">repositories</text></g><!--link Repositories to AgencyRepository--><g id="link_Repositories_AgencyRepository"><path codeLine="70" d="M621.402,72.924 C662.352,91.062 715.704,114.696 749.892,129.834 " fill="none" id="Repositories-to-AgencyRepository" style="stroke:#181818;stroke-width:0.6;"/><polygon fill="#181818" points="752.724,131.094,748.7616,126.71,749.9819,129.8772,746.8147,131.0974,752.724,131.094" style="stroke:#181818;stroke-width:0.6;"/><text fill="#000000" font-family="sans-serif" font-size="7.8" lengthAdjust="spacing" textLength="4.2" x="739.997" y="124.335">1</text></g><!--link AgencyRepository to Agency--><g id="link_AgencyRepository_Agency"><path codeLine="72" d="M783.9,159.984 C783.9,187.128 783.9,247.134 783.9,276.642 " fill="none" id="AgencyRepository-to-Agency" style="stroke:#181818;stroke-width:0.6;"/><polygon fill="#181818" points="783.9,279.744,786.3,274.344,783.9,276.744,781.5,274.344,783.9,279.744" style="stroke:#181818;stroke-width:0.6;"/><text fill="#000000" font-family="sans-serif" font-size="7.8" lengthAdjust="spacing" textLength="3" x="780.5344" y="273.1911">*</text></g><!--link Repositories to RoleRepository--><g id="link_Repositories_RoleRepository"><path codeLine="74" d="M613.056,88.86 C630.012,103.032 647.952,118.026 660.996,128.934 " fill="none" id="Repositories-to-RoleRepository" style="stroke:#181818;stroke-width:0.6;"/><polygon fill="#181818" points="663.378,130.92,660.7641,125.6202,661.0726,129.0003,657.6926,129.3088,663.378,130.92" style="stroke:#181818;stroke-width:0.6;"/><text fill="#000000" font-family="sans-serif" font-size="7.8" lengthAdjust="spacing" textLength="4.2" x="654.5901" y="124.3613">1</text></g><!--link RoleRepository to Role--><g id="link_RoleRepository_Role"><path codeLine="76" d="M680.1,159.984 C680.1,187.128 680.1,247.134 680.1,276.642 " fill="none" id="RoleRepository-to-Role" style="stroke:#181818;stroke-width:0.6;"/><polygon fill="#181818" points="680.1,279.744,682.5,274.344,680.1,276.744,677.7,274.344,680.1,279.744" style="stroke:#181818;stroke-width:0.6;"/><text fill="#000000" font-family="sans-serif" font-size="7.8" lengthAdjust="spacing" textLength="3" x="676.7344" y="273.1911">*</text></g><!--link Repositories to EmployeeRepository--><g id="link_Repositories_EmployeeRepository"><path codeLine="78" d="M509.04,88.86 C490.62,103.092 471.126,118.152 456.996,129.066 " fill="none" id="Repositories-to-EmployeeRepository" style="stroke:#181818;stroke-width:0.6;"/><polygon fill="#181818" points="454.596,130.92,460.3366,129.5179,456.97,129.0859,457.402,125.7194,454.596,130.92" style="stroke:#181818;stroke-width:0.6;"/><text fill="#000000" font-family="sans-serif" font-size="7.8" lengthAdjust="spacing" textLength="4.2" x="454.295" y="124.3613">1</text></g><!--link EmployeeRepository to Employee--><g id="link_EmployeeRepository_Employee"><path codeLine="80" d="M425.49,159.984 C415.872,172.122 401.04,190.83 385.494,210.444 " fill="none" id="EmployeeRepository-to-Employee" style="stroke:#181818;stroke-width:0.6;"/><polygon fill="#181818" points="383.592,212.844,388.8321,210.1125,385.4598,210.4964,385.076,207.124,383.592,212.844" style="stroke:#181818;stroke-width:0.6;"/><text fill="#000000" font-family="sans-serif" font-size="7.8" lengthAdjust="spacing" textLength="3" x="384.015" y="206.3248">*</text></g><!--link Repositories to AuthenticationRepository--><g id="link_Repositories_AuthenticationRepository"><path codeLine="82" d="M563.1,88.86 C563.1,100.338 563.1,112.356 563.1,122.304 " fill="none" id="Repositories-to-AuthenticationRepository" style="stroke:#181818;stroke-width:0.6;"/><polygon fill="#181818" points="563.1,125.322,565.5,119.922,563.1,122.322,560.7,119.922,563.1,125.322" style="stroke:#181818;stroke-width:0.6;"/><text fill="#000000" font-family="sans-serif" font-size="7.8" lengthAdjust="spacing" textLength="4.2" x="558.4866" y="118.602">1</text></g><!--link RegisterEmployeeController to Employee--><g id="link_RegisterEmployeeController_Employee"><path codeLine="84" d="M215.436,88.998 C201.456,107.616 188.1,125.4 188.1,125.4 C188.1,125.4 188.1,165.6 188.1,165.6 C188.1,165.6 209.13,186.102 234.36,210.696 " fill="none" id="RegisterEmployeeController-to-Employee" style="stroke:#181818;stroke-width:0.6;stroke-dasharray:7.0,7.0;"/><polygon fill="#181818" points="236.658,212.934,234.4701,207.4446,234.5112,210.8385,231.1173,210.8795,236.658,212.934" style="stroke:#181818;stroke-width:0.6;"/><text fill="#000000" font-family="sans-serif" font-size="7.8" lengthAdjust="spacing" textLength="72" x="188.7" y="148.817">EmployeeRepository</text></g><!--link Employee to SystemAdministrator--><g id="link_Employee_SystemAdministrator"><path codeLine="86" d="M319.5,375.642 C319.5,391.242 319.5,406.764 319.5,419.802 " fill="none" id="Employee-to-SystemAdministrator" style="stroke:#181818;stroke-width:0.6;"/><polygon fill="#181818" points="319.5,422.892,321.9,417.492,319.5,419.892,317.1,417.492,319.5,422.892" style="stroke:#181818;stroke-width:0.6;"/><text fill="#000000" font-family="sans-serif" font-size="7.8" lengthAdjust="spacing" textLength="35.4" x="320.1" y="402.617">createdBy</text></g><!--link PasswordGenerator to Employee--><g id="link_PasswordGenerator_Employee"><path codeLine="88" d="M319.5,159.984 C319.5,171.972 319.5,190.374 319.5,209.73 " fill="none" id="PasswordGenerator-to-Employee" style="stroke:#181818;stroke-width:0.6;stroke-dasharray:7.0,7.0;"/><polygon fill="#181818" points="319.5,212.844,321.9,207.444,319.5,209.844,317.1,207.444,319.5,212.844" style="stroke:#181818;stroke-width:0.6;"/><text fill="#000000" font-family="sans-serif" font-size="7.8" lengthAdjust="spacing" textLength="33" x="320.1" y="192.617">password</text></g><!--SRC=[lLHDZzCm4BtxLrXx8OMqWciFAnM4K6-e5JSktcH8hNNio9vgDwpuxqnIExNp9Kxa5CyRpyURUNRFKZV2YfetedWM5PonLS0j52XqfO2vmS5TH6bUfAxuBw5SZ2Yf0Ti6U6DKsnrO11PAE7T0jFBfYd0iZ3xBty0_CjOZ_0ILT0ZsQzqeqmByEFAtFqlW5wFH6gN0yZV6wVkmuf9HExfeJz0O9z7ODkS4mFsyyI4gmCF8DOkmKt9fGEmeSQP53Jdnw5nZBBvpl12svFfQFu7DEOhNyFzJYxAqu5pEeHPIyU68eA2v60t3jLiFjyetZ4NC-88aEC_5DZ767Horet4Ma6tuFd7wDmA-Ky8NOyjLKeRAnf6YSTwWUBv9b14G7GF7ixwXl6-WmGe2uunNl816MGYKHiVNVIjNHnDyfK4wdlN3Y3e9MGT-pxJ5jF_Te5FB_D1Jd_i2f7O__DIOxCKepcX7F7hK21NfOWOAYNhsKrktLjDMEZQP9wYm8F0_B7S-P8ucS6v9OVMXhAMc4VdX-dfd6kqJ1ZZqGS5OefRjOwgUFPTU7vtZv3NQFQwyCTCRqHErcoIoiVP6LL5P3vyU9l9XR2AetlLzS5s8aqgBd5AfXHYTUI72L7ICpGWnH0hGKbyBIbnda2WSLBXVhQXFDBSlUx_2vMVodhuLkssIuhx-Vm40]--></g></svg>