<?xml version="1.0" encoding="us-ascii" standalone="no"?><svg xmlns="http://www.w3.org/2000/svg" xmlns:xlink="http://www.w3.org/1999/xlink" contentStyleType="text/css" height="569.5px" preserveAspectRatio="none" style="width:600px;height:569px;background:#FFFFFF;" version="1.1" viewBox="0 0 600 569" width="600px" zoomAndPan="magnify"><defs/><g><rect fill="#FFFFFF" height="469.0303" style="stroke:#181818;stroke-width:0.5;" width="5" x="18.25" y="46.8105"/><rect fill="#FFFFFF" height="144.4746" style="stroke:#181818;stroke-width:0.5;" width="5" x="120.25" y="58.4561"/><rect fill="#FFFFFF" height="109.5186" style="stroke:#181818;stroke-width:0.5;" width="5" x="120.25" y="218.5762"/><rect fill="#FFFFFF" height="172.1006" style="stroke:#181818;stroke-width:0.5;" width="5" x="120.25" y="343.7402"/><rect fill="#FFFFFF" height="78.2275" style="stroke:#181818;stroke-width:0.5;" width="5" x="220.75" y="95.9121"/><rect fill="#FFFFFF" height="78.2275" style="stroke:#181818;stroke-width:0.5;" width="5" x="220.75" y="234.2217"/><rect fill="#FFFFFF" height="140.8096" style="stroke:#181818;stroke-width:0.5;" width="5" x="220.75" y="359.3857"/><rect fill="#FFFFFF" height="46.9365" style="stroke:#181818;stroke-width:0.5;" width="5" x="322.75" y="111.5576"/><rect fill="#FFFFFF" height="46.9365" style="stroke:#181818;stroke-width:0.5;" width="5" x="322.75" y="249.8672"/><rect fill="#FFFFFF" height="46.9365" style="stroke:#181818;stroke-width:0.5;" width="5" x="322.75" y="375.0313"/><rect fill="#FFFFFF" height="15.6455" style="stroke:#181818;stroke-width:0.5;" width="5" x="423.25" y="127.2031"/><rect fill="#FFFFFF" height="15.6455" style="stroke:#181818;stroke-width:0.5;" width="5" x="423.25" y="265.5127"/><rect fill="#FFFFFF" height="15.6455" style="stroke:#181818;stroke-width:0.5;" width="5" x="423.25" y="390.6768"/><rect fill="#FFFFFF" height="46.9365" style="stroke:#181818;stroke-width:0.5;" width="5" x="496.75" y="437.6133"/><rect fill="#FFFFFF" height="15.6455" style="stroke:#181818;stroke-width:0.5;" width="5" x="575.75" y="453.2588"/><rect fill="none" height="338.2012" style="stroke:#000000;stroke-width:0.75;" width="592" x="5" y="181.6396"/><line style="stroke:#181818;stroke-width:0.25;stroke-dasharray:5.0,5.0;" x1="20.5" x2="20.5" y1="41.8105" y2="528.3408"/><line style="stroke:#181818;stroke-width:0.25;stroke-dasharray:5.0,5.0;" x1="122.75" x2="122.75" y1="41.8105" y2="528.3408"/><line style="stroke:#181818;stroke-width:0.25;stroke-dasharray:5.0,5.0;" x1="223" x2="223" y1="78.3613" y2="528.3408"/><line style="stroke:#181818;stroke-width:0.25;stroke-dasharray:5.0,5.0;" x1="325.25" x2="325.25" y1="41.8105" y2="528.3408"/><line style="stroke:#181818;stroke-width:0.25;stroke-dasharray:5.0,5.0;" x1="425.5" x2="425.5" y1="41.8105" y2="528.3408"/><line style="stroke:#181818;stroke-width:0.25;stroke-dasharray:5.0,5.0;" x1="499" x2="499" y1="41.8105" y2="528.3408"/><line style="stroke:#181818;stroke-width:0.25;stroke-dasharray:5.0,5.0;" x1="578" x2="578" y1="41.8105" y2="528.3408"/><text fill="#000000" font-family="sans-serif" font-size="7" lengthAdjust="spacing" textLength="18.5" x="10" y="40.0537">Agent</text><ellipse cx="20.75" cy="6.75" fill="#E2E2F0" rx="4" ry="4" style="stroke:#181818;stroke-width:0.25;"/><path d="M20.75,10.75 L20.75,24.25 M14.25,14.75 L27.25,14.75 M20.75,24.25 L14.25,31.75 M20.75,24.25 L27.25,31.75 " fill="none" style="stroke:#181818;stroke-width:0.25;"/><text fill="#000000" font-family="sans-serif" font-size="7" lengthAdjust="spacing" textLength="18.5" x="10" y="535.3945">Agent</text><ellipse cx="20.75" cy="541.4014" fill="#E2E2F0" rx="4" ry="4" style="stroke:#181818;stroke-width:0.25;"/><path d="M20.75,545.4014 L20.75,558.9014 M14.25,549.4014 L27.25,549.4014 M20.75,558.9014 L14.25,566.4014 M20.75,558.9014 L27.25,566.4014 " fill="none" style="stroke:#181818;stroke-width:0.25;"/><rect fill="#E2E2F0" height="16.3105" rx="1.25" ry="1.25" style="stroke:#181818;stroke-width:0.25;" width="51" x="97.25" y="25"/><text fill="#000000" font-family="sans-serif" font-size="7" lengthAdjust="spacing" textLength="44" x="100.75" y="36.0537">User Interface</text><rect fill="#E2E2F0" height="16.3105" rx="1.25" ry="1.25" style="stroke:#181818;stroke-width:0.25;" width="51" x="97.25" y="527.8408"/><text fill="#000000" font-family="sans-serif" font-size="7" lengthAdjust="spacing" textLength="44" x="100.75" y="538.8945">User Interface</text><rect fill="#E2E2F0" height="16.3105" rx="1.25" ry="1.25" style="stroke:#181818;stroke-width:0.25;" width="86.5" x="180" y="527.8408"/><text fill="#000000" font-family="sans-serif" font-size="7" lengthAdjust="spacing" textLength="79.5" x="183.5" y="538.8945">PurchaseOrderController</text><rect fill="#E2E2F0" height="16.3105" rx="1.25" ry="1.25" style="stroke:#181818;stroke-width:0.25;" width="71" x="289.75" y="25"/><text fill="#000000" font-family="sans-serif" font-size="7" lengthAdjust="spacing" textLength="64" x="293.25" y="36.0537">Repository Manager</text><rect fill="#E2E2F0" height="16.3105" rx="1.25" ry="1.25" style="stroke:#181818;stroke-width:0.25;" width="71" x="289.75" y="527.8408"/><text fill="#000000" font-family="sans-serif" font-size="7" lengthAdjust="spacing" textLength="64" x="293.25" y="538.8945">Repository Manager</text><rect fill="#E2E2F0" height="16.3105" rx="1.25" ry="1.25" style="stroke:#181818;stroke-width:0.25;" width="89.5" x="381" y="25"/><text fill="#000000" font-family="sans-serif" font-size="7" lengthAdjust="spacing" textLength="82.5" x="384.5" y="36.0537">PurchaseOrderRepository</text><rect fill="#E2E2F0" height="16.3105" rx="1.25" ry="1.25" style="stroke:#181818;stroke-width:0.25;" width="89.5" x="381" y="527.8408"/><text fill="#000000" font-family="sans-serif" font-size="7" lengthAdjust="spacing" textLength="82.5" x="384.5" y="538.8945">PurchaseOrderRepository</text><rect fill="#E2E2F0" height="16.3105" rx="1.25" ry="1.25" style="stroke:#181818;stroke-width:0.25;" width="47.5" x="475.5" y="25"/><text fill="#000000" font-family="sans-serif" font-size="7" lengthAdjust="spacing" textLength="40.5" x="479" y="36.0537">EmailService</text><rect fill="#E2E2F0" height="16.3105" rx="1.25" ry="1.25" style="stroke:#181818;stroke-width:0.25;" width="47.5" x="475.5" y="527.8408"/><text fill="#000000" font-family="sans-serif" font-size="7" lengthAdjust="spacing" textLength="40.5" x="479" y="538.8945">EmailService</text><rect fill="#E2E2F0" height="16.3105" rx="1.25" ry="1.25" style="stroke:#181818;stroke-width:0.25;" width="27.5" x="564.5" y="25"/><text fill="#000000" font-family="sans-serif" font-size="7" lengthAdjust="spacing" textLength="20.5" x="568" y="36.0537">Owner</text><rect fill="#E2E2F0" height="16.3105" rx="1.25" ry="1.25" style="stroke:#181818;stroke-width:0.25;" width="27.5" x="564.5" y="527.8408"/><text fill="#000000" font-family="sans-serif" font-size="7" lengthAdjust="spacing" textLength="20.5" x="568" y="538.8945">Owner</text><rect fill="#FFFFFF" height="469.0303" style="stroke:#181818;stroke-width:0.5;" width="5" x="18.25" y="46.8105"/><rect fill="#FFFFFF" height="144.4746" style="stroke:#181818;stroke-width:0.5;" width="5" x="120.25" y="58.4561"/><rect fill="#FFFFFF" height="109.5186" style="stroke:#181818;stroke-width:0.5;" width="5" x="120.25" y="218.5762"/><rect fill="#FFFFFF" height="172.1006" style="stroke:#181818;stroke-width:0.5;" width="5" x="120.25" y="343.7402"/><rect fill="#FFFFFF" height="78.2275" style="stroke:#181818;stroke-width:0.5;" width="5" x="220.75" y="95.9121"/><rect fill="#FFFFFF" height="78.2275" style="stroke:#181818;stroke-width:0.5;" width="5" x="220.75" y="234.2217"/><rect fill="#FFFFFF" height="140.8096" style="stroke:#181818;stroke-width:0.5;" width="5" x="220.75" y="359.3857"/><rect fill="#FFFFFF" height="46.9365" style="stroke:#181818;stroke-width:0.5;" width="5" x="322.75" y="111.5576"/><rect fill="#FFFFFF" height="46.9365" style="stroke:#181818;stroke-width:0.5;" width="5" x="322.75" y="249.8672"/><rect fill="#FFFFFF" height="46.9365" style="stroke:#181818;stroke-width:0.5;" width="5" x="322.75" y="375.0313"/><rect fill="#FFFFFF" height="15.6455" style="stroke:#181818;stroke-width:0.5;" width="5" x="423.25" y="127.2031"/><rect fill="#FFFFFF" height="15.6455" style="stroke:#181818;stroke-width:0.5;" width="5" x="423.25" y="265.5127"/><rect fill="#FFFFFF" height="15.6455" style="stroke:#181818;stroke-width:0.5;" width="5" x="423.25" y="390.6768"/><rect fill="#FFFFFF" height="46.9365" style="stroke:#181818;stroke-width:0.5;" width="5" x="496.75" y="437.6133"/><rect fill="#FFFFFF" height="15.6455" style="stroke:#181818;stroke-width:0.5;" width="5" x="575.75" y="453.2588"/><polygon fill="#181818" points="114.25,56.4561,119.25,58.4561,114.25,60.4561,116.25,58.4561" style="stroke:#181818;stroke-width:0.5;"/><line style="stroke:#181818;stroke-width:0.5;" x1="23.25" x2="117.25" y1="58.4561" y2="58.4561"/><text fill="#000000" font-family="sans-serif" font-size="6.5" lengthAdjust="spacing" textLength="80.5" x="26.75" y="55.8247">asks to list purchase orders</text><polygon fill="#181818" points="174,72.1016,179,74.1016,174,76.1016,176,74.1016" style="stroke:#181818;stroke-width:0.5;"/><line style="stroke:#181818;stroke-width:0.5;stroke-dasharray:2.0,2.0;" x1="125.25" x2="177" y1="74.1016" y2="74.1016"/><text fill="#000000" font-family="sans-serif" font-size="6.5" lengthAdjust="spacing" textLength="18" x="128.75" y="71.4702">create</text><rect fill="#E2E2F0" height="16.3105" rx="1.25" ry="1.25" style="stroke:#181818;stroke-width:0.25;" width="86.5" x="180" y="62.4561"/><text fill="#000000" font-family="sans-serif" font-size="7" lengthAdjust="spacing" textLength="79.5" x="183.5" y="73.5098">PurchaseOrderController</text><polygon fill="#181818" points="214.75,93.9121,219.75,95.9121,214.75,97.9121,216.75,95.9121" style="stroke:#181818;stroke-width:0.5;"/><line style="stroke:#181818;stroke-width:0.5;stroke-dasharray:2.0,2.0;" x1="125.25" x2="217.75" y1="95.9121" y2="95.9121"/><text fill="#000000" font-family="sans-serif" font-size="6.5" lengthAdjust="spacing" textLength="56.5" x="128.75" y="93.2808">getPurchaseOrder()</text><polygon fill="#181818" points="316.75,109.5576,321.75,111.5576,316.75,113.5576,318.75,111.5576" style="stroke:#181818;stroke-width:0.5;"/><line style="stroke:#181818;stroke-width:0.5;stroke-dasharray:2.0,2.0;" x1="225.75" x2="319.75" y1="111.5576" y2="111.5576"/><text fill="#000000" font-family="sans-serif" font-size="6.5" lengthAdjust="spacing" textLength="87.5" x="229.25" y="108.9263">getPurchaseOrderRepository()</text><polygon fill="#181818" points="417.25,125.2031,422.25,127.2031,417.25,129.2031,419.25,127.2031" style="stroke:#181818;stroke-width:0.5;"/><line style="stroke:#181818;stroke-width:0.5;stroke-dasharray:2.0,2.0;" x1="327.75" x2="420.25" y1="127.2031" y2="127.2031"/><text fill="#000000" font-family="sans-serif" font-size="6.5" lengthAdjust="spacing" textLength="60" x="331.25" y="124.5718">getPurchaseOrders()</text><polygon fill="#181818" points="333.25,140.8486,328.25,142.8486,333.25,144.8486,331.25,142.8486" style="stroke:#181818;stroke-width:0.5;"/><line style="stroke:#181818;stroke-width:0.5;stroke-dasharray:2.0,2.0;" x1="330.25" x2="425.25" y1="142.8486" y2="142.8486"/><text fill="#000000" font-family="sans-serif" font-size="6.5" lengthAdjust="spacing" textLength="53" x="336.25" y="140.2173">purchaseOrderList</text><polygon fill="#181818" points="231.25,156.4941,226.25,158.4941,231.25,160.4941,229.25,158.4941" style="stroke:#181818;stroke-width:0.5;"/><line style="stroke:#181818;stroke-width:0.5;stroke-dasharray:2.0,2.0;" x1="228.25" x2="324.75" y1="158.4941" y2="158.4941"/><text fill="#000000" font-family="sans-serif" font-size="6.5" lengthAdjust="spacing" textLength="53" x="234.25" y="155.8628">purchaseOrderList</text><polygon fill="#181818" points="130.75,172.1396,125.75,174.1396,130.75,176.1396,128.75,174.1396" style="stroke:#181818;stroke-width:0.5;"/><line style="stroke:#181818;stroke-width:0.5;stroke-dasharray:2.0,2.0;" x1="127.75" x2="222.75" y1="174.1396" y2="174.1396"/><text fill="#000000" font-family="sans-serif" font-size="6.5" lengthAdjust="spacing" textLength="53" x="133.75" y="171.5083">purchaseOrderList</text><path d="M5,181.6396 L41.5,181.6396 L41.5,186.2852 L36.5,191.2852 L5,191.2852 L5,181.6396 " fill="#EEEEEE" style="stroke:#000000;stroke-width:0.75;"/><rect fill="none" height="338.2012" style="stroke:#000000;stroke-width:0.75;" width="592" x="5" y="181.6396"/><text fill="#000000" font-family="sans-serif" font-size="6.5" font-weight="bold" lengthAdjust="spacing" textLength="14" x="12.5" y="189.1538">loop</text><text fill="#000000" font-family="sans-serif" font-size="5.5" font-weight="bold" lengthAdjust="spacing" textLength="70" x="49" y="188.5747">[till the agent is satisfied]</text><polygon fill="#181818" points="28.75,200.9307,23.75,202.9307,28.75,204.9307,26.75,202.9307" style="stroke:#181818;stroke-width:0.5;"/><line style="stroke:#181818;stroke-width:0.5;stroke-dasharray:2.0,2.0;" x1="25.75" x2="122.25" y1="202.9307" y2="202.9307"/><text fill="#000000" font-family="sans-serif" font-size="6.5" lengthAdjust="spacing" textLength="75.5" x="31.75" y="200.2993">display purchaseOrderList</text><polygon fill="#181818" points="114.25,216.5762,119.25,218.5762,114.25,220.5762,116.25,218.5762" style="stroke:#181818;stroke-width:0.5;"/><line style="stroke:#181818;stroke-width:0.5;" x1="23.25" x2="117.25" y1="218.5762" y2="218.5762"/><text fill="#000000" font-family="sans-serif" font-size="6.5" lengthAdjust="spacing" textLength="62.5" x="26.75" y="215.9448">select purchase order</text><polygon fill="#181818" points="214.75,232.2217,219.75,234.2217,214.75,236.2217,216.75,234.2217" style="stroke:#181818;stroke-width:0.5;"/><line style="stroke:#181818;stroke-width:0.5;" x1="125.25" x2="217.75" y1="234.2217" y2="234.2217"/><text fill="#000000" font-family="sans-serif" font-size="6.5" lengthAdjust="spacing" textLength="63.5" x="128.75" y="231.5903">getOrderDetails(order)</text><polygon fill="#181818" points="316.75,247.8672,321.75,249.8672,316.75,251.8672,318.75,249.8672" style="stroke:#181818;stroke-width:0.5;"/><line style="stroke:#181818;stroke-width:0.5;" x1="225.75" x2="319.75" y1="249.8672" y2="249.8672"/><text fill="#000000" font-family="sans-serif" font-size="6.5" lengthAdjust="spacing" textLength="63.5" x="229.25" y="247.2358">getOrderDetails(order)</text><polygon fill="#181818" points="417.25,263.5127,422.25,265.5127,417.25,267.5127,419.25,265.5127" style="stroke:#181818;stroke-width:0.5;"/><line style="stroke:#181818;stroke-width:0.5;" x1="327.75" x2="420.25" y1="265.5127" y2="265.5127"/><text fill="#000000" font-family="sans-serif" font-size="6.5" lengthAdjust="spacing" textLength="63.5" x="331.25" y="262.8813">getOrderDetails(order)</text><polygon fill="#181818" points="333.25,279.1582,328.25,281.1582,333.25,283.1582,331.25,281.1582" style="stroke:#181818;stroke-width:0.5;"/><line style="stroke:#181818;stroke-width:0.5;stroke-dasharray:2.0,2.0;" x1="330.25" x2="425.25" y1="281.1582" y2="281.1582"/><text fill="#000000" font-family="sans-serif" font-size="6.5" lengthAdjust="spacing" textLength="62.5" x="336.25" y="278.5269">purchaseOrderDetails</text><polygon fill="#181818" points="231.25,294.8037,226.25,296.8037,231.25,298.8037,229.25,296.8037" style="stroke:#181818;stroke-width:0.5;"/><line style="stroke:#181818;stroke-width:0.5;stroke-dasharray:2.0,2.0;" x1="228.25" x2="324.75" y1="296.8037" y2="296.8037"/><text fill="#000000" font-family="sans-serif" font-size="6.5" lengthAdjust="spacing" textLength="62.5" x="234.25" y="294.1724">purchaseOrderDetails</text><polygon fill="#181818" points="130.75,310.4492,125.75,312.4492,130.75,314.4492,128.75,312.4492" style="stroke:#181818;stroke-width:0.5;"/><line style="stroke:#181818;stroke-width:0.5;stroke-dasharray:2.0,2.0;" x1="127.75" x2="222.75" y1="312.4492" y2="312.4492"/><text fill="#000000" font-family="sans-serif" font-size="6.5" lengthAdjust="spacing" textLength="62.5" x="133.75" y="309.8179">purchaseOrderDetails</text><polygon fill="#181818" points="28.75,326.0947,23.75,328.0947,28.75,330.0947,26.75,328.0947" style="stroke:#181818;stroke-width:0.5;"/><line style="stroke:#181818;stroke-width:0.5;" x1="25.75" x2="122.25" y1="328.0947" y2="328.0947"/><text fill="#000000" font-family="sans-serif" font-size="6.5" lengthAdjust="spacing" textLength="85" x="31.75" y="325.4634">display purchaseOrderDetails</text><polygon fill="#181818" points="114.25,341.7402,119.25,343.7402,114.25,345.7402,116.25,343.7402" style="stroke:#181818;stroke-width:0.5;"/><line style="stroke:#181818;stroke-width:0.5;" x1="23.25" x2="117.25" y1="343.7402" y2="343.7402"/><text fill="#000000" font-family="sans-serif" font-size="6.5" lengthAdjust="spacing" textLength="87" x="26.75" y="341.1089">accept/decline purchase order</text><polygon fill="#181818" points="214.75,357.3857,219.75,359.3857,214.75,361.3857,216.75,359.3857" style="stroke:#181818;stroke-width:0.5;"/><line style="stroke:#181818;stroke-width:0.5;" x1="125.25" x2="217.75" y1="359.3857" y2="359.3857"/><text fill="#000000" font-family="sans-serif" font-size="6.5" lengthAdjust="spacing" textLength="86" x="128.75" y="356.7544">updatePurchaseOrderStatus()</text><polygon fill="#181818" points="316.75,373.0313,321.75,375.0313,316.75,377.0313,318.75,375.0313" style="stroke:#181818;stroke-width:0.5;"/><line style="stroke:#181818;stroke-width:0.5;" x1="225.75" x2="319.75" y1="375.0313" y2="375.0313"/><text fill="#000000" font-family="sans-serif" font-size="6.5" lengthAdjust="spacing" textLength="86" x="229.25" y="372.3999">updatePurchaseOrderStatus()</text><polygon fill="#181818" points="417.25,388.6768,422.25,390.6768,417.25,392.6768,419.25,390.6768" style="stroke:#181818;stroke-width:0.5;"/><line style="stroke:#181818;stroke-width:0.5;" x1="327.75" x2="420.25" y1="390.6768" y2="390.6768"/><text fill="#000000" font-family="sans-serif" font-size="6.5" lengthAdjust="spacing" textLength="86" x="331.25" y="388.0454">updatePurchaseOrderStatus()</text><polygon fill="#181818" points="333.25,404.3223,328.25,406.3223,333.25,408.3223,331.25,406.3223" style="stroke:#181818;stroke-width:0.5;"/><line style="stroke:#181818;stroke-width:0.5;stroke-dasharray:2.0,2.0;" x1="330.25" x2="425.25" y1="406.3223" y2="406.3223"/><text fill="#000000" font-family="sans-serif" font-size="6.5" lengthAdjust="spacing" textLength="46" x="336.25" y="403.6909">update success</text><polygon fill="#181818" points="231.25,419.9678,226.25,421.9678,231.25,423.9678,229.25,421.9678" style="stroke:#181818;stroke-width:0.5;"/><line style="stroke:#181818;stroke-width:0.5;stroke-dasharray:2.0,2.0;" x1="228.25" x2="324.75" y1="421.9678" y2="421.9678"/><text fill="#000000" font-family="sans-serif" font-size="6.5" lengthAdjust="spacing" textLength="46" x="234.25" y="419.3364">update success</text><polygon fill="#181818" points="490.75,435.6133,495.75,437.6133,490.75,439.6133,492.75,437.6133" style="stroke:#181818;stroke-width:0.5;"/><line style="stroke:#181818;stroke-width:0.5;" x1="225.75" x2="493.75" y1="437.6133" y2="437.6133"/><text fill="#000000" font-family="sans-serif" font-size="6.5" lengthAdjust="spacing" textLength="47" x="229.25" y="434.9819">send notification</text><polygon fill="#181818" points="569.75,451.2588,574.75,453.2588,569.75,455.2588,571.75,453.2588" style="stroke:#181818;stroke-width:0.5;"/><line style="stroke:#181818;stroke-width:0.5;" x1="501.75" x2="572.75" y1="453.2588" y2="453.2588"/><text fill="#000000" font-family="sans-serif" font-size="6.5" lengthAdjust="spacing" textLength="64.5" x="505.25" y="450.6274">send email notification</text><polygon fill="#181818" points="507.25,466.9043,502.25,468.9043,507.25,470.9043,505.25,468.9043" style="stroke:#181818;stroke-width:0.5;"/><line style="stroke:#181818;stroke-width:0.5;stroke-dasharray:2.0,2.0;" x1="504.25" x2="577.75" y1="468.9043" y2="468.9043"/><text fill="#000000" font-family="sans-serif" font-size="6.5" lengthAdjust="spacing" textLength="52" x="510.25" y="466.2729">acknowledgement</text><polygon fill="#181818" points="231.25,482.5498,226.25,484.5498,231.25,486.5498,229.25,484.5498" style="stroke:#181818;stroke-width:0.5;"/><line style="stroke:#181818;stroke-width:0.5;stroke-dasharray:2.0,2.0;" x1="228.25" x2="498.75" y1="484.5498" y2="484.5498"/><text fill="#000000" font-family="sans-serif" font-size="6.5" lengthAdjust="spacing" textLength="45.5" x="234.25" y="481.9185">notification sent</text><polygon fill="#181818" points="130.75,498.1953,125.75,500.1953,130.75,502.1953,128.75,500.1953" style="stroke:#181818;stroke-width:0.5;"/><line style="stroke:#181818;stroke-width:0.5;stroke-dasharray:2.0,2.0;" x1="127.75" x2="222.75" y1="500.1953" y2="500.1953"/><text fill="#000000" font-family="sans-serif" font-size="6.5" lengthAdjust="spacing" textLength="35" x="133.75" y="497.564">confirmation</text><polygon fill="#181818" points="26.25,513.8408,21.25,515.8408,26.25,517.8408,24.25,515.8408" style="stroke:#181818;stroke-width:0.5;"/><line style="stroke:#181818;stroke-width:0.5;" x1="23.25" x2="122.25" y1="515.8408" y2="515.8408"/><text fill="#000000" font-family="sans-serif" font-size="6.5" lengthAdjust="spacing" textLength="35" x="29.25" y="513.2095">confirmation</text><!--SRC=[hPNFQkCm4CRlUOgXfsoXx3s7Gcdt4CZIqf876EH9Agf8GZDfwTjNbhrOyh-DTti9bgNlcz7ddo9KuWBS7SdAocCGhRH7At2rPmgmjKBXW8gk01dsstB9qpceLsHw31M5UsSbE6CefBNTiDGyatUiOyrF-8qMZ-to-dKxdgdHYPEezwuK_ZgXDYyKtdNRVVwYMFhuOMFL5IhHxoZKXf5-uUOsxdeJvMyCui1e5l1jI-3g-jm9OpxxBTn4JRVxw-iDg41nUZYtWID9iS7rZyujIx1xJ0vPM4EBBe_SBCytUqvsFTdGadEdVkYzyR11drljOe2hYYRT-htbOSqQvHlinLL_m5bjblJEEG-YZG5v9S34W6PW5Cq7JTMVZvZes42bsHlydBUFM9GqCHbIVOu660r8IUOF915ZNYVDtsaPmZBhCed9E2MpNly7IklwBQoCU2t1PKIUfTrygZaUHlG3950fylAp8cMqfMLed7qLvueJ-o8ePrulvkCYgoMGN6Iuc9J65VWSK-D_PcJQPOgEs-8IgG-ohS0wqGUjuZ-4izsUYjic7wIOwXkdbLCzDs7It4pfDtLVLaVrPjs7eUf8f_h6ocD8mh9iR_TvnRgJGbzqFt8-bBC77KvDknUSYwdraUTir5oyCPGl]--></g></svg>