<?xml version="1.0" encoding="us-ascii" standalone="no"?><svg xmlns="http://www.w3.org/2000/svg" xmlns:xlink="http://www.w3.org/1999/xlink" contentStyleType="text/css" height="874px" preserveAspectRatio="none" style="width:882px;height:874px;background:#FFFFFF;" version="1.1" viewBox="0 0 882 874" width="882px" zoomAndPan="magnify"><defs/><g><!--entity System_Administrator--><g id="elem_System_Administrator"><ellipse cx="61" cy="772.5" fill="#F1F1F1" rx="8" ry="8" style="stroke:#181818;stroke-width:0.5;"/><path d="M61,780.5 L61,807.5 M48,788.5 L74,788.5 M61,807.5 L48,822.5 M61,807.5 L74,822.5 " fill="none" style="stroke:#181818;stroke-width:0.5;"/><text fill="#000000" font-family="sans-serif" font-size="14" lengthAdjust="spacing" textLength="46" x="19.5" y="836.6738">System</text><text fill="#000000" font-family="sans-serif" font-size="14" lengthAdjust="spacing" textLength="83" x="19.5" y="852.3145">Administrator</text></g><!--entity User--><g id="elem_User"><ellipse cx="61" cy="661" fill="#F1F1F1" rx="8" ry="8" style="stroke:#181818;stroke-width:0.5;"/><path d="M61,669 L61,696 M48,677 L74,677 M61,696 L48,711 M61,696 L74,711 " fill="none" style="stroke:#181818;stroke-width:0.5;"/><text fill="#000000" font-family="sans-serif" font-size="14" lengthAdjust="spacing" textLength="29" x="46.5" y="725.1738">User</text></g><!--entity Unregistered_User--><g id="elem_Unregistered_User"><ellipse cx="61" cy="534.5" fill="#F1F1F1" rx="8" ry="8" style="stroke:#181818;stroke-width:0.5;"/><path d="M61,542.5 L61,569.5 M48,550.5 L74,550.5 M61,569.5 L48,584.5 M61,569.5 L74,584.5 " fill="none" style="stroke:#181818;stroke-width:0.5;"/><text fill="#000000" font-family="sans-serif" font-size="14" lengthAdjust="spacing" textLength="81" x="20.5" y="598.6738">Unregistered</text><text fill="#000000" font-family="sans-serif" font-size="14" lengthAdjust="spacing" textLength="29" x="20.5" y="614.3145">User</text></g><!--entity Owner--><g id="elem_Owner"><ellipse cx="61" cy="423" fill="#F1F1F1" rx="8" ry="8" style="stroke:#181818;stroke-width:0.5;"/><path d="M61,431 L61,458 M48,439 L74,439 M61,458 L48,473 M61,458 L74,473 " fill="none" style="stroke:#181818;stroke-width:0.5;"/><text fill="#000000" font-family="sans-serif" font-size="14" lengthAdjust="spacing" textLength="41" x="40.5" y="487.1738">Owner</text></g><!--entity Agent--><g id="elem_Agent"><ellipse cx="61" cy="238" fill="#F1F1F1" rx="8" ry="8" style="stroke:#181818;stroke-width:0.5;"/><path d="M61,246 L61,273 M48,254 L74,254 M61,273 L48,288 M61,273 L74,288 " fill="none" style="stroke:#181818;stroke-width:0.5;"/><text fill="#000000" font-family="sans-serif" font-size="14" lengthAdjust="spacing" textLength="37" x="42.5" y="302.1738">Agent</text></g><!--entity New_Employee--><g id="elem_New_Employee"><ellipse cx="61" cy="127" fill="#F1F1F1" rx="8" ry="8" style="stroke:#181818;stroke-width:0.5;"/><path d="M61,135 L61,162 M48,143 L74,143 M61,162 L48,177 M61,162 L74,177 " fill="none" style="stroke:#181818;stroke-width:0.5;"/><text fill="#000000" font-family="sans-serif" font-size="14" lengthAdjust="spacing" textLength="92" x="15" y="191.1738">New Employee</text></g><!--entity Network_Manager--><g id="elem_Network_Manager"><ellipse cx="61" cy="16" fill="#F1F1F1" rx="8" ry="8" style="stroke:#181818;stroke-width:0.5;"/><path d="M61,24 L61,51 M48,32 L74,32 M61,51 L48,66 M61,51 L74,66 " fill="none" style="stroke:#181818;stroke-width:0.5;"/><text fill="#000000" font-family="sans-serif" font-size="14" lengthAdjust="spacing" textLength="110" x="6" y="80.1738">Network Manager</text></g><g id="elem_UC5"><ellipse cx="360.5355" cy="772.4071" fill="#F1F1F1" rx="72.5355" ry="16.9071" style="stroke:#181818;stroke-width:0.5;"/><text fill="#000000" font-family="sans-serif" font-size="14" lengthAdjust="spacing" textLength="103" x="309.0355" y="775.2606">registers a store</text></g><g id="elem_UC1"><ellipse cx="360.6806" cy="548.5361" fill="#F1F1F1" rx="83.1806" ry="19.0361" style="stroke:#181818;stroke-width:0.5;"/><text fill="#000000" font-family="sans-serif" font-size="14" lengthAdjust="spacing" textLength="128" x="296.6806" y="551.3896">see listed properties</text></g><g id="elem_UC21"><ellipse cx="740.9889" cy="186.6192" fill="#F1F1F1" rx="81.4889" ry="25.1192" style="stroke:#181818;stroke-width:0.5;"/><text fill="#000000" font-family="sans-serif" font-size="14" lengthAdjust="spacing" textLength="99" x="691.4889" y="181.6524">launches a sale</text><text fill="#000000" font-family="sans-serif" font-size="14" lengthAdjust="spacing" textLength="94" x="693.9889" y="197.293">announcement</text></g><g id="elem_UC22"><ellipse cx="360.2521" cy="186.4504" fill="#F1F1F1" rx="90.2521" ry="20.4504" style="stroke:#181818;stroke-width:0.5;"/><text fill="#000000" font-family="sans-serif" font-size="14" lengthAdjust="spacing" textLength="144" x="288.2521" y="189.3039">is contacted by a client</text></g><g id="elem_UC3"><ellipse cx="360.4272" cy="846.4854" fill="#F1F1F1" rx="97.9272" ry="21.9854" style="stroke:#181818;stroke-width:0.5;"/><text fill="#000000" font-family="sans-serif" font-size="14" lengthAdjust="spacing" textLength="161" x="279.9272" y="849.339">registers a new employee</text></g><g id="elem_UC41"><ellipse cx="360.4267" cy="452.5853" fill="#F1F1F1" rx="78.4267" ry="18.0853" style="stroke:#181818;stroke-width:0.5;"/><text fill="#000000" font-family="sans-serif" font-size="14" lengthAdjust="spacing" textLength="117" x="301.9267" y="455.4388">chooses the agent</text></g><g id="elem_UC42"><ellipse cx="740.8832" cy="452.5766" fill="#F1F1F1" rx="135.8832" ry="29.5766" style="stroke:#181818;stroke-width:0.5;"/><text fill="#000000" font-family="sans-serif" font-size="14" lengthAdjust="spacing" textLength="242" x="619.8832" y="455.4301">submits a request for listing a property</text></g><g id="elem_UC7"><ellipse cx="360.6439" cy="621.4288" fill="#F1F1F1" rx="80.1439" ry="18.4288" style="stroke:#181818;stroke-width:0.5;"/><text fill="#000000" font-family="sans-serif" font-size="14" lengthAdjust="spacing" textLength="121" x="300.1439" y="624.2823">creates an account</text></g><g id="elem_UC011_1"><ellipse cx="360.6078" cy="267.7216" fill="#F1F1F1" rx="114.1078" ry="25.2216" style="stroke:#181818;stroke-width:0.5;"/><text fill="#000000" font-family="sans-serif" font-size="14" lengthAdjust="spacing" textLength="196" x="262.6078" y="270.5751">list real estate purchase orders</text></g><g id="elem_UC011_2"><ellipse cx="360.6661" cy="363.7332" fill="#F1F1F1" rx="169.1661" ry="36.2332" style="stroke:#181818;stroke-width:0.5;"/><text fill="#000000" font-family="sans-serif" font-size="14" lengthAdjust="spacing" textLength="311" x="205.1661" y="366.5867">accept or decline a purchase order for a property</text></g><g id="elem_UC013"><ellipse cx="360.2676" cy="45.2535" fill="#F1F1F1" rx="184.2676" ry="39.2535" style="stroke:#181818;stroke-width:0.5;"/><text fill="#000000" font-family="sans-serif" font-size="14" lengthAdjust="spacing" textLength="342" x="189.2676" y="48.107">list all employees working in every store of the network</text></g><!--link Unregistered_User to UC1--><g id="link_Unregistered_User_UC1"><path d="M101.51,568.45 C145.92,565.01 219.3,559.34 276.47,554.92 " fill="none" id="Unregistered_User-to-UC1" style="stroke:#181818;stroke-width:1.0;"/><polygon fill="#181818" points="281.6,554.52,272.3183,551.2261,276.6149,554.9057,272.9353,559.2023,281.6,554.52" style="stroke:#181818;stroke-width:1.0;"/></g><!--link Agent to UC22--><g id="link_Agent_UC22"><path d="M79.87,259.76 C102.07,250.38 141.26,234.58 176,224.5 C210.4,214.52 249.16,206.09 282.16,199.73 " fill="none" id="Agent-to-UC22" style="stroke:#181818;stroke-width:1.0;"/><polygon fill="#181818" points="287.4,198.73,277.8075,196.4975,282.4896,199.6721,279.3149,204.3542,287.4,198.73" style="stroke:#181818;stroke-width:1.0;"/></g><!--link UC22 to UC21--><g id="link_UC22_UC21"><path d="M451.2,186.5 C512.65,186.5 593.68,186.5 654.26,186.5 " fill="none" id="UC22-to-UC21" style="stroke:#181818;stroke-width:1.0;"/><polygon fill="#181818" points="659.32,186.5,650.32,182.5,654.32,186.5,650.32,190.5,659.32,186.5" style="stroke:#181818;stroke-width:1.0;"/></g><!--link System_Administrator to UC3--><g id="link_System_Administrator_UC3"><path d="M102.74,814.57 C145.45,819.88 213.94,828.4 269.45,835.3 " fill="none" id="System_Administrator-to-UC3" style="stroke:#181818;stroke-width:1.0;"/><polygon fill="#181818" points="274.44,835.92,266.0002,830.8436,269.478,835.3051,265.0164,838.7828,274.44,835.92" style="stroke:#181818;stroke-width:1.0;"/></g><!--link Owner to UC41--><g id="link_Owner_UC41"><path d="M81.52,452.5 C120.45,452.5 209.76,452.5 276.71,452.5 " fill="none" id="Owner-to-UC41" style="stroke:#181818;stroke-width:1.0;"/><polygon fill="#181818" points="281.89,452.5,272.89,448.5,276.89,452.5,272.89,456.5,281.89,452.5" style="stroke:#181818;stroke-width:1.0;"/></g><!--link UC41 to UC42--><g id="link_UC41_UC42"><path d="M439.01,452.5 C485.21,452.5 545.25,452.5 599.54,452.5 " fill="none" id="UC41-to-UC42" style="stroke:#181818;stroke-width:1.0;"/><polygon fill="#181818" points="604.78,452.5,595.78,448.5,599.78,452.5,595.78,456.5,604.78,452.5" style="stroke:#181818;stroke-width:1.0;"/></g><!--link System_Administrator to UC5--><g id="link_System_Administrator_UC5"><path d="M102.74,804.43 C151.17,798.41 232.74,788.27 290.94,781.03 " fill="none" id="System_Administrator-to-UC5" style="stroke:#181818;stroke-width:1.0;"/><polygon fill="#181818" points="296.14,780.38,286.7083,777.5439,291.1797,781.009,287.7147,785.4804,296.14,780.38" style="stroke:#181818;stroke-width:1.0;"/></g><!--link Unregistered_User to UC7--><g id="link_Unregistered_User_UC7"><path d="M101.51,578.14 C149.53,586.21 231.41,599.97 290.05,609.83 " fill="none" id="Unregistered_User-to-UC7" style="stroke:#181818;stroke-width:1.0;"/><polygon fill="#181818" points="295.29,610.71,287.0751,605.2771,290.3588,609.8834,285.7526,613.167,295.29,610.71" style="stroke:#181818;stroke-width:1.0;"/></g><!--link Agent to UC011_1--><g id="link_Agent_UC011_1"><path d="M79.72,267.5 C111.29,267.5 179.73,267.5 241.01,267.5 " fill="none" id="Agent-to-UC011_1" style="stroke:#181818;stroke-width:1.0;"/><polygon fill="#181818" points="246.16,267.5,237.16,263.5,241.16,267.5,237.16,271.5,246.16,267.5" style="stroke:#181818;stroke-width:1.0;"/></g><!--link Agent to UC011_2--><g id="link_Agent_UC011_2"><path d="M79.64,274.42 C101.94,283.06 141.56,298.1 176,309.5 C200.68,317.67 227.42,325.89 252.66,333.37 " fill="none" id="Agent-to-UC011_2" style="stroke:#181818;stroke-width:1.0;"/><polygon fill="#181818" points="257.69,334.85,250.1926,328.4633,252.895,333.433,247.9254,336.1353,257.69,334.85" style="stroke:#181818;stroke-width:1.0;"/></g><!--link Network_Manager to UC013--><g id="link_Network_Manager_UC013"><path d="M116.22,45.5 C132.37,45.5 151.05,45.5 170.74,45.5 " fill="none" id="Network_Manager-to-UC013" style="stroke:#181818;stroke-width:1.0;"/><polygon fill="#181818" points="175.77,45.5,166.77,41.5,170.77,45.5,166.77,49.5,175.77,45.5" style="stroke:#181818;stroke-width:1.0;"/></g><!--SRC=[XLEnZjim3Dtz5KIMJ0SqIG-t5RYcDxOTWcm10fxCs49aofNafaRHVoybsudjNAyU3E7nyP5yefR-hBb6XnLKbgqgdQq8WciekqLgL6SiQ1TQG-181UJ2KBQyCNo9kRreBk24nbCsIhxoVsSWtsVhSd9RQwo3Iwa3PN-oR1bq4Ecz9zYY_BveB6Bkoo-iQgcK6Je521QSBie0kOwYsdAM95454LliMX-eEl1pNcdMFZWKU07eeOiS9u5nfjJjYF4m2R2ZGZB8KNxW6sq47-Svto_Sqz9f77ekY4CAfTCuz8qky2ApsfOeCGGu3i2K62xMdU4hibo9wxa9E_POrjdIU5BHpCLE4ZlH_VPn6l94OE8aETJErkI29jzJLrEgmOPLIHuGF1ewC39RWQWQXjflrxCSxK5P3jAw57Xj9LKPFQAlf_J1rLY3nH0Q6xBVRgPiLLhhfPzG4c1nK_quQy8thvKEKTFHZuPyW9CO6QUE-uh3uEsG_avJ_jzEAaSOeZiiDwN4cA6TfvcD8YQDe07fH3AWRfmgOoWzZC7y3wlLSJQ7o58TX0OvYOrCiVT9SXhiRg0ejNwZ2JJcwh27k43H3yr0FycrtQnWJybVxZRighZfLkpk8S33mwVhwgGbxv7-gkDXG3hIMs-pPtJtdLvHZ_HN6my3ilwVokExdJxTTNfpVevsfMQFxHhV_0K0]--></g></svg>