<?xml version="1.0" encoding="us-ascii" standalone="no"?><svg xmlns="http://www.w3.org/2000/svg" xmlns:xlink="http://www.w3.org/1999/xlink" contentStyleType="text/css" height="866px" preserveAspectRatio="none" style="width:464px;height:866px;background:#FFFFFF;" version="1.1" viewBox="0 0 464 866" width="464px" zoomAndPan="magnify"><defs/><g><!--class System Administrator--><g id="elem_System Administrator"><rect codeLine="10" fill="#F1F1F1" height="73.8633" id="System Administrator" rx="2.5" ry="2.5" style="stroke:#181818;stroke-width:0.5;" width="139" x="108" y="7"/><text fill="#000000" font-family="sans-serif" font-size="14" lengthAdjust="spacing" textLength="133" x="111" y="27.1074">System Administrator</text><line style="stroke:#181818;stroke-width:0.5;" x1="109" x2="246" y1="35.6211" y2="35.6211"/><text fill="#000000" font-family="sans-serif" font-size="14" lengthAdjust="spacing" textLength="92" x="114" y="54.7285">phone number</text><text fill="#000000" font-family="sans-serif" font-size="14" lengthAdjust="spacing" textLength="33" x="114" y="73.3496">email</text></g><!--class Store Network--><g id="elem_Store Network"><rect codeLine="15" fill="#F1F1F1" height="111.1055" id="Store Network" rx="2.5" ry="2.5" style="stroke:#181818;stroke-width:0.5;" width="127" x="114" y="160"/><text fill="#000000" font-family="sans-serif" font-size="14" lengthAdjust="spacing" textLength="88" x="133.5" y="180.1074">Store Network</text><line style="stroke:#181818;stroke-width:0.5;" x1="115" x2="240" y1="188.6211" y2="188.6211"/><text fill="#000000" font-family="sans-serif" font-size="14" lengthAdjust="spacing" textLength="73" x="120" y="207.7285">designation</text><text fill="#000000" font-family="sans-serif" font-size="14" lengthAdjust="spacing" textLength="49" x="120" y="226.3496">location</text><text fill="#000000" font-family="sans-serif" font-size="14" lengthAdjust="spacing" textLength="80" x="120" y="244.9707">email adress</text><text fill="#000000" font-family="sans-serif" font-size="14" lengthAdjust="spacing" textLength="115" x="120" y="263.5918">telephone number</text></g><!--class Agency--><g id="elem_Agency"><rect codeLine="22" fill="#F1F1F1" height="129.7266" id="Agency" rx="2.5" ry="2.5" style="stroke:#181818;stroke-width:0.5;" width="75" x="140" y="350"/><text fill="#000000" font-family="sans-serif" font-size="14" lengthAdjust="spacing" textLength="47" x="154" y="370.1074">Agency</text><line style="stroke:#181818;stroke-width:0.5;" x1="141" x2="214" y1="378.6211" y2="378.6211"/><text fill="#000000" font-family="sans-serif" font-size="14" lengthAdjust="spacing" textLength="35" x="146" y="397.7285">name</text><text fill="#000000" font-family="sans-serif" font-size="14" lengthAdjust="spacing" textLength="33" x="146" y="416.3496">email</text><text fill="#000000" font-family="sans-serif" font-size="14" lengthAdjust="spacing" textLength="63" x="146" y="434.9707">telephone</text><text fill="#000000" font-family="sans-serif" font-size="14" lengthAdjust="spacing" textLength="19" x="146" y="453.5918">vat</text><text fill="#000000" font-family="sans-serif" font-size="14" lengthAdjust="spacing" textLength="49" x="146" y="472.2129">location</text></g><!--class Employee--><g id="elem_Employee"><rect codeLine="30" fill="#F1F1F1" height="148.3477" id="Employee" rx="2.5" ry="2.5" style="stroke:#181818;stroke-width:0.5;" width="177" x="169" y="559"/><text fill="#000000" font-family="sans-serif" font-size="14" lengthAdjust="spacing" textLength="62" x="226.5" y="579.1074">Employee</text><line style="stroke:#181818;stroke-width:0.5;" x1="170" x2="345" y1="587.6211" y2="587.6211"/><text fill="#000000" font-family="sans-serif" font-size="14" lengthAdjust="spacing" textLength="35" x="175" y="606.7285">name</text><text fill="#000000" font-family="sans-serif" font-size="14" lengthAdjust="spacing" textLength="156" x="175" y="625.3496">passports's card number</text><text fill="#000000" font-family="sans-serif" font-size="14" lengthAdjust="spacing" textLength="70" x="175" y="643.9707">tax number</text><text fill="#000000" font-family="sans-serif" font-size="14" lengthAdjust="spacing" textLength="51" x="175" y="662.5918">address</text><text fill="#000000" font-family="sans-serif" font-size="14" lengthAdjust="spacing" textLength="88" x="175" y="681.2129">email address</text><text fill="#000000" font-family="sans-serif" font-size="14" lengthAdjust="spacing" textLength="165" x="175" y="699.834">contact telephone number</text></g><!--class Role--><g id="elem_Role"><rect codeLine="40" fill="#F1F1F1" height="73.8633" id="Role" rx="2.5" ry="2.5" style="stroke:#181818;stroke-width:0.5;" width="113" x="251" y="786"/><text fill="#000000" font-family="sans-serif" font-size="14" lengthAdjust="spacing" textLength="29" x="293" y="806.1074">Role</text><line style="stroke:#181818;stroke-width:0.5;" x1="252" x2="363" y1="814.6211" y2="814.6211"/><text fill="#000000" font-family="sans-serif" font-size="14" lengthAdjust="spacing" textLength="24" x="257" y="833.7285">role</text><text fill="#000000" font-family="sans-serif" font-size="14" lengthAdjust="spacing" textLength="101" x="257" y="852.3496">permission level</text></g><!--class State--><g id="elem_State"><rect codeLine="45" fill="#F1F1F1" height="36.6211" id="State" rx="2.5" ry="2.5" style="stroke:#181818;stroke-width:0.5;" width="39" x="7" y="804.5"/><text fill="#000000" font-family="sans-serif" font-size="14" lengthAdjust="spacing" textLength="33" x="10" y="824.6074">State</text><line style="stroke:#181818;stroke-width:0.5;" x1="8" x2="45" y1="833.1211" y2="833.1211"/></g><!--class District--><g id="elem_District"><rect codeLine="48" fill="#F1F1F1" height="36.6211" id="District" rx="2.5" ry="2.5" style="stroke:#181818;stroke-width:0.5;" width="49" x="408" y="804.5"/><text fill="#000000" font-family="sans-serif" font-size="14" lengthAdjust="spacing" textLength="43" x="411" y="824.6074">District</text><line style="stroke:#181818;stroke-width:0.5;" x1="409" x2="456" y1="833.1211" y2="833.1211"/></g><!--class City--><g id="elem_City"><rect codeLine="51" fill="#F1F1F1" height="36.6211" id="City" rx="2.5" ry="2.5" style="stroke:#181818;stroke-width:0.5;" width="30" x="150.5" y="804.5"/><text fill="#000000" font-family="sans-serif" font-size="14" lengthAdjust="spacing" textLength="24" x="153.5" y="824.6074">City</text><line style="stroke:#181818;stroke-width:0.5;" x1="151.5" x2="179.5" y1="833.1211" y2="833.1211"/></g><!--link System Administrator to Store Network--><g id="link_System Administrator_Store Network"><path codeLine="54" d="M177.5,81.36 C177.5,104.22 177.5,134.14 177.5,159.83 " fill="none" id="System Administrator-Store Network" style="stroke:#181818;stroke-width:1.0;"/><polygon fill="#000000" points="182.5,125.6455,185.4389,116.6004,179.5611,116.6004,182.5,125.6455" style="stroke:#000000;stroke-width:1.0;"/><text fill="#000000" font-family="sans-serif" font-size="13" lengthAdjust="spacing" textLength="53" x="191.5" y="126.0283">manages</text><text fill="#000000" font-family="sans-serif" font-size="13" lengthAdjust="spacing" textLength="7" x="169.9203" y="103.0193">1</text><text fill="#000000" font-family="sans-serif" font-size="13" lengthAdjust="spacing" textLength="5" x="172.1797" y="148.6484">*</text></g><!--link Store Network to Agency--><g id="link_Store Network_Agency"><path codeLine="55" d="M177.5,271.25 C177.5,295.57 177.5,324.36 177.5,349.69 " fill="none" id="Store Network-Agency" style="stroke:#181818;stroke-width:1.0;"/><polygon fill="#000000" points="182.5,315.6455,185.4389,306.6004,179.5611,306.6004,182.5,315.6455" style="stroke:#000000;stroke-width:1.0;"/><text fill="#000000" font-family="sans-serif" font-size="13" lengthAdjust="spacing" textLength="21" x="191.5" y="316.0283">has</text><text fill="#000000" font-family="sans-serif" font-size="13" lengthAdjust="spacing" textLength="7" x="170.0734" y="293.1201">1</text><text fill="#000000" font-family="sans-serif" font-size="13" lengthAdjust="spacing" textLength="5" x="172.2266" y="338.6762">*</text></g><!--link Agency to Employee--><g id="link_Agency_Employee"><path codeLine="56" d="M201.29,480.22 C210.45,504.97 220.98,533.41 230.44,558.93 " fill="none" id="Agency-Employee" style="stroke:#181818;stroke-width:1.0;"/><polygon fill="#000000" points="224.2365,524.3343,223.8512,514.8315,218.3392,516.8729,224.2365,524.3343" style="stroke:#000000;stroke-width:1.0;"/><text fill="#000000" font-family="sans-serif" font-size="13" lengthAdjust="spacing" textLength="21" x="231.5" y="525.0283">has</text><text fill="#000000" font-family="sans-serif" font-size="13" lengthAdjust="spacing" textLength="7" x="196.3824" y="501.8798">1</text><text fill="#000000" font-family="sans-serif" font-size="13" lengthAdjust="spacing" textLength="5" x="222.5302" y="547.8275">*</text></g><!--link Employee to Role--><g id="link_Employee_Role"><path codeLine="57" d="M276.97,707.22 C284.16,734.24 291.98,763.66 297.91,785.95 " fill="none" id="Employee-Role" style="stroke:#181818;stroke-width:1.0;"/><polygon fill="#000000" points="295.7852,751.4775,296.3005,741.9809,290.6201,743.4917,295.7852,751.4775" style="stroke:#000000;stroke-width:1.0;"/><text fill="#000000" font-family="sans-serif" font-size="13" lengthAdjust="spacing" textLength="21" x="303.5" y="752.0283">has</text><text fill="#000000" font-family="sans-serif" font-size="13" lengthAdjust="spacing" textLength="7" x="271.542" y="729.3883">1</text><text fill="#000000" font-family="sans-serif" font-size="13" lengthAdjust="spacing" textLength="5" x="290.6809" y="774.6195">*</text></g><!--link Employee to State--><g id="link_Employee_State"><path codeLine="58" d="M168.85,706.15 C124.06,742.6 73.58,783.69 46.39,805.81 " fill="none" id="Employee-State" style="stroke:#181818;stroke-width:1.0;"/><polygon fill="#000000" points="128.6219,749.8015,137.4925,746.3717,133.7824,741.8127,128.6219,749.8015" style="stroke:#000000;stroke-width:1.0;"/><text fill="#000000" font-family="sans-serif" font-size="13" lengthAdjust="spacing" textLength="21" x="141.5" y="752.0283">has</text><text fill="#000000" font-family="sans-serif" font-size="13" lengthAdjust="spacing" textLength="7" x="153.9309" y="708.7317">1</text><text fill="#000000" font-family="sans-serif" font-size="13" lengthAdjust="spacing" textLength="7" x="54.1379" y="794.4395">1</text></g><!--link Employee to City--><g id="link_Employee_City"><path codeLine="59" d="M221.67,707.22 C204.31,742.69 184.92,782.31 174.07,804.49 " fill="none" id="Employee-City" style="stroke:#181818;stroke-width:1.0;"/><polygon fill="#000000" points="208.3022,751.1366,214.9178,744.304,209.6382,741.7203,208.3022,751.1366" style="stroke:#000000;stroke-width:1.0;"/><text fill="#000000" font-family="sans-serif" font-size="13" lengthAdjust="spacing" textLength="21" x="219.5" y="752.0283">has</text><text fill="#000000" font-family="sans-serif" font-size="13" lengthAdjust="spacing" textLength="7" x="210.7985" y="729.3883">1</text><text fill="#000000" font-family="sans-serif" font-size="13" lengthAdjust="spacing" textLength="7" x="168.6227" y="793.3491">1</text></g><!--link Employee to District--><g id="link_Employee_District"><path codeLine="60" d="M325.66,707.22 C358.67,742.69 395.56,782.31 416.2,804.49 " fill="none" id="Employee-District" style="stroke:#181818;stroke-width:1.0;"/><polygon fill="#000000" points="378.9067,750.3054,374.8952,741.6822,370.5927,745.687,378.9067,750.3054" style="stroke:#000000;stroke-width:1.0;"/><text fill="#000000" font-family="sans-serif" font-size="13" lengthAdjust="spacing" textLength="21" x="384.5" y="752.0283">has</text><text fill="#000000" font-family="sans-serif" font-size="13" lengthAdjust="spacing" textLength="7" x="325.025" y="729.3883">1</text><text fill="#000000" font-family="sans-serif" font-size="13" lengthAdjust="spacing" textLength="7" x="403.1362" y="793.3491">1</text></g><!--link Agency to State--><g id="link_Agency_State"><path codeLine="61" d="M139.76,448.29 C111.43,474.91 74.41,515.27 55.5,559 C18.4,644.8 21.96,760.38 24.98,804.18 " fill="none" id="Agency-State" style="stroke:#181818;stroke-width:1.0;"/><polygon fill="#000000" points="58.9653,637.9041,64.5387,630.1978,58.9446,628.3936,58.9653,637.9041" style="stroke:#000000;stroke-width:1.0;"/><text fill="#000000" font-family="sans-serif" font-size="13" lengthAdjust="spacing" textLength="21" x="69.5" y="638.5283">has</text><text fill="#000000" font-family="sans-serif" font-size="13" lengthAdjust="spacing" textLength="7" x="124.8986" y="450.0977">1</text><text fill="#000000" font-family="sans-serif" font-size="13" lengthAdjust="spacing" textLength="7" x="16.5054" y="793.2815">1</text></g><!--link Agency to City--><g id="link_Agency_City"><path codeLine="62" d="M143.11,480 C131.98,504.06 121.08,532.11 115.5,559 C97.71,644.75 89.88,673.59 119.5,756 C126.26,774.8 139.82,793.19 150.47,805.76 " fill="none" id="Agency-City" style="stroke:#181818;stroke-width:1.0;"/><polygon fill="#000000" points="120.6129,638.1442,123.3468,629.0351,117.4705,629.1678,120.6129,638.1442" style="stroke:#000000;stroke-width:1.0;"/><text fill="#000000" font-family="sans-serif" font-size="13" lengthAdjust="spacing" textLength="21" x="129.5" y="638.5283">has</text><text fill="#000000" font-family="sans-serif" font-size="13" lengthAdjust="spacing" textLength="7" x="132.2026" y="501.6371">1</text><text fill="#000000" font-family="sans-serif" font-size="13" lengthAdjust="spacing" textLength="7" x="136.4054" y="793.1026">1</text></g><!--link Agency to District--><g id="link_Agency_District"><path codeLine="63" d="M215.06,435.23 C257.35,458.77 325.13,502.58 363.5,559 C417.92,639.02 429.43,759.53 431.85,804.37 " fill="none" id="Agency-District" style="stroke:#181818;stroke-width:1.0;"/><polygon fill="#000000" points="427.0321,637.457,424.9857,628.1692,419.9173,631.1458,427.0321,637.457" style="stroke:#000000;stroke-width:1.0;"/><text fill="#000000" font-family="sans-serif" font-size="13" lengthAdjust="spacing" textLength="21" x="433.5" y="638.5283">has</text><text fill="#000000" font-family="sans-serif" font-size="13" lengthAdjust="spacing" textLength="7" x="222.8871" y="434.5482">1</text><text fill="#000000" font-family="sans-serif" font-size="13" lengthAdjust="spacing" textLength="7" x="423.5791" y="793.1923">1</text></g><!--SRC=[VLBBJiD03BplLrYv825LWciFI1LmuCA1Ve6xCScg-uZMRaj0_3lRJVDgItD9nXxF-17U6jzWH0Sk-A3h61o1n1qf7Z8DwYrMj9RM4aJIWhwoKmBNM8Q3yHLyecLIavIsoBmIYMQp4thJmQ_DDy63KhKf2RI9EadbRqTIXvALoZLGh5iMSh0gdV669QA4MC2FWlGqTV04VkSs57E071ghViVYH2Pu9pc4kEshIc9JUHGJVCOsw15a1S0o4dCE25cQ-GpggugyRa-Y7XrDMfXLPhH7cRiDEg-kiQ4bEbTgKh89KVYEGMCifuCAVaqXbcF3_GHZ9ArRKClbA6CF7y7s_Z5zTluKdM5ElOAbFKtskXQK8tq8l1mlOvB59FPifEtmFpSi7WjOBA2uBouEjGI7Flri34_gF3SfErrW2JLcPeTdb66v0wcFp6Xv_XkKzEg6lit9Cz-c3Alwj-jBhokCkTCLmeNF7m00]--></g></svg>