<?xml version="1.0" encoding="us-ascii" standalone="no"?><svg xmlns="http://www.w3.org/2000/svg" xmlns:xlink="http://www.w3.org/1999/xlink" contentStyleType="text/css" height="1117px" preserveAspectRatio="none" style="width:1652px;height:1117px;background:#FFFFFF;" version="1.1" viewBox="0 0 1652 1117" width="1652px" zoomAndPan="magnify"><defs/><g><rect fill="#FFFFFF" height="921.8672" style="stroke:#181818;stroke-width:1.0;" width="10" x="68.5" y="90.6406"/><rect fill="#FFFFFF" height="69.1641" style="stroke:#181818;stroke-width:1.0;" width="10" x="477.5" y="111.1641"/><rect fill="#FFFFFF" height="789.1328" style="stroke:#181818;stroke-width:1.0;" width="10" x="477.5" y="223.375"/><rect fill="#FFFFFF" height="703.0391" style="stroke:#181818;stroke-width:1.0;" width="10" x="853.5" y="325.4688"/><rect fill="#FFFFFF" height="658.5156" style="stroke:#181818;stroke-width:1.0;" width="10" x="853.5" y="325.4688"/><rect fill="#FFFFFF" height="28.5234" style="stroke:#181818;stroke-width:1.0;" width="10" x="994" y="353.9922"/><rect fill="#FFFFFF" height="28.5234" style="stroke:#181818;stroke-width:1.0;" width="10" x="1101" y="411.0391"/><rect fill="#FFFFFF" height="193.4297" style="stroke:#181818;stroke-width:1.0;" width="10" x="1231.5" y="468.0859"/><rect fill="#FFFFFF" height="250.8984" style="stroke:#181818;stroke-width:1.0;" width="10" x="1231.5" y="704.5625"/><rect fill="#FFFFFF" height="122.5703" style="stroke:#181818;stroke-width:1.0;" width="10" x="1236.5" y="797.3672"/><rect fill="#FFFFFF" height="39.5234" style="stroke:#181818;stroke-width:1.0;" width="10" x="1241.5" y="838.8906"/><rect fill="none" height="45.0469" style="stroke:#000000;stroke-width:1.5;" width="544.5" x="10" y="238.375"/><rect fill="none" height="495.8984" style="stroke:#000000;stroke-width:1.5;" width="1635.5" x="10" y="524.6094"/><line style="stroke:#181818;stroke-width:0.5;stroke-dasharray:5.0,5.0;" x1="73" x2="73" y1="80.6406" y2="1037.5078"/><line style="stroke:#181818;stroke-width:0.5;stroke-dasharray:5.0,5.0;" x1="482.5" x2="482.5" y1="80.6406" y2="1037.5078"/><line style="stroke:#181818;stroke-width:0.5;stroke-dasharray:5.0,5.0;" x1="853.5" x2="853.5" y1="149.4844" y2="1037.5078"/><line style="stroke:#181818;stroke-width:0.5;stroke-dasharray:5.0,5.0;" x1="998.5" x2="998.5" y1="80.6406" y2="1037.5078"/><line style="stroke:#181818;stroke-width:0.5;stroke-dasharray:5.0,5.0;" x1="1105.5" x2="1105.5" y1="80.6406" y2="1037.5078"/><line style="stroke:#181818;stroke-width:0.5;stroke-dasharray:5.0,5.0;" x1="1236" x2="1236" y1="80.6406" y2="1037.5078"/><line style="stroke:#181818;stroke-width:0.5;stroke-dasharray:5.0,5.0;" x1="1600.5" x2="1600.5" y1="750.7031" y2="1037.5078"/><text fill="#000000" font-family="sans-serif" font-size="14" lengthAdjust="spacing" textLength="101" x="20" y="77.6738">Unregisted User</text><ellipse cx="73.5" cy="13.5" fill="#E3E3E3" rx="8" ry="8" style="stroke:#181818;stroke-width:0.5;"/><path d="M73.5,21.5 L73.5,48.5 M60.5,29.5 L86.5,29.5 M73.5,48.5 L60.5,63.5 M73.5,48.5 L86.5,63.5 " fill="none" style="stroke:#181818;stroke-width:0.5;"/><text fill="#000000" font-family="sans-serif" font-size="14" lengthAdjust="spacing" textLength="101" x="20" y="1049.1816">Unregisted User</text><ellipse cx="73.5" cy="1060.6484" fill="#E3E3E3" rx="8" ry="8" style="stroke:#181818;stroke-width:0.5;"/><path d="M73.5,1068.6484 L73.5,1095.6484 M60.5,1076.6484 L86.5,1076.6484 M73.5,1095.6484 L60.5,1110.6484 M73.5,1095.6484 L86.5,1110.6484 " fill="none" style="stroke:#181818;stroke-width:0.5;"/><rect fill="#E3E3E3" height="29.6406" rx="2.5" ry="2.5" style="stroke:#181818;stroke-width:0.5;" width="124" x="420.5" y="50"/><text fill="#000000" font-family="sans-serif" font-size="14" lengthAdjust="spacing" textLength="110" x="427.5" y="69.6738">:CreateAccountUI</text><rect fill="#E3E3E3" height="29.6406" rx="2.5" ry="2.5" style="stroke:#181818;stroke-width:0.5;" width="124" x="420.5" y="1036.5078"/><text fill="#000000" font-family="sans-serif" font-size="14" lengthAdjust="spacing" textLength="110" x="427.5" y="1056.1816">:CreateAccountUI</text><rect fill="#E3E3E3" height="29.6406" rx="2.5" ry="2.5" style="stroke:#181818;stroke-width:0.5;" width="174" x="766.5" y="1036.5078"/><text fill="#000000" font-family="sans-serif" font-size="14" lengthAdjust="spacing" textLength="160" x="773.5" y="1056.1816">:CreateAccountController</text><rect fill="#E3E3E3" height="29.6406" rx="2.5" ry="2.5" style="stroke:#181818;stroke-width:0.5;" width="97" x="950.5" y="50"/><text fill="#000000" font-family="sans-serif" font-size="14" lengthAdjust="spacing" textLength="83" x="957.5" y="69.6738">:Repositories</text><rect fill="#E3E3E3" height="29.6406" rx="2.5" ry="2.5" style="stroke:#181818;stroke-width:0.5;" width="97" x="950.5" y="1036.5078"/><text fill="#000000" font-family="sans-serif" font-size="14" lengthAdjust="spacing" textLength="83" x="957.5" y="1056.1816">:Repositories</text><rect fill="#E3E3E3" height="45.2813" rx="2.5" ry="2.5" style="stroke:#181818;stroke-width:0.5;" width="97" x="1057.5" y="34.3594"/><text fill="#000000" font-family="sans-serif" font-size="14" lengthAdjust="spacing" textLength="74" x="1069" y="54.0332">repositories</text><text fill="#000000" font-family="sans-serif" font-size="14" lengthAdjust="spacing" textLength="83" x="1064.5" y="69.6738">:Repositories</text><rect fill="#E3E3E3" height="45.2813" rx="2.5" ry="2.5" style="stroke:#181818;stroke-width:0.5;" width="97" x="1057.5" y="1036.5078"/><text fill="#000000" font-family="sans-serif" font-size="14" lengthAdjust="spacing" textLength="74" x="1069" y="1056.1816">repositories</text><text fill="#000000" font-family="sans-serif" font-size="14" lengthAdjust="spacing" textLength="83" x="1064.5" y="1071.8223">:Repositories</text><rect fill="#E3E3E3" height="45.2813" rx="2.5" ry="2.5" style="stroke:#181818;stroke-width:0.5;" width="137" x="1168" y="34.3594"/><text fill="#000000" font-family="sans-serif" font-size="14" lengthAdjust="spacing" textLength="123" x="1175" y="54.0332">AccountRepository:</text><text fill="#000000" font-family="sans-serif" font-size="14" lengthAdjust="spacing" textLength="119" x="1177" y="69.6738">AccountRepository</text><rect fill="#E3E3E3" height="45.2813" rx="2.5" ry="2.5" style="stroke:#181818;stroke-width:0.5;" width="137" x="1168" y="1036.5078"/><text fill="#000000" font-family="sans-serif" font-size="14" lengthAdjust="spacing" textLength="123" x="1175" y="1056.1816">AccountRepository:</text><text fill="#000000" font-family="sans-serif" font-size="14" lengthAdjust="spacing" textLength="119" x="1177" y="1071.8223">AccountRepository</text><rect fill="#E3E3E3" height="45.2813" rx="2.5" ry="2.5" style="stroke:#181818;stroke-width:0.5;" width="69" x="1566.5" y="1036.5078"/><text fill="#000000" font-family="sans-serif" font-size="14" lengthAdjust="spacing" textLength="50" x="1576" y="1056.1816">account</text><text fill="#000000" font-family="sans-serif" font-size="14" lengthAdjust="spacing" textLength="55" x="1573.5" y="1071.8223">:Account</text><rect fill="#FFFFFF" height="921.8672" style="stroke:#181818;stroke-width:1.0;" width="10" x="68.5" y="90.6406"/><rect fill="#FFFFFF" height="69.1641" style="stroke:#181818;stroke-width:1.0;" width="10" x="477.5" y="111.1641"/><rect fill="#FFFFFF" height="789.1328" style="stroke:#181818;stroke-width:1.0;" width="10" x="477.5" y="223.375"/><rect fill="#FFFFFF" height="703.0391" style="stroke:#181818;stroke-width:1.0;" width="10" x="853.5" y="325.4688"/><rect fill="#FFFFFF" height="658.5156" style="stroke:#181818;stroke-width:1.0;" width="10" x="853.5" y="325.4688"/><rect fill="#FFFFFF" height="28.5234" style="stroke:#181818;stroke-width:1.0;" width="10" x="994" y="353.9922"/><rect fill="#FFFFFF" height="28.5234" style="stroke:#181818;stroke-width:1.0;" width="10" x="1101" y="411.0391"/><rect fill="#FFFFFF" height="193.4297" style="stroke:#181818;stroke-width:1.0;" width="10" x="1231.5" y="468.0859"/><rect fill="#FFFFFF" height="250.8984" style="stroke:#181818;stroke-width:1.0;" width="10" x="1231.5" y="704.5625"/><rect fill="#FFFFFF" height="122.5703" style="stroke:#181818;stroke-width:1.0;" width="10" x="1236.5" y="797.3672"/><rect fill="#FFFFFF" height="39.5234" style="stroke:#181818;stroke-width:1.0;" width="10" x="1241.5" y="838.8906"/><polygon fill="#181818" points="465.5,107.1641,475.5,111.1641,465.5,115.1641,469.5,111.1641" style="stroke:#181818;stroke-width:1.0;"/><line style="stroke:#181818;stroke-width:1.0;" x1="78.5" x2="471.5" y1="111.1641" y2="111.1641"/><text fill="#000000" font-family="sans-serif" font-size="13" font-weight="bold" lengthAdjust="spacing" textLength="7" x="85.5" y="106.4092">1</text><text fill="#000000" font-family="sans-serif" font-size="13" lengthAdjust="spacing" textLength="173" x="96.5" y="106.4092">asks to create a user account</text><polygon fill="#181818" points="754.5,135.6875,764.5,139.6875,754.5,143.6875,758.5,139.6875" style="stroke:#181818;stroke-width:1.0;"/><line style="stroke:#181818;stroke-width:1.0;" x1="487.5" x2="760.5" y1="139.6875" y2="139.6875"/><text fill="#000000" font-family="sans-serif" font-size="13" font-weight="bold" lengthAdjust="spacing" textLength="7" x="494.5" y="134.9326">2</text><text fill="#000000" font-family="sans-serif" font-size="13" lengthAdjust="spacing" textLength="36" x="505.5" y="134.9326">create</text><rect fill="#E3E3E3" height="29.6406" rx="2.5" ry="2.5" style="stroke:#181818;stroke-width:0.5;" width="174" x="766.5" y="119.1641"/><text fill="#000000" font-family="sans-serif" font-size="14" lengthAdjust="spacing" textLength="160" x="773.5" y="138.8379">:CreateAccountController</text><polygon fill="#181818" points="89.5,176.3281,79.5,180.3281,89.5,184.3281,85.5,180.3281" style="stroke:#181818;stroke-width:1.0;"/><line style="stroke:#181818;stroke-width:1.0;stroke-dasharray:2.0,2.0;" x1="83.5" x2="481.5" y1="180.3281" y2="180.3281"/><text fill="#000000" font-family="sans-serif" font-size="13" font-weight="bold" lengthAdjust="spacing" textLength="7" x="95.5" y="175.5732">3</text><text fill="#000000" font-family="sans-serif" font-size="13" lengthAdjust="spacing" textLength="79" x="106.5" y="175.5732">requests data</text><polygon fill="#181818" points="465.5,219.375,475.5,223.375,465.5,227.375,469.5,223.375" style="stroke:#181818;stroke-width:1.0;"/><line style="stroke:#181818;stroke-width:1.0;" x1="78.5" x2="471.5" y1="223.375" y2="223.375"/><text fill="#000000" font-family="sans-serif" font-size="13" font-weight="bold" lengthAdjust="spacing" textLength="7" x="85.5" y="211.3584">4</text><text fill="#000000" font-family="sans-serif" font-size="13" lengthAdjust="spacing" textLength="369" x="96.5" y="204.0967">types requested data(name, passport card number, tax number,</text><text fill="#000000" font-family="sans-serif" font-size="13" lengthAdjust="spacing" textLength="200" x="96.5" y="218.6201">address, email, telephone number)</text><path d="M10,238.375 L71,238.375 L71,244.8984 L61,254.8984 L10,254.8984 L10,238.375 " fill="#EEEEEE" style="stroke:#000000;stroke-width:1.5;"/><rect fill="none" height="45.0469" style="stroke:#000000;stroke-width:1.5;" width="544.5" x="10" y="238.375"/><text fill="#000000" font-family="sans-serif" font-size="13" font-weight="bold" lengthAdjust="spacing" textLength="16" x="25" y="251.1436">alt</text><text fill="#000000" font-family="sans-serif" font-size="11" font-weight="bold" lengthAdjust="spacing" textLength="53" x="86" y="250.333">[Optional]</text><polygon fill="#181818" points="465.5,271.4219,475.5,275.4219,465.5,279.4219,469.5,275.4219" style="stroke:#181818;stroke-width:1.0;"/><line style="stroke:#181818;stroke-width:1.0;" x1="78.5" x2="471.5" y1="275.4219" y2="275.4219"/><text fill="#000000" font-family="sans-serif" font-size="13" font-weight="bold" lengthAdjust="spacing" textLength="7" x="85.5" y="270.667">5</text><text fill="#000000" font-family="sans-serif" font-size="13" lengthAdjust="spacing" textLength="223" x="96.5" y="270.667">types optional data(state, district, city)</text><polygon fill="#181818" points="841.5,321.4688,851.5,325.4688,841.5,329.4688,845.5,325.4688" style="stroke:#181818;stroke-width:1.0;"/><line style="stroke:#181818;stroke-width:1.0;" x1="487.5" x2="847.5" y1="325.4688" y2="325.4688"/><text fill="#000000" font-family="sans-serif" font-size="13" font-weight="bold" lengthAdjust="spacing" textLength="7" x="494.5" y="313.4521">6</text><text fill="#000000" font-family="sans-serif" font-size="13" lengthAdjust="spacing" textLength="331" x="505.5" y="306.1904">createAccount(name, passport card number, tax number,</text><text fill="#000000" font-family="sans-serif" font-size="13" lengthAdjust="spacing" textLength="200" x="505.5" y="320.7139">address, email, telephone number)</text><polygon fill="#181818" points="982,349.9922,992,353.9922,982,357.9922,986,353.9922" style="stroke:#181818;stroke-width:1.0;"/><line style="stroke:#181818;stroke-width:1.0;" x1="863.5" x2="988" y1="353.9922" y2="353.9922"/><text fill="#000000" font-family="sans-serif" font-size="13" font-weight="bold" lengthAdjust="spacing" textLength="7" x="870.5" y="349.2373">7</text><text fill="#000000" font-family="sans-serif" font-size="13" lengthAdjust="spacing" textLength="75" x="881.5" y="349.2373">getInstance()</text><polygon fill="#181818" points="874.5,378.5156,864.5,382.5156,874.5,386.5156,870.5,382.5156" style="stroke:#181818;stroke-width:1.0;"/><line style="stroke:#181818;stroke-width:1.0;stroke-dasharray:2.0,2.0;" x1="868.5" x2="998" y1="382.5156" y2="382.5156"/><text fill="#000000" font-family="sans-serif" font-size="13" font-weight="bold" lengthAdjust="spacing" textLength="7" x="880.5" y="377.7607">8</text><text fill="#000000" font-family="sans-serif" font-size="13" lengthAdjust="spacing" textLength="67" x="891.5" y="377.7607">repositories</text><polygon fill="#181818" points="1089,407.0391,1099,411.0391,1089,415.0391,1093,411.0391" style="stroke:#181818;stroke-width:1.0;"/><line style="stroke:#181818;stroke-width:1.0;" x1="863.5" x2="1095" y1="411.0391" y2="411.0391"/><text fill="#000000" font-family="sans-serif" font-size="13" font-weight="bold" lengthAdjust="spacing" textLength="7" x="870.5" y="406.2842">9</text><text fill="#000000" font-family="sans-serif" font-size="13" lengthAdjust="spacing" textLength="136" x="881.5" y="406.2842">getAccountRepository()</text><polygon fill="#181818" points="874.5,435.5625,864.5,439.5625,874.5,443.5625,870.5,439.5625" style="stroke:#181818;stroke-width:1.0;"/><line style="stroke:#181818;stroke-width:1.0;" x1="868.5" x2="1105" y1="439.5625" y2="439.5625"/><text fill="#000000" font-family="sans-serif" font-size="13" font-weight="bold" lengthAdjust="spacing" textLength="14" x="880.5" y="434.8076">10</text><text fill="#000000" font-family="sans-serif" font-size="13" lengthAdjust="spacing" textLength="110" x="898.5" y="434.8076">AccountRepository</text><polygon fill="#181818" points="1219.5,464.0859,1229.5,468.0859,1219.5,472.0859,1223.5,468.0859" style="stroke:#181818;stroke-width:1.0;"/><line style="stroke:#181818;stroke-width:1.0;" x1="863.5" x2="1225.5" y1="468.0859" y2="468.0859"/><text fill="#000000" font-family="sans-serif" font-size="13" font-weight="bold" lengthAdjust="spacing" textLength="14" x="870.5" y="463.3311">11</text><text fill="#000000" font-family="sans-serif" font-size="13" lengthAdjust="spacing" textLength="108" x="888.5" y="463.3311">getUserAccounts()</text><line style="stroke:#181818;stroke-width:1.0;stroke-dasharray:2.0,2.0;" x1="1241.5" x2="1283.5" y1="496.6094" y2="496.6094"/><line style="stroke:#181818;stroke-width:1.0;stroke-dasharray:2.0,2.0;" x1="1283.5" x2="1283.5" y1="496.6094" y2="509.6094"/><line style="stroke:#181818;stroke-width:1.0;stroke-dasharray:2.0,2.0;" x1="1242.5" x2="1283.5" y1="509.6094" y2="509.6094"/><polygon fill="#181818" points="1252.5,505.6094,1242.5,509.6094,1252.5,513.6094,1248.5,509.6094" style="stroke:#181818;stroke-width:1.0;"/><text fill="#000000" font-family="sans-serif" font-size="13" font-weight="bold" lengthAdjust="spacing" textLength="14" x="1248.5" y="491.8545">12</text><text fill="#000000" font-family="sans-serif" font-size="13" lengthAdjust="spacing" textLength="101" x="1266.5" y="491.8545">existsUser(email)</text><path d="M10,524.6094 L71,524.6094 L71,531.1328 L61,541.1328 L10,541.1328 L10,524.6094 " fill="#EEEEEE" style="stroke:#000000;stroke-width:1.5;"/><rect fill="none" height="495.8984" style="stroke:#000000;stroke-width:1.5;" width="1635.5" x="10" y="524.6094"/><text fill="#000000" font-family="sans-serif" font-size="13" font-weight="bold" lengthAdjust="spacing" textLength="16" x="25" y="537.3779">alt</text><text fill="#000000" font-family="sans-serif" font-size="11" font-weight="bold" lengthAdjust="spacing" textLength="88" x="86" y="536.5674">[The user exist]</text><polygon fill="#181818" points="874.5,557.6563,864.5,561.6563,874.5,565.6563,870.5,561.6563" style="stroke:#181818;stroke-width:1.0;"/><line style="stroke:#181818;stroke-width:1.0;stroke-dasharray:2.0,2.0;" x1="868.5" x2="1230.5" y1="561.6563" y2="561.6563"/><text fill="#000000" font-family="sans-serif" font-size="13" font-weight="bold" lengthAdjust="spacing" textLength="14" x="880.5" y="556.9014">13</text><text fill="#000000" font-family="sans-serif" font-size="13" lengthAdjust="spacing" textLength="34" x="898.5" y="556.9014">failure</text><polygon fill="#181818" points="498.5,586.1797,488.5,590.1797,498.5,594.1797,494.5,590.1797" style="stroke:#181818;stroke-width:1.0;"/><line style="stroke:#181818;stroke-width:1.0;stroke-dasharray:2.0,2.0;" x1="492.5" x2="852.5" y1="590.1797" y2="590.1797"/><text fill="#000000" font-family="sans-serif" font-size="13" font-weight="bold" lengthAdjust="spacing" textLength="14" x="504.5" y="585.4248">14</text><text fill="#000000" font-family="sans-serif" font-size="13" lengthAdjust="spacing" textLength="34" x="522.5" y="585.4248">failure</text><polygon fill="#181818" points="89.5,614.7031,79.5,618.7031,89.5,622.7031,85.5,618.7031" style="stroke:#181818;stroke-width:1.0;"/><line style="stroke:#181818;stroke-width:1.0;stroke-dasharray:2.0,2.0;" x1="83.5" x2="476.5" y1="618.7031" y2="618.7031"/><text fill="#000000" font-family="sans-serif" font-size="13" font-weight="bold" lengthAdjust="spacing" textLength="14" x="95.5" y="613.9482">15</text><text fill="#000000" font-family="sans-serif" font-size="13" lengthAdjust="spacing" textLength="143" x="113.5" y="613.9482">displays operation failure</text><line style="stroke:#000000;stroke-width:1.0;stroke-dasharray:2.0,2.0;" x1="10" x2="1645.5" y1="627.7031" y2="627.7031"/><text fill="#000000" font-family="sans-serif" font-size="11" font-weight="bold" lengthAdjust="spacing" textLength="140" x="15" y="637.6611">[The user does not exist]</text><polygon fill="#181818" points="874.5,657.5156,864.5,661.5156,874.5,665.5156,870.5,661.5156" style="stroke:#181818;stroke-width:1.0;"/><line style="stroke:#181818;stroke-width:1.0;stroke-dasharray:2.0,2.0;" x1="868.5" x2="1235.5" y1="661.5156" y2="661.5156"/><text fill="#000000" font-family="sans-serif" font-size="13" font-weight="bold" lengthAdjust="spacing" textLength="14" x="880.5" y="656.7607">16</text><text fill="#000000" font-family="sans-serif" font-size="13" lengthAdjust="spacing" textLength="49" x="898.5" y="656.7607">success</text><polygon fill="#181818" points="1219.5,700.5625,1229.5,704.5625,1219.5,708.5625,1223.5,704.5625" style="stroke:#181818;stroke-width:1.0;"/><line style="stroke:#181818;stroke-width:1.0;" x1="863.5" x2="1225.5" y1="704.5625" y2="704.5625"/><text fill="#000000" font-family="sans-serif" font-size="13" font-weight="bold" lengthAdjust="spacing" textLength="14" x="870.5" y="692.5459">17</text><text fill="#000000" font-family="sans-serif" font-size="13" lengthAdjust="spacing" textLength="331" x="888.5" y="685.2842">createAccount(name, passport card number, tax number,</text><text fill="#000000" font-family="sans-serif" font-size="13" lengthAdjust="spacing" textLength="200" x="888.5" y="699.8076">address, email, telephone number)</text><polygon fill="#181818" points="1554.5,743.6094,1564.5,747.6094,1554.5,751.6094,1558.5,747.6094" style="stroke:#181818;stroke-width:1.0;"/><line style="stroke:#181818;stroke-width:1.0;" x1="1241.5" x2="1560.5" y1="747.6094" y2="747.6094"/><text fill="#000000" font-family="sans-serif" font-size="13" font-weight="bold" lengthAdjust="spacing" textLength="14" x="1248.5" y="735.5928">18</text><text fill="#000000" font-family="sans-serif" font-size="13" lengthAdjust="spacing" textLength="283" x="1266.5" y="728.3311">create(name, passport card number, tax number,</text><text fill="#000000" font-family="sans-serif" font-size="13" lengthAdjust="spacing" textLength="200" x="1266.5" y="742.8545">address, email, telephone number)</text><rect fill="#E3E3E3" height="45.2813" rx="2.5" ry="2.5" style="stroke:#181818;stroke-width:0.5;" width="69" x="1566.5" y="712.5625"/><text fill="#000000" font-family="sans-serif" font-size="14" lengthAdjust="spacing" textLength="50" x="1576" y="732.2363">account</text><text fill="#000000" font-family="sans-serif" font-size="14" lengthAdjust="spacing" textLength="55" x="1573.5" y="747.877">:Account</text><line style="stroke:#181818;stroke-width:1.0;" x1="1241.5" x2="1288.5" y1="784.3672" y2="784.3672"/><line style="stroke:#181818;stroke-width:1.0;" x1="1288.5" x2="1288.5" y1="784.3672" y2="797.3672"/><line style="stroke:#181818;stroke-width:1.0;" x1="1247.5" x2="1288.5" y1="797.3672" y2="797.3672"/><polygon fill="#181818" points="1257.5,793.3672,1247.5,797.3672,1257.5,801.3672,1253.5,797.3672" style="stroke:#181818;stroke-width:1.0;"/><text fill="#000000" font-family="sans-serif" font-size="13" font-weight="bold" lengthAdjust="spacing" textLength="14" x="1253.5" y="779.6123">19</text><text fill="#000000" font-family="sans-serif" font-size="13" lengthAdjust="spacing" textLength="123" x="1271.5" y="779.6123">addAccount(account)</text><line style="stroke:#181818;stroke-width:1.0;" x1="1246.5" x2="1293.5" y1="825.8906" y2="825.8906"/><line style="stroke:#181818;stroke-width:1.0;" x1="1293.5" x2="1293.5" y1="825.8906" y2="838.8906"/><line style="stroke:#181818;stroke-width:1.0;" x1="1252.5" x2="1293.5" y1="838.8906" y2="838.8906"/><polygon fill="#181818" points="1262.5,834.8906,1252.5,838.8906,1262.5,842.8906,1258.5,838.8906" style="stroke:#181818;stroke-width:1.0;"/><text fill="#000000" font-family="sans-serif" font-size="13" font-weight="bold" lengthAdjust="spacing" textLength="14" x="1258.5" y="821.1357">20</text><text fill="#000000" font-family="sans-serif" font-size="13" lengthAdjust="spacing" textLength="145" x="1276.5" y="821.1357">validateAccount(account)</text><line style="stroke:#181818;stroke-width:1.0;stroke-dasharray:2.0,2.0;" x1="1251.5" x2="1293.5" y1="877.4141" y2="877.4141"/><line style="stroke:#181818;stroke-width:1.0;stroke-dasharray:2.0,2.0;" x1="1293.5" x2="1293.5" y1="877.4141" y2="890.4141"/><line style="stroke:#181818;stroke-width:1.0;stroke-dasharray:2.0,2.0;" x1="1246.5" x2="1293.5" y1="890.4141" y2="890.4141"/><polygon fill="#181818" points="1256.5,886.4141,1246.5,890.4141,1256.5,894.4141,1252.5,890.4141" style="stroke:#181818;stroke-width:1.0;"/><text fill="#000000" font-family="sans-serif" font-size="13" font-weight="bold" lengthAdjust="spacing" textLength="14" x="1258.5" y="872.6592">21</text><text fill="#000000" font-family="sans-serif" font-size="13" lengthAdjust="spacing" textLength="4" x="1276.5" y="872.6592">&#160;</text><line style="stroke:#181818;stroke-width:1.0;stroke-dasharray:2.0,2.0;" x1="1246.5" x2="1288.5" y1="918.9375" y2="918.9375"/><line style="stroke:#181818;stroke-width:1.0;stroke-dasharray:2.0,2.0;" x1="1288.5" x2="1288.5" y1="918.9375" y2="931.9375"/><line style="stroke:#181818;stroke-width:1.0;stroke-dasharray:2.0,2.0;" x1="1241.5" x2="1288.5" y1="931.9375" y2="931.9375"/><polygon fill="#181818" points="1251.5,927.9375,1241.5,931.9375,1251.5,935.9375,1247.5,931.9375" style="stroke:#181818;stroke-width:1.0;"/><text fill="#000000" font-family="sans-serif" font-size="13" font-weight="bold" lengthAdjust="spacing" textLength="14" x="1253.5" y="914.1826">22</text><text fill="#000000" font-family="sans-serif" font-size="13" lengthAdjust="spacing" textLength="4" x="1271.5" y="914.1826">&#160;</text><polygon fill="#181818" points="874.5,951.4609,864.5,955.4609,874.5,959.4609,870.5,955.4609" style="stroke:#181818;stroke-width:1.0;"/><line style="stroke:#181818;stroke-width:1.0;stroke-dasharray:2.0,2.0;" x1="868.5" x2="1235.5" y1="955.4609" y2="955.4609"/><text fill="#000000" font-family="sans-serif" font-size="13" font-weight="bold" lengthAdjust="spacing" textLength="14" x="880.5" y="950.7061">23</text><text fill="#000000" font-family="sans-serif" font-size="13" lengthAdjust="spacing" textLength="46" x="898.5" y="950.7061">account</text><polygon fill="#181818" points="498.5,979.9844,488.5,983.9844,498.5,987.9844,494.5,983.9844" style="stroke:#181818;stroke-width:1.0;"/><line style="stroke:#181818;stroke-width:1.0;stroke-dasharray:2.0,2.0;" x1="492.5" x2="847.5" y1="983.9844" y2="983.9844"/><text fill="#000000" font-family="sans-serif" font-size="13" font-weight="bold" lengthAdjust="spacing" textLength="14" x="504.5" y="979.2295">24</text><text fill="#000000" font-family="sans-serif" font-size="13" lengthAdjust="spacing" textLength="46" x="522.5" y="979.2295">account</text><polygon fill="#181818" points="84.5,1008.5078,74.5,1012.5078,84.5,1016.5078,80.5,1012.5078" style="stroke:#181818;stroke-width:1.0;"/><line style="stroke:#181818;stroke-width:1.0;stroke-dasharray:2.0,2.0;" x1="78.5" x2="481.5" y1="1012.5078" y2="1012.5078"/><text fill="#000000" font-family="sans-serif" font-size="13" font-weight="bold" lengthAdjust="spacing" textLength="14" x="90.5" y="1007.7529">25</text><text fill="#000000" font-family="sans-serif" font-size="13" lengthAdjust="spacing" textLength="158" x="108.5" y="1007.7529">displays operation success</text><!--SRC=[lLPDZzem4BtpAqPxOX7y0Guh8TfAI5krOk76PUhCWaMmKzlPBl- -uyGX12TPe1yvWJtpvitppDXsBrM61Wzmq4gBdT470cTo6jZJJePYZrjwSSUKm91mgBRfkO7TOQ9_IRM5Lqmj3GQOEwtommyo_5iuRU1XhGnjfNMKmDgIUG2qCFlqTS08JWgPeNBmC9qRGaSp8NIkt7fHMAqNVKPphPpHQHeWvwlbyuNvaZ9j9PEGP0kRqyBnHVfCc6lJnPnvR5GCyFrvjcfw138rydIZehKovylL9X2Msnmr61PEgzdoyvTPeQLyuzmBvGOGFlu3aoVM2QPilBVWD8X28q38MMm8gBNB2OZ5FItwZq4Oogiu6Z5S2HERi8sFEkLo-9cJTHOIT5ZR9TI8CBYawOuPsSgPIy9x3nKUQCpLPcscZGE19e6oYiRWyBtwlL6O98Qi7GCTKAQyIIbbEwqec3oM0MCAc3hubZcf5QPTf7JOBpbPnm1ZIBXoZHHk34AwOy0dbRG4YfKywHYEzAydsk1GT43Zm7gs_5TGPAejRS7Cj-GMYbLGWeQFiVC9kwsf8cl_jOMP1ALyFTMz5lkVbTLLyQhKVCEMkKJjrvjKqUZHTe5MdstSqNsyso4heX5MoTfFpB1bUmbVmIKECUa8JEzSzTR77XRrrnQO6sgretBA5FRN1WpYlJ9kRgXBaQerEysYWSITcgLuz7rC1dqhzpiJNrXr2edc2Q2qkoiNcml1tTfx_5SSK6yz_8zHSczbTGZq5AwlqQWY_yzPjx9eqPBXAo735Ta1U8yKjn1vmrGcPyVwCPjx6Tqm0lf1RY_gFmvzUyZUVerUHTV5wHjLru76zt0zmbedMEjakNXZNHBtBqJ_GlaD]--></g></svg>