<?xml version="1.0" encoding="us-ascii" standalone="no"?><svg xmlns="http://www.w3.org/2000/svg" xmlns:xlink="http://www.w3.org/1999/xlink" contentStyleType="text/css" height="972px" preserveAspectRatio="none" style="width:1349px;height:972px;background:#FFFFFF;" version="1.1" viewBox="0 0 1349 972" width="1349px" zoomAndPan="magnify"><defs/><g><rect fill="#FFFFFF" height="782.0742" style="stroke:#181818;stroke-width:1.0;" width="10" x="26.5" y="91.4883"/><rect fill="#FFFFFF" height="760.7637" style="stroke:#181818;stroke-width:1.0;" width="10" x="288.5" y="112.7988"/><rect fill="#FFFFFF" height="29.3105" style="stroke:#181818;stroke-width:1.0;" width="10" x="419.5" y="142.1094"/><rect fill="#FFFFFF" height="29.3105" style="stroke:#181818;stroke-width:1.0;" width="10" x="419.5" y="609.7676"/><rect fill="#FFFFFF" height="29.3105" style="stroke:#181818;stroke-width:1.0;" width="10" x="532.5" y="200.7305"/><rect fill="#FFFFFF" height="29.3105" style="stroke:#181818;stroke-width:1.0;" width="10" x="532.5" y="668.3887"/><rect fill="#FFFFFF" height="174.5527" style="stroke:#181818;stroke-width:1.0;" width="10" x="658" y="230.041"/><rect fill="#FFFFFF" height="123.9316" style="stroke:#181818;stroke-width:1.0;" width="10" x="663" y="259.3516"/><rect fill="#FFFFFF" height="40.3105" style="stroke:#181818;stroke-width:1.0;" width="10" x="668" y="320.9727"/><rect fill="#FFFFFF" height="263.7949" style="stroke:#181818;stroke-width:1.0;" width="10" x="920" y="580.457"/><rect fill="#FFFFFF" height="29.3105" style="stroke:#181818;stroke-width:1.0;" width="10" x="1100.5" y="727.0098"/><rect fill="#FFFFFF" height="29.3105" style="stroke:#181818;stroke-width:1.0;" width="10" x="1267.5" y="785.6309"/><rect fill="none" height="101.9316" style="stroke:#000000;stroke-width:1.5;" width="341" x="589" y="274.3516"/><line style="stroke:#181818;stroke-width:0.5;stroke-dasharray:5.0,5.0;" x1="31" x2="31" y1="81.4883" y2="891.5625"/><line style="stroke:#181818;stroke-width:0.5;stroke-dasharray:5.0,5.0;" x1="293" x2="293" y1="81.4883" y2="891.5625"/><line style="stroke:#181818;stroke-width:0.5;stroke-dasharray:5.0,5.0;" x1="424" x2="424" y1="81.4883" y2="891.5625"/><line style="stroke:#181818;stroke-width:0.5;stroke-dasharray:5.0,5.0;" x1="537" x2="537" y1="81.4883" y2="891.5625"/><line style="stroke:#181818;stroke-width:0.5;stroke-dasharray:5.0,5.0;" x1="663" x2="663" y1="81.4883" y2="891.5625"/><line style="stroke:#181818;stroke-width:0.5;stroke-dasharray:5.0,5.0;" x1="924.5" x2="924.5" y1="81.4883" y2="891.5625"/><line style="stroke:#181818;stroke-width:0.5;stroke-dasharray:5.0,5.0;" x1="1105.5" x2="1105.5" y1="81.4883" y2="891.5625"/><line style="stroke:#181818;stroke-width:0.5;stroke-dasharray:5.0,5.0;" x1="1272.5" x2="1272.5" y1="81.4883" y2="891.5625"/><text fill="#000000" font-family="sans-serif" font-size="14" lengthAdjust="spacing" textLength="47" x="5" y="78.5352">Person</text><ellipse cx="31.5" cy="13.5" fill="#E3E3E3" rx="8" ry="8" style="stroke:#181818;stroke-width:0.5;"/><path d="M31.5,21.5 L31.5,48.5 M18.5,29.5 L44.5,29.5 M31.5,48.5 L18.5,63.5 M31.5,48.5 L44.5,63.5 " fill="none" style="stroke:#181818;stroke-width:0.5;"/><text fill="#000000" font-family="sans-serif" font-size="14" lengthAdjust="spacing" textLength="47" x="5" y="904.0977">Person</text><ellipse cx="31.5" cy="915.5508" fill="#E3E3E3" rx="8" ry="8" style="stroke:#181818;stroke-width:0.5;"/><path d="M31.5,923.5508 L31.5,950.5508 M18.5,931.5508 L44.5,931.5508 M31.5,950.5508 L18.5,965.5508 M31.5,950.5508 L44.5,965.5508 " fill="none" style="stroke:#181818;stroke-width:0.5;"/><rect fill="#E3E3E3" height="30.4883" rx="2.5" ry="2.5" style="stroke:#181818;stroke-width:0.5;" width="139" x="224" y="50"/><text fill="#000000" font-family="sans-serif" font-size="14" lengthAdjust="spacing" textLength="125" x="231" y="70.5352">:DisplayPropertyUI</text><rect fill="#E3E3E3" height="30.4883" rx="2.5" ry="2.5" style="stroke:#181818;stroke-width:0.5;" width="139" x="224" y="890.5625"/><text fill="#000000" font-family="sans-serif" font-size="14" lengthAdjust="spacing" textLength="125" x="231" y="911.0977">:DisplayPropertyUI</text><rect fill="#E3E3E3" height="30.4883" rx="2.5" ry="2.5" style="stroke:#181818;stroke-width:0.5;" width="103" x="373" y="50"/><text fill="#000000" font-family="sans-serif" font-size="14" lengthAdjust="spacing" textLength="89" x="380" y="70.5352">:Repositories</text><rect fill="#E3E3E3" height="30.4883" rx="2.5" ry="2.5" style="stroke:#181818;stroke-width:0.5;" width="103" x="373" y="890.5625"/><text fill="#000000" font-family="sans-serif" font-size="14" lengthAdjust="spacing" textLength="89" x="380" y="911.0977">:Repositories</text><rect fill="#E3E3E3" height="46.9766" rx="2.5" ry="2.5" style="stroke:#181818;stroke-width:0.5;" width="103" x="486" y="33.5117"/><text fill="#000000" font-family="sans-serif" font-size="14" lengthAdjust="spacing" textLength="82" x="496.5" y="54.0469">repositories</text><text fill="#000000" font-family="sans-serif" font-size="14" lengthAdjust="spacing" textLength="89" x="493" y="70.5352">:Repositories</text><rect fill="#E3E3E3" height="46.9766" rx="2.5" ry="2.5" style="stroke:#181818;stroke-width:0.5;" width="103" x="486" y="890.5625"/><text fill="#000000" font-family="sans-serif" font-size="14" lengthAdjust="spacing" textLength="82" x="496.5" y="911.0977">repositories</text><text fill="#000000" font-family="sans-serif" font-size="14" lengthAdjust="spacing" textLength="89" x="493" y="927.5859">:Repositories</text><rect fill="#E3E3E3" height="30.4883" rx="2.5" ry="2.5" style="stroke:#181818;stroke-width:0.5;" width="128" x="599" y="50"/><text fill="#000000" font-family="sans-serif" font-size="14" lengthAdjust="spacing" textLength="114" x="606" y="70.5352">:PropertyMapper</text><rect fill="#E3E3E3" height="30.4883" rx="2.5" ry="2.5" style="stroke:#181818;stroke-width:0.5;" width="128" x="599" y="890.5625"/><text fill="#000000" font-family="sans-serif" font-size="14" lengthAdjust="spacing" textLength="114" x="606" y="911.0977">:PropertyMapper</text><rect fill="#E3E3E3" height="30.4883" rx="2.5" ry="2.5" style="stroke:#181818;stroke-width:0.5;" width="169" x="840.5" y="50"/><text fill="#000000" font-family="sans-serif" font-size="14" lengthAdjust="spacing" textLength="155" x="847.5" y="70.5352">:TransactionController</text><rect fill="#E3E3E3" height="30.4883" rx="2.5" ry="2.5" style="stroke:#181818;stroke-width:0.5;" width="169" x="840.5" y="890.5625"/><text fill="#000000" font-family="sans-serif" font-size="14" lengthAdjust="spacing" textLength="155" x="847.5" y="911.0977">:TransactionController</text><rect fill="#E3E3E3" height="46.9766" rx="2.5" ry="2.5" style="stroke:#181818;stroke-width:0.5;" width="172" x="1019.5" y="33.5117"/><text fill="#000000" font-family="sans-serif" font-size="14" lengthAdjust="spacing" textLength="158" x="1026.5" y="54.0469">TransactionRepository:</text><text fill="#000000" font-family="sans-serif" font-size="14" lengthAdjust="spacing" textLength="158" x="1026.5" y="70.5352">atransactionRepository</text><rect fill="#E3E3E3" height="46.9766" rx="2.5" ry="2.5" style="stroke:#181818;stroke-width:0.5;" width="172" x="1019.5" y="890.5625"/><text fill="#000000" font-family="sans-serif" font-size="14" lengthAdjust="spacing" textLength="158" x="1026.5" y="911.0977">TransactionRepository:</text><text fill="#000000" font-family="sans-serif" font-size="14" lengthAdjust="spacing" textLength="158" x="1026.5" y="927.5859">atransactionRepository</text><rect fill="#E3E3E3" height="46.9766" rx="2.5" ry="2.5" style="stroke:#181818;stroke-width:0.5;" width="142" x="1201.5" y="33.5117"/><text fill="#000000" font-family="sans-serif" font-size="14" lengthAdjust="spacing" textLength="128" x="1208.5" y="54.0469">applicationSession</text><text fill="#000000" font-family="sans-serif" font-size="14" lengthAdjust="spacing" textLength="125" x="1210" y="70.5352">:AplicationSession</text><rect fill="#E3E3E3" height="46.9766" rx="2.5" ry="2.5" style="stroke:#181818;stroke-width:0.5;" width="142" x="1201.5" y="890.5625"/><text fill="#000000" font-family="sans-serif" font-size="14" lengthAdjust="spacing" textLength="128" x="1208.5" y="911.0977">applicationSession</text><text fill="#000000" font-family="sans-serif" font-size="14" lengthAdjust="spacing" textLength="125" x="1210" y="927.5859">:AplicationSession</text><rect fill="#FFFFFF" height="782.0742" style="stroke:#181818;stroke-width:1.0;" width="10" x="26.5" y="91.4883"/><rect fill="#FFFFFF" height="760.7637" style="stroke:#181818;stroke-width:1.0;" width="10" x="288.5" y="112.7988"/><rect fill="#FFFFFF" height="29.3105" style="stroke:#181818;stroke-width:1.0;" width="10" x="419.5" y="142.1094"/><rect fill="#FFFFFF" height="29.3105" style="stroke:#181818;stroke-width:1.0;" width="10" x="419.5" y="609.7676"/><rect fill="#FFFFFF" height="29.3105" style="stroke:#181818;stroke-width:1.0;" width="10" x="532.5" y="200.7305"/><rect fill="#FFFFFF" height="29.3105" style="stroke:#181818;stroke-width:1.0;" width="10" x="532.5" y="668.3887"/><rect fill="#FFFFFF" height="174.5527" style="stroke:#181818;stroke-width:1.0;" width="10" x="658" y="230.041"/><rect fill="#FFFFFF" height="123.9316" style="stroke:#181818;stroke-width:1.0;" width="10" x="663" y="259.3516"/><rect fill="#FFFFFF" height="40.3105" style="stroke:#181818;stroke-width:1.0;" width="10" x="668" y="320.9727"/><rect fill="#FFFFFF" height="263.7949" style="stroke:#181818;stroke-width:1.0;" width="10" x="920" y="580.457"/><rect fill="#FFFFFF" height="29.3105" style="stroke:#181818;stroke-width:1.0;" width="10" x="1100.5" y="727.0098"/><rect fill="#FFFFFF" height="29.3105" style="stroke:#181818;stroke-width:1.0;" width="10" x="1267.5" y="785.6309"/><polygon fill="#181818" points="276.5,108.7988,286.5,112.7988,276.5,116.7988,280.5,112.7988" style="stroke:#181818;stroke-width:1.0;"/><line style="stroke:#181818;stroke-width:1.0;" x1="36.5" x2="282.5" y1="112.7988" y2="112.7988"/><text fill="#000000" font-family="sans-serif" font-size="13" font-weight="bold" lengthAdjust="spacing" textLength="9" x="43.5" y="108.0566">1</text><text fill="#000000" font-family="sans-serif" font-size="13" lengthAdjust="spacing" textLength="197" x="56.5" y="108.0566">asks to create a purchase order</text><polygon fill="#181818" points="407.5,138.1094,417.5,142.1094,407.5,146.1094,411.5,142.1094" style="stroke:#181818;stroke-width:1.0;"/><line style="stroke:#181818;stroke-width:1.0;" x1="298.5" x2="413.5" y1="142.1094" y2="142.1094"/><text fill="#000000" font-family="sans-serif" font-size="13" font-weight="bold" lengthAdjust="spacing" textLength="9" x="305.5" y="137.3672">2</text><text fill="#000000" font-family="sans-serif" font-size="13" lengthAdjust="spacing" textLength="81" x="318.5" y="137.3672">getInstance()</text><polygon fill="#181818" points="309.5,167.4199,299.5,171.4199,309.5,175.4199,305.5,171.4199" style="stroke:#181818;stroke-width:1.0;"/><line style="stroke:#181818;stroke-width:1.0;stroke-dasharray:2.0,2.0;" x1="303.5" x2="423.5" y1="171.4199" y2="171.4199"/><text fill="#000000" font-family="sans-serif" font-size="13" font-weight="bold" lengthAdjust="spacing" textLength="9" x="315.5" y="166.6777">3</text><text fill="#000000" font-family="sans-serif" font-size="13" lengthAdjust="spacing" textLength="75" x="328.5" y="166.6777">repositories</text><polygon fill="#181818" points="520.5,196.7305,530.5,200.7305,520.5,204.7305,524.5,200.7305" style="stroke:#181818;stroke-width:1.0;"/><line style="stroke:#181818;stroke-width:1.0;" x1="298.5" x2="526.5" y1="200.7305" y2="200.7305"/><text fill="#000000" font-family="sans-serif" font-size="13" font-weight="bold" lengthAdjust="spacing" textLength="9" x="305.5" y="195.9883">4</text><text fill="#000000" font-family="sans-serif" font-size="13" lengthAdjust="spacing" textLength="139" x="318.5" y="195.9883">getPropertyRepository</text><polygon fill="#181818" points="309.5,226.041,299.5,230.041,309.5,234.041,305.5,230.041" style="stroke:#181818;stroke-width:1.0;"/><line style="stroke:#181818;stroke-width:1.0;" x1="303.5" x2="536.5" y1="230.041" y2="230.041"/><text fill="#000000" font-family="sans-serif" font-size="13" font-weight="bold" lengthAdjust="spacing" textLength="9" x="315.5" y="225.2988">5</text><text fill="#000000" font-family="sans-serif" font-size="13" lengthAdjust="spacing" textLength="120" x="328.5" y="225.2988">propertyRepository</text><polygon fill="#181818" points="651,255.3516,661,259.3516,651,263.3516,655,259.3516" style="stroke:#181818;stroke-width:1.0;"/><line style="stroke:#181818;stroke-width:1.0;" x1="298.5" x2="657" y1="259.3516" y2="259.3516"/><text fill="#000000" font-family="sans-serif" font-size="13" font-weight="bold" lengthAdjust="spacing" textLength="9" x="305.5" y="254.6094">6</text><text fill="#000000" font-family="sans-serif" font-size="13" lengthAdjust="spacing" textLength="322" x="318.5" y="254.6094">propertiesList = toPropertiesListDto(propertiesList)</text><path d="M589,274.3516 L663,274.3516 L663,281.6621 L653,291.6621 L589,291.6621 L589,274.3516 " fill="#EEEEEE" style="stroke:#000000;stroke-width:1.5;"/><rect fill="none" height="101.9316" style="stroke:#000000;stroke-width:1.5;" width="341" x="589" y="274.3516"/><text fill="#000000" font-family="sans-serif" font-size="13" font-weight="bold" lengthAdjust="spacing" textLength="29" x="604" y="287.9199">loop</text><text fill="#000000" font-family="sans-serif" font-size="11" font-weight="bold" lengthAdjust="spacing" textLength="96" x="678" y="286.9863">[for each agency]</text><line style="stroke:#181818;stroke-width:1.0;" x1="673" x2="720" y1="307.9727" y2="307.9727"/><line style="stroke:#181818;stroke-width:1.0;" x1="720" x2="720" y1="307.9727" y2="320.9727"/><line style="stroke:#181818;stroke-width:1.0;" x1="679" x2="720" y1="320.9727" y2="320.9727"/><polygon fill="#181818" points="689,316.9727,679,320.9727,689,324.9727,685,320.9727" style="stroke:#181818;stroke-width:1.0;"/><text fill="#000000" font-family="sans-serif" font-size="13" font-weight="bold" lengthAdjust="spacing" textLength="9" x="685" y="303.2305">7</text><text fill="#000000" font-family="sans-serif" font-size="13" lengthAdjust="spacing" textLength="220" x="698" y="303.2305">property = toPropertyDto(property)</text><line style="stroke:#181818;stroke-width:1.0;stroke-dasharray:2.0,2.0;" x1="678" x2="720" y1="360.2832" y2="360.2832"/><line style="stroke:#181818;stroke-width:1.0;stroke-dasharray:2.0,2.0;" x1="720" x2="720" y1="360.2832" y2="373.2832"/><line style="stroke:#181818;stroke-width:1.0;stroke-dasharray:2.0,2.0;" x1="673" x2="720" y1="373.2832" y2="373.2832"/><polygon fill="#181818" points="683,369.2832,673,373.2832,683,377.2832,679,373.2832" style="stroke:#181818;stroke-width:1.0;"/><text fill="#000000" font-family="sans-serif" font-size="13" font-weight="bold" lengthAdjust="spacing" textLength="9" x="685" y="355.541">8</text><text fill="#000000" font-family="sans-serif" font-size="13" lengthAdjust="spacing" textLength="189" x="698" y="355.541">addPropertyToPropertyListDto</text><polygon fill="#181818" points="309.5,400.5938,299.5,404.5938,309.5,408.5938,305.5,404.5938" style="stroke:#181818;stroke-width:1.0;"/><line style="stroke:#181818;stroke-width:1.0;stroke-dasharray:2.0,2.0;" x1="303.5" x2="662" y1="404.5938" y2="404.5938"/><text fill="#000000" font-family="sans-serif" font-size="13" font-weight="bold" lengthAdjust="spacing" textLength="9" x="315.5" y="399.8516">9</text><text fill="#000000" font-family="sans-serif" font-size="13" lengthAdjust="spacing" textLength="110" x="328.5" y="399.8516">propertiesListDto</text><polygon fill="#181818" points="47.5,429.9043,37.5,433.9043,47.5,437.9043,43.5,433.9043" style="stroke:#181818;stroke-width:1.0;"/><line style="stroke:#181818;stroke-width:1.0;stroke-dasharray:2.0,2.0;" x1="41.5" x2="287.5" y1="433.9043" y2="433.9043"/><text fill="#000000" font-family="sans-serif" font-size="13" font-weight="bold" lengthAdjust="spacing" textLength="18" x="53.5" y="429.1621">10</text><text fill="#000000" font-family="sans-serif" font-size="13" lengthAdjust="spacing" textLength="179" x="75.5" y="429.1621">displays available properties</text><polygon fill="#181818" points="47.5,459.2148,37.5,463.2148,47.5,467.2148,43.5,463.2148" style="stroke:#181818;stroke-width:1.0;"/><line style="stroke:#181818;stroke-width:1.0;stroke-dasharray:2.0,2.0;" x1="41.5" x2="287.5" y1="463.2148" y2="463.2148"/><text fill="#000000" font-family="sans-serif" font-size="13" font-weight="bold" lengthAdjust="spacing" textLength="18" x="53.5" y="458.4727">11</text><text fill="#000000" font-family="sans-serif" font-size="13" lengthAdjust="spacing" textLength="144" x="75.5" y="458.4727">asks to select property</text><polygon fill="#181818" points="276.5,488.5254,286.5,492.5254,276.5,496.5254,280.5,492.5254" style="stroke:#181818;stroke-width:1.0;"/><line style="stroke:#181818;stroke-width:1.0;" x1="36.5" x2="282.5" y1="492.5254" y2="492.5254"/><text fill="#000000" font-family="sans-serif" font-size="13" font-weight="bold" lengthAdjust="spacing" textLength="18" x="43.5" y="487.7832">12</text><text fill="#000000" font-family="sans-serif" font-size="13" lengthAdjust="spacing" textLength="101" x="65.5" y="487.7832">selects property</text><polygon fill="#181818" points="47.5,517.8359,37.5,521.8359,47.5,525.8359,43.5,521.8359" style="stroke:#181818;stroke-width:1.0;"/><line style="stroke:#181818;stroke-width:1.0;stroke-dasharray:2.0,2.0;" x1="41.5" x2="287.5" y1="521.8359" y2="521.8359"/><text fill="#000000" font-family="sans-serif" font-size="13" font-weight="bold" lengthAdjust="spacing" textLength="18" x="53.5" y="517.0938">13</text><text fill="#000000" font-family="sans-serif" font-size="13" lengthAdjust="spacing" textLength="206" x="75.5" y="517.0938">requests data for the transaction</text><polygon fill="#181818" points="276.5,547.1465,286.5,551.1465,276.5,555.1465,280.5,551.1465" style="stroke:#181818;stroke-width:1.0;"/><line style="stroke:#181818;stroke-width:1.0;" x1="36.5" x2="282.5" y1="551.1465" y2="551.1465"/><text fill="#000000" font-family="sans-serif" font-size="13" font-weight="bold" lengthAdjust="spacing" textLength="18" x="43.5" y="546.4043">14</text><text fill="#000000" font-family="sans-serif" font-size="13" lengthAdjust="spacing" textLength="189" x="65.5" y="546.4043">sends data for the transaction</text><polygon fill="#181818" points="908,576.457,918,580.457,908,584.457,912,580.457" style="stroke:#181818;stroke-width:1.0;"/><line style="stroke:#181818;stroke-width:1.0;" x1="298.5" x2="914" y1="580.457" y2="580.457"/><text fill="#000000" font-family="sans-serif" font-size="13" font-weight="bold" lengthAdjust="spacing" textLength="18" x="305.5" y="575.7148">15</text><text fill="#000000" font-family="sans-serif" font-size="13" lengthAdjust="spacing" textLength="284" x="327.5" y="575.7148">create(owner_id, buyer_id, price, property_id)</text><polygon fill="#181818" points="440.5,605.7676,430.5,609.7676,440.5,613.7676,436.5,609.7676" style="stroke:#181818;stroke-width:1.0;"/><line style="stroke:#181818;stroke-width:1.0;" x1="434.5" x2="919" y1="609.7676" y2="609.7676"/><text fill="#000000" font-family="sans-serif" font-size="13" font-weight="bold" lengthAdjust="spacing" textLength="18" x="446.5" y="605.0254">16</text><text fill="#000000" font-family="sans-serif" font-size="13" lengthAdjust="spacing" textLength="81" x="468.5" y="605.0254">getInstance()</text><polygon fill="#181818" points="908,635.0781,918,639.0781,908,643.0781,912,639.0781" style="stroke:#181818;stroke-width:1.0;"/><line style="stroke:#181818;stroke-width:1.0;stroke-dasharray:2.0,2.0;" x1="424.5" x2="914" y1="639.0781" y2="639.0781"/><text fill="#000000" font-family="sans-serif" font-size="13" font-weight="bold" lengthAdjust="spacing" textLength="18" x="431.5" y="634.3359">17</text><text fill="#000000" font-family="sans-serif" font-size="13" lengthAdjust="spacing" textLength="75" x="453.5" y="634.3359">repositories</text><polygon fill="#181818" points="553.5,664.3887,543.5,668.3887,553.5,672.3887,549.5,668.3887" style="stroke:#181818;stroke-width:1.0;"/><line style="stroke:#181818;stroke-width:1.0;" x1="547.5" x2="919" y1="668.3887" y2="668.3887"/><text fill="#000000" font-family="sans-serif" font-size="13" font-weight="bold" lengthAdjust="spacing" textLength="18" x="559.5" y="663.6465">18</text><text fill="#000000" font-family="sans-serif" font-size="13" lengthAdjust="spacing" textLength="161" x="581.5" y="663.6465">getTransactionRepository</text><polygon fill="#181818" points="908,693.6992,918,697.6992,908,701.6992,912,697.6992" style="stroke:#181818;stroke-width:1.0;"/><line style="stroke:#181818;stroke-width:1.0;stroke-dasharray:2.0,2.0;" x1="537.5" x2="914" y1="697.6992" y2="697.6992"/><text fill="#000000" font-family="sans-serif" font-size="13" font-weight="bold" lengthAdjust="spacing" textLength="18" x="544.5" y="692.957">19</text><text fill="#000000" font-family="sans-serif" font-size="13" lengthAdjust="spacing" textLength="138" x="566.5" y="692.957">transactionRepository</text><polygon fill="#181818" points="1088.5,723.0098,1098.5,727.0098,1088.5,731.0098,1092.5,727.0098" style="stroke:#181818;stroke-width:1.0;"/><line style="stroke:#181818;stroke-width:1.0;" x1="930" x2="1094.5" y1="727.0098" y2="727.0098"/><text fill="#000000" font-family="sans-serif" font-size="13" font-weight="bold" lengthAdjust="spacing" textLength="18" x="937" y="722.2676">20</text><text fill="#000000" font-family="sans-serif" font-size="13" lengthAdjust="spacing" textLength="118" x="959" y="722.2676">getAllTransactions</text><polygon fill="#181818" points="941,752.3203,931,756.3203,941,760.3203,937,756.3203" style="stroke:#181818;stroke-width:1.0;"/><line style="stroke:#181818;stroke-width:1.0;stroke-dasharray:2.0,2.0;" x1="935" x2="1104.5" y1="756.3203" y2="756.3203"/><text fill="#000000" font-family="sans-serif" font-size="13" font-weight="bold" lengthAdjust="spacing" textLength="18" x="947" y="751.5781">21</text><text fill="#000000" font-family="sans-serif" font-size="13" lengthAdjust="spacing" textLength="78" x="969" y="751.5781">transactions</text><polygon fill="#181818" points="1255.5,781.6309,1265.5,785.6309,1255.5,789.6309,1259.5,785.6309" style="stroke:#181818;stroke-width:1.0;"/><line style="stroke:#181818;stroke-width:1.0;" x1="930" x2="1261.5" y1="785.6309" y2="785.6309"/><text fill="#000000" font-family="sans-serif" font-size="13" font-weight="bold" lengthAdjust="spacing" textLength="18" x="937" y="780.8887">22</text><text fill="#000000" font-family="sans-serif" font-size="13" lengthAdjust="spacing" textLength="103" x="959" y="780.8887">getCurrentUser()</text><polygon fill="#181818" points="941,810.9414,931,814.9414,941,818.9414,937,814.9414" style="stroke:#181818;stroke-width:1.0;"/><line style="stroke:#181818;stroke-width:1.0;stroke-dasharray:2.0,2.0;" x1="935" x2="1271.5" y1="814.9414" y2="814.9414"/><text fill="#000000" font-family="sans-serif" font-size="13" font-weight="bold" lengthAdjust="spacing" textLength="18" x="947" y="810.1992">23</text><text fill="#000000" font-family="sans-serif" font-size="13" lengthAdjust="spacing" textLength="73" x="969" y="810.1992">currentUser</text><polygon fill="#181818" points="309.5,840.252,299.5,844.252,309.5,848.252,305.5,844.252" style="stroke:#181818;stroke-width:1.0;"/><line style="stroke:#181818;stroke-width:1.0;stroke-dasharray:2.0,2.0;" x1="303.5" x2="924" y1="844.252" y2="844.252"/><text fill="#000000" font-family="sans-serif" font-size="13" font-weight="bold" lengthAdjust="spacing" textLength="18" x="315.5" y="839.5098">24</text><text fill="#000000" font-family="sans-serif" font-size="13" lengthAdjust="spacing" textLength="143" x="337.5" y="839.5098">send success message</text><polygon fill="#181818" points="42.5,869.5625,32.5,873.5625,42.5,877.5625,38.5,873.5625" style="stroke:#181818;stroke-width:1.0;"/><line style="stroke:#181818;stroke-width:1.0;stroke-dasharray:2.0,2.0;" x1="36.5" x2="292.5" y1="873.5625" y2="873.5625"/><text fill="#000000" font-family="sans-serif" font-size="13" font-weight="bold" lengthAdjust="spacing" textLength="18" x="48.5" y="868.8203">25</text><text fill="#000000" font-family="sans-serif" font-size="13" lengthAdjust="spacing" textLength="146" x="70.5" y="868.8203">show success message</text><!--SRC=[ZLLDR-CW43tRlmBbb9NQFn1fLuhQIwIi56sIMwKLmTCOnG4MS2F_-ntZBy3KxIMEyNipZndcOMvSAAhfdTobaApKyWx4wXfoCtvHbDte5OwsgO1eO9QAQ-K3J4aB-U3YIjvfPI3FQMsbgEyNqFYVMQd9wW3QIB4Yr93QjEj8jPnnHOKbgyqhDwgYpK5B1Tesvvr3ddSHx0yeQJW6v60SObneZhnLXNb3YlOORs8UuB3Vdg8aWuZVLE6pGmLB4VwagJ2uJIx5YnHMowhgQTDhIF4OqmOsRuBQr0SNAaa9ewAsYZFQGevW33vmmzjupKNRAjM_kWRn3sgXwqlM_fBdNrXxia7epH0h2TFG8YXHjMObDK2aBjekPYCRUvLbI49geYaOwmfs9mmU7WRh7yYSgAacPbcM2lCyAFFxYk025gEDqjfsTrg6bdhLz3MvSu4Y7658gkQS8BKZ1L72SvEDCeBrAJ9kPi-D9J-nw8TWwTNATGXoDLnAbUsbLEGTfmyLbWH7MB36VSYY_0kA6bzBuwbeklpB2kQPKgbeKGnhfp5Ll-akZ5_ZUHOGHRu8ojD2_9vEPSw_YDHs4CbkJZQaw8pB4Ff1UKKlQ95Jn3by62W35HhfMEGM60nUzzq4W32IXdyr68GKr5BNPLksrZtQH2AcA9RXtU6SN0j9tUIlvKE0_ikB9tAfc_wVqfp1qoWHryAnzjmFw-z5_Rv5VEaHdvf4i8d8BBxX5f7SoJRIFXnEOcyTlNV4Of8U7v_VtaWY6SdadQvjLNbVJQZez5dAB1rnINDSmCyB4cgVhfnEy4kjDGXxnXCQzzgxdLgD7dCcZ4rH8bt-5HU9yGU2c9enn94x_g15XjFl7U7P09fIFkPiZumtelVcRjV_]--></g></svg>
