<?xml version="1.0" encoding="us-ascii" standalone="no"?><svg xmlns="http://www.w3.org/2000/svg" xmlns:xlink="http://www.w3.org/1999/xlink" contentStyleType="text/css" height="724px" preserveAspectRatio="none" style="width:948px;height:724px;background:#FFFFFF;" version="1.1" viewBox="0 0 948 724" width="948px" zoomAndPan="magnify"><defs/><g><!--class PropertyRepository--><g id="elem_PropertyRepository"><rect codeLine="8" fill="#F1F1F1" height="64.4883" id="PropertyRepository" rx="2.5" ry="2.5" style="stroke:#181818;stroke-width:0.5;" width="163" x="7" y="570.28"/><ellipse cx="22" cy="586.28" fill="#ADD1B2" rx="11" ry="11" style="stroke:#181818;stroke-width:1.0;"/><path d="M24.9731,591.9231 Q24.3921,592.2219 23.7529,592.3713 Q23.1138,592.5207 22.4082,592.5207 Q19.9014,592.5207 18.5815,590.8689 Q17.2617,589.217 17.2617,586.0959 Q17.2617,582.9665 18.5815,581.3147 Q19.9014,579.6628 22.4082,579.6628 Q23.1138,579.6628 23.7612,579.8122 Q24.4087,579.9616 24.9731,580.2605 L24.9731,582.9831 Q24.3423,582.4021 23.7488,582.1323 Q23.1553,581.8625 22.5244,581.8625 Q21.1797,581.8625 20.4949,582.9292 Q19.8101,583.9958 19.8101,586.0959 Q19.8101,588.1877 20.4949,589.2544 Q21.1797,590.321 22.5244,590.321 Q23.1553,590.321 23.7488,590.0512 Q24.3423,589.7815 24.9731,589.2004 Z " fill="#000000"/><text fill="#000000" font-family="sans-serif" font-size="14" lengthAdjust="spacing" textLength="131" x="36" y="591.571">PropertyRepository</text><line style="stroke:#181818;stroke-width:0.5;" x1="8" x2="169" y1="602.28" y2="602.28"/><text fill="#000000" font-family="sans-serif" font-size="14" lengthAdjust="spacing" textLength="102" x="13" y="619.8152">-propertiesList</text><line style="stroke:#181818;stroke-width:0.5;" x1="8" x2="169" y1="626.7683" y2="626.7683"/></g><!--class TransactionRepository--><g id="elem_TransactionRepository"><rect codeLine="12" fill="#F1F1F1" height="64.4883" id="TransactionRepository" rx="2.5" ry="2.5" style="stroke:#181818;stroke-width:0.5;" width="186" x="204.5" y="570.28"/><ellipse cx="219.5" cy="586.28" fill="#ADD1B2" rx="11" ry="11" style="stroke:#181818;stroke-width:1.0;"/><path d="M222.4731,591.9231 Q221.8921,592.2219 221.2529,592.3713 Q220.6138,592.5207 219.9082,592.5207 Q217.4014,592.5207 216.0815,590.8689 Q214.7617,589.217 214.7617,586.0959 Q214.7617,582.9665 216.0815,581.3147 Q217.4014,579.6628 219.9082,579.6628 Q220.6138,579.6628 221.2612,579.8122 Q221.9087,579.9616 222.4731,580.2605 L222.4731,582.9831 Q221.8423,582.4021 221.2488,582.1323 Q220.6553,581.8625 220.0244,581.8625 Q218.6797,581.8625 217.9949,582.9292 Q217.3101,583.9958 217.3101,586.0959 Q217.3101,588.1877 217.9949,589.2544 Q218.6797,590.321 220.0244,590.321 Q220.6553,590.321 221.2488,590.0512 Q221.8423,589.7815 222.4731,589.2004 Z " fill="#000000"/><text fill="#000000" font-family="sans-serif" font-size="14" lengthAdjust="spacing" textLength="154" x="233.5" y="591.571">TransactionRepository</text><line style="stroke:#181818;stroke-width:0.5;" x1="205.5" x2="389.5" y1="602.28" y2="602.28"/><text fill="#000000" font-family="sans-serif" font-size="14" lengthAdjust="spacing" textLength="115" x="210.5" y="619.8152">-transactionsList</text><line style="stroke:#181818;stroke-width:0.5;" x1="205.5" x2="389.5" y1="626.7683" y2="626.7683"/></g><!--class Repositories--><g id="elem_Repositories"><rect codeLine="16" fill="#F1F1F1" height="212.8828" id="Repositories" rx="2.5" ry="2.5" style="stroke:#181818;stroke-width:0.5;" width="235" x="75" y="197.96"/><ellipse cx="145.75" cy="213.96" fill="#ADD1B2" rx="11" ry="11" style="stroke:#181818;stroke-width:1.0;"/><path d="M148.7231,219.6031 Q148.1421,219.9019 147.5029,220.0513 Q146.8638,220.2007 146.1582,220.2007 Q143.6514,220.2007 142.3315,218.5489 Q141.0117,216.897 141.0117,213.7759 Q141.0117,210.6465 142.3315,208.9947 Q143.6514,207.3428 146.1582,207.3428 Q146.8638,207.3428 147.5112,207.4922 Q148.1587,207.6416 148.7231,207.9405 L148.7231,210.6631 Q148.0923,210.0821 147.4988,209.8123 Q146.9053,209.5425 146.2744,209.5425 Q144.9297,209.5425 144.2449,210.6092 Q143.5601,211.6758 143.5601,213.7759 Q143.5601,215.8677 144.2449,216.9344 Q144.9297,218.001 146.2744,218.001 Q146.9053,218.001 147.4988,217.7312 Q148.0923,217.4615 148.7231,216.8804 Z " fill="#000000"/><text fill="#000000" font-family="sans-serif" font-size="14" lengthAdjust="spacing" textLength="85" x="166.25" y="219.251">Repositories</text><line style="stroke:#181818;stroke-width:0.5;" x1="76" x2="309" y1="229.96" y2="229.96"/><line style="stroke:#181818;stroke-width:0.5;" x1="76" x2="309" y1="237.96" y2="237.96"/><text fill="#000000" font-family="sans-serif" font-size="14" lengthAdjust="spacing" textLength="103" x="81" y="255.4952">-Repositories()</text><text fill="#000000" font-family="sans-serif" font-size="14" lengthAdjust="spacing" textLength="197" x="81" y="271.9834">+getInstance() : Repositories</text><text fill="#000000" font-family="sans-serif" font-size="14" lengthAdjust="spacing" textLength="166" x="81" y="288.4717">+getAgencyRepository()</text><text fill="#000000" font-family="sans-serif" font-size="14" lengthAdjust="spacing" textLength="223" x="81" y="304.96">+getAgencyNetworkRepository()</text><text fill="#000000" font-family="sans-serif" font-size="14" lengthAdjust="spacing" textLength="182" x="81" y="321.4483">+getEmployeeRepository()</text><text fill="#000000" font-family="sans-serif" font-size="14" lengthAdjust="spacing" textLength="174" x="81" y="337.9366">+getPropertyRepository()</text><text fill="#000000" font-family="sans-serif" font-size="14" lengthAdjust="spacing" textLength="178" x="81" y="354.4248">+getRequestsRepository()</text><text fill="#000000" font-family="sans-serif" font-size="14" lengthAdjust="spacing" textLength="204" x="81" y="370.9131">+getTransactionsRepository()</text><text fill="#000000" font-family="sans-serif" font-size="14" lengthAdjust="spacing" textLength="146" x="81" y="387.4014">+getRoleRepository()</text><text fill="#000000" font-family="sans-serif" font-size="14" lengthAdjust="spacing" textLength="154" x="81" y="403.8897">+getUsersRepository()</text></g><!--class Person--><g id="elem_Person"><rect codeLine="29" fill="#F1F1F1" height="130.4414" id="Person" rx="2.5" ry="2.5" style="stroke:#181818;stroke-width:0.5;" width="119" x="822" y="537.3"/><ellipse cx="855" cy="553.3" fill="#ADD1B2" rx="11" ry="11" style="stroke:#181818;stroke-width:1.0;"/><path d="M857.9731,558.9431 Q857.3921,559.2419 856.7529,559.3913 Q856.1138,559.5407 855.4082,559.5407 Q852.9014,559.5407 851.5815,557.8889 Q850.2617,556.237 850.2617,553.1159 Q850.2617,549.9865 851.5815,548.3347 Q852.9014,546.6828 855.4082,546.6828 Q856.1138,546.6828 856.7612,546.8322 Q857.4087,546.9816 857.9731,547.2805 L857.9731,550.0031 Q857.3423,549.4221 856.7488,549.1523 Q856.1553,548.8825 855.5244,548.8825 Q854.1797,548.8825 853.4949,549.9492 Q852.8101,551.0158 852.8101,553.1159 Q852.8101,555.2077 853.4949,556.2744 Q854.1797,557.341 855.5244,557.341 Q856.1553,557.341 856.7488,557.0712 Q857.3423,556.8015 857.9731,556.2204 Z " fill="#000000"/><text fill="#000000" font-family="sans-serif" font-size="14" lengthAdjust="spacing" textLength="47" x="873" y="558.591">Person</text><line style="stroke:#181818;stroke-width:0.5;" x1="823" x2="940" y1="569.3" y2="569.3"/><text fill="#000000" font-family="sans-serif" font-size="14" lengthAdjust="spacing" textLength="46" x="828" y="586.8352">-name</text><text fill="#000000" font-family="sans-serif" font-size="14" lengthAdjust="spacing" textLength="45" x="828" y="603.3234">-email</text><text fill="#000000" font-family="sans-serif" font-size="14" lengthAdjust="spacing" textLength="74" x="828" y="619.8117">-password</text><text fill="#000000" font-family="sans-serif" font-size="14" lengthAdjust="spacing" textLength="42" x="828" y="636.3">-roles</text><text fill="#000000" font-family="sans-serif" font-size="14" lengthAdjust="spacing" textLength="107" x="828" y="652.7883">-phoneNumber</text><line style="stroke:#181818;stroke-width:0.5;" x1="823" x2="940" y1="659.7414" y2="659.7414"/></g><!--class Property--><g id="elem_Property"><rect codeLine="37" fill="#F1F1F1" height="229.3711" id="Property" rx="2.5" ry="2.5" style="stroke:#181818;stroke-width:0.5;" width="159" x="559" y="487.84"/><ellipse cx="605.25" cy="503.84" fill="#ADD1B2" rx="11" ry="11" style="stroke:#181818;stroke-width:1.0;"/><path d="M608.2231,509.4831 Q607.6421,509.7819 607.0029,509.9313 Q606.3638,510.0807 605.6582,510.0807 Q603.1514,510.0807 601.8315,508.4289 Q600.5117,506.777 600.5117,503.6559 Q600.5117,500.5265 601.8315,498.8747 Q603.1514,497.2228 605.6582,497.2228 Q606.3638,497.2228 607.0112,497.3722 Q607.6587,497.5216 608.2231,497.8205 L608.2231,500.5431 Q607.5923,499.9621 606.9988,499.6923 Q606.4053,499.4225 605.7744,499.4225 Q604.4297,499.4225 603.7449,500.4892 Q603.0601,501.5558 603.0601,503.6559 Q603.0601,505.7477 603.7449,506.8144 Q604.4297,507.881 605.7744,507.881 Q606.4053,507.881 606.9988,507.6112 Q607.5923,507.3415 608.2231,506.7604 Z " fill="#000000"/><text fill="#000000" font-family="sans-serif" font-size="14" lengthAdjust="spacing" textLength="58" x="625.75" y="509.131">Property</text><line style="stroke:#181818;stroke-width:0.5;" x1="560" x2="717" y1="519.84" y2="519.84"/><text fill="#000000" font-family="sans-serif" font-size="14" lengthAdjust="spacing" textLength="46" x="565" y="537.3752">-name</text><text fill="#000000" font-family="sans-serif" font-size="14" lengthAdjust="spacing" textLength="62" x="565" y="553.8634">-address</text><text fill="#000000" font-family="sans-serif" font-size="14" lengthAdjust="spacing" textLength="38" x="565" y="570.3517">-area</text><text fill="#000000" font-family="sans-serif" font-size="14" lengthAdjust="spacing" textLength="147" x="565" y="586.84">-distanceFromCenter</text><text fill="#000000" font-family="sans-serif" font-size="14" lengthAdjust="spacing" textLength="42" x="565" y="603.3283">-price</text><text fill="#000000" font-family="sans-serif" font-size="14" lengthAdjust="spacing" textLength="31" x="565" y="619.8166">-city</text><text fill="#000000" font-family="sans-serif" font-size="14" lengthAdjust="spacing" textLength="55" x="565" y="636.3048">-district</text><text fill="#000000" font-family="sans-serif" font-size="14" lengthAdjust="spacing" textLength="41" x="565" y="652.7931">-state</text><text fill="#000000" font-family="sans-serif" font-size="14" lengthAdjust="spacing" textLength="51" x="565" y="669.2814">-owner</text><text fill="#000000" font-family="sans-serif" font-size="14" lengthAdjust="spacing" textLength="101" x="565" y="685.7697">-businessType</text><text fill="#000000" font-family="sans-serif" font-size="14" lengthAdjust="spacing" textLength="56" x="565" y="702.258">-photos</text><line style="stroke:#181818;stroke-width:0.5;" x1="560" x2="717" y1="709.2111" y2="709.2111"/></g><!--class Transaction--><g id="elem_Transaction"><rect codeLine="51" fill="#F1F1F1" height="146.9297" id="Transaction" rx="2.5" ry="2.5" style="stroke:#181818;stroke-width:0.5;" width="113" x="825" y="230.93"/><ellipse cx="840" cy="246.93" fill="#ADD1B2" rx="11" ry="11" style="stroke:#181818;stroke-width:1.0;"/><path d="M842.9731,252.5731 Q842.3921,252.8719 841.7529,253.0213 Q841.1138,253.1707 840.4082,253.1707 Q837.9014,253.1707 836.5815,251.5189 Q835.2617,249.867 835.2617,246.7459 Q835.2617,243.6165 836.5815,241.9647 Q837.9014,240.3128 840.4082,240.3128 Q841.1138,240.3128 841.7612,240.4622 Q842.4087,240.6116 842.9731,240.9105 L842.9731,243.6331 Q842.3423,243.0521 841.7488,242.7823 Q841.1553,242.5125 840.5244,242.5125 Q839.1797,242.5125 838.4949,243.5792 Q837.8101,244.6458 837.8101,246.7459 Q837.8101,248.8377 838.4949,249.9044 Q839.1797,250.971 840.5244,250.971 Q841.1553,250.971 841.7488,250.7012 Q842.3423,250.4315 842.9731,249.8504 Z " fill="#000000"/><text fill="#000000" font-family="sans-serif" font-size="14" lengthAdjust="spacing" textLength="81" x="854" y="252.221">Transaction</text><line style="stroke:#181818;stroke-width:0.5;" x1="826" x2="937" y1="262.93" y2="262.93"/><text fill="#000000" font-family="sans-serif" font-size="14" lengthAdjust="spacing" textLength="51" x="831" y="280.4652">-owner</text><text fill="#000000" font-family="sans-serif" font-size="14" lengthAdjust="spacing" textLength="47" x="831" y="296.9534">-buyer</text><text fill="#000000" font-family="sans-serif" font-size="14" lengthAdjust="spacing" textLength="42" x="831" y="313.4417">-price</text><text fill="#000000" font-family="sans-serif" font-size="14" lengthAdjust="spacing" textLength="67" x="831" y="329.93">-property</text><text fill="#000000" font-family="sans-serif" font-size="14" lengthAdjust="spacing" textLength="73" x="831" y="346.4183">-approved</text><text fill="#000000" font-family="sans-serif" font-size="14" lengthAdjust="spacing" textLength="69" x="831" y="362.9066">-reviewed</text><line style="stroke:#181818;stroke-width:0.5;" x1="826" x2="937" y1="369.8597" y2="369.8597"/></g><!--class PropertyMapper--><g id="elem_PropertyMapper"><rect codeLine="60" fill="#F1F1F1" height="80.9766" id="PropertyMapper" rx="2.5" ry="2.5" style="stroke:#181818;stroke-width:0.5;" width="165" x="428" y="263.91"/><ellipse cx="453.35" cy="279.91" fill="#ADD1B2" rx="11" ry="11" style="stroke:#181818;stroke-width:1.0;"/><path d="M456.3231,285.5531 Q455.7421,285.8519 455.1029,286.0013 Q454.4638,286.1507 453.7582,286.1507 Q451.2514,286.1507 449.9315,284.4989 Q448.6117,282.847 448.6117,279.7259 Q448.6117,276.5965 449.9315,274.9447 Q451.2514,273.2928 453.7582,273.2928 Q454.4638,273.2928 455.1112,273.4422 Q455.7587,273.5916 456.3231,273.8905 L456.3231,276.6131 Q455.6923,276.0321 455.0988,275.7623 Q454.5053,275.4925 453.8744,275.4925 Q452.5297,275.4925 451.8449,276.5592 Q451.1601,277.6258 451.1601,279.7259 Q451.1601,281.8177 451.8449,282.8844 Q452.5297,283.951 453.8744,283.951 Q454.5053,283.951 455.0988,283.6812 Q455.6923,283.4115 456.3231,282.8304 Z " fill="#000000"/><text fill="#000000" font-family="sans-serif" font-size="14" lengthAdjust="spacing" textLength="110" x="469.65" y="285.201">PropertyMapper</text><line style="stroke:#181818;stroke-width:0.5;" x1="429" x2="592" y1="295.91" y2="295.91"/><line style="stroke:#181818;stroke-width:0.5;" x1="429" x2="592" y1="303.91" y2="303.91"/><text fill="#000000" font-family="sans-serif" font-size="14" lengthAdjust="spacing" textLength="118" x="434" y="321.4452">+toDto(property)</text><text fill="#000000" font-family="sans-serif" font-size="14" lengthAdjust="spacing" textLength="153" x="434" y="337.9334">+toDtoList(properties)</text></g><!--class ApplicationSession--><g id="elem_ApplicationSession"><rect codeLine="65" fill="#F1F1F1" height="80.9766" id="ApplicationSession" rx="2.5" ry="2.5" style="stroke:#181818;stroke-width:0.5;" width="162" x="628.5" y="263.91"/><ellipse cx="643.5" cy="279.91" fill="#ADD1B2" rx="11" ry="11" style="stroke:#181818;stroke-width:1.0;"/><path d="M646.4731,285.5531 Q645.8921,285.8519 645.2529,286.0013 Q644.6138,286.1507 643.9082,286.1507 Q641.4014,286.1507 640.0815,284.4989 Q638.7617,282.847 638.7617,279.7259 Q638.7617,276.5965 640.0815,274.9447 Q641.4014,273.2928 643.9082,273.2928 Q644.6138,273.2928 645.2612,273.4422 Q645.9087,273.5916 646.4731,273.8905 L646.4731,276.6131 Q645.8423,276.0321 645.2488,275.7623 Q644.6553,275.4925 644.0244,275.4925 Q642.6797,275.4925 641.9949,276.5592 Q641.3101,277.6258 641.3101,279.7259 Q641.3101,281.8177 641.9949,282.8844 Q642.6797,283.951 644.0244,283.951 Q644.6553,283.951 645.2488,283.6812 Q645.8423,283.4115 646.4731,282.8304 Z " fill="#000000"/><text fill="#000000" font-family="sans-serif" font-size="14" lengthAdjust="spacing" textLength="130" x="657.5" y="285.201">ApplicationSession</text><line style="stroke:#181818;stroke-width:0.5;" x1="629.5" x2="789.5" y1="295.91" y2="295.91"/><text fill="#000000" font-family="sans-serif" font-size="14" lengthAdjust="spacing" textLength="89" x="634.5" y="313.4452">-currentUser</text><line style="stroke:#181818;stroke-width:0.5;" x1="629.5" x2="789.5" y1="320.3983" y2="320.3983"/><text fill="#000000" font-family="sans-serif" font-size="14" lengthAdjust="spacing" textLength="127" x="634.5" y="337.9334">+getCurrentUser()</text></g><!--class DisplayPropertiesUI--><g id="elem_DisplayPropertiesUI"><rect codeLine="70" fill="#F1F1F1" height="113.9531" id="DisplayPropertiesUI" rx="2.5" ry="2.5" style="stroke:#181818;stroke-width:0.5;" width="190" x="113.5" y="7"/><ellipse cx="139.75" cy="23" fill="#ADD1B2" rx="11" ry="11" style="stroke:#181818;stroke-width:1.0;"/><path d="M142.7231,28.6431 Q142.1421,28.9419 141.5029,29.0913 Q140.8638,29.2407 140.1582,29.2407 Q137.6514,29.2407 136.3315,27.5889 Q135.0117,25.937 135.0117,22.8159 Q135.0117,19.6865 136.3315,18.0347 Q137.6514,16.3828 140.1582,16.3828 Q140.8638,16.3828 141.5112,16.5322 Q142.1587,16.6816 142.7231,16.9805 L142.7231,19.7031 Q142.0923,19.1221 141.4988,18.8523 Q140.9053,18.5825 140.2744,18.5825 Q138.9297,18.5825 138.2449,19.6492 Q137.5601,20.7158 137.5601,22.8159 Q137.5601,24.9077 138.2449,25.9744 Q138.9297,27.041 140.2744,27.041 Q140.9053,27.041 141.4988,26.7712 Q142.0923,26.5015 142.7231,25.9204 Z " fill="#000000"/><text fill="#000000" font-family="sans-serif" font-size="14" lengthAdjust="spacing" textLength="133" x="156.25" y="28.291">DisplayPropertiesUI</text><line style="stroke:#181818;stroke-width:0.5;" x1="114.5" x2="302.5" y1="39" y2="39"/><text fill="#000000" font-family="sans-serif" font-size="14" lengthAdjust="spacing" textLength="144" x="119.5" y="56.5352">-displayAllProperties</text><text fill="#000000" font-family="sans-serif" font-size="14" lengthAdjust="spacing" textLength="178" x="119.5" y="73.0234">-displayFilteredProperties</text><text fill="#000000" font-family="sans-serif" font-size="14" lengthAdjust="spacing" textLength="146" x="119.5" y="89.5117">-placePurchaseOrder</text><line style="stroke:#181818;stroke-width:0.5;" x1="114.5" x2="302.5" y1="96.4648" y2="96.4648"/><text fill="#000000" font-family="sans-serif" font-size="14" lengthAdjust="spacing" textLength="45" x="119.5" y="114">+run()</text></g><!--class TransactionController--><g id="elem_TransactionController"><rect codeLine="77" fill="#F1F1F1" height="113.9531" id="TransactionController" rx="2.5" ry="2.5" style="stroke:#181818;stroke-width:0.5;" width="344" x="338.5" y="7"/><ellipse cx="430.75" cy="23" fill="#ADD1B2" rx="11" ry="11" style="stroke:#181818;stroke-width:1.0;"/><path d="M433.7231,28.6431 Q433.1421,28.9419 432.5029,29.0913 Q431.8638,29.2407 431.1582,29.2407 Q428.6514,29.2407 427.3315,27.5889 Q426.0117,25.937 426.0117,22.8159 Q426.0117,19.6865 427.3315,18.0347 Q428.6514,16.3828 431.1582,16.3828 Q431.8638,16.3828 432.5112,16.5322 Q433.1587,16.6816 433.7231,16.9805 L433.7231,19.7031 Q433.0923,19.1221 432.4988,18.8523 Q431.9053,18.5825 431.2744,18.5825 Q429.9297,18.5825 429.2449,19.6492 Q428.5601,20.7158 428.5601,22.8159 Q428.5601,24.9077 429.2449,25.9744 Q429.9297,27.041 431.2744,27.041 Q431.9053,27.041 432.4988,26.7712 Q433.0923,26.5015 433.7231,25.9204 Z " fill="#000000"/><text fill="#000000" font-family="sans-serif" font-size="14" lengthAdjust="spacing" textLength="151" x="451.25" y="28.291">TransactionController</text><line style="stroke:#181818;stroke-width:0.5;" x1="339.5" x2="681.5" y1="39" y2="39"/><text fill="#000000" font-family="sans-serif" font-size="14" lengthAdjust="spacing" textLength="78" x="344.5" y="56.5352">-repository</text><line style="stroke:#181818;stroke-width:0.5;" x1="339.5" x2="681.5" y1="63.4883" y2="63.4883"/><text fill="#000000" font-family="sans-serif" font-size="14" lengthAdjust="spacing" textLength="322" x="344.5" y="81.0234">+create(owner_id, buyer_id, price, property_id)</text><text fill="#000000" font-family="sans-serif" font-size="14" lengthAdjust="spacing" textLength="332" x="344.5" y="97.5117">+hasTransactionWithAmount(property_id, price)</text><text fill="#000000" font-family="sans-serif" font-size="14" lengthAdjust="spacing" textLength="261" x="344.5" y="114">-hasPreviousRequest(property, buyer)</text></g><!--link Repositories to Repositories--><g id="link_Repositories_Repositories"><path codeLine="84" d="M310.47,278.97 C330.85,282.41 345,290.88 345,304.4 C345,316.65 333.38,324.76 316.03,328.72 " fill="none" id="Repositories-to-Repositories" style="stroke:#181818;stroke-width:1.0;"/><polygon fill="#181818" points="311.47,329.82,321.076,331.9934,316.3745,328.8477,319.5203,324.1462,311.47,329.82" style="stroke:#181818;stroke-width:1.0;"/><text fill="#000000" font-family="sans-serif" font-size="13" lengthAdjust="spacing" textLength="53" x="351" y="309.4684">instance</text></g><!--link DisplayPropertiesUI to TransactionController--><g id="link_DisplayPropertiesUI_TransactionController"><path codeLine="86" d="M303.75,63.98 C307.18,63.98 309.17,63.98 309.17,63.98 C309.17,63.98 318.8,63.98 332.1,63.98 " fill="none" id="DisplayPropertiesUI-to-TransactionController" style="stroke:#181818;stroke-width:1.0;stroke-dasharray:7.0,7.0;"/><polygon fill="#181818" points="337.01,63.98,328.01,59.98,332.01,63.98,328.01,67.98,337.01,63.98" style="stroke:#181818;stroke-width:1.0;"/></g><!--link TransactionController to Repositories--><g id="link_TransactionController_Repositories"><path codeLine="88" d="M435.54,121.18 C399.58,148.14 355.56,181.14 314.92,211.62 " fill="none" id="TransactionController-to-Repositories" style="stroke:#181818;stroke-width:1.0;stroke-dasharray:7.0,7.0;"/><polygon fill="#181818" points="311.49,214.94,321.09,212.74,315.49,211.94,316.29,206.34,311.49,214.94" style="stroke:#181818;stroke-width:1.0;"/><text fill="#000000" font-family="sans-serif" font-size="13" lengthAdjust="spacing" textLength="75" x="390.5" y="164.5284">repositories</text></g><!--link Repositories to TransactionRepository--><g id="link_Repositories_TransactionRepository"><path codeLine="89" d="M229.96,411.05 C248.94,464.56 270.77,526.14 284.36,564.45 " fill="none" id="Repositories-to-TransactionRepository" style="stroke:#181818;stroke-width:1.0;"/><polygon fill="#181818" points="286.3,568.93,287.0626,559.1107,284.6292,564.2174,279.5225,561.784,286.3,568.93" style="stroke:#181818;stroke-width:1.0;"/><text fill="#000000" font-family="sans-serif" font-size="13" lengthAdjust="spacing" textLength="8" x="275.3075" y="559.6354">1</text></g><!--link Repositories to PropertyRepository--><g id="link_Repositories_PropertyRepository"><path codeLine="90" d="M155.39,411.05 C136.6,464.56 114.97,526.14 101.52,564.45 " fill="none" id="Repositories-to-PropertyRepository" style="stroke:#181818;stroke-width:1.0;"/><polygon fill="#181818" points="99.59,568.93,106.3483,561.7658,101.2481,564.2129,98.801,559.1128,99.59,568.93" style="stroke:#181818;stroke-width:1.0;"/><text fill="#000000" font-family="sans-serif" font-size="13" lengthAdjust="spacing" textLength="8" x="92.9858" y="559.6354">1</text></g><!--link TransactionController to ApplicationSession--><g id="link_TransactionController_ApplicationSession"><path codeLine="92" d="M581.99,121.37 C602.53,137.57 619.5,150.96 619.5,150.96 C619.5,150.96 656.51,213.65 683.07,258.63 " fill="none" id="TransactionController-to-ApplicationSession" style="stroke:#181818;stroke-width:1.0;stroke-dasharray:7.0,7.0;"/><polygon fill="#181818" points="686.09,262.74,684.9519,252.9571,683.5449,258.4362,678.0658,257.0293,686.09,262.74" style="stroke:#181818;stroke-width:1.0;"/><text fill="#000000" font-family="sans-serif" font-size="13" lengthAdjust="spacing" textLength="118" x="630.5" y="164.5284">applicationSession</text></g><!--link TransactionController to PropertyMapper--><g id="link_TransactionController_PropertyMapper"><path codeLine="93" d="M510.5,121.18 C510.5,162.91 510.5,219.09 510.5,257.99 " fill="none" id="TransactionController-to-PropertyMapper" style="stroke:#181818;stroke-width:1.0;stroke-dasharray:7.0,7.0;"/><polygon fill="#181818" points="510.5,262.6,514.5,253.6,510.5,257.6,506.5,253.6,510.5,262.6" style="stroke:#181818;stroke-width:1.0;"/><text fill="#000000" font-family="sans-serif" font-size="13" lengthAdjust="spacing" textLength="99" x="511.5" y="164.5284">propertyMapper</text></g><!--link PropertyMapper to Property--><g id="link_PropertyMapper_Property"><path codeLine="94" d="M527.76,345.33 C542.94,380.44 565.82,433.39 586.86,482.05 " fill="none" id="PropertyMapper-to-Property" style="stroke:#181818;stroke-width:1.0;stroke-dasharray:7.0,7.0;"/><polygon fill="#181818" points="589.15,486.35,589.2443,476.5016,587.1632,481.7617,581.9031,479.6805,589.15,486.35" style="stroke:#181818;stroke-width:1.0;"/></g><!--link Transaction to Person--><g id="link_Transaction_Person"><path codeLine="96" d="M881.5,378.22 C881.5,424.86 881.5,485.07 881.5,531.21 " fill="none" id="Transaction-to-Person" style="stroke:#181818;stroke-width:1.0;"/><polygon fill="#181818" points="881.5,536.05,885.5,527.05,881.5,531.05,877.5,527.05,881.5,536.05" style="stroke:#181818;stroke-width:1.0;"/><text fill="#000000" font-family="sans-serif" font-size="13" lengthAdjust="spacing" textLength="22" x="882.5" y="454.4084">has</text></g><!--link Transaction to Property--><g id="link_Transaction_Property"><path codeLine="97" d="M831,378.34 C818.45,396.47 808.5,410.84 808.5,410.84 C808.5,410.84 765.1,459.52 722.16,507.69 " fill="none" id="Transaction-to-Property" style="stroke:#181818;stroke-width:1.0;"/><polygon fill="#181818" points="719.27,511.04,728.2399,506.9729,722.5927,507.3037,722.2619,501.6566,719.27,511.04" style="stroke:#181818;stroke-width:1.0;"/><text fill="#000000" font-family="sans-serif" font-size="13" lengthAdjust="spacing" textLength="22" x="780.5" y="454.4084">has</text></g><!--SRC=[VLHDRzim33tFlqBeAK6ROBlcK218Lo30rWL9Ynq7HMOJ8RBaING3RzX_7oKvjkoupSKst-FN8qDtahhabXUivEB43x33MW6p893hWuBCjGHtvBavItrWhrov555I0zObiDAesdza2IWKTsw9QEM-GbWBetVo3x3FMHOGjh6c18lr5ahZ91fRix_Pfnahers2-oOTPlyk_6VBjUC2fT535-oWWLFBf734PVIRzOoJQJ3UiWFWMZjgNi1aoXOzKaTP7a2BfEJKFM9FW6TZJ-EKhqMfJ0qmZbuhag9R-5s1GpUE9kgymzWQzKxU5mUsxzJgjo74wAYovWNu9nHSgZ0fOb2lkN-t5Dq5uz5eUAgAFTWaJDDPFn3FSmikU74Bt3zp6KVmQ4sn0eqK9Ao45C53IAmlDBAXVoS73A0vwqZVLuvsqRbdMisc93HkT9DYGObdFSZOR6F8oalwUeFOBxn9EDFxLO_VYGRM1xvbQ1xGJ2unfgt9B-caM_H4y6LPAYcuhsr7BSGImzgAobfIn0yhZeucj-fiwTGUf2iLhpTjWfTrhCTMcdXHGCzOAjMH4lkZL2Gzv7sG406RoeeZT_33vkc44qrNHYEjWueYUAakc-LB43HfX4cG_9VCxwBcuIs8VjTAJhQW66LBel-KU5mMfjAjW7Nd77eZ_iQFnrIk-S-qp2PRaAft6cRt_LEnOB8v1basfkRyVhpZB1iNOZw_Ic3J0zClXggv-N8pVl76gTUduwDAHfPiuRTxOFmWmc3P5-tGeY4RuAbBhx3GG7Da5dvor-3bT4JuFm00]--></g></svg>
