<?xml version="1.0" encoding="us-ascii" standalone="no"?><svg xmlns="http://www.w3.org/2000/svg" xmlns:xlink="http://www.w3.org/1999/xlink" contentStyleType="text/css" height="762px" preserveAspectRatio="none" style="width:1200px;height:762px;background:#FFFFFF;" version="1.1" viewBox="0 0 1200 762" width="1200px" zoomAndPan="magnify"><defs/><g><!--class DisplayEmployeesUI--><g id="elem_DisplayEmployeesUI"><rect codeLine="8" fill="#F1F1F1" height="48" id="DisplayEmployeesUI" rx="2.5" ry="2.5" style="stroke:#181818;stroke-width:0.5;" width="159" x="112" y="54"/><ellipse cx="127" cy="70" fill="#ADD1B2" rx="11" ry="11" style="stroke:#181818;stroke-width:1.0;"/><path d="M129.7656,65.875 Q129.9219,65.6563 130.1094,65.5469 Q130.2969,65.4375 130.5156,65.4375 Q130.8906,65.4375 131.125,65.7031 Q131.3594,65.9531 131.3594,66.5625 L131.3594,68.0156 Q131.3594,68.625 131.125,68.8906 Q130.8906,69.1563 130.5156,69.1563 Q130.1719,69.1563 129.9688,68.9531 Q129.7656,68.7656 129.6563,68.25 Q129.6094,67.8906 129.4219,67.7031 Q129.0938,67.3281 128.4844,67.1094 Q127.875,66.8906 127.25,66.8906 Q126.4844,66.8906 125.8438,67.2188 Q125.2188,67.5469 124.7188,68.2969 Q124.2344,69.0469 124.2344,70.0781 L124.2344,71.1719 Q124.2344,72.4063 125.125,73.2344 Q126.0156,74.0469 127.6094,74.0469 Q128.5469,74.0469 129.2031,73.7969 Q129.5938,73.6406 130.0156,73.2031 Q130.2813,72.9375 130.4219,72.8594 Q130.5781,72.7813 130.7813,72.7813 Q131.1094,72.7813 131.3594,73.0469 Q131.625,73.2969 131.625,73.6406 Q131.625,73.9844 131.2813,74.3906 Q130.7813,74.9688 129.9844,75.2969 Q128.9063,75.75 127.6094,75.75 Q126.0938,75.75 124.8906,75.125 Q123.9063,74.625 123.2188,73.5625 Q122.5313,72.4844 122.5313,71.2031 L122.5313,70.0469 Q122.5313,68.7188 123.1406,67.5781 Q123.7656,66.4219 124.8594,65.8125 Q125.9531,65.1875 127.1875,65.1875 Q127.9219,65.1875 128.5625,65.3594 Q129.2188,65.5156 129.7656,65.875 Z " fill="#000000"/><text fill="#000000" font-family="sans-serif" font-size="14" lengthAdjust="spacing" textLength="127" x="141" y="74.8535">DisplayEmployeesUI</text><line style="stroke:#181818;stroke-width:0.5;" x1="113" x2="270" y1="86" y2="86"/><line style="stroke:#181818;stroke-width:0.5;" x1="113" x2="270" y1="94" y2="94"/></g><!--class DisplayEmployeesController--><g id="elem_DisplayEmployeesController"><rect codeLine="10" fill="#F1F1F1" height="141.8438" id="DisplayEmployeesController" rx="2.5" ry="2.5" style="stroke:#181818;stroke-width:0.5;" width="267" x="306" y="7"/><ellipse cx="347.1" cy="23" fill="#ADD1B2" rx="11" ry="11" style="stroke:#181818;stroke-width:1.0;"/><path d="M349.8656,18.875 Q350.0219,18.6563 350.2094,18.5469 Q350.3969,18.4375 350.6156,18.4375 Q350.9906,18.4375 351.225,18.7031 Q351.4594,18.9531 351.4594,19.5625 L351.4594,21.0156 Q351.4594,21.625 351.225,21.8906 Q350.9906,22.1563 350.6156,22.1563 Q350.2719,22.1563 350.0688,21.9531 Q349.8656,21.7656 349.7563,21.25 Q349.7094,20.8906 349.5219,20.7031 Q349.1938,20.3281 348.5844,20.1094 Q347.975,19.8906 347.35,19.8906 Q346.5844,19.8906 345.9438,20.2188 Q345.3188,20.5469 344.8188,21.2969 Q344.3344,22.0469 344.3344,23.0781 L344.3344,24.1719 Q344.3344,25.4063 345.225,26.2344 Q346.1156,27.0469 347.7094,27.0469 Q348.6469,27.0469 349.3031,26.7969 Q349.6938,26.6406 350.1156,26.2031 Q350.3813,25.9375 350.5219,25.8594 Q350.6781,25.7813 350.8813,25.7813 Q351.2094,25.7813 351.4594,26.0469 Q351.725,26.2969 351.725,26.6406 Q351.725,26.9844 351.3813,27.3906 Q350.8813,27.9688 350.0844,28.2969 Q349.0063,28.75 347.7094,28.75 Q346.1938,28.75 344.9906,28.125 Q344.0063,27.625 343.3188,26.5625 Q342.6313,25.4844 342.6313,24.2031 L342.6313,23.0469 Q342.6313,21.7188 343.2406,20.5781 Q343.8656,19.4219 344.9594,18.8125 Q346.0531,18.1875 347.2875,18.1875 Q348.0219,18.1875 348.6625,18.3594 Q349.3188,18.5156 349.8656,18.875 Z " fill="#000000"/><text fill="#000000" font-family="sans-serif" font-size="14" lengthAdjust="spacing" textLength="177" x="366.9" y="27.8535">DisplayEmployeesController</text><line style="stroke:#181818;stroke-width:0.5;" x1="307" x2="572" y1="39" y2="39"/><line style="stroke:#181818;stroke-width:0.5;" x1="307" x2="572" y1="47" y2="47"/><text fill="#000000" font-family="sans-serif" font-size="14" lengthAdjust="spacing" textLength="153" x="312" y="63.6738">+getAgencyRepository()</text><text fill="#000000" font-family="sans-serif" font-size="14" lengthAdjust="spacing" textLength="168" x="312" y="79.3145">+getEmployeeRepository()</text><text fill="#000000" font-family="sans-serif" font-size="14" lengthAdjust="spacing" textLength="118" x="312" y="94.9551">+getAgenciesList()</text><text fill="#000000" font-family="sans-serif" font-size="14" lengthAdjust="spacing" textLength="129" x="312" y="110.5957">+getEmployeesList()</text><text fill="#000000" font-family="sans-serif" font-size="14" lengthAdjust="spacing" textLength="197" x="312" y="126.2363">+getEmployeesListDto(agency)</text><text fill="#000000" font-family="sans-serif" font-size="14" lengthAdjust="spacing" textLength="255" x="312" y="141.877">+addToNewAgenciesListDto(agencyDto)</text></g><!--class EmployeeRepository--><g id="elem_EmployeeRepository"><rect codeLine="19" fill="#F1F1F1" height="63.6406" id="EmployeeRepository" rx="2.5" ry="2.5" style="stroke:#181818;stroke-width:0.5;" width="162" x="616.5" y="225"/><ellipse cx="631.5" cy="241" fill="#ADD1B2" rx="11" ry="11" style="stroke:#181818;stroke-width:1.0;"/><path d="M634.2656,236.875 Q634.4219,236.6563 634.6094,236.5469 Q634.7969,236.4375 635.0156,236.4375 Q635.3906,236.4375 635.625,236.7031 Q635.8594,236.9531 635.8594,237.5625 L635.8594,239.0156 Q635.8594,239.625 635.625,239.8906 Q635.3906,240.1563 635.0156,240.1563 Q634.6719,240.1563 634.4688,239.9531 Q634.2656,239.7656 634.1563,239.25 Q634.1094,238.8906 633.9219,238.7031 Q633.5938,238.3281 632.9844,238.1094 Q632.375,237.8906 631.75,237.8906 Q630.9844,237.8906 630.3438,238.2188 Q629.7188,238.5469 629.2188,239.2969 Q628.7344,240.0469 628.7344,241.0781 L628.7344,242.1719 Q628.7344,243.4063 629.625,244.2344 Q630.5156,245.0469 632.1094,245.0469 Q633.0469,245.0469 633.7031,244.7969 Q634.0938,244.6406 634.5156,244.2031 Q634.7813,243.9375 634.9219,243.8594 Q635.0781,243.7813 635.2813,243.7813 Q635.6094,243.7813 635.8594,244.0469 Q636.125,244.2969 636.125,244.6406 Q636.125,244.9844 635.7813,245.3906 Q635.2813,245.9688 634.4844,246.2969 Q633.4063,246.75 632.1094,246.75 Q630.5938,246.75 629.3906,246.125 Q628.4063,245.625 627.7188,244.5625 Q627.0313,243.4844 627.0313,242.2031 L627.0313,241.0469 Q627.0313,239.7188 627.6406,238.5781 Q628.2656,237.4219 629.3594,236.8125 Q630.4531,236.1875 631.6875,236.1875 Q632.4219,236.1875 633.0625,236.3594 Q633.7188,236.5156 634.2656,236.875 Z " fill="#000000"/><text fill="#000000" font-family="sans-serif" font-size="14" lengthAdjust="spacing" textLength="130" x="645.5" y="245.8535">EmployeeRepository</text><line style="stroke:#181818;stroke-width:0.5;" x1="617.5" x2="777.5" y1="257" y2="257"/><text fill="#000000" font-family="sans-serif" font-size="14" lengthAdjust="spacing" textLength="95" x="622.5" y="273.6738">-employeesList</text><line style="stroke:#181818;stroke-width:0.5;" x1="617.5" x2="777.5" y1="280.6406" y2="280.6406"/></g><!--class AgencyRepository--><g id="elem_AgencyRepository"><rect codeLine="23" fill="#F1F1F1" height="63.6406" id="AgencyRepository" rx="2.5" ry="2.5" style="stroke:#181818;stroke-width:0.5;" width="147" x="814" y="225"/><ellipse cx="829" cy="241" fill="#ADD1B2" rx="11" ry="11" style="stroke:#181818;stroke-width:1.0;"/><path d="M831.7656,236.875 Q831.9219,236.6563 832.1094,236.5469 Q832.2969,236.4375 832.5156,236.4375 Q832.8906,236.4375 833.125,236.7031 Q833.3594,236.9531 833.3594,237.5625 L833.3594,239.0156 Q833.3594,239.625 833.125,239.8906 Q832.8906,240.1563 832.5156,240.1563 Q832.1719,240.1563 831.9688,239.9531 Q831.7656,239.7656 831.6563,239.25 Q831.6094,238.8906 831.4219,238.7031 Q831.0938,238.3281 830.4844,238.1094 Q829.875,237.8906 829.25,237.8906 Q828.4844,237.8906 827.8438,238.2188 Q827.2188,238.5469 826.7188,239.2969 Q826.2344,240.0469 826.2344,241.0781 L826.2344,242.1719 Q826.2344,243.4063 827.125,244.2344 Q828.0156,245.0469 829.6094,245.0469 Q830.5469,245.0469 831.2031,244.7969 Q831.5938,244.6406 832.0156,244.2031 Q832.2813,243.9375 832.4219,243.8594 Q832.5781,243.7813 832.7813,243.7813 Q833.1094,243.7813 833.3594,244.0469 Q833.625,244.2969 833.625,244.6406 Q833.625,244.9844 833.2813,245.3906 Q832.7813,245.9688 831.9844,246.2969 Q830.9063,246.75 829.6094,246.75 Q828.0938,246.75 826.8906,246.125 Q825.9063,245.625 825.2188,244.5625 Q824.5313,243.4844 824.5313,242.2031 L824.5313,241.0469 Q824.5313,239.7188 825.1406,238.5781 Q825.7656,237.4219 826.8594,236.8125 Q827.9531,236.1875 829.1875,236.1875 Q829.9219,236.1875 830.5625,236.3594 Q831.2188,236.5156 831.7656,236.875 Z " fill="#000000"/><text fill="#000000" font-family="sans-serif" font-size="14" lengthAdjust="spacing" textLength="115" x="843" y="245.8535">AgencyRepository</text><line style="stroke:#181818;stroke-width:0.5;" x1="815" x2="960" y1="257" y2="257"/><text fill="#000000" font-family="sans-serif" font-size="14" lengthAdjust="spacing" textLength="84" x="820" y="273.6738">-agenciesList</text><line style="stroke:#181818;stroke-width:0.5;" x1="815" x2="960" y1="280.6406" y2="280.6406"/></g><!--class AgencyNetworkRepository--><g id="elem_AgencyNetworkRepository"><rect codeLine="27" fill="#F1F1F1" height="48" id="AgencyNetworkRepository" rx="2.5" ry="2.5" style="stroke:#181818;stroke-width:0.5;" width="197" x="996" y="233"/><ellipse cx="1011" cy="249" fill="#ADD1B2" rx="11" ry="11" style="stroke:#181818;stroke-width:1.0;"/><path d="M1013.7656,244.875 Q1013.9219,244.6563 1014.1094,244.5469 Q1014.2969,244.4375 1014.5156,244.4375 Q1014.8906,244.4375 1015.125,244.7031 Q1015.3594,244.9531 1015.3594,245.5625 L1015.3594,247.0156 Q1015.3594,247.625 1015.125,247.8906 Q1014.8906,248.1563 1014.5156,248.1563 Q1014.1719,248.1563 1013.9688,247.9531 Q1013.7656,247.7656 1013.6563,247.25 Q1013.6094,246.8906 1013.4219,246.7031 Q1013.0938,246.3281 1012.4844,246.1094 Q1011.875,245.8906 1011.25,245.8906 Q1010.4844,245.8906 1009.8438,246.2188 Q1009.2188,246.5469 1008.7188,247.2969 Q1008.2344,248.0469 1008.2344,249.0781 L1008.2344,250.1719 Q1008.2344,251.4063 1009.125,252.2344 Q1010.0156,253.0469 1011.6094,253.0469 Q1012.5469,253.0469 1013.2031,252.7969 Q1013.5938,252.6406 1014.0156,252.2031 Q1014.2813,251.9375 1014.4219,251.8594 Q1014.5781,251.7813 1014.7813,251.7813 Q1015.1094,251.7813 1015.3594,252.0469 Q1015.625,252.2969 1015.625,252.6406 Q1015.625,252.9844 1015.2813,253.3906 Q1014.7813,253.9688 1013.9844,254.2969 Q1012.9063,254.75 1011.6094,254.75 Q1010.0938,254.75 1008.8906,254.125 Q1007.9063,253.625 1007.2188,252.5625 Q1006.5313,251.4844 1006.5313,250.2031 L1006.5313,249.0469 Q1006.5313,247.7188 1007.1406,246.5781 Q1007.7656,245.4219 1008.8594,244.8125 Q1009.9531,244.1875 1011.1875,244.1875 Q1011.9219,244.1875 1012.5625,244.3594 Q1013.2188,244.5156 1013.7656,244.875 Z " fill="#000000"/><text fill="#000000" font-family="sans-serif" font-size="14" lengthAdjust="spacing" textLength="165" x="1025" y="253.8535">AgencyNetworkRepository</text><line style="stroke:#181818;stroke-width:0.5;" x1="997" x2="1192" y1="265" y2="265"/><line style="stroke:#181818;stroke-width:0.5;" x1="997" x2="1192" y1="273" y2="273"/></g><!--class Employee--><g id="elem_Employee"><rect codeLine="29" fill="#F1F1F1" height="126.2031" id="Employee" rx="2.5" ry="2.5" style="stroke:#181818;stroke-width:0.5;" width="137" x="319" y="443.5"/><ellipse cx="353.35" cy="459.5" fill="#ADD1B2" rx="11" ry="11" style="stroke:#181818;stroke-width:1.0;"/><path d="M356.1156,455.375 Q356.2719,455.1563 356.4594,455.0469 Q356.6469,454.9375 356.8656,454.9375 Q357.2406,454.9375 357.475,455.2031 Q357.7094,455.4531 357.7094,456.0625 L357.7094,457.5156 Q357.7094,458.125 357.475,458.3906 Q357.2406,458.6563 356.8656,458.6563 Q356.5219,458.6563 356.3188,458.4531 Q356.1156,458.2656 356.0063,457.75 Q355.9594,457.3906 355.7719,457.2031 Q355.4438,456.8281 354.8344,456.6094 Q354.225,456.3906 353.6,456.3906 Q352.8344,456.3906 352.1938,456.7188 Q351.5688,457.0469 351.0688,457.7969 Q350.5844,458.5469 350.5844,459.5781 L350.5844,460.6719 Q350.5844,461.9063 351.475,462.7344 Q352.3656,463.5469 353.9594,463.5469 Q354.8969,463.5469 355.5531,463.2969 Q355.9438,463.1406 356.3656,462.7031 Q356.6313,462.4375 356.7719,462.3594 Q356.9281,462.2813 357.1313,462.2813 Q357.4594,462.2813 357.7094,462.5469 Q357.975,462.7969 357.975,463.1406 Q357.975,463.4844 357.6313,463.8906 Q357.1313,464.4688 356.3344,464.7969 Q355.2563,465.25 353.9594,465.25 Q352.4438,465.25 351.2406,464.625 Q350.2563,464.125 349.5688,463.0625 Q348.8813,461.9844 348.8813,460.7031 L348.8813,459.5469 Q348.8813,458.2188 349.4906,457.0781 Q350.1156,455.9219 351.2094,455.3125 Q352.3031,454.6875 353.5375,454.6875 Q354.2719,454.6875 354.9125,454.8594 Q355.5688,455.0156 356.1156,455.375 Z " fill="#000000"/><text fill="#000000" font-family="sans-serif" font-size="14" lengthAdjust="spacing" textLength="62" x="371.65" y="464.3535">Employee</text><line style="stroke:#181818;stroke-width:0.5;" x1="320" x2="455" y1="475.5" y2="475.5"/><text fill="#000000" font-family="sans-serif" font-size="14" lengthAdjust="spacing" textLength="79" x="325" y="492.1738">-int passport</text><text fill="#000000" font-family="sans-serif" font-size="14" lengthAdjust="spacing" textLength="43" x="325" y="507.8145">-int vat</text><text fill="#000000" font-family="sans-serif" font-size="14" lengthAdjust="spacing" textLength="97" x="325" y="523.4551">-String address</text><text fill="#000000" font-family="sans-serif" font-size="14" lengthAdjust="spacing" textLength="125" x="325" y="539.0957">-long phoneNumber</text><text fill="#000000" font-family="sans-serif" font-size="14" lengthAdjust="spacing" textLength="102" x="325" y="554.7363">-Agency agency</text><line style="stroke:#181818;stroke-width:0.5;" x1="320" x2="455" y1="561.7031" y2="561.7031"/></g><!--class Agency--><g id="elem_Agency"><rect codeLine="38" fill="#F1F1F1" height="157.4844" id="Agency" rx="2.5" ry="2.5" style="stroke:#181818;stroke-width:0.5;" width="223" x="30" y="428"/><ellipse cx="113.75" cy="444" fill="#ADD1B2" rx="11" ry="11" style="stroke:#181818;stroke-width:1.0;"/><path d="M116.5156,439.875 Q116.6719,439.6563 116.8594,439.5469 Q117.0469,439.4375 117.2656,439.4375 Q117.6406,439.4375 117.875,439.7031 Q118.1094,439.9531 118.1094,440.5625 L118.1094,442.0156 Q118.1094,442.625 117.875,442.8906 Q117.6406,443.1563 117.2656,443.1563 Q116.9219,443.1563 116.7188,442.9531 Q116.5156,442.7656 116.4063,442.25 Q116.3594,441.8906 116.1719,441.7031 Q115.8438,441.3281 115.2344,441.1094 Q114.625,440.8906 114,440.8906 Q113.2344,440.8906 112.5938,441.2188 Q111.9688,441.5469 111.4688,442.2969 Q110.9844,443.0469 110.9844,444.0781 L110.9844,445.1719 Q110.9844,446.4063 111.875,447.2344 Q112.7656,448.0469 114.3594,448.0469 Q115.2969,448.0469 115.9531,447.7969 Q116.3438,447.6406 116.7656,447.2031 Q117.0313,446.9375 117.1719,446.8594 Q117.3281,446.7813 117.5313,446.7813 Q117.8594,446.7813 118.1094,447.0469 Q118.375,447.2969 118.375,447.6406 Q118.375,447.9844 118.0313,448.3906 Q117.5313,448.9688 116.7344,449.2969 Q115.6563,449.75 114.3594,449.75 Q112.8438,449.75 111.6406,449.125 Q110.6563,448.625 109.9688,447.5625 Q109.2813,446.4844 109.2813,445.2031 L109.2813,444.0469 Q109.2813,442.7188 109.8906,441.5781 Q110.5156,440.4219 111.6094,439.8125 Q112.7031,439.1875 113.9375,439.1875 Q114.6719,439.1875 115.3125,439.3594 Q115.9688,439.5156 116.5156,439.875 Z " fill="#000000"/><text fill="#000000" font-family="sans-serif" font-size="14" lengthAdjust="spacing" textLength="47" x="134.25" y="448.8535">Agency</text><line style="stroke:#181818;stroke-width:0.5;" x1="31" x2="252" y1="460" y2="460"/><text fill="#000000" font-family="sans-serif" font-size="14" lengthAdjust="spacing" textLength="81" x="36" y="476.6738">-String name</text><text fill="#000000" font-family="sans-serif" font-size="14" lengthAdjust="spacing" textLength="43" x="36" y="492.3145">-int vat</text><text fill="#000000" font-family="sans-serif" font-size="14" lengthAdjust="spacing" textLength="95" x="36" y="507.9551">-String location</text><text fill="#000000" font-family="sans-serif" font-size="14" lengthAdjust="spacing" textLength="79" x="36" y="523.5957">-String email</text><text fill="#000000" font-family="sans-serif" font-size="14" lengthAdjust="spacing" textLength="125" x="36" y="539.2363">-long phoneNumber</text><text fill="#000000" font-family="sans-serif" font-size="14" lengthAdjust="spacing" textLength="211" x="36" y="554.877">-ArrayList&lt;Employee&gt; employees</text><text fill="#000000" font-family="sans-serif" font-size="14" lengthAdjust="spacing" textLength="127" x="36" y="570.5176">-Employee manager</text><line style="stroke:#181818;stroke-width:0.5;" x1="31" x2="252" y1="577.4844" y2="577.4844"/></g><!--class Network Manager--><g id="elem_Network Manager"><rect codeLine="48" fill="#F1F1F1" height="94.9219" id="Network Manager" rx="2.5" ry="2.5" style="stroke:#181818;stroke-width:0.5;" width="142" x="403.5" y="661"/><ellipse cx="418.5" cy="677" fill="#ADD1B2" rx="11" ry="11" style="stroke:#181818;stroke-width:1.0;"/><path d="M421.2656,672.875 Q421.4219,672.6563 421.6094,672.5469 Q421.7969,672.4375 422.0156,672.4375 Q422.3906,672.4375 422.625,672.7031 Q422.8594,672.9531 422.8594,673.5625 L422.8594,675.0156 Q422.8594,675.625 422.625,675.8906 Q422.3906,676.1563 422.0156,676.1563 Q421.6719,676.1563 421.4688,675.9531 Q421.2656,675.7656 421.1563,675.25 Q421.1094,674.8906 420.9219,674.7031 Q420.5938,674.3281 419.9844,674.1094 Q419.375,673.8906 418.75,673.8906 Q417.9844,673.8906 417.3438,674.2188 Q416.7188,674.5469 416.2188,675.2969 Q415.7344,676.0469 415.7344,677.0781 L415.7344,678.1719 Q415.7344,679.4063 416.625,680.2344 Q417.5156,681.0469 419.1094,681.0469 Q420.0469,681.0469 420.7031,680.7969 Q421.0938,680.6406 421.5156,680.2031 Q421.7813,679.9375 421.9219,679.8594 Q422.0781,679.7813 422.2813,679.7813 Q422.6094,679.7813 422.8594,680.0469 Q423.125,680.2969 423.125,680.6406 Q423.125,680.9844 422.7813,681.3906 Q422.2813,681.9688 421.4844,682.2969 Q420.4063,682.75 419.1094,682.75 Q417.5938,682.75 416.3906,682.125 Q415.4063,681.625 414.7188,680.5625 Q414.0313,679.4844 414.0313,678.2031 L414.0313,677.0469 Q414.0313,675.7188 414.6406,674.5781 Q415.2656,673.4219 416.3594,672.8125 Q417.4531,672.1875 418.6875,672.1875 Q419.4219,672.1875 420.0625,672.3594 Q420.7188,672.5156 421.2656,672.875 Z " fill="#000000"/><text fill="#000000" font-family="sans-serif" font-size="14" lengthAdjust="spacing" textLength="110" x="432.5" y="681.8535">Network Manager</text><line style="stroke:#181818;stroke-width:0.5;" x1="404.5" x2="544.5" y1="693" y2="693"/><text fill="#000000" font-family="sans-serif" font-size="14" lengthAdjust="spacing" textLength="125" x="409.5" y="709.6738">-long phoneNumber</text><text fill="#000000" font-family="sans-serif" font-size="14" lengthAdjust="spacing" textLength="79" x="409.5" y="725.3145">-String email</text><text fill="#000000" font-family="sans-serif" font-size="14" lengthAdjust="spacing" textLength="106" x="409.5" y="740.9551">-String password</text><line style="stroke:#181818;stroke-width:0.5;" x1="404.5" x2="544.5" y1="747.9219" y2="747.9219"/></g><!--class Repositories--><g id="elem_Repositories"><rect codeLine="54" fill="#F1F1F1" height="110.5625" id="Repositories" rx="2.5" ry="2.5" style="stroke:#181818;stroke-width:0.5;" width="194" x="752.5" y="22.5"/><ellipse cx="805.75" cy="38.5" fill="#ADD1B2" rx="11" ry="11" style="stroke:#181818;stroke-width:1.0;"/><path d="M808.5156,34.375 Q808.6719,34.1563 808.8594,34.0469 Q809.0469,33.9375 809.2656,33.9375 Q809.6406,33.9375 809.875,34.2031 Q810.1094,34.4531 810.1094,35.0625 L810.1094,36.5156 Q810.1094,37.125 809.875,37.3906 Q809.6406,37.6563 809.2656,37.6563 Q808.9219,37.6563 808.7188,37.4531 Q808.5156,37.2656 808.4063,36.75 Q808.3594,36.3906 808.1719,36.2031 Q807.8438,35.8281 807.2344,35.6094 Q806.625,35.3906 806,35.3906 Q805.2344,35.3906 804.5938,35.7188 Q803.9688,36.0469 803.4688,36.7969 Q802.9844,37.5469 802.9844,38.5781 L802.9844,39.6719 Q802.9844,40.9063 803.875,41.7344 Q804.7656,42.5469 806.3594,42.5469 Q807.2969,42.5469 807.9531,42.2969 Q808.3438,42.1406 808.7656,41.7031 Q809.0313,41.4375 809.1719,41.3594 Q809.3281,41.2813 809.5313,41.2813 Q809.8594,41.2813 810.1094,41.5469 Q810.375,41.7969 810.375,42.1406 Q810.375,42.4844 810.0313,42.8906 Q809.5313,43.4688 808.7344,43.7969 Q807.6563,44.25 806.3594,44.25 Q804.8438,44.25 803.6406,43.625 Q802.6563,43.125 801.9688,42.0625 Q801.2813,40.9844 801.2813,39.7031 L801.2813,38.5469 Q801.2813,37.2188 801.8906,36.0781 Q802.5156,34.9219 803.6094,34.3125 Q804.7031,33.6875 805.9375,33.6875 Q806.6719,33.6875 807.3125,33.8594 Q807.9688,34.0156 808.5156,34.375 Z " fill="#000000"/><text fill="#000000" font-family="sans-serif" font-size="14" lengthAdjust="spacing" textLength="79" x="826.25" y="43.3535">Repositories</text><line style="stroke:#181818;stroke-width:0.5;" x1="753.5" x2="945.5" y1="54.5" y2="54.5"/><line style="stroke:#181818;stroke-width:0.5;" x1="753.5" x2="945.5" y1="62.5" y2="62.5"/><text fill="#000000" font-family="sans-serif" font-size="14" lengthAdjust="spacing" textLength="94" x="758.5" y="79.1738">-Repositories()</text><text fill="#000000" font-family="sans-serif" font-size="14" lengthAdjust="spacing" textLength="182" x="758.5" y="94.8145">+getInstance() : Repositories</text><text fill="#000000" font-family="sans-serif" font-size="14" lengthAdjust="spacing" textLength="153" x="758.5" y="110.4551">+getAgencyRepository()</text><text fill="#000000" font-family="sans-serif" font-size="14" lengthAdjust="spacing" textLength="168" x="758.5" y="126.0957">+getEmployeeRepository()</text></g><!--class AgenciesMapper--><g id="elem_AgenciesMapper"><rect codeLine="61" fill="#F1F1F1" height="63.6406" id="AgenciesMapper" rx="2.5" ry="2.5" style="stroke:#181818;stroke-width:0.5;" width="223" x="7" y="225"/><ellipse cx="61.25" cy="241" fill="#ADD1B2" rx="11" ry="11" style="stroke:#181818;stroke-width:1.0;"/><path d="M64.0156,236.875 Q64.1719,236.6563 64.3594,236.5469 Q64.5469,236.4375 64.7656,236.4375 Q65.1406,236.4375 65.375,236.7031 Q65.6094,236.9531 65.6094,237.5625 L65.6094,239.0156 Q65.6094,239.625 65.375,239.8906 Q65.1406,240.1563 64.7656,240.1563 Q64.4219,240.1563 64.2188,239.9531 Q64.0156,239.7656 63.9063,239.25 Q63.8594,238.8906 63.6719,238.7031 Q63.3438,238.3281 62.7344,238.1094 Q62.125,237.8906 61.5,237.8906 Q60.7344,237.8906 60.0938,238.2188 Q59.4688,238.5469 58.9688,239.2969 Q58.4844,240.0469 58.4844,241.0781 L58.4844,242.1719 Q58.4844,243.4063 59.375,244.2344 Q60.2656,245.0469 61.8594,245.0469 Q62.7969,245.0469 63.4531,244.7969 Q63.8438,244.6406 64.2656,244.2031 Q64.5313,243.9375 64.6719,243.8594 Q64.8281,243.7813 65.0313,243.7813 Q65.3594,243.7813 65.6094,244.0469 Q65.875,244.2969 65.875,244.6406 Q65.875,244.9844 65.5313,245.3906 Q65.0313,245.9688 64.2344,246.2969 Q63.1563,246.75 61.8594,246.75 Q60.3438,246.75 59.1406,246.125 Q58.1563,245.625 57.4688,244.5625 Q56.7813,243.4844 56.7813,242.2031 L56.7813,241.0469 Q56.7813,239.7188 57.3906,238.5781 Q58.0156,237.4219 59.1094,236.8125 Q60.2031,236.1875 61.4375,236.1875 Q62.1719,236.1875 62.8125,236.3594 Q63.4688,236.5156 64.0156,236.875 Z " fill="#000000"/><text fill="#000000" font-family="sans-serif" font-size="14" lengthAdjust="spacing" textLength="106" x="81.75" y="245.8535">AgenciesMapper</text><line style="stroke:#181818;stroke-width:0.5;" x1="8" x2="229" y1="257" y2="257"/><line style="stroke:#181818;stroke-width:0.5;" x1="8" x2="229" y1="265" y2="265"/><text fill="#000000" font-family="sans-serif" font-size="14" lengthAdjust="spacing" textLength="211" x="13" y="281.6738">+toAgenciesListDto(agenciesList)</text></g><!--class EmployeesMapper--><g id="elem_EmployeesMapper"><rect codeLine="65" fill="#F1F1F1" height="63.6406" id="EmployeesMapper" rx="2.5" ry="2.5" style="stroke:#181818;stroke-width:0.5;" width="245" x="265" y="225"/><ellipse cx="324.75" cy="241" fill="#ADD1B2" rx="11" ry="11" style="stroke:#181818;stroke-width:1.0;"/><path d="M327.5156,236.875 Q327.6719,236.6563 327.8594,236.5469 Q328.0469,236.4375 328.2656,236.4375 Q328.6406,236.4375 328.875,236.7031 Q329.1094,236.9531 329.1094,237.5625 L329.1094,239.0156 Q329.1094,239.625 328.875,239.8906 Q328.6406,240.1563 328.2656,240.1563 Q327.9219,240.1563 327.7188,239.9531 Q327.5156,239.7656 327.4063,239.25 Q327.3594,238.8906 327.1719,238.7031 Q326.8438,238.3281 326.2344,238.1094 Q325.625,237.8906 325,237.8906 Q324.2344,237.8906 323.5938,238.2188 Q322.9688,238.5469 322.4688,239.2969 Q321.9844,240.0469 321.9844,241.0781 L321.9844,242.1719 Q321.9844,243.4063 322.875,244.2344 Q323.7656,245.0469 325.3594,245.0469 Q326.2969,245.0469 326.9531,244.7969 Q327.3438,244.6406 327.7656,244.2031 Q328.0313,243.9375 328.1719,243.8594 Q328.3281,243.7813 328.5313,243.7813 Q328.8594,243.7813 329.1094,244.0469 Q329.375,244.2969 329.375,244.6406 Q329.375,244.9844 329.0313,245.3906 Q328.5313,245.9688 327.7344,246.2969 Q326.6563,246.75 325.3594,246.75 Q323.8438,246.75 322.6406,246.125 Q321.6563,245.625 320.9688,244.5625 Q320.2813,243.4844 320.2813,242.2031 L320.2813,241.0469 Q320.2813,239.7188 320.8906,238.5781 Q321.5156,237.4219 322.6094,236.8125 Q323.7031,236.1875 324.9375,236.1875 Q325.6719,236.1875 326.3125,236.3594 Q326.9688,236.5156 327.5156,236.875 Z " fill="#000000"/><text fill="#000000" font-family="sans-serif" font-size="14" lengthAdjust="spacing" textLength="117" x="345.25" y="245.8535">EmployeesMapper</text><line style="stroke:#181818;stroke-width:0.5;" x1="266" x2="509" y1="257" y2="257"/><line style="stroke:#181818;stroke-width:0.5;" x1="266" x2="509" y1="265" y2="265"/><text fill="#000000" font-family="sans-serif" font-size="14" lengthAdjust="spacing" textLength="233" x="271" y="281.6738">+toEmployeesListDto(employeesList)</text></g><!--class ApplicationSession--><g id="elem_ApplicationSession"><rect codeLine="69" fill="#F1F1F1" height="79.2813" id="ApplicationSession" rx="2.5" ry="2.5" style="stroke:#181818;stroke-width:0.5;" width="151" x="478" y="319"/><ellipse cx="493" cy="335" fill="#ADD1B2" rx="11" ry="11" style="stroke:#181818;stroke-width:1.0;"/><path d="M495.7656,330.875 Q495.9219,330.6563 496.1094,330.5469 Q496.2969,330.4375 496.5156,330.4375 Q496.8906,330.4375 497.125,330.7031 Q497.3594,330.9531 497.3594,331.5625 L497.3594,333.0156 Q497.3594,333.625 497.125,333.8906 Q496.8906,334.1563 496.5156,334.1563 Q496.1719,334.1563 495.9688,333.9531 Q495.7656,333.7656 495.6563,333.25 Q495.6094,332.8906 495.4219,332.7031 Q495.0938,332.3281 494.4844,332.1094 Q493.875,331.8906 493.25,331.8906 Q492.4844,331.8906 491.8438,332.2188 Q491.2188,332.5469 490.7188,333.2969 Q490.2344,334.0469 490.2344,335.0781 L490.2344,336.1719 Q490.2344,337.4063 491.125,338.2344 Q492.0156,339.0469 493.6094,339.0469 Q494.5469,339.0469 495.2031,338.7969 Q495.5938,338.6406 496.0156,338.2031 Q496.2813,337.9375 496.4219,337.8594 Q496.5781,337.7813 496.7813,337.7813 Q497.1094,337.7813 497.3594,338.0469 Q497.625,338.2969 497.625,338.6406 Q497.625,338.9844 497.2813,339.3906 Q496.7813,339.9688 495.9844,340.2969 Q494.9063,340.75 493.6094,340.75 Q492.0938,340.75 490.8906,340.125 Q489.9063,339.625 489.2188,338.5625 Q488.5313,337.4844 488.5313,336.2031 L488.5313,335.0469 Q488.5313,333.7188 489.1406,332.5781 Q489.7656,331.4219 490.8594,330.8125 Q491.9531,330.1875 493.1875,330.1875 Q493.9219,330.1875 494.5625,330.3594 Q495.2188,330.5156 495.7656,330.875 Z " fill="#000000"/><text fill="#000000" font-family="sans-serif" font-size="14" lengthAdjust="spacing" textLength="119" x="507" y="339.8535">ApplicationSession</text><line style="stroke:#181818;stroke-width:0.5;" x1="479" x2="628" y1="351" y2="351"/><text fill="#000000" font-family="sans-serif" font-size="14" lengthAdjust="spacing" textLength="79" x="484" y="367.6738">-currentUser</text><line style="stroke:#181818;stroke-width:0.5;" x1="479" x2="628" y1="374.6406" y2="374.6406"/><text fill="#000000" font-family="sans-serif" font-size="14" lengthAdjust="spacing" textLength="115" x="484" y="391.3145">+getCurrentUser()</text></g><!--link Repositories to Repositories--><g id="link_Repositories_Repositories"><path codeLine="74" d="M946.78,58.46 C966.98,60.52 981.5,67.03 981.5,78 C981.5,88.03 969.37,94.33 951.86,96.91 " fill="none" id="Repositories-to-Repositories" style="stroke:#181818;stroke-width:1.0;"/><polygon fill="#181818" points="946.78,97.54,956.2036,100.4028,951.742,96.9251,955.2198,92.4636,946.78,97.54" style="stroke:#181818;stroke-width:1.0;"/><text fill="#000000" font-family="sans-serif" font-size="13" lengthAdjust="spacing" textLength="49" x="987.5" y="82.7686">instance</text></g><!--link DisplayEmployeesUI to DisplayEmployeesController--><g id="link_DisplayEmployeesUI_DisplayEmployeesController"><path codeLine="76" d="M271.03,78 C273.03,78 274.17,78 274.17,78 C274.17,78 286.04,78 300.79,78 " fill="none" id="DisplayEmployeesUI-to-DisplayEmployeesController" style="stroke:#181818;stroke-width:1.0;stroke-dasharray:7.0,7.0;"/><polygon fill="#181818" points="305.89,78,296.89,74,300.89,78,296.89,82,305.89,78" style="stroke:#181818;stroke-width:1.0;"/></g><!--link DisplayEmployeesController to Repositories--><g id="link_DisplayEmployeesController_Repositories"><path codeLine="78" d="M573.18,78 C629.78,78 694.66,78 747.32,78 " fill="none" id="DisplayEmployeesController-to-Repositories" style="stroke:#181818;stroke-width:1.0;stroke-dasharray:7.0,7.0;"/><polygon fill="#181818" points="752.38,78,743.38,74,747.38,78,743.38,82,752.38,78" style="stroke:#181818;stroke-width:1.0;"/><text fill="#000000" font-family="sans-serif" font-size="13" lengthAdjust="spacing" textLength="67" x="629.25" y="71.7686">repositories</text></g><!--link DisplayEmployeesController to EmployeesMapper--><g id="link_DisplayEmployeesController_EmployeesMapper"><path codeLine="80" d="M418.87,149.21 C411.76,173.41 404.09,199.52 398.12,219.87 " fill="none" id="DisplayEmployeesController-to-EmployeesMapper" style="stroke:#181818;stroke-width:1.0;stroke-dasharray:7.0,7.0;"/><polygon fill="#181818" points="396.63,224.91,403.0106,217.4075,398.0431,220.1139,395.3368,215.1464,396.63,224.91" style="stroke:#181818;stroke-width:1.0;"/><text fill="#000000" font-family="sans-serif" font-size="13" lengthAdjust="spacing" textLength="106" x="409.5" y="191.7686">employeesMapper</text></g><!--link DisplayEmployeesController to AgenciesMapper--><g id="link_DisplayEmployeesController_AgenciesMapper"><path codeLine="82" d="M312.17,149.21 C266.42,174.44 216.91,201.74 179.4,222.42 " fill="none" id="DisplayEmployeesController-to-AgenciesMapper" style="stroke:#181818;stroke-width:1.0;stroke-dasharray:7.0,7.0;"/><polygon fill="#181818" points="174.88,224.91,184.6933,224.0739,179.2602,222.4988,180.8353,217.0656,174.88,224.91" style="stroke:#181818;stroke-width:1.0;"/><text fill="#000000" font-family="sans-serif" font-size="13" lengthAdjust="spacing" textLength="95" x="251.5" y="191.7686">agenciesMapper</text></g><!--link DisplayEmployeesController to ApplicationSession--><g id="link_DisplayEmployeesController_ApplicationSession"><path codeLine="84" d="M499.23,149.27 C513.4,165.94 524.5,179 524.5,179 C524.5,179 537.81,260.9 546.39,313.75 " fill="none" id="DisplayEmployeesController-to-ApplicationSession" style="stroke:#181818;stroke-width:1.0;stroke-dasharray:7.0,7.0;"/><polygon fill="#181818" points="547.21,318.77,549.7163,309.2454,546.4089,313.8346,541.8197,310.5272,547.21,318.77" style="stroke:#181818;stroke-width:1.0;"/><text fill="#000000" font-family="sans-serif" font-size="13" lengthAdjust="spacing" textLength="109" x="527.5" y="191.7686">applicationSession</text></g><!--link AgenciesMapper to Agency--><g id="link_AgenciesMapper_Agency"><path codeLine="86" d="M121.39,289.1 C124.49,322.48 129.55,376.91 133.82,422.83 " fill="none" id="AgenciesMapper-to-Agency" style="stroke:#181818;stroke-width:1.0;stroke-dasharray:7.0,7.0;"/><polygon fill="#181818" points="134.28,427.82,137.4391,418.4915,133.8222,422.841,129.4727,419.2241,134.28,427.82" style="stroke:#181818;stroke-width:1.0;"/></g><!--link EmployeesMapper to Employee--><g id="link_EmployeesMapper_Employee"><path codeLine="88" d="M387.5,289.1 C387.5,326.3 387.5,389.65 387.5,438.22 " fill="none" id="EmployeesMapper-to-Employee" style="stroke:#181818;stroke-width:1.0;stroke-dasharray:7.0,7.0;"/><polygon fill="#181818" points="387.5,443.47,391.5,434.47,387.5,438.47,383.5,434.47,387.5,443.47" style="stroke:#181818;stroke-width:1.0;"/></g><!--link Repositories to EmployeeRepository--><g id="link_Repositories_EmployeeRepository"><path codeLine="90" d="M802.65,133.55 C778.23,161.99 749.07,195.95 727.66,220.88 " fill="none" id="Repositories-to-EmployeeRepository" style="stroke:#181818;stroke-width:1.0;"/><polygon fill="#181818" points="724.29,224.81,733.192,220.5964,727.551,221.0198,727.1277,215.3788,724.29,224.81" style="stroke:#181818;stroke-width:1.0;"/><text fill="#000000" font-family="sans-serif" font-size="13" lengthAdjust="spacing" textLength="7" x="722.3847" y="214.1023">1</text></g><!--link Repositories to AgencyRepository--><g id="link_Repositories_AgencyRepository"><path codeLine="92" d="M861.21,133.55 C867.22,161.53 874.37,194.83 879.7,219.65 " fill="none" id="Repositories-to-AgencyRepository" style="stroke:#181818;stroke-width:1.0;"/><polygon fill="#181818" points="880.8,224.81,882.8331,215.1733,879.7563,219.9202,875.0094,216.8433,880.8,224.81" style="stroke:#181818;stroke-width:1.0;"/><text fill="#000000" font-family="sans-serif" font-size="13" lengthAdjust="spacing" textLength="7" x="871.5687" y="214.1023">1</text></g><!--link Repositories to AgencyNetworkRepository--><g id="link_Repositories_AgencyNetworkRepository"><path codeLine="94" d="M925.01,133.55 C969.32,165.57 1023.31,204.57 1058.26,229.82 " fill="none" id="Repositories-to-AgencyNetworkRepository" style="stroke:#181818;stroke-width:1.0;"/><polygon fill="#181818" points="1062.43,232.83,1057.4879,224.3109,1058.3808,229.8968,1052.7948,230.7896,1062.43,232.83" style="stroke:#181818;stroke-width:1.0;"/><text fill="#000000" font-family="sans-serif" font-size="13" lengthAdjust="spacing" textLength="7" x="1045.8706" y="222.292">1</text></g><!--link Agency to Employee--><g id="link_Agency_Employee"><path codeLine="96" d="M253.34,506.5 C273.76,506.5 294.59,506.5 313.56,506.5 " fill="none" id="Agency-to-Employee" style="stroke:#181818;stroke-width:1.0;"/><polygon fill="#181818" points="318.86,506.5,309.86,502.5,313.86,506.5,309.86,510.5,318.86,506.5" style="stroke:#181818;stroke-width:1.0;"/><text fill="#000000" font-family="sans-serif" font-size="13" lengthAdjust="spacing" textLength="21" x="275.5" y="500.2686">has</text><text fill="#000000" font-family="sans-serif" font-size="13" lengthAdjust="spacing" textLength="7" x="261.0894" y="503.7996">1</text><text fill="#000000" font-family="sans-serif" font-size="13" lengthAdjust="spacing" textLength="5" x="306.0791" y="503.5204">*</text></g><!--link Employee to Network Manager--><g id="link_Employee_Network Manager"><path codeLine="98" d="M414.55,569.68 C426.62,597.43 440.67,629.73 452.13,656.08 " fill="none" id="Employee-to-Network Manager" style="stroke:#181818;stroke-width:1.0;"/><polygon fill="#181818" points="454.24,660.93,454.3085,651.0814,452.2412,656.3469,446.9756,654.2795,454.24,660.93" style="stroke:#181818;stroke-width:1.0;"/><text fill="#000000" font-family="sans-serif" font-size="13" lengthAdjust="spacing" textLength="44" x="439.5" y="627.7686">seenBy</text></g><!--link ApplicationSession to Network Manager--><g id="link_ApplicationSession_Network Manager"><path codeLine="100" d="M544.82,398.11 C527.98,473.07 492.5,631 492.5,631 C492.5,631 489.91,642 486.7,655.66 " fill="none" id="ApplicationSession-to-Network Manager" style="stroke:#181818;stroke-width:1.0;"/><polygon fill="#181818" points="485.49,660.8,491.4399,652.9515,486.632,655.9322,483.6514,651.1243,485.49,660.8" style="stroke:#181818;stroke-width:1.0;"/><text fill="#000000" font-family="sans-serif" font-size="13" lengthAdjust="spacing" textLength="21" x="538.5" y="511.2686">has</text></g><!--SRC=[ZLHDRzim33rFlqB8ATcGehiQGu2ktI50cyEo_W3LuHmXiYH8oWAjs7yV7TkIRDdPUadDZyT7yb7snALcXjLKi_B4AjWxBu0QA1sJbG1YGu0zieEwS5dHdqpOr2Eu1ESrKAs4Rpv8uYm5i_R1ESFVpWwsfP9x_XleFI5N3ttYLWlclzLQA0zWNxVq_S-Syr59PvGGOEWxeVZtgGBtK84i_NVGodAdZ5-kWgjFd7HUypZOPsxTHCvD-vDJItQjsmMmm-67si4b1Or1-D-AXAvoLbqtQqXhn8HnXtquPKcrSVWEt4MPKvgLCMY1FgmfbmuLOArMnYMcNwp_skC2SVNOfW5hEwDGQD979M5thj_0TEQsValEap6lGBw3bAm6ajIBnOGgcUDA9YQe6HTagdHJrnZccr5ywVlRq33H9Y2qNJE9x4oajkYcHLzQpoAmdEgHZlWCJCqO4UeGmSCAS5C1DpNsAgCeiwsqU7ebB5Uq60J5a3d1qpd53pU0M2zCwtX3JasgjlkU46wMdzt6GCWf0Qq5RxUwHntXJp-GycmCIFTgkn4t9_SORMqNWqckDyF95YYXTdQ4JBmgTviRpqcUaJmrTraXa-xbPYhcZgTMH56sbdyYZDPMXBl_t_nyweYH6GaP5GgryOh7NQITZHU3crbyNaoySpE1Oq7V3ClUjOwslyOqeHzZQUppo6nats9bnrvG2o2_Db3vgEPI6k2_]--></g></svg>