<?xml version="1.0" encoding="us-ascii" standalone="no"?><svg xmlns="http://www.w3.org/2000/svg" xmlns:xlink="http://www.w3.org/1999/xlink" contentStyleType="text/css" height="990.6px" preserveAspectRatio="none" style="width:1786px;height:990px;background:#FFFFFF;" version="1.1" viewBox="0 0 1786 990" width="1786.2px" zoomAndPan="magnify"><defs/><g><rect fill="#FFFFFF" height="877.6313" style="stroke:#181818;stroke-width:0.6;" width="6" x="34.8" y="54.3844"/><rect fill="#FFFFFF" height="865.3172" style="stroke:#181818;stroke-width:0.6;" width="6" x="190.2" y="66.6984"/><rect fill="#FFFFFF" height="825.0891" style="stroke:#181818;stroke-width:0.6;" width="6" x="298.8" y="89.8125"/><rect fill="#FFFFFF" height="17.1141" style="stroke:#181818;stroke-width:0.6;" width="6" x="392.4" y="108.1969"/><rect fill="#FFFFFF" height="85.5703" style="stroke:#181818;stroke-width:0.6;" width="6" x="456.6" y="142.425"/><rect fill="#FFFFFF" height="17.1141" style="stroke:#181818;stroke-width:0.6;" width="6" x="531.6" y="245.1094"/><rect fill="#FFFFFF" height="17.1141" style="stroke:#181818;stroke-width:0.6;" width="6" x="621.9" y="279.3375"/><rect fill="#FFFFFF" height="78.6563" style="stroke:#181818;stroke-width:0.6;" width="6" x="727.2" y="552.5344"/><rect fill="#FFFFFF" height="85.2563" style="stroke:#181818;stroke-width:0.6;" width="6" x="892.2" y="313.5656"/><rect fill="#FFFFFF" height="23.7141" style="stroke:#181818;stroke-width:0.6;" width="6" x="895.2" y="349.5938"/><rect fill="#FFFFFF" height="85.2563" style="stroke:#181818;stroke-width:0.6;" width="6" x="1027.2" y="415.9359"/><rect fill="#FFFFFF" height="23.7141" style="stroke:#181818;stroke-width:0.6;" width="6" x="1030.2" y="451.9641"/><rect fill="#FFFFFF" height="17.1141" style="stroke:#181818;stroke-width:0.6;" width="6" x="1187.4" y="518.3063"/><rect fill="#FFFFFF" height="85.2563" style="stroke:#181818;stroke-width:0.6;" width="6" x="1267.5" y="648.3047"/><rect fill="#FFFFFF" height="23.7141" style="stroke:#181818;stroke-width:0.6;" width="6" x="1270.5" y="684.3328"/><rect fill="#FFFFFF" height="128.7984" style="stroke:#181818;stroke-width:0.6;" width="6" x="1469.1" y="764.7891"/><rect fill="#FFFFFF" height="94.5703" style="stroke:#181818;stroke-width:0.6;" width="6" x="1609.5" y="781.9031"/><rect fill="#FFFFFF" height="21.3141" style="stroke:#181818;stroke-width:0.6;" width="6" x="1722.3" y="838.0453"/><rect fill="none" height="59.7422" style="stroke:#000000;stroke-width:0.8999999999999999;" width="181.2" x="852" y="322.5656"/><rect fill="none" height="59.7422" style="stroke:#000000;stroke-width:0.8999999999999999;" width="209.7" x="983.7" y="424.9359"/><rect fill="none" height="53.1422" style="stroke:#000000;stroke-width:0.8999999999999999;" width="237.9" x="663.3" y="561.5344"/><rect fill="none" height="34.8281" style="stroke:#000000;stroke-width:0.8999999999999999;" width="225.9" x="669.3" y="575.6484"/><rect fill="none" height="59.7422" style="stroke:#000000;stroke-width:0.8999999999999999;" width="242.1" x="1230" y="657.3047"/><rect fill="none" height="155.8266" style="stroke:#000000;stroke-width:0.8999999999999999;" width="1545.6" x="237.3" y="742.5609"/><rect fill="none" height="51.9422" style="stroke:#000000;stroke-width:0.8999999999999999;" width="208.2" x="1568.7" y="790.9031"/><line style="stroke:#181818;stroke-width:0.3;stroke-dasharray:5.0,5.0;" x1="37.8" x2="37.8" y1="48.3844" y2="942.8156"/><line style="stroke:#181818;stroke-width:0.3;stroke-dasharray:5.0,5.0;" x1="192.9" x2="192.9" y1="48.3844" y2="942.8156"/><line style="stroke:#181818;stroke-width:0.3;stroke-dasharray:5.0,5.0;" x1="301.5" x2="301.5" y1="89.6906" y2="942.8156"/><line style="stroke:#181818;stroke-width:0.3;stroke-dasharray:5.0,5.0;" x1="395.1" x2="395.1" y1="48.3844" y2="942.8156"/><line style="stroke:#181818;stroke-width:0.3;stroke-dasharray:5.0,5.0;" x1="459.3" x2="459.3" y1="48.3844" y2="942.8156"/><line style="stroke:#181818;stroke-width:0.3;stroke-dasharray:5.0,5.0;" x1="534.3" x2="534.3" y1="48.3844" y2="942.8156"/><line style="stroke:#181818;stroke-width:0.3;stroke-dasharray:5.0,5.0;" x1="624.9" x2="624.9" y1="48.3844" y2="942.8156"/><line style="stroke:#181818;stroke-width:0.3;stroke-dasharray:5.0,5.0;" x1="729.9" x2="729.9" y1="48.3844" y2="942.8156"/><line style="stroke:#181818;stroke-width:0.3;stroke-dasharray:5.0,5.0;" x1="895.2" x2="895.2" y1="48.3844" y2="942.8156"/><line style="stroke:#181818;stroke-width:0.3;stroke-dasharray:5.0,5.0;" x1="1029.9" x2="1029.9" y1="48.3844" y2="942.8156"/><line style="stroke:#181818;stroke-width:0.3;stroke-dasharray:5.0,5.0;" x1="1190.4" x2="1190.4" y1="48.3844" y2="942.8156"/><line style="stroke:#181818;stroke-width:0.3;stroke-dasharray:5.0,5.0;" x1="1270.2" x2="1270.2" y1="48.3844" y2="942.8156"/><line style="stroke:#181818;stroke-width:0.3;stroke-dasharray:5.0,5.0;" x1="1471.8" x2="1471.8" y1="48.3844" y2="942.8156"/><line style="stroke:#181818;stroke-width:0.3;stroke-dasharray:5.0,5.0;" x1="1612.5" x2="1612.5" y1="48.3844" y2="942.8156"/><line style="stroke:#181818;stroke-width:0.3;stroke-dasharray:5.0,5.0;" x1="1725.3" x2="1725.3" y1="48.3844" y2="942.8156"/><text fill="#000000" font-family="sans-serif" font-size="8.4" lengthAdjust="spacing" textLength="66" x="3" y="46.6043">Network Manager</text><ellipse cx="37.8" cy="8.1" fill="#E3E3E3" rx="4.8" ry="4.8" style="stroke:#181818;stroke-width:0.3;"/><path d="M37.8,12.9 L37.8,29.1 M30,17.7 L45.6,17.7 M37.8,29.1 L30,38.1 M37.8,29.1 L45.6,38.1 " fill="none" style="stroke:#181818;stroke-width:0.3;"/><text fill="#000000" font-family="sans-serif" font-size="8.4" lengthAdjust="spacing" textLength="66" x="3" y="949.8199">Network Manager</text><ellipse cx="37.8" cy="956.7" fill="#E3E3E3" rx="4.8" ry="4.8" style="stroke:#181818;stroke-width:0.3;"/><path d="M37.8,961.5 L37.8,977.7 M30,966.3 L45.6,966.3 M37.8,977.7 L30,986.7 M37.8,977.7 L45.6,986.7 " fill="none" style="stroke:#181818;stroke-width:0.3;"/><rect fill="#E3E3E3" height="17.7844" rx="1.5" ry="1.5" style="stroke:#181818;stroke-width:0.3;" width="87" x="149.7" y="30"/><text fill="#000000" font-family="sans-serif" font-size="8.4" lengthAdjust="spacing" textLength="78.6" x="153.9" y="41.8043">:DisplayEmployeesUI</text><rect fill="#E3E3E3" height="17.7844" rx="1.5" ry="1.5" style="stroke:#181818;stroke-width:0.3;" width="87" x="149.7" y="942.2156"/><text fill="#000000" font-family="sans-serif" font-size="8.4" lengthAdjust="spacing" textLength="78.6" x="153.9" y="954.0199">:DisplayEmployeesUI</text><rect fill="#E3E3E3" height="17.7844" rx="1.5" ry="1.5" style="stroke:#181818;stroke-width:0.3;" width="117" x="243.3" y="942.2156"/><text fill="#000000" font-family="sans-serif" font-size="8.4" lengthAdjust="spacing" textLength="108.6" x="247.5" y="954.0199">:DisplayEmployeesController</text><rect fill="#E3E3E3" height="17.7844" rx="1.5" ry="1.5" style="stroke:#181818;stroke-width:0.3;" width="58.2" x="366.3" y="30"/><text fill="#000000" font-family="sans-serif" font-size="8.4" lengthAdjust="spacing" textLength="49.8" x="370.5" y="41.8043">:Repositories</text><rect fill="#E3E3E3" height="17.7844" rx="1.5" ry="1.5" style="stroke:#181818;stroke-width:0.3;" width="58.2" x="366.3" y="942.2156"/><text fill="#000000" font-family="sans-serif" font-size="8.4" lengthAdjust="spacing" textLength="49.8" x="370.5" y="954.0199">:Repositories</text><rect fill="#E3E3E3" height="27.1688" rx="1.5" ry="1.5" style="stroke:#181818;stroke-width:0.3;" width="58.2" x="430.5" y="20.6156"/><text fill="#000000" font-family="sans-serif" font-size="8.4" lengthAdjust="spacing" textLength="44.4" x="437.4" y="32.4199">repositories</text><text fill="#000000" font-family="sans-serif" font-size="8.4" lengthAdjust="spacing" textLength="49.8" x="434.7" y="41.8043">:Repositories</text><rect fill="#E3E3E3" height="27.1688" rx="1.5" ry="1.5" style="stroke:#181818;stroke-width:0.3;" width="58.2" x="430.5" y="942.2156"/><text fill="#000000" font-family="sans-serif" font-size="8.4" lengthAdjust="spacing" textLength="44.4" x="437.4" y="954.0199">repositories</text><text fill="#000000" font-family="sans-serif" font-size="8.4" lengthAdjust="spacing" textLength="49.8" x="434.7" y="963.4043">:Repositories</text><rect fill="#E3E3E3" height="27.1688" rx="1.5" ry="1.5" style="stroke:#181818;stroke-width:0.3;" width="79.8" x="494.7" y="20.6156"/><text fill="#000000" font-family="sans-serif" font-size="8.4" lengthAdjust="spacing" textLength="68.4" x="500.4" y="32.4199">agencyRepository</text><text fill="#000000" font-family="sans-serif" font-size="8.4" lengthAdjust="spacing" textLength="71.4" x="498.9" y="41.8043">:AgencyRepository</text><rect fill="#E3E3E3" height="27.1688" rx="1.5" ry="1.5" style="stroke:#181818;stroke-width:0.3;" width="79.8" x="494.7" y="942.2156"/><text fill="#000000" font-family="sans-serif" font-size="8.4" lengthAdjust="spacing" textLength="68.4" x="500.4" y="954.0199">agencyRepository</text><text fill="#000000" font-family="sans-serif" font-size="8.4" lengthAdjust="spacing" textLength="71.4" x="498.9" y="963.4043">:AgencyRepository</text><rect fill="#E3E3E3" height="27.1688" rx="1.5" ry="1.5" style="stroke:#181818;stroke-width:0.3;" width="88.8" x="580.5" y="20.6156"/><text fill="#000000" font-family="sans-serif" font-size="8.4" lengthAdjust="spacing" textLength="77.4" x="586.2" y="32.4199">employeeRepository</text><text fill="#000000" font-family="sans-serif" font-size="8.4" lengthAdjust="spacing" textLength="80.4" x="584.7" y="41.8043">:EmployeeRepository</text><rect fill="#E3E3E3" height="27.1688" rx="1.5" ry="1.5" style="stroke:#181818;stroke-width:0.3;" width="88.8" x="580.5" y="942.2156"/><text fill="#000000" font-family="sans-serif" font-size="8.4" lengthAdjust="spacing" textLength="77.4" x="586.2" y="954.0199">employeeRepository</text><text fill="#000000" font-family="sans-serif" font-size="8.4" lengthAdjust="spacing" textLength="80.4" x="584.7" y="963.4043">:EmployeeRepository</text><rect fill="#E3E3E3" height="27.1688" rx="1.5" ry="1.5" style="stroke:#181818;stroke-width:0.3;" width="109.8" x="675.3" y="20.6156"/><text fill="#000000" font-family="sans-serif" font-size="8.4" lengthAdjust="spacing" textLength="98.4" x="681" y="32.4199">agencyNetworkRepository</text><text fill="#000000" font-family="sans-serif" font-size="8.4" lengthAdjust="spacing" textLength="101.4" x="679.5" y="41.8043">:AgencyNetworkRepository</text><rect fill="#E3E3E3" height="27.1688" rx="1.5" ry="1.5" style="stroke:#181818;stroke-width:0.3;" width="109.8" x="675.3" y="942.2156"/><text fill="#000000" font-family="sans-serif" font-size="8.4" lengthAdjust="spacing" textLength="98.4" x="681" y="954.0199">agencyNetworkRepository</text><text fill="#000000" font-family="sans-serif" font-size="8.4" lengthAdjust="spacing" textLength="101.4" x="679.5" y="963.4043">:AgencyNetworkRepository</text><rect fill="#E3E3E3" height="17.7844" rx="1.5" ry="1.5" style="stroke:#181818;stroke-width:0.3;" width="74.4" x="858" y="30"/><text fill="#000000" font-family="sans-serif" font-size="8.4" lengthAdjust="spacing" textLength="66" x="862.2" y="41.8043">:AgenciesMapper</text><rect fill="#E3E3E3" height="17.7844" rx="1.5" ry="1.5" style="stroke:#181818;stroke-width:0.3;" width="74.4" x="858" y="942.2156"/><text fill="#000000" font-family="sans-serif" font-size="8.4" lengthAdjust="spacing" textLength="66" x="862.2" y="954.0199">:AgenciesMapper</text><rect fill="#E3E3E3" height="17.7844" rx="1.5" ry="1.5" style="stroke:#181818;stroke-width:0.3;" width="81" x="989.7" y="30"/><text fill="#000000" font-family="sans-serif" font-size="8.4" lengthAdjust="spacing" textLength="72.6" x="993.9" y="41.8043">:EmployeesMapper</text><rect fill="#E3E3E3" height="17.7844" rx="1.5" ry="1.5" style="stroke:#181818;stroke-width:0.3;" width="81" x="989.7" y="942.2156"/><text fill="#000000" font-family="sans-serif" font-size="8.4" lengthAdjust="spacing" textLength="72.6" x="993.9" y="954.0199">:EmployeesMapper</text><rect fill="#E3E3E3" height="27.1688" rx="1.5" ry="1.5" style="stroke:#181818;stroke-width:0.3;" width="79.2" x="1150.8" y="20.6156"/><text fill="#000000" font-family="sans-serif" font-size="8.4" lengthAdjust="spacing" textLength="70.8" x="1155" y="32.4199">applicationSession</text><text fill="#000000" font-family="sans-serif" font-size="8.4" lengthAdjust="spacing" textLength="69" x="1155.9" y="41.8043">:AplicationSession</text><rect fill="#E3E3E3" height="27.1688" rx="1.5" ry="1.5" style="stroke:#181818;stroke-width:0.3;" width="79.2" x="1150.8" y="942.2156"/><text fill="#000000" font-family="sans-serif" font-size="8.4" lengthAdjust="spacing" textLength="70.8" x="1155" y="954.0199">applicationSession</text><text fill="#000000" font-family="sans-serif" font-size="8.4" lengthAdjust="spacing" textLength="69" x="1155.9" y="963.4043">:AplicationSession</text><rect fill="#E3E3E3" height="27.1688" rx="1.5" ry="1.5" style="stroke:#181818;stroke-width:0.3;" width="69" x="1236" y="20.6156"/><text fill="#000000" font-family="sans-serif" font-size="8.4" lengthAdjust="spacing" textLength="60.6" x="1240.2" y="32.4199">agenciesListDto</text><text fill="#000000" font-family="sans-serif" font-size="8.4" lengthAdjust="spacing" textLength="53.4" x="1243.8" y="41.8043">:List&lt;Agency&gt;</text><rect fill="#E3E3E3" height="27.1688" rx="1.5" ry="1.5" style="stroke:#181818;stroke-width:0.3;" width="69" x="1236" y="942.2156"/><text fill="#000000" font-family="sans-serif" font-size="8.4" lengthAdjust="spacing" textLength="60.6" x="1240.2" y="954.0199">agenciesListDto</text><text fill="#000000" font-family="sans-serif" font-size="8.4" lengthAdjust="spacing" textLength="53.4" x="1243.8" y="963.4043">:List&lt;Agency&gt;</text><rect fill="#E3E3E3" height="27.1688" rx="1.5" ry="1.5" style="stroke:#181818;stroke-width:0.3;" width="84.6" x="1429.8" y="20.6156"/><text fill="#000000" font-family="sans-serif" font-size="8.4" lengthAdjust="spacing" textLength="76.2" x="1434" y="32.4199">newAgenciesListDto</text><text fill="#000000" font-family="sans-serif" font-size="8.4" lengthAdjust="spacing" textLength="53.4" x="1445.4" y="41.8043">:List&lt;Agency&gt;</text><rect fill="#E3E3E3" height="27.1688" rx="1.5" ry="1.5" style="stroke:#181818;stroke-width:0.3;" width="84.6" x="1429.8" y="942.2156"/><text fill="#000000" font-family="sans-serif" font-size="8.4" lengthAdjust="spacing" textLength="76.2" x="1434" y="954.0199">newAgenciesListDto</text><text fill="#000000" font-family="sans-serif" font-size="8.4" lengthAdjust="spacing" textLength="53.4" x="1445.4" y="963.4043">:List&lt;Agency&gt;</text><rect fill="#E3E3E3" height="27.1688" rx="1.5" ry="1.5" style="stroke:#181818;stroke-width:0.3;" width="75.6" x="1574.7" y="20.6156"/><text fill="#000000" font-family="sans-serif" font-size="8.4" lengthAdjust="spacing" textLength="67.2" x="1578.9" y="32.4199">employeesListDto</text><text fill="#000000" font-family="sans-serif" font-size="8.4" lengthAdjust="spacing" textLength="62.4" x="1581.3" y="41.8043">:List&lt;Employee&gt;</text><rect fill="#E3E3E3" height="27.1688" rx="1.5" ry="1.5" style="stroke:#181818;stroke-width:0.3;" width="75.6" x="1574.7" y="942.2156"/><text fill="#000000" font-family="sans-serif" font-size="8.4" lengthAdjust="spacing" textLength="67.2" x="1578.9" y="954.0199">employeesListDto</text><text fill="#000000" font-family="sans-serif" font-size="8.4" lengthAdjust="spacing" textLength="62.4" x="1581.3" y="963.4043">:List&lt;Employee&gt;</text><rect fill="#E3E3E3" height="27.1688" rx="1.5" ry="1.5" style="stroke:#181818;stroke-width:0.3;" width="91.2" x="1679.7" y="20.6156"/><text fill="#000000" font-family="sans-serif" font-size="8.4" lengthAdjust="spacing" textLength="82.8" x="1683.9" y="32.4199">newEmployeesListDto</text><text fill="#000000" font-family="sans-serif" font-size="8.4" lengthAdjust="spacing" textLength="62.4" x="1694.1" y="41.8043">:List&lt;Employee&gt;</text><rect fill="#E3E3E3" height="27.1688" rx="1.5" ry="1.5" style="stroke:#181818;stroke-width:0.3;" width="91.2" x="1679.7" y="942.2156"/><text fill="#000000" font-family="sans-serif" font-size="8.4" lengthAdjust="spacing" textLength="82.8" x="1683.9" y="954.0199">newEmployeesListDto</text><text fill="#000000" font-family="sans-serif" font-size="8.4" lengthAdjust="spacing" textLength="62.4" x="1694.1" y="963.4043">:List&lt;Employee&gt;</text><rect fill="#FFFFFF" height="877.6313" style="stroke:#181818;stroke-width:0.6;" width="6" x="34.8" y="54.3844"/><rect fill="#FFFFFF" height="865.3172" style="stroke:#181818;stroke-width:0.6;" width="6" x="190.2" y="66.6984"/><rect fill="#FFFFFF" height="825.0891" style="stroke:#181818;stroke-width:0.6;" width="6" x="298.8" y="89.8125"/><rect fill="#FFFFFF" height="17.1141" style="stroke:#181818;stroke-width:0.6;" width="6" x="392.4" y="108.1969"/><rect fill="#FFFFFF" height="85.5703" style="stroke:#181818;stroke-width:0.6;" width="6" x="456.6" y="142.425"/><rect fill="#FFFFFF" height="17.1141" style="stroke:#181818;stroke-width:0.6;" width="6" x="531.6" y="245.1094"/><rect fill="#FFFFFF" height="17.1141" style="stroke:#181818;stroke-width:0.6;" width="6" x="621.9" y="279.3375"/><rect fill="#FFFFFF" height="78.6563" style="stroke:#181818;stroke-width:0.6;" width="6" x="727.2" y="552.5344"/><rect fill="#FFFFFF" height="85.2563" style="stroke:#181818;stroke-width:0.6;" width="6" x="892.2" y="313.5656"/><rect fill="#FFFFFF" height="23.7141" style="stroke:#181818;stroke-width:0.6;" width="6" x="895.2" y="349.5938"/><rect fill="#FFFFFF" height="85.2563" style="stroke:#181818;stroke-width:0.6;" width="6" x="1027.2" y="415.9359"/><rect fill="#FFFFFF" height="23.7141" style="stroke:#181818;stroke-width:0.6;" width="6" x="1030.2" y="451.9641"/><rect fill="#FFFFFF" height="17.1141" style="stroke:#181818;stroke-width:0.6;" width="6" x="1187.4" y="518.3063"/><rect fill="#FFFFFF" height="85.2563" style="stroke:#181818;stroke-width:0.6;" width="6" x="1267.5" y="648.3047"/><rect fill="#FFFFFF" height="23.7141" style="stroke:#181818;stroke-width:0.6;" width="6" x="1270.5" y="684.3328"/><rect fill="#FFFFFF" height="128.7984" style="stroke:#181818;stroke-width:0.6;" width="6" x="1469.1" y="764.7891"/><rect fill="#FFFFFF" height="94.5703" style="stroke:#181818;stroke-width:0.6;" width="6" x="1609.5" y="781.9031"/><rect fill="#FFFFFF" height="21.3141" style="stroke:#181818;stroke-width:0.6;" width="6" x="1722.3" y="838.0453"/><polygon fill="#181818" points="183,64.2984,189,66.6984,183,69.0984,185.4,66.6984" style="stroke:#181818;stroke-width:0.6;"/><line style="stroke:#181818;stroke-width:0.6;" x1="40.8" x2="186.6" y1="66.6984" y2="66.6984"/><text fill="#000000" font-family="sans-serif" font-size="7.8" font-weight="bold" lengthAdjust="spacing" textLength="4.2" x="45" y="63.8455">1</text><text fill="#000000" font-family="sans-serif" font-size="7.8" lengthAdjust="spacing" textLength="131.4" x="51.6" y="63.8455">asks to list all the network employees</text><polygon fill="#181818" points="236.1,81.4125,242.1,83.8125,236.1,86.2125,238.5,83.8125" style="stroke:#181818;stroke-width:0.6;"/><line style="stroke:#181818;stroke-width:0.6;" x1="196.2" x2="239.7" y1="83.8125" y2="83.8125"/><text fill="#000000" font-family="sans-serif" font-size="7.8" font-weight="bold" lengthAdjust="spacing" textLength="4.2" x="200.4" y="80.9596">2</text><text fill="#000000" font-family="sans-serif" font-size="7.8" lengthAdjust="spacing" textLength="21.6" x="207" y="80.9596">create</text><rect fill="#E3E3E3" height="17.7844" rx="1.5" ry="1.5" style="stroke:#181818;stroke-width:0.3;" width="117" x="243.3" y="71.4984"/><text fill="#000000" font-family="sans-serif" font-size="8.4" lengthAdjust="spacing" textLength="108.6" x="247.5" y="83.3027">:DisplayEmployeesController</text><polygon fill="#181818" points="385.2,105.7969,391.2,108.1969,385.2,110.5969,387.6,108.1969" style="stroke:#181818;stroke-width:0.6;"/><line style="stroke:#181818;stroke-width:0.6;" x1="304.8" x2="388.8" y1="108.1969" y2="108.1969"/><text fill="#000000" font-family="sans-serif" font-size="7.8" font-weight="bold" lengthAdjust="spacing" textLength="4.2" x="309" y="105.3439">3</text><text fill="#000000" font-family="sans-serif" font-size="7.8" lengthAdjust="spacing" textLength="45" x="315.6" y="105.3439">getInstance()</text><polygon fill="#181818" points="311.4,122.9109,305.4,125.3109,311.4,127.7109,309,125.3109" style="stroke:#181818;stroke-width:0.6;"/><line style="stroke:#181818;stroke-width:0.6;stroke-dasharray:2.0,2.0;" x1="307.8" x2="394.8" y1="125.3109" y2="125.3109"/><text fill="#000000" font-family="sans-serif" font-size="7.8" font-weight="bold" lengthAdjust="spacing" textLength="4.2" x="315" y="122.458">4</text><text fill="#000000" font-family="sans-serif" font-size="7.8" lengthAdjust="spacing" textLength="40.2" x="321.6" y="122.458">repositories</text><polygon fill="#181818" points="449.4,140.025,455.4,142.425,449.4,144.825,451.8,142.425" style="stroke:#181818;stroke-width:0.6;"/><line style="stroke:#181818;stroke-width:0.6;" x1="304.8" x2="453" y1="142.425" y2="142.425"/><text fill="#000000" font-family="sans-serif" font-size="7.8" font-weight="bold" lengthAdjust="spacing" textLength="4.2" x="309" y="139.5721">5</text><text fill="#000000" font-family="sans-serif" font-size="7.8" lengthAdjust="spacing" textLength="79.2" x="315.6" y="139.5721">getAgencyRepository()</text><polygon fill="#181818" points="311.4,157.1391,305.4,159.5391,311.4,161.9391,309,159.5391" style="stroke:#181818;stroke-width:0.6;"/><line style="stroke:#181818;stroke-width:0.6;stroke-dasharray:2.0,2.0;" x1="307.8" x2="456" y1="159.5391" y2="159.5391"/><text fill="#000000" font-family="sans-serif" font-size="7.8" font-weight="bold" lengthAdjust="spacing" textLength="4.2" x="315" y="156.6861">6</text><text fill="#000000" font-family="sans-serif" font-size="7.8" lengthAdjust="spacing" textLength="62.4" x="321.6" y="156.6861">agencyRepository</text><polygon fill="#181818" points="449.4,174.2531,455.4,176.6531,449.4,179.0531,451.8,176.6531" style="stroke:#181818;stroke-width:0.6;"/><line style="stroke:#181818;stroke-width:0.6;" x1="304.8" x2="453" y1="176.6531" y2="176.6531"/><text fill="#000000" font-family="sans-serif" font-size="7.8" font-weight="bold" lengthAdjust="spacing" textLength="4.2" x="309" y="173.8002">7</text><text fill="#000000" font-family="sans-serif" font-size="7.8" lengthAdjust="spacing" textLength="87.6" x="315.6" y="173.8002">getEmployeeRepository()</text><polygon fill="#181818" points="311.4,191.3672,305.4,193.7672,311.4,196.1672,309,193.7672" style="stroke:#181818;stroke-width:0.6;"/><line style="stroke:#181818;stroke-width:0.6;stroke-dasharray:2.0,2.0;" x1="307.8" x2="456" y1="193.7672" y2="193.7672"/><text fill="#000000" font-family="sans-serif" font-size="7.8" font-weight="bold" lengthAdjust="spacing" textLength="4.2" x="315" y="190.9143">8</text><text fill="#000000" font-family="sans-serif" font-size="7.8" lengthAdjust="spacing" textLength="75" x="321.6" y="190.9143">employeesRepository</text><polygon fill="#181818" points="449.4,208.4813,455.4,210.8813,449.4,213.2813,451.8,210.8813" style="stroke:#181818;stroke-width:0.6;"/><line style="stroke:#181818;stroke-width:0.6;" x1="304.8" x2="453" y1="210.8813" y2="210.8813"/><text fill="#000000" font-family="sans-serif" font-size="7.8" font-weight="bold" lengthAdjust="spacing" textLength="4.2" x="309" y="208.0283">9</text><text fill="#000000" font-family="sans-serif" font-size="7.8" lengthAdjust="spacing" textLength="102.6" x="315.6" y="208.0283">getAgencyNetworkRepository</text><polygon fill="#181818" points="311.4,225.5953,305.4,227.9953,311.4,230.3953,309,227.9953" style="stroke:#181818;stroke-width:0.6;"/><line style="stroke:#181818;stroke-width:0.6;stroke-dasharray:2.0,2.0;" x1="307.8" x2="459" y1="227.9953" y2="227.9953"/><text fill="#000000" font-family="sans-serif" font-size="7.8" font-weight="bold" lengthAdjust="spacing" textLength="8.4" x="315" y="225.1424">10</text><text fill="#000000" font-family="sans-serif" font-size="7.8" lengthAdjust="spacing" textLength="90.6" x="325.8" y="225.1424">agencyNetworkRepository</text><polygon fill="#181818" points="524.4,242.7094,530.4,245.1094,524.4,247.5094,526.8,245.1094" style="stroke:#181818;stroke-width:0.6;"/><line style="stroke:#181818;stroke-width:0.6;" x1="304.8" x2="528" y1="245.1094" y2="245.1094"/><text fill="#000000" font-family="sans-serif" font-size="7.8" font-weight="bold" lengthAdjust="spacing" textLength="8.4" x="309" y="242.2564">11</text><text fill="#000000" font-family="sans-serif" font-size="7.8" lengthAdjust="spacing" textLength="60.6" x="319.8" y="242.2564">getAgenciesList()</text><polygon fill="#181818" points="311.4,259.8234,305.4,262.2234,311.4,264.6234,309,262.2234" style="stroke:#181818;stroke-width:0.6;"/><line style="stroke:#181818;stroke-width:0.6;stroke-dasharray:2.0,2.0;" x1="307.8" x2="534" y1="262.2234" y2="262.2234"/><text fill="#000000" font-family="sans-serif" font-size="7.8" font-weight="bold" lengthAdjust="spacing" textLength="8.4" x="315" y="259.3705">12</text><text fill="#000000" font-family="sans-serif" font-size="7.8" lengthAdjust="spacing" textLength="45" x="325.8" y="259.3705">AgenciesList</text><polygon fill="#181818" points="614.7,276.9375,620.7,279.3375,614.7,281.7375,617.1,279.3375" style="stroke:#181818;stroke-width:0.6;"/><line style="stroke:#181818;stroke-width:0.6;" x1="304.8" x2="618.3" y1="279.3375" y2="279.3375"/><text fill="#000000" font-family="sans-serif" font-size="7.8" font-weight="bold" lengthAdjust="spacing" textLength="8.4" x="309" y="276.4846">13</text><text fill="#000000" font-family="sans-serif" font-size="7.8" lengthAdjust="spacing" textLength="67.2" x="319.8" y="276.4846">getEmployeesList()</text><polygon fill="#181818" points="311.4,294.0516,305.4,296.4516,311.4,298.8516,309,296.4516" style="stroke:#181818;stroke-width:0.6;"/><line style="stroke:#181818;stroke-width:0.6;stroke-dasharray:2.0,2.0;" x1="307.8" x2="624.3" y1="296.4516" y2="296.4516"/><text fill="#000000" font-family="sans-serif" font-size="7.8" font-weight="bold" lengthAdjust="spacing" textLength="8.4" x="315" y="293.5986">14</text><text fill="#000000" font-family="sans-serif" font-size="7.8" lengthAdjust="spacing" textLength="50.4" x="325.8" y="293.5986">employeesList</text><polygon fill="#181818" points="885,311.1656,891,313.5656,885,315.9656,887.4,313.5656" style="stroke:#181818;stroke-width:0.6;"/><line style="stroke:#181818;stroke-width:0.6;" x1="304.8" x2="888.6" y1="313.5656" y2="313.5656"/><text fill="#000000" font-family="sans-serif" font-size="7.8" font-weight="bold" lengthAdjust="spacing" textLength="8.4" x="309" y="310.7127">15</text><text fill="#000000" font-family="sans-serif" font-size="7.8" lengthAdjust="spacing" textLength="165.6" x="319.8" y="310.7127">agenciesList = toAgenciesListDto(agenciesList)</text><path d="M852,322.5656 L895.8,322.5656 L895.8,326.4797 L889.8,332.4797 L852,332.4797 L852,322.5656 " fill="#EEEEEE" style="stroke:#000000;stroke-width:0.8999999999999999;"/><rect fill="none" height="59.7422" style="stroke:#000000;stroke-width:0.8999999999999999;" width="181.2" x="852" y="322.5656"/><text fill="#000000" font-family="sans-serif" font-size="7.8" font-weight="bold" lengthAdjust="spacing" textLength="16.8" x="861" y="330.2268">loop</text><text fill="#000000" font-family="sans-serif" font-size="6.6" font-weight="bold" lengthAdjust="spacing" textLength="57" x="904.8" y="329.7404">[for each agency]</text><line style="stroke:#181818;stroke-width:0.6;" x1="898.2" x2="926.4" y1="341.7938" y2="341.7938"/><line style="stroke:#181818;stroke-width:0.6;" x1="926.4" x2="926.4" y1="341.7938" y2="349.5938"/><line style="stroke:#181818;stroke-width:0.6;" x1="901.8" x2="926.4" y1="349.5938" y2="349.5938"/><polygon fill="#181818" points="907.8,347.1937,901.8,349.5938,907.8,351.9938,905.4,349.5938" style="stroke:#181818;stroke-width:0.6;"/><text fill="#000000" font-family="sans-serif" font-size="7.8" font-weight="bold" lengthAdjust="spacing" textLength="8.4" x="905.4" y="338.9408">16</text><text fill="#000000" font-family="sans-serif" font-size="7.8" lengthAdjust="spacing" textLength="109.8" x="916.2" y="338.9408">agency = toAgencyDto(agency)</text><line style="stroke:#181818;stroke-width:0.6;stroke-dasharray:2.0,2.0;" x1="901.2" x2="926.4" y1="372.7078" y2="372.7078"/><line style="stroke:#181818;stroke-width:0.6;stroke-dasharray:2.0,2.0;" x1="926.4" x2="926.4" y1="372.7078" y2="380.5078"/><line style="stroke:#181818;stroke-width:0.6;stroke-dasharray:2.0,2.0;" x1="898.2" x2="926.4" y1="380.5078" y2="380.5078"/><polygon fill="#181818" points="904.2,378.1078,898.2,380.5078,904.2,382.9078,901.8,380.5078" style="stroke:#181818;stroke-width:0.6;"/><text fill="#000000" font-family="sans-serif" font-size="7.8" font-weight="bold" lengthAdjust="spacing" textLength="8.4" x="905.4" y="369.8549">17</text><text fill="#000000" font-family="sans-serif" font-size="7.8" lengthAdjust="spacing" textLength="104.4" x="916.2" y="369.8549">addAgencyToAgenciesListDto</text><polygon fill="#181818" points="311.4,396.4219,305.4,398.8219,311.4,401.2219,309,398.8219" style="stroke:#181818;stroke-width:0.6;"/><line style="stroke:#181818;stroke-width:0.6;" x1="307.8" x2="894.6" y1="398.8219" y2="398.8219"/><text fill="#000000" font-family="sans-serif" font-size="7.8" font-weight="bold" lengthAdjust="spacing" textLength="8.4" x="315" y="395.9689">18</text><text fill="#000000" font-family="sans-serif" font-size="7.8" lengthAdjust="spacing" textLength="55.8" x="325.8" y="395.9689">agenciesListDto</text><polygon fill="#181818" points="1020,413.5359,1026,415.9359,1020,418.3359,1022.4,415.9359" style="stroke:#181818;stroke-width:0.6;"/><line style="stroke:#181818;stroke-width:0.6;" x1="304.8" x2="1023.6" y1="415.9359" y2="415.9359"/><text fill="#000000" font-family="sans-serif" font-size="7.8" font-weight="bold" lengthAdjust="spacing" textLength="8.4" x="309" y="413.083">19</text><text fill="#000000" font-family="sans-serif" font-size="7.8" lengthAdjust="spacing" textLength="189" x="319.8" y="413.083">employeesList = toEmployeesListDTO(employeesList)</text><path d="M983.7,424.9359 L1027.5,424.9359 L1027.5,428.85 L1021.5,434.85 L983.7,434.85 L983.7,424.9359 " fill="#EEEEEE" style="stroke:#000000;stroke-width:0.8999999999999999;"/><rect fill="none" height="59.7422" style="stroke:#000000;stroke-width:0.8999999999999999;" width="209.7" x="983.7" y="424.9359"/><text fill="#000000" font-family="sans-serif" font-size="7.8" font-weight="bold" lengthAdjust="spacing" textLength="16.8" x="992.7" y="432.5971">loop</text><text fill="#000000" font-family="sans-serif" font-size="6.6" font-weight="bold" lengthAdjust="spacing" textLength="66.6" x="1036.5" y="432.1107">[for each employee]</text><line style="stroke:#181818;stroke-width:0.6;" x1="1033.2" x2="1061.4" y1="444.1641" y2="444.1641"/><line style="stroke:#181818;stroke-width:0.6;" x1="1061.4" x2="1061.4" y1="444.1641" y2="451.9641"/><line style="stroke:#181818;stroke-width:0.6;" x1="1036.8" x2="1061.4" y1="451.9641" y2="451.9641"/><polygon fill="#181818" points="1042.8,449.5641,1036.8,451.9641,1042.8,454.3641,1040.4,451.9641" style="stroke:#181818;stroke-width:0.6;"/><text fill="#000000" font-family="sans-serif" font-size="7.8" font-weight="bold" lengthAdjust="spacing" textLength="8.4" x="1040.4" y="441.3111">20</text><text fill="#000000" font-family="sans-serif" font-size="7.8" lengthAdjust="spacing" textLength="135" x="1051.2" y="441.3111">employee = toEmployeeDto(employee)</text><line style="stroke:#181818;stroke-width:0.6;stroke-dasharray:2.0,2.0;" x1="1036.2" x2="1061.4" y1="475.0781" y2="475.0781"/><line style="stroke:#181818;stroke-width:0.6;stroke-dasharray:2.0,2.0;" x1="1061.4" x2="1061.4" y1="475.0781" y2="482.8781"/><line style="stroke:#181818;stroke-width:0.6;stroke-dasharray:2.0,2.0;" x1="1033.2" x2="1061.4" y1="482.8781" y2="482.8781"/><polygon fill="#181818" points="1039.2,480.4781,1033.2,482.8781,1039.2,485.2781,1036.8,482.8781" style="stroke:#181818;stroke-width:0.6;"/><text fill="#000000" font-family="sans-serif" font-size="7.8" font-weight="bold" lengthAdjust="spacing" textLength="8.4" x="1040.4" y="472.2252">21</text><text fill="#000000" font-family="sans-serif" font-size="7.8" lengthAdjust="spacing" textLength="119.4" x="1051.2" y="472.2252">addEmployeeToEmployeesListDto</text><polygon fill="#181818" points="311.4,498.7922,305.4,501.1922,311.4,503.5922,309,501.1922" style="stroke:#181818;stroke-width:0.6;"/><line style="stroke:#181818;stroke-width:0.6;" x1="307.8" x2="1029.6" y1="501.1922" y2="501.1922"/><text fill="#000000" font-family="sans-serif" font-size="7.8" font-weight="bold" lengthAdjust="spacing" textLength="8.4" x="315" y="498.3393">22</text><text fill="#000000" font-family="sans-serif" font-size="7.8" lengthAdjust="spacing" textLength="62.4" x="325.8" y="498.3393">employeesListDto</text><polygon fill="#181818" points="1180.2,515.9063,1186.2,518.3063,1180.2,520.7063,1182.6,518.3063" style="stroke:#181818;stroke-width:0.6;"/><line style="stroke:#181818;stroke-width:0.6;" x1="304.8" x2="1183.8" y1="518.3063" y2="518.3063"/><text fill="#000000" font-family="sans-serif" font-size="7.8" font-weight="bold" lengthAdjust="spacing" textLength="8.4" x="309" y="515.4533">23</text><text fill="#000000" font-family="sans-serif" font-size="7.8" lengthAdjust="spacing" textLength="57" x="319.8" y="515.4533">getCurrentUser()</text><polygon fill="#181818" points="311.4,533.0203,305.4,535.4203,311.4,537.8203,309,535.4203" style="stroke:#181818;stroke-width:0.6;"/><line style="stroke:#181818;stroke-width:0.6;stroke-dasharray:2.0,2.0;" x1="307.8" x2="1189.8" y1="535.4203" y2="535.4203"/><text fill="#000000" font-family="sans-serif" font-size="7.8" font-weight="bold" lengthAdjust="spacing" textLength="8.4" x="315" y="532.5674">24</text><text fill="#000000" font-family="sans-serif" font-size="7.8" lengthAdjust="spacing" textLength="40.2" x="325.8" y="532.5674">currentUser</text><polygon fill="#181818" points="720,550.1344,726,552.5344,720,554.9344,722.4,552.5344" style="stroke:#181818;stroke-width:0.6;"/><line style="stroke:#181818;stroke-width:0.6;" x1="304.8" x2="723.6" y1="552.5344" y2="552.5344"/><text fill="#000000" font-family="sans-serif" font-size="7.8" font-weight="bold" lengthAdjust="spacing" textLength="8.4" x="309" y="549.6814">25</text><text fill="#000000" font-family="sans-serif" font-size="7.8" lengthAdjust="spacing" textLength="106.8" x="319.8" y="549.6814">getCurrentUserAgencyNetwork</text><path d="M663.3,561.5344 L707.1,561.5344 L707.1,565.4484 L701.1,571.4484 L663.3,571.4484 L663.3,561.5344 " fill="#EEEEEE" style="stroke:#000000;stroke-width:0.8999999999999999;"/><rect fill="none" height="53.1422" style="stroke:#000000;stroke-width:0.8999999999999999;" width="237.9" x="663.3" y="561.5344"/><text fill="#000000" font-family="sans-serif" font-size="7.8" font-weight="bold" lengthAdjust="spacing" textLength="16.8" x="672.3" y="569.1955">loop</text><text fill="#000000" font-family="sans-serif" font-size="6.6" font-weight="bold" lengthAdjust="spacing" textLength="87" x="716.1" y="568.7092">[for each agency network]</text><path d="M669.3,575.6484 L705.9,575.6484 L705.9,579.5625 L699.9,585.5625 L669.3,585.5625 L669.3,575.6484 " fill="#EEEEEE" style="stroke:#000000;stroke-width:0.8999999999999999;"/><rect fill="none" height="34.8281" style="stroke:#000000;stroke-width:0.8999999999999999;" width="225.9" x="669.3" y="575.6484"/><text fill="#000000" font-family="sans-serif" font-size="7.8" font-weight="bold" lengthAdjust="spacing" textLength="9.6" x="678.3" y="583.3096">alt</text><text fill="#000000" font-family="sans-serif" font-size="6.6" font-weight="bold" lengthAdjust="spacing" textLength="153.6" x="714.9" y="582.8232">[agencyNetwork.equals(userAgencyNetwork)]</text><line style="stroke:#181818;stroke-width:0.6;" x1="733.2" x2="758.4" y1="597.8766" y2="597.8766"/><line style="stroke:#181818;stroke-width:0.6;" x1="758.4" x2="758.4" y1="597.8766" y2="605.6766"/><line style="stroke:#181818;stroke-width:0.6;" x1="733.8" x2="758.4" y1="605.6766" y2="605.6766"/><polygon fill="#181818" points="739.8,603.2766,733.8,605.6766,739.8,608.0766,737.4,605.6766" style="stroke:#181818;stroke-width:0.6;"/><text fill="#000000" font-family="sans-serif" font-size="7.8" font-weight="bold" lengthAdjust="spacing" textLength="8.4" x="737.4" y="595.0236">26</text><text fill="#000000" font-family="sans-serif" font-size="7.8" lengthAdjust="spacing" textLength="139.8" x="748.2" y="595.0236">getUserAgencyNetwork(agencyNetwork)</text><polygon fill="#181818" points="311.4,628.7906,305.4,631.1906,311.4,633.5906,309,631.1906" style="stroke:#181818;stroke-width:0.6;"/><line style="stroke:#181818;stroke-width:0.6;stroke-dasharray:2.0,2.0;" x1="307.8" x2="729.6" y1="631.1906" y2="631.1906"/><text fill="#000000" font-family="sans-serif" font-size="7.8" font-weight="bold" lengthAdjust="spacing" textLength="8.4" x="315" y="628.3377">27</text><text fill="#000000" font-family="sans-serif" font-size="7.8" lengthAdjust="spacing" textLength="94.8" x="325.8" y="628.3377">currentUserAgencyNetwork</text><polygon fill="#181818" points="1260.3,645.9047,1266.3,648.3047,1260.3,650.7047,1262.7,648.3047" style="stroke:#181818;stroke-width:0.6;"/><line style="stroke:#181818;stroke-width:0.6;" x1="304.8" x2="1263.9" y1="648.3047" y2="648.3047"/><text fill="#000000" font-family="sans-serif" font-size="7.8" font-weight="bold" lengthAdjust="spacing" textLength="8.4" x="309" y="645.4518">28</text><text fill="#000000" font-family="sans-serif" font-size="7.8" lengthAdjust="spacing" textLength="190.2" x="319.8" y="645.4518">getAgenciesFromAgencyNetwork(userAgencyNetwork)</text><path d="M1230,657.3047 L1273.8,657.3047 L1273.8,661.2188 L1267.8,667.2188 L1230,667.2188 L1230,657.3047 " fill="#EEEEEE" style="stroke:#000000;stroke-width:0.8999999999999999;"/><rect fill="none" height="59.7422" style="stroke:#000000;stroke-width:0.8999999999999999;" width="242.1" x="1230" y="657.3047"/><text fill="#000000" font-family="sans-serif" font-size="7.8" font-weight="bold" lengthAdjust="spacing" textLength="16.8" x="1239" y="664.9658">loop</text><text fill="#000000" font-family="sans-serif" font-size="6.6" font-weight="bold" lengthAdjust="spacing" textLength="67.8" x="1282.8" y="664.4795">[for each agencyDto]</text><line style="stroke:#181818;stroke-width:0.6;" x1="1273.5" x2="1301.7" y1="676.5328" y2="676.5328"/><line style="stroke:#181818;stroke-width:0.6;" x1="1301.7" x2="1301.7" y1="676.5328" y2="684.3328"/><line style="stroke:#181818;stroke-width:0.6;" x1="1277.1" x2="1301.7" y1="684.3328" y2="684.3328"/><polygon fill="#181818" points="1283.1,681.9328,1277.1,684.3328,1283.1,686.7328,1280.7,684.3328" style="stroke:#181818;stroke-width:0.6;"/><text fill="#000000" font-family="sans-serif" font-size="7.8" font-weight="bold" lengthAdjust="spacing" textLength="8.4" x="1280.7" y="673.6799">29</text><text fill="#000000" font-family="sans-serif" font-size="7.8" lengthAdjust="spacing" textLength="107.4" x="1291.5" y="673.6799">getAgencyDto(agencyNetwork)</text><line style="stroke:#181818;stroke-width:0.6;stroke-dasharray:2.0,2.0;" x1="1276.5" x2="1301.7" y1="707.4469" y2="707.4469"/><line style="stroke:#181818;stroke-width:0.6;stroke-dasharray:2.0,2.0;" x1="1301.7" x2="1301.7" y1="707.4469" y2="715.2469"/><line style="stroke:#181818;stroke-width:0.6;stroke-dasharray:2.0,2.0;" x1="1273.5" x2="1301.7" y1="715.2469" y2="715.2469"/><polygon fill="#181818" points="1279.5,712.8469,1273.5,715.2469,1279.5,717.6469,1277.1,715.2469" style="stroke:#181818;stroke-width:0.6;"/><text fill="#000000" font-family="sans-serif" font-size="7.8" font-weight="bold" lengthAdjust="spacing" textLength="8.4" x="1280.7" y="704.5939">30</text><text fill="#000000" font-family="sans-serif" font-size="7.8" lengthAdjust="spacing" textLength="173.4" x="1291.5" y="704.5939">addAgencyDtoToNewAgenciesListDto(agencyDto)</text><polygon fill="#181818" points="311.4,731.1609,305.4,733.5609,311.4,735.9609,309,733.5609" style="stroke:#181818;stroke-width:0.6;"/><line style="stroke:#181818;stroke-width:0.6;stroke-dasharray:2.0,2.0;" x1="307.8" x2="1269.9" y1="733.5609" y2="733.5609"/><text fill="#000000" font-family="sans-serif" font-size="7.8" font-weight="bold" lengthAdjust="spacing" textLength="8.4" x="315" y="730.708">31</text><text fill="#000000" font-family="sans-serif" font-size="7.8" lengthAdjust="spacing" textLength="66.6" x="325.8" y="730.708">newAgencieListDto</text><path d="M237.3,742.5609 L281.1,742.5609 L281.1,746.475 L275.1,752.475 L237.3,752.475 L237.3,742.5609 " fill="#EEEEEE" style="stroke:#000000;stroke-width:0.8999999999999999;"/><rect fill="none" height="155.8266" style="stroke:#000000;stroke-width:0.8999999999999999;" width="1545.6" x="237.3" y="742.5609"/><text fill="#000000" font-family="sans-serif" font-size="7.8" font-weight="bold" lengthAdjust="spacing" textLength="16.8" x="246.3" y="750.2221">loop</text><text fill="#000000" font-family="sans-serif" font-size="6.6" font-weight="bold" lengthAdjust="spacing" textLength="67.8" x="290.1" y="749.7357">[for each agencyDto]</text><polygon fill="#181818" points="1461.9,762.3891,1467.9,764.7891,1461.9,767.1891,1464.3,764.7891" style="stroke:#181818;stroke-width:0.6;"/><line style="stroke:#181818;stroke-width:0.6;" x1="304.8" x2="1465.5" y1="764.7891" y2="764.7891"/><text fill="#000000" font-family="sans-serif" font-size="7.8" font-weight="bold" lengthAdjust="spacing" textLength="8.4" x="309" y="761.9361">32</text><text fill="#000000" font-family="sans-serif" font-size="7.8" lengthAdjust="spacing" textLength="116.4" x="319.8" y="761.9361">getEmployeesListDto(agencyDto)</text><polygon fill="#181818" points="1602.3,779.5031,1608.3,781.9031,1602.3,784.3031,1604.7,781.9031" style="stroke:#181818;stroke-width:0.6;"/><line style="stroke:#181818;stroke-width:0.6;" x1="1475.1" x2="1605.9" y1="781.9031" y2="781.9031"/><text fill="#000000" font-family="sans-serif" font-size="7.8" font-weight="bold" lengthAdjust="spacing" textLength="8.4" x="1479.3" y="779.0502">33</text><text fill="#000000" font-family="sans-serif" font-size="7.8" lengthAdjust="spacing" textLength="112.2" x="1490.1" y="779.0502">getEmployeesListDto(agecyDto)</text><path d="M1568.7,790.9031 L1612.5,790.9031 L1612.5,794.8172 L1606.5,800.8172 L1568.7,800.8172 L1568.7,790.9031 " fill="#EEEEEE" style="stroke:#000000;stroke-width:0.8999999999999999;"/><rect fill="none" height="51.9422" style="stroke:#000000;stroke-width:0.8999999999999999;" width="208.2" x="1568.7" y="790.9031"/><text fill="#000000" font-family="sans-serif" font-size="7.8" font-weight="bold" lengthAdjust="spacing" textLength="16.8" x="1577.7" y="798.5643">loop</text><text fill="#000000" font-family="sans-serif" font-size="6.6" font-weight="bold" lengthAdjust="spacing" textLength="77.4" x="1621.5" y="798.0779">[for each employeeDto]</text><line style="stroke:#181818;stroke-width:0.6;" x1="1615.5" x2="1640.7" y1="813.1313" y2="813.1313"/><line style="stroke:#181818;stroke-width:0.6;" x1="1640.7" x2="1640.7" y1="813.1313" y2="820.9313"/><line style="stroke:#181818;stroke-width:0.6;" x1="1616.1" x2="1640.7" y1="820.9313" y2="820.9313"/><polygon fill="#181818" points="1622.1,818.5313,1616.1,820.9313,1622.1,823.3313,1619.7,820.9313" style="stroke:#181818;stroke-width:0.6;"/><text fill="#000000" font-family="sans-serif" font-size="7.8" font-weight="bold" lengthAdjust="spacing" textLength="8.4" x="1619.7" y="810.2783">34</text><text fill="#000000" font-family="sans-serif" font-size="7.8" lengthAdjust="spacing" textLength="87.6" x="1630.5" y="810.2783">getEmployeeDto(agency)</text><polygon fill="#181818" points="1715.1,835.6453,1721.1,838.0453,1715.1,840.4453,1717.5,838.0453" style="stroke:#181818;stroke-width:0.6;"/><line style="stroke:#181818;stroke-width:0.6;" x1="1615.5" x2="1718.7" y1="838.0453" y2="838.0453"/><text fill="#000000" font-family="sans-serif" font-size="7.8" font-weight="bold" lengthAdjust="spacing" textLength="8.4" x="1619.7" y="835.1924">35</text><text fill="#000000" font-family="sans-serif" font-size="7.8" lengthAdjust="spacing" textLength="47.4" x="1630.5" y="835.1924">addEmployee</text><polygon fill="#181818" points="1622.1,856.9594,1616.1,859.3594,1622.1,861.7594,1619.7,859.3594" style="stroke:#181818;stroke-width:0.6;"/><line style="stroke:#181818;stroke-width:0.6;stroke-dasharray:2.0,2.0;" x1="1618.5" x2="1724.7" y1="859.3594" y2="859.3594"/><text fill="#000000" font-family="sans-serif" font-size="7.8" font-weight="bold" lengthAdjust="spacing" textLength="8.4" x="1625.7" y="856.5064">36</text><text fill="#000000" font-family="sans-serif" font-size="7.8" lengthAdjust="spacing" textLength="73.2" x="1636.5" y="856.5064">newEmployeeListDto</text><polygon fill="#181818" points="1481.7,874.0734,1475.7,876.4734,1481.7,878.8734,1479.3,876.4734" style="stroke:#181818;stroke-width:0.6;"/><line style="stroke:#181818;stroke-width:0.6;" x1="1478.1" x2="1611.9" y1="876.4734" y2="876.4734"/><text fill="#000000" font-family="sans-serif" font-size="7.8" font-weight="bold" lengthAdjust="spacing" textLength="8.4" x="1485.3" y="873.6205">37</text><text fill="#000000" font-family="sans-serif" font-size="7.8" lengthAdjust="spacing" textLength="77.4" x="1496.1" y="873.6205">newEmployeesListDto</text><polygon fill="#181818" points="311.4,891.1875,305.4,893.5875,311.4,895.9875,309,893.5875" style="stroke:#181818;stroke-width:0.6;"/><line style="stroke:#181818;stroke-width:0.6;" x1="307.8" x2="1471.5" y1="893.5875" y2="893.5875"/><text fill="#000000" font-family="sans-serif" font-size="7.8" font-weight="bold" lengthAdjust="spacing" textLength="8.4" x="315" y="890.7346">38</text><text fill="#000000" font-family="sans-serif" font-size="7.8" lengthAdjust="spacing" textLength="77.4" x="325.8" y="890.7346">newEmployeesListDto</text><polygon fill="#181818" points="202.8,912.5016,196.8,914.9016,202.8,917.3016,200.4,914.9016" style="stroke:#181818;stroke-width:0.6;"/><line style="stroke:#181818;stroke-width:0.6;stroke-dasharray:2.0,2.0;" x1="199.2" x2="301.2" y1="914.9016" y2="914.9016"/><text fill="#000000" font-family="sans-serif" font-size="7.8" font-weight="bold" lengthAdjust="spacing" textLength="8.4" x="206.4" y="912.0486">39</text><text fill="#000000" font-family="sans-serif" font-size="7.8" lengthAdjust="spacing" textLength="77.4" x="217.2" y="912.0486">newEmployeesListDto</text><polygon fill="#181818" points="44.4,929.6156,38.4,932.0156,44.4,934.4156,42,932.0156" style="stroke:#181818;stroke-width:0.6;"/><line style="stroke:#181818;stroke-width:0.6;stroke-dasharray:2.0,2.0;" x1="40.8" x2="192.6" y1="932.0156" y2="932.0156"/><text fill="#000000" font-family="sans-serif" font-size="7.8" font-weight="bold" lengthAdjust="spacing" textLength="8.4" x="48" y="929.1627">40</text><text fill="#000000" font-family="sans-serif" font-size="7.8" lengthAdjust="spacing" textLength="121.8" x="58.8" y="929.1627">displays all the network employees</text><!--SRC=[bLZ9Rjim4BtxAuYSx03f1nXj02DrWG1EMYJEhHTMPcp1CgcAT0FzVQcD8Zd39ReafcRUl5b9IfvBNjE6NiX5S56S6d5XH3LNjf3cJKsBCpsoLzLMZ3IiK9GVArj0dkX1V9JyIDvf9TbYGQzAyElb3slq_uKI3RbvPkf3D6VoHBd6Qcu8bOGFQ-FIOg7HL5cKDUMAtAo_bxAkQBkzr9Le6PDlZxtIssD2xa5mrOYg6eqyx5zsdiOBguKiDQsIoLx6BBIlPUURPk-gD9R6Rmu1VkqsUrT3UyIBTWRMMXjlgTVq5rqKDZhbu6p1Oeza0X026oYDYK2OWJSMGV3E2salfQFnHEjw3BoxvCaRifQ2j-QHh-kgBAWg1NzbKke_7Mz_RJ1Sr-DFn7zDQ5TAzLq9hT_zztLmyBvN7K8q2hZQd7riqW2J58unfTD7c3mVC7mfm6ER1MC9Ja1zDvR_g6AWzyZukElaxbut75bhlBCaIf1A8n5QLKIT3CPCU8OnTdIxciNkqMWQislAsrkDMpHCIxaYHhTlNUTLztIh7GRIj1hmoDGZbtf45MovWie66sjv8Dqzc9cxqOKriGS3r3-mpzcRNEl6oU2BFnwYFlLJ2BpkmIR6NIhzYPD10uuSZ8XlYI4JATjdE74oFSjGjF82OpOHyaDlaHjdW1y30xg9XXW0MoxOyAwMnJaEF_57zWCtcN4VjgdaOVXOygEk9AqusJ2xoPJiCLBacvvDtdHUsWBHHCrxb2Eq4w8cx_hiejcUnjg2fUJn2Z9jPuwjOTV6kZd6BMGTDNyu36RtVeYYZH4pp_W1AMad2dPBXYncMWC5RLnpQgmFiBirxdyk7P5ahQVhOCA3iVFfHHaxPBjwc5wiy4JdKOtIGVdeufWMzy8_L-3WMFTc5GaI86nMnCeaQj2C2dF-6-RTmxLf65TlaZNXYJsV6Tt2dh6isLRCYE6A3Y2wsmlOh01bHowwtoGsFcoUJKUuS1dHIhdxwXVszwflUSkhpsqL1WdvcWe3y7z9Cos2uiD75iO9JNCa2s1ZJkHXAW3dhk4UBdxeQxZhTohQXe9xWqaM011oMKLeMhjOE1qvj12hY5cpY-cVU_4CBcDBuyygkgr5Y80IWQp6mfZlWgc15J6NEzQgdBHDHUNVFv4JNofOrXNHkykYtGOiQXR-F0-pI99WMNiIlaS7nG6_9EVeaIq42M_WxeuRcRfM3i0bFZJlGc08ZJlSuLnhNlbcayHZv1SiyeKZsj9v9HAgrRcbFttyYJS862Tpd_PVLJ9iMhRWjv3kIqeVGFk3pPeSXi-XCkShZONVVQTPEBuvtuV-0m00]--></g></svg>