<?xml version="1.0" encoding="us-ascii" standalone="no"?><svg xmlns="http://www.w3.org/2000/svg" xmlns:xlink="http://www.w3.org/1999/xlink" contentStyleType="text/css" height="425px" preserveAspectRatio="none" style="width:485px;height:425px;background:#FFFFFF;" version="1.1" viewBox="0 0 485 425" width="485px" zoomAndPan="magnify"><defs/><g><rect fill="#FFFFFF" height="28.5234" style="stroke:#181818;stroke-width:1.0;" width="10" x="432.5" y="111.1641"/><rect fill="#FFFFFF" height="87.5703" style="stroke:#181818;stroke-width:1.0;" width="10" x="432.5" y="182.7344"/><rect fill="#FFFFFF" height="28.5234" style="stroke:#181818;stroke-width:1.0;" width="10" x="432.5" y="298.8281"/><rect fill="none" height="45.0469" style="stroke:#000000;stroke-width:1.5;" width="469.5" x="10" y="197.7344"/><line style="stroke:#181818;stroke-width:0.5;stroke-dasharray:5.0,5.0;" x1="73" x2="73" y1="80.6406" y2="345.3516"/><line style="stroke:#181818;stroke-width:0.5;stroke-dasharray:5.0,5.0;" x1="437.5" x2="437.5" y1="80.6406" y2="345.3516"/><text fill="#000000" font-family="sans-serif" font-size="14" lengthAdjust="spacing" textLength="101" x="20" y="77.6738">Unregisted User</text><ellipse cx="73.5" cy="13.5" fill="#E2E2F0" rx="8" ry="8" style="stroke:#181818;stroke-width:0.5;"/><path d="M73.5,21.5 L73.5,48.5 M60.5,29.5 L86.5,29.5 M73.5,48.5 L60.5,63.5 M73.5,48.5 L86.5,63.5 " fill="none" style="stroke:#181818;stroke-width:0.5;"/><text fill="#000000" font-family="sans-serif" font-size="14" lengthAdjust="spacing" textLength="101" x="20" y="357.0254">Unregisted User</text><ellipse cx="73.5" cy="368.4922" fill="#E2E2F0" rx="8" ry="8" style="stroke:#181818;stroke-width:0.5;"/><path d="M73.5,376.4922 L73.5,403.4922 M60.5,384.4922 L86.5,384.4922 M73.5,403.4922 L60.5,418.4922 M73.5,403.4922 L86.5,418.4922 " fill="none" style="stroke:#181818;stroke-width:0.5;"/><rect fill="#E2E2F0" height="29.6406" rx="2.5" ry="2.5" style="stroke:#181818;stroke-width:0.5;" width="64" x="405.5" y="50"/><text fill="#000000" font-family="sans-serif" font-size="14" lengthAdjust="spacing" textLength="50" x="412.5" y="69.6738">:System</text><rect fill="#E2E2F0" height="29.6406" rx="2.5" ry="2.5" style="stroke:#181818;stroke-width:0.5;" width="64" x="405.5" y="344.3516"/><text fill="#000000" font-family="sans-serif" font-size="14" lengthAdjust="spacing" textLength="50" x="412.5" y="364.0254">:System</text><rect fill="#FFFFFF" height="28.5234" style="stroke:#181818;stroke-width:1.0;" width="10" x="432.5" y="111.1641"/><rect fill="#FFFFFF" height="87.5703" style="stroke:#181818;stroke-width:1.0;" width="10" x="432.5" y="182.7344"/><rect fill="#FFFFFF" height="28.5234" style="stroke:#181818;stroke-width:1.0;" width="10" x="432.5" y="298.8281"/><polygon fill="#181818" points="420.5,107.1641,430.5,111.1641,420.5,115.1641,424.5,111.1641" style="stroke:#181818;stroke-width:1.0;"/><line style="stroke:#181818;stroke-width:1.0;" x1="73.5" x2="426.5" y1="111.1641" y2="111.1641"/><text fill="#000000" font-family="sans-serif" font-size="13" font-weight="bold" lengthAdjust="spacing" textLength="7" x="80.5" y="106.4092">1</text><text fill="#000000" font-family="sans-serif" font-size="13" lengthAdjust="spacing" textLength="153" x="91.5" y="106.4092">Asks to create an account</text><polygon fill="#181818" points="84.5,135.6875,74.5,139.6875,84.5,143.6875,80.5,139.6875" style="stroke:#181818;stroke-width:1.0;"/><line style="stroke:#181818;stroke-width:1.0;stroke-dasharray:2.0,2.0;" x1="78.5" x2="436.5" y1="139.6875" y2="139.6875"/><text fill="#000000" font-family="sans-serif" font-size="13" font-weight="bold" lengthAdjust="spacing" textLength="7" x="90.5" y="134.9326">2</text><text fill="#000000" font-family="sans-serif" font-size="13" lengthAdjust="spacing" textLength="84" x="101.5" y="134.9326">Requests data</text><polygon fill="#181818" points="420.5,178.7344,430.5,182.7344,420.5,186.7344,424.5,182.7344" style="stroke:#181818;stroke-width:1.0;"/><line style="stroke:#181818;stroke-width:1.0;" x1="73.5" x2="426.5" y1="182.7344" y2="182.7344"/><text fill="#000000" font-family="sans-serif" font-size="13" font-weight="bold" lengthAdjust="spacing" textLength="7" x="80.5" y="170.7178">3</text><text fill="#000000" font-family="sans-serif" font-size="13" lengthAdjust="spacing" textLength="329" x="91.5" y="163.4561">Types requested data (name, passport card, tax number,</text><text fill="#000000" font-family="sans-serif" font-size="13" lengthAdjust="spacing" textLength="146" x="91.5" y="177.9795">email, telephone number)</text><path d="M10,197.7344 L71,197.7344 L71,204.2578 L61,214.2578 L10,214.2578 L10,197.7344 " fill="#EEEEEE" style="stroke:#000000;stroke-width:1.5;"/><rect fill="none" height="45.0469" style="stroke:#000000;stroke-width:1.5;" width="469.5" x="10" y="197.7344"/><text fill="#000000" font-family="sans-serif" font-size="13" font-weight="bold" lengthAdjust="spacing" textLength="16" x="25" y="210.5029">alt</text><text fill="#000000" font-family="sans-serif" font-size="11" font-weight="bold" lengthAdjust="spacing" textLength="52" x="86" y="209.6924">[optional]</text><polygon fill="#181818" points="420.5,230.7813,430.5,234.7813,420.5,238.7813,424.5,234.7813" style="stroke:#181818;stroke-width:1.0;"/><line style="stroke:#181818;stroke-width:1.0;" x1="73.5" x2="426.5" y1="234.7813" y2="234.7813"/><text fill="#000000" font-family="sans-serif" font-size="13" font-weight="bold" lengthAdjust="spacing" textLength="7" x="80.5" y="230.0264">4</text><text fill="#000000" font-family="sans-serif" font-size="13" lengthAdjust="spacing" textLength="194" x="91.5" y="230.0264">Optional data (state, district, city)</text><polygon fill="#181818" points="84.5,266.3047,74.5,270.3047,84.5,274.3047,80.5,270.3047" style="stroke:#181818;stroke-width:1.0;"/><line style="stroke:#181818;stroke-width:1.0;stroke-dasharray:2.0,2.0;" x1="78.5" x2="436.5" y1="270.3047" y2="270.3047"/><text fill="#000000" font-family="sans-serif" font-size="13" font-weight="bold" lengthAdjust="spacing" textLength="7" x="90.5" y="265.5498">5</text><text fill="#000000" font-family="sans-serif" font-size="13" lengthAdjust="spacing" textLength="254" x="101.5" y="265.5498">Shows the data and requests a confirmation</text><polygon fill="#181818" points="420.5,294.8281,430.5,298.8281,420.5,302.8281,424.5,298.8281" style="stroke:#181818;stroke-width:1.0;"/><line style="stroke:#181818;stroke-width:1.0;" x1="73.5" x2="426.5" y1="298.8281" y2="298.8281"/><text fill="#000000" font-family="sans-serif" font-size="13" font-weight="bold" lengthAdjust="spacing" textLength="7" x="80.5" y="294.0732">6</text><text fill="#000000" font-family="sans-serif" font-size="13" lengthAdjust="spacing" textLength="102" x="91.5" y="294.0732">Confirms the data</text><polygon fill="#181818" points="84.5,323.3516,74.5,327.3516,84.5,331.3516,80.5,327.3516" style="stroke:#181818;stroke-width:1.0;"/><line style="stroke:#181818;stroke-width:1.0;stroke-dasharray:2.0,2.0;" x1="78.5" x2="436.5" y1="327.3516" y2="327.3516"/><text fill="#000000" font-family="sans-serif" font-size="13" font-weight="bold" lengthAdjust="spacing" textLength="7" x="90.5" y="322.5967">7</text><text fill="#000000" font-family="sans-serif" font-size="13" lengthAdjust="spacing" textLength="152" x="101.5" y="322.5967">Informs operation success</text><!--SRC=[bP51ImCn48Nl-HL3BrhOsliU1F7aIR3s9iYOJBl1pIHcPjN-UvFkbaABXUOKPkPzUVDoqwacQPVBr2Fh4Fex6yDIw6iWjhHm7hSPWp4uQEGXV50kTwinmspDcRPUb1oiXV8CKE1OUwyrap2hjpuLDipQrQvqmdvml1fp8e35_TI25XxaKq0Zs4oe1CY0riQ1jJhmtxLsm4oQHP6V4jkNkeoeW4D5u-XC_A-75bvtYGJoI2YBLWJSCWPg8A58Ybd1OdODAFx2c53pnXJGzwL6FQKkCasT-Pbpx1LYKXyPUmFbN0haUHgSR8WMK0EkJ6TljG7hTJStnEvY7h3guay9jgEHW-mE6meWsCWRdmFMfwvAgv0VH-qHVjrFmHDlOfN7H7bl06ImbaJEZVm1]--></g></svg>