<?xml version="1.0" encoding="us-ascii" standalone="no"?><svg xmlns="http://www.w3.org/2000/svg" xmlns:xlink="http://www.w3.org/1999/xlink" contentStyleType="text/css" height="366px" preserveAspectRatio="none" style="width:493px;height:366px;background:#FFFFFF;" version="1.1" viewBox="0 0 493 366" width="493px" zoomAndPan="magnify"><defs/><g><rect fill="#FFFFFF" height="186.6641" style="stroke:#181818;stroke-width:1.0;" width="10" x="69" y="90.6406"/><rect fill="#FFFFFF" height="28.5234" style="stroke:#181818;stroke-width:1.0;" width="10" x="450" y="111.1641"/><rect fill="#FFFFFF" height="28.5234" style="stroke:#181818;stroke-width:1.0;" width="10" x="450" y="182.7344"/><rect fill="#FFFFFF" height="28.5234" style="stroke:#181818;stroke-width:1.0;" width="10" x="450" y="239.7813"/><line style="stroke:#181818;stroke-width:0.5;stroke-dasharray:5.0,5.0;" x1="74" x2="74" y1="80.6406" y2="286.3047"/><line style="stroke:#181818;stroke-width:0.5;stroke-dasharray:5.0,5.0;" x1="455" x2="455" y1="80.6406" y2="286.3047"/><text fill="#000000" font-family="sans-serif" font-size="14" lengthAdjust="spacing" textLength="132" x="5" y="77.6738">System administrator</text><ellipse cx="74" cy="13.5" fill="#E3E3E3" rx="8" ry="8" style="stroke:#181818;stroke-width:0.5;"/><path d="M74,21.5 L74,48.5 M61,29.5 L87,29.5 M74,48.5 L61,63.5 M74,48.5 L87,63.5 " fill="none" style="stroke:#181818;stroke-width:0.5;"/><text fill="#000000" font-family="sans-serif" font-size="14" lengthAdjust="spacing" textLength="132" x="5" y="297.9785">System administrator</text><ellipse cx="74" cy="309.4453" fill="#E3E3E3" rx="8" ry="8" style="stroke:#181818;stroke-width:0.5;"/><path d="M74,317.4453 L74,344.4453 M61,325.4453 L87,325.4453 M74,344.4453 L61,359.4453 M74,344.4453 L87,359.4453 " fill="none" style="stroke:#181818;stroke-width:0.5;"/><rect fill="#E3E3E3" height="29.6406" rx="2.5" ry="2.5" style="stroke:#181818;stroke-width:0.5;" width="64" x="423" y="50"/><text fill="#000000" font-family="sans-serif" font-size="14" lengthAdjust="spacing" textLength="50" x="430" y="69.6738">:System</text><rect fill="#E3E3E3" height="29.6406" rx="2.5" ry="2.5" style="stroke:#181818;stroke-width:0.5;" width="64" x="423" y="285.3047"/><text fill="#000000" font-family="sans-serif" font-size="14" lengthAdjust="spacing" textLength="50" x="430" y="304.9785">:System</text><rect fill="#FFFFFF" height="186.6641" style="stroke:#181818;stroke-width:1.0;" width="10" x="69" y="90.6406"/><rect fill="#FFFFFF" height="28.5234" style="stroke:#181818;stroke-width:1.0;" width="10" x="450" y="111.1641"/><rect fill="#FFFFFF" height="28.5234" style="stroke:#181818;stroke-width:1.0;" width="10" x="450" y="182.7344"/><rect fill="#FFFFFF" height="28.5234" style="stroke:#181818;stroke-width:1.0;" width="10" x="450" y="239.7813"/><polygon fill="#181818" points="438,107.1641,448,111.1641,438,115.1641,442,111.1641" style="stroke:#181818;stroke-width:1.0;"/><line style="stroke:#181818;stroke-width:1.0;" x1="79" x2="444" y1="111.1641" y2="111.1641"/><text fill="#000000" font-family="sans-serif" font-size="13" font-weight="bold" lengthAdjust="spacing" textLength="7" x="86" y="106.4092">1</text><text fill="#000000" font-family="sans-serif" font-size="13" lengthAdjust="spacing" textLength="129" x="97" y="106.4092">Asks to create a store</text><polygon fill="#181818" points="90,135.6875,80,139.6875,90,143.6875,86,139.6875" style="stroke:#181818;stroke-width:1.0;"/><line style="stroke:#181818;stroke-width:1.0;stroke-dasharray:2.0,2.0;" x1="84" x2="454" y1="139.6875" y2="139.6875"/><text fill="#000000" font-family="sans-serif" font-size="13" font-weight="bold" lengthAdjust="spacing" textLength="7" x="96" y="134.9326">2</text><text fill="#000000" font-family="sans-serif" font-size="13" lengthAdjust="spacing" textLength="84" x="107" y="134.9326">Requests data</text><polygon fill="#181818" points="438,178.7344,448,182.7344,438,186.7344,442,182.7344" style="stroke:#181818;stroke-width:1.0;"/><line style="stroke:#181818;stroke-width:1.0;" x1="79" x2="444" y1="182.7344" y2="182.7344"/><text fill="#000000" font-family="sans-serif" font-size="13" font-weight="bold" lengthAdjust="spacing" textLength="7" x="86" y="170.7178">3</text><text fill="#000000" font-family="sans-serif" font-size="13" lengthAdjust="spacing" textLength="341" x="97" y="163.4561">Types requested data (designation, address, state, district,</text><text fill="#000000" font-family="sans-serif" font-size="13" lengthAdjust="spacing" textLength="154" x="101" y="177.9795">city, email, phone number)</text><polygon fill="#181818" points="90,207.2578,80,211.2578,90,215.2578,86,211.2578" style="stroke:#181818;stroke-width:1.0;"/><line style="stroke:#181818;stroke-width:1.0;stroke-dasharray:2.0,2.0;" x1="84" x2="454" y1="211.2578" y2="211.2578"/><text fill="#000000" font-family="sans-serif" font-size="13" font-weight="bold" lengthAdjust="spacing" textLength="7" x="96" y="206.5029">4</text><text fill="#000000" font-family="sans-serif" font-size="13" lengthAdjust="spacing" textLength="254" x="107" y="206.5029">Shows the data and requests a confirmation</text><polygon fill="#181818" points="438,235.7813,448,239.7813,438,243.7813,442,239.7813" style="stroke:#181818;stroke-width:1.0;"/><line style="stroke:#181818;stroke-width:1.0;" x1="79" x2="444" y1="239.7813" y2="239.7813"/><text fill="#000000" font-family="sans-serif" font-size="13" font-weight="bold" lengthAdjust="spacing" textLength="7" x="86" y="235.0264">5</text><text fill="#000000" font-family="sans-serif" font-size="13" lengthAdjust="spacing" textLength="102" x="97" y="235.0264">Confirms the data</text><polygon fill="#181818" points="90,264.3047,80,268.3047,90,272.3047,86,268.3047" style="stroke:#181818;stroke-width:1.0;"/><line style="stroke:#181818;stroke-width:1.0;stroke-dasharray:2.0,2.0;" x1="84" x2="454" y1="268.3047" y2="268.3047"/><text fill="#000000" font-family="sans-serif" font-size="13" font-weight="bold" lengthAdjust="spacing" textLength="7" x="96" y="263.5498">6</text><text fill="#000000" font-family="sans-serif" font-size="13" lengthAdjust="spacing" textLength="152" x="107" y="263.5498">Informs operation success</text><!--SRC=[dP2nKiCm38RtF8Mk4zobBv21knuJAsLa4RQQ-1fBmLBevUrn72W1hXtgoVubVVxrwp7mW0aZH65nNP98O6caIi-L0TqHMzhRr1CaSeRSzki6xT3BAN0B1-oLgWf74nxZ6wLyToO9Dlj9ZIAWZu63MiAiRW0Lbi9krgkCi-32W6omQPRAggd0mWSQ_Pgg89-L0Dk7hoSqiDEZWWcuHFCSWkQFgOpyWQqvi3qp5cG3p_G-afg2HyFIwkaAuR-JbsaWpVaL3Fd2WJjF6bf62y9rJiSdKgspoKojmSz91MVrAuCBDjL04KDVmz094omHtz-mpBwJKuwbeyK5ilysfZaY9tm8AHPJ5pQTrQlRFYwCdqzkSFd41vaHCb0gPa17vt90rGLNdm00]--></g></svg>