<?xml version="1.0" encoding="us-ascii" standalone="no"?><svg xmlns="http://www.w3.org/2000/svg" xmlns:xlink="http://www.w3.org/1999/xlink" contentStyleType="text/css" height="871px" preserveAspectRatio="none" style="width:1972px;height:871px;background:#FFFFFF;" version="1.1" viewBox="0 0 1972 871" width="1972px" zoomAndPan="magnify"><defs/><g><rect fill="#FFFFFF" height="682.3438" style="stroke:#181818;stroke-width:1.0;" width="10" x="23.5" y="90.6406"/><rect fill="#FFFFFF" height="661.8203" style="stroke:#181818;stroke-width:1.0;" width="10" x="259.5" y="111.1641"/><rect fill="#FFFFFF" height="69.1641" style="stroke:#181818;stroke-width:1.0;" width="10" x="499.5" y="139.6875"/><rect fill="#FFFFFF" height="450.0391" style="stroke:#181818;stroke-width:1.0;" width="10" x="499.5" y="294.4219"/><rect fill="#FFFFFF" height="142.6172" style="stroke:#181818;stroke-width:1.0;" width="10" x="976.5" y="322.9453"/><rect fill="#FFFFFF" height="28.5234" style="stroke:#181818;stroke-width:1.0;" width="10" x="1160.5" y="351.4688"/><rect fill="#FFFFFF" height="28.5234" style="stroke:#181818;stroke-width:1.0;" width="10" x="1267.5" y="408.5156"/><rect fill="#FFFFFF" height="221.8516" style="stroke:#181818;stroke-width:1.0;" width="10" x="1453.5" y="465.5625"/><rect fill="#FFFFFF" height="93.5234" style="stroke:#181818;stroke-width:1.0;" width="10" x="1458.5" y="558.3672"/><rect fill="#FFFFFF" height="25" style="stroke:#181818;stroke-width:1.0;" width="10" x="1463.5" y="599.8906"/><line style="stroke:#181818;stroke-width:0.5;stroke-dasharray:5.0,5.0;" x1="28" x2="28" y1="80.6406" y2="790.9844"/><line style="stroke:#181818;stroke-width:0.5;stroke-dasharray:5.0,5.0;" x1="264" x2="264" y1="80.6406" y2="790.9844"/><line style="stroke:#181818;stroke-width:0.5;stroke-dasharray:5.0,5.0;" x1="504" x2="504" y1="80.6406" y2="790.9844"/><line style="stroke:#181818;stroke-width:0.5;stroke-dasharray:5.0,5.0;" x1="981" x2="981" y1="178.0078" y2="790.9844"/><line style="stroke:#181818;stroke-width:0.5;stroke-dasharray:5.0,5.0;" x1="1165" x2="1165" y1="80.6406" y2="790.9844"/><line style="stroke:#181818;stroke-width:0.5;stroke-dasharray:5.0,5.0;" x1="1272" x2="1272" y1="80.6406" y2="790.9844"/><line style="stroke:#181818;stroke-width:0.5;stroke-dasharray:5.0,5.0;" x1="1458.5" x2="1458.5" y1="80.6406" y2="790.9844"/><line style="stroke:#181818;stroke-width:0.5;stroke-dasharray:5.0,5.0;" x1="1893.5" x2="1893.5" y1="511.7031" y2="790.9844"/><text fill="#000000" font-family="sans-serif" font-size="14" lengthAdjust="spacing" textLength="41" x="5" y="77.6738">Owner</text><ellipse cx="28.5" cy="13.5" fill="#E3E3E3" rx="8" ry="8" style="stroke:#181818;stroke-width:0.5;"/><path d="M28.5,21.5 L28.5,48.5 M15.5,29.5 L41.5,29.5 M28.5,48.5 L15.5,63.5 M28.5,48.5 L41.5,63.5 " fill="none" style="stroke:#181818;stroke-width:0.5;"/><text fill="#000000" font-family="sans-serif" font-size="14" lengthAdjust="spacing" textLength="41" x="5" y="802.6582">Owner</text><ellipse cx="28.5" cy="814.125" fill="#E3E3E3" rx="8" ry="8" style="stroke:#181818;stroke-width:0.5;"/><path d="M28.5,822.125 L28.5,849.125 M15.5,830.125 L41.5,830.125 M28.5,849.125 L15.5,864.125 M28.5,849.125 L41.5,864.125 " fill="none" style="stroke:#181818;stroke-width:0.5;"/><text fill="#000000" font-family="sans-serif" font-size="14" lengthAdjust="spacing" textLength="37" x="243" y="77.6738">Agent</text><ellipse cx="264.5" cy="13.5" fill="#E3E3E3" rx="8" ry="8" style="stroke:#181818;stroke-width:0.5;"/><path d="M264.5,21.5 L264.5,48.5 M251.5,29.5 L277.5,29.5 M264.5,48.5 L251.5,63.5 M264.5,48.5 L277.5,63.5 " fill="none" style="stroke:#181818;stroke-width:0.5;"/><text fill="#000000" font-family="sans-serif" font-size="14" lengthAdjust="spacing" textLength="37" x="243" y="802.6582">Agent</text><ellipse cx="264.5" cy="814.125" fill="#E3E3E3" rx="8" ry="8" style="stroke:#181818;stroke-width:0.5;"/><path d="M264.5,822.125 L264.5,849.125 M251.5,830.125 L277.5,830.125 M264.5,849.125 L251.5,864.125 M264.5,849.125 L277.5,864.125 " fill="none" style="stroke:#181818;stroke-width:0.5;"/><rect fill="#E3E3E3" height="29.6406" rx="2.5" ry="2.5" style="stroke:#181818;stroke-width:0.5;" width="201" x="404" y="50"/><text fill="#000000" font-family="sans-serif" font-size="14" lengthAdjust="spacing" textLength="187" x="411" y="69.6738">:CreateTransactionRequestUI</text><rect fill="#E3E3E3" height="29.6406" rx="2.5" ry="2.5" style="stroke:#181818;stroke-width:0.5;" width="201" x="404" y="789.9844"/><text fill="#000000" font-family="sans-serif" font-size="14" lengthAdjust="spacing" textLength="187" x="411" y="809.6582">:CreateTransactionRequestUI</text><rect fill="#E3E3E3" height="29.6406" rx="2.5" ry="2.5" style="stroke:#181818;stroke-width:0.5;" width="251" x="856" y="789.9844"/><text fill="#000000" font-family="sans-serif" font-size="14" lengthAdjust="spacing" textLength="237" x="863" y="809.6582">:CreateTransactionRequestController</text><rect fill="#E3E3E3" height="29.6406" rx="2.5" ry="2.5" style="stroke:#181818;stroke-width:0.5;" width="97" x="1117" y="50"/><text fill="#000000" font-family="sans-serif" font-size="14" lengthAdjust="spacing" textLength="83" x="1124" y="69.6738">:Repositories</text><rect fill="#E3E3E3" height="29.6406" rx="2.5" ry="2.5" style="stroke:#181818;stroke-width:0.5;" width="97" x="1117" y="789.9844"/><text fill="#000000" font-family="sans-serif" font-size="14" lengthAdjust="spacing" textLength="83" x="1124" y="809.6582">:Repositories</text><rect fill="#E3E3E3" height="45.2813" rx="2.5" ry="2.5" style="stroke:#181818;stroke-width:0.5;" width="97" x="1224" y="34.3594"/><text fill="#000000" font-family="sans-serif" font-size="14" lengthAdjust="spacing" textLength="74" x="1235.5" y="54.0332">repositories</text><text fill="#000000" font-family="sans-serif" font-size="14" lengthAdjust="spacing" textLength="83" x="1231" y="69.6738">:Repositories</text><rect fill="#E3E3E3" height="45.2813" rx="2.5" ry="2.5" style="stroke:#181818;stroke-width:0.5;" width="97" x="1224" y="789.9844"/><text fill="#000000" font-family="sans-serif" font-size="14" lengthAdjust="spacing" textLength="74" x="1235.5" y="809.6582">repositories</text><text fill="#000000" font-family="sans-serif" font-size="14" lengthAdjust="spacing" textLength="83" x="1231" y="825.2988">:Repositories</text><rect fill="#E3E3E3" height="45.2813" rx="2.5" ry="2.5" style="stroke:#181818;stroke-width:0.5;" width="214" x="1351.5" y="34.3594"/><text fill="#000000" font-family="sans-serif" font-size="14" lengthAdjust="spacing" textLength="200" x="1358.5" y="54.0332">TransactionRequestRepository:</text><text fill="#000000" font-family="sans-serif" font-size="14" lengthAdjust="spacing" textLength="191" x="1363" y="69.6738">transactionRequestRepository</text><rect fill="#E3E3E3" height="45.2813" rx="2.5" ry="2.5" style="stroke:#181818;stroke-width:0.5;" width="214" x="1351.5" y="789.9844"/><text fill="#000000" font-family="sans-serif" font-size="14" lengthAdjust="spacing" textLength="200" x="1358.5" y="809.6582">TransactionRequestRepository:</text><text fill="#000000" font-family="sans-serif" font-size="14" lengthAdjust="spacing" textLength="191" x="1363" y="825.2988">transactionRequestRepository</text><rect fill="#E3E3E3" height="45.2813" rx="2.5" ry="2.5" style="stroke:#181818;stroke-width:0.5;" width="146" x="1820.5" y="789.9844"/><text fill="#000000" font-family="sans-serif" font-size="14" lengthAdjust="spacing" textLength="123" x="1832" y="809.6582">transactionRequest</text><text fill="#000000" font-family="sans-serif" font-size="14" lengthAdjust="spacing" textLength="132" x="1827.5" y="825.2988">:TransactionRequest</text><rect fill="#FFFFFF" height="682.3438" style="stroke:#181818;stroke-width:1.0;" width="10" x="23.5" y="90.6406"/><rect fill="#FFFFFF" height="661.8203" style="stroke:#181818;stroke-width:1.0;" width="10" x="259.5" y="111.1641"/><rect fill="#FFFFFF" height="69.1641" style="stroke:#181818;stroke-width:1.0;" width="10" x="499.5" y="139.6875"/><rect fill="#FFFFFF" height="450.0391" style="stroke:#181818;stroke-width:1.0;" width="10" x="499.5" y="294.4219"/><rect fill="#FFFFFF" height="142.6172" style="stroke:#181818;stroke-width:1.0;" width="10" x="976.5" y="322.9453"/><rect fill="#FFFFFF" height="28.5234" style="stroke:#181818;stroke-width:1.0;" width="10" x="1160.5" y="351.4688"/><rect fill="#FFFFFF" height="28.5234" style="stroke:#181818;stroke-width:1.0;" width="10" x="1267.5" y="408.5156"/><rect fill="#FFFFFF" height="221.8516" style="stroke:#181818;stroke-width:1.0;" width="10" x="1453.5" y="465.5625"/><rect fill="#FFFFFF" height="93.5234" style="stroke:#181818;stroke-width:1.0;" width="10" x="1458.5" y="558.3672"/><rect fill="#FFFFFF" height="25" style="stroke:#181818;stroke-width:1.0;" width="10" x="1463.5" y="599.8906"/><polygon fill="#181818" points="247.5,107.1641,257.5,111.1641,247.5,115.1641,251.5,111.1641" style="stroke:#181818;stroke-width:1.0;"/><line style="stroke:#181818;stroke-width:1.0;" x1="33.5" x2="253.5" y1="111.1641" y2="111.1641"/><text fill="#000000" font-family="sans-serif" font-size="13" lengthAdjust="spacing" textLength="207" x="40.5" y="106.4092">asks to make a sale announcement</text><polygon fill="#181818" points="487.5,135.6875,497.5,139.6875,487.5,143.6875,491.5,139.6875" style="stroke:#181818;stroke-width:1.0;"/><line style="stroke:#181818;stroke-width:1.0;" x1="269.5" x2="493.5" y1="139.6875" y2="139.6875"/><text fill="#000000" font-family="sans-serif" font-size="13" lengthAdjust="spacing" textLength="211" x="276.5" y="134.9326">asks to create a sale announcement</text><polygon fill="#181818" points="844,164.2109,854,168.2109,844,172.2109,848,168.2109" style="stroke:#181818;stroke-width:1.0;"/><line style="stroke:#181818;stroke-width:1.0;stroke-dasharray:2.0,2.0;" x1="509.5" x2="850" y1="168.2109" y2="168.2109"/><text fill="#000000" font-family="sans-serif" font-size="13" lengthAdjust="spacing" textLength="36" x="516.5" y="163.4561">create</text><rect fill="#E3E3E3" height="29.6406" rx="2.5" ry="2.5" style="stroke:#181818;stroke-width:0.5;" width="251" x="856" y="147.6875"/><text fill="#000000" font-family="sans-serif" font-size="14" lengthAdjust="spacing" textLength="237" x="863" y="167.3613">:CreateTransactionRequestController</text><polygon fill="#181818" points="280.5,204.8516,270.5,208.8516,280.5,212.8516,276.5,208.8516" style="stroke:#181818;stroke-width:1.0;"/><line style="stroke:#181818;stroke-width:1.0;stroke-dasharray:2.0,2.0;" x1="274.5" x2="503.5" y1="208.8516" y2="208.8516"/><text fill="#000000" font-family="sans-serif" font-size="13" lengthAdjust="spacing" textLength="139" x="286.5" y="204.0967">asks for necessary data</text><polygon fill="#181818" points="44.5,233.375,34.5,237.375,44.5,241.375,40.5,237.375" style="stroke:#181818;stroke-width:1.0;"/><line style="stroke:#181818;stroke-width:1.0;stroke-dasharray:2.0,2.0;" x1="38.5" x2="258.5" y1="237.375" y2="237.375"/><text fill="#000000" font-family="sans-serif" font-size="13" lengthAdjust="spacing" textLength="143" x="50.5" y="232.6201">requests necessary data</text><polygon fill="#181818" points="247.5,261.8984,257.5,265.8984,247.5,269.8984,251.5,265.8984" style="stroke:#181818;stroke-width:1.0;"/><line style="stroke:#181818;stroke-width:1.0;" x1="33.5" x2="253.5" y1="265.8984" y2="265.8984"/><text fill="#000000" font-family="sans-serif" font-size="13" lengthAdjust="spacing" textLength="98" x="40.5" y="261.1436">provides the data</text><polygon fill="#181818" points="487.5,290.4219,497.5,294.4219,487.5,298.4219,491.5,294.4219" style="stroke:#181818;stroke-width:1.0;"/><line style="stroke:#181818;stroke-width:1.0;" x1="269.5" x2="493.5" y1="294.4219" y2="294.4219"/><text fill="#000000" font-family="sans-serif" font-size="13" lengthAdjust="spacing" textLength="128" x="276.5" y="289.667">sends necessary data</text><polygon fill="#181818" points="964.5,318.9453,974.5,322.9453,964.5,326.9453,968.5,322.9453" style="stroke:#181818;stroke-width:1.0;"/><line style="stroke:#181818;stroke-width:1.0;" x1="509.5" x2="970.5" y1="322.9453" y2="322.9453"/><text fill="#000000" font-family="sans-serif" font-size="13" lengthAdjust="spacing" textLength="448" x="516.5" y="318.1904">createTransactionRequest(owner, buyer, agent, price, commission, accepted)</text><polygon fill="#181818" points="1148.5,347.4688,1158.5,351.4688,1148.5,355.4688,1152.5,351.4688" style="stroke:#181818;stroke-width:1.0;"/><line style="stroke:#181818;stroke-width:1.0;" x1="986.5" x2="1154.5" y1="351.4688" y2="351.4688"/><text fill="#000000" font-family="sans-serif" font-size="13" lengthAdjust="spacing" textLength="75" x="993.5" y="346.7139">getInstance()</text><polygon fill="#181818" points="997.5,375.9922,987.5,379.9922,997.5,383.9922,993.5,379.9922" style="stroke:#181818;stroke-width:1.0;"/><line style="stroke:#181818;stroke-width:1.0;stroke-dasharray:2.0,2.0;" x1="991.5" x2="1164.5" y1="379.9922" y2="379.9922"/><text fill="#000000" font-family="sans-serif" font-size="13" lengthAdjust="spacing" textLength="67" x="1003.5" y="375.2373">repositories</text><polygon fill="#181818" points="1255.5,404.5156,1265.5,408.5156,1255.5,412.5156,1259.5,408.5156" style="stroke:#181818;stroke-width:1.0;"/><line style="stroke:#181818;stroke-width:1.0;" x1="986.5" x2="1261.5" y1="408.5156" y2="408.5156"/><text fill="#000000" font-family="sans-serif" font-size="13" lengthAdjust="spacing" textLength="203" x="993.5" y="403.7607">getTransactionRequestRepository()</text><polygon fill="#181818" points="997.5,433.0391,987.5,437.0391,997.5,441.0391,993.5,437.0391" style="stroke:#181818;stroke-width:1.0;"/><line style="stroke:#181818;stroke-width:1.0;stroke-dasharray:2.0,2.0;" x1="991.5" x2="1271.5" y1="437.0391" y2="437.0391"/><text fill="#000000" font-family="sans-serif" font-size="13" lengthAdjust="spacing" textLength="174" x="1003.5" y="432.2842">transactionRequestRepository</text><polygon fill="#181818" points="1441.5,461.5625,1451.5,465.5625,1441.5,469.5625,1445.5,465.5625" style="stroke:#181818;stroke-width:1.0;"/><line style="stroke:#181818;stroke-width:1.0;" x1="981.5" x2="1447.5" y1="465.5625" y2="465.5625"/><text fill="#000000" font-family="sans-serif" font-size="13" lengthAdjust="spacing" textLength="448" x="988.5" y="460.8076">createTransactionRequest(owner, buyer, agent, price, commission, accepted)</text><polygon fill="#181818" points="1808.5,490.0859,1818.5,494.0859,1808.5,498.0859,1812.5,494.0859" style="stroke:#181818;stroke-width:1.0;"/><line style="stroke:#181818;stroke-width:1.0;" x1="1463.5" x2="1814.5" y1="494.0859" y2="494.0859"/><text fill="#000000" font-family="sans-serif" font-size="13" lengthAdjust="spacing" textLength="333" x="1470.5" y="489.3311">create(owner, buyer, agent, price, commission, accepted)</text><rect fill="#E3E3E3" height="45.2813" rx="2.5" ry="2.5" style="stroke:#181818;stroke-width:0.5;" width="146" x="1820.5" y="473.5625"/><text fill="#000000" font-family="sans-serif" font-size="14" lengthAdjust="spacing" textLength="123" x="1832" y="493.2363">transactionRequest</text><text fill="#000000" font-family="sans-serif" font-size="14" lengthAdjust="spacing" textLength="132" x="1827.5" y="508.877">:TransactionRequest</text><line style="stroke:#181818;stroke-width:1.0;stroke-dasharray:2.0,2.0;" x1="1463.5" x2="1510.5" y1="545.3672" y2="545.3672"/><line style="stroke:#181818;stroke-width:1.0;stroke-dasharray:2.0,2.0;" x1="1510.5" x2="1510.5" y1="545.3672" y2="558.3672"/><line style="stroke:#181818;stroke-width:1.0;stroke-dasharray:2.0,2.0;" x1="1469.5" x2="1510.5" y1="558.3672" y2="558.3672"/><polygon fill="#181818" points="1479.5,554.3672,1469.5,558.3672,1479.5,562.3672,1475.5,558.3672" style="stroke:#181818;stroke-width:1.0;"/><text fill="#000000" font-family="sans-serif" font-size="13" lengthAdjust="spacing" textLength="256" x="1475.5" y="540.6123">addTransactionRequest(transactionRequest)</text><line style="stroke:#181818;stroke-width:1.0;" x1="1468.5" x2="1515.5" y1="586.8906" y2="586.8906"/><line style="stroke:#181818;stroke-width:1.0;" x1="1515.5" x2="1515.5" y1="586.8906" y2="599.8906"/><line style="stroke:#181818;stroke-width:1.0;" x1="1474.5" x2="1515.5" y1="599.8906" y2="599.8906"/><polygon fill="#181818" points="1484.5,595.8906,1474.5,599.8906,1484.5,603.8906,1480.5,599.8906" style="stroke:#181818;stroke-width:1.0;"/><text fill="#000000" font-family="sans-serif" font-size="13" lengthAdjust="spacing" textLength="278" x="1480.5" y="582.1357">validateTransactionRequest(transactionRequest)</text><line style="stroke:#181818;stroke-width:1.0;stroke-dasharray:2.0,2.0;" x1="1473.5" x2="1515.5" y1="623.8906" y2="623.8906"/><line style="stroke:#181818;stroke-width:1.0;stroke-dasharray:2.0,2.0;" x1="1515.5" x2="1515.5" y1="623.8906" y2="636.8906"/><line style="stroke:#181818;stroke-width:1.0;stroke-dasharray:2.0,2.0;" x1="1468.5" x2="1515.5" y1="636.8906" y2="636.8906"/><polygon fill="#181818" points="1478.5,632.8906,1468.5,636.8906,1478.5,640.8906,1474.5,636.8906" style="stroke:#181818;stroke-width:1.0;"/><line style="stroke:#181818;stroke-width:1.0;stroke-dasharray:2.0,2.0;" x1="1468.5" x2="1510.5" y1="650.8906" y2="650.8906"/><line style="stroke:#181818;stroke-width:1.0;stroke-dasharray:2.0,2.0;" x1="1510.5" x2="1510.5" y1="650.8906" y2="663.8906"/><line style="stroke:#181818;stroke-width:1.0;stroke-dasharray:2.0,2.0;" x1="1463.5" x2="1510.5" y1="663.8906" y2="663.8906"/><polygon fill="#181818" points="1473.5,659.8906,1463.5,663.8906,1473.5,667.8906,1469.5,663.8906" style="stroke:#181818;stroke-width:1.0;"/><polygon fill="#181818" points="992.5,683.4141,982.5,687.4141,992.5,691.4141,988.5,687.4141" style="stroke:#181818;stroke-width:1.0;"/><line style="stroke:#181818;stroke-width:1.0;stroke-dasharray:2.0,2.0;" x1="986.5" x2="1457.5" y1="687.4141" y2="687.4141"/><text fill="#000000" font-family="sans-serif" font-size="13" lengthAdjust="spacing" textLength="112" x="998.5" y="682.6592">transactionRequest</text><polygon fill="#181818" points="520.5,711.9375,510.5,715.9375,520.5,719.9375,516.5,715.9375" style="stroke:#181818;stroke-width:1.0;"/><line style="stroke:#181818;stroke-width:1.0;stroke-dasharray:2.0,2.0;" x1="514.5" x2="980.5" y1="715.9375" y2="715.9375"/><text fill="#000000" font-family="sans-serif" font-size="13" lengthAdjust="spacing" textLength="112" x="526.5" y="711.1826">transactionRequest</text><polygon fill="#181818" points="280.5,740.4609,270.5,744.4609,280.5,748.4609,276.5,744.4609" style="stroke:#181818;stroke-width:1.0;"/><line style="stroke:#181818;stroke-width:1.0;stroke-dasharray:2.0,2.0;" x1="274.5" x2="503.5" y1="744.4609" y2="744.4609"/><text fill="#000000" font-family="sans-serif" font-size="13" lengthAdjust="spacing" textLength="158" x="286.5" y="739.7061">displays operation success</text><polygon fill="#181818" points="39.5,768.9844,29.5,772.9844,39.5,776.9844,35.5,772.9844" style="stroke:#181818;stroke-width:1.0;"/><line style="stroke:#181818;stroke-width:1.0;stroke-dasharray:2.0,2.0;" x1="33.5" x2="263.5" y1="772.9844" y2="772.9844"/><text fill="#000000" font-family="sans-serif" font-size="13" lengthAdjust="spacing" textLength="138" x="45.5" y="768.2295">communicates success</text><!--SRC=[hLRBRk8m55qdNs6nwY3u0HOZ8TG5KjNEyDXrSyUv1Ol4pjWE5Ny_rtR9ep41EiqcaNtFkUU-x9Y3a2LeA5YXfE9xhGfaLbUOcdgd17w07QxjAKUcaLkGkxnjOFQGgNSXT-mDSeDf2jmgpKOlxnBrY85XodsTb-SxbDOlW_jAKsAnWeiIf6MZsK8ZMDnea8O0GiaL_gtGsEtIOxRB6-qNIbgjyln3mcApUlg4N66fZ21D0estgHTEQ-5Yj4fs8Rg5U9LzWbzFyqqNqTVLE9czaiBBsvvn2D_rrASYXNruO5tDdzVpnMRvyhnw_BrzN6zyqSIHClbHhCI_sFHdg1AR4UvWc5MiW0CoO0Qe7K1ALKcEXIzaKdE4oYP9m1B9TjbYuBva5pWQ4YfraYI4d1A1gzzuJ2G1dBQsEWBVgCKaSZG6z8bbO84iCsoJDhe87CASKMFxz9ZFO3BkPQBKwYWof5ZsM5jrGpKeinXN9BWGMnrPlsGFNi24_QbExkKTJKY4u3XXN1M5C8QiQOTpB2rcFtnsQbU-zMaXyNx8NwJFoVqExL8QccwE3u6XeOXDHieYJupwN3wNv6PW-lXMbMxoTmx7JLtGFpGjlPZyi4Q3y8JJfZ13KpeOHd3HJlsGmkzjWQJJzhu7EbqnUB8uoODINIYzGsGyFaVmDRrNN5vF7sHP97VzydrkXQkvk9wCOM57o4KMh-n5TVV8-x_C1OvMjmmQfz_ay2v_LzrT7DNqJbTXKlqv7gMBN3oPC6KE9_hFAL63CsQcukxel-tkSGDHIS79nZJ85Z1Sfws5S4V_0m00]--></g></svg>