<?xml version="1.0" encoding="us-ascii" standalone="no"?><svg xmlns="http://www.w3.org/2000/svg" xmlns:xlink="http://www.w3.org/1999/xlink" contentStyleType="text/css" height="373px" preserveAspectRatio="none" style="width:1220px;height:373px;background:#FFFFFF;" version="1.1" viewBox="0 0 1220 373" width="1220px" zoomAndPan="magnify"><defs/><g><!--class CreateTransactionRequestUI--><g id="elem_CreateTransactionRequestUI"><rect codeLine="11" fill="#F1F1F1" height="48" id="CreateTransactionRequestUI" rx="2.5" ry="2.5" style="stroke:#181818;stroke-width:0.5;" width="215" x="7" y="30.5"/><ellipse cx="22" cy="46.5" fill="#ADD1B2" rx="11" ry="11" style="stroke:#181818;stroke-width:1.0;"/><path d="M24.7656,42.375 Q24.9219,42.1563 25.1094,42.0469 Q25.2969,41.9375 25.5156,41.9375 Q25.8906,41.9375 26.125,42.2031 Q26.3594,42.4531 26.3594,43.0625 L26.3594,44.5156 Q26.3594,45.125 26.125,45.3906 Q25.8906,45.6563 25.5156,45.6563 Q25.1719,45.6563 24.9688,45.4531 Q24.7656,45.2656 24.6563,44.75 Q24.6094,44.3906 24.4219,44.2031 Q24.0938,43.8281 23.4844,43.6094 Q22.875,43.3906 22.25,43.3906 Q21.4844,43.3906 20.8438,43.7188 Q20.2188,44.0469 19.7188,44.7969 Q19.2344,45.5469 19.2344,46.5781 L19.2344,47.6719 Q19.2344,48.9063 20.125,49.7344 Q21.0156,50.5469 22.6094,50.5469 Q23.5469,50.5469 24.2031,50.2969 Q24.5938,50.1406 25.0156,49.7031 Q25.2813,49.4375 25.4219,49.3594 Q25.5781,49.2813 25.7813,49.2813 Q26.1094,49.2813 26.3594,49.5469 Q26.625,49.7969 26.625,50.1406 Q26.625,50.4844 26.2813,50.8906 Q25.7813,51.4688 24.9844,51.7969 Q23.9063,52.25 22.6094,52.25 Q21.0938,52.25 19.8906,51.625 Q18.9063,51.125 18.2188,50.0625 Q17.5313,48.9844 17.5313,47.7031 L17.5313,46.5469 Q17.5313,45.2188 18.1406,44.0781 Q18.7656,42.9219 19.8594,42.3125 Q20.9531,41.6875 22.1875,41.6875 Q22.9219,41.6875 23.5625,41.8594 Q24.2188,42.0156 24.7656,42.375 Z " fill="#000000"/><text fill="#000000" font-family="sans-serif" font-size="14" lengthAdjust="spacing" textLength="183" x="36" y="51.3535">CreateTransactionRequestUI</text><line style="stroke:#181818;stroke-width:0.5;" x1="8" x2="221" y1="62.5" y2="62.5"/><line style="stroke:#181818;stroke-width:0.5;" x1="8" x2="221" y1="70.5" y2="70.5"/></g><!--class CreateTransactionRequestController--><g id="elem_CreateTransactionRequestController"><rect codeLine="13" fill="#F1F1F1" height="94.9219" id="CreateTransactionRequestController" rx="2.5" ry="2.5" style="stroke:#181818;stroke-width:0.5;" width="510" x="257.5" y="7"/><ellipse cx="391.75" cy="23" fill="#ADD1B2" rx="11" ry="11" style="stroke:#181818;stroke-width:1.0;"/><path d="M394.5156,18.875 Q394.6719,18.6563 394.8594,18.5469 Q395.0469,18.4375 395.2656,18.4375 Q395.6406,18.4375 395.875,18.7031 Q396.1094,18.9531 396.1094,19.5625 L396.1094,21.0156 Q396.1094,21.625 395.875,21.8906 Q395.6406,22.1563 395.2656,22.1563 Q394.9219,22.1563 394.7188,21.9531 Q394.5156,21.7656 394.4063,21.25 Q394.3594,20.8906 394.1719,20.7031 Q393.8438,20.3281 393.2344,20.1094 Q392.625,19.8906 392,19.8906 Q391.2344,19.8906 390.5938,20.2188 Q389.9688,20.5469 389.4688,21.2969 Q388.9844,22.0469 388.9844,23.0781 L388.9844,24.1719 Q388.9844,25.4063 389.875,26.2344 Q390.7656,27.0469 392.3594,27.0469 Q393.2969,27.0469 393.9531,26.7969 Q394.3438,26.6406 394.7656,26.2031 Q395.0313,25.9375 395.1719,25.8594 Q395.3281,25.7813 395.5313,25.7813 Q395.8594,25.7813 396.1094,26.0469 Q396.375,26.2969 396.375,26.6406 Q396.375,26.9844 396.0313,27.3906 Q395.5313,27.9688 394.7344,28.2969 Q393.6563,28.75 392.3594,28.75 Q390.8438,28.75 389.6406,28.125 Q388.6563,27.625 387.9688,26.5625 Q387.2813,25.4844 387.2813,24.2031 L387.2813,23.0469 Q387.2813,21.7188 387.8906,20.5781 Q388.5156,19.4219 389.6094,18.8125 Q390.7031,18.1875 391.9375,18.1875 Q392.6719,18.1875 393.3125,18.3594 Q393.9688,18.5156 394.5156,18.875 Z " fill="#000000"/><text fill="#000000" font-family="sans-serif" font-size="14" lengthAdjust="spacing" textLength="233" x="412.25" y="27.8535">CreateTransactionRequestController</text><line style="stroke:#181818;stroke-width:0.5;" x1="258.5" x2="766.5" y1="39" y2="39"/><line style="stroke:#181818;stroke-width:0.5;" x1="258.5" x2="766.5" y1="47" y2="47"/><text fill="#000000" font-family="sans-serif" font-size="14" lengthAdjust="spacing" textLength="449" x="263.5" y="63.6738">+CreateTransactionRequestController(transactionRequestsRepository)</text><text fill="#000000" font-family="sans-serif" font-size="14" lengthAdjust="spacing" textLength="234" x="263.5" y="79.3145">+getTransactionRequestRepository()</text><text fill="#000000" font-family="sans-serif" font-size="14" lengthAdjust="spacing" textLength="498" x="263.5" y="94.9551">+createTransactionRequest(owner, buyer, agent, price, commission, accepted)</text></g><!--class Repositories--><g id="elem_Repositories"><rect codeLine="19" fill="#F1F1F1" height="94.9219" id="Repositories" rx="2.5" ry="2.5" style="stroke:#181818;stroke-width:0.5;" width="246" x="871.5" y="7"/><ellipse cx="950.75" cy="23" fill="#ADD1B2" rx="11" ry="11" style="stroke:#181818;stroke-width:1.0;"/><path d="M953.5156,18.875 Q953.6719,18.6563 953.8594,18.5469 Q954.0469,18.4375 954.2656,18.4375 Q954.6406,18.4375 954.875,18.7031 Q955.1094,18.9531 955.1094,19.5625 L955.1094,21.0156 Q955.1094,21.625 954.875,21.8906 Q954.6406,22.1563 954.2656,22.1563 Q953.9219,22.1563 953.7188,21.9531 Q953.5156,21.7656 953.4063,21.25 Q953.3594,20.8906 953.1719,20.7031 Q952.8438,20.3281 952.2344,20.1094 Q951.625,19.8906 951,19.8906 Q950.2344,19.8906 949.5938,20.2188 Q948.9688,20.5469 948.4688,21.2969 Q947.9844,22.0469 947.9844,23.0781 L947.9844,24.1719 Q947.9844,25.4063 948.875,26.2344 Q949.7656,27.0469 951.3594,27.0469 Q952.2969,27.0469 952.9531,26.7969 Q953.3438,26.6406 953.7656,26.2031 Q954.0313,25.9375 954.1719,25.8594 Q954.3281,25.7813 954.5313,25.7813 Q954.8594,25.7813 955.1094,26.0469 Q955.375,26.2969 955.375,26.6406 Q955.375,26.9844 955.0313,27.3906 Q954.5313,27.9688 953.7344,28.2969 Q952.6563,28.75 951.3594,28.75 Q949.8438,28.75 948.6406,28.125 Q947.6563,27.625 946.9688,26.5625 Q946.2813,25.4844 946.2813,24.2031 L946.2813,23.0469 Q946.2813,21.7188 946.8906,20.5781 Q947.5156,19.4219 948.6094,18.8125 Q949.7031,18.1875 950.9375,18.1875 Q951.6719,18.1875 952.3125,18.3594 Q952.9688,18.5156 953.5156,18.875 Z " fill="#000000"/><text fill="#000000" font-family="sans-serif" font-size="14" lengthAdjust="spacing" textLength="79" x="971.25" y="27.8535">Repositories</text><line style="stroke:#181818;stroke-width:0.5;" x1="872.5" x2="1116.5" y1="39" y2="39"/><line style="stroke:#181818;stroke-width:0.5;" x1="872.5" x2="1116.5" y1="47" y2="47"/><text fill="#000000" font-family="sans-serif" font-size="14" lengthAdjust="spacing" textLength="94" x="877.5" y="63.6738">-Repositories()</text><text fill="#000000" font-family="sans-serif" font-size="14" lengthAdjust="spacing" textLength="182" x="877.5" y="79.3145">+getInstance() : Repositories</text><text fill="#000000" font-family="sans-serif" font-size="14" lengthAdjust="spacing" textLength="234" x="877.5" y="94.9551">+getTransactionRequestRepository()</text></g><!--class TransactionRequest--><g id="elem_TransactionRequest"><rect codeLine="25" fill="#F1F1F1" height="141.8438" id="TransactionRequest" rx="2.5" ry="2.5" style="stroke:#181818;stroke-width:0.5;" width="160" x="432.5" y="201.5"/><ellipse cx="447.5" cy="217.5" fill="#ADD1B2" rx="11" ry="11" style="stroke:#181818;stroke-width:1.0;"/><path d="M450.2656,213.375 Q450.4219,213.1563 450.6094,213.0469 Q450.7969,212.9375 451.0156,212.9375 Q451.3906,212.9375 451.625,213.2031 Q451.8594,213.4531 451.8594,214.0625 L451.8594,215.5156 Q451.8594,216.125 451.625,216.3906 Q451.3906,216.6563 451.0156,216.6563 Q450.6719,216.6563 450.4688,216.4531 Q450.2656,216.2656 450.1563,215.75 Q450.1094,215.3906 449.9219,215.2031 Q449.5938,214.8281 448.9844,214.6094 Q448.375,214.3906 447.75,214.3906 Q446.9844,214.3906 446.3438,214.7188 Q445.7188,215.0469 445.2188,215.7969 Q444.7344,216.5469 444.7344,217.5781 L444.7344,218.6719 Q444.7344,219.9063 445.625,220.7344 Q446.5156,221.5469 448.1094,221.5469 Q449.0469,221.5469 449.7031,221.2969 Q450.0938,221.1406 450.5156,220.7031 Q450.7813,220.4375 450.9219,220.3594 Q451.0781,220.2813 451.2813,220.2813 Q451.6094,220.2813 451.8594,220.5469 Q452.125,220.7969 452.125,221.1406 Q452.125,221.4844 451.7813,221.8906 Q451.2813,222.4688 450.4844,222.7969 Q449.4063,223.25 448.1094,223.25 Q446.5938,223.25 445.3906,222.625 Q444.4063,222.125 443.7188,221.0625 Q443.0313,219.9844 443.0313,218.7031 L443.0313,217.5469 Q443.0313,216.2188 443.6406,215.0781 Q444.2656,213.9219 445.3594,213.3125 Q446.4531,212.6875 447.6875,212.6875 Q448.4219,212.6875 449.0625,212.8594 Q449.7188,213.0156 450.2656,213.375 Z " fill="#000000"/><text fill="#000000" font-family="sans-serif" font-size="14" lengthAdjust="spacing" textLength="128" x="461.5" y="222.3535">TransactionRequest</text><line style="stroke:#181818;stroke-width:0.5;" x1="433.5" x2="591.5" y1="233.5" y2="233.5"/><text fill="#000000" font-family="sans-serif" font-size="14" lengthAdjust="spacing" textLength="92" x="438.5" y="250.1738">-Person owner</text><text fill="#000000" font-family="sans-serif" font-size="14" lengthAdjust="spacing" textLength="90" x="438.5" y="265.8145">-Person buyer</text><text fill="#000000" font-family="sans-serif" font-size="14" lengthAdjust="spacing" textLength="107" x="438.5" y="281.4551">-Employee agent</text><text fill="#000000" font-family="sans-serif" font-size="14" lengthAdjust="spacing" textLength="55" x="438.5" y="297.0957">-int price</text><text fill="#000000" font-family="sans-serif" font-size="14" lengthAdjust="spacing" textLength="109" x="438.5" y="312.7363">-float commission</text><text fill="#000000" font-family="sans-serif" font-size="14" lengthAdjust="spacing" textLength="118" x="438.5" y="328.377">-boolean accepted</text><line style="stroke:#181818;stroke-width:0.5;" x1="433.5" x2="591.5" y1="335.3438" y2="335.3438"/></g><!--class Employee--><g id="elem_Employee"><rect codeLine="34" fill="#F1F1F1" height="188.7656" id="Employee" rx="2.5" ry="2.5" style="stroke:#181818;stroke-width:0.5;" width="94" x="67.5" y="178"/><ellipse cx="82.5" cy="194" fill="#ADD1B2" rx="11" ry="11" style="stroke:#181818;stroke-width:1.0;"/><path d="M85.2656,189.875 Q85.4219,189.6563 85.6094,189.5469 Q85.7969,189.4375 86.0156,189.4375 Q86.3906,189.4375 86.625,189.7031 Q86.8594,189.9531 86.8594,190.5625 L86.8594,192.0156 Q86.8594,192.625 86.625,192.8906 Q86.3906,193.1563 86.0156,193.1563 Q85.6719,193.1563 85.4688,192.9531 Q85.2656,192.7656 85.1563,192.25 Q85.1094,191.8906 84.9219,191.7031 Q84.5938,191.3281 83.9844,191.1094 Q83.375,190.8906 82.75,190.8906 Q81.9844,190.8906 81.3438,191.2188 Q80.7188,191.5469 80.2188,192.2969 Q79.7344,193.0469 79.7344,194.0781 L79.7344,195.1719 Q79.7344,196.4063 80.625,197.2344 Q81.5156,198.0469 83.1094,198.0469 Q84.0469,198.0469 84.7031,197.7969 Q85.0938,197.6406 85.5156,197.2031 Q85.7813,196.9375 85.9219,196.8594 Q86.0781,196.7813 86.2813,196.7813 Q86.6094,196.7813 86.8594,197.0469 Q87.125,197.2969 87.125,197.6406 Q87.125,197.9844 86.7813,198.3906 Q86.2813,198.9688 85.4844,199.2969 Q84.4063,199.75 83.1094,199.75 Q81.5938,199.75 80.3906,199.125 Q79.4063,198.625 78.7188,197.5625 Q78.0313,196.4844 78.0313,195.2031 L78.0313,194.0469 Q78.0313,192.7188 78.6406,191.5781 Q79.2656,190.4219 80.3594,189.8125 Q81.4531,189.1875 82.6875,189.1875 Q83.4219,189.1875 84.0625,189.3594 Q84.7188,189.5156 85.2656,189.875 Z " fill="#000000"/><text fill="#000000" font-family="sans-serif" font-size="14" lengthAdjust="spacing" textLength="62" x="96.5" y="198.8535">Employee</text><line style="stroke:#181818;stroke-width:0.5;" x1="68.5" x2="160.5" y1="210" y2="210"/><text fill="#000000" font-family="sans-serif" font-size="14" lengthAdjust="spacing" textLength="40" x="73.5" y="226.6738">-name</text><text fill="#000000" font-family="sans-serif" font-size="14" lengthAdjust="spacing" textLength="38" x="73.5" y="242.3145">-email</text><text fill="#000000" font-family="sans-serif" font-size="14" lengthAdjust="spacing" textLength="65" x="73.5" y="257.9551">-password</text><text fill="#000000" font-family="sans-serif" font-size="14" lengthAdjust="spacing" textLength="29" x="73.5" y="273.5957">-role</text><text fill="#000000" font-family="sans-serif" font-size="14" lengthAdjust="spacing" textLength="60" x="73.5" y="289.2363">-passport</text><text fill="#000000" font-family="sans-serif" font-size="14" lengthAdjust="spacing" textLength="24" x="73.5" y="304.877">-vat</text><text fill="#000000" font-family="sans-serif" font-size="14" lengthAdjust="spacing" textLength="56" x="73.5" y="320.5176">-address</text><text fill="#000000" font-family="sans-serif" font-size="14" lengthAdjust="spacing" textLength="45" x="73.5" y="336.1582">-phone</text><text fill="#000000" font-family="sans-serif" font-size="14" lengthAdjust="spacing" textLength="51" x="73.5" y="351.7988">-agency</text><line style="stroke:#181818;stroke-width:0.5;" x1="68.5" x2="160.5" y1="358.7656" y2="358.7656"/></g><!--class TransactionRequestRepository--><g id="elem_TransactionRequestRepository"><rect fill="#F1F1F1" height="48" id="TransactionRequestRepository" rx="2.5" ry="2.5" style="stroke:#181818;stroke-width:0.5;" width="228" x="880.5" y="248.5"/><ellipse cx="895.5" cy="264.5" fill="#ADD1B2" rx="11" ry="11" style="stroke:#181818;stroke-width:1.0;"/><path d="M898.2656,260.375 Q898.4219,260.1563 898.6094,260.0469 Q898.7969,259.9375 899.0156,259.9375 Q899.3906,259.9375 899.625,260.2031 Q899.8594,260.4531 899.8594,261.0625 L899.8594,262.5156 Q899.8594,263.125 899.625,263.3906 Q899.3906,263.6563 899.0156,263.6563 Q898.6719,263.6563 898.4688,263.4531 Q898.2656,263.2656 898.1563,262.75 Q898.1094,262.3906 897.9219,262.2031 Q897.5938,261.8281 896.9844,261.6094 Q896.375,261.3906 895.75,261.3906 Q894.9844,261.3906 894.3438,261.7188 Q893.7188,262.0469 893.2188,262.7969 Q892.7344,263.5469 892.7344,264.5781 L892.7344,265.6719 Q892.7344,266.9063 893.625,267.7344 Q894.5156,268.5469 896.1094,268.5469 Q897.0469,268.5469 897.7031,268.2969 Q898.0938,268.1406 898.5156,267.7031 Q898.7813,267.4375 898.9219,267.3594 Q899.0781,267.2813 899.2813,267.2813 Q899.6094,267.2813 899.8594,267.5469 Q900.125,267.7969 900.125,268.1406 Q900.125,268.4844 899.7813,268.8906 Q899.2813,269.4688 898.4844,269.7969 Q897.4063,270.25 896.1094,270.25 Q894.5938,270.25 893.3906,269.625 Q892.4063,269.125 891.7188,268.0625 Q891.0313,266.9844 891.0313,265.7031 L891.0313,264.5469 Q891.0313,263.2188 891.6406,262.0781 Q892.2656,260.9219 893.3594,260.3125 Q894.4531,259.6875 895.6875,259.6875 Q896.4219,259.6875 897.0625,259.8594 Q897.7188,260.0156 898.2656,260.375 Z " fill="#000000"/><text fill="#000000" font-family="sans-serif" font-size="14" lengthAdjust="spacing" textLength="196" x="909.5" y="269.3535">TransactionRequestRepository</text><line style="stroke:#181818;stroke-width:0.5;" x1="881.5" x2="1107.5" y1="280.5" y2="280.5"/><line style="stroke:#181818;stroke-width:0.5;" x1="881.5" x2="1107.5" y1="288.5" y2="288.5"/></g><!--link Repositories to Repositories--><g id="link_Repositories_Repositories"><path codeLine="46" d="M1117.72,39.86 C1138.3,41.91 1152.5,46.79 1152.5,54.5 C1152.5,61.55 1140.63,66.23 1122.88,68.55 " fill="none" id="Repositories-to-Repositories" style="stroke:#181818;stroke-width:1.0;"/><polygon fill="#181818" points="1117.72,69.14,1127.1095,72.1128,1122.6889,68.5831,1126.2185,64.1625,1117.72,69.14" style="stroke:#181818;stroke-width:1.0;"/><text fill="#000000" font-family="sans-serif" font-size="13" lengthAdjust="spacing" textLength="49" x="1158.5" y="59.2686">instance</text></g><!--link CreateTransactionRequestUI to CreateTransactionRequestController--><g id="link_CreateTransactionRequestUI_CreateTransactionRequestController"><path codeLine="48" d="M222.21,54.5 C236.96,54.5 247.17,54.5 247.17,54.5 C247.17,54.5 248.94,54.5 252.07,54.5 " fill="none" id="CreateTransactionRequestUI-to-CreateTransactionRequestController" style="stroke:#181818;stroke-width:1.0;stroke-dasharray:7.0,7.0;"/><polygon fill="#181818" points="257.14,54.5,248.14,50.5,252.14,54.5,248.14,58.5,257.14,54.5" style="stroke:#181818;stroke-width:1.0;"/></g><!--link CreateTransactionRequestController to Repositories--><g id="link_CreateTransactionRequestController_Repositories"><path codeLine="50" d="M767.61,54.5 C801.77,54.5 835.54,54.5 866.18,54.5 " fill="none" id="CreateTransactionRequestController-to-Repositories" style="stroke:#181818;stroke-width:1.0;stroke-dasharray:7.0,7.0;"/><polygon fill="#181818" points="871.47,54.5,862.47,50.5,866.47,54.5,862.47,58.5,871.47,54.5" style="stroke:#181818;stroke-width:1.0;"/><text fill="#000000" font-family="sans-serif" font-size="13" lengthAdjust="spacing" textLength="67" x="786" y="48.2686">repositories</text></g><!--link Repositories to TransactionRequestRepository--><g id="link_Repositories_TransactionRequestRepository"><path codeLine="52" d="M994.5,102.1 C994.5,145.01 994.5,207.28 994.5,243.15 " fill="none" id="Repositories-to-TransactionRequestRepository" style="stroke:#181818;stroke-width:1.0;"/><polygon fill="#181818" points="994.5,248.25,998.5,239.25,994.5,243.25,990.5,239.25,994.5,248.25" style="stroke:#181818;stroke-width:1.0;"/><text fill="#000000" font-family="sans-serif" font-size="13" lengthAdjust="spacing" textLength="7" x="986.5594" y="237.6905">1</text></g><!--link CreateTransactionRequestController to TransactionRequest--><g id="link_CreateTransactionRequestController_TransactionRequest"><path codeLine="54" d="M512.5,102.1 C512.5,129.42 512.5,164.58 512.5,195.79 " fill="none" id="CreateTransactionRequestController-to-TransactionRequest" style="stroke:#181818;stroke-width:1.0;stroke-dasharray:7.0,7.0;"/><polygon fill="#181818" points="512.5,201.16,516.5,192.16,512.5,196.16,508.5,192.16,512.5,201.16" style="stroke:#181818;stroke-width:1.0;"/><text fill="#000000" font-family="sans-serif" font-size="13" lengthAdjust="spacing" textLength="177" x="513.5" y="144.7686">TransactionRequestRepository</text></g><!--link CreateTransactionRequestUI to Employee--><g id="link_CreateTransactionRequestUI_Employee"><path codeLine="56" d="M114.5,78.62 C114.5,101.38 114.5,137.75 114.5,172.8 " fill="none" id="CreateTransactionRequestUI-to-Employee" style="stroke:#181818;stroke-width:1.0;"/><polygon fill="#181818" points="114.5,177.96,118.5,168.96,114.5,172.96,110.5,168.96,114.5,177.96" style="stroke:#181818;stroke-width:1.0;"/><text fill="#000000" font-family="sans-serif" font-size="13" lengthAdjust="spacing" textLength="65" x="115.5" y="144.7686">acessedBy</text></g><!--SRC=[dLBBJYin35sJhx3Oj1KjucwxG0B4eZi4t0z8C-uq8XC7nwKQqFrtahHtEgKyAcOpiNtYu-EJGNooFcZM3JJaoIoP6WJX5QfT9MZpf6jyaDOXC1hHldPzG5pgYjRMrx3GBlOhpdgKDY04ScqErE2J8h6GwjqoJiTu9S9slXAS6V8FzXNXGgc1muM04B2jbmALpUDOyagLEt33g0KVMVkeI-4UdrSOvUyCtlxz1BeXBqpE8SEREZax0ZUKWsAynq3H2d4xoargbCCEEyomWCmNJ4DQU-Gnp5Tj_YKJl8mXi3Ku1aDDOsDCw5Gn1eDWDLAToex3Oanw87sJlMIYpiaouip7vAh1uGYcUw0Tv0SL7UyXBczp0dV8aJmKHRsuIClnRHCSjOWRbJbZlMoqvc3XI4jFSyxDYHngtwdV3T4r-o_SwmQtHsoqTTjpIE0rSRKDawk5BAT3UfNv_ABBJrSLOuobkYHVO7bIqsRMlMLFBlUNFqrADkjLwfi7Udvvn8lxkaFlzPuV3C1zIpzCcyOz_NCAt_bx76kY_SJywIyxfutaqJedfydcP01Mr-qx]--></g></svg>