<?xml version="1.0" encoding="us-ascii" standalone="no"?><svg xmlns="http://www.w3.org/2000/svg" xmlns:xlink="http://www.w3.org/1999/xlink" contentStyleType="text/css" height="666px" preserveAspectRatio="none" style="width:1904px;height:666px;background:#FFFFFF;" version="1.1" viewBox="0 0 1904 666" width="1904px" zoomAndPan="magnify"><defs/><g><!--class VisitRequestUI--><g id="elem_VisitRequestUI"><rect codeLine="9" fill="#F1F1F1" height="48" id="VisitRequestUI" rx="2.5" ry="2.5" style="stroke:#181818;stroke-width:0.5;" width="134" x="441.5" y="56"/><ellipse cx="456.5" cy="72" fill="#ADD1B2" rx="11" ry="11" style="stroke:#181818;stroke-width:1.0;"/><path d="M459.4688,77.6406 Q458.8906,77.9375 458.25,78.0781 Q457.6094,78.2344 456.9063,78.2344 Q454.4063,78.2344 453.0781,76.5938 Q451.7656,74.9375 451.7656,71.8125 Q451.7656,68.6875 453.0781,67.0313 Q454.4063,65.375 456.9063,65.375 Q457.6094,65.375 458.25,65.5313 Q458.9063,65.6875 459.4688,65.9844 L459.4688,68.7031 Q458.8438,68.125 458.25,67.8594 Q457.6563,67.5781 457.0313,67.5781 Q455.6875,67.5781 455,68.6563 Q454.3125,69.7188 454.3125,71.8125 Q454.3125,73.9063 455,74.9844 Q455.6875,76.0469 457.0313,76.0469 Q457.6563,76.0469 458.25,75.7813 Q458.8438,75.5 459.4688,74.9219 L459.4688,77.6406 Z " fill="#000000"/><text fill="#000000" font-family="sans-serif" font-size="14" lengthAdjust="spacing" textLength="102" x="470.5" y="76.8467">VisitRequestUI</text><line style="stroke:#181818;stroke-width:0.5;" x1="442.5" x2="574.5" y1="88" y2="88"/><line style="stroke:#181818;stroke-width:0.5;" x1="442.5" x2="574.5" y1="96" y2="96"/></g><!--class VisitRequestController--><g id="elem_VisitRequestController"><rect codeLine="11" fill="#F1F1F1" height="113.1875" id="VisitRequestController" rx="2.5" ry="2.5" style="stroke:#181818;stroke-width:0.5;" width="191" x="611" y="23.5"/><ellipse cx="626" cy="39.5" fill="#ADD1B2" rx="11" ry="11" style="stroke:#181818;stroke-width:1.0;"/><path d="M628.9688,45.1406 Q628.3906,45.4375 627.75,45.5781 Q627.1094,45.7344 626.4063,45.7344 Q623.9063,45.7344 622.5781,44.0938 Q621.2656,42.4375 621.2656,39.3125 Q621.2656,36.1875 622.5781,34.5313 Q623.9063,32.875 626.4063,32.875 Q627.1094,32.875 627.75,33.0313 Q628.4063,33.1875 628.9688,33.4844 L628.9688,36.2031 Q628.3438,35.625 627.75,35.3594 Q627.1563,35.0781 626.5313,35.0781 Q625.1875,35.0781 624.5,36.1563 Q623.8125,37.2188 623.8125,39.3125 Q623.8125,41.4063 624.5,42.4844 Q625.1875,43.5469 626.5313,43.5469 Q627.1563,43.5469 627.75,43.2813 Q628.3438,43 628.9688,42.4219 L628.9688,45.1406 Z " fill="#000000"/><text fill="#000000" font-family="sans-serif" font-size="14" lengthAdjust="spacing" textLength="159" x="640" y="44.3467">VisitRequestController</text><line style="stroke:#181818;stroke-width:0.5;" x1="612" x2="801" y1="55.5" y2="55.5"/><text fill="#000000" font-family="sans-serif" font-size="14" lengthAdjust="spacing" textLength="130" x="617" y="72.4951">+getEmployeeList</text><text fill="#000000" font-family="sans-serif" font-size="14" lengthAdjust="spacing" textLength="119" x="617" y="88.792">+getPropertyList</text><text fill="#000000" font-family="sans-serif" font-size="14" lengthAdjust="spacing" textLength="121" x="617" y="105.0889">+getMessageList</text><text fill="#000000" font-family="sans-serif" font-size="14" lengthAdjust="spacing" textLength="107" x="617" y="121.3857">+getPersonList</text><line style="stroke:#181818;stroke-width:0.5;" x1="612" x2="801" y1="128.6875" y2="128.6875"/></g><!--class EmployeeMapper--><g id="elem_EmployeeMapper"><rect codeLine="18" fill="#F1F1F1" height="64.2969" id="EmployeeMapper" rx="2.5" ry="2.5" style="stroke:#181818;stroke-width:0.5;" width="263" x="7" y="214"/><ellipse cx="71.75" cy="230" fill="#ADD1B2" rx="11" ry="11" style="stroke:#181818;stroke-width:1.0;"/><path d="M74.7188,235.6406 Q74.1406,235.9375 73.5,236.0781 Q72.8594,236.2344 72.1563,236.2344 Q69.6563,236.2344 68.3281,234.5938 Q67.0156,232.9375 67.0156,229.8125 Q67.0156,226.6875 68.3281,225.0313 Q69.6563,223.375 72.1563,223.375 Q72.8594,223.375 73.5,223.5313 Q74.1563,223.6875 74.7188,223.9844 L74.7188,226.7031 Q74.0938,226.125 73.5,225.8594 Q72.9063,225.5781 72.2813,225.5781 Q70.9375,225.5781 70.25,226.6563 Q69.5625,227.7188 69.5625,229.8125 Q69.5625,231.9063 70.25,232.9844 Q70.9375,234.0469 72.2813,234.0469 Q72.9063,234.0469 73.5,233.7813 Q74.0938,233.5 74.7188,232.9219 L74.7188,235.6406 Z " fill="#000000"/><text fill="#000000" font-family="sans-serif" font-size="14" lengthAdjust="spacing" textLength="125" x="92.25" y="234.8467">EmployeeMapper</text><line style="stroke:#181818;stroke-width:0.5;" x1="8" x2="269" y1="246" y2="246"/><line style="stroke:#181818;stroke-width:0.5;" x1="8" x2="269" y1="254" y2="254"/><text fill="#000000" font-family="sans-serif" font-size="14" lengthAdjust="spacing" textLength="251" x="13" y="270.9951">+toEmployeeListDto(employeeList)</text></g><!--class PropertyMapper--><g id="elem_PropertyMapper"><rect codeLine="22" fill="#F1F1F1" height="64.2969" id="PropertyMapper" rx="2.5" ry="2.5" style="stroke:#181818;stroke-width:0.5;" width="242" x="305.5" y="214"/><ellipse cx="365.25" cy="230" fill="#ADD1B2" rx="11" ry="11" style="stroke:#181818;stroke-width:1.0;"/><path d="M368.2188,235.6406 Q367.6406,235.9375 367,236.0781 Q366.3594,236.2344 365.6563,236.2344 Q363.1563,236.2344 361.8281,234.5938 Q360.5156,232.9375 360.5156,229.8125 Q360.5156,226.6875 361.8281,225.0313 Q363.1563,223.375 365.6563,223.375 Q366.3594,223.375 367,223.5313 Q367.6563,223.6875 368.2188,223.9844 L368.2188,226.7031 Q367.5938,226.125 367,225.8594 Q366.4063,225.5781 365.7813,225.5781 Q364.4375,225.5781 363.75,226.6563 Q363.0625,227.7188 363.0625,229.8125 Q363.0625,231.9063 363.75,232.9844 Q364.4375,234.0469 365.7813,234.0469 Q366.4063,234.0469 367,233.7813 Q367.5938,233.5 368.2188,232.9219 L368.2188,235.6406 Z " fill="#000000"/><text fill="#000000" font-family="sans-serif" font-size="14" lengthAdjust="spacing" textLength="114" x="385.75" y="234.8467">PropertyMapper</text><line style="stroke:#181818;stroke-width:0.5;" x1="306.5" x2="546.5" y1="246" y2="246"/><line style="stroke:#181818;stroke-width:0.5;" x1="306.5" x2="546.5" y1="254" y2="254"/><text fill="#000000" font-family="sans-serif" font-size="14" lengthAdjust="spacing" textLength="230" x="311.5" y="270.9951">+toPropertyListDto(propertyList)</text></g><!--class MessageMapper--><g id="elem_MessageMapper"><rect codeLine="26" fill="#F1F1F1" height="64.2969" id="MessageMapper" rx="2.5" ry="2.5" style="stroke:#181818;stroke-width:0.5;" width="247" x="583" y="214"/><ellipse cx="644.25" cy="230" fill="#ADD1B2" rx="11" ry="11" style="stroke:#181818;stroke-width:1.0;"/><path d="M647.2188,235.6406 Q646.6406,235.9375 646,236.0781 Q645.3594,236.2344 644.6563,236.2344 Q642.1563,236.2344 640.8281,234.5938 Q639.5156,232.9375 639.5156,229.8125 Q639.5156,226.6875 640.8281,225.0313 Q642.1563,223.375 644.6563,223.375 Q645.3594,223.375 646,223.5313 Q646.6563,223.6875 647.2188,223.9844 L647.2188,226.7031 Q646.5938,226.125 646,225.8594 Q645.4063,225.5781 644.7813,225.5781 Q643.4375,225.5781 642.75,226.6563 Q642.0625,227.7188 642.0625,229.8125 Q642.0625,231.9063 642.75,232.9844 Q643.4375,234.0469 644.7813,234.0469 Q645.4063,234.0469 646,233.7813 Q646.5938,233.5 647.2188,232.9219 L647.2188,235.6406 Z " fill="#000000"/><text fill="#000000" font-family="sans-serif" font-size="14" lengthAdjust="spacing" textLength="116" x="664.75" y="234.8467">MessageMapper</text><line style="stroke:#181818;stroke-width:0.5;" x1="584" x2="829" y1="246" y2="246"/><line style="stroke:#181818;stroke-width:0.5;" x1="584" x2="829" y1="254" y2="254"/><text fill="#000000" font-family="sans-serif" font-size="14" lengthAdjust="spacing" textLength="235" x="589" y="270.9951">+toMessageListDto(messageList)</text></g><!--class PersonMapper--><g id="elem_PersonMapper"><rect codeLine="30" fill="#F1F1F1" height="64.2969" id="PersonMapper" rx="2.5" ry="2.5" style="stroke:#181818;stroke-width:0.5;" width="218" x="865.5" y="214"/><ellipse cx="919.25" cy="230" fill="#ADD1B2" rx="11" ry="11" style="stroke:#181818;stroke-width:1.0;"/><path d="M922.2188,235.6406 Q921.6406,235.9375 921,236.0781 Q920.3594,236.2344 919.6563,236.2344 Q917.1563,236.2344 915.8281,234.5938 Q914.5156,232.9375 914.5156,229.8125 Q914.5156,226.6875 915.8281,225.0313 Q917.1563,223.375 919.6563,223.375 Q920.3594,223.375 921,223.5313 Q921.6563,223.6875 922.2188,223.9844 L922.2188,226.7031 Q921.5938,226.125 921,225.8594 Q920.4063,225.5781 919.7813,225.5781 Q918.4375,225.5781 917.75,226.6563 Q917.0625,227.7188 917.0625,229.8125 Q917.0625,231.9063 917.75,232.9844 Q918.4375,234.0469 919.7813,234.0469 Q920.4063,234.0469 921,233.7813 Q921.5938,233.5 922.2188,232.9219 L922.2188,235.6406 Z " fill="#000000"/><text fill="#000000" font-family="sans-serif" font-size="14" lengthAdjust="spacing" textLength="102" x="939.75" y="234.8467">PersonMapper</text><line style="stroke:#181818;stroke-width:0.5;" x1="866.5" x2="1082.5" y1="246" y2="246"/><line style="stroke:#181818;stroke-width:0.5;" x1="866.5" x2="1082.5" y1="254" y2="254"/><text fill="#000000" font-family="sans-serif" font-size="14" lengthAdjust="spacing" textLength="206" x="871.5" y="270.9951">+toPersonListDto(personList)</text></g><!--class Repositories--><g id="elem_Repositories"><rect codeLine="34" fill="#F1F1F1" height="145.7813" id="Repositories" rx="2.5" ry="2.5" style="stroke:#181818;stroke-width:0.5;" width="218" x="1290.5" y="7"/><ellipse cx="1351.25" cy="23" fill="#ADD1B2" rx="11" ry="11" style="stroke:#181818;stroke-width:1.0;"/><path d="M1354.2188,28.6406 Q1353.6406,28.9375 1353,29.0781 Q1352.3594,29.2344 1351.6563,29.2344 Q1349.1563,29.2344 1347.8281,27.5938 Q1346.5156,25.9375 1346.5156,22.8125 Q1346.5156,19.6875 1347.8281,18.0313 Q1349.1563,16.375 1351.6563,16.375 Q1352.3594,16.375 1353,16.5313 Q1353.6563,16.6875 1354.2188,16.9844 L1354.2188,19.7031 Q1353.5938,19.125 1353,18.8594 Q1352.4063,18.5781 1351.7813,18.5781 Q1350.4375,18.5781 1349.75,19.6563 Q1349.0625,20.7188 1349.0625,22.8125 Q1349.0625,24.9063 1349.75,25.9844 Q1350.4375,27.0469 1351.7813,27.0469 Q1352.4063,27.0469 1353,26.7813 Q1353.5938,26.5 1354.2188,25.9219 L1354.2188,28.6406 Z " fill="#000000"/><text fill="#000000" font-family="sans-serif" font-size="14" lengthAdjust="spacing" textLength="88" x="1371.75" y="27.8467">Repositories</text><line style="stroke:#181818;stroke-width:0.5;" x1="1291.5" x2="1507.5" y1="39" y2="39"/><text fill="#000000" font-family="sans-serif" font-size="14" lengthAdjust="spacing" textLength="182" x="1296.5" y="55.9951">+getEmployeeRepository</text><text fill="#000000" font-family="sans-serif" font-size="14" lengthAdjust="spacing" textLength="171" x="1296.5" y="72.292">+getPropertyRepository</text><text fill="#000000" font-family="sans-serif" font-size="14" lengthAdjust="spacing" textLength="173" x="1296.5" y="88.5889">+getMessageRepository</text><text fill="#000000" font-family="sans-serif" font-size="14" lengthAdjust="spacing" textLength="159" x="1296.5" y="104.8857">+getPersonRepository</text><line style="stroke:#181818;stroke-width:0.5;" x1="1291.5" x2="1507.5" y1="112.1875" y2="112.1875"/><text fill="#000000" font-family="sans-serif" font-size="14" lengthAdjust="spacing" textLength="103" x="1296.5" y="129.1826">-Repositories()</text><text fill="#000000" font-family="sans-serif" font-size="14" lengthAdjust="spacing" textLength="206" x="1296.5" y="145.4795">+getInstance() : Repositories</text></g><!--class PersonRepository--><g id="elem_PersonRepository"><rect codeLine="43" fill="#F1F1F1" height="64.2969" id="PersonRepository" rx="2.5" ry="2.5" style="stroke:#181818;stroke-width:0.5;" width="156" x="1118.5" y="214"/><ellipse cx="1133.5" cy="230" fill="#ADD1B2" rx="11" ry="11" style="stroke:#181818;stroke-width:1.0;"/><path d="M1136.4688,235.6406 Q1135.8906,235.9375 1135.25,236.0781 Q1134.6094,236.2344 1133.9063,236.2344 Q1131.4063,236.2344 1130.0781,234.5938 Q1128.7656,232.9375 1128.7656,229.8125 Q1128.7656,226.6875 1130.0781,225.0313 Q1131.4063,223.375 1133.9063,223.375 Q1134.6094,223.375 1135.25,223.5313 Q1135.9063,223.6875 1136.4688,223.9844 L1136.4688,226.7031 Q1135.8438,226.125 1135.25,225.8594 Q1134.6563,225.5781 1134.0313,225.5781 Q1132.6875,225.5781 1132,226.6563 Q1131.3125,227.7188 1131.3125,229.8125 Q1131.3125,231.9063 1132,232.9844 Q1132.6875,234.0469 1134.0313,234.0469 Q1134.6563,234.0469 1135.25,233.7813 Q1135.8438,233.5 1136.4688,232.9219 L1136.4688,235.6406 Z " fill="#000000"/><text fill="#000000" font-family="sans-serif" font-size="14" lengthAdjust="spacing" textLength="124" x="1147.5" y="234.8467">PersonRepository</text><line style="stroke:#181818;stroke-width:0.5;" x1="1119.5" x2="1273.5" y1="246" y2="246"/><text fill="#000000" font-family="sans-serif" font-size="14" lengthAdjust="spacing" textLength="78" x="1124.5" y="262.9951">-personList</text><line style="stroke:#181818;stroke-width:0.5;" x1="1119.5" x2="1273.5" y1="270.2969" y2="270.2969"/></g><!--class EmployeeRepository--><g id="elem_EmployeeRepository"><rect codeLine="47" fill="#F1F1F1" height="64.2969" id="EmployeeRepository" rx="2.5" ry="2.5" style="stroke:#181818;stroke-width:0.5;" width="179" x="1310" y="214"/><ellipse cx="1325" cy="230" fill="#ADD1B2" rx="11" ry="11" style="stroke:#181818;stroke-width:1.0;"/><path d="M1327.9688,235.6406 Q1327.3906,235.9375 1326.75,236.0781 Q1326.1094,236.2344 1325.4063,236.2344 Q1322.9063,236.2344 1321.5781,234.5938 Q1320.2656,232.9375 1320.2656,229.8125 Q1320.2656,226.6875 1321.5781,225.0313 Q1322.9063,223.375 1325.4063,223.375 Q1326.1094,223.375 1326.75,223.5313 Q1327.4063,223.6875 1327.9688,223.9844 L1327.9688,226.7031 Q1327.3438,226.125 1326.75,225.8594 Q1326.1563,225.5781 1325.5313,225.5781 Q1324.1875,225.5781 1323.5,226.6563 Q1322.8125,227.7188 1322.8125,229.8125 Q1322.8125,231.9063 1323.5,232.9844 Q1324.1875,234.0469 1325.5313,234.0469 Q1326.1563,234.0469 1326.75,233.7813 Q1327.3438,233.5 1327.9688,232.9219 L1327.9688,235.6406 Z " fill="#000000"/><text fill="#000000" font-family="sans-serif" font-size="14" lengthAdjust="spacing" textLength="147" x="1339" y="234.8467">EmployeeRepository</text><line style="stroke:#181818;stroke-width:0.5;" x1="1311" x2="1488" y1="246" y2="246"/><text fill="#000000" font-family="sans-serif" font-size="14" lengthAdjust="spacing" textLength="100" x="1316" y="262.9951">-employeeList</text><line style="stroke:#181818;stroke-width:0.5;" x1="1311" x2="1488" y1="270.2969" y2="270.2969"/></g><!--class PropertyRepository--><g id="elem_PropertyRepository"><rect codeLine="51" fill="#F1F1F1" height="64.2969" id="PropertyRepository" rx="2.5" ry="2.5" style="stroke:#181818;stroke-width:0.5;" width="168" x="1524.5" y="214"/><ellipse cx="1539.5" cy="230" fill="#ADD1B2" rx="11" ry="11" style="stroke:#181818;stroke-width:1.0;"/><path d="M1542.4688,235.6406 Q1541.8906,235.9375 1541.25,236.0781 Q1540.6094,236.2344 1539.9063,236.2344 Q1537.4063,236.2344 1536.0781,234.5938 Q1534.7656,232.9375 1534.7656,229.8125 Q1534.7656,226.6875 1536.0781,225.0313 Q1537.4063,223.375 1539.9063,223.375 Q1540.6094,223.375 1541.25,223.5313 Q1541.9063,223.6875 1542.4688,223.9844 L1542.4688,226.7031 Q1541.8438,226.125 1541.25,225.8594 Q1540.6563,225.5781 1540.0313,225.5781 Q1538.6875,225.5781 1538,226.6563 Q1537.3125,227.7188 1537.3125,229.8125 Q1537.3125,231.9063 1538,232.9844 Q1538.6875,234.0469 1540.0313,234.0469 Q1540.6563,234.0469 1541.25,233.7813 Q1541.8438,233.5 1542.4688,232.9219 L1542.4688,235.6406 Z " fill="#000000"/><text fill="#000000" font-family="sans-serif" font-size="14" lengthAdjust="spacing" textLength="136" x="1553.5" y="234.8467">PropertyRepository</text><line style="stroke:#181818;stroke-width:0.5;" x1="1525.5" x2="1691.5" y1="246" y2="246"/><text fill="#000000" font-family="sans-serif" font-size="14" lengthAdjust="spacing" textLength="90" x="1530.5" y="262.9951">-propertyList</text><line style="stroke:#181818;stroke-width:0.5;" x1="1525.5" x2="1691.5" y1="270.2969" y2="270.2969"/></g><!--class MessageRepository--><g id="elem_MessageRepository"><rect codeLine="55" fill="#F1F1F1" height="64.2969" id="MessageRepository" rx="2.5" ry="2.5" style="stroke:#181818;stroke-width:0.5;" width="170" x="1727.5" y="214"/><ellipse cx="1742.5" cy="230" fill="#ADD1B2" rx="11" ry="11" style="stroke:#181818;stroke-width:1.0;"/><path d="M1745.4688,235.6406 Q1744.8906,235.9375 1744.25,236.0781 Q1743.6094,236.2344 1742.9063,236.2344 Q1740.4063,236.2344 1739.0781,234.5938 Q1737.7656,232.9375 1737.7656,229.8125 Q1737.7656,226.6875 1739.0781,225.0313 Q1740.4063,223.375 1742.9063,223.375 Q1743.6094,223.375 1744.25,223.5313 Q1744.9063,223.6875 1745.4688,223.9844 L1745.4688,226.7031 Q1744.8438,226.125 1744.25,225.8594 Q1743.6563,225.5781 1743.0313,225.5781 Q1741.6875,225.5781 1741,226.6563 Q1740.3125,227.7188 1740.3125,229.8125 Q1740.3125,231.9063 1741,232.9844 Q1741.6875,234.0469 1743.0313,234.0469 Q1743.6563,234.0469 1744.25,233.7813 Q1744.8438,233.5 1745.4688,232.9219 L1745.4688,235.6406 Z " fill="#000000"/><text fill="#000000" font-family="sans-serif" font-size="14" lengthAdjust="spacing" textLength="138" x="1756.5" y="234.8467">MessageRepository</text><line style="stroke:#181818;stroke-width:0.5;" x1="1728.5" x2="1896.5" y1="246" y2="246"/><text fill="#000000" font-family="sans-serif" font-size="14" lengthAdjust="spacing" textLength="93" x="1733.5" y="262.9951">-messageList</text><line style="stroke:#181818;stroke-width:0.5;" x1="1728.5" x2="1896.5" y1="270.2969" y2="270.2969"/></g><!--class Person--><g id="elem_Person"><rect codeLine="59" fill="#F1F1F1" height="113.1875" id="Person" rx="2.5" ry="2.5" style="stroke:#181818;stroke-width:0.5;" width="130" x="894.5" y="380"/><ellipse cx="932" cy="396" fill="#ADD1B2" rx="11" ry="11" style="stroke:#181818;stroke-width:1.0;"/><path d="M934.9688,401.6406 Q934.3906,401.9375 933.75,402.0781 Q933.1094,402.2344 932.4063,402.2344 Q929.9063,402.2344 928.5781,400.5938 Q927.2656,398.9375 927.2656,395.8125 Q927.2656,392.6875 928.5781,391.0313 Q929.9063,389.375 932.4063,389.375 Q933.1094,389.375 933.75,389.5313 Q934.4063,389.6875 934.9688,389.9844 L934.9688,392.7031 Q934.3438,392.125 933.75,391.8594 Q933.1563,391.5781 932.5313,391.5781 Q931.1875,391.5781 930.5,392.6563 Q929.8125,393.7188 929.8125,395.8125 Q929.8125,397.9063 930.5,398.9844 Q931.1875,400.0469 932.5313,400.0469 Q933.1563,400.0469 933.75,399.7813 Q934.3438,399.5 934.9688,398.9219 L934.9688,401.6406 Z " fill="#000000"/><text fill="#000000" font-family="sans-serif" font-size="14" lengthAdjust="spacing" textLength="48" x="951" y="400.8467">Person</text><line style="stroke:#181818;stroke-width:0.5;" x1="895.5" x2="1023.5" y1="412" y2="412"/><text fill="#000000" font-family="sans-serif" font-size="14" lengthAdjust="spacing" textLength="92" x="900.5" y="428.9951">-String name</text><text fill="#000000" font-family="sans-serif" font-size="14" lengthAdjust="spacing" textLength="91" x="900.5" y="445.292">-String email</text><text fill="#000000" font-family="sans-serif" font-size="14" lengthAdjust="spacing" textLength="118" x="900.5" y="461.5889">-String password</text><text fill="#000000" font-family="sans-serif" font-size="14" lengthAdjust="spacing" textLength="69" x="900.5" y="477.8857">-Role role</text><line style="stroke:#181818;stroke-width:0.5;" x1="895.5" x2="1023.5" y1="485.1875" y2="485.1875"/></g><!--class Employee--><g id="elem_Employee"><rect codeLine="66" fill="#F1F1F1" height="129.4844" id="Employee" rx="2.5" ry="2.5" style="stroke:#181818;stroke-width:0.5;" width="126" x="75.5" y="372"/><ellipse cx="100.85" cy="388" fill="#ADD1B2" rx="11" ry="11" style="stroke:#181818;stroke-width:1.0;"/><path d="M103.8188,393.6406 Q103.2406,393.9375 102.6,394.0781 Q101.9594,394.2344 101.2563,394.2344 Q98.7563,394.2344 97.4281,392.5938 Q96.1156,390.9375 96.1156,387.8125 Q96.1156,384.6875 97.4281,383.0313 Q98.7563,381.375 101.2563,381.375 Q101.9594,381.375 102.6,381.5313 Q103.2563,381.6875 103.8188,381.9844 L103.8188,384.7031 Q103.1938,384.125 102.6,383.8594 Q102.0063,383.5781 101.3813,383.5781 Q100.0375,383.5781 99.35,384.6563 Q98.6625,385.7188 98.6625,387.8125 Q98.6625,389.9063 99.35,390.9844 Q100.0375,392.0469 101.3813,392.0469 Q102.0063,392.0469 102.6,391.7813 Q103.1938,391.5 103.8188,390.9219 L103.8188,393.6406 Z " fill="#000000"/><text fill="#000000" font-family="sans-serif" font-size="14" lengthAdjust="spacing" textLength="71" x="117.15" y="392.8467">Employee</text><line style="stroke:#181818;stroke-width:0.5;" x1="76.5" x2="200.5" y1="404" y2="404"/><text fill="#000000" font-family="sans-serif" font-size="14" lengthAdjust="spacing" textLength="88" x="81.5" y="420.9951">-int passport</text><text fill="#000000" font-family="sans-serif" font-size="14" lengthAdjust="spacing" textLength="49" x="81.5" y="437.292">-int vat</text><text fill="#000000" font-family="sans-serif" font-size="14" lengthAdjust="spacing" textLength="107" x="81.5" y="453.5889">-String address</text><text fill="#000000" font-family="sans-serif" font-size="14" lengthAdjust="spacing" textLength="85" x="81.5" y="469.8857">-long phone</text><text fill="#000000" font-family="sans-serif" font-size="14" lengthAdjust="spacing" textLength="114" x="81.5" y="486.1826">-Agency agency</text><line style="stroke:#181818;stroke-width:0.5;" x1="76.5" x2="200.5" y1="493.4844" y2="493.4844"/></g><!--class Property--><g id="elem_Property"><rect codeLine="74" fill="#F1F1F1" height="194.6719" id="Property" rx="2.5" ry="2.5" style="stroke:#181818;stroke-width:0.5;" width="198" x="327.5" y="339"/><ellipse cx="392.25" cy="355" fill="#ADD1B2" rx="11" ry="11" style="stroke:#181818;stroke-width:1.0;"/><path d="M395.2188,360.6406 Q394.6406,360.9375 394,361.0781 Q393.3594,361.2344 392.6563,361.2344 Q390.1563,361.2344 388.8281,359.5938 Q387.5156,357.9375 387.5156,354.8125 Q387.5156,351.6875 388.8281,350.0313 Q390.1563,348.375 392.6563,348.375 Q393.3594,348.375 394,348.5313 Q394.6563,348.6875 395.2188,348.9844 L395.2188,351.7031 Q394.5938,351.125 394,350.8594 Q393.4063,350.5781 392.7813,350.5781 Q391.4375,350.5781 390.75,351.6563 Q390.0625,352.7188 390.0625,354.8125 Q390.0625,356.9063 390.75,357.9844 Q391.4375,359.0469 392.7813,359.0469 Q393.4063,359.0469 394,358.7813 Q394.5938,358.5 395.2188,357.9219 L395.2188,360.6406 Z " fill="#000000"/><text fill="#000000" font-family="sans-serif" font-size="14" lengthAdjust="spacing" textLength="60" x="412.75" y="359.8467">Property</text><line style="stroke:#181818;stroke-width:0.5;" x1="328.5" x2="524.5" y1="371" y2="371"/><text fill="#000000" font-family="sans-serif" font-size="14" lengthAdjust="spacing" textLength="92" x="333.5" y="387.9951">-String name</text><text fill="#000000" font-family="sans-serif" font-size="14" lengthAdjust="spacing" textLength="107" x="333.5" y="404.292">-String address</text><text fill="#000000" font-family="sans-serif" font-size="14" lengthAdjust="spacing" textLength="60" x="333.5" y="420.5889">-int area</text><text fill="#000000" font-family="sans-serif" font-size="14" lengthAdjust="spacing" textLength="186" x="333.5" y="436.8857">-float distanceFromCenter</text><text fill="#000000" font-family="sans-serif" font-size="14" lengthAdjust="spacing" textLength="77" x="333.5" y="453.1826">-float price</text><text fill="#000000" font-family="sans-serif" font-size="14" lengthAdjust="spacing" textLength="61" x="333.5" y="469.4795">-City city</text><text fill="#000000" font-family="sans-serif" font-size="14" lengthAdjust="spacing" textLength="107" x="333.5" y="485.7764">-District district</text><text fill="#000000" font-family="sans-serif" font-size="14" lengthAdjust="spacing" textLength="81" x="333.5" y="502.0732">-State state</text><text fill="#000000" font-family="sans-serif" font-size="14" lengthAdjust="spacing" textLength="101" x="333.5" y="518.3701">-Person owner</text><line style="stroke:#181818;stroke-width:0.5;" x1="328.5" x2="524.5" y1="525.6719" y2="525.6719"/></g><!--class Message--><g id="elem_Message"><rect codeLine="86" fill="#F1F1F1" height="80.5938" id="Message" rx="2.5" ry="2.5" style="stroke:#181818;stroke-width:0.5;" width="107" x="724" y="396"/><ellipse cx="744.85" cy="412" fill="#ADD1B2" rx="11" ry="11" style="stroke:#181818;stroke-width:1.0;"/><path d="M747.8188,417.6406 Q747.2406,417.9375 746.6,418.0781 Q745.9594,418.2344 745.2563,418.2344 Q742.7563,418.2344 741.4281,416.5938 Q740.1156,414.9375 740.1156,411.8125 Q740.1156,408.6875 741.4281,407.0313 Q742.7563,405.375 745.2563,405.375 Q745.9594,405.375 746.6,405.5313 Q747.2563,405.6875 747.8188,405.9844 L747.8188,408.7031 Q747.1938,408.125 746.6,407.8594 Q746.0063,407.5781 745.3813,407.5781 Q744.0375,407.5781 743.35,408.6563 Q742.6625,409.7188 742.6625,411.8125 Q742.6625,413.9063 743.35,414.9844 Q744.0375,416.0469 745.3813,416.0469 Q746.0063,416.0469 746.6,415.7813 Q747.1938,415.5 747.8188,414.9219 L747.8188,417.6406 Z " fill="#000000"/><text fill="#000000" font-family="sans-serif" font-size="14" lengthAdjust="spacing" textLength="62" x="760.15" y="416.8467">Message</text><line style="stroke:#181818;stroke-width:0.5;" x1="725" x2="830" y1="428" y2="428"/><text fill="#000000" font-family="sans-serif" font-size="14" lengthAdjust="spacing" textLength="78" x="730" y="444.9951">-String text</text><line style="stroke:#181818;stroke-width:0.5;" x1="725" x2="830" y1="452.2969" y2="452.2969"/><text fill="#000000" font-family="sans-serif" font-size="14" lengthAdjust="spacing" textLength="95" x="730" y="469.292">+create(text)</text></g><!--class UnregisteredUser--><g id="elem_UnregisteredUser"><rect fill="#F1F1F1" height="48" id="UnregisteredUser" rx="2.5" ry="2.5" style="stroke:#181818;stroke-width:0.5;" width="156" x="776.5" y="611"/><ellipse cx="791.5" cy="627" fill="#ADD1B2" rx="11" ry="11" style="stroke:#181818;stroke-width:1.0;"/><path d="M794.4688,632.6406 Q793.8906,632.9375 793.25,633.0781 Q792.6094,633.2344 791.9063,633.2344 Q789.4063,633.2344 788.0781,631.5938 Q786.7656,629.9375 786.7656,626.8125 Q786.7656,623.6875 788.0781,622.0313 Q789.4063,620.375 791.9063,620.375 Q792.6094,620.375 793.25,620.5313 Q793.9063,620.6875 794.4688,620.9844 L794.4688,623.7031 Q793.8438,623.125 793.25,622.8594 Q792.6563,622.5781 792.0313,622.5781 Q790.6875,622.5781 790,623.6563 Q789.3125,624.7188 789.3125,626.8125 Q789.3125,628.9063 790,629.9844 Q790.6875,631.0469 792.0313,631.0469 Q792.6563,631.0469 793.25,630.7813 Q793.8438,630.5 794.4688,629.9219 L794.4688,632.6406 Z " fill="#000000"/><text fill="#000000" font-family="sans-serif" font-size="14" lengthAdjust="spacing" textLength="124" x="805.5" y="631.8467">UnregisteredUser</text><line style="stroke:#181818;stroke-width:0.5;" x1="777.5" x2="931.5" y1="643" y2="643"/><line style="stroke:#181818;stroke-width:0.5;" x1="777.5" x2="931.5" y1="651" y2="651"/></g><!--link VisitRequestUI to VisitRequestController--><g id="link_VisitRequestUI_VisitRequestController"><path codeLine="92" d="M575.65,80 C579.45,80 592.2,80 605.39,80 " fill="none" id="VisitRequestUI-to-VisitRequestController" style="stroke:#181818;stroke-width:1.0;stroke-dasharray:7.0,7.0;"/><polygon fill="#181818" points="610.65,80,601.65,76,605.65,80,601.65,84,610.65,80" style="stroke:#181818;stroke-width:1.0;"/></g><!--link VisitRequestController to Repositories--><g id="link_VisitRequestController_Repositories"><path codeLine="94" d="M802.13,80 C928.33,80 1150.22,80 1285.15,80 " fill="none" id="VisitRequestController-to-Repositories" style="stroke:#181818;stroke-width:1.0;stroke-dasharray:7.0,7.0;"/><polygon fill="#181818" points="1290.31,80,1281.31,76,1285.31,80,1281.31,84,1290.31,80" style="stroke:#181818;stroke-width:1.0;"/><text fill="#000000" font-family="sans-serif" font-size="13" lengthAdjust="spacing" textLength="77" x="1007.75" y="73.0669">repositories</text></g><!--link VisitRequestController to EmployeeMapper--><g id="link_VisitRequestController_EmployeeMapper"><path codeLine="96" d="M618.37,136.66 C603.36,146.14 592.5,153 592.5,153 C592.5,153 287.5,214 287.5,214 C287.5,214 282.87,214.96 275.24,216.55 " fill="none" id="VisitRequestController-to-EmployeeMapper" style="stroke:#181818;stroke-width:1.0;"/><polygon fill="#181818" points="270.12,217.62,279.7498,219.6858,275.0134,216.5928,278.1063,211.8564,270.12,217.62" style="stroke:#181818;stroke-width:1.0;"/></g><!--link VisitRequestController to PropertyMapper--><g id="link_VisitRequestController_PropertyMapper"><path codeLine="98" d="M618.37,136.66 C603.36,146.14 592.5,153 592.5,153 C592.5,153 534.65,185.06 487.25,211.33 " fill="none" id="VisitRequestController-to-PropertyMapper" style="stroke:#181818;stroke-width:1.0;"/><polygon fill="#181818" points="482.7,213.85,492.51,212.9758,487.0708,211.4218,488.6248,205.9826,482.7,213.85" style="stroke:#181818;stroke-width:1.0;"/></g><!--link VisitRequestController to PersonMapper--><g id="link_VisitRequestController_PersonMapper"><path codeLine="100" d="M797.23,136.52 C837.63,161.25 883.91,189.57 919.05,211.07 " fill="none" id="VisitRequestController-to-PersonMapper" style="stroke:#181818;stroke-width:1.0;"/><polygon fill="#181818" points="923.72,213.92,918.1317,205.81,919.4554,211.3099,913.9555,212.6335,923.72,213.92" style="stroke:#181818;stroke-width:1.0;"/></g><!--link VisitRequestController to MessageMapper--><g id="link_VisitRequestController_MessageMapper"><path codeLine="102" d="M706.5,136.52 C706.5,160.34 706.5,187.49 706.5,208.67 " fill="none" id="VisitRequestController-to-MessageMapper" style="stroke:#181818;stroke-width:1.0;"/><polygon fill="#181818" points="706.5,213.92,710.5,204.92,706.5,208.92,702.5,204.92,706.5,213.92" style="stroke:#181818;stroke-width:1.0;"/></g><!--link Repositories to Repositories--><g id="link_Repositories_Repositories"><path codeLine="104" d="M1508.76,61.86 C1529.14,64.09 1543.5,70.14 1543.5,80 C1543.5,89.01 1531.5,94.84 1513.87,97.48 " fill="none" id="Repositories-to-Repositories" style="stroke:#181818;stroke-width:1.0;"/><polygon fill="#181818" points="1508.76,98.14,1518.1997,100.9493,1513.7185,97.497,1517.1708,93.0158,1508.76,98.14" style="stroke:#181818;stroke-width:1.0;"/><text fill="#000000" font-family="sans-serif" font-size="13" lengthAdjust="spacing" textLength="55" x="1549.5" y="84.5669">instance</text></g><!--link Repositories to PersonRepository--><g id="link_Repositories_PersonRepository"><path codeLine="106" d="M1310.17,153.17 C1285.43,173.15 1259.73,193.92 1239.03,210.64 " fill="none" id="Repositories-to-PersonRepository" style="stroke:#181818;stroke-width:1.0;"/><polygon fill="#181818" points="1234.96,213.93,1244.4731,211.3802,1238.8476,210.7857,1239.4421,205.1601,1234.96,213.93" style="stroke:#181818;stroke-width:1.0;"/><text fill="#000000" font-family="sans-serif" font-size="13" lengthAdjust="spacing" textLength="8" x="1234.0674" y="202.8187">1</text></g><!--link PersonMapper to Person--><g id="link_PersonMapper_Person"><path codeLine="108" d="M972.02,278.13 C969.94,304.33 966.89,342.58 964.33,374.81 " fill="none" id="PersonMapper-to-Person" style="stroke:#181818;stroke-width:1.0;"/><polygon fill="#181818" points="963.92,379.93,968.6269,371.2787,964.3199,374.946,960.6526,370.6389,963.92,379.93" style="stroke:#181818;stroke-width:1.0;"/></g><!--link Repositories to EmployeeRepository--><g id="link_Repositories_EmployeeRepository"><path codeLine="110" d="M1399.5,153.41 C1399.5,172.37 1399.5,192.03 1399.5,208.25 " fill="none" id="Repositories-to-EmployeeRepository" style="stroke:#181818;stroke-width:1.0;"/><polygon fill="#181818" points="1399.5,213.62,1403.5,204.62,1399.5,208.62,1395.5,204.62,1399.5,213.62" style="stroke:#181818;stroke-width:1.0;"/><text fill="#000000" font-family="sans-serif" font-size="13" lengthAdjust="spacing" textLength="8" x="1390.7125" y="202.8194">1</text></g><!--link EmployeeMapper to Employee--><g id="link_EmployeeMapper_Employee"><path codeLine="112" d="M138.5,278.13 C138.5,302.15 138.5,336.29 138.5,366.64 " fill="none" id="EmployeeMapper-to-Employee" style="stroke:#181818;stroke-width:1.0;"/><polygon fill="#181818" points="138.5,371.87,142.5,362.87,138.5,366.87,134.5,362.87,138.5,371.87" style="stroke:#181818;stroke-width:1.0;"/><text fill="#000000" font-family="sans-serif" font-size="13" lengthAdjust="spacing" textLength="7" x="131.1172" y="361.0284">*</text></g><!--link Repositories to PropertyRepository--><g id="link_Repositories_PropertyRepository"><path codeLine="114" d="M1491.47,153.17 C1516.94,173.15 1543.41,193.92 1564.72,210.64 " fill="none" id="Repositories-to-PropertyRepository" style="stroke:#181818;stroke-width:1.0;"/><polygon fill="#181818" points="1568.91,213.93,1564.3226,205.2148,1564.9849,210.8327,1559.3669,211.495,1568.91,213.93" style="stroke:#181818;stroke-width:1.0;"/><text fill="#000000" font-family="sans-serif" font-size="13" lengthAdjust="spacing" textLength="8" x="1551.9196" y="202.8187">1</text></g><!--link PropertyMapper to Property--><g id="link_PropertyMapper_Property"><path codeLine="116" d="M426.5,278.13 C426.5,293.65 426.5,313.39 426.5,333.61 " fill="none" id="PropertyMapper-to-Property" style="stroke:#181818;stroke-width:1.0;"/><polygon fill="#181818" points="426.5,338.76,430.5,329.76,426.5,333.76,422.5,329.76,426.5,338.76" style="stroke:#181818;stroke-width:1.0;"/><text fill="#000000" font-family="sans-serif" font-size="13" lengthAdjust="spacing" textLength="7" x="419.232" y="327.7871">*</text></g><!--link Repositories to MessageRepository--><g id="link_Repositories_MessageRepository"><path codeLine="118" d="M1508.55,124.3 C1577.73,151.77 1665.83,186.76 1729.36,211.98 " fill="none" id="Repositories-to-MessageRepository" style="stroke:#181818;stroke-width:1.0;"/><polygon fill="#181818" points="1734.27,213.94,1727.3732,206.9091,1729.6208,212.1003,1724.4296,214.3479,1734.27,213.94" style="stroke:#181818;stroke-width:1.0;"/><text fill="#000000" font-family="sans-serif" font-size="13" lengthAdjust="spacing" textLength="8" x="1711.6228" y="203.9457">1</text></g><!--link MessageMapper to Message--><g id="link_MessageMapper_Message"><path codeLine="120" d="M718.22,278.13 C729.79,308.82 747.58,356.06 760.65,390.77 " fill="none" id="MessageMapper-to-Message" style="stroke:#181818;stroke-width:1.0;"/><polygon fill="#181818" points="762.55,395.8,763.099,385.9665,760.7772,391.1248,755.6188,388.803,762.55,395.8" style="stroke:#181818;stroke-width:1.0;"/><text fill="#000000" font-family="sans-serif" font-size="13" lengthAdjust="spacing" textLength="7" x="752.4942" y="384.9284">*</text></g><!--link Message to UnregisteredUser--><g id="link_Message_UnregisteredUser"><path codeLine="122" d="M786.05,477.09 C795.23,519.57 808.5,581 808.5,581 C808.5,581 819.64,593.83 830.95,606.87 " fill="none" id="Message-to-UnregisteredUser" style="stroke:#181818;stroke-width:1.0;"/><polygon fill="#181818" points="834.46,610.91,831.564,601.4965,831.1756,607.14,825.5321,606.7516,834.46,610.91" style="stroke:#181818;stroke-width:1.0;"/><text fill="#000000" font-family="sans-serif" font-size="13" lengthAdjust="spacing" textLength="66" x="809.5" y="577.0669">createdBy</text></g><!--link Person to UnregisteredUser--><g id="link_Person_UnregisteredUser"><path codeLine="124" d="M929.83,493.02 C910.09,529.97 884.99,576.94 869.34,606.24 " fill="none" id="Person-to-UnregisteredUser" style="stroke:#181818;stroke-width:1.0;"/><polygon fill="#181818" points="866.91,610.78,874.6778,604.7251,869.2652,606.3694,867.6208,600.9568,866.91,610.78" style="stroke:#181818;stroke-width:1.0;"/><text fill="#000000" font-family="sans-serif" font-size="13" lengthAdjust="spacing" textLength="66" x="892.5" y="577.0669">createdBy</text></g><!--SRC=[XLHDRzim3BthLmWz9HioRDSS2dJf1WHOWQ51TjTirXKgIvh4BlEA_VVHhYnBifFsu4RaU_mGgUUVfBR2YPPRKJs91WxOAU0EAXIwKS1y1FX7KPkJr0r_4Cgd7YKrO6U1MwEw_i0IPwM4zpU8JlvyHjXNHX_aN-0V6ME3Y_-GNk8z_7e6ZySzV_ctvDWPZSue1Ow_C4v_xta3-AMrodG0twJ7oVhT6GiEkznw1zvJVmKKd3SwscBgCV2Ti7PAYIPDU8jc1SbvpI9zhA2afvNrT9kS4teejMGd7VJaTZgcgOUEPebZdqFQU4g8zs0DtRTn4dmWRZBZQZtTsrvxseyALck-pK3psKHlDv_GaYzqkKWRwYuyHUUJDpOnjSjc0rw0fpETZtGfVhflvH0NyCdWohb5p87U2xqqBLh8BT0AgNAJ9Vx9k7gScUaVC7sMLpgca1e7gZKE4zDlWNbuKTUEAWv6PVgCZqQFTTqqeAkEY-5VCP5mCMztbUVeon0EH3W-A2EGr_9rvRuwq-v08xZCRPsing0xIJah-eJpBL79_HgZ_n6J2mJk-s-mX2cOawRmvIZBDX3-80lRML6v2AlUDBofGjG-N9zHinoPg1mniXUv9KrEdjavscPpNOZNHMWkL9UXYR1S16RgnLZMnMRMbGnAKW89UVNfQlQe6Si4RYhi37z1XLWXxWFqtGGzLybSirYXysEaqNmcqbpXMAxuOvnWZUx1STGE6jfZS50VFQ6tOVdgp_5stWR-1m00]--></g></svg>