<?xml version="1.0" encoding="us-ascii" standalone="no"?><svg xmlns="http://www.w3.org/2000/svg" xmlns:xlink="http://www.w3.org/1999/xlink" contentStyleType="text/css" height="1065.6px" preserveAspectRatio="none" style="width:2300px;height:1065px;background:#FFFFFF;" version="1.1" viewBox="0 0 2300 1065" width="2300px" zoomAndPan="magnify"><defs/><g><rect fill="#FFFFFF" height="913.875" style="stroke:#181818;stroke-width:0.8000000000000002;" width="8" x="15.2" y="73.0375"/><rect fill="#FFFFFF" height="896.9688" style="stroke:#181818;stroke-width:0.8000000000000002;" width="8" x="366.4" y="89.9438"/><rect fill="#FFFFFF" height="842.3563" style="stroke:#181818;stroke-width:0.8000000000000002;" width="8" x="540.8" y="121.25"/><rect fill="#FFFFFF" height="23.3063" style="stroke:#181818;stroke-width:0.8000000000000002;" width="8" x="662.8" y="146.2875"/><rect fill="#FFFFFF" height="163.1438" style="stroke:#181818;stroke-width:0.8000000000000002;" width="8" x="756.4" y="192.9"/><rect fill="#FFFFFF" height="23.3063" style="stroke:#181818;stroke-width:0.8000000000000002;" width="8" x="864.4" y="379.35"/><rect fill="#FFFFFF" height="23.3063" style="stroke:#181818;stroke-width:0.8000000000000002;" width="8" x="991.6" y="425.9625"/><rect fill="#FFFFFF" height="23.3063" style="stroke:#181818;stroke-width:0.8000000000000002;" width="8" x="1124.4" y="472.575"/><rect fill="#FFFFFF" height="23.3063" style="stroke:#181818;stroke-width:0.8000000000000002;" width="8" x="1261.6" y="519.1875"/><rect fill="#FFFFFF" height="23.3063" style="stroke:#181818;stroke-width:0.8000000000000002;" width="8" x="1384.4" y="565.8"/><rect fill="#FFFFFF" height="23.3063" style="stroke:#181818;stroke-width:0.8000000000000002;" width="8" x="1494" y="612.4125"/><rect fill="#FFFFFF" height="23.3063" style="stroke:#181818;stroke-width:0.8000000000000002;" width="8" x="1609.2" y="659.025"/><rect fill="#FFFFFF" height="23.3063" style="stroke:#181818;stroke-width:0.8000000000000002;" width="8" x="1728.8" y="705.6375"/><rect fill="#FFFFFF" height="23.3063" style="stroke:#181818;stroke-width:0.8000000000000002;" width="8" x="1840.4" y="771.5563"/><rect fill="#FFFFFF" height="69.9188" style="stroke:#181818;stroke-width:0.8000000000000002;" width="8" x="1945.2" y="818.1688"/><rect fill="#FFFFFF" height="23.3063" style="stroke:#181818;stroke-width:0.8000000000000002;" width="8" x="2055.6" y="911.3938"/><rect fill="#FFFFFF" height="23.3063" style="stroke:#181818;stroke-width:0.8000000000000002;" width="8" x="2170.4" y="841.475"/><rect fill="none" height="200.1563" style="stroke:#000000;stroke-width:1.2000000000000002;" width="1772" x="465.6" y="740.9438"/><line style="stroke:#181818;stroke-width:0.4000000000000001;stroke-dasharray:5.0,5.0;" x1="19.2" x2="19.2" y1="65.0375" y2="1001.3125"/><line style="stroke:#181818;stroke-width:0.4000000000000001;stroke-dasharray:5.0,5.0;" x1="370" x2="370" y1="65.0375" y2="1001.3125"/><line style="stroke:#181818;stroke-width:0.4000000000000001;stroke-dasharray:5.0,5.0;" x1="544.8" x2="544.8" y1="120.8625" y2="1001.3125"/><line style="stroke:#181818;stroke-width:0.4000000000000001;stroke-dasharray:5.0,5.0;" x1="666.4" x2="666.4" y1="65.0375" y2="1001.3125"/><line style="stroke:#181818;stroke-width:0.4000000000000001;stroke-dasharray:5.0,5.0;" x1="760" x2="760" y1="65.0375" y2="1001.3125"/><line style="stroke:#181818;stroke-width:0.4000000000000001;stroke-dasharray:5.0,5.0;" x1="868" x2="868" y1="65.0375" y2="1001.3125"/><line style="stroke:#181818;stroke-width:0.4000000000000001;stroke-dasharray:5.0,5.0;" x1="995.2" x2="995.2" y1="65.0375" y2="1001.3125"/><line style="stroke:#181818;stroke-width:0.4000000000000001;stroke-dasharray:5.0,5.0;" x1="1128" x2="1128" y1="65.0375" y2="1001.3125"/><line style="stroke:#181818;stroke-width:0.4000000000000001;stroke-dasharray:5.0,5.0;" x1="1265.6" x2="1265.6" y1="65.0375" y2="1001.3125"/><line style="stroke:#181818;stroke-width:0.4000000000000001;stroke-dasharray:5.0,5.0;" x1="1388" x2="1388" y1="65.0375" y2="1001.3125"/><line style="stroke:#181818;stroke-width:0.4000000000000001;stroke-dasharray:5.0,5.0;" x1="1497.6" x2="1497.6" y1="65.0375" y2="1001.3125"/><line style="stroke:#181818;stroke-width:0.4000000000000001;stroke-dasharray:5.0,5.0;" x1="1612.8" x2="1612.8" y1="65.0375" y2="1001.3125"/><line style="stroke:#181818;stroke-width:0.4000000000000001;stroke-dasharray:5.0,5.0;" x1="1732.8" x2="1732.8" y1="65.0375" y2="1001.3125"/><line style="stroke:#181818;stroke-width:0.4000000000000001;stroke-dasharray:5.0,5.0;" x1="1844" x2="1844" y1="65.0375" y2="1001.3125"/><line style="stroke:#181818;stroke-width:0.4000000000000001;stroke-dasharray:5.0,5.0;" x1="1948.8" x2="1948.8" y1="65.0375" y2="1001.3125"/><line style="stroke:#181818;stroke-width:0.4000000000000001;stroke-dasharray:5.0,5.0;" x1="2059.2" x2="2059.2" y1="65.0375" y2="1001.3125"/><line style="stroke:#181818;stroke-width:0.4000000000000001;stroke-dasharray:5.0,5.0;" x1="2174.4" x2="2174.4" y1="65.0375" y2="1001.3125"/><line style="stroke:#181818;stroke-width:0.4000000000000001;stroke-dasharray:5.0,5.0;" x1="2268" x2="2268" y1="65.0375" y2="1001.3125"/><text fill="#000000" font-family="sans-serif" font-size="11.2" lengthAdjust="spacing" textLength="25.6" x="4" y="62.3961">User</text><ellipse cx="19.2" cy="10.8" fill="#E3E3E3" rx="6.4" ry="6.4" style="stroke:#181818;stroke-width:0.4000000000000001;"/><path d="M19.2,17.2 L19.2,38.8 M8.8,23.6 L29.6,23.6 M19.2,38.8 L8.8,50.8 M19.2,38.8 L29.6,50.8 " fill="none" style="stroke:#181818;stroke-width:0.4000000000000001;"/><text fill="#000000" font-family="sans-serif" font-size="11.2" lengthAdjust="spacing" textLength="25.6" x="4" y="1010.9086">User</text><ellipse cx="19.2" cy="1020.35" fill="#E3E3E3" rx="6.4" ry="6.4" style="stroke:#181818;stroke-width:0.4000000000000001;"/><path d="M19.2,1026.75 L19.2,1048.35 M8.8,1033.15 L29.6,1033.15 M19.2,1048.35 L8.8,1060.35 M19.2,1048.35 L29.6,1060.35 " fill="none" style="stroke:#181818;stroke-width:0.4000000000000001;"/><rect fill="#E3E3E3" height="24.2375" rx="2" ry="2" style="stroke:#181818;stroke-width:0.4000000000000001;" width="96.8" x="322" y="40"/><text fill="#000000" font-family="sans-serif" font-size="11.2" lengthAdjust="spacing" textLength="85.6" x="327.6" y="55.9961">:VisitRequestUI</text><rect fill="#E3E3E3" height="24.2375" rx="2" ry="2" style="stroke:#181818;stroke-width:0.4000000000000001;" width="96.8" x="322" y="1000.5125"/><text fill="#000000" font-family="sans-serif" font-size="11.2" lengthAdjust="spacing" textLength="85.6" x="327.6" y="1016.5086">:VisitRequestUI</text><rect fill="#E3E3E3" height="24.2375" rx="2" ry="2" style="stroke:#181818;stroke-width:0.4000000000000001;" width="142.4" x="473.6" y="1000.5125"/><text fill="#000000" font-family="sans-serif" font-size="11.2" lengthAdjust="spacing" textLength="131.2" x="479.2" y="1016.5086">:VisitRequestController</text><rect fill="#E3E3E3" height="24.2375" rx="2" ry="2" style="stroke:#181818;stroke-width:0.4000000000000001;" width="85.6" x="624" y="40"/><text fill="#000000" font-family="sans-serif" font-size="11.2" lengthAdjust="spacing" textLength="74.4" x="629.6" y="55.9961">:Repositories</text><rect fill="#E3E3E3" height="24.2375" rx="2" ry="2" style="stroke:#181818;stroke-width:0.4000000000000001;" width="85.6" x="624" y="1000.5125"/><text fill="#000000" font-family="sans-serif" font-size="11.2" lengthAdjust="spacing" textLength="74.4" x="629.6" y="1016.5086">:Repositories</text><rect fill="#E3E3E3" height="37.275" rx="2" ry="2" style="stroke:#181818;stroke-width:0.4000000000000001;" width="85.6" x="717.6" y="26.9625"/><text fill="#000000" font-family="sans-serif" font-size="11.2" lengthAdjust="spacing" textLength="74.4" x="723.2" y="42.9586">:Repositories</text><text fill="#000000" font-family="sans-serif" font-size="11.2" lengthAdjust="spacing" textLength="74.4" x="723.2" y="55.9961">:Repositories</text><rect fill="#E3E3E3" height="37.275" rx="2" ry="2" style="stroke:#181818;stroke-width:0.4000000000000001;" width="85.6" x="717.6" y="1000.5125"/><text fill="#000000" font-family="sans-serif" font-size="11.2" lengthAdjust="spacing" textLength="74.4" x="723.2" y="1016.5086">:Repositories</text><text fill="#000000" font-family="sans-serif" font-size="11.2" lengthAdjust="spacing" textLength="74.4" x="723.2" y="1029.5461">:Repositories</text><rect fill="#E3E3E3" height="37.275" rx="2" ry="2" style="stroke:#181818;stroke-width:0.4000000000000001;" width="114.4" x="811.2" y="26.9625"/><text fill="#000000" font-family="sans-serif" font-size="11.2" lengthAdjust="spacing" textLength="100" x="818.4" y="42.9586">personRepository</text><text fill="#000000" font-family="sans-serif" font-size="11.2" lengthAdjust="spacing" textLength="103.2" x="816.8" y="55.9961">:PersonRepository</text><rect fill="#E3E3E3" height="37.275" rx="2" ry="2" style="stroke:#181818;stroke-width:0.4000000000000001;" width="114.4" x="811.2" y="1000.5125"/><text fill="#000000" font-family="sans-serif" font-size="11.2" lengthAdjust="spacing" textLength="100" x="818.4" y="1016.5086">personRepository</text><text fill="#000000" font-family="sans-serif" font-size="11.2" lengthAdjust="spacing" textLength="103.2" x="816.8" y="1029.5461">:PersonRepository</text><rect fill="#E3E3E3" height="37.275" rx="2" ry="2" style="stroke:#181818;stroke-width:0.4000000000000001;" width="124" x="933.6" y="26.9625"/><text fill="#000000" font-family="sans-serif" font-size="11.2" lengthAdjust="spacing" textLength="109.6" x="940.8" y="42.9586">propertyRepository</text><text fill="#000000" font-family="sans-serif" font-size="11.2" lengthAdjust="spacing" textLength="112.8" x="939.2" y="55.9961">:PropertyRepository</text><rect fill="#E3E3E3" height="37.275" rx="2" ry="2" style="stroke:#181818;stroke-width:0.4000000000000001;" width="124" x="933.6" y="1000.5125"/><text fill="#000000" font-family="sans-serif" font-size="11.2" lengthAdjust="spacing" textLength="109.6" x="940.8" y="1016.5086">propertyRepository</text><text fill="#000000" font-family="sans-serif" font-size="11.2" lengthAdjust="spacing" textLength="112.8" x="939.2" y="1029.5461">:PropertyRepository</text><rect fill="#E3E3E3" height="37.275" rx="2" ry="2" style="stroke:#181818;stroke-width:0.4000000000000001;" width="125.6" x="1065.6" y="26.9625"/><text fill="#000000" font-family="sans-serif" font-size="11.2" lengthAdjust="spacing" textLength="112" x="1072.4" y="42.9586">messageRepository</text><text fill="#000000" font-family="sans-serif" font-size="11.2" lengthAdjust="spacing" textLength="114.4" x="1071.2" y="55.9961">:MessageRepository</text><rect fill="#E3E3E3" height="37.275" rx="2" ry="2" style="stroke:#181818;stroke-width:0.4000000000000001;" width="125.6" x="1065.6" y="1000.5125"/><text fill="#000000" font-family="sans-serif" font-size="11.2" lengthAdjust="spacing" textLength="112" x="1072.4" y="1016.5086">messageRepository</text><text fill="#000000" font-family="sans-serif" font-size="11.2" lengthAdjust="spacing" textLength="114.4" x="1071.2" y="1029.5461">:MessageRepository</text><rect fill="#E3E3E3" height="37.275" rx="2" ry="2" style="stroke:#181818;stroke-width:0.4000000000000001;" width="132.8" x="1199.2" y="26.9625"/><text fill="#000000" font-family="sans-serif" font-size="11.2" lengthAdjust="spacing" textLength="117.6" x="1206.8" y="42.9586">employeeRepository</text><text fill="#000000" font-family="sans-serif" font-size="11.2" lengthAdjust="spacing" textLength="121.6" x="1204.8" y="55.9961">:EmployeeRepository</text><rect fill="#E3E3E3" height="37.275" rx="2" ry="2" style="stroke:#181818;stroke-width:0.4000000000000001;" width="132.8" x="1199.2" y="1000.5125"/><text fill="#000000" font-family="sans-serif" font-size="11.2" lengthAdjust="spacing" textLength="117.6" x="1206.8" y="1016.5086">employeeRepository</text><text fill="#000000" font-family="sans-serif" font-size="11.2" lengthAdjust="spacing" textLength="121.6" x="1204.8" y="1029.5461">:EmployeeRepository</text><rect fill="#E3E3E3" height="24.2375" rx="2" ry="2" style="stroke:#181818;stroke-width:0.4000000000000001;" width="96.8" x="1340" y="40"/><text fill="#000000" font-family="sans-serif" font-size="11.2" lengthAdjust="spacing" textLength="85.6" x="1345.6" y="55.9961">:PersonMapper</text><rect fill="#E3E3E3" height="24.2375" rx="2" ry="2" style="stroke:#181818;stroke-width:0.4000000000000001;" width="96.8" x="1340" y="1000.5125"/><text fill="#000000" font-family="sans-serif" font-size="11.2" lengthAdjust="spacing" textLength="85.6" x="1345.6" y="1016.5086">:PersonMapper</text><rect fill="#E3E3E3" height="24.2375" rx="2" ry="2" style="stroke:#181818;stroke-width:0.4000000000000001;" width="106.4" x="1444.8" y="40"/><text fill="#000000" font-family="sans-serif" font-size="11.2" lengthAdjust="spacing" textLength="95.2" x="1450.4" y="55.9961">:PropertyMapper</text><rect fill="#E3E3E3" height="24.2375" rx="2" ry="2" style="stroke:#181818;stroke-width:0.4000000000000001;" width="106.4" x="1444.8" y="1000.5125"/><text fill="#000000" font-family="sans-serif" font-size="11.2" lengthAdjust="spacing" textLength="95.2" x="1450.4" y="1016.5086">:PropertyMapper</text><rect fill="#E3E3E3" height="24.2375" rx="2" ry="2" style="stroke:#181818;stroke-width:0.4000000000000001;" width="108" x="1559.2" y="40"/><text fill="#000000" font-family="sans-serif" font-size="11.2" lengthAdjust="spacing" textLength="96.8" x="1564.8" y="55.9961">:MessageMapper</text><rect fill="#E3E3E3" height="24.2375" rx="2" ry="2" style="stroke:#181818;stroke-width:0.4000000000000001;" width="108" x="1559.2" y="1000.5125"/><text fill="#000000" font-family="sans-serif" font-size="11.2" lengthAdjust="spacing" textLength="96.8" x="1564.8" y="1016.5086">:MessageMapper</text><rect fill="#E3E3E3" height="24.2375" rx="2" ry="2" style="stroke:#181818;stroke-width:0.4000000000000001;" width="115.2" x="1675.2" y="40"/><text fill="#000000" font-family="sans-serif" font-size="11.2" lengthAdjust="spacing" textLength="104" x="1680.8" y="55.9961">:EmployeeMapper</text><rect fill="#E3E3E3" height="24.2375" rx="2" ry="2" style="stroke:#181818;stroke-width:0.4000000000000001;" width="115.2" x="1675.2" y="1000.5125"/><text fill="#000000" font-family="sans-serif" font-size="11.2" lengthAdjust="spacing" textLength="104" x="1680.8" y="1016.5086">:EmployeeMapper</text><rect fill="#E3E3E3" height="37.275" rx="2" ry="2" style="stroke:#181818;stroke-width:0.4000000000000001;" width="92" x="1798.4" y="26.9625"/><text fill="#000000" font-family="sans-serif" font-size="11.2" lengthAdjust="spacing" textLength="78.4" x="1805.2" y="42.9586">personListDto</text><text fill="#000000" font-family="sans-serif" font-size="11.2" lengthAdjust="spacing" textLength="80.8" x="1804" y="55.9961">:List&lt;Person&gt;</text><rect fill="#E3E3E3" height="37.275" rx="2" ry="2" style="stroke:#181818;stroke-width:0.4000000000000001;" width="92" x="1798.4" y="1000.5125"/><text fill="#000000" font-family="sans-serif" font-size="11.2" lengthAdjust="spacing" textLength="78.4" x="1805.2" y="1016.5086">personListDto</text><text fill="#000000" font-family="sans-serif" font-size="11.2" lengthAdjust="spacing" textLength="80.8" x="1804" y="1029.5461">:List&lt;Person&gt;</text><rect fill="#E3E3E3" height="37.275" rx="2" ry="2" style="stroke:#181818;stroke-width:0.4000000000000001;" width="101.6" x="1898.4" y="26.9625"/><text fill="#000000" font-family="sans-serif" font-size="11.2" lengthAdjust="spacing" textLength="88" x="1905.2" y="42.9586">propertyListDto</text><text fill="#000000" font-family="sans-serif" font-size="11.2" lengthAdjust="spacing" textLength="90.4" x="1904" y="55.9961">:List&lt;Property&gt;</text><rect fill="#E3E3E3" height="37.275" rx="2" ry="2" style="stroke:#181818;stroke-width:0.4000000000000001;" width="101.6" x="1898.4" y="1000.5125"/><text fill="#000000" font-family="sans-serif" font-size="11.2" lengthAdjust="spacing" textLength="88" x="1905.2" y="1016.5086">propertyListDto</text><text fill="#000000" font-family="sans-serif" font-size="11.2" lengthAdjust="spacing" textLength="90.4" x="1904" y="1029.5461">:List&lt;Property&gt;</text><rect fill="#E3E3E3" height="37.275" rx="2" ry="2" style="stroke:#181818;stroke-width:0.4000000000000001;" width="103.2" x="2008" y="26.9625"/><text fill="#000000" font-family="sans-serif" font-size="11.2" lengthAdjust="spacing" textLength="90.4" x="2014.4" y="42.9586">messageListDto</text><text fill="#000000" font-family="sans-serif" font-size="11.2" lengthAdjust="spacing" textLength="92" x="2013.6" y="55.9961">:List&lt;Message&gt;</text><rect fill="#E3E3E3" height="37.275" rx="2" ry="2" style="stroke:#181818;stroke-width:0.4000000000000001;" width="103.2" x="2008" y="1000.5125"/><text fill="#000000" font-family="sans-serif" font-size="11.2" lengthAdjust="spacing" textLength="90.4" x="2014.4" y="1016.5086">messageListDto</text><text fill="#000000" font-family="sans-serif" font-size="11.2" lengthAdjust="spacing" textLength="92" x="2013.6" y="1029.5461">:List&lt;Message&gt;</text><rect fill="#E3E3E3" height="37.275" rx="2" ry="2" style="stroke:#181818;stroke-width:0.4000000000000001;" width="110.4" x="2119.2" y="26.9625"/><text fill="#000000" font-family="sans-serif" font-size="11.2" lengthAdjust="spacing" textLength="96" x="2126.4" y="42.9586">employeeListDto</text><text fill="#000000" font-family="sans-serif" font-size="11.2" lengthAdjust="spacing" textLength="99.2" x="2124.8" y="55.9961">:List&lt;Employee&gt;</text><rect fill="#E3E3E3" height="37.275" rx="2" ry="2" style="stroke:#181818;stroke-width:0.4000000000000001;" width="110.4" x="2119.2" y="1000.5125"/><text fill="#000000" font-family="sans-serif" font-size="11.2" lengthAdjust="spacing" textLength="96" x="2126.4" y="1016.5086">employeeListDto</text><text fill="#000000" font-family="sans-serif" font-size="11.2" lengthAdjust="spacing" textLength="99.2" x="2124.8" y="1029.5461">:List&lt;Employee&gt;</text><text fill="#000000" font-family="sans-serif" font-size="11.2" lengthAdjust="spacing" textLength="56.8" x="2237.6" y="62.3961">Employee</text><ellipse cx="2268.4" cy="10.8" fill="#E3E3E3" rx="6.4" ry="6.4" style="stroke:#181818;stroke-width:0.4000000000000001;"/><path d="M2268.4,17.2 L2268.4,38.8 M2258,23.6 L2278.8,23.6 M2268.4,38.8 L2258,50.8 M2268.4,38.8 L2278.8,50.8 " fill="none" style="stroke:#181818;stroke-width:0.4000000000000001;"/><text fill="#000000" font-family="sans-serif" font-size="11.2" lengthAdjust="spacing" textLength="56.8" x="2237.6" y="1010.9086">Employee</text><ellipse cx="2268.4" cy="1020.35" fill="#E3E3E3" rx="6.4" ry="6.4" style="stroke:#181818;stroke-width:0.4000000000000001;"/><path d="M2268.4,1026.75 L2268.4,1048.35 M2258,1033.15 L2278.8,1033.15 M2268.4,1048.35 L2258,1060.35 M2268.4,1048.35 L2278.8,1060.35 " fill="none" style="stroke:#181818;stroke-width:0.4000000000000001;"/><rect fill="#FFFFFF" height="913.875" style="stroke:#181818;stroke-width:0.8000000000000002;" width="8" x="15.2" y="73.0375"/><rect fill="#FFFFFF" height="896.9688" style="stroke:#181818;stroke-width:0.8000000000000002;" width="8" x="366.4" y="89.9438"/><rect fill="#FFFFFF" height="842.3563" style="stroke:#181818;stroke-width:0.8000000000000002;" width="8" x="540.8" y="121.25"/><rect fill="#FFFFFF" height="23.3063" style="stroke:#181818;stroke-width:0.8000000000000002;" width="8" x="662.8" y="146.2875"/><rect fill="#FFFFFF" height="163.1438" style="stroke:#181818;stroke-width:0.8000000000000002;" width="8" x="756.4" y="192.9"/><rect fill="#FFFFFF" height="23.3063" style="stroke:#181818;stroke-width:0.8000000000000002;" width="8" x="864.4" y="379.35"/><rect fill="#FFFFFF" height="23.3063" style="stroke:#181818;stroke-width:0.8000000000000002;" width="8" x="991.6" y="425.9625"/><rect fill="#FFFFFF" height="23.3063" style="stroke:#181818;stroke-width:0.8000000000000002;" width="8" x="1124.4" y="472.575"/><rect fill="#FFFFFF" height="23.3063" style="stroke:#181818;stroke-width:0.8000000000000002;" width="8" x="1261.6" y="519.1875"/><rect fill="#FFFFFF" height="23.3063" style="stroke:#181818;stroke-width:0.8000000000000002;" width="8" x="1384.4" y="565.8"/><rect fill="#FFFFFF" height="23.3063" style="stroke:#181818;stroke-width:0.8000000000000002;" width="8" x="1494" y="612.4125"/><rect fill="#FFFFFF" height="23.3063" style="stroke:#181818;stroke-width:0.8000000000000002;" width="8" x="1609.2" y="659.025"/><rect fill="#FFFFFF" height="23.3063" style="stroke:#181818;stroke-width:0.8000000000000002;" width="8" x="1728.8" y="705.6375"/><rect fill="#FFFFFF" height="23.3063" style="stroke:#181818;stroke-width:0.8000000000000002;" width="8" x="1840.4" y="771.5563"/><rect fill="#FFFFFF" height="69.9188" style="stroke:#181818;stroke-width:0.8000000000000002;" width="8" x="1945.2" y="818.1688"/><rect fill="#FFFFFF" height="23.3063" style="stroke:#181818;stroke-width:0.8000000000000002;" width="8" x="2055.6" y="911.3938"/><rect fill="#FFFFFF" height="23.3063" style="stroke:#181818;stroke-width:0.8000000000000002;" width="8" x="2170.4" y="841.475"/><polygon fill="#181818" points="356.8,86.7438,364.8,89.9438,356.8,93.1438,360,89.9438" style="stroke:#181818;stroke-width:0.8000000000000002;"/><line style="stroke:#181818;stroke-width:0.8000000000000002;" x1="23.2" x2="361.6" y1="89.9438" y2="89.9438"/><text fill="#000000" font-family="sans-serif" font-size="10.4" font-weight="bold" lengthAdjust="spacing" textLength="7.2" x="28.8" y="85.891">1</text><text fill="#000000" font-family="sans-serif" font-size="10.4" lengthAdjust="spacing" textLength="218.4" x="39.2" y="85.891">asks to make a visit request to a property</text><polygon fill="#181818" points="464,110.05,472,113.25,464,116.45,467.2,113.25" style="stroke:#181818;stroke-width:0.8000000000000002;"/><line style="stroke:#181818;stroke-width:0.8000000000000002;" x1="374.4" x2="468.8" y1="113.25" y2="113.25"/><text fill="#000000" font-family="sans-serif" font-size="10.4" font-weight="bold" lengthAdjust="spacing" textLength="7.2" x="380" y="109.1973">2</text><text fill="#000000" font-family="sans-serif" font-size="10.4" lengthAdjust="spacing" textLength="32.8" x="390.4" y="109.1973">create</text><rect fill="#E3E3E3" height="24.2375" rx="2" ry="2" style="stroke:#181818;stroke-width:0.4000000000000001;" width="142.4" x="473.6" y="96.3438"/><text fill="#000000" font-family="sans-serif" font-size="11.2" lengthAdjust="spacing" textLength="131.2" x="479.2" y="112.3398">:VisitRequestController</text><polygon fill="#181818" points="653.2,143.0875,661.2,146.2875,653.2,149.4875,656.4,146.2875" style="stroke:#181818;stroke-width:0.8000000000000002;"/><line style="stroke:#181818;stroke-width:0.8000000000000002;" x1="548.8" x2="658" y1="146.2875" y2="146.2875"/><text fill="#000000" font-family="sans-serif" font-size="10.4" font-weight="bold" lengthAdjust="spacing" textLength="7.2" x="554.4" y="142.2348">3</text><text fill="#000000" font-family="sans-serif" font-size="10.4" lengthAdjust="spacing" textLength="68.8" x="564.8" y="142.2348">getInstance()</text><polygon fill="#181818" points="557.6,166.3938,549.6,169.5938,557.6,172.7938,554.4,169.5938" style="stroke:#181818;stroke-width:0.8000000000000002;"/><line style="stroke:#181818;stroke-width:0.8000000000000002;stroke-dasharray:2.0,2.0;" x1="552.8" x2="666" y1="169.5938" y2="169.5938"/><text fill="#000000" font-family="sans-serif" font-size="10.4" font-weight="bold" lengthAdjust="spacing" textLength="7.2" x="562.4" y="165.541">4</text><text fill="#000000" font-family="sans-serif" font-size="10.4" lengthAdjust="spacing" textLength="61.6" x="572.8" y="165.541">repositories</text><polygon fill="#181818" points="746.8,189.7,754.8,192.9,746.8,196.1,750,192.9" style="stroke:#181818;stroke-width:0.8000000000000002;"/><line style="stroke:#181818;stroke-width:0.8000000000000002;" x1="548.8" x2="751.6" y1="192.9" y2="192.9"/><text fill="#000000" font-family="sans-serif" font-size="10.4" font-weight="bold" lengthAdjust="spacing" textLength="7.2" x="554.4" y="188.8473">5</text><text fill="#000000" font-family="sans-serif" font-size="10.4" lengthAdjust="spacing" textLength="116" x="564.8" y="188.8473">getPersonRepository()</text><polygon fill="#181818" points="557.6,213.0063,549.6,216.2063,557.6,219.4063,554.4,216.2063" style="stroke:#181818;stroke-width:0.8000000000000002;"/><line style="stroke:#181818;stroke-width:0.8000000000000002;stroke-dasharray:2.0,2.0;" x1="552.8" x2="755.6" y1="216.2063" y2="216.2063"/><text fill="#000000" font-family="sans-serif" font-size="10.4" font-weight="bold" lengthAdjust="spacing" textLength="7.2" x="562.4" y="212.1535">6</text><text fill="#000000" font-family="sans-serif" font-size="10.4" lengthAdjust="spacing" textLength="91.2" x="572.8" y="212.1535">personRepository</text><polygon fill="#181818" points="746.8,236.3125,754.8,239.5125,746.8,242.7125,750,239.5125" style="stroke:#181818;stroke-width:0.8000000000000002;"/><line style="stroke:#181818;stroke-width:0.8000000000000002;" x1="548.8" x2="751.6" y1="239.5125" y2="239.5125"/><text fill="#000000" font-family="sans-serif" font-size="10.4" font-weight="bold" lengthAdjust="spacing" textLength="7.2" x="554.4" y="235.4598">7</text><text fill="#000000" font-family="sans-serif" font-size="10.4" lengthAdjust="spacing" textLength="124.8" x="564.8" y="235.4598">getPropertyRepository()</text><polygon fill="#181818" points="557.6,259.6188,549.6,262.8188,557.6,266.0188,554.4,262.8188" style="stroke:#181818;stroke-width:0.8000000000000002;"/><line style="stroke:#181818;stroke-width:0.8000000000000002;stroke-dasharray:2.0,2.0;" x1="552.8" x2="755.6" y1="262.8188" y2="262.8188"/><text fill="#000000" font-family="sans-serif" font-size="10.4" font-weight="bold" lengthAdjust="spacing" textLength="7.2" x="562.4" y="258.766">8</text><text fill="#000000" font-family="sans-serif" font-size="10.4" lengthAdjust="spacing" textLength="100" x="572.8" y="258.766">propertyRepository</text><polygon fill="#181818" points="746.8,282.925,754.8,286.125,746.8,289.325,750,286.125" style="stroke:#181818;stroke-width:0.8000000000000002;"/><line style="stroke:#181818;stroke-width:0.8000000000000002;" x1="548.8" x2="751.6" y1="286.125" y2="286.125"/><text fill="#000000" font-family="sans-serif" font-size="10.4" font-weight="bold" lengthAdjust="spacing" textLength="7.2" x="554.4" y="282.0723">9</text><text fill="#000000" font-family="sans-serif" font-size="10.4" lengthAdjust="spacing" textLength="126.4" x="564.8" y="282.0723">getMessageRepository()</text><polygon fill="#181818" points="557.6,306.2313,549.6,309.4313,557.6,312.6313,554.4,309.4313" style="stroke:#181818;stroke-width:0.8000000000000002;"/><line style="stroke:#181818;stroke-width:0.8000000000000002;stroke-dasharray:2.0,2.0;" x1="552.8" x2="755.6" y1="309.4313" y2="309.4313"/><text fill="#000000" font-family="sans-serif" font-size="10.4" font-weight="bold" lengthAdjust="spacing" textLength="14.4" x="562.4" y="305.3785">10</text><text fill="#000000" font-family="sans-serif" font-size="10.4" lengthAdjust="spacing" textLength="103.2" x="580" y="305.3785">messageRepository</text><polygon fill="#181818" points="746.8,329.5375,754.8,332.7375,746.8,335.9375,750,332.7375" style="stroke:#181818;stroke-width:0.8000000000000002;"/><line style="stroke:#181818;stroke-width:0.8000000000000002;" x1="548.8" x2="751.6" y1="332.7375" y2="332.7375"/><text fill="#000000" font-family="sans-serif" font-size="10.4" font-weight="bold" lengthAdjust="spacing" textLength="14.4" x="554.4" y="328.6848">11</text><text fill="#000000" font-family="sans-serif" font-size="10.4" lengthAdjust="spacing" textLength="132.8" x="572" y="328.6848">getEmployeeRepository()</text><polygon fill="#181818" points="557.6,352.8438,549.6,356.0438,557.6,359.2438,554.4,356.0438" style="stroke:#181818;stroke-width:0.8000000000000002;"/><line style="stroke:#181818;stroke-width:0.8000000000000002;stroke-dasharray:2.0,2.0;" x1="552.8" x2="759.6" y1="356.0438" y2="356.0438"/><text fill="#000000" font-family="sans-serif" font-size="10.4" font-weight="bold" lengthAdjust="spacing" textLength="14.4" x="562.4" y="351.991">12</text><text fill="#000000" font-family="sans-serif" font-size="10.4" lengthAdjust="spacing" textLength="108" x="580" y="351.991">employeeRepository</text><polygon fill="#181818" points="854.8,376.15,862.8,379.35,854.8,382.55,858,379.35" style="stroke:#181818;stroke-width:0.8000000000000002;"/><line style="stroke:#181818;stroke-width:0.8000000000000002;" x1="548.8" x2="859.6" y1="379.35" y2="379.35"/><text fill="#000000" font-family="sans-serif" font-size="10.4" font-weight="bold" lengthAdjust="spacing" textLength="14.4" x="554.4" y="375.2973">13</text><text fill="#000000" font-family="sans-serif" font-size="10.4" lengthAdjust="spacing" textLength="78.4" x="572" y="375.2973">getPersonList()</text><polygon fill="#181818" points="557.6,399.4563,549.6,402.6563,557.6,405.8563,554.4,402.6563" style="stroke:#181818;stroke-width:0.8000000000000002;"/><line style="stroke:#181818;stroke-width:0.8000000000000002;stroke-dasharray:2.0,2.0;" x1="552.8" x2="867.6" y1="402.6563" y2="402.6563"/><text fill="#000000" font-family="sans-serif" font-size="10.4" font-weight="bold" lengthAdjust="spacing" textLength="14.4" x="562.4" y="398.6035">14</text><text fill="#000000" font-family="sans-serif" font-size="10.4" lengthAdjust="spacing" textLength="53.6" x="580" y="398.6035">personList</text><polygon fill="#181818" points="982,422.7625,990,425.9625,982,429.1625,985.2,425.9625" style="stroke:#181818;stroke-width:0.8000000000000002;"/><line style="stroke:#181818;stroke-width:0.8000000000000002;" x1="548.8" x2="986.8" y1="425.9625" y2="425.9625"/><text fill="#000000" font-family="sans-serif" font-size="10.4" font-weight="bold" lengthAdjust="spacing" textLength="14.4" x="554.4" y="421.9098">15</text><text fill="#000000" font-family="sans-serif" font-size="10.4" lengthAdjust="spacing" textLength="87.2" x="572" y="421.9098">getPropertyList()</text><polygon fill="#181818" points="557.6,446.0688,549.6,449.2688,557.6,452.4688,554.4,449.2688" style="stroke:#181818;stroke-width:0.8000000000000002;"/><line style="stroke:#181818;stroke-width:0.8000000000000002;stroke-dasharray:2.0,2.0;" x1="552.8" x2="994.8" y1="449.2688" y2="449.2688"/><text fill="#000000" font-family="sans-serif" font-size="10.4" font-weight="bold" lengthAdjust="spacing" textLength="14.4" x="562.4" y="445.216">16</text><text fill="#000000" font-family="sans-serif" font-size="10.4" lengthAdjust="spacing" textLength="62.4" x="580" y="445.216">propertyList</text><polygon fill="#181818" points="1114.8,469.375,1122.8,472.575,1114.8,475.775,1118,472.575" style="stroke:#181818;stroke-width:0.8000000000000002;"/><line style="stroke:#181818;stroke-width:0.8000000000000002;" x1="548.8" x2="1119.6" y1="472.575" y2="472.575"/><text fill="#000000" font-family="sans-serif" font-size="10.4" font-weight="bold" lengthAdjust="spacing" textLength="14.4" x="554.4" y="468.5223">17</text><text fill="#000000" font-family="sans-serif" font-size="10.4" lengthAdjust="spacing" textLength="88.8" x="572" y="468.5223">getMessageList()</text><polygon fill="#181818" points="557.6,492.6813,549.6,495.8813,557.6,499.0813,554.4,495.8813" style="stroke:#181818;stroke-width:0.8000000000000002;"/><line style="stroke:#181818;stroke-width:0.8000000000000002;stroke-dasharray:2.0,2.0;" x1="552.8" x2="1127.6" y1="495.8813" y2="495.8813"/><text fill="#000000" font-family="sans-serif" font-size="10.4" font-weight="bold" lengthAdjust="spacing" textLength="14.4" x="562.4" y="491.8285">18</text><text fill="#000000" font-family="sans-serif" font-size="10.4" lengthAdjust="spacing" textLength="65.6" x="580" y="491.8285">messageList</text><polygon fill="#181818" points="1252,515.9875,1260,519.1875,1252,522.3875,1255.2,519.1875" style="stroke:#181818;stroke-width:0.8000000000000002;"/><line style="stroke:#181818;stroke-width:0.8000000000000002;" x1="548.8" x2="1256.8" y1="519.1875" y2="519.1875"/><text fill="#000000" font-family="sans-serif" font-size="10.4" font-weight="bold" lengthAdjust="spacing" textLength="14.4" x="554.4" y="515.1348">19</text><text fill="#000000" font-family="sans-serif" font-size="10.4" lengthAdjust="spacing" textLength="95.2" x="572" y="515.1348">getEmployeeList()</text><polygon fill="#181818" points="557.6,539.2938,549.6,542.4938,557.6,545.6938,554.4,542.4938" style="stroke:#181818;stroke-width:0.8000000000000002;"/><line style="stroke:#181818;stroke-width:0.8000000000000002;stroke-dasharray:2.0,2.0;" x1="552.8" x2="1264.8" y1="542.4938" y2="542.4938"/><text fill="#000000" font-family="sans-serif" font-size="10.4" font-weight="bold" lengthAdjust="spacing" textLength="14.4" x="562.4" y="538.441">20</text><text fill="#000000" font-family="sans-serif" font-size="10.4" lengthAdjust="spacing" textLength="70.4" x="580" y="538.441">employeeList</text><polygon fill="#181818" points="1374.8,562.6,1382.8,565.8,1374.8,569,1378,565.8" style="stroke:#181818;stroke-width:0.8000000000000002;"/><line style="stroke:#181818;stroke-width:0.8000000000000002;" x1="548.8" x2="1379.6" y1="565.8" y2="565.8"/><text fill="#000000" font-family="sans-serif" font-size="10.4" font-weight="bold" lengthAdjust="spacing" textLength="14.4" x="554.4" y="561.7473">21</text><text fill="#000000" font-family="sans-serif" font-size="10.4" lengthAdjust="spacing" textLength="212.8" x="572" y="561.7473">personList = toPersonListDto(personList)</text><polygon fill="#181818" points="557.6,585.9063,549.6,589.1063,557.6,592.3063,554.4,589.1063" style="stroke:#181818;stroke-width:0.8000000000000002;"/><line style="stroke:#181818;stroke-width:0.8000000000000002;" x1="552.8" x2="1387.6" y1="589.1063" y2="589.1063"/><text fill="#000000" font-family="sans-serif" font-size="10.4" font-weight="bold" lengthAdjust="spacing" textLength="14.4" x="562.4" y="585.0535">22</text><text fill="#000000" font-family="sans-serif" font-size="10.4" lengthAdjust="spacing" textLength="72" x="580" y="585.0535">personListDto</text><polygon fill="#181818" points="1484.4,609.2125,1492.4,612.4125,1484.4,615.6125,1487.6,612.4125" style="stroke:#181818;stroke-width:0.8000000000000002;"/><line style="stroke:#181818;stroke-width:0.8000000000000002;" x1="548.8" x2="1489.2" y1="612.4125" y2="612.4125"/><text fill="#000000" font-family="sans-serif" font-size="10.4" font-weight="bold" lengthAdjust="spacing" textLength="14.4" x="554.4" y="608.3598">23</text><text fill="#000000" font-family="sans-serif" font-size="10.4" lengthAdjust="spacing" textLength="239.2" x="572" y="608.3598">propertyList = toPropertyListDto(propertyList)</text><polygon fill="#181818" points="557.6,632.5188,549.6,635.7188,557.6,638.9188,554.4,635.7188" style="stroke:#181818;stroke-width:0.8000000000000002;"/><line style="stroke:#181818;stroke-width:0.8000000000000002;" x1="552.8" x2="1497.2" y1="635.7188" y2="635.7188"/><text fill="#000000" font-family="sans-serif" font-size="10.4" font-weight="bold" lengthAdjust="spacing" textLength="14.4" x="562.4" y="631.666">24</text><text fill="#000000" font-family="sans-serif" font-size="10.4" lengthAdjust="spacing" textLength="80.8" x="580" y="631.666">propertyListDto</text><polygon fill="#181818" points="1599.6,655.825,1607.6,659.025,1599.6,662.225,1602.8,659.025" style="stroke:#181818;stroke-width:0.8000000000000002;"/><line style="stroke:#181818;stroke-width:0.8000000000000002;" x1="548.8" x2="1604.4" y1="659.025" y2="659.025"/><text fill="#000000" font-family="sans-serif" font-size="10.4" font-weight="bold" lengthAdjust="spacing" textLength="14.4" x="554.4" y="654.9723">25</text><text fill="#000000" font-family="sans-serif" font-size="10.4" lengthAdjust="spacing" textLength="247.2" x="572" y="654.9723">messageList = toMessageListDto(messageList)</text><polygon fill="#181818" points="557.6,679.1313,549.6,682.3313,557.6,685.5313,554.4,682.3313" style="stroke:#181818;stroke-width:0.8000000000000002;"/><line style="stroke:#181818;stroke-width:0.8000000000000002;" x1="552.8" x2="1612.4" y1="682.3313" y2="682.3313"/><text fill="#000000" font-family="sans-serif" font-size="10.4" font-weight="bold" lengthAdjust="spacing" textLength="14.4" x="562.4" y="678.2785">26</text><text fill="#000000" font-family="sans-serif" font-size="10.4" lengthAdjust="spacing" textLength="84" x="580" y="678.2785">messageListDto</text><polygon fill="#181818" points="1719.2,702.4375,1727.2,705.6375,1719.2,708.8375,1722.4,705.6375" style="stroke:#181818;stroke-width:0.8000000000000002;"/><line style="stroke:#181818;stroke-width:0.8000000000000002;" x1="548.8" x2="1724" y1="705.6375" y2="705.6375"/><text fill="#000000" font-family="sans-serif" font-size="10.4" font-weight="bold" lengthAdjust="spacing" textLength="14.4" x="554.4" y="701.5848">27</text><text fill="#000000" font-family="sans-serif" font-size="10.4" lengthAdjust="spacing" textLength="263.2" x="572" y="701.5848">employeeList = toEmployeeListDto(employeeList)</text><polygon fill="#181818" points="557.6,725.7438,549.6,728.9438,557.6,732.1438,554.4,728.9438" style="stroke:#181818;stroke-width:0.8000000000000002;"/><line style="stroke:#181818;stroke-width:0.8000000000000002;" x1="552.8" x2="1732" y1="728.9438" y2="728.9438"/><text fill="#000000" font-family="sans-serif" font-size="10.4" font-weight="bold" lengthAdjust="spacing" textLength="14.4" x="562.4" y="724.891">28</text><text fill="#000000" font-family="sans-serif" font-size="10.4" lengthAdjust="spacing" textLength="88.8" x="580" y="724.891">employeeListDto</text><path d="M465.6,740.9438 L526.4,740.9438 L526.4,746.65 L518.4,754.65 L465.6,754.65 L465.6,740.9438 " fill="#EEEEEE" style="stroke:#000000;stroke-width:1.2000000000000002;"/><rect fill="none" height="200.1563" style="stroke:#000000;stroke-width:1.2000000000000002;" width="1772" x="465.6" y="740.9438"/><text fill="#000000" font-family="sans-serif" font-size="10.4" font-weight="bold" lengthAdjust="spacing" textLength="24.8" x="477.6" y="751.3973">loop</text><text fill="#000000" font-family="sans-serif" font-size="8.8" font-weight="bold" lengthAdjust="spacing" textLength="114.4" x="538.4" y="750.7121">[for each visit request]</text><polygon fill="#181818" points="1830.8,768.3563,1838.8,771.5563,1830.8,774.7563,1834,771.5563" style="stroke:#181818;stroke-width:0.8000000000000002;"/><line style="stroke:#181818;stroke-width:0.8000000000000002;" x1="548.8" x2="1835.6" y1="771.5563" y2="771.5563"/><text fill="#000000" font-family="sans-serif" font-size="10.4" font-weight="bold" lengthAdjust="spacing" textLength="14.4" x="554.4" y="767.5035">29</text><text fill="#000000" font-family="sans-serif" font-size="10.4" lengthAdjust="spacing" textLength="96.8" x="572" y="767.5035">getPersonListDto()</text><polygon fill="#181818" points="557.6,791.6625,549.6,794.8625,557.6,798.0625,554.4,794.8625" style="stroke:#181818;stroke-width:0.8000000000000002;"/><line style="stroke:#181818;stroke-width:0.8000000000000002;" x1="552.8" x2="1843.6" y1="794.8625" y2="794.8625"/><text fill="#000000" font-family="sans-serif" font-size="10.4" font-weight="bold" lengthAdjust="spacing" textLength="14.4" x="562.4" y="790.8098">30</text><text fill="#000000" font-family="sans-serif" font-size="10.4" lengthAdjust="spacing" textLength="72" x="580" y="790.8098">personListDto</text><polygon fill="#181818" points="1935.6,814.9688,1943.6,818.1688,1935.6,821.3688,1938.8,818.1688" style="stroke:#181818;stroke-width:0.8000000000000002;"/><line style="stroke:#181818;stroke-width:0.8000000000000002;" x1="548.8" x2="1940.4" y1="818.1688" y2="818.1688"/><text fill="#000000" font-family="sans-serif" font-size="10.4" font-weight="bold" lengthAdjust="spacing" textLength="14.4" x="554.4" y="814.116">31</text><text fill="#000000" font-family="sans-serif" font-size="10.4" lengthAdjust="spacing" textLength="105.6" x="572" y="814.116">getPropertyListDto()</text><polygon fill="#181818" points="2160.8,838.275,2168.8,841.475,2160.8,844.675,2164,841.475" style="stroke:#181818;stroke-width:0.8000000000000002;"/><line style="stroke:#181818;stroke-width:0.8000000000000002;" x1="1953.2" x2="2165.6" y1="841.475" y2="841.475"/><text fill="#000000" font-family="sans-serif" font-size="10.4" font-weight="bold" lengthAdjust="spacing" textLength="14.4" x="1958.8" y="837.4223">32</text><text fill="#000000" font-family="sans-serif" font-size="10.4" lengthAdjust="spacing" textLength="105.6" x="1976.4" y="837.4223">getEmployeeListDto</text><polygon fill="#181818" points="1962,861.5813,1954,864.7813,1962,867.9813,1958.8,864.7813" style="stroke:#181818;stroke-width:0.8000000000000002;"/><line style="stroke:#181818;stroke-width:0.8000000000000002;" x1="1957.2" x2="2173.6" y1="864.7813" y2="864.7813"/><text fill="#000000" font-family="sans-serif" font-size="10.4" font-weight="bold" lengthAdjust="spacing" textLength="14.4" x="1966.8" y="860.7285">33</text><text fill="#000000" font-family="sans-serif" font-size="10.4" lengthAdjust="spacing" textLength="88.8" x="1984.4" y="860.7285">employeeListDto</text><polygon fill="#181818" points="557.6,884.8875,549.6,888.0875,557.6,891.2875,554.4,888.0875" style="stroke:#181818;stroke-width:0.8000000000000002;"/><line style="stroke:#181818;stroke-width:0.8000000000000002;" x1="552.8" x2="1948.4" y1="888.0875" y2="888.0875"/><text fill="#000000" font-family="sans-serif" font-size="10.4" font-weight="bold" lengthAdjust="spacing" textLength="14.4" x="562.4" y="884.0348">34</text><text fill="#000000" font-family="sans-serif" font-size="10.4" lengthAdjust="spacing" textLength="88.8" x="580" y="884.0348">employeeListDto</text><polygon fill="#181818" points="2046,908.1938,2054,911.3938,2046,914.5938,2049.2,911.3938" style="stroke:#181818;stroke-width:0.8000000000000002;"/><line style="stroke:#181818;stroke-width:0.8000000000000002;" x1="548.8" x2="2050.8" y1="911.3938" y2="911.3938"/><text fill="#000000" font-family="sans-serif" font-size="10.4" font-weight="bold" lengthAdjust="spacing" textLength="14.4" x="554.4" y="907.341">35</text><text fill="#000000" font-family="sans-serif" font-size="10.4" lengthAdjust="spacing" textLength="107.2" x="572" y="907.341">getMessageListDto()</text><polygon fill="#181818" points="557.6,931.5,549.6,934.7,557.6,937.9,554.4,934.7" style="stroke:#181818;stroke-width:0.8000000000000002;"/><line style="stroke:#181818;stroke-width:0.8000000000000002;" x1="552.8" x2="2058.8" y1="934.7" y2="934.7"/><text fill="#000000" font-family="sans-serif" font-size="10.4" font-weight="bold" lengthAdjust="spacing" textLength="14.4" x="562.4" y="930.6473">36</text><text fill="#000000" font-family="sans-serif" font-size="10.4" lengthAdjust="spacing" textLength="84" x="580" y="930.6473">messageListDto</text><polygon fill="#181818" points="383.2,960.4063,375.2,963.6063,383.2,966.8063,380,963.6063" style="stroke:#181818;stroke-width:0.8000000000000002;"/><line style="stroke:#181818;stroke-width:0.8000000000000002;" x1="378.4" x2="544" y1="963.6063" y2="963.6063"/><text fill="#000000" font-family="sans-serif" font-size="10.4" font-weight="bold" lengthAdjust="spacing" textLength="14.4" x="388" y="959.5535">37</text><text fill="#000000" font-family="sans-serif" font-size="10.4" lengthAdjust="spacing" textLength="129.6" x="405.6" y="959.5535">checks if request is valid</text><polygon fill="#181818" points="28,983.7125,20,986.9125,28,990.1125,24.8,986.9125" style="stroke:#181818;stroke-width:0.8000000000000002;"/><line style="stroke:#181818;stroke-width:0.8000000000000002;" x1="23.2" x2="369.6" y1="986.9125" y2="986.9125"/><text fill="#000000" font-family="sans-serif" font-size="10.4" font-weight="bold" lengthAdjust="spacing" textLength="14.4" x="32.8" y="982.8598">38</text><text fill="#000000" font-family="sans-serif" font-size="10.4" lengthAdjust="spacing" textLength="306.4" x="50.4" y="982.8598">shows status message, depending on the request outcome</text><!--SRC=[bLZ1Rjim3BtxAuHUbXNh3nHRWQ7B8K0p15cxqowgmoH6RCkJb7Rv-qcohOYY8gSvRTJJ8r_89qLLXwhjkEGDQqGhohqK3J0jZr0elzBnyi1ty4kVQc0IIitRNHq2r9vln7lLxjYMrmgAWX-rQ8_DAyYY-BIlDi2sGkXNyQ_WfHQItRmea3UCA_Ruj9Z_V2uCZwxAgkEjPZVtlojLwJNyFOBIBmk7UrbaC8-YrLBKzSZvl7wAq6leXC4BMO5ocFLybO7yQUaE2HtUqO5KelMuazcqYa9kOnoCMAGmHFg4UKYmPo9XpDM0KgPHY6ePnnmJYM8YQBfQd00ppKdGKT5mzCNs-fUywuR-X84OEoWCqIWKuGST0Hn58lHOQW37eLI3dogbVsXXlW3xhwzzyGzkCmAasnhl7iB3VWnADZCY6EJr-p4atS9e_wYt9uX0nMZF4UL0ttVGQhTKlN4DesKBDdpw_xEx1sDITczs71JJWZNy08opD-jJOnvdL1ldNlQPmdCRc_kW_HX6msiDVNjhk4i91eKXvxgixT6Igyv4BOSnl27OWLwqoXnW9Sm-Kx3diiS3MRKKTqCvXai69mG5Ro1FDjPbMFgwucCYMvyzZCYgfGhgYy-dQseW1qogYZWFFPMcCv43w8f4v7Yx8WyzdQv8H8-_R7z9CyOgufQ6ZRQMYqlnZAjiwmWjQRebntk2SlFaldRILJmY-VedHY91dXYel8g95ACECcXe_h8gblbveynqLhCI9lX71NI4yMXdDSmdHZb1dZ12LiPK2ko6_g95ayg-cNjX5Twbi_DYtYB3jPsmnv0dvGntqsNDaQADZN4M4enhBmLVwxCGCEMOf22SCMsKhAWCUUGJhoeOO2TgYNvhp8Bb2Vkaak9aITVaz6IOOzDuFU4eEq5p_Djd5WAct9JA76LCcoYdAaTU2z6PDvHa1hx7lwdI-j6qn_UEbNj9OiOccFEZpigWVD5udkc5aoqyPuQOsIIBsaBFL4BYKsKxQZynTrBRjNCncIqXxeEZT_6x6pk3ZKckqAWldlUIdoEwwGCWgFKI1DeDhTkzICezbEPDKctzCwHIx8tNrIQP0ByZXXT8_yQvPseltXKpBmXzzE-lBsPtPzBRFu28bkaz-4JYg4lHG3AFVUk4QVjdrNy0]--></g></svg>