<?xml version="1.0" encoding="us-ascii" standalone="no"?><svg xmlns="http://www.w3.org/2000/svg" xmlns:xlink="http://www.w3.org/1999/xlink" contentStyleType="text/css" height="779px" preserveAspectRatio="none" style="width:1290px;height:779px;background:#FFFFFF;" version="1.1" viewBox="0 0 1290 779" width="1290px" zoomAndPan="magnify"><defs/><g><!--class RegisterEmployeeUI--><g id="elem_RegisterEmployeeUI"><rect codeLine="8" fill="#F1F1F1" height="48" id="RegisterEmployeeUI" rx="2.5" ry="2.5" style="stroke:#181818;stroke-width:0.5;" width="159" x="7" y="53.5"/><ellipse cx="22" cy="69.5" fill="#ADD1B2" rx="11" ry="11" style="stroke:#181818;stroke-width:1.0;"/><path d="M24.7656,65.375 Q24.9219,65.1563 25.1094,65.0469 Q25.2969,64.9375 25.5156,64.9375 Q25.8906,64.9375 26.125,65.2031 Q26.3594,65.4531 26.3594,66.0625 L26.3594,67.5156 Q26.3594,68.125 26.125,68.3906 Q25.8906,68.6563 25.5156,68.6563 Q25.1719,68.6563 24.9688,68.4531 Q24.7656,68.2656 24.6563,67.75 Q24.6094,67.3906 24.4219,67.2031 Q24.0938,66.8281 23.4844,66.6094 Q22.875,66.3906 22.25,66.3906 Q21.4844,66.3906 20.8438,66.7188 Q20.2188,67.0469 19.7188,67.7969 Q19.2344,68.5469 19.2344,69.5781 L19.2344,70.6719 Q19.2344,71.9063 20.125,72.7344 Q21.0156,73.5469 22.6094,73.5469 Q23.5469,73.5469 24.2031,73.2969 Q24.5938,73.1406 25.0156,72.7031 Q25.2813,72.4375 25.4219,72.3594 Q25.5781,72.2813 25.7813,72.2813 Q26.1094,72.2813 26.3594,72.5469 Q26.625,72.7969 26.625,73.1406 Q26.625,73.4844 26.2813,73.8906 Q25.7813,74.4688 24.9844,74.7969 Q23.9063,75.25 22.6094,75.25 Q21.0938,75.25 19.8906,74.625 Q18.9063,74.125 18.2188,73.0625 Q17.5313,71.9844 17.5313,70.7031 L17.5313,69.5469 Q17.5313,68.2188 18.1406,67.0781 Q18.7656,65.9219 19.8594,65.3125 Q20.9531,64.6875 22.1875,64.6875 Q22.9219,64.6875 23.5625,64.8594 Q24.2188,65.0156 24.7656,65.375 Z " fill="#000000"/><text fill="#000000" font-family="sans-serif" font-size="14" lengthAdjust="spacing" textLength="127" x="36" y="75.2969">RegisterEmployeeUI</text><line style="stroke:#181818;stroke-width:0.5;" x1="8" x2="165" y1="85.5" y2="85.5"/><line style="stroke:#181818;stroke-width:0.5;" x1="8" x2="165" y1="93.5" y2="93.5"/></g><!--class RegisterEmployeeController--><g id="elem_RegisterEmployeeController"><rect codeLine="10" fill="#F1F1F1" height="141.1055" id="RegisterEmployeeController" rx="2.5" ry="2.5" style="stroke:#181818;stroke-width:0.5;" width="421" x="201" y="7"/><ellipse cx="318.75" cy="23" fill="#ADD1B2" rx="11" ry="11" style="stroke:#181818;stroke-width:1.0;"/><path d="M321.5156,18.875 Q321.6719,18.6563 321.8594,18.5469 Q322.0469,18.4375 322.2656,18.4375 Q322.6406,18.4375 322.875,18.7031 Q323.1094,18.9531 323.1094,19.5625 L323.1094,21.0156 Q323.1094,21.625 322.875,21.8906 Q322.6406,22.1563 322.2656,22.1563 Q321.9219,22.1563 321.7188,21.9531 Q321.5156,21.7656 321.4063,21.25 Q321.3594,20.8906 321.1719,20.7031 Q320.8438,20.3281 320.2344,20.1094 Q319.625,19.8906 319,19.8906 Q318.2344,19.8906 317.5938,20.2188 Q316.9688,20.5469 316.4688,21.2969 Q315.9844,22.0469 315.9844,23.0781 L315.9844,24.1719 Q315.9844,25.4063 316.875,26.2344 Q317.7656,27.0469 319.3594,27.0469 Q320.2969,27.0469 320.9531,26.7969 Q321.3438,26.6406 321.7656,26.2031 Q322.0313,25.9375 322.1719,25.8594 Q322.3281,25.7813 322.5313,25.7813 Q322.8594,25.7813 323.1094,26.0469 Q323.375,26.2969 323.375,26.6406 Q323.375,26.9844 323.0313,27.3906 Q322.5313,27.9688 321.7344,28.2969 Q320.6563,28.75 319.3594,28.75 Q317.8438,28.75 316.6406,28.125 Q315.6563,27.625 314.9688,26.5625 Q314.2813,25.4844 314.2813,24.2031 L314.2813,23.0469 Q314.2813,21.7188 314.8906,20.5781 Q315.5156,19.4219 316.6094,18.8125 Q317.7031,18.1875 318.9375,18.1875 Q319.6719,18.1875 320.3125,18.3594 Q320.9688,18.5156 321.5156,18.875 Z " fill="#000000"/><text fill="#000000" font-family="sans-serif" font-size="14" lengthAdjust="spacing" textLength="177" x="339.25" y="28.7969">RegisterEmployeeController</text><line style="stroke:#181818;stroke-width:0.5;" x1="202" x2="621" y1="39" y2="39"/><line style="stroke:#181818;stroke-width:0.5;" x1="202" x2="621" y1="47" y2="47"/><text fill="#000000" font-family="sans-serif" font-size="14" lengthAdjust="spacing" textLength="409" x="207" y="66.1074">+RegisterEmployeeController(agencyRepository, roleRepository)</text><text fill="#000000" font-family="sans-serif" font-size="14" lengthAdjust="spacing" textLength="153" x="207" y="84.7285">+getAgencyRepository()</text><text fill="#000000" font-family="sans-serif" font-size="14" lengthAdjust="spacing" textLength="135" x="207" y="103.3496">+getRoleRepository()</text><text fill="#000000" font-family="sans-serif" font-size="14" lengthAdjust="spacing" textLength="397" x="207" y="121.9707">+registerEmployee(name, passport's card number, tax number,</text><text fill="#000000" font-family="sans-serif" font-size="14" lengthAdjust="spacing" textLength="361" x="207" y="140.5918">address, email address, telephone number, agency, role)</text></g><!--class Repositories--><g id="elem_Repositories"><rect codeLine="18" fill="#F1F1F1" height="141.1055" id="Repositories" rx="2.5" ry="2.5" style="stroke:#181818;stroke-width:0.5;" width="194" x="744.5" y="7"/><ellipse cx="797.75" cy="23" fill="#ADD1B2" rx="11" ry="11" style="stroke:#181818;stroke-width:1.0;"/><path d="M800.5156,18.875 Q800.6719,18.6563 800.8594,18.5469 Q801.0469,18.4375 801.2656,18.4375 Q801.6406,18.4375 801.875,18.7031 Q802.1094,18.9531 802.1094,19.5625 L802.1094,21.0156 Q802.1094,21.625 801.875,21.8906 Q801.6406,22.1563 801.2656,22.1563 Q800.9219,22.1563 800.7188,21.9531 Q800.5156,21.7656 800.4063,21.25 Q800.3594,20.8906 800.1719,20.7031 Q799.8438,20.3281 799.2344,20.1094 Q798.625,19.8906 798,19.8906 Q797.2344,19.8906 796.5938,20.2188 Q795.9688,20.5469 795.4688,21.2969 Q794.9844,22.0469 794.9844,23.0781 L794.9844,24.1719 Q794.9844,25.4063 795.875,26.2344 Q796.7656,27.0469 798.3594,27.0469 Q799.2969,27.0469 799.9531,26.7969 Q800.3438,26.6406 800.7656,26.2031 Q801.0313,25.9375 801.1719,25.8594 Q801.3281,25.7813 801.5313,25.7813 Q801.8594,25.7813 802.1094,26.0469 Q802.375,26.2969 802.375,26.6406 Q802.375,26.9844 802.0313,27.3906 Q801.5313,27.9688 800.7344,28.2969 Q799.6563,28.75 798.3594,28.75 Q796.8438,28.75 795.6406,28.125 Q794.6563,27.625 793.9688,26.5625 Q793.2813,25.4844 793.2813,24.2031 L793.2813,23.0469 Q793.2813,21.7188 793.8906,20.5781 Q794.5156,19.4219 795.6094,18.8125 Q796.7031,18.1875 797.9375,18.1875 Q798.6719,18.1875 799.3125,18.3594 Q799.9688,18.5156 800.5156,18.875 Z " fill="#000000"/><text fill="#000000" font-family="sans-serif" font-size="14" lengthAdjust="spacing" textLength="79" x="818.25" y="28.7969">Repositories</text><line style="stroke:#181818;stroke-width:0.5;" x1="745.5" x2="937.5" y1="39" y2="39"/><line style="stroke:#181818;stroke-width:0.5;" x1="745.5" x2="937.5" y1="47" y2="47"/><text fill="#000000" font-family="sans-serif" font-size="14" lengthAdjust="spacing" textLength="94" x="750.5" y="66.1074">-Repositories()</text><text fill="#000000" font-family="sans-serif" font-size="14" lengthAdjust="spacing" textLength="182" x="750.5" y="84.7285">+getInstance() : Repositories</text><text fill="#000000" font-family="sans-serif" font-size="14" lengthAdjust="spacing" textLength="153" x="750.5" y="103.3496">+getAgencyRepository()</text><text fill="#000000" font-family="sans-serif" font-size="14" lengthAdjust="spacing" textLength="99" x="750.5" y="121.9707">+getPassword()</text><text fill="#000000" font-family="sans-serif" font-size="14" lengthAdjust="spacing" textLength="135" x="750.5" y="140.5918">+getRoleRepository()</text></g><!--class AgencyRepository--><g id="elem_AgencyRepository"><rect codeLine="26" fill="#F1F1F1" height="48" id="AgencyRepository" rx="2.5" ry="2.5" style="stroke:#181818;stroke-width:0.5;" width="147" x="972" y="218.5"/><ellipse cx="987" cy="234.5" fill="#ADD1B2" rx="11" ry="11" style="stroke:#181818;stroke-width:1.0;"/><path d="M989.7656,230.375 Q989.9219,230.1563 990.1094,230.0469 Q990.2969,229.9375 990.5156,229.9375 Q990.8906,229.9375 991.125,230.2031 Q991.3594,230.4531 991.3594,231.0625 L991.3594,232.5156 Q991.3594,233.125 991.125,233.3906 Q990.8906,233.6563 990.5156,233.6563 Q990.1719,233.6563 989.9688,233.4531 Q989.7656,233.2656 989.6563,232.75 Q989.6094,232.3906 989.4219,232.2031 Q989.0938,231.8281 988.4844,231.6094 Q987.875,231.3906 987.25,231.3906 Q986.4844,231.3906 985.8438,231.7188 Q985.2188,232.0469 984.7188,232.7969 Q984.2344,233.5469 984.2344,234.5781 L984.2344,235.6719 Q984.2344,236.9063 985.125,237.7344 Q986.0156,238.5469 987.6094,238.5469 Q988.5469,238.5469 989.2031,238.2969 Q989.5938,238.1406 990.0156,237.7031 Q990.2813,237.4375 990.4219,237.3594 Q990.5781,237.2813 990.7813,237.2813 Q991.1094,237.2813 991.3594,237.5469 Q991.625,237.7969 991.625,238.1406 Q991.625,238.4844 991.2813,238.8906 Q990.7813,239.4688 989.9844,239.7969 Q988.9063,240.25 987.6094,240.25 Q986.0938,240.25 984.8906,239.625 Q983.9063,239.125 983.2188,238.0625 Q982.5313,236.9844 982.5313,235.7031 L982.5313,234.5469 Q982.5313,233.2188 983.1406,232.0781 Q983.7656,230.9219 984.8594,230.3125 Q985.9531,229.6875 987.1875,229.6875 Q987.9219,229.6875 988.5625,229.8594 Q989.2188,230.0156 989.7656,230.375 Z " fill="#000000"/><text fill="#000000" font-family="sans-serif" font-size="14" lengthAdjust="spacing" textLength="115" x="1001" y="240.2969">AgencyRepository</text><line style="stroke:#181818;stroke-width:0.5;" x1="973" x2="1118" y1="250.5" y2="250.5"/><line style="stroke:#181818;stroke-width:0.5;" x1="973" x2="1118" y1="258.5" y2="258.5"/></g><!--class Agency--><g id="elem_Agency"><rect codeLine="28" fill="#F1F1F1" height="48" id="Agency" rx="2.5" ry="2.5" style="stroke:#181818;stroke-width:0.5;" width="79" x="1006" y="439.5"/><ellipse cx="1021" cy="455.5" fill="#ADD1B2" rx="11" ry="11" style="stroke:#181818;stroke-width:1.0;"/><path d="M1023.7656,451.375 Q1023.9219,451.1563 1024.1094,451.0469 Q1024.2969,450.9375 1024.5156,450.9375 Q1024.8906,450.9375 1025.125,451.2031 Q1025.3594,451.4531 1025.3594,452.0625 L1025.3594,453.5156 Q1025.3594,454.125 1025.125,454.3906 Q1024.8906,454.6563 1024.5156,454.6563 Q1024.1719,454.6563 1023.9688,454.4531 Q1023.7656,454.2656 1023.6563,453.75 Q1023.6094,453.3906 1023.4219,453.2031 Q1023.0938,452.8281 1022.4844,452.6094 Q1021.875,452.3906 1021.25,452.3906 Q1020.4844,452.3906 1019.8438,452.7188 Q1019.2188,453.0469 1018.7188,453.7969 Q1018.2344,454.5469 1018.2344,455.5781 L1018.2344,456.6719 Q1018.2344,457.9063 1019.125,458.7344 Q1020.0156,459.5469 1021.6094,459.5469 Q1022.5469,459.5469 1023.2031,459.2969 Q1023.5938,459.1406 1024.0156,458.7031 Q1024.2813,458.4375 1024.4219,458.3594 Q1024.5781,458.2813 1024.7813,458.2813 Q1025.1094,458.2813 1025.3594,458.5469 Q1025.625,458.7969 1025.625,459.1406 Q1025.625,459.4844 1025.2813,459.8906 Q1024.7813,460.4688 1023.9844,460.7969 Q1022.9063,461.25 1021.6094,461.25 Q1020.0938,461.25 1018.8906,460.625 Q1017.9063,460.125 1017.2188,459.0625 Q1016.5313,457.9844 1016.5313,456.7031 L1016.5313,455.5469 Q1016.5313,454.2188 1017.1406,453.0781 Q1017.7656,451.9219 1018.8594,451.3125 Q1019.9531,450.6875 1021.1875,450.6875 Q1021.9219,450.6875 1022.5625,450.8594 Q1023.2188,451.0156 1023.7656,451.375 Z " fill="#000000"/><text fill="#000000" font-family="sans-serif" font-size="14" lengthAdjust="spacing" textLength="47" x="1035" y="461.2969">Agency</text><line style="stroke:#181818;stroke-width:0.5;" x1="1007" x2="1084" y1="471.5" y2="471.5"/><line style="stroke:#181818;stroke-width:0.5;" x1="1007" x2="1084" y1="479.5" y2="479.5"/></g><!--class RoleRepository--><g id="elem_RoleRepository"><rect codeLine="30" fill="#F1F1F1" height="48" id="RoleRepository" rx="2.5" ry="2.5" style="stroke:#181818;stroke-width:0.5;" width="129" x="1154" y="218.5"/><ellipse cx="1169" cy="234.5" fill="#ADD1B2" rx="11" ry="11" style="stroke:#181818;stroke-width:1.0;"/><path d="M1171.7656,230.375 Q1171.9219,230.1563 1172.1094,230.0469 Q1172.2969,229.9375 1172.5156,229.9375 Q1172.8906,229.9375 1173.125,230.2031 Q1173.3594,230.4531 1173.3594,231.0625 L1173.3594,232.5156 Q1173.3594,233.125 1173.125,233.3906 Q1172.8906,233.6563 1172.5156,233.6563 Q1172.1719,233.6563 1171.9688,233.4531 Q1171.7656,233.2656 1171.6563,232.75 Q1171.6094,232.3906 1171.4219,232.2031 Q1171.0938,231.8281 1170.4844,231.6094 Q1169.875,231.3906 1169.25,231.3906 Q1168.4844,231.3906 1167.8438,231.7188 Q1167.2188,232.0469 1166.7188,232.7969 Q1166.2344,233.5469 1166.2344,234.5781 L1166.2344,235.6719 Q1166.2344,236.9063 1167.125,237.7344 Q1168.0156,238.5469 1169.6094,238.5469 Q1170.5469,238.5469 1171.2031,238.2969 Q1171.5938,238.1406 1172.0156,237.7031 Q1172.2813,237.4375 1172.4219,237.3594 Q1172.5781,237.2813 1172.7813,237.2813 Q1173.1094,237.2813 1173.3594,237.5469 Q1173.625,237.7969 1173.625,238.1406 Q1173.625,238.4844 1173.2813,238.8906 Q1172.7813,239.4688 1171.9844,239.7969 Q1170.9063,240.25 1169.6094,240.25 Q1168.0938,240.25 1166.8906,239.625 Q1165.9063,239.125 1165.2188,238.0625 Q1164.5313,236.9844 1164.5313,235.7031 L1164.5313,234.5469 Q1164.5313,233.2188 1165.1406,232.0781 Q1165.7656,230.9219 1166.8594,230.3125 Q1167.9531,229.6875 1169.1875,229.6875 Q1169.9219,229.6875 1170.5625,229.8594 Q1171.2188,230.0156 1171.7656,230.375 Z " fill="#000000"/><text fill="#000000" font-family="sans-serif" font-size="14" lengthAdjust="spacing" textLength="97" x="1183" y="240.2969">RoleRepository</text><line style="stroke:#181818;stroke-width:0.5;" x1="1155" x2="1282" y1="250.5" y2="250.5"/><line style="stroke:#181818;stroke-width:0.5;" x1="1155" x2="1282" y1="258.5" y2="258.5"/></g><!--class Role--><g id="elem_Role"><rect codeLine="32" fill="#F1F1F1" height="48" id="Role" rx="2.5" ry="2.5" style="stroke:#181818;stroke-width:0.5;" width="61" x="1188" y="439.5"/><ellipse cx="1203" cy="455.5" fill="#ADD1B2" rx="11" ry="11" style="stroke:#181818;stroke-width:1.0;"/><path d="M1205.7656,451.375 Q1205.9219,451.1563 1206.1094,451.0469 Q1206.2969,450.9375 1206.5156,450.9375 Q1206.8906,450.9375 1207.125,451.2031 Q1207.3594,451.4531 1207.3594,452.0625 L1207.3594,453.5156 Q1207.3594,454.125 1207.125,454.3906 Q1206.8906,454.6563 1206.5156,454.6563 Q1206.1719,454.6563 1205.9688,454.4531 Q1205.7656,454.2656 1205.6563,453.75 Q1205.6094,453.3906 1205.4219,453.2031 Q1205.0938,452.8281 1204.4844,452.6094 Q1203.875,452.3906 1203.25,452.3906 Q1202.4844,452.3906 1201.8438,452.7188 Q1201.2188,453.0469 1200.7188,453.7969 Q1200.2344,454.5469 1200.2344,455.5781 L1200.2344,456.6719 Q1200.2344,457.9063 1201.125,458.7344 Q1202.0156,459.5469 1203.6094,459.5469 Q1204.5469,459.5469 1205.2031,459.2969 Q1205.5938,459.1406 1206.0156,458.7031 Q1206.2813,458.4375 1206.4219,458.3594 Q1206.5781,458.2813 1206.7813,458.2813 Q1207.1094,458.2813 1207.3594,458.5469 Q1207.625,458.7969 1207.625,459.1406 Q1207.625,459.4844 1207.2813,459.8906 Q1206.7813,460.4688 1205.9844,460.7969 Q1204.9063,461.25 1203.6094,461.25 Q1202.0938,461.25 1200.8906,460.625 Q1199.9063,460.125 1199.2188,459.0625 Q1198.5313,457.9844 1198.5313,456.7031 L1198.5313,455.5469 Q1198.5313,454.2188 1199.1406,453.0781 Q1199.7656,451.9219 1200.8594,451.3125 Q1201.9531,450.6875 1203.1875,450.6875 Q1203.9219,450.6875 1204.5625,450.8594 Q1205.2188,451.0156 1205.7656,451.375 Z " fill="#000000"/><text fill="#000000" font-family="sans-serif" font-size="14" lengthAdjust="spacing" textLength="29" x="1217" y="461.2969">Role</text><line style="stroke:#181818;stroke-width:0.5;" x1="1189" x2="1248" y1="471.5" y2="471.5"/><line style="stroke:#181818;stroke-width:0.5;" x1="1189" x2="1248" y1="479.5" y2="479.5"/></g><!--class EmployeeRepository--><g id="elem_EmployeeRepository"><rect codeLine="34" fill="#F1F1F1" height="48" id="EmployeeRepository" rx="2.5" ry="2.5" style="stroke:#181818;stroke-width:0.5;" width="162" x="549.5" y="218.5"/><ellipse cx="564.5" cy="234.5" fill="#ADD1B2" rx="11" ry="11" style="stroke:#181818;stroke-width:1.0;"/><path d="M567.2656,230.375 Q567.4219,230.1563 567.6094,230.0469 Q567.7969,229.9375 568.0156,229.9375 Q568.3906,229.9375 568.625,230.2031 Q568.8594,230.4531 568.8594,231.0625 L568.8594,232.5156 Q568.8594,233.125 568.625,233.3906 Q568.3906,233.6563 568.0156,233.6563 Q567.6719,233.6563 567.4688,233.4531 Q567.2656,233.2656 567.1563,232.75 Q567.1094,232.3906 566.9219,232.2031 Q566.5938,231.8281 565.9844,231.6094 Q565.375,231.3906 564.75,231.3906 Q563.9844,231.3906 563.3438,231.7188 Q562.7188,232.0469 562.2188,232.7969 Q561.7344,233.5469 561.7344,234.5781 L561.7344,235.6719 Q561.7344,236.9063 562.625,237.7344 Q563.5156,238.5469 565.1094,238.5469 Q566.0469,238.5469 566.7031,238.2969 Q567.0938,238.1406 567.5156,237.7031 Q567.7813,237.4375 567.9219,237.3594 Q568.0781,237.2813 568.2813,237.2813 Q568.6094,237.2813 568.8594,237.5469 Q569.125,237.7969 569.125,238.1406 Q569.125,238.4844 568.7813,238.8906 Q568.2813,239.4688 567.4844,239.7969 Q566.4063,240.25 565.1094,240.25 Q563.5938,240.25 562.3906,239.625 Q561.4063,239.125 560.7188,238.0625 Q560.0313,236.9844 560.0313,235.7031 L560.0313,234.5469 Q560.0313,233.2188 560.6406,232.0781 Q561.2656,230.9219 562.3594,230.3125 Q563.4531,229.6875 564.6875,229.6875 Q565.4219,229.6875 566.0625,229.8594 Q566.7188,230.0156 567.2656,230.375 Z " fill="#000000"/><text fill="#000000" font-family="sans-serif" font-size="14" lengthAdjust="spacing" textLength="130" x="578.5" y="240.2969">EmployeeRepository</text><line style="stroke:#181818;stroke-width:0.5;" x1="550.5" x2="710.5" y1="250.5" y2="250.5"/><line style="stroke:#181818;stroke-width:0.5;" x1="550.5" x2="710.5" y1="258.5" y2="258.5"/></g><!--class PasswordGenerator--><g id="elem_PasswordGenerator"><rect codeLine="36" fill="#F1F1F1" height="48" id="PasswordGenerator" rx="2.5" ry="2.5" style="stroke:#181818;stroke-width:0.5;" width="158" x="1052.5" y="53.5"/><ellipse cx="1067.5" cy="69.5" fill="#ADD1B2" rx="11" ry="11" style="stroke:#181818;stroke-width:1.0;"/><path d="M1070.2656,65.375 Q1070.4219,65.1563 1070.6094,65.0469 Q1070.7969,64.9375 1071.0156,64.9375 Q1071.3906,64.9375 1071.625,65.2031 Q1071.8594,65.4531 1071.8594,66.0625 L1071.8594,67.5156 Q1071.8594,68.125 1071.625,68.3906 Q1071.3906,68.6563 1071.0156,68.6563 Q1070.6719,68.6563 1070.4688,68.4531 Q1070.2656,68.2656 1070.1563,67.75 Q1070.1094,67.3906 1069.9219,67.2031 Q1069.5938,66.8281 1068.9844,66.6094 Q1068.375,66.3906 1067.75,66.3906 Q1066.9844,66.3906 1066.3438,66.7188 Q1065.7188,67.0469 1065.2188,67.7969 Q1064.7344,68.5469 1064.7344,69.5781 L1064.7344,70.6719 Q1064.7344,71.9063 1065.625,72.7344 Q1066.5156,73.5469 1068.1094,73.5469 Q1069.0469,73.5469 1069.7031,73.2969 Q1070.0938,73.1406 1070.5156,72.7031 Q1070.7813,72.4375 1070.9219,72.3594 Q1071.0781,72.2813 1071.2813,72.2813 Q1071.6094,72.2813 1071.8594,72.5469 Q1072.125,72.7969 1072.125,73.1406 Q1072.125,73.4844 1071.7813,73.8906 Q1071.2813,74.4688 1070.4844,74.7969 Q1069.4063,75.25 1068.1094,75.25 Q1066.5938,75.25 1065.3906,74.625 Q1064.4063,74.125 1063.7188,73.0625 Q1063.0313,71.9844 1063.0313,70.7031 L1063.0313,69.5469 Q1063.0313,68.2188 1063.6406,67.0781 Q1064.2656,65.9219 1065.3594,65.3125 Q1066.4531,64.6875 1067.6875,64.6875 Q1068.4219,64.6875 1069.0625,64.8594 Q1069.7188,65.0156 1070.2656,65.375 Z " fill="#000000"/><text fill="#000000" font-family="sans-serif" font-size="14" lengthAdjust="spacing" textLength="126" x="1081.5" y="75.2969">PasswordGenerator</text><line style="stroke:#181818;stroke-width:0.5;" x1="1053.5" x2="1209.5" y1="85.5" y2="85.5"/><line style="stroke:#181818;stroke-width:0.5;" x1="1053.5" x2="1209.5" y1="93.5" y2="93.5"/></g><!--class AuthenticationRepository--><g id="elem_AuthenticationRepository"><rect codeLine="38" fill="#F1F1F1" height="66.6211" id="AuthenticationRepository" rx="2.5" ry="2.5" style="stroke:#181818;stroke-width:0.5;" width="190" x="746.5" y="209"/><ellipse cx="761.5" cy="225" fill="#ADD1B2" rx="11" ry="11" style="stroke:#181818;stroke-width:1.0;"/><path d="M764.2656,220.875 Q764.4219,220.6563 764.6094,220.5469 Q764.7969,220.4375 765.0156,220.4375 Q765.3906,220.4375 765.625,220.7031 Q765.8594,220.9531 765.8594,221.5625 L765.8594,223.0156 Q765.8594,223.625 765.625,223.8906 Q765.3906,224.1563 765.0156,224.1563 Q764.6719,224.1563 764.4688,223.9531 Q764.2656,223.7656 764.1563,223.25 Q764.1094,222.8906 763.9219,222.7031 Q763.5938,222.3281 762.9844,222.1094 Q762.375,221.8906 761.75,221.8906 Q760.9844,221.8906 760.3438,222.2188 Q759.7188,222.5469 759.2188,223.2969 Q758.7344,224.0469 758.7344,225.0781 L758.7344,226.1719 Q758.7344,227.4063 759.625,228.2344 Q760.5156,229.0469 762.1094,229.0469 Q763.0469,229.0469 763.7031,228.7969 Q764.0938,228.6406 764.5156,228.2031 Q764.7813,227.9375 764.9219,227.8594 Q765.0781,227.7813 765.2813,227.7813 Q765.6094,227.7813 765.8594,228.0469 Q766.125,228.2969 766.125,228.6406 Q766.125,228.9844 765.7813,229.3906 Q765.2813,229.9688 764.4844,230.2969 Q763.4063,230.75 762.1094,230.75 Q760.5938,230.75 759.3906,230.125 Q758.4063,229.625 757.7188,228.5625 Q757.0313,227.4844 757.0313,226.2031 L757.0313,225.0469 Q757.0313,223.7188 757.6406,222.5781 Q758.2656,221.4219 759.3594,220.8125 Q760.4531,220.1875 761.6875,220.1875 Q762.4219,220.1875 763.0625,220.3594 Q763.7188,220.5156 764.2656,220.875 Z " fill="#000000"/><text fill="#000000" font-family="sans-serif" font-size="14" lengthAdjust="spacing" textLength="158" x="775.5" y="230.7969">AuthenticationRepository</text><line style="stroke:#181818;stroke-width:0.5;" x1="747.5" x2="935.5" y1="241" y2="241"/><line style="stroke:#181818;stroke-width:0.5;" x1="747.5" x2="935.5" y1="249" y2="249"/><text fill="#000000" font-family="sans-serif" font-size="14" lengthAdjust="spacing" textLength="119" x="752.5" y="268.1074">+userExists (email)</text></g><!--class Employee--><g id="elem_Employee"><rect codeLine="42" fill="#F1F1F1" height="252.832" id="Employee" rx="2.5" ry="2.5" style="stroke:#181818;stroke-width:0.5;" width="373" x="276" y="337"/><ellipse cx="427.25" cy="353" fill="#ADD1B2" rx="11" ry="11" style="stroke:#181818;stroke-width:1.0;"/><path d="M430.0156,348.875 Q430.1719,348.6563 430.3594,348.5469 Q430.5469,348.4375 430.7656,348.4375 Q431.1406,348.4375 431.375,348.7031 Q431.6094,348.9531 431.6094,349.5625 L431.6094,351.0156 Q431.6094,351.625 431.375,351.8906 Q431.1406,352.1563 430.7656,352.1563 Q430.4219,352.1563 430.2188,351.9531 Q430.0156,351.7656 429.9063,351.25 Q429.8594,350.8906 429.6719,350.7031 Q429.3438,350.3281 428.7344,350.1094 Q428.125,349.8906 427.5,349.8906 Q426.7344,349.8906 426.0938,350.2188 Q425.4688,350.5469 424.9688,351.2969 Q424.4844,352.0469 424.4844,353.0781 L424.4844,354.1719 Q424.4844,355.4063 425.375,356.2344 Q426.2656,357.0469 427.8594,357.0469 Q428.7969,357.0469 429.4531,356.7969 Q429.8438,356.6406 430.2656,356.2031 Q430.5313,355.9375 430.6719,355.8594 Q430.8281,355.7813 431.0313,355.7813 Q431.3594,355.7813 431.6094,356.0469 Q431.875,356.2969 431.875,356.6406 Q431.875,356.9844 431.5313,357.3906 Q431.0313,357.9688 430.2344,358.2969 Q429.1563,358.75 427.8594,358.75 Q426.3438,358.75 425.1406,358.125 Q424.1563,357.625 423.4688,356.5625 Q422.7813,355.4844 422.7813,354.2031 L422.7813,353.0469 Q422.7813,351.7188 423.3906,350.5781 Q424.0156,349.4219 425.1094,348.8125 Q426.2031,348.1875 427.4375,348.1875 Q428.1719,348.1875 428.8125,348.3594 Q429.4688,348.5156 430.0156,348.875 Z " fill="#000000"/><text fill="#000000" font-family="sans-serif" font-size="14" lengthAdjust="spacing" textLength="62" x="447.75" y="358.7969">Employee</text><line style="stroke:#181818;stroke-width:0.5;" x1="277" x2="648" y1="369" y2="369"/><text fill="#000000" font-family="sans-serif" font-size="14" lengthAdjust="spacing" textLength="81" x="282" y="388.1074">-String name</text><text fill="#000000" font-family="sans-serif" font-size="14" lengthAdjust="spacing" textLength="195" x="282" y="406.7285">-String passport's card number</text><text fill="#000000" font-family="sans-serif" font-size="14" lengthAdjust="spacing" textLength="116" x="282" y="425.3496">-String tax number</text><text fill="#000000" font-family="sans-serif" font-size="14" lengthAdjust="spacing" textLength="97" x="282" y="443.9707">-String address</text><text fill="#000000" font-family="sans-serif" font-size="14" lengthAdjust="spacing" textLength="134" x="282" y="462.5918">-String email address</text><text fill="#000000" font-family="sans-serif" font-size="14" lengthAdjust="spacing" textLength="161" x="282" y="481.2129">-String telephone number</text><text fill="#000000" font-family="sans-serif" font-size="14" lengthAdjust="spacing" textLength="145" x="282" y="499.834">-Integer phone number</text><text fill="#000000" font-family="sans-serif" font-size="14" lengthAdjust="spacing" textLength="92" x="282" y="518.4551">-String agency</text><text fill="#000000" font-family="sans-serif" font-size="14" lengthAdjust="spacing" textLength="70" x="282" y="537.0762">-String role</text><line style="stroke:#181818;stroke-width:0.5;" x1="277" x2="648" y1="544.5898" y2="544.5898"/><text fill="#000000" font-family="sans-serif" font-size="14" lengthAdjust="spacing" textLength="327" x="282" y="563.6973">+create(name, passport's card number, tax number,</text><text fill="#000000" font-family="sans-serif" font-size="14" lengthAdjust="spacing" textLength="361" x="282" y="582.3184">address, email address, telephone number, agency, role)</text></g><!--class SystemAdministrator--><g id="elem_SystemAdministrator"><rect codeLine="56" fill="#F1F1F1" height="103.8633" id="SystemAdministrator" rx="2.5" ry="2.5" style="stroke:#181818;stroke-width:0.5;" width="161" x="382" y="669"/><ellipse cx="397" cy="685" fill="#ADD1B2" rx="11" ry="11" style="stroke:#181818;stroke-width:1.0;"/><path d="M399.7656,680.875 Q399.9219,680.6563 400.1094,680.5469 Q400.2969,680.4375 400.5156,680.4375 Q400.8906,680.4375 401.125,680.7031 Q401.3594,680.9531 401.3594,681.5625 L401.3594,683.0156 Q401.3594,683.625 401.125,683.8906 Q400.8906,684.1563 400.5156,684.1563 Q400.1719,684.1563 399.9688,683.9531 Q399.7656,683.7656 399.6563,683.25 Q399.6094,682.8906 399.4219,682.7031 Q399.0938,682.3281 398.4844,682.1094 Q397.875,681.8906 397.25,681.8906 Q396.4844,681.8906 395.8438,682.2188 Q395.2188,682.5469 394.7188,683.2969 Q394.2344,684.0469 394.2344,685.0781 L394.2344,686.1719 Q394.2344,687.4063 395.125,688.2344 Q396.0156,689.0469 397.6094,689.0469 Q398.5469,689.0469 399.2031,688.7969 Q399.5938,688.6406 400.0156,688.2031 Q400.2813,687.9375 400.4219,687.8594 Q400.5781,687.7813 400.7813,687.7813 Q401.1094,687.7813 401.3594,688.0469 Q401.625,688.2969 401.625,688.6406 Q401.625,688.9844 401.2813,689.3906 Q400.7813,689.9688 399.9844,690.2969 Q398.9063,690.75 397.6094,690.75 Q396.0938,690.75 394.8906,690.125 Q393.9063,689.625 393.2188,688.5625 Q392.5313,687.4844 392.5313,686.2031 L392.5313,685.0469 Q392.5313,683.7188 393.1406,682.5781 Q393.7656,681.4219 394.8594,680.8125 Q395.9531,680.1875 397.1875,680.1875 Q397.9219,680.1875 398.5625,680.3594 Q399.2188,680.5156 399.7656,680.875 Z " fill="#000000"/><text fill="#000000" font-family="sans-serif" font-size="14" lengthAdjust="spacing" textLength="129" x="411" y="690.7969">SystemAdministrator</text><line style="stroke:#181818;stroke-width:0.5;" x1="383" x2="542" y1="701" y2="701"/><text fill="#000000" font-family="sans-serif" font-size="14" lengthAdjust="spacing" textLength="97" x="388" y="720.1074">-phone number</text><text fill="#000000" font-family="sans-serif" font-size="14" lengthAdjust="spacing" textLength="38" x="388" y="738.7285">-email</text><text fill="#000000" font-family="sans-serif" font-size="14" lengthAdjust="spacing" textLength="65" x="388" y="757.3496">-password</text><line style="stroke:#181818;stroke-width:0.5;" x1="383" x2="542" y1="764.8633" y2="764.8633"/></g><!--link Repositories to Repositories--><g id="link_Repositories_Repositories"><path codeLine="63" d="M938.78,59.41 C958.98,61.31 973.5,67.34 973.5,77.5 C973.5,86.78 961.37,92.62 943.86,95.01 " fill="none" id="Repositories-to-Repositories" style="stroke:#181818;stroke-width:1.0;"/><polygon fill="#181818" points="938.78,95.59,948.1779,98.5361,943.7473,95.019,947.2644,90.5884,938.78,95.59" style="stroke:#181818;stroke-width:1.0;"/><text fill="#000000" font-family="sans-serif" font-size="13" lengthAdjust="spacing" textLength="49" x="979.5" y="83.0283">instance</text></g><!--link RegisterEmployeeUI to RegisterEmployeeController--><g id="link_RegisterEmployeeUI_RegisterEmployeeController"><path codeLine="65" d="M166.09,77.5 C182.46,77.5 194.83,77.5 194.83,77.5 C194.83,77.5 195.15,77.5 195.75,77.5 " fill="none" id="RegisterEmployeeUI-to-RegisterEmployeeController" style="stroke:#181818;stroke-width:1.0;stroke-dasharray:7.0,7.0;"/><polygon fill="#181818" points="200.97,77.5,191.97,73.5,195.97,77.5,191.97,81.5,200.97,77.5" style="stroke:#181818;stroke-width:1.0;"/></g><!--link RegisterEmployeeController to Repositories--><g id="link_RegisterEmployeeController_Repositories"><path codeLine="67" d="M622.09,77.5 C662.86,77.5 703.84,77.5 739.16,77.5 " fill="none" id="RegisterEmployeeController-to-Repositories" style="stroke:#181818;stroke-width:1.0;stroke-dasharray:7.0,7.0;"/><polygon fill="#181818" points="744.33,77.5,735.33,73.5,739.33,77.5,735.33,81.5,744.33,77.5" style="stroke:#181818;stroke-width:1.0;"/><text fill="#000000" font-family="sans-serif" font-size="13" lengthAdjust="spacing" textLength="67" x="649.75" y="70.5283">repositories</text></g><!--link Repositories to AgencyRepository--><g id="link_Repositories_AgencyRepository"><path codeLine="69" d="M928.61,148.1 C958.17,171.72 989.44,196.71 1012.19,214.89 " fill="none" id="Repositories-to-AgencyRepository" style="stroke:#181818;stroke-width:1.0;"/><polygon fill="#181818" points="1016.34,218.2,1011.8071,209.4563,1012.4343,215.0783,1006.8123,215.7055,1016.34,218.2" style="stroke:#181818;stroke-width:1.0;"/><text fill="#000000" font-family="sans-serif" font-size="13" lengthAdjust="spacing" textLength="7" x="1001.3791" y="207.2688">1</text></g><!--link AgencyRepository to Agency--><g id="link_AgencyRepository_Agency"><path codeLine="71" d="M1045.5,266.52 C1045.5,306.94 1045.5,390.52 1045.5,434.32 " fill="none" id="AgencyRepository-to-Agency" style="stroke:#181818;stroke-width:1.0;"/><polygon fill="#181818" points="1045.5,439.46,1049.5,430.46,1045.5,434.46,1041.5,430.46,1045.5,439.46" style="stroke:#181818;stroke-width:1.0;"/><text fill="#000000" font-family="sans-serif" font-size="13" lengthAdjust="spacing" textLength="5" x="1039.8594" y="428.1872">*</text></g><!--link Repositories to RoleRepository--><g id="link_Repositories_RoleRepository"><path codeLine="73" d="M938.59,120.48 C1008.72,150.8 1101.13,190.75 1160.19,216.29 " fill="none" id="Repositories-to-RoleRepository" style="stroke:#181818;stroke-width:1.0;"/><polygon fill="#181818" points="1165.1,218.41,1158.4305,211.1631,1160.5117,216.4232,1155.2516,218.5043,1165.1,218.41" style="stroke:#181818;stroke-width:1.0;"/><text fill="#000000" font-family="sans-serif" font-size="13" lengthAdjust="spacing" textLength="7" x="1143.5194" y="207.1244">1</text></g><!--link RoleRepository to Role--><g id="link_RoleRepository_Role"><path codeLine="75" d="M1218.5,266.52 C1218.5,306.94 1218.5,390.52 1218.5,434.32 " fill="none" id="RoleRepository-to-Role" style="stroke:#181818;stroke-width:1.0;"/><polygon fill="#181818" points="1218.5,439.46,1222.5,430.46,1218.5,434.46,1214.5,430.46,1218.5,439.46" style="stroke:#181818;stroke-width:1.0;"/><text fill="#000000" font-family="sans-serif" font-size="13" lengthAdjust="spacing" textLength="5" x="1212.8594" y="428.1872">*</text></g><!--link Repositories to EmployeeRepository--><g id="link_Repositories_EmployeeRepository"><path codeLine="77" d="M751.4,148.1 C720.7,171.82 688.21,196.92 664.66,215.11 " fill="none" id="Repositories-to-EmployeeRepository" style="stroke:#181818;stroke-width:1.0;"/><polygon fill="#181818" points="660.66,218.2,670.2276,215.8631,664.6167,215.1432,665.3367,209.5323,660.66,218.2" style="stroke:#181818;stroke-width:1.0;"/><text fill="#000000" font-family="sans-serif" font-size="13" lengthAdjust="spacing" textLength="7" x="660.1584" y="207.2688">1</text></g><!--link EmployeeRepository to Employee--><g id="link_EmployeeRepository_Employee"><path codeLine="79" d="M612.84,266.52 C600.04,283.2 581.61,307.23 562.01,332.78 " fill="none" id="EmployeeRepository-to-Employee" style="stroke:#181818;stroke-width:1.0;"/><polygon fill="#181818" points="558.86,336.89,567.5089,332.1787,561.901,332.921,561.1586,327.3131,558.86,336.89" style="stroke:#181818;stroke-width:1.0;"/><text fill="#000000" font-family="sans-serif" font-size="13" lengthAdjust="spacing" textLength="5" x="559.5796" y="325.699">*</text></g><!--link Repositories to AuthenticationRepository--><g id="link_Repositories_AuthenticationRepository"><path codeLine="81" d="M841.5,148.1 C841.5,167.23 841.5,187.26 841.5,203.84 " fill="none" id="Repositories-to-AuthenticationRepository" style="stroke:#181818;stroke-width:1.0;"/><polygon fill="#181818" points="841.5,208.87,845.5,199.87,841.5,203.87,837.5,199.87,841.5,208.87" style="stroke:#181818;stroke-width:1.0;"/><text fill="#000000" font-family="sans-serif" font-size="13" lengthAdjust="spacing" textLength="7" x="833.8109" y="197.6699">1</text></g><!--link RegisterEmployeeController to Employee--><g id="link_RegisterEmployeeController_Employee"><path codeLine="83" d="M410.43,148.33 C409.95,179.36 409.5,209 409.5,209 C409.5,209 409.5,276 409.5,276 C409.5,276 416.46,300.5 425.34,331.74 " fill="none" id="RegisterEmployeeController-to-Employee" style="stroke:#181818;stroke-width:1.0;stroke-dasharray:7.0,7.0;"/><polygon fill="#181818" points="426.78,336.81,428.1613,327.0585,425.4102,332.0013,420.4673,329.2502,426.78,336.81" style="stroke:#181818;stroke-width:1.0;"/><text fill="#000000" font-family="sans-serif" font-size="13" lengthAdjust="spacing" textLength="120" x="410.5" y="248.0283">EmployeeRepository</text></g><!--link Employee to SystemAdministrator--><g id="link_Employee_SystemAdministrator"><path codeLine="85" d="M462.5,590 C462.5,615.82 462.5,641.77 462.5,663.61 " fill="none" id="Employee-to-SystemAdministrator" style="stroke:#181818;stroke-width:1.0;"/><polygon fill="#181818" points="462.5,668.78,466.5,659.78,462.5,663.78,458.5,659.78,462.5,668.78" style="stroke:#181818;stroke-width:1.0;"/><text fill="#000000" font-family="sans-serif" font-size="13" lengthAdjust="spacing" textLength="59" x="463.5" y="635.0283">createdBy</text></g><!--SRC=[lLGzRzim4DtvAuWibHidQ5SF0PmWABmLDhfbOQYhJ8GY1VACH0twttkIIOMKP25JFPbyn_juxvxyYpADSABcZP0lee83jXgu0ud2L1gO7mByKPJsLPcA_nRQfuXM1h1jW3TMjzs19Q3KmlijebFF9uITjEQW_W3_nbYFy3rKoYEunxhHjWNujUFlVo-13zQWirg3u- -Cq-zw8QIWSOnizz1Ohz2wTiq9W8_pAgIe0BUZq2B1zjcZ0N6ZmeKHDQo9H-yRw_2BvrAuafjJ_GnkpL6ynVzFHfIb0-_N76gXD1-E21gQepKmF3lFSEvynLZ2J6X8WGzSt6INwGGxuqbE2SMARxAWpn7mamg-MbSkaZ9qDiwKo7c6KdspB2CWEKQEPsDZUp_0W1C4fXLFU0I3IWfKrgJFmoWdJmg-aP2U5xqOoIInwi3lWRQOzhyJEh-P5psF-LY0_3w8drzcUp7ACzgHWEuCGaM-c85YePxz_AvRAnQea0u4_fSr7XW-jEIWUblMof04GRpGuSmWVPa81zMxP2npmyrTxeuDLs7_ky39r-RsRk4RCdsHV89k9uLSwgrHLzJMrVUhYJqOcnYc3_qQGo_aoQr3GRcLOevzB_1iXgcf69inMimKeKjpNN3QCeD4uU2opM97VQ6vVTc4nItlAVeV]--></g></svg>