<?xml version="1.0" encoding="us-ascii" standalone="no"?><svg xmlns="http://www.w3.org/2000/svg" xmlns:xlink="http://www.w3.org/1999/xlink" contentStyleType="text/css" height="685px" preserveAspectRatio="none" style="width:2711px;height:685px;background:#FFFFFF;" version="1.1" viewBox="0 0 2711 685" width="2711px" zoomAndPan="magnify"><defs/><g><!--class LegacyFileUI--><g id="elem_LegacyFileUI"><rect codeLine="8" fill="#F1F1F1" height="48" id="LegacyFileUI" rx="2.5" ry="2.5" style="stroke:#181818;stroke-width:0.5;" width="113" x="776" y="46"/><ellipse cx="791" cy="62" fill="#ADD1B2" rx="11" ry="11" style="stroke:#181818;stroke-width:1.0;"/><path d="M793.7656,57.875 Q793.9219,57.6563 794.1094,57.5469 Q794.2969,57.4375 794.5156,57.4375 Q794.8906,57.4375 795.125,57.7031 Q795.3594,57.9531 795.3594,58.5625 L795.3594,60.0156 Q795.3594,60.625 795.125,60.8906 Q794.8906,61.1563 794.5156,61.1563 Q794.1719,61.1563 793.9688,60.9531 Q793.7656,60.7656 793.6563,60.25 Q793.6094,59.8906 793.4219,59.7031 Q793.0938,59.3281 792.4844,59.1094 Q791.875,58.8906 791.25,58.8906 Q790.4844,58.8906 789.8438,59.2188 Q789.2188,59.5469 788.7188,60.2969 Q788.2344,61.0469 788.2344,62.0781 L788.2344,63.1719 Q788.2344,64.4063 789.125,65.2344 Q790.0156,66.0469 791.6094,66.0469 Q792.5469,66.0469 793.2031,65.7969 Q793.5938,65.6406 794.0156,65.2031 Q794.2813,64.9375 794.4219,64.8594 Q794.5781,64.7813 794.7813,64.7813 Q795.1094,64.7813 795.3594,65.0469 Q795.625,65.2969 795.625,65.6406 Q795.625,65.9844 795.2813,66.3906 Q794.7813,66.9688 793.9844,67.2969 Q792.9063,67.75 791.6094,67.75 Q790.0938,67.75 788.8906,67.125 Q787.9063,66.625 787.2188,65.5625 Q786.5313,64.4844 786.5313,63.2031 L786.5313,62.0469 Q786.5313,60.7188 787.1406,59.5781 Q787.7656,58.4219 788.8594,57.8125 Q789.9531,57.1875 791.1875,57.1875 Q791.9219,57.1875 792.5625,57.3594 Q793.2188,57.5156 793.7656,57.875 Z " fill="#000000"/><text fill="#000000" font-family="sans-serif" font-size="14" lengthAdjust="spacing" textLength="81" x="805" y="66.8535">LegacyFileUI</text><line style="stroke:#181818;stroke-width:0.5;" x1="777" x2="888" y1="78" y2="78"/><line style="stroke:#181818;stroke-width:0.5;" x1="777" x2="888" y1="86" y2="86"/></g><!--class LegacyFileController--><g id="elem_LegacyFileController"><rect codeLine="10" fill="#F1F1F1" height="126.2031" id="LegacyFileController" rx="2.5" ry="2.5" style="stroke:#181818;stroke-width:0.5;" width="275" x="924" y="7"/><ellipse cx="991.75" cy="23" fill="#ADD1B2" rx="11" ry="11" style="stroke:#181818;stroke-width:1.0;"/><path d="M994.5156,18.875 Q994.6719,18.6563 994.8594,18.5469 Q995.0469,18.4375 995.2656,18.4375 Q995.6406,18.4375 995.875,18.7031 Q996.1094,18.9531 996.1094,19.5625 L996.1094,21.0156 Q996.1094,21.625 995.875,21.8906 Q995.6406,22.1563 995.2656,22.1563 Q994.9219,22.1563 994.7188,21.9531 Q994.5156,21.7656 994.4063,21.25 Q994.3594,20.8906 994.1719,20.7031 Q993.8438,20.3281 993.2344,20.1094 Q992.625,19.8906 992,19.8906 Q991.2344,19.8906 990.5938,20.2188 Q989.9688,20.5469 989.4688,21.2969 Q988.9844,22.0469 988.9844,23.0781 L988.9844,24.1719 Q988.9844,25.4063 989.875,26.2344 Q990.7656,27.0469 992.3594,27.0469 Q993.2969,27.0469 993.9531,26.7969 Q994.3438,26.6406 994.7656,26.2031 Q995.0313,25.9375 995.1719,25.8594 Q995.3281,25.7813 995.5313,25.7813 Q995.8594,25.7813 996.1094,26.0469 Q996.375,26.2969 996.375,26.6406 Q996.375,26.9844 996.0313,27.3906 Q995.5313,27.9688 994.7344,28.2969 Q993.6563,28.75 992.3594,28.75 Q990.8438,28.75 989.6406,28.125 Q988.6563,27.625 987.9688,26.5625 Q987.2813,25.4844 987.2813,24.2031 L987.2813,23.0469 Q987.2813,21.7188 987.8906,20.5781 Q988.5156,19.4219 989.6094,18.8125 Q990.7031,18.1875 991.9375,18.1875 Q992.6719,18.1875 993.3125,18.3594 Q993.9688,18.5156 994.5156,18.875 Z " fill="#000000"/><text fill="#000000" font-family="sans-serif" font-size="14" lengthAdjust="spacing" textLength="131" x="1012.25" y="27.8535">LegacyFileController</text><line style="stroke:#181818;stroke-width:0.5;" x1="925" x2="1198" y1="39" y2="39"/><text fill="#000000" font-family="sans-serif" font-size="14" lengthAdjust="spacing" textLength="23" x="930" y="55.6738">-file</text><line style="stroke:#181818;stroke-width:0.5;" x1="925" x2="1198" y1="62.6406" y2="62.6406"/><text fill="#000000" font-family="sans-serif" font-size="14" lengthAdjust="spacing" textLength="263" x="930" y="79.3145">+LegacyFileController(agencyRepository)</text><text fill="#000000" font-family="sans-serif" font-size="14" lengthAdjust="spacing" textLength="108" x="930" y="94.9551">+getFile(filePath)</text><text fill="#000000" font-family="sans-serif" font-size="14" lengthAdjust="spacing" textLength="108" x="930" y="110.5957">+validateFile(file)</text><text fill="#000000" font-family="sans-serif" font-size="14" lengthAdjust="spacing" textLength="144" x="930" y="126.2363">+readLineInformation()</text></g><!--class Repositories--><g id="elem_Repositories"><rect codeLine="18" fill="#F1F1F1" height="126.2031" id="Repositories" rx="2.5" ry="2.5" style="stroke:#181818;stroke-width:0.5;" width="194" x="2000.5" y="7"/><ellipse cx="2053.75" cy="23" fill="#ADD1B2" rx="11" ry="11" style="stroke:#181818;stroke-width:1.0;"/><path d="M2056.5156,18.875 Q2056.6719,18.6563 2056.8594,18.5469 Q2057.0469,18.4375 2057.2656,18.4375 Q2057.6406,18.4375 2057.875,18.7031 Q2058.1094,18.9531 2058.1094,19.5625 L2058.1094,21.0156 Q2058.1094,21.625 2057.875,21.8906 Q2057.6406,22.1563 2057.2656,22.1563 Q2056.9219,22.1563 2056.7188,21.9531 Q2056.5156,21.7656 2056.4063,21.25 Q2056.3594,20.8906 2056.1719,20.7031 Q2055.8438,20.3281 2055.2344,20.1094 Q2054.625,19.8906 2054,19.8906 Q2053.2344,19.8906 2052.5938,20.2188 Q2051.9688,20.5469 2051.4688,21.2969 Q2050.9844,22.0469 2050.9844,23.0781 L2050.9844,24.1719 Q2050.9844,25.4063 2051.875,26.2344 Q2052.7656,27.0469 2054.3594,27.0469 Q2055.2969,27.0469 2055.9531,26.7969 Q2056.3438,26.6406 2056.7656,26.2031 Q2057.0313,25.9375 2057.1719,25.8594 Q2057.3281,25.7813 2057.5313,25.7813 Q2057.8594,25.7813 2058.1094,26.0469 Q2058.375,26.2969 2058.375,26.6406 Q2058.375,26.9844 2058.0313,27.3906 Q2057.5313,27.9688 2056.7344,28.2969 Q2055.6563,28.75 2054.3594,28.75 Q2052.8438,28.75 2051.6406,28.125 Q2050.6563,27.625 2049.9688,26.5625 Q2049.2813,25.4844 2049.2813,24.2031 L2049.2813,23.0469 Q2049.2813,21.7188 2049.8906,20.5781 Q2050.5156,19.4219 2051.6094,18.8125 Q2052.7031,18.1875 2053.9375,18.1875 Q2054.6719,18.1875 2055.3125,18.3594 Q2055.9688,18.5156 2056.5156,18.875 Z " fill="#000000"/><text fill="#000000" font-family="sans-serif" font-size="14" lengthAdjust="spacing" textLength="79" x="2074.25" y="27.8535">Repositories</text><line style="stroke:#181818;stroke-width:0.5;" x1="2001.5" x2="2193.5" y1="39" y2="39"/><line style="stroke:#181818;stroke-width:0.5;" x1="2001.5" x2="2193.5" y1="47" y2="47"/><text fill="#000000" font-family="sans-serif" font-size="14" lengthAdjust="spacing" textLength="94" x="2006.5" y="63.6738">-Repositories()</text><text fill="#000000" font-family="sans-serif" font-size="14" lengthAdjust="spacing" textLength="182" x="2006.5" y="79.3145">+getInstance() : Repositories</text><text fill="#000000" font-family="sans-serif" font-size="14" lengthAdjust="spacing" textLength="151" x="2006.5" y="94.9551">+getPersonRepository()</text><text fill="#000000" font-family="sans-serif" font-size="14" lengthAdjust="spacing" textLength="160" x="2006.5" y="110.5957">+getPropertyRepository()</text><text fill="#000000" font-family="sans-serif" font-size="14" lengthAdjust="spacing" textLength="153" x="2006.5" y="126.2363">+getAgencyRepository()</text></g><!--class PersonRepository--><g id="elem_PersonRepository"><rect codeLine="26" fill="#F1F1F1" height="63.6406" id="PersonRepository" rx="2.5" ry="2.5" style="stroke:#181818;stroke-width:0.5;" width="145" x="1747" y="349.5"/><ellipse cx="1762" cy="365.5" fill="#ADD1B2" rx="11" ry="11" style="stroke:#181818;stroke-width:1.0;"/><path d="M1764.7656,361.375 Q1764.9219,361.1563 1765.1094,361.0469 Q1765.2969,360.9375 1765.5156,360.9375 Q1765.8906,360.9375 1766.125,361.2031 Q1766.3594,361.4531 1766.3594,362.0625 L1766.3594,363.5156 Q1766.3594,364.125 1766.125,364.3906 Q1765.8906,364.6563 1765.5156,364.6563 Q1765.1719,364.6563 1764.9688,364.4531 Q1764.7656,364.2656 1764.6563,363.75 Q1764.6094,363.3906 1764.4219,363.2031 Q1764.0938,362.8281 1763.4844,362.6094 Q1762.875,362.3906 1762.25,362.3906 Q1761.4844,362.3906 1760.8438,362.7188 Q1760.2188,363.0469 1759.7188,363.7969 Q1759.2344,364.5469 1759.2344,365.5781 L1759.2344,366.6719 Q1759.2344,367.9063 1760.125,368.7344 Q1761.0156,369.5469 1762.6094,369.5469 Q1763.5469,369.5469 1764.2031,369.2969 Q1764.5938,369.1406 1765.0156,368.7031 Q1765.2813,368.4375 1765.4219,368.3594 Q1765.5781,368.2813 1765.7813,368.2813 Q1766.1094,368.2813 1766.3594,368.5469 Q1766.625,368.7969 1766.625,369.1406 Q1766.625,369.4844 1766.2813,369.8906 Q1765.7813,370.4688 1764.9844,370.7969 Q1763.9063,371.25 1762.6094,371.25 Q1761.0938,371.25 1759.8906,370.625 Q1758.9063,370.125 1758.2188,369.0625 Q1757.5313,367.9844 1757.5313,366.7031 L1757.5313,365.5469 Q1757.5313,364.2188 1758.1406,363.0781 Q1758.7656,361.9219 1759.8594,361.3125 Q1760.9531,360.6875 1762.1875,360.6875 Q1762.9219,360.6875 1763.5625,360.8594 Q1764.2188,361.0156 1764.7656,361.375 Z " fill="#000000"/><text fill="#000000" font-family="sans-serif" font-size="14" lengthAdjust="spacing" textLength="113" x="1776" y="370.3535">PersonRepository</text><line style="stroke:#181818;stroke-width:0.5;" x1="1748" x2="1891" y1="381.5" y2="381.5"/><text fill="#000000" font-family="sans-serif" font-size="14" lengthAdjust="spacing" textLength="90" x="1753" y="398.1738">-personObject</text><line style="stroke:#181818;stroke-width:0.5;" x1="1748" x2="1891" y1="405.1406" y2="405.1406"/></g><!--class PropertyRepository--><g id="elem_PropertyRepository"><rect codeLine="30" fill="#F1F1F1" height="63.6406" id="PropertyRepository" rx="2.5" ry="2.5" style="stroke:#181818;stroke-width:0.5;" width="154" x="1927.5" y="349.5"/><ellipse cx="1942.5" cy="365.5" fill="#ADD1B2" rx="11" ry="11" style="stroke:#181818;stroke-width:1.0;"/><path d="M1945.2656,361.375 Q1945.4219,361.1563 1945.6094,361.0469 Q1945.7969,360.9375 1946.0156,360.9375 Q1946.3906,360.9375 1946.625,361.2031 Q1946.8594,361.4531 1946.8594,362.0625 L1946.8594,363.5156 Q1946.8594,364.125 1946.625,364.3906 Q1946.3906,364.6563 1946.0156,364.6563 Q1945.6719,364.6563 1945.4688,364.4531 Q1945.2656,364.2656 1945.1563,363.75 Q1945.1094,363.3906 1944.9219,363.2031 Q1944.5938,362.8281 1943.9844,362.6094 Q1943.375,362.3906 1942.75,362.3906 Q1941.9844,362.3906 1941.3438,362.7188 Q1940.7188,363.0469 1940.2188,363.7969 Q1939.7344,364.5469 1939.7344,365.5781 L1939.7344,366.6719 Q1939.7344,367.9063 1940.625,368.7344 Q1941.5156,369.5469 1943.1094,369.5469 Q1944.0469,369.5469 1944.7031,369.2969 Q1945.0938,369.1406 1945.5156,368.7031 Q1945.7813,368.4375 1945.9219,368.3594 Q1946.0781,368.2813 1946.2813,368.2813 Q1946.6094,368.2813 1946.8594,368.5469 Q1947.125,368.7969 1947.125,369.1406 Q1947.125,369.4844 1946.7813,369.8906 Q1946.2813,370.4688 1945.4844,370.7969 Q1944.4063,371.25 1943.1094,371.25 Q1941.5938,371.25 1940.3906,370.625 Q1939.4063,370.125 1938.7188,369.0625 Q1938.0313,367.9844 1938.0313,366.7031 L1938.0313,365.5469 Q1938.0313,364.2188 1938.6406,363.0781 Q1939.2656,361.9219 1940.3594,361.3125 Q1941.4531,360.6875 1942.6875,360.6875 Q1943.4219,360.6875 1944.0625,360.8594 Q1944.7188,361.0156 1945.2656,361.375 Z " fill="#000000"/><text fill="#000000" font-family="sans-serif" font-size="14" lengthAdjust="spacing" textLength="122" x="1956.5" y="370.3535">PropertyRepository</text><line style="stroke:#181818;stroke-width:0.5;" x1="1928.5" x2="2080.5" y1="381.5" y2="381.5"/><text fill="#000000" font-family="sans-serif" font-size="14" lengthAdjust="spacing" textLength="99" x="1933.5" y="398.1738">-propertyObject</text><line style="stroke:#181818;stroke-width:0.5;" x1="1928.5" x2="2080.5" y1="405.1406" y2="405.1406"/></g><!--class AgencyRepository--><g id="elem_AgencyRepository"><rect codeLine="34" fill="#F1F1F1" height="63.6406" id="AgencyRepository" rx="2.5" ry="2.5" style="stroke:#181818;stroke-width:0.5;" width="147" x="2117" y="349.5"/><ellipse cx="2132" cy="365.5" fill="#ADD1B2" rx="11" ry="11" style="stroke:#181818;stroke-width:1.0;"/><path d="M2134.7656,361.375 Q2134.9219,361.1563 2135.1094,361.0469 Q2135.2969,360.9375 2135.5156,360.9375 Q2135.8906,360.9375 2136.125,361.2031 Q2136.3594,361.4531 2136.3594,362.0625 L2136.3594,363.5156 Q2136.3594,364.125 2136.125,364.3906 Q2135.8906,364.6563 2135.5156,364.6563 Q2135.1719,364.6563 2134.9688,364.4531 Q2134.7656,364.2656 2134.6563,363.75 Q2134.6094,363.3906 2134.4219,363.2031 Q2134.0938,362.8281 2133.4844,362.6094 Q2132.875,362.3906 2132.25,362.3906 Q2131.4844,362.3906 2130.8438,362.7188 Q2130.2188,363.0469 2129.7188,363.7969 Q2129.2344,364.5469 2129.2344,365.5781 L2129.2344,366.6719 Q2129.2344,367.9063 2130.125,368.7344 Q2131.0156,369.5469 2132.6094,369.5469 Q2133.5469,369.5469 2134.2031,369.2969 Q2134.5938,369.1406 2135.0156,368.7031 Q2135.2813,368.4375 2135.4219,368.3594 Q2135.5781,368.2813 2135.7813,368.2813 Q2136.1094,368.2813 2136.3594,368.5469 Q2136.625,368.7969 2136.625,369.1406 Q2136.625,369.4844 2136.2813,369.8906 Q2135.7813,370.4688 2134.9844,370.7969 Q2133.9063,371.25 2132.6094,371.25 Q2131.0938,371.25 2129.8906,370.625 Q2128.9063,370.125 2128.2188,369.0625 Q2127.5313,367.9844 2127.5313,366.7031 L2127.5313,365.5469 Q2127.5313,364.2188 2128.1406,363.0781 Q2128.7656,361.9219 2129.8594,361.3125 Q2130.9531,360.6875 2132.1875,360.6875 Q2132.9219,360.6875 2133.5625,360.8594 Q2134.2188,361.0156 2134.7656,361.375 Z " fill="#000000"/><text fill="#000000" font-family="sans-serif" font-size="14" lengthAdjust="spacing" textLength="115" x="2146" y="370.3535">AgencyRepository</text><line style="stroke:#181818;stroke-width:0.5;" x1="2118" x2="2263" y1="381.5" y2="381.5"/><text fill="#000000" font-family="sans-serif" font-size="14" lengthAdjust="spacing" textLength="92" x="2123" y="398.1738">-agencyObject</text><line style="stroke:#181818;stroke-width:0.5;" x1="2118" x2="2263" y1="405.1406" y2="405.1406"/></g><!--class AnnouncementRepository--><g id="elem_AnnouncementRepository"><rect codeLine="38" fill="#F1F1F1" height="48" id="AnnouncementRepository" rx="2.5" ry="2.5" style="stroke:#181818;stroke-width:0.5;" width="195" x="2299" y="357.5"/><ellipse cx="2314" cy="373.5" fill="#ADD1B2" rx="11" ry="11" style="stroke:#181818;stroke-width:1.0;"/><path d="M2316.7656,369.375 Q2316.9219,369.1563 2317.1094,369.0469 Q2317.2969,368.9375 2317.5156,368.9375 Q2317.8906,368.9375 2318.125,369.2031 Q2318.3594,369.4531 2318.3594,370.0625 L2318.3594,371.5156 Q2318.3594,372.125 2318.125,372.3906 Q2317.8906,372.6563 2317.5156,372.6563 Q2317.1719,372.6563 2316.9688,372.4531 Q2316.7656,372.2656 2316.6563,371.75 Q2316.6094,371.3906 2316.4219,371.2031 Q2316.0938,370.8281 2315.4844,370.6094 Q2314.875,370.3906 2314.25,370.3906 Q2313.4844,370.3906 2312.8438,370.7188 Q2312.2188,371.0469 2311.7188,371.7969 Q2311.2344,372.5469 2311.2344,373.5781 L2311.2344,374.6719 Q2311.2344,375.9063 2312.125,376.7344 Q2313.0156,377.5469 2314.6094,377.5469 Q2315.5469,377.5469 2316.2031,377.2969 Q2316.5938,377.1406 2317.0156,376.7031 Q2317.2813,376.4375 2317.4219,376.3594 Q2317.5781,376.2813 2317.7813,376.2813 Q2318.1094,376.2813 2318.3594,376.5469 Q2318.625,376.7969 2318.625,377.1406 Q2318.625,377.4844 2318.2813,377.8906 Q2317.7813,378.4688 2316.9844,378.7969 Q2315.9063,379.25 2314.6094,379.25 Q2313.0938,379.25 2311.8906,378.625 Q2310.9063,378.125 2310.2188,377.0625 Q2309.5313,375.9844 2309.5313,374.7031 L2309.5313,373.5469 Q2309.5313,372.2188 2310.1406,371.0781 Q2310.7656,369.9219 2311.8594,369.3125 Q2312.9531,368.6875 2314.1875,368.6875 Q2314.9219,368.6875 2315.5625,368.8594 Q2316.2188,369.0156 2316.7656,369.375 Z " fill="#000000"/><text fill="#000000" font-family="sans-serif" font-size="14" lengthAdjust="spacing" textLength="163" x="2328" y="378.3535">AnnouncementRepository</text><line style="stroke:#181818;stroke-width:0.5;" x1="2300" x2="2493" y1="389.5" y2="389.5"/><line style="stroke:#181818;stroke-width:0.5;" x1="2300" x2="2493" y1="397.5" y2="397.5"/></g><!--class TransactionRepository--><g id="elem_TransactionRepository"><rect codeLine="41" fill="#F1F1F1" height="48" id="TransactionRepository" rx="2.5" ry="2.5" style="stroke:#181818;stroke-width:0.5;" width="175" x="2529" y="357.5"/><ellipse cx="2544" cy="373.5" fill="#ADD1B2" rx="11" ry="11" style="stroke:#181818;stroke-width:1.0;"/><path d="M2546.7656,369.375 Q2546.9219,369.1563 2547.1094,369.0469 Q2547.2969,368.9375 2547.5156,368.9375 Q2547.8906,368.9375 2548.125,369.2031 Q2548.3594,369.4531 2548.3594,370.0625 L2548.3594,371.5156 Q2548.3594,372.125 2548.125,372.3906 Q2547.8906,372.6563 2547.5156,372.6563 Q2547.1719,372.6563 2546.9688,372.4531 Q2546.7656,372.2656 2546.6563,371.75 Q2546.6094,371.3906 2546.4219,371.2031 Q2546.0938,370.8281 2545.4844,370.6094 Q2544.875,370.3906 2544.25,370.3906 Q2543.4844,370.3906 2542.8438,370.7188 Q2542.2188,371.0469 2541.7188,371.7969 Q2541.2344,372.5469 2541.2344,373.5781 L2541.2344,374.6719 Q2541.2344,375.9063 2542.125,376.7344 Q2543.0156,377.5469 2544.6094,377.5469 Q2545.5469,377.5469 2546.2031,377.2969 Q2546.5938,377.1406 2547.0156,376.7031 Q2547.2813,376.4375 2547.4219,376.3594 Q2547.5781,376.2813 2547.7813,376.2813 Q2548.1094,376.2813 2548.3594,376.5469 Q2548.625,376.7969 2548.625,377.1406 Q2548.625,377.4844 2548.2813,377.8906 Q2547.7813,378.4688 2546.9844,378.7969 Q2545.9063,379.25 2544.6094,379.25 Q2543.0938,379.25 2541.8906,378.625 Q2540.9063,378.125 2540.2188,377.0625 Q2539.5313,375.9844 2539.5313,374.7031 L2539.5313,373.5469 Q2539.5313,372.2188 2540.1406,371.0781 Q2540.7656,369.9219 2541.8594,369.3125 Q2542.9531,368.6875 2544.1875,368.6875 Q2544.9219,368.6875 2545.5625,368.8594 Q2546.2188,369.0156 2546.7656,369.375 Z " fill="#000000"/><text fill="#000000" font-family="sans-serif" font-size="14" lengthAdjust="spacing" textLength="143" x="2558" y="378.3535">TransactionRepository</text><line style="stroke:#181818;stroke-width:0.5;" x1="2530" x2="2703" y1="389.5" y2="389.5"/><line style="stroke:#181818;stroke-width:0.5;" x1="2530" x2="2703" y1="397.5" y2="397.5"/></g><!--class Person--><g id="elem_Person"><rect codeLine="44" fill="#F1F1F1" height="157.4844" id="Person" rx="2.5" ry="2.5" style="stroke:#181818;stroke-width:0.5;" width="227" x="7" y="303"/><ellipse cx="93.75" cy="319" fill="#ADD1B2" rx="11" ry="11" style="stroke:#181818;stroke-width:1.0;"/><path d="M96.5156,314.875 Q96.6719,314.6563 96.8594,314.5469 Q97.0469,314.4375 97.2656,314.4375 Q97.6406,314.4375 97.875,314.7031 Q98.1094,314.9531 98.1094,315.5625 L98.1094,317.0156 Q98.1094,317.625 97.875,317.8906 Q97.6406,318.1563 97.2656,318.1563 Q96.9219,318.1563 96.7188,317.9531 Q96.5156,317.7656 96.4063,317.25 Q96.3594,316.8906 96.1719,316.7031 Q95.8438,316.3281 95.2344,316.1094 Q94.625,315.8906 94,315.8906 Q93.2344,315.8906 92.5938,316.2188 Q91.9688,316.5469 91.4688,317.2969 Q90.9844,318.0469 90.9844,319.0781 L90.9844,320.1719 Q90.9844,321.4063 91.875,322.2344 Q92.7656,323.0469 94.3594,323.0469 Q95.2969,323.0469 95.9531,322.7969 Q96.3438,322.6406 96.7656,322.2031 Q97.0313,321.9375 97.1719,321.8594 Q97.3281,321.7813 97.5313,321.7813 Q97.8594,321.7813 98.1094,322.0469 Q98.375,322.2969 98.375,322.6406 Q98.375,322.9844 98.0313,323.3906 Q97.5313,323.9688 96.7344,324.2969 Q95.6563,324.75 94.3594,324.75 Q92.8438,324.75 91.6406,324.125 Q90.6563,323.625 89.9688,322.5625 Q89.2813,321.4844 89.2813,320.2031 L89.2813,319.0469 Q89.2813,317.7188 89.8906,316.5781 Q90.5156,315.4219 91.6094,314.8125 Q92.7031,314.1875 93.9375,314.1875 Q94.6719,314.1875 95.3125,314.3594 Q95.9688,314.5156 96.5156,314.875 Z " fill="#000000"/><text fill="#000000" font-family="sans-serif" font-size="14" lengthAdjust="spacing" textLength="45" x="114.25" y="323.8535">Person</text><line style="stroke:#181818;stroke-width:0.5;" x1="8" x2="233" y1="335" y2="335"/><text fill="#000000" font-family="sans-serif" font-size="14" lengthAdjust="spacing" textLength="81" x="13" y="351.6738">-String name</text><text fill="#000000" font-family="sans-serif" font-size="14" lengthAdjust="spacing" textLength="79" x="13" y="367.3145">-int passport</text><text fill="#000000" font-family="sans-serif" font-size="14" lengthAdjust="spacing" textLength="43" x="13" y="382.9551">-int vat</text><text fill="#000000" font-family="sans-serif" font-size="14" lengthAdjust="spacing" textLength="79" x="13" y="398.5957">-String email</text><text fill="#000000" font-family="sans-serif" font-size="14" lengthAdjust="spacing" textLength="135" x="13" y="414.2363">-String phoneNumber</text><line style="stroke:#181818;stroke-width:0.5;" x1="8" x2="233" y1="421.2031" y2="421.2031"/><text fill="#000000" font-family="sans-serif" font-size="14" lengthAdjust="spacing" textLength="211" x="13" y="437.877">+addPerson(name, passport, vat,</text><text fill="#000000" font-family="sans-serif" font-size="14" lengthAdjust="spacing" textLength="135" x="17" y="453.5176">email, phoneNumber)</text></g><!--class Property--><g id="elem_Property"><rect codeLine="53" fill="#F1F1F1" height="345.1719" id="Property" rx="2.5" ry="2.5" style="stroke:#181818;stroke-width:0.5;" width="378" x="269.5" y="209"/><ellipse cx="427.25" cy="225" fill="#ADD1B2" rx="11" ry="11" style="stroke:#181818;stroke-width:1.0;"/><path d="M430.0156,220.875 Q430.1719,220.6563 430.3594,220.5469 Q430.5469,220.4375 430.7656,220.4375 Q431.1406,220.4375 431.375,220.7031 Q431.6094,220.9531 431.6094,221.5625 L431.6094,223.0156 Q431.6094,223.625 431.375,223.8906 Q431.1406,224.1563 430.7656,224.1563 Q430.4219,224.1563 430.2188,223.9531 Q430.0156,223.7656 429.9063,223.25 Q429.8594,222.8906 429.6719,222.7031 Q429.3438,222.3281 428.7344,222.1094 Q428.125,221.8906 427.5,221.8906 Q426.7344,221.8906 426.0938,222.2188 Q425.4688,222.5469 424.9688,223.2969 Q424.4844,224.0469 424.4844,225.0781 L424.4844,226.1719 Q424.4844,227.4063 425.375,228.2344 Q426.2656,229.0469 427.8594,229.0469 Q428.7969,229.0469 429.4531,228.7969 Q429.8438,228.6406 430.2656,228.2031 Q430.5313,227.9375 430.6719,227.8594 Q430.8281,227.7813 431.0313,227.7813 Q431.3594,227.7813 431.6094,228.0469 Q431.875,228.2969 431.875,228.6406 Q431.875,228.9844 431.5313,229.3906 Q431.0313,229.9688 430.2344,230.2969 Q429.1563,230.75 427.8594,230.75 Q426.3438,230.75 425.1406,230.125 Q424.1563,229.625 423.4688,228.5625 Q422.7813,227.4844 422.7813,226.2031 L422.7813,225.0469 Q422.7813,223.7188 423.3906,222.5781 Q424.0156,221.4219 425.1094,220.8125 Q426.2031,220.1875 427.4375,220.1875 Q428.1719,220.1875 428.8125,220.3594 Q429.4688,220.5156 430.0156,220.875 Z " fill="#000000"/><text fill="#000000" font-family="sans-serif" font-size="14" lengthAdjust="spacing" textLength="54" x="447.75" y="229.8535">Property</text><line style="stroke:#181818;stroke-width:0.5;" x1="270.5" x2="646.5" y1="241" y2="241"/><text fill="#000000" font-family="sans-serif" font-size="14" lengthAdjust="spacing" textLength="142" x="275.5" y="257.6738">-String typeOfProperty</text><text fill="#000000" font-family="sans-serif" font-size="14" lengthAdjust="spacing" textLength="65" x="275.5" y="273.3145">-float area</text><text fill="#000000" font-family="sans-serif" font-size="14" lengthAdjust="spacing" textLength="95" x="275.5" y="288.9551">-String location</text><text fill="#000000" font-family="sans-serif" font-size="14" lengthAdjust="spacing" textLength="165" x="275.5" y="304.5957">-float distanceFromCenter</text><text fill="#000000" font-family="sans-serif" font-size="14" lengthAdjust="spacing" textLength="151" x="275.5" y="320.2363">-int numberOfBedrooms</text><text fill="#000000" font-family="sans-serif" font-size="14" lengthAdjust="spacing" textLength="155" x="275.5" y="335.877">-int numberOfBathrooms</text><text fill="#000000" font-family="sans-serif" font-size="14" lengthAdjust="spacing" textLength="118" x="275.5" y="351.5176">-int parkingSpaces</text><text fill="#000000" font-family="sans-serif" font-size="14" lengthAdjust="spacing" textLength="177" x="275.5" y="367.1582">-boolean hasCentralHeating</text><text fill="#000000" font-family="sans-serif" font-size="14" lengthAdjust="spacing" textLength="179" x="275.5" y="382.7988">-boolean hasAirConditioning</text><text fill="#000000" font-family="sans-serif" font-size="14" lengthAdjust="spacing" textLength="122" x="275.5" y="398.4395">-boolean basement</text><text fill="#000000" font-family="sans-serif" font-size="14" lengthAdjust="spacing" textLength="79" x="275.5" y="414.0801">-boolean loft</text><text fill="#000000" font-family="sans-serif" font-size="14" lengthAdjust="spacing" textLength="128" x="275.5" y="429.7207">-String sunExposure</text><text fill="#000000" font-family="sans-serif" font-size="14" lengthAdjust="spacing" textLength="67" x="275.5" y="445.3613">-float price</text><text fill="#000000" font-family="sans-serif" font-size="14" lengthAdjust="spacing" textLength="134" x="275.5" y="461.002">-String businessType</text><line style="stroke:#181818;stroke-width:0.5;" x1="270.5" x2="646.5" y1="467.9688" y2="467.9688"/><text fill="#000000" font-family="sans-serif" font-size="14" lengthAdjust="spacing" textLength="285" x="275.5" y="484.6426">+addProperty(typeOfProperty, area, location,</text><text fill="#000000" font-family="sans-serif" font-size="14" lengthAdjust="spacing" textLength="268" x="279.5" y="500.2832">distanceFromCenter, numberOfBedrooms,</text><text fill="#000000" font-family="sans-serif" font-size="14" lengthAdjust="spacing" textLength="362" x="279.5" y="515.9238">numberOfBathrooms, parkingSpaces, hasCentralHeating,</text><text fill="#000000" font-family="sans-serif" font-size="14" lengthAdjust="spacing" textLength="310" x="279.5" y="531.5645">hasAirConditioning, basement, loft, sunExposure,</text><text fill="#000000" font-family="sans-serif" font-size="14" lengthAdjust="spacing" textLength="132" x="279.5" y="547.2051">price, businessType)</text></g><!--class Agency--><g id="elem_Agency"><rect codeLine="71" fill="#F1F1F1" height="126.2031" id="Agency" rx="2.5" ry="2.5" style="stroke:#181818;stroke-width:0.5;" width="331" x="683" y="318.5"/><ellipse cx="820.75" cy="334.5" fill="#ADD1B2" rx="11" ry="11" style="stroke:#181818;stroke-width:1.0;"/><path d="M823.5156,330.375 Q823.6719,330.1563 823.8594,330.0469 Q824.0469,329.9375 824.2656,329.9375 Q824.6406,329.9375 824.875,330.2031 Q825.1094,330.4531 825.1094,331.0625 L825.1094,332.5156 Q825.1094,333.125 824.875,333.3906 Q824.6406,333.6563 824.2656,333.6563 Q823.9219,333.6563 823.7188,333.4531 Q823.5156,333.2656 823.4063,332.75 Q823.3594,332.3906 823.1719,332.2031 Q822.8438,331.8281 822.2344,331.6094 Q821.625,331.3906 821,331.3906 Q820.2344,331.3906 819.5938,331.7188 Q818.9688,332.0469 818.4688,332.7969 Q817.9844,333.5469 817.9844,334.5781 L817.9844,335.6719 Q817.9844,336.9063 818.875,337.7344 Q819.7656,338.5469 821.3594,338.5469 Q822.2969,338.5469 822.9531,338.2969 Q823.3438,338.1406 823.7656,337.7031 Q824.0313,337.4375 824.1719,337.3594 Q824.3281,337.2813 824.5313,337.2813 Q824.8594,337.2813 825.1094,337.5469 Q825.375,337.7969 825.375,338.1406 Q825.375,338.4844 825.0313,338.8906 Q824.5313,339.4688 823.7344,339.7969 Q822.6563,340.25 821.3594,340.25 Q819.8438,340.25 818.6406,339.625 Q817.6563,339.125 816.9688,338.0625 Q816.2813,336.9844 816.2813,335.7031 L816.2813,334.5469 Q816.2813,333.2188 816.8906,332.0781 Q817.5156,330.9219 818.6094,330.3125 Q819.7031,329.6875 820.9375,329.6875 Q821.6719,329.6875 822.3125,329.8594 Q822.9688,330.0156 823.5156,330.375 Z " fill="#000000"/><text fill="#000000" font-family="sans-serif" font-size="14" lengthAdjust="spacing" textLength="47" x="841.25" y="339.3535">Agency</text><line style="stroke:#181818;stroke-width:0.5;" x1="684" x2="1013" y1="350.5" y2="350.5"/><text fill="#000000" font-family="sans-serif" font-size="14" lengthAdjust="spacing" textLength="81" x="689" y="367.1738">-String name</text><text fill="#000000" font-family="sans-serif" font-size="14" lengthAdjust="spacing" textLength="95" x="689" y="382.8145">-String location</text><text fill="#000000" font-family="sans-serif" font-size="14" lengthAdjust="spacing" textLength="135" x="689" y="398.4551">-String phoneNumber</text><text fill="#000000" font-family="sans-serif" font-size="14" lengthAdjust="spacing" textLength="79" x="689" y="414.0957">-String email</text><line style="stroke:#181818;stroke-width:0.5;" x1="684" x2="1013" y1="421.0625" y2="421.0625"/><text fill="#000000" font-family="sans-serif" font-size="14" lengthAdjust="spacing" textLength="319" x="689" y="437.7363">+addAgency(name, location, phoneNumber, email)</text></g><!--class Announcement--><g id="elem_Announcement"><rect codeLine="79" fill="#F1F1F1" height="173.125" id="Announcement" rx="2.5" ry="2.5" style="stroke:#181818;stroke-width:0.5;" width="335" x="1049" y="295"/><ellipse cx="1164.75" cy="311" fill="#ADD1B2" rx="11" ry="11" style="stroke:#181818;stroke-width:1.0;"/><path d="M1167.5156,306.875 Q1167.6719,306.6563 1167.8594,306.5469 Q1168.0469,306.4375 1168.2656,306.4375 Q1168.6406,306.4375 1168.875,306.7031 Q1169.1094,306.9531 1169.1094,307.5625 L1169.1094,309.0156 Q1169.1094,309.625 1168.875,309.8906 Q1168.6406,310.1563 1168.2656,310.1563 Q1167.9219,310.1563 1167.7188,309.9531 Q1167.5156,309.7656 1167.4063,309.25 Q1167.3594,308.8906 1167.1719,308.7031 Q1166.8438,308.3281 1166.2344,308.1094 Q1165.625,307.8906 1165,307.8906 Q1164.2344,307.8906 1163.5938,308.2188 Q1162.9688,308.5469 1162.4688,309.2969 Q1161.9844,310.0469 1161.9844,311.0781 L1161.9844,312.1719 Q1161.9844,313.4063 1162.875,314.2344 Q1163.7656,315.0469 1165.3594,315.0469 Q1166.2969,315.0469 1166.9531,314.7969 Q1167.3438,314.6406 1167.7656,314.2031 Q1168.0313,313.9375 1168.1719,313.8594 Q1168.3281,313.7813 1168.5313,313.7813 Q1168.8594,313.7813 1169.1094,314.0469 Q1169.375,314.2969 1169.375,314.6406 Q1169.375,314.9844 1169.0313,315.3906 Q1168.5313,315.9688 1167.7344,316.2969 Q1166.6563,316.75 1165.3594,316.75 Q1163.8438,316.75 1162.6406,316.125 Q1161.6563,315.625 1160.9688,314.5625 Q1160.2813,313.4844 1160.2813,312.2031 L1160.2813,311.0469 Q1160.2813,309.7188 1160.8906,308.5781 Q1161.5156,307.4219 1162.6094,306.8125 Q1163.7031,306.1875 1164.9375,306.1875 Q1165.6719,306.1875 1166.3125,306.3594 Q1166.9688,306.5156 1167.5156,306.875 Z " fill="#000000"/><text fill="#000000" font-family="sans-serif" font-size="14" lengthAdjust="spacing" textLength="95" x="1185.25" y="315.8535">Announcement</text><line style="stroke:#181818;stroke-width:0.5;" x1="1050" x2="1383" y1="327" y2="327"/><text fill="#000000" font-family="sans-serif" font-size="14" lengthAdjust="spacing" textLength="139" x="1055" y="343.6738">-Person personObject</text><text fill="#000000" font-family="sans-serif" font-size="14" lengthAdjust="spacing" textLength="157" x="1055" y="359.3145">-Property propertyObject</text><text fill="#000000" font-family="sans-serif" font-size="14" lengthAdjust="spacing" textLength="67" x="1055" y="374.9551">-float price</text><text fill="#000000" font-family="sans-serif" font-size="14" lengthAdjust="spacing" textLength="109" x="1055" y="390.5957">-float commission</text><text fill="#000000" font-family="sans-serif" font-size="14" lengthAdjust="spacing" textLength="129" x="1055" y="406.2363">-int contractDuration</text><text fill="#000000" font-family="sans-serif" font-size="14" lengthAdjust="spacing" textLength="67" x="1055" y="421.877">-Date date</text><line style="stroke:#181818;stroke-width:0.5;" x1="1050" x2="1383" y1="428.8438" y2="428.8438"/><text fill="#000000" font-family="sans-serif" font-size="14" lengthAdjust="spacing" textLength="323" x="1055" y="445.5176">+addAnnouncement(personObject, propertyObject,</text><text fill="#000000" font-family="sans-serif" font-size="14" lengthAdjust="spacing" textLength="266" x="1059" y="461.1582">price, commission, contractDuration, date)</text></g><!--class Transaction--><g id="elem_Transaction"><rect codeLine="89" fill="#F1F1F1" height="141.8438" id="Transaction" rx="2.5" ry="2.5" style="stroke:#181818;stroke-width:0.5;" width="292" x="1419.5" y="310.5"/><ellipse cx="1523.75" cy="326.5" fill="#ADD1B2" rx="11" ry="11" style="stroke:#181818;stroke-width:1.0;"/><path d="M1526.5156,322.375 Q1526.6719,322.1563 1526.8594,322.0469 Q1527.0469,321.9375 1527.2656,321.9375 Q1527.6406,321.9375 1527.875,322.2031 Q1528.1094,322.4531 1528.1094,323.0625 L1528.1094,324.5156 Q1528.1094,325.125 1527.875,325.3906 Q1527.6406,325.6563 1527.2656,325.6563 Q1526.9219,325.6563 1526.7188,325.4531 Q1526.5156,325.2656 1526.4063,324.75 Q1526.3594,324.3906 1526.1719,324.2031 Q1525.8438,323.8281 1525.2344,323.6094 Q1524.625,323.3906 1524,323.3906 Q1523.2344,323.3906 1522.5938,323.7188 Q1521.9688,324.0469 1521.4688,324.7969 Q1520.9844,325.5469 1520.9844,326.5781 L1520.9844,327.6719 Q1520.9844,328.9063 1521.875,329.7344 Q1522.7656,330.5469 1524.3594,330.5469 Q1525.2969,330.5469 1525.9531,330.2969 Q1526.3438,330.1406 1526.7656,329.7031 Q1527.0313,329.4375 1527.1719,329.3594 Q1527.3281,329.2813 1527.5313,329.2813 Q1527.8594,329.2813 1528.1094,329.5469 Q1528.375,329.7969 1528.375,330.1406 Q1528.375,330.4844 1528.0313,330.8906 Q1527.5313,331.4688 1526.7344,331.7969 Q1525.6563,332.25 1524.3594,332.25 Q1522.8438,332.25 1521.6406,331.625 Q1520.6563,331.125 1519.9688,330.0625 Q1519.2813,328.9844 1519.2813,327.7031 L1519.2813,326.5469 Q1519.2813,325.2188 1519.8906,324.0781 Q1520.5156,322.9219 1521.6094,322.3125 Q1522.7031,321.6875 1523.9375,321.6875 Q1524.6719,321.6875 1525.3125,321.8594 Q1525.9688,322.0156 1526.5156,322.375 Z " fill="#000000"/><text fill="#000000" font-family="sans-serif" font-size="14" lengthAdjust="spacing" textLength="75" x="1544.25" y="331.3535">Transaction</text><line style="stroke:#181818;stroke-width:0.5;" x1="1420.5" x2="1710.5" y1="342.5" y2="342.5"/><text fill="#000000" font-family="sans-serif" font-size="14" lengthAdjust="spacing" textLength="139" x="1425.5" y="359.1738">-Person personObject</text><text fill="#000000" font-family="sans-serif" font-size="14" lengthAdjust="spacing" textLength="110" x="1425.5" y="374.8145">-Date dateOfSale</text><text fill="#000000" font-family="sans-serif" font-size="14" lengthAdjust="spacing" textLength="157" x="1425.5" y="390.4551">-Property propertyObject</text><text fill="#000000" font-family="sans-serif" font-size="14" lengthAdjust="spacing" textLength="67" x="1425.5" y="406.0957">-float price</text><line style="stroke:#181818;stroke-width:0.5;" x1="1420.5" x2="1710.5" y1="413.0625" y2="413.0625"/><text fill="#000000" font-family="sans-serif" font-size="14" lengthAdjust="spacing" textLength="280" x="1425.5" y="429.7363">+addTransaction(personObject, dateOfSale,</text><text fill="#000000" font-family="sans-serif" font-size="14" lengthAdjust="spacing" textLength="138" x="1429.5" y="445.377">propertyObject, price)</text></g><!--class SystemAdministrator--><g id="elem_SystemAdministrator"><rect codeLine="97" fill="#F1F1F1" height="48" id="SystemAdministrator" rx="2.5" ry="2.5" style="stroke:#181818;stroke-width:0.5;" width="161" x="768" y="630"/><ellipse cx="783" cy="646" fill="#ADD1B2" rx="11" ry="11" style="stroke:#181818;stroke-width:1.0;"/><path d="M785.7656,641.875 Q785.9219,641.6563 786.1094,641.5469 Q786.2969,641.4375 786.5156,641.4375 Q786.8906,641.4375 787.125,641.7031 Q787.3594,641.9531 787.3594,642.5625 L787.3594,644.0156 Q787.3594,644.625 787.125,644.8906 Q786.8906,645.1563 786.5156,645.1563 Q786.1719,645.1563 785.9688,644.9531 Q785.7656,644.7656 785.6563,644.25 Q785.6094,643.8906 785.4219,643.7031 Q785.0938,643.3281 784.4844,643.1094 Q783.875,642.8906 783.25,642.8906 Q782.4844,642.8906 781.8438,643.2188 Q781.2188,643.5469 780.7188,644.2969 Q780.2344,645.0469 780.2344,646.0781 L780.2344,647.1719 Q780.2344,648.4063 781.125,649.2344 Q782.0156,650.0469 783.6094,650.0469 Q784.5469,650.0469 785.2031,649.7969 Q785.5938,649.6406 786.0156,649.2031 Q786.2813,648.9375 786.4219,648.8594 Q786.5781,648.7813 786.7813,648.7813 Q787.1094,648.7813 787.3594,649.0469 Q787.625,649.2969 787.625,649.6406 Q787.625,649.9844 787.2813,650.3906 Q786.7813,650.9688 785.9844,651.2969 Q784.9063,651.75 783.6094,651.75 Q782.0938,651.75 780.8906,651.125 Q779.9063,650.625 779.2188,649.5625 Q778.5313,648.4844 778.5313,647.2031 L778.5313,646.0469 Q778.5313,644.7188 779.1406,643.5781 Q779.7656,642.4219 780.8594,641.8125 Q781.9531,641.1875 783.1875,641.1875 Q783.9219,641.1875 784.5625,641.3594 Q785.2188,641.5156 785.7656,641.875 Z " fill="#000000"/><text fill="#000000" font-family="sans-serif" font-size="14" lengthAdjust="spacing" textLength="129" x="797" y="650.8535">SystemAdministrator</text><line style="stroke:#181818;stroke-width:0.5;" x1="769" x2="928" y1="662" y2="662"/><line style="stroke:#181818;stroke-width:0.5;" x1="769" x2="928" y1="670" y2="670"/></g><!--link LegacyFileUI to LegacyFileController--><g id="link_LegacyFileUI_LegacyFileController"><path codeLine="99" d="M889.18,70 C900.42,70 908.83,70 908.83,70 C908.83,70 912.77,70 918.87,70 " fill="none" id="LegacyFileUI-to-LegacyFileController" style="stroke:#181818;stroke-width:1.0;stroke-dasharray:7.0,7.0;"/><polygon fill="#181818" points="923.91,70,914.91,66,918.91,70,914.91,74,923.91,70" style="stroke:#181818;stroke-width:1.0;"/></g><!--link LegacyFileController to Repositories--><g id="link_LegacyFileController_Repositories"><path codeLine="101" d="M1199.07,70 C1409.83,70 1807.86,70 1995.16,70 " fill="none" id="LegacyFileController-to-Repositories" style="stroke:#181818;stroke-width:1.0;stroke-dasharray:7.0,7.0;"/><polygon fill="#181818" points="2000.37,70,1991.37,66,1995.37,70,1991.37,74,2000.37,70" style="stroke:#181818;stroke-width:1.0;"/><text fill="#000000" font-family="sans-serif" font-size="13" lengthAdjust="spacing" textLength="67" x="1566.25" y="63.7686">repositories</text></g><!--link Repositories to Repositories--><g id="link_Repositories_Repositories"><path codeLine="103" d="M2194.78,51.91 C2214.98,53.81 2229.5,59.84 2229.5,70 C2229.5,79.28 2217.37,85.12 2199.86,87.51 " fill="none" id="Repositories-to-Repositories" style="stroke:#181818;stroke-width:1.0;"/><polygon fill="#181818" points="2194.78,88.09,2204.1779,91.0361,2199.7473,87.519,2203.2644,83.0884,2194.78,88.09" style="stroke:#181818;stroke-width:1.0;"/><text fill="#000000" font-family="sans-serif" font-size="13" lengthAdjust="spacing" textLength="49" x="2235.5" y="74.7686">instance</text></g><!--link Repositories to PersonRepository--><g id="link_Repositories_PersonRepository"><path codeLine="105" d="M2012.85,133.14 C1962.95,169.77 1909.5,209 1909.5,209 C1909.5,209 1864.49,294.77 1838.13,345 " fill="none" id="Repositories-to-PersonRepository" style="stroke:#181818;stroke-width:1.0;"/><polygon fill="#181818" points="1835.8,349.44,1843.529,343.3356,1838.127,345.0145,1836.4481,339.6125,1835.8,349.44" style="stroke:#181818;stroke-width:1.0;"/><text fill="#000000" font-family="sans-serif" font-size="13" lengthAdjust="spacing" textLength="7" x="1831.6" y="338.7607">1</text></g><!--link Repositories to PropertyRepository--><g id="link_Repositories_PropertyRepository"><path codeLine="107" d="M2078.79,133.26 C2059.73,196.7 2030.82,292.91 2015.28,344.61 " fill="none" id="Repositories-to-PropertyRepository" style="stroke:#181818;stroke-width:1.0;"/><polygon fill="#181818" points="2013.82,349.48,2020.2477,342.0177,2015.2633,344.6928,2012.5882,339.7085,2013.82,349.48" style="stroke:#181818;stroke-width:1.0;"/><text fill="#000000" font-family="sans-serif" font-size="13" lengthAdjust="spacing" textLength="7" x="2008.0931" y="338.8095">1</text></g><!--link Repositories to AgencyRepository--><g id="link_Repositories_AgencyRepository"><path codeLine="109" d="M2116.21,133.26 C2135.27,196.7 2164.18,292.91 2179.72,344.61 " fill="none" id="Repositories-to-AgencyRepository" style="stroke:#181818;stroke-width:1.0;"/><polygon fill="#181818" points="2181.18,349.48,2182.4118,339.7085,2179.7367,344.6928,2174.7523,342.0177,2181.18,349.48" style="stroke:#181818;stroke-width:1.0;"/><text fill="#000000" font-family="sans-serif" font-size="13" lengthAdjust="spacing" textLength="7" x="2171.3756" y="338.8095">1</text></g><!--link Repositories to AnnouncementRepository--><g id="link_Repositories_AnnouncementRepository"><path codeLine="111" d="M2180.35,133.14 C2229.19,169.77 2281.5,209 2281.5,209 C2281.5,209 2345.67,304.7 2378.14,353.12 " fill="none" id="Repositories-to-AnnouncementRepository" style="stroke:#181818;stroke-width:1.0;"/><polygon fill="#181818" points="2380.99,357.37,2379.3028,347.6667,2378.2066,353.2163,2372.657,352.1201,2380.99,357.37" style="stroke:#181818;stroke-width:1.0;"/><text fill="#000000" font-family="sans-serif" font-size="13" lengthAdjust="spacing" textLength="7" x="2368.8811" y="346.8427">1</text></g><!--link Repositories to TransactionRepository--><g id="link_Repositories_TransactionRepository"><path codeLine="113" d="M2194.56,103.35 C2316.93,144.14 2511.5,209 2511.5,209 C2511.5,209 2569.85,304.31 2599.56,352.83 " fill="none" id="Repositories-to-TransactionRepository" style="stroke:#181818;stroke-width:1.0;"/><polygon fill="#181818" points="2602.34,357.37,2601.0389,347.6075,2599.7235,353.1093,2594.2217,351.7939,2602.34,357.37" style="stroke:#181818;stroke-width:1.0;"/><text fill="#000000" font-family="sans-serif" font-size="13" lengthAdjust="spacing" textLength="7" x="2590.5939" y="346.8427">1</text></g><!--link LegacyFileController to Person--><g id="link_LegacyFileController_Person"><path codeLine="115" d="M923.98,126.01 C913.27,130.29 906.5,133 906.5,133 C906.5,133 251.5,209 251.5,209 C251.5,209 216.66,254.61 182.92,298.78 " fill="none" id="LegacyFileController-to-Person" style="stroke:#181818;stroke-width:1.0;stroke-dasharray:7.0,7.0;"/><polygon fill="#181818" points="179.87,302.78,188.5189,298.0687,182.911,298.811,182.1686,293.2031,179.87,302.78" style="stroke:#181818;stroke-width:1.0;"/><text fill="#000000" font-family="sans-serif" font-size="13" lengthAdjust="spacing" textLength="101" x="639.5" y="175.7686">personRepository</text></g><!--link LegacyFileController to Property--><g id="link_LegacyFileController_Property"><path codeLine="117" d="M923.98,126.01 C913.27,130.29 906.5,133 906.5,133 C906.5,133 665.5,209 665.5,209 C665.5,209 660.38,213.24 651.76,220.39 " fill="none" id="LegacyFileController-to-Property" style="stroke:#181818;stroke-width:1.0;stroke-dasharray:7.0,7.0;"/><polygon fill="#181818" points="647.85,223.62,657.3364,220.9728,651.7051,220.436,652.242,214.8046,647.85,223.62" style="stroke:#181818;stroke-width:1.0;"/><text fill="#000000" font-family="sans-serif" font-size="13" lengthAdjust="spacing" textLength="109" x="809.5" y="175.7686">propertyRepository</text></g><!--link LegacyFileController to Agency--><g id="link_LegacyFileController_Agency"><path codeLine="119" d="M1018.65,133.26 C982.54,185.73 931.01,260.61 894.13,314.2 " fill="none" id="LegacyFileController-to-Agency" style="stroke:#181818;stroke-width:1.0;stroke-dasharray:7.0,7.0;"/><polygon fill="#181818" points="891.28,318.34,899.6666,313.1762,894.106,314.2152,893.0669,308.6546,891.28,318.34" style="stroke:#181818;stroke-width:1.0;"/><text fill="#000000" font-family="sans-serif" font-size="13" lengthAdjust="spacing" textLength="104" x="994.5" y="175.7686">agencyRepository</text></g><!--link LegacyFileController to Announcement--><g id="link_LegacyFileController_Announcement"><path codeLine="121" d="M1092.68,133.26 C1115.25,178.32 1146.1,239.92 1171.35,290.35 " fill="none" id="LegacyFileController-to-Announcement" style="stroke:#181818;stroke-width:1.0;stroke-dasharray:7.0,7.0;"/><polygon fill="#181818" points="1173.63,294.89,1173.1954,285.0507,1171.3997,290.415,1166.0354,288.6193,1173.63,294.89" style="stroke:#181818;stroke-width:1.0;"/><text fill="#000000" font-family="sans-serif" font-size="13" lengthAdjust="spacing" textLength="147" x="1113.5" y="175.7686">announcementRepository</text></g><!--link LegacyFileController to Transaction--><g id="link_LegacyFileController_Transaction"><path codeLine="123" d="M1199.3,126.93 C1293.55,165.18 1401.5,209 1401.5,209 C1401.5,209 1450.45,260.19 1494.86,306.63 " fill="none" id="LegacyFileController-to-Transaction" style="stroke:#181818;stroke-width:1.0;stroke-dasharray:7.0,7.0;"/><polygon fill="#181818" points="1498.32,310.25,1494.9896,300.9813,1494.8639,306.6368,1489.2084,306.5111,1498.32,310.25" style="stroke:#181818;stroke-width:1.0;"/><text fill="#000000" font-family="sans-serif" font-size="13" lengthAdjust="spacing" textLength="126" x="1320.5" y="175.7686">transactionRepository</text></g><!--link Person to SystemAdministrator--><g id="link_Person_SystemAdministrator"><path codeLine="125" d="M179.87,460.22 C214.53,505.6 251.5,554 251.5,554 C251.5,554 597.48,611.37 762.67,638.77 " fill="none" id="Person-to-SystemAdministrator" style="stroke:#181818;stroke-width:1.0;"/><polygon fill="#181818" points="767.99,639.65,759.7599,634.2403,763.0565,638.8373,758.4595,642.1339,767.99,639.65" style="stroke:#181818;stroke-width:1.0;"/><text fill="#000000" font-family="sans-serif" font-size="13" lengthAdjust="spacing" textLength="61" x="515.5" y="596.7686">CreatedBy</text></g><!--link Property to SystemAdministrator--><g id="link_Property_SystemAdministrator"><path codeLine="127" d="M647.85,539.38 C658.82,548.46 665.5,554 665.5,554 C665.5,554 746.87,598.02 801.09,627.35 " fill="none" id="Property-to-SystemAdministrator" style="stroke:#181818;stroke-width:1.0;"/><polygon fill="#181818" points="805.59,629.79,799.5848,621.9838,801.1945,627.4067,795.7716,629.0165,805.59,629.79" style="stroke:#181818;stroke-width:1.0;"/><text fill="#000000" font-family="sans-serif" font-size="13" lengthAdjust="spacing" textLength="61" x="747.5" y="596.7686">CreatedBy</text></g><!--link Agency to SystemAdministrator--><g id="link_Agency_SystemAdministrator"><path codeLine="129" d="M848.5,444.56 C848.5,501.1 848.5,582.06 848.5,624.52 " fill="none" id="Agency-to-SystemAdministrator" style="stroke:#181818;stroke-width:1.0;"/><polygon fill="#181818" points="848.5,629.76,852.5,620.76,848.5,624.76,844.5,620.76,848.5,629.76" style="stroke:#181818;stroke-width:1.0;"/><text fill="#000000" font-family="sans-serif" font-size="13" lengthAdjust="spacing" textLength="61" x="849.5" y="596.7686">CreatedBy</text></g><!--link Announcement to SystemAdministrator--><g id="link_Announcement_SystemAdministrator"><path codeLine="131" d="M1124,468.25 C1077.75,511.12 1031.5,554 1031.5,554 C1031.5,554 950.13,598.02 895.91,627.35 " fill="none" id="Announcement-to-SystemAdministrator" style="stroke:#181818;stroke-width:1.0;"/><polygon fill="#181818" points="891.41,629.79,901.2284,629.0165,895.8055,627.4067,897.4152,621.9838,891.41,629.79" style="stroke:#181818;stroke-width:1.0;"/><text fill="#000000" font-family="sans-serif" font-size="13" lengthAdjust="spacing" textLength="61" x="973.5" y="596.7686">CreatedBy</text></g><!--link Transaction to SystemAdministrator--><g id="link_Transaction_SystemAdministrator"><path codeLine="133" d="M1498.32,452.75 C1453.03,500.11 1401.5,554 1401.5,554 C1401.5,554 1089.51,609.85 934.21,637.66 " fill="none" id="Transaction-to-SystemAdministrator" style="stroke:#181818;stroke-width:1.0;"/><polygon fill="#181818" points="929.21,638.55,938.7768,640.8902,934.1307,637.6631,937.3578,633.0171,929.21,638.55" style="stroke:#181818;stroke-width:1.0;"/><text fill="#000000" font-family="sans-serif" font-size="13" lengthAdjust="spacing" textLength="61" x="1224.5" y="596.7686">CreatedBy</text></g><!--SRC=[bLLDZzCm4BttLrXxIeMBu9e3KjbbHQKLNT7bniLD9grPnuviPo6i-E-CyrKxJaJfAVMyySnxdW_pp6N5D2j9nR9dTeA3RGGG3PbbyYHWPKQ0ERDS_UJoH0ecZ6yHN89jAY2L4etxi_ACcM36RAtL_5XRs6LA7lXl8EzMgzP27k34ikQU2_Ys8wz_ukDR9QrMGe0chok2lmqfyBZzV3EBIv27p9glK2d3hTBDkWUVm3faulmVcJqFvozCy9nP68s3GGFB7v3GJXPAbyno9PFrQanoZC31ZCdvXuaNUISDQff1iYPf0Bf07a4R9Izv- -wFMbMWRJDltKuO-rbERnqohThp_V47FhQ7ZkAC-DuozPZ67l3TAqHeALMDCfGWRU0p8fuqauPbJknvG4Te27F0qiAYbApiQcB3fSLgDgPIsbvENfWDy50oBeAJwgmaVAdB8-XEM9RdNQZ4NKx7IwcxZ9Blihk4-fxhMCb9egvJziLWx4o5KCmIXkKMG8NAsfhpGJdlokXUg_8MDUoJRJdADeLzyH5ohLHfPYnOzHCJjYasw-c00w2lnSrHAG5CaZCpBeHcuZDW8l8KcRTSOz_bt6KPsO_CjCySdWfLX2zXQldf5xvphS4dMccUGG0yrWPxqPWdLF3oGhsGIQWhRTMaeuGKNokMZaQIELma5Wr5eh4mpYsMWuuIq9OszRawbvOZ3OYjfusrMEUpHR9Got7LE-sw07rrZqhvphJpMC_txv1Qtv31GEaCGmjCPiVyCtS7cIfBRip8oDLevcOxZeIxMdjSxt1a4pUtBuIyv18_7Jh9m1F_4ez6SMXx_NfsDlsJ_9ZUlZYmVc7zdoAEaXTnmkXoTSScuDVTucL-Q8o5SfkNN68R83sbstKRxD-t7sONge_orZ6YWmsOuhxqrjegC6uYCEyNuXI8o9ltDz7QMe95-se1E5rJIx3P_RG0dbrLIsgXN7sjf7srNESpL4mwll5LVltqI0cBY2_x-CsDdWjQBFhxxP4IEwzEBuBJSAueKtABazj2_j5X1_9NeNlArs5zgbTv-EIkSlWB]--></g></svg>