<?xml version="1.0" encoding="us-ascii" standalone="no"?><svg xmlns="http://www.w3.org/2000/svg" xmlns:xlink="http://www.w3.org/1999/xlink" contentStyleType="text/css" height="306px" preserveAspectRatio="none" style="width:439px;height:306px;background:#FFFFFF;" version="1.1" viewBox="0 0 439 306" width="439px" zoomAndPan="magnify"><defs/><g><rect fill="none" height="144.9063" style="stroke:#000000;stroke-width:1.5;" width="422.5" x="10" y="109.6875"/><line style="stroke:#181818;stroke-width:0.5;stroke-dasharray:5.0,5.0;" x1="47" x2="47" y1="35.6406" y2="271.5938"/><line style="stroke:#181818;stroke-width:0.5;stroke-dasharray:5.0,5.0;" x1="215" x2="215" y1="35.6406" y2="271.5938"/><line style="stroke:#181818;stroke-width:0.5;stroke-dasharray:5.0,5.0;" x1="392.5" x2="392.5" y1="35.6406" y2="271.5938"/><rect fill="#E2E2F0" height="29.6406" rx="2.5" ry="2.5" style="stroke:#181818;stroke-width:0.5;" width="55" x="20" y="5"/><text fill="#000000" font-family="sans-serif" font-size="14" lengthAdjust="spacing" textLength="41" x="27" y="24.6738">Owner</text><rect fill="#E2E2F0" height="29.6406" rx="2.5" ry="2.5" style="stroke:#181818;stroke-width:0.5;" width="55" x="20" y="270.5938"/><text fill="#000000" font-family="sans-serif" font-size="14" lengthAdjust="spacing" textLength="41" x="27" y="290.2676">Owner</text><rect fill="#E2E2F0" height="29.6406" rx="2.5" ry="2.5" style="stroke:#181818;stroke-width:0.5;" width="51" x="190" y="5"/><text fill="#000000" font-family="sans-serif" font-size="14" lengthAdjust="spacing" textLength="37" x="197" y="24.6738">Agent</text><rect fill="#E2E2F0" height="29.6406" rx="2.5" ry="2.5" style="stroke:#181818;stroke-width:0.5;" width="51" x="190" y="270.5938"/><text fill="#000000" font-family="sans-serif" font-size="14" lengthAdjust="spacing" textLength="37" x="197" y="290.2676">Agent</text><rect fill="#E2E2F0" height="29.6406" rx="2.5" ry="2.5" style="stroke:#181818;stroke-width:0.5;" width="60" x="362.5" y="5"/><text fill="#000000" font-family="sans-serif" font-size="14" lengthAdjust="spacing" textLength="46" x="369.5" y="24.6738">System</text><rect fill="#E2E2F0" height="29.6406" rx="2.5" ry="2.5" style="stroke:#181818;stroke-width:0.5;" width="60" x="362.5" y="270.5938"/><text fill="#000000" font-family="sans-serif" font-size="14" lengthAdjust="spacing" textLength="46" x="369.5" y="290.2676">System</text><polygon fill="#181818" points="203.5,62.1641,213.5,66.1641,203.5,70.1641,207.5,66.1641" style="stroke:#181818;stroke-width:1.0;"/><line style="stroke:#181818;stroke-width:1.0;" x1="47.5" x2="209.5" y1="66.1641" y2="66.1641"/><text fill="#000000" font-family="sans-serif" font-size="13" font-weight="bold" lengthAdjust="spacing" textLength="7" x="54.5" y="61.4092">1</text><text fill="#000000" font-family="sans-serif" font-size="13" lengthAdjust="spacing" textLength="89" x="65.5" y="61.4092">Sends Request</text><polygon fill="#181818" points="58.5,90.6875,48.5,94.6875,58.5,98.6875,54.5,94.6875" style="stroke:#181818;stroke-width:1.0;"/><line style="stroke:#181818;stroke-width:1.0;stroke-dasharray:2.0,2.0;" x1="52.5" x2="214.5" y1="94.6875" y2="94.6875"/><text fill="#000000" font-family="sans-serif" font-size="13" font-weight="bold" lengthAdjust="spacing" textLength="7" x="64.5" y="89.9326">2</text><text fill="#000000" font-family="sans-serif" font-size="13" lengthAdjust="spacing" textLength="99" x="75.5" y="89.9326">Reviews Request</text><path d="M10,109.6875 L71,109.6875 L71,116.2109 L61,126.2109 L10,126.2109 L10,109.6875 " fill="#EEEEEE" style="stroke:#000000;stroke-width:1.5;"/><rect fill="none" height="144.9063" style="stroke:#000000;stroke-width:1.5;" width="422.5" x="10" y="109.6875"/><text fill="#000000" font-family="sans-serif" font-size="13" font-weight="bold" lengthAdjust="spacing" textLength="16" x="25" y="122.4561">alt</text><text fill="#000000" font-family="sans-serif" font-size="11" font-weight="bold" lengthAdjust="spacing" textLength="55" x="86" y="121.6455">[Success]</text><polygon fill="#181818" points="380.5,142.7344,390.5,146.7344,380.5,150.7344,384.5,146.7344" style="stroke:#181818;stroke-width:1.0;"/><line style="stroke:#181818;stroke-width:1.0;stroke-dasharray:2.0,2.0;" x1="215.5" x2="386.5" y1="146.7344" y2="146.7344"/><text fill="#000000" font-family="sans-serif" font-size="13" font-weight="bold" lengthAdjust="spacing" textLength="7" x="222.5" y="141.9795">3</text><text fill="#000000" font-family="sans-serif" font-size="13" lengthAdjust="spacing" textLength="118" x="233.5" y="141.9795">List property for sale</text><polygon fill="#181818" points="226.5,171.2578,216.5,175.2578,226.5,179.2578,222.5,175.2578" style="stroke:#181818;stroke-width:1.0;"/><line style="stroke:#181818;stroke-width:1.0;stroke-dasharray:2.0,2.0;" x1="220.5" x2="391.5" y1="175.2578" y2="175.2578"/><text fill="#000000" font-family="sans-serif" font-size="13" font-weight="bold" lengthAdjust="spacing" textLength="7" x="232.5" y="170.5029">4</text><text fill="#000000" font-family="sans-serif" font-size="13" lengthAdjust="spacing" textLength="142" x="243.5" y="170.5029">Show success message</text><polygon fill="#181818" points="58.5,199.7813,48.5,203.7813,58.5,207.7813,54.5,203.7813" style="stroke:#181818;stroke-width:1.0;"/><line style="stroke:#181818;stroke-width:1.0;stroke-dasharray:2.0,2.0;" x1="52.5" x2="214.5" y1="203.7813" y2="203.7813"/><text fill="#000000" font-family="sans-serif" font-size="13" font-weight="bold" lengthAdjust="spacing" textLength="7" x="64.5" y="199.0264">5</text><text fill="#000000" font-family="sans-serif" font-size="13" lengthAdjust="spacing" textLength="133" x="75.5" y="199.0264">Communicate success</text><line style="stroke:#000000;stroke-width:1.0;stroke-dasharray:2.0,2.0;" x1="10" x2="432.5" y1="212.7813" y2="212.7813"/><text fill="#000000" font-family="sans-serif" font-size="11" font-weight="bold" lengthAdjust="spacing" textLength="45" x="15" y="222.7393">[Failure]</text><polygon fill="#181818" points="58.5,242.5938,48.5,246.5938,58.5,250.5938,54.5,246.5938" style="stroke:#181818;stroke-width:1.0;"/><line style="stroke:#181818;stroke-width:1.0;stroke-dasharray:2.0,2.0;" x1="52.5" x2="214.5" y1="246.5938" y2="246.5938"/><text fill="#000000" font-family="sans-serif" font-size="13" font-weight="bold" lengthAdjust="spacing" textLength="7" x="64.5" y="241.8389">6</text><text fill="#000000" font-family="sans-serif" font-size="13" lengthAdjust="spacing" textLength="118" x="75.5" y="241.8389">Communicate failure</text><!--SRC=[ZO-_3e903CRtUufkJiZEO69Cd4nCv0dgKU2I-uFNdeItzq0CZ7ReqE_tVMqFlSZ0LLaE5hqaPuywk9BfbSXhAXg3NKId52O9FhadHQNkewS8nGdE7Ncfe2RVC3nc3ujQXb1aUU6gBBmDZHk0Lg1EMXEpWboBOURhYOKSL70pB334C52K2TeGWT7I0gzCiTlUXn7ucmSkD-neozqVSWdE9Myq2lqCYYmJND7O5FzmjIkO7rOV]--></g></svg>