<?xml version="1.0" encoding="us-ascii" standalone="no"?><svg xmlns="http://www.w3.org/2000/svg" xmlns:xlink="http://www.w3.org/1999/xlink" contentStyleType="text/css" height="315px" preserveAspectRatio="none" style="width:690px;height:315px;background:#FFFFFF;" version="1.1" viewBox="0 0 690 315" width="690px" zoomAndPan="magnify"><defs/><g><line style="stroke:#181818;stroke-width:0.5;stroke-dasharray:5.0,5.0;" x1="30" x2="30" y1="35.6406" y2="281.3047"/><line style="stroke:#181818;stroke-width:0.5;stroke-dasharray:5.0,5.0;" x1="372.5" x2="372.5" y1="35.6406" y2="281.3047"/><line style="stroke:#181818;stroke-width:0.5;stroke-dasharray:5.0,5.0;" x1="656" x2="656" y1="35.6406" y2="281.3047"/><rect fill="#E2E2F0" height="29.6406" rx="2.5" ry="2.5" style="stroke:#181818;stroke-width:0.5;" width="51" x="5" y="5"/><text fill="#000000" font-family="sans-serif" font-size="14" lengthAdjust="spacing" textLength="37" x="12" y="24.6738">Agent</text><rect fill="#E2E2F0" height="29.6406" rx="2.5" ry="2.5" style="stroke:#181818;stroke-width:0.5;" width="51" x="5" y="280.3047"/><text fill="#000000" font-family="sans-serif" font-size="14" lengthAdjust="spacing" textLength="37" x="12" y="299.9785">Agent</text><rect fill="#E2E2F0" height="29.6406" rx="2.5" ry="2.5" style="stroke:#181818;stroke-width:0.5;" width="60" x="342.5" y="5"/><text fill="#000000" font-family="sans-serif" font-size="14" lengthAdjust="spacing" textLength="46" x="349.5" y="24.6738">System</text><rect fill="#E2E2F0" height="29.6406" rx="2.5" ry="2.5" style="stroke:#181818;stroke-width:0.5;" width="60" x="342.5" y="280.3047"/><text fill="#000000" font-family="sans-serif" font-size="14" lengthAdjust="spacing" textLength="46" x="349.5" y="299.9785">System</text><rect fill="#E2E2F0" height="29.6406" rx="2.5" ry="2.5" style="stroke:#181818;stroke-width:0.5;" width="55" x="629" y="5"/><text fill="#000000" font-family="sans-serif" font-size="14" lengthAdjust="spacing" textLength="41" x="636" y="24.6738">Owner</text><rect fill="#E2E2F0" height="29.6406" rx="2.5" ry="2.5" style="stroke:#181818;stroke-width:0.5;" width="55" x="629" y="280.3047"/><text fill="#000000" font-family="sans-serif" font-size="14" lengthAdjust="spacing" textLength="41" x="636" y="299.9785">Owner</text><polygon fill="#181818" points="360.5,62.1641,370.5,66.1641,360.5,70.1641,364.5,66.1641" style="stroke:#181818;stroke-width:1.0;"/><line style="stroke:#181818;stroke-width:1.0;" x1="30.5" x2="366.5" y1="66.1641" y2="66.1641"/><text fill="#000000" font-family="sans-serif" font-size="13" font-weight="bold" lengthAdjust="spacing" textLength="7" x="37.5" y="61.4092">1</text><text fill="#000000" font-family="sans-serif" font-size="13" lengthAdjust="spacing" textLength="307" x="48.5" y="61.4092">Asks to see list of transactionRequests made for him</text><line style="stroke:#181818;stroke-width:1.0;" x1="372.5" x2="414.5" y1="94.6875" y2="94.6875"/><line style="stroke:#181818;stroke-width:1.0;" x1="414.5" x2="414.5" y1="94.6875" y2="107.6875"/><line style="stroke:#181818;stroke-width:1.0;" x1="373.5" x2="414.5" y1="107.6875" y2="107.6875"/><polygon fill="#181818" points="383.5,103.6875,373.5,107.6875,383.5,111.6875,379.5,107.6875" style="stroke:#181818;stroke-width:1.0;"/><text fill="#000000" font-family="sans-serif" font-size="13" font-weight="bold" lengthAdjust="spacing" textLength="7" x="379.5" y="89.9326">2</text><text fill="#000000" font-family="sans-serif" font-size="13" lengthAdjust="spacing" textLength="99" x="390.5" y="89.9326">Sorts list by date</text><polygon fill="#181818" points="41.5,132.2109,31.5,136.2109,41.5,140.2109,37.5,136.2109" style="stroke:#181818;stroke-width:1.0;"/><line style="stroke:#181818;stroke-width:1.0;stroke-dasharray:2.0,2.0;" x1="35.5" x2="371.5" y1="136.2109" y2="136.2109"/><text fill="#000000" font-family="sans-serif" font-size="13" font-weight="bold" lengthAdjust="spacing" textLength="7" x="47.5" y="131.4561">3</text><text fill="#000000" font-family="sans-serif" font-size="13" lengthAdjust="spacing" textLength="198" x="58.5" y="131.4561">Lists Agent's transactionRequests</text><polygon fill="#181818" points="360.5,160.7344,370.5,164.7344,360.5,168.7344,364.5,164.7344" style="stroke:#181818;stroke-width:1.0;"/><line style="stroke:#181818;stroke-width:1.0;" x1="30.5" x2="366.5" y1="164.7344" y2="164.7344"/><text fill="#000000" font-family="sans-serif" font-size="13" font-weight="bold" lengthAdjust="spacing" textLength="7" x="37.5" y="159.9795">4</text><text fill="#000000" font-family="sans-serif" font-size="13" lengthAdjust="spacing" textLength="123" x="48.5" y="159.9795">Posts announcement</text><line style="stroke:#181818;stroke-width:1.0;" x1="372.5" x2="414.5" y1="193.2578" y2="193.2578"/><line style="stroke:#181818;stroke-width:1.0;" x1="414.5" x2="414.5" y1="193.2578" y2="206.2578"/><line style="stroke:#181818;stroke-width:1.0;" x1="373.5" x2="414.5" y1="206.2578" y2="206.2578"/><polygon fill="#181818" points="383.5,202.2578,373.5,206.2578,383.5,210.2578,379.5,206.2578" style="stroke:#181818;stroke-width:1.0;"/><text fill="#000000" font-family="sans-serif" font-size="13" font-weight="bold" lengthAdjust="spacing" textLength="7" x="379.5" y="188.5029">5</text><text fill="#000000" font-family="sans-serif" font-size="13" lengthAdjust="spacing" textLength="259" x="390.5" y="188.5029">Removes transactionRequest from repository</text><polygon fill="#181818" points="41.5,230.7813,31.5,234.7813,41.5,238.7813,37.5,234.7813" style="stroke:#181818;stroke-width:1.0;"/><line style="stroke:#181818;stroke-width:1.0;stroke-dasharray:2.0,2.0;" x1="35.5" x2="371.5" y1="234.7813" y2="234.7813"/><text fill="#000000" font-family="sans-serif" font-size="13" font-weight="bold" lengthAdjust="spacing" textLength="7" x="47.5" y="230.0264">6</text><text fill="#000000" font-family="sans-serif" font-size="13" lengthAdjust="spacing" textLength="155" x="58.5" y="230.0264">Show operation successful</text><polygon fill="#181818" points="644.5,259.3047,654.5,263.3047,644.5,267.3047,648.5,263.3047" style="stroke:#181818;stroke-width:1.0;"/><line style="stroke:#181818;stroke-width:1.0;" x1="372.5" x2="650.5" y1="263.3047" y2="263.3047"/><text fill="#000000" font-family="sans-serif" font-size="13" font-weight="bold" lengthAdjust="spacing" textLength="7" x="379.5" y="258.5498">7</text><text fill="#000000" font-family="sans-serif" font-size="13" lengthAdjust="spacing" textLength="146" x="390.5" y="258.5498">Show accepted message</text><!--SRC=[ROyxRiCm38PtdO9R9jUxXm3P2xI8Jy38T2pK55MHQk3RLtQD06qzalp-1q-JMTAkRTECqGhFBrwuLVei53qrGy1xHdOEYqaiVAFi4cOBFgJAm-LEqNvj-aMDs6s7vhoFqC55FnHCG8bW3ceW8rZ6gEWjIBokYMeAZ0F1A1ccmEv7_RJfe9TScKr_Ms10evs1fb9RQ0UlOJNQXfCUXRW_zJfubrM2CKgfR_FwrB_iAx5yqP4XZ5aOCYNHO9ANWqxz90-GH1bN7MZndbJ7CZ_PCxmz8kKTnNfFHWDmnV1ExXi0]--></g></svg>