<?xml version="1.0" encoding="us-ascii" standalone="no"?><svg xmlns="http://www.w3.org/2000/svg" xmlns:xlink="http://www.w3.org/1999/xlink" contentStyleType="text/css" height="829px" preserveAspectRatio="none" style="width:1406px;height:829px;background:#FFFFFF;" version="1.1" viewBox="0 0 1406 829" width="1406px" zoomAndPan="magnify"><defs/><g><rect fill="#FFFFFF" height="640.8672" style="stroke:#181818;stroke-width:1.0;" width="10" x="69.5" y="90.6406"/><rect fill="#FFFFFF" height="69.1641" style="stroke:#181818;stroke-width:1.0;" width="10" x="393.5" y="111.1641"/><rect fill="#FFFFFF" height="508.1328" style="stroke:#181818;stroke-width:1.0;" width="10" x="393.5" y="223.375"/><rect fill="#FFFFFF" height="157.1406" style="stroke:#181818;stroke-width:1.0;" width="10" x="671.5" y="266.4219"/><rect fill="#FFFFFF" height="28.5234" style="stroke:#181818;stroke-width:1.0;" width="10" x="815" y="294.9453"/><rect fill="#FFFFFF" height="28.5234" style="stroke:#181818;stroke-width:1.0;" width="10" x="922" y="351.9922"/><rect fill="#FFFFFF" height="250.8984" style="stroke:#181818;stroke-width:1.0;" width="10" x="1047" y="423.5625"/><rect fill="#FFFFFF" height="122.5703" style="stroke:#181818;stroke-width:1.0;" width="10" x="1052" y="516.3672"/><rect fill="#FFFFFF" height="39.5234" style="stroke:#181818;stroke-width:1.0;" width="10" x="1057" y="557.8906"/><line style="stroke:#181818;stroke-width:0.5;stroke-dasharray:5.0,5.0;" x1="74" x2="74" y1="80.6406" y2="749.5078"/><line style="stroke:#181818;stroke-width:0.5;stroke-dasharray:5.0,5.0;" x1="398.5" x2="398.5" y1="80.6406" y2="749.5078"/><line style="stroke:#181818;stroke-width:0.5;stroke-dasharray:5.0,5.0;" x1="676.5" x2="676.5" y1="149.4844" y2="749.5078"/><line style="stroke:#181818;stroke-width:0.5;stroke-dasharray:5.0,5.0;" x1="819.5" x2="819.5" y1="80.6406" y2="749.5078"/><line style="stroke:#181818;stroke-width:0.5;stroke-dasharray:5.0,5.0;" x1="926.5" x2="926.5" y1="80.6406" y2="749.5078"/><line style="stroke:#181818;stroke-width:0.5;stroke-dasharray:5.0,5.0;" x1="1051.5" x2="1051.5" y1="80.6406" y2="749.5078"/><line style="stroke:#181818;stroke-width:0.5;stroke-dasharray:5.0,5.0;" x1="1367" x2="1367" y1="469.7031" y2="749.5078"/><text fill="#000000" font-family="sans-serif" font-size="14" lengthAdjust="spacing" textLength="133" x="5" y="77.6738">System Administrator</text><ellipse cx="74.5" cy="13.5" fill="#E3E3E3" rx="8" ry="8" style="stroke:#181818;stroke-width:0.5;"/><path d="M74.5,21.5 L74.5,48.5 M61.5,29.5 L87.5,29.5 M74.5,48.5 L61.5,63.5 M74.5,48.5 L87.5,63.5 " fill="none" style="stroke:#181818;stroke-width:0.5;"/><text fill="#000000" font-family="sans-serif" font-size="14" lengthAdjust="spacing" textLength="133" x="5" y="761.1816">System Administrator</text><ellipse cx="74.5" cy="772.6484" fill="#E3E3E3" rx="8" ry="8" style="stroke:#181818;stroke-width:0.5;"/><path d="M74.5,780.6484 L74.5,807.6484 M61.5,788.6484 L87.5,788.6484 M74.5,807.6484 L61.5,822.6484 M74.5,807.6484 L87.5,822.6484 " fill="none" style="stroke:#181818;stroke-width:0.5;"/><rect fill="#E3E3E3" height="29.6406" rx="2.5" ry="2.5" style="stroke:#181818;stroke-width:0.5;" width="120" x="338.5" y="50"/><text fill="#000000" font-family="sans-serif" font-size="14" lengthAdjust="spacing" textLength="106" x="345.5" y="69.6738">:CreateAgencyUI</text><rect fill="#E3E3E3" height="29.6406" rx="2.5" ry="2.5" style="stroke:#181818;stroke-width:0.5;" width="120" x="338.5" y="748.5078"/><text fill="#000000" font-family="sans-serif" font-size="14" lengthAdjust="spacing" textLength="106" x="345.5" y="768.1816">:CreateAgencyUI</text><rect fill="#E3E3E3" height="29.6406" rx="2.5" ry="2.5" style="stroke:#181818;stroke-width:0.5;" width="170" x="591.5" y="748.5078"/><text fill="#000000" font-family="sans-serif" font-size="14" lengthAdjust="spacing" textLength="156" x="598.5" y="768.1816">:CreateAgencyController</text><rect fill="#E3E3E3" height="29.6406" rx="2.5" ry="2.5" style="stroke:#181818;stroke-width:0.5;" width="97" x="771.5" y="50"/><text fill="#000000" font-family="sans-serif" font-size="14" lengthAdjust="spacing" textLength="83" x="778.5" y="69.6738">:Repositories</text><rect fill="#E3E3E3" height="29.6406" rx="2.5" ry="2.5" style="stroke:#181818;stroke-width:0.5;" width="97" x="771.5" y="748.5078"/><text fill="#000000" font-family="sans-serif" font-size="14" lengthAdjust="spacing" textLength="83" x="778.5" y="768.1816">:Repositories</text><rect fill="#E3E3E3" height="45.2813" rx="2.5" ry="2.5" style="stroke:#181818;stroke-width:0.5;" width="97" x="878.5" y="34.3594"/><text fill="#000000" font-family="sans-serif" font-size="14" lengthAdjust="spacing" textLength="74" x="890" y="54.0332">repositories</text><text fill="#000000" font-family="sans-serif" font-size="14" lengthAdjust="spacing" textLength="83" x="885.5" y="69.6738">:Repositories</text><rect fill="#E3E3E3" height="45.2813" rx="2.5" ry="2.5" style="stroke:#181818;stroke-width:0.5;" width="97" x="878.5" y="748.5078"/><text fill="#000000" font-family="sans-serif" font-size="14" lengthAdjust="spacing" textLength="74" x="890" y="768.1816">repositories</text><text fill="#000000" font-family="sans-serif" font-size="14" lengthAdjust="spacing" textLength="83" x="885.5" y="783.8223">:Repositories</text><rect fill="#E3E3E3" height="45.2813" rx="2.5" ry="2.5" style="stroke:#181818;stroke-width:0.5;" width="133" x="985.5" y="34.3594"/><text fill="#000000" font-family="sans-serif" font-size="14" lengthAdjust="spacing" textLength="119" x="992.5" y="54.0332">AgencyRepository:</text><text fill="#000000" font-family="sans-serif" font-size="14" lengthAdjust="spacing" textLength="114" x="995" y="69.6738">agencyRepository</text><rect fill="#E3E3E3" height="45.2813" rx="2.5" ry="2.5" style="stroke:#181818;stroke-width:0.5;" width="133" x="985.5" y="748.5078"/><text fill="#000000" font-family="sans-serif" font-size="14" lengthAdjust="spacing" textLength="119" x="992.5" y="768.1816">AgencyRepository:</text><text fill="#000000" font-family="sans-serif" font-size="14" lengthAdjust="spacing" textLength="114" x="995" y="783.8223">agencyRepository</text><rect fill="#E3E3E3" height="45.2813" rx="2.5" ry="2.5" style="stroke:#181818;stroke-width:0.5;" width="65" x="1335" y="748.5078"/><text fill="#000000" font-family="sans-serif" font-size="14" lengthAdjust="spacing" textLength="46" x="1344.5" y="768.1816">agency</text><text fill="#000000" font-family="sans-serif" font-size="14" lengthAdjust="spacing" textLength="51" x="1342" y="783.8223">:Agency</text><rect fill="#FFFFFF" height="640.8672" style="stroke:#181818;stroke-width:1.0;" width="10" x="69.5" y="90.6406"/><rect fill="#FFFFFF" height="69.1641" style="stroke:#181818;stroke-width:1.0;" width="10" x="393.5" y="111.1641"/><rect fill="#FFFFFF" height="508.1328" style="stroke:#181818;stroke-width:1.0;" width="10" x="393.5" y="223.375"/><rect fill="#FFFFFF" height="157.1406" style="stroke:#181818;stroke-width:1.0;" width="10" x="671.5" y="266.4219"/><rect fill="#FFFFFF" height="28.5234" style="stroke:#181818;stroke-width:1.0;" width="10" x="815" y="294.9453"/><rect fill="#FFFFFF" height="28.5234" style="stroke:#181818;stroke-width:1.0;" width="10" x="922" y="351.9922"/><rect fill="#FFFFFF" height="250.8984" style="stroke:#181818;stroke-width:1.0;" width="10" x="1047" y="423.5625"/><rect fill="#FFFFFF" height="122.5703" style="stroke:#181818;stroke-width:1.0;" width="10" x="1052" y="516.3672"/><rect fill="#FFFFFF" height="39.5234" style="stroke:#181818;stroke-width:1.0;" width="10" x="1057" y="557.8906"/><polygon fill="#181818" points="381.5,107.1641,391.5,111.1641,381.5,115.1641,385.5,111.1641" style="stroke:#181818;stroke-width:1.0;"/><line style="stroke:#181818;stroke-width:1.0;" x1="79.5" x2="387.5" y1="111.1641" y2="111.1641"/><text fill="#000000" font-family="sans-serif" font-size="13" font-weight="bold" lengthAdjust="spacing" textLength="7" x="86.5" y="106.4092">1</text><text fill="#000000" font-family="sans-serif" font-size="13" lengthAdjust="spacing" textLength="154" x="97.5" y="106.4092">asks to create a new store</text><polygon fill="#181818" points="579.5,135.6875,589.5,139.6875,579.5,143.6875,583.5,139.6875" style="stroke:#181818;stroke-width:1.0;"/><line style="stroke:#181818;stroke-width:1.0;" x1="403.5" x2="585.5" y1="139.6875" y2="139.6875"/><text fill="#000000" font-family="sans-serif" font-size="13" font-weight="bold" lengthAdjust="spacing" textLength="7" x="410.5" y="134.9326">2</text><text fill="#000000" font-family="sans-serif" font-size="13" lengthAdjust="spacing" textLength="36" x="421.5" y="134.9326">create</text><rect fill="#E3E3E3" height="29.6406" rx="2.5" ry="2.5" style="stroke:#181818;stroke-width:0.5;" width="170" x="591.5" y="119.1641"/><text fill="#000000" font-family="sans-serif" font-size="14" lengthAdjust="spacing" textLength="156" x="598.5" y="138.8379">:CreateAgencyController</text><polygon fill="#181818" points="90.5,176.3281,80.5,180.3281,90.5,184.3281,86.5,180.3281" style="stroke:#181818;stroke-width:1.0;"/><line style="stroke:#181818;stroke-width:1.0;stroke-dasharray:2.0,2.0;" x1="84.5" x2="397.5" y1="180.3281" y2="180.3281"/><text fill="#000000" font-family="sans-serif" font-size="13" font-weight="bold" lengthAdjust="spacing" textLength="7" x="96.5" y="175.5732">3</text><text fill="#000000" font-family="sans-serif" font-size="13" lengthAdjust="spacing" textLength="79" x="107.5" y="175.5732">requests data</text><polygon fill="#181818" points="381.5,219.375,391.5,223.375,381.5,227.375,385.5,223.375" style="stroke:#181818;stroke-width:1.0;"/><line style="stroke:#181818;stroke-width:1.0;" x1="79.5" x2="387.5" y1="223.375" y2="223.375"/><text fill="#000000" font-family="sans-serif" font-size="13" font-weight="bold" lengthAdjust="spacing" textLength="7" x="86.5" y="211.3584">4</text><text fill="#000000" font-family="sans-serif" font-size="13" lengthAdjust="spacing" textLength="284" x="97.5" y="204.0967">types requested data (designation, state, district,</text><text fill="#000000" font-family="sans-serif" font-size="13" lengthAdjust="spacing" textLength="232" x="101.5" y="218.6201">city, address, email, phone number, vat)</text><polygon fill="#181818" points="659.5,262.4219,669.5,266.4219,659.5,270.4219,663.5,266.4219" style="stroke:#181818;stroke-width:1.0;"/><line style="stroke:#181818;stroke-width:1.0;" x1="403.5" x2="665.5" y1="266.4219" y2="266.4219"/><text fill="#000000" font-family="sans-serif" font-size="13" font-weight="bold" lengthAdjust="spacing" textLength="7" x="410.5" y="254.4053">5</text><text fill="#000000" font-family="sans-serif" font-size="13" lengthAdjust="spacing" textLength="238" x="421.5" y="247.1436">createAgency(designation, state, district,</text><text fill="#000000" font-family="sans-serif" font-size="13" lengthAdjust="spacing" textLength="232" x="425.5" y="261.667">city, address, email, phone number, vat)</text><polygon fill="#181818" points="803,290.9453,813,294.9453,803,298.9453,807,294.9453" style="stroke:#181818;stroke-width:1.0;"/><line style="stroke:#181818;stroke-width:1.0;" x1="681.5" x2="809" y1="294.9453" y2="294.9453"/><text fill="#000000" font-family="sans-serif" font-size="13" font-weight="bold" lengthAdjust="spacing" textLength="7" x="688.5" y="290.1904">6</text><text fill="#000000" font-family="sans-serif" font-size="13" lengthAdjust="spacing" textLength="75" x="699.5" y="290.1904">getInstance()</text><polygon fill="#181818" points="692.5,319.4688,682.5,323.4688,692.5,327.4688,688.5,323.4688" style="stroke:#181818;stroke-width:1.0;"/><line style="stroke:#181818;stroke-width:1.0;stroke-dasharray:2.0,2.0;" x1="686.5" x2="819" y1="323.4688" y2="323.4688"/><text fill="#000000" font-family="sans-serif" font-size="13" font-weight="bold" lengthAdjust="spacing" textLength="7" x="698.5" y="318.7139">7</text><text fill="#000000" font-family="sans-serif" font-size="13" lengthAdjust="spacing" textLength="67" x="709.5" y="318.7139">repositories</text><polygon fill="#181818" points="910,347.9922,920,351.9922,910,355.9922,914,351.9922" style="stroke:#181818;stroke-width:1.0;"/><line style="stroke:#181818;stroke-width:1.0;" x1="681.5" x2="916" y1="351.9922" y2="351.9922"/><text fill="#000000" font-family="sans-serif" font-size="13" font-weight="bold" lengthAdjust="spacing" textLength="7" x="688.5" y="347.2373">8</text><text fill="#000000" font-family="sans-serif" font-size="13" lengthAdjust="spacing" textLength="119" x="699.5" y="347.2373">getStoreRepository()</text><polygon fill="#181818" points="692.5,376.5156,682.5,380.5156,692.5,384.5156,688.5,380.5156" style="stroke:#181818;stroke-width:1.0;"/><line style="stroke:#181818;stroke-width:1.0;stroke-dasharray:2.0,2.0;" x1="686.5" x2="926" y1="380.5156" y2="380.5156"/><text fill="#000000" font-family="sans-serif" font-size="13" font-weight="bold" lengthAdjust="spacing" textLength="7" x="698.5" y="375.7607">9</text><text fill="#000000" font-family="sans-serif" font-size="13" lengthAdjust="spacing" textLength="91" x="709.5" y="375.7607">storeRepository</text><polygon fill="#181818" points="1035,419.5625,1045,423.5625,1035,427.5625,1039,423.5625" style="stroke:#181818;stroke-width:1.0;"/><line style="stroke:#181818;stroke-width:1.0;" x1="676.5" x2="1041" y1="423.5625" y2="423.5625"/><text fill="#000000" font-family="sans-serif" font-size="13" font-weight="bold" lengthAdjust="spacing" textLength="14" x="683.5" y="411.5459">10</text><text fill="#000000" font-family="sans-serif" font-size="13" lengthAdjust="spacing" textLength="238" x="701.5" y="404.2842">createAgency(designation, state, district,</text><text fill="#000000" font-family="sans-serif" font-size="13" lengthAdjust="spacing" textLength="232" x="705.5" y="418.8076">city, address, email, phone number, vat)</text><polygon fill="#181818" points="1323,462.6094,1333,466.6094,1323,470.6094,1327,466.6094" style="stroke:#181818;stroke-width:1.0;"/><line style="stroke:#181818;stroke-width:1.0;" x1="1057" x2="1329" y1="466.6094" y2="466.6094"/><text fill="#000000" font-family="sans-serif" font-size="13" font-weight="bold" lengthAdjust="spacing" textLength="14" x="1064" y="454.5928">11</text><text fill="#000000" font-family="sans-serif" font-size="13" lengthAdjust="spacing" textLength="194" x="1082" y="447.3311">create(designation, state, district,</text><text fill="#000000" font-family="sans-serif" font-size="13" lengthAdjust="spacing" textLength="232" x="1086" y="461.8545">city, address, email, phone number, vat)</text><rect fill="#E3E3E3" height="45.2813" rx="2.5" ry="2.5" style="stroke:#181818;stroke-width:0.5;" width="65" x="1335" y="431.5625"/><text fill="#000000" font-family="sans-serif" font-size="14" lengthAdjust="spacing" textLength="46" x="1344.5" y="451.2363">agency</text><text fill="#000000" font-family="sans-serif" font-size="14" lengthAdjust="spacing" textLength="51" x="1342" y="466.877">:Agency</text><line style="stroke:#181818;stroke-width:1.0;" x1="1057" x2="1104" y1="503.3672" y2="503.3672"/><line style="stroke:#181818;stroke-width:1.0;" x1="1104" x2="1104" y1="503.3672" y2="516.3672"/><line style="stroke:#181818;stroke-width:1.0;" x1="1063" x2="1104" y1="516.3672" y2="516.3672"/><polygon fill="#181818" points="1073,512.3672,1063,516.3672,1073,520.3672,1069,516.3672" style="stroke:#181818;stroke-width:1.0;"/><text fill="#000000" font-family="sans-serif" font-size="13" font-weight="bold" lengthAdjust="spacing" textLength="14" x="1069" y="498.6123">12</text><text fill="#000000" font-family="sans-serif" font-size="13" lengthAdjust="spacing" textLength="119" x="1087" y="498.6123">addAgency (agency)</text><line style="stroke:#181818;stroke-width:1.0;" x1="1062" x2="1109" y1="544.8906" y2="544.8906"/><line style="stroke:#181818;stroke-width:1.0;" x1="1109" x2="1109" y1="544.8906" y2="557.8906"/><line style="stroke:#181818;stroke-width:1.0;" x1="1068" x2="1109" y1="557.8906" y2="557.8906"/><polygon fill="#181818" points="1078,553.8906,1068,557.8906,1078,561.8906,1074,557.8906" style="stroke:#181818;stroke-width:1.0;"/><text fill="#000000" font-family="sans-serif" font-size="13" font-weight="bold" lengthAdjust="spacing" textLength="14" x="1074" y="540.1357">13</text><text fill="#000000" font-family="sans-serif" font-size="13" lengthAdjust="spacing" textLength="137" x="1092" y="540.1357">validateAgency(agency)</text><line style="stroke:#181818;stroke-width:1.0;stroke-dasharray:2.0,2.0;" x1="1067" x2="1109" y1="596.4141" y2="596.4141"/><line style="stroke:#181818;stroke-width:1.0;stroke-dasharray:2.0,2.0;" x1="1109" x2="1109" y1="596.4141" y2="609.4141"/><line style="stroke:#181818;stroke-width:1.0;stroke-dasharray:2.0,2.0;" x1="1062" x2="1109" y1="609.4141" y2="609.4141"/><polygon fill="#181818" points="1072,605.4141,1062,609.4141,1072,613.4141,1068,609.4141" style="stroke:#181818;stroke-width:1.0;"/><text fill="#000000" font-family="sans-serif" font-size="13" font-weight="bold" lengthAdjust="spacing" textLength="14" x="1074" y="591.6592">14</text><text fill="#000000" font-family="sans-serif" font-size="13" lengthAdjust="spacing" textLength="4" x="1092" y="591.6592">&#160;</text><line style="stroke:#181818;stroke-width:1.0;stroke-dasharray:2.0,2.0;" x1="1062" x2="1104" y1="637.9375" y2="637.9375"/><line style="stroke:#181818;stroke-width:1.0;stroke-dasharray:2.0,2.0;" x1="1104" x2="1104" y1="637.9375" y2="650.9375"/><line style="stroke:#181818;stroke-width:1.0;stroke-dasharray:2.0,2.0;" x1="1057" x2="1104" y1="650.9375" y2="650.9375"/><polygon fill="#181818" points="1067,646.9375,1057,650.9375,1067,654.9375,1063,650.9375" style="stroke:#181818;stroke-width:1.0;"/><text fill="#000000" font-family="sans-serif" font-size="13" font-weight="bold" lengthAdjust="spacing" textLength="14" x="1069" y="633.1826">15</text><text fill="#000000" font-family="sans-serif" font-size="13" lengthAdjust="spacing" textLength="4" x="1087" y="633.1826">&#160;</text><polygon fill="#181818" points="687.5,670.4609,677.5,674.4609,687.5,678.4609,683.5,674.4609" style="stroke:#181818;stroke-width:1.0;"/><line style="stroke:#181818;stroke-width:1.0;stroke-dasharray:2.0,2.0;" x1="681.5" x2="1051" y1="674.4609" y2="674.4609"/><text fill="#000000" font-family="sans-serif" font-size="13" font-weight="bold" lengthAdjust="spacing" textLength="14" x="693.5" y="669.7061">16</text><text fill="#000000" font-family="sans-serif" font-size="13" lengthAdjust="spacing" textLength="42" x="711.5" y="669.7061">agency</text><polygon fill="#181818" points="414.5,698.9844,404.5,702.9844,414.5,706.9844,410.5,702.9844" style="stroke:#181818;stroke-width:1.0;"/><line style="stroke:#181818;stroke-width:1.0;stroke-dasharray:2.0,2.0;" x1="408.5" x2="675.5" y1="702.9844" y2="702.9844"/><text fill="#000000" font-family="sans-serif" font-size="13" font-weight="bold" lengthAdjust="spacing" textLength="14" x="420.5" y="698.2295">17</text><text fill="#000000" font-family="sans-serif" font-size="13" lengthAdjust="spacing" textLength="42" x="438.5" y="698.2295">agency</text><polygon fill="#181818" points="85.5,727.5078,75.5,731.5078,85.5,735.5078,81.5,731.5078" style="stroke:#181818;stroke-width:1.0;"/><line style="stroke:#181818;stroke-width:1.0;stroke-dasharray:2.0,2.0;" x1="79.5" x2="397.5" y1="731.5078" y2="731.5078"/><text fill="#000000" font-family="sans-serif" font-size="13" font-weight="bold" lengthAdjust="spacing" textLength="14" x="91.5" y="726.7529">18</text><text fill="#000000" font-family="sans-serif" font-size="13" lengthAdjust="spacing" textLength="158" x="109.5" y="726.7529">displays operation success</text><!--SRC=[lLN1Rjim3BtdAuYSqiBvWHm61Dam1EY6eMaF0tBXPDOHOakUfBJmtu-I4jknt3GjYkcKoEHxZzIZPFTIrMYmWaehBNP6LmJE76XYsoyrYZqMj75DIM18E5H5sG-mEyprYrG5F65fQJB1WzFgKFqXmx-5qmQccyOwgc2PLr99wmpoxXJGmlBhZmd3E2baZSh1TB4oX8wM1IdHFAv3qEFwGinAAsTqML84N3tStmsYxwdMLZAZ91jYserc8tqnBFSynVGojYe5-7MtV3ZFY5ewuCLMuM0hrZlOF4U9ASmOmsB6zsy_Lxz39-KpLnrQDe7ZuZym_y8TWWK7xoqu3I9q1n0KlO1b5khYMnJkQRlf5oCmZk_UxIrZHOmqX6CyvOATyFT0rbd8qM4NbrF2q9VecfhiAPVoa0opdAmi53gfLSQ2EJc3tDj42fTj5GZfcWmmpmrPcm5LACiCwfrM1D5e6J3bJUGRBR4hhoqkzlYJoPC-1p-UVV8h26518qvaVGMvjM8fIj3i9arkiSTyd4JxDKOpF_R37sLdxpI_Tw9NyPrAypCIQzbu2tQv5qiAapLQGy2RTuTepr4l2Xz7FIaTpkJ_SKXFNkgHRjY7zqLIHQBULnJkZDuWVruDLz6d3MNak0kpUCbTCi7RHR-3-HbBcNU7-Ihx1nICgnYHCPxUSy17AxwAwrqyenp7aOkzUzN6by7Zj8M7u4saT22wjsVXVLkNs5ZGDPbWQR078TYuCMVm1lKLyjFv3m00]--></g></svg>