<?xml version="1.0" encoding="us-ascii" standalone="no"?><svg xmlns="http://www.w3.org/2000/svg" xmlns:xlink="http://www.w3.org/1999/xlink" contentStyleType="text/css" height="1123px" preserveAspectRatio="none" style="width:1071px;height:1123px;background:#FFFFFF;" version="1.1" viewBox="0 0 1071 1123" width="1071px" zoomAndPan="magnify"><defs/><g><text fill="#000000" font-family="sans-serif" font-size="14" font-weight="bold" lengthAdjust="spacing" textLength="228" x="423.75" y="27.6738">Transaction Request List Display</text><rect fill="#FFFFFF" height="906.6563" style="stroke:#181818;stroke-width:1.0;" width="10" x="21.5" y="127.2813"/><rect fill="#FFFFFF" height="256.7109" style="stroke:#181818;stroke-width:1.0;" width="10" x="294.5" y="147.8047"/><rect fill="#FFFFFF" height="550.375" style="stroke:#181818;stroke-width:1.0;" width="10" x="294.5" y="474.5625"/><rect fill="#FFFFFF" height="199.6641" style="stroke:#181818;stroke-width:1.0;" width="10" x="423.5" y="176.3281"/><rect fill="#FFFFFF" height="493.3281" style="stroke:#181818;stroke-width:1.0;" width="10" x="423.5" y="503.0859"/><rect fill="#FFFFFF" height="28.5234" style="stroke:#181818;stroke-width:1.0;" width="10" x="553" y="204.8516"/><rect fill="#FFFFFF" height="28.5234" style="stroke:#181818;stroke-width:1.0;" width="10" x="553" y="531.6094"/><rect fill="#FFFFFF" height="28.5234" style="stroke:#181818;stroke-width:1.0;" width="10" x="553" y="756.75"/><rect fill="#FFFFFF" height="28.5234" style="stroke:#181818;stroke-width:1.0;" width="10" x="662" y="261.8984"/><rect fill="#FFFFFF" height="28.5234" style="stroke:#181818;stroke-width:1.0;" width="10" x="662" y="588.6563"/><rect fill="#FFFFFF" height="28.5234" style="stroke:#181818;stroke-width:1.0;" width="10" x="662" y="813.7969"/><rect fill="#FFFFFF" height="28.5234" style="stroke:#181818;stroke-width:1.0;" width="10" x="805" y="318.9453"/><rect fill="#FFFFFF" height="82.5234" style="stroke:#181818;stroke-width:1.0;" width="10" x="805" y="645.7031"/><rect fill="#FFFFFF" height="25" style="stroke:#181818;stroke-width:1.0;" width="10" x="810" y="682.2266"/><rect fill="#FFFFFF" height="97.0469" style="stroke:#181818;stroke-width:1.0;" width="10" x="969.5" y="870.8438"/><line style="stroke:#181818;stroke-width:0.5;stroke-dasharray:5.0,5.0;" x1="26" x2="26" y1="117.2813" y2="1042.9375"/><line style="stroke:#181818;stroke-width:0.5;stroke-dasharray:5.0,5.0;" x1="299.5" x2="299.5" y1="117.2813" y2="1042.9375"/><line style="stroke:#181818;stroke-width:0.5;stroke-dasharray:5.0,5.0;" x1="428.5" x2="428.5" y1="117.2813" y2="1042.9375"/><line style="stroke:#181818;stroke-width:0.5;stroke-dasharray:5.0,5.0;" x1="557.5" x2="557.5" y1="117.2813" y2="1042.9375"/><line style="stroke:#181818;stroke-width:0.5;stroke-dasharray:5.0,5.0;" x1="666.5" x2="666.5" y1="117.2813" y2="1042.9375"/><line style="stroke:#181818;stroke-width:0.5;stroke-dasharray:5.0,5.0;" x1="809.5" x2="809.5" y1="117.2813" y2="1042.9375"/><line style="stroke:#181818;stroke-width:0.5;stroke-dasharray:5.0,5.0;" x1="974.5" x2="974.5" y1="117.2813" y2="1042.9375"/><text fill="#000000" font-family="sans-serif" font-size="14" lengthAdjust="spacing" textLength="37" x="5" y="114.3145">Agent</text><ellipse cx="26.5" cy="50.1406" fill="#E2E2F0" rx="8" ry="8" style="stroke:#181818;stroke-width:0.5;"/><path d="M26.5,58.1406 L26.5,85.1406 M13.5,66.1406 L39.5,66.1406 M26.5,85.1406 L13.5,100.1406 M26.5,85.1406 L39.5,100.1406 " fill="none" style="stroke:#181818;stroke-width:0.5;"/><text fill="#000000" font-family="sans-serif" font-size="14" lengthAdjust="spacing" textLength="37" x="5" y="1054.6113">Agent</text><ellipse cx="26.5" cy="1066.0781" fill="#E2E2F0" rx="8" ry="8" style="stroke:#181818;stroke-width:0.5;"/><path d="M26.5,1074.0781 L26.5,1101.0781 M13.5,1082.0781 L39.5,1082.0781 M26.5,1101.0781 L13.5,1116.0781 M26.5,1101.0781 L39.5,1116.0781 " fill="none" style="stroke:#181818;stroke-width:0.5;"/><rect fill="#E2E2F0" height="29.6406" rx="2.5" ry="2.5" style="stroke:#181818;stroke-width:0.5;" width="92" x="253.5" y="86.6406"/><text fill="#000000" font-family="sans-serif" font-size="14" lengthAdjust="spacing" textLength="78" x="260.5" y="106.3145">displayListUI</text><rect fill="#E2E2F0" height="29.6406" rx="2.5" ry="2.5" style="stroke:#181818;stroke-width:0.5;" width="92" x="253.5" y="1041.9375"/><text fill="#000000" font-family="sans-serif" font-size="14" lengthAdjust="spacing" textLength="78" x="260.5" y="1061.6113">displayListUI</text><rect fill="#E2E2F0" height="29.6406" rx="2.5" ry="2.5" style="stroke:#181818;stroke-width:0.5;" width="142" x="357.5" y="86.6406"/><text fill="#000000" font-family="sans-serif" font-size="14" lengthAdjust="spacing" textLength="128" x="364.5" y="106.3145">displayListController</text><rect fill="#E2E2F0" height="29.6406" rx="2.5" ry="2.5" style="stroke:#181818;stroke-width:0.5;" width="142" x="357.5" y="1041.9375"/><text fill="#000000" font-family="sans-serif" font-size="14" lengthAdjust="spacing" textLength="128" x="364.5" y="1061.6113">displayListController</text><rect fill="#E2E2F0" height="29.6406" rx="2.5" ry="2.5" style="stroke:#181818;stroke-width:0.5;" width="97" x="509.5" y="86.6406"/><text fill="#000000" font-family="sans-serif" font-size="14" lengthAdjust="spacing" textLength="83" x="516.5" y="106.3145">:Repositories</text><rect fill="#E2E2F0" height="29.6406" rx="2.5" ry="2.5" style="stroke:#181818;stroke-width:0.5;" width="97" x="509.5" y="1041.9375"/><text fill="#000000" font-family="sans-serif" font-size="14" lengthAdjust="spacing" textLength="83" x="516.5" y="1061.6113">:Repositories</text><rect fill="#E2E2F0" height="45.2813" rx="2.5" ry="2.5" style="stroke:#181818;stroke-width:0.5;" width="101" x="616.5" y="71"/><text fill="#000000" font-family="sans-serif" font-size="14" lengthAdjust="spacing" textLength="74" x="630" y="90.6738">repositories</text><text fill="#000000" font-family="sans-serif" font-size="14" lengthAdjust="spacing" textLength="83" x="627.5" y="106.3145">:Repositories</text><rect fill="#E2E2F0" height="45.2813" rx="2.5" ry="2.5" style="stroke:#181818;stroke-width:0.5;" width="101" x="616.5" y="1041.9375"/><text fill="#000000" font-family="sans-serif" font-size="14" lengthAdjust="spacing" textLength="74" x="630" y="1061.6113">repositories</text><text fill="#000000" font-family="sans-serif" font-size="14" lengthAdjust="spacing" textLength="83" x="627.5" y="1077.252">:Repositories</text><rect fill="#E2E2F0" height="45.2813" rx="2.5" ry="2.5" style="stroke:#181818;stroke-width:0.5;" width="165" x="727.5" y="71"/><text fill="#000000" font-family="sans-serif" font-size="14" lengthAdjust="spacing" textLength="138" x="741" y="90.6738">requestListRepository</text><text fill="#000000" font-family="sans-serif" font-size="14" lengthAdjust="spacing" textLength="147" x="738.5" y="106.3145">:RequestListRepository</text><rect fill="#E2E2F0" height="45.2813" rx="2.5" ry="2.5" style="stroke:#181818;stroke-width:0.5;" width="165" x="727.5" y="1041.9375"/><text fill="#000000" font-family="sans-serif" font-size="14" lengthAdjust="spacing" textLength="138" x="741" y="1061.6113">requestListRepository</text><text fill="#000000" font-family="sans-serif" font-size="14" lengthAdjust="spacing" textLength="147" x="738.5" y="1077.252">:RequestListRepository</text><rect fill="#E2E2F0" height="45.2813" rx="2.5" ry="2.5" style="stroke:#181818;stroke-width:0.5;" width="144" x="902.5" y="71"/><text fill="#000000" font-family="sans-serif" font-size="14" lengthAdjust="spacing" textLength="121" x="914" y="90.6738">propertyRepository</text><text fill="#000000" font-family="sans-serif" font-size="14" lengthAdjust="spacing" textLength="126" x="913.5" y="106.3145">:PropertyRepository</text><rect fill="#E2E2F0" height="45.2813" rx="2.5" ry="2.5" style="stroke:#181818;stroke-width:0.5;" width="144" x="902.5" y="1041.9375"/><text fill="#000000" font-family="sans-serif" font-size="14" lengthAdjust="spacing" textLength="121" x="914" y="1061.6113">propertyRepository</text><text fill="#000000" font-family="sans-serif" font-size="14" lengthAdjust="spacing" textLength="126" x="913.5" y="1077.252">:PropertyRepository</text><rect fill="#FFFFFF" height="906.6563" style="stroke:#181818;stroke-width:1.0;" width="10" x="21.5" y="127.2813"/><rect fill="#FFFFFF" height="256.7109" style="stroke:#181818;stroke-width:1.0;" width="10" x="294.5" y="147.8047"/><rect fill="#FFFFFF" height="550.375" style="stroke:#181818;stroke-width:1.0;" width="10" x="294.5" y="474.5625"/><rect fill="#FFFFFF" height="199.6641" style="stroke:#181818;stroke-width:1.0;" width="10" x="423.5" y="176.3281"/><rect fill="#FFFFFF" height="493.3281" style="stroke:#181818;stroke-width:1.0;" width="10" x="423.5" y="503.0859"/><rect fill="#FFFFFF" height="28.5234" style="stroke:#181818;stroke-width:1.0;" width="10" x="553" y="204.8516"/><rect fill="#FFFFFF" height="28.5234" style="stroke:#181818;stroke-width:1.0;" width="10" x="553" y="531.6094"/><rect fill="#FFFFFF" height="28.5234" style="stroke:#181818;stroke-width:1.0;" width="10" x="553" y="756.75"/><rect fill="#FFFFFF" height="28.5234" style="stroke:#181818;stroke-width:1.0;" width="10" x="662" y="261.8984"/><rect fill="#FFFFFF" height="28.5234" style="stroke:#181818;stroke-width:1.0;" width="10" x="662" y="588.6563"/><rect fill="#FFFFFF" height="28.5234" style="stroke:#181818;stroke-width:1.0;" width="10" x="662" y="813.7969"/><rect fill="#FFFFFF" height="28.5234" style="stroke:#181818;stroke-width:1.0;" width="10" x="805" y="318.9453"/><rect fill="#FFFFFF" height="82.5234" style="stroke:#181818;stroke-width:1.0;" width="10" x="805" y="645.7031"/><rect fill="#FFFFFF" height="25" style="stroke:#181818;stroke-width:1.0;" width="10" x="810" y="682.2266"/><rect fill="#FFFFFF" height="97.0469" style="stroke:#181818;stroke-width:1.0;" width="10" x="969.5" y="870.8438"/><polygon fill="#181818" points="282.5,143.8047,292.5,147.8047,282.5,151.8047,286.5,147.8047" style="stroke:#181818;stroke-width:1.0;"/><line style="stroke:#181818;stroke-width:1.0;" x1="31.5" x2="288.5" y1="147.8047" y2="147.8047"/><text fill="#000000" font-family="sans-serif" font-size="13" lengthAdjust="spacing" textLength="244" x="38.5" y="143.0498">Requests personal transaction request list</text><polygon fill="#181818" points="411.5,172.3281,421.5,176.3281,411.5,180.3281,415.5,176.3281" style="stroke:#181818;stroke-width:1.0;"/><line style="stroke:#181818;stroke-width:1.0;" x1="304.5" x2="417.5" y1="176.3281" y2="176.3281"/><text fill="#000000" font-family="sans-serif" font-size="13" lengthAdjust="spacing" textLength="95" x="311.5" y="171.5732">getRequestList()</text><polygon fill="#181818" points="541,200.8516,551,204.8516,541,208.8516,545,204.8516" style="stroke:#181818;stroke-width:1.0;"/><line style="stroke:#181818;stroke-width:1.0;" x1="433.5" x2="547" y1="204.8516" y2="204.8516"/><text fill="#000000" font-family="sans-serif" font-size="13" lengthAdjust="spacing" textLength="82" x="440.5" y="200.0967">getInstances()</text><polygon fill="#181818" points="444.5,229.375,434.5,233.375,444.5,237.375,440.5,233.375" style="stroke:#181818;stroke-width:1.0;"/><line style="stroke:#181818;stroke-width:1.0;stroke-dasharray:2.0,2.0;" x1="438.5" x2="557" y1="233.375" y2="233.375"/><text fill="#000000" font-family="sans-serif" font-size="13" lengthAdjust="spacing" textLength="67" x="450.5" y="228.6201">repositories</text><polygon fill="#181818" points="650,257.8984,660,261.8984,650,265.8984,654,261.8984" style="stroke:#181818;stroke-width:1.0;"/><line style="stroke:#181818;stroke-width:1.0;" x1="433.5" x2="656" y1="261.8984" y2="261.8984"/><text fill="#000000" font-family="sans-serif" font-size="13" lengthAdjust="spacing" textLength="149" x="440.5" y="257.1436">getRequestListRepository</text><polygon fill="#181818" points="444.5,286.4219,434.5,290.4219,444.5,294.4219,440.5,290.4219" style="stroke:#181818;stroke-width:1.0;"/><line style="stroke:#181818;stroke-width:1.0;stroke-dasharray:2.0,2.0;" x1="438.5" x2="666" y1="290.4219" y2="290.4219"/><text fill="#000000" font-family="sans-serif" font-size="13" lengthAdjust="spacing" textLength="123" x="450.5" y="285.667">requestListReporitory</text><polygon fill="#181818" points="793,314.9453,803,318.9453,793,322.9453,797,318.9453" style="stroke:#181818;stroke-width:1.0;"/><line style="stroke:#181818;stroke-width:1.0;" x1="433.5" x2="799" y1="318.9453" y2="318.9453"/><text fill="#000000" font-family="sans-serif" font-size="13" lengthAdjust="spacing" textLength="95" x="440.5" y="314.1904">getRequestList()</text><polygon fill="#181818" points="444.5,343.4688,434.5,347.4688,444.5,351.4688,440.5,347.4688" style="stroke:#181818;stroke-width:1.0;"/><line style="stroke:#181818;stroke-width:1.0;stroke-dasharray:2.0,2.0;" x1="438.5" x2="809" y1="347.4688" y2="347.4688"/><text fill="#000000" font-family="sans-serif" font-size="13" lengthAdjust="spacing" textLength="64" x="450.5" y="342.7139">requestList</text><polygon fill="#181818" points="315.5,371.9922,305.5,375.9922,315.5,379.9922,311.5,375.9922" style="stroke:#181818;stroke-width:1.0;"/><line style="stroke:#181818;stroke-width:1.0;stroke-dasharray:2.0,2.0;" x1="309.5" x2="427.5" y1="375.9922" y2="375.9922"/><text fill="#000000" font-family="sans-serif" font-size="13" lengthAdjust="spacing" textLength="64" x="321.5" y="371.2373">requestList</text><polygon fill="#181818" points="42.5,400.5156,32.5,404.5156,42.5,408.5156,38.5,404.5156" style="stroke:#181818;stroke-width:1.0;"/><line style="stroke:#181818;stroke-width:1.0;stroke-dasharray:2.0,2.0;" x1="36.5" x2="298.5" y1="404.5156" y2="404.5156"/><text fill="#000000" font-family="sans-serif" font-size="13" lengthAdjust="spacing" textLength="198" x="48.5" y="399.7607">Display request list sorted by date</text><line style="stroke:#181818;stroke-width:1.0;" x1="31.5" x2="73.5" y1="433.0391" y2="433.0391"/><line style="stroke:#181818;stroke-width:1.0;" x1="73.5" x2="73.5" y1="433.0391" y2="446.0391"/><line style="stroke:#181818;stroke-width:1.0;" x1="32.5" x2="73.5" y1="446.0391" y2="446.0391"/><polygon fill="#181818" points="42.5,442.0391,32.5,446.0391,42.5,450.0391,38.5,446.0391" style="stroke:#181818;stroke-width:1.0;"/><text fill="#000000" font-family="sans-serif" font-size="13" lengthAdjust="spacing" textLength="89" x="38.5" y="428.2842">Select Request</text><polygon fill="#181818" points="282.5,470.5625,292.5,474.5625,282.5,478.5625,286.5,474.5625" style="stroke:#181818;stroke-width:1.0;"/><line style="stroke:#181818;stroke-width:1.0;" x1="31.5" x2="288.5" y1="474.5625" y2="474.5625"/><text fill="#000000" font-family="sans-serif" font-size="13" lengthAdjust="spacing" textLength="95" x="38.5" y="469.8076">Accepts request</text><polygon fill="#181818" points="411.5,499.0859,421.5,503.0859,411.5,507.0859,415.5,503.0859" style="stroke:#181818;stroke-width:1.0;"/><line style="stroke:#181818;stroke-width:1.0;" x1="304.5" x2="417.5" y1="503.0859" y2="503.0859"/><text fill="#000000" font-family="sans-serif" font-size="13" lengthAdjust="spacing" textLength="100" x="311.5" y="498.3311">removeFromList()</text><polygon fill="#181818" points="541,527.6094,551,531.6094,541,535.6094,545,531.6094" style="stroke:#181818;stroke-width:1.0;"/><line style="stroke:#181818;stroke-width:1.0;" x1="433.5" x2="547" y1="531.6094" y2="531.6094"/><text fill="#000000" font-family="sans-serif" font-size="13" lengthAdjust="spacing" textLength="82" x="440.5" y="526.8545">getInstances()</text><polygon fill="#181818" points="444.5,556.1328,434.5,560.1328,444.5,564.1328,440.5,560.1328" style="stroke:#181818;stroke-width:1.0;"/><line style="stroke:#181818;stroke-width:1.0;stroke-dasharray:2.0,2.0;" x1="438.5" x2="557" y1="560.1328" y2="560.1328"/><text fill="#000000" font-family="sans-serif" font-size="13" lengthAdjust="spacing" textLength="67" x="450.5" y="555.3779">repositories</text><polygon fill="#181818" points="650,584.6563,660,588.6563,650,592.6563,654,588.6563" style="stroke:#181818;stroke-width:1.0;"/><line style="stroke:#181818;stroke-width:1.0;" x1="433.5" x2="656" y1="588.6563" y2="588.6563"/><text fill="#000000" font-family="sans-serif" font-size="13" lengthAdjust="spacing" textLength="149" x="440.5" y="583.9014">getRequestListRepository</text><polygon fill="#181818" points="444.5,613.1797,434.5,617.1797,444.5,621.1797,440.5,617.1797" style="stroke:#181818;stroke-width:1.0;"/><line style="stroke:#181818;stroke-width:1.0;stroke-dasharray:2.0,2.0;" x1="438.5" x2="666" y1="617.1797" y2="617.1797"/><text fill="#000000" font-family="sans-serif" font-size="13" lengthAdjust="spacing" textLength="123" x="450.5" y="612.4248">requestListReporitory</text><polygon fill="#181818" points="793,641.7031,803,645.7031,793,649.7031,797,645.7031" style="stroke:#181818;stroke-width:1.0;"/><line style="stroke:#181818;stroke-width:1.0;" x1="433.5" x2="799" y1="645.7031" y2="645.7031"/><text fill="#000000" font-family="sans-serif" font-size="13" lengthAdjust="spacing" textLength="100" x="440.5" y="640.9482">removeFromList()</text><line style="stroke:#181818;stroke-width:1.0;" x1="815" x2="862" y1="669.2266" y2="669.2266"/><line style="stroke:#181818;stroke-width:1.0;" x1="862" x2="862" y1="669.2266" y2="682.2266"/><line style="stroke:#181818;stroke-width:1.0;" x1="821" x2="862" y1="682.2266" y2="682.2266"/><polygon fill="#181818" points="831,678.2266,821,682.2266,831,686.2266,827,682.2266" style="stroke:#181818;stroke-width:1.0;"/><text fill="#000000" font-family="sans-serif" font-size="13" lengthAdjust="spacing" textLength="100" x="827" y="664.4717">removeFromList()</text><line style="stroke:#181818;stroke-width:1.0;stroke-dasharray:2.0,2.0;" x1="820" x2="862" y1="706.2266" y2="706.2266"/><line style="stroke:#181818;stroke-width:1.0;stroke-dasharray:2.0,2.0;" x1="862" x2="862" y1="706.2266" y2="719.2266"/><line style="stroke:#181818;stroke-width:1.0;stroke-dasharray:2.0,2.0;" x1="815" x2="862" y1="719.2266" y2="719.2266"/><polygon fill="#181818" points="825,715.2266,815,719.2266,825,723.2266,821,719.2266" style="stroke:#181818;stroke-width:1.0;"/><polygon fill="#181818" points="444.5,724.2266,434.5,728.2266,444.5,732.2266,440.5,728.2266" style="stroke:#181818;stroke-width:1.0;"/><line style="stroke:#181818;stroke-width:1.0;stroke-dasharray:2.0,2.0;" x1="438.5" x2="809" y1="728.2266" y2="728.2266"/><polygon fill="#181818" points="541,752.75,551,756.75,541,760.75,545,756.75" style="stroke:#181818;stroke-width:1.0;"/><line style="stroke:#181818;stroke-width:1.0;" x1="433.5" x2="547" y1="756.75" y2="756.75"/><text fill="#000000" font-family="sans-serif" font-size="13" lengthAdjust="spacing" textLength="82" x="440.5" y="751.9951">getInstances()</text><polygon fill="#181818" points="444.5,781.2734,434.5,785.2734,444.5,789.2734,440.5,785.2734" style="stroke:#181818;stroke-width:1.0;"/><line style="stroke:#181818;stroke-width:1.0;stroke-dasharray:2.0,2.0;" x1="438.5" x2="557" y1="785.2734" y2="785.2734"/><text fill="#000000" font-family="sans-serif" font-size="13" lengthAdjust="spacing" textLength="67" x="450.5" y="780.5186">repositories</text><polygon fill="#181818" points="650,809.7969,660,813.7969,650,817.7969,654,813.7969" style="stroke:#181818;stroke-width:1.0;"/><line style="stroke:#181818;stroke-width:1.0;" x1="433.5" x2="656" y1="813.7969" y2="813.7969"/><text fill="#000000" font-family="sans-serif" font-size="13" lengthAdjust="spacing" textLength="129" x="440.5" y="809.042">getPropertyRepository</text><polygon fill="#181818" points="444.5,838.3203,434.5,842.3203,444.5,846.3203,440.5,842.3203" style="stroke:#181818;stroke-width:1.0;"/><line style="stroke:#181818;stroke-width:1.0;stroke-dasharray:2.0,2.0;" x1="438.5" x2="666" y1="842.3203" y2="842.3203"/><text fill="#000000" font-family="sans-serif" font-size="13" lengthAdjust="spacing" textLength="109" x="450.5" y="837.5654">propertyRepository</text><polygon fill="#181818" points="957.5,866.8438,967.5,870.8438,957.5,874.8438,961.5,870.8438" style="stroke:#181818;stroke-width:1.0;"/><line style="stroke:#181818;stroke-width:1.0;" x1="433.5" x2="963.5" y1="870.8438" y2="870.8438"/><text fill="#000000" font-family="sans-serif" font-size="13" lengthAdjust="spacing" textLength="78" x="440.5" y="866.0889">addProperty()</text><line style="stroke:#181818;stroke-width:1.0;" x1="979.5" x2="1021.5" y1="899.3672" y2="899.3672"/><line style="stroke:#181818;stroke-width:1.0;" x1="1021.5" x2="1021.5" y1="899.3672" y2="912.3672"/><line style="stroke:#181818;stroke-width:1.0;" x1="980.5" x2="1021.5" y1="912.3672" y2="912.3672"/><polygon fill="#181818" points="990.5,908.3672,980.5,912.3672,990.5,916.3672,986.5,912.3672" style="stroke:#181818;stroke-width:1.0;"/><text fill="#000000" font-family="sans-serif" font-size="13" lengthAdjust="spacing" textLength="78" x="986.5" y="894.6123">addProperty()</text><line style="stroke:#181818;stroke-width:1.0;stroke-dasharray:2.0,2.0;" x1="979.5" x2="1021.5" y1="926.3672" y2="926.3672"/><line style="stroke:#181818;stroke-width:1.0;stroke-dasharray:2.0,2.0;" x1="1021.5" x2="1021.5" y1="926.3672" y2="939.3672"/><line style="stroke:#181818;stroke-width:1.0;stroke-dasharray:2.0,2.0;" x1="980.5" x2="1021.5" y1="939.3672" y2="939.3672"/><polygon fill="#181818" points="990.5,935.3672,980.5,939.3672,990.5,943.3672,986.5,939.3672" style="stroke:#181818;stroke-width:1.0;"/><polygon fill="#181818" points="444.5,963.8906,434.5,967.8906,444.5,971.8906,440.5,967.8906" style="stroke:#181818;stroke-width:1.0;"/><line style="stroke:#181818;stroke-width:1.0;stroke-dasharray:2.0,2.0;" x1="438.5" x2="973.5" y1="967.8906" y2="967.8906"/><text fill="#000000" font-family="sans-serif" font-size="13" lengthAdjust="spacing" textLength="91" x="450.5" y="963.1357">task successful</text><polygon fill="#181818" points="315.5,992.4141,305.5,996.4141,315.5,1000.4141,311.5,996.4141" style="stroke:#181818;stroke-width:1.0;"/><line style="stroke:#181818;stroke-width:1.0;stroke-dasharray:2.0,2.0;" x1="309.5" x2="427.5" y1="996.4141" y2="996.4141"/><text fill="#000000" font-family="sans-serif" font-size="13" lengthAdjust="spacing" textLength="91" x="321.5" y="991.6592">task successful</text><polygon fill="#181818" points="42.5,1020.9375,32.5,1024.9375,42.5,1028.9375,38.5,1024.9375" style="stroke:#181818;stroke-width:1.0;"/><line style="stroke:#181818;stroke-width:1.0;stroke-dasharray:2.0,2.0;" x1="36.5" x2="298.5" y1="1024.9375" y2="1024.9375"/><text fill="#000000" font-family="sans-serif" font-size="13" lengthAdjust="spacing" textLength="153" x="48.5" y="1020.1826">Display success message</text><!--SRC=[rLNDQkCm6BpxAJvwsZta1Nm8b7GBXa2DazuMWjR-6amToIifXRpzoghrPybE6dfP7OHjVJCQZKUIR6M7iEU42bBBbb6eyEyPXOHjgxgdLlGTkMIP6cGS7ez8PTOJBjkwxGcLq7mM3CMl1H01hyLXK-stSqKRHYLdNOTyA7ugTkLXiw_2yeUymfw9LitOedWO2gjVvKjOmxsItnIIa2b2BsnGOOildz34WERO5hlz8IBgEUkHoql8KaPVDKLPlPIQOh3tWqWSJTJzQZtQbHlR1IWImIZfG7e_PTGEdTBec8pNsVYmMZj7SpYYz5RsusVcWCvtKCs-AVnWj8OML4X2QnGAE1JfpXBe_m5Z6rvW5Kxk_nvRs62Qm3vCb4pNuApDfaYVs1SMoGh8U40sqRSepoGZOJFCQhDnCYFcG-WU13fJwYAYX4GlMrVON1fia9GS7T3Sd0110a4mBh61FnTe547cSPb8QZGucXrsM4kJSfD-i18VwnfxbVvncZZZoOXpFB4FVERiD7gVMjD_7l7lpVWzMGSNziXmcBJidlZxssbsXXje7CzDcyR3JKx4ExRRGguYr7pElfotQxbRYbryOqMmP4RcezTVPvp9NKgdkJfp84rZn2OoPmdjNJkjC0EhzQsS5k4WIpM-2PA8Tn1dTQ09yNRkbXoOfKuUuryWZkDislm9FpB3INNaY4lqvb3-1m00]--></g></svg>