<?xml version="1.0" encoding="us-ascii" standalone="no"?><svg xmlns="http://www.w3.org/2000/svg" xmlns:xlink="http://www.w3.org/1999/xlink" contentStyleType="text/css" height="336px" preserveAspectRatio="none" style="width:536px;height:336px;background:#FFFFFF;" version="1.1" viewBox="0 0 536 336" width="536.8px" zoomAndPan="magnify"><defs/><g><!--class Agent--><g id="elem_Agent"><rect codeLine="6" fill="#F1F1F1" height="88.45" id="Agent" rx="2" ry="2" style="stroke:#181818;stroke-width:0.4000000000000001;" width="90.4" x="5.6" y="5.6"/><ellipse cx="33.44" cy="18.4" fill="#ADD1B2" rx="8.8" ry="8.8" style="stroke:#181818;stroke-width:0.8000000000000002;"/><path d="M35.6525,15.1 Q35.7775,14.925 35.9275,14.8375 Q36.0775,14.75 36.2525,14.75 Q36.5525,14.75 36.74,14.9625 Q36.9275,15.1625 36.9275,15.65 L36.9275,16.8125 Q36.9275,17.3 36.74,17.5125 Q36.5525,17.725 36.2525,17.725 Q35.9775,17.725 35.815,17.5625 Q35.6525,17.4125 35.565,17 Q35.5275,16.7125 35.3775,16.5625 Q35.115,16.2625 34.6275,16.0875 Q34.14,15.9125 33.64,15.9125 Q33.0275,15.9125 32.515,16.175 Q32.015,16.4375 31.615,17.0375 Q31.2275,17.6375 31.2275,18.4625 L31.2275,19.3375 Q31.2275,20.325 31.94,20.9875 Q32.6525,21.6375 33.9275,21.6375 Q34.6775,21.6375 35.2025,21.4375 Q35.515,21.3125 35.8525,20.9625 Q36.065,20.75 36.1775,20.6875 Q36.3025,20.625 36.465,20.625 Q36.7275,20.625 36.9275,20.8375 Q37.14,21.0375 37.14,21.3125 Q37.14,21.5875 36.865,21.9125 Q36.465,22.375 35.8275,22.6375 Q34.965,23 33.9275,23 Q32.715,23 31.7525,22.5 Q30.965,22.1 30.415,21.25 Q29.865,20.3875 29.865,19.3625 L29.865,18.4375 Q29.865,17.375 30.3525,16.4625 Q30.8525,15.5375 31.7275,15.05 Q32.6025,14.55 33.59,14.55 Q34.1775,14.55 34.69,14.6875 Q35.215,14.8125 35.6525,15.1 Z " fill="#000000"/><text fill="#000000" font-family="sans-serif" font-size="11.2" lengthAdjust="spacing" textLength="29.6" x="48.16" y="22.2828">Agent</text><line style="stroke:#181818;stroke-width:0.4000000000000001;" x1="6.4" x2="95.2" y1="31.2" y2="31.2"/><text fill="#000000" font-family="sans-serif" font-size="11.2" lengthAdjust="spacing" textLength="80.8" x="10.4" y="44.5391">-String passport</text><text fill="#000000" font-family="sans-serif" font-size="11.2" lengthAdjust="spacing" textLength="77.6" x="10.4" y="57.0516">-String address</text><text fill="#000000" font-family="sans-serif" font-size="11.2" lengthAdjust="spacing" textLength="68.8" x="10.4" y="69.5641">-String phone</text><text fill="#000000" font-family="sans-serif" font-size="11.2" lengthAdjust="spacing" textLength="34.4" x="10.4" y="82.0766">-int vat</text><line style="stroke:#181818;stroke-width:0.4000000000000001;" x1="6.4" x2="95.2" y1="87.65" y2="87.65"/></g><!--class DisplayListUI--><g id="elem_DisplayListUI"><rect codeLine="13" fill="#F1F1F1" height="63.425" id="DisplayListUI" rx="2" ry="2" style="stroke:#181818;stroke-width:0.4000000000000001;" width="105.6" x="159.6" y="18.4"/><ellipse cx="178.8" cy="31.2" fill="#ADD1B2" rx="8.8" ry="8.8" style="stroke:#181818;stroke-width:0.8000000000000002;"/><path d="M181.0125,27.9 Q181.1375,27.725 181.2875,27.6375 Q181.4375,27.55 181.6125,27.55 Q181.9125,27.55 182.1,27.7625 Q182.2875,27.9625 182.2875,28.45 L182.2875,29.6125 Q182.2875,30.1 182.1,30.3125 Q181.9125,30.525 181.6125,30.525 Q181.3375,30.525 181.175,30.3625 Q181.0125,30.2125 180.925,29.8 Q180.8875,29.5125 180.7375,29.3625 Q180.475,29.0625 179.9875,28.8875 Q179.5,28.7125 179,28.7125 Q178.3875,28.7125 177.875,28.975 Q177.375,29.2375 176.975,29.8375 Q176.5875,30.4375 176.5875,31.2625 L176.5875,32.1375 Q176.5875,33.125 177.3,33.7875 Q178.0125,34.4375 179.2875,34.4375 Q180.0375,34.4375 180.5625,34.2375 Q180.875,34.1125 181.2125,33.7625 Q181.425,33.55 181.5375,33.4875 Q181.6625,33.425 181.825,33.425 Q182.0875,33.425 182.2875,33.6375 Q182.5,33.8375 182.5,34.1125 Q182.5,34.3875 182.225,34.7125 Q181.825,35.175 181.1875,35.4375 Q180.325,35.8 179.2875,35.8 Q178.075,35.8 177.1125,35.3 Q176.325,34.9 175.775,34.05 Q175.225,33.1875 175.225,32.1625 L175.225,31.2375 Q175.225,30.175 175.7125,29.2625 Q176.2125,28.3375 177.0875,27.85 Q177.9625,27.35 178.95,27.35 Q179.5375,27.35 180.05,27.4875 Q180.575,27.6125 181.0125,27.9 Z " fill="#000000"/><text fill="#000000" font-family="sans-serif" font-size="11.2" lengthAdjust="spacing" textLength="64" x="191.6" y="35.0828">DisplayListUI</text><line style="stroke:#181818;stroke-width:0.4000000000000001;" x1="160.4" x2="264.4" y1="44" y2="44"/><line style="stroke:#181818;stroke-width:0.4000000000000001;" x1="160.4" x2="264.4" y1="50.4" y2="50.4"/><text fill="#000000" font-family="sans-serif" font-size="11.2" lengthAdjust="spacing" textLength="90.4" x="164.4" y="63.7391">+getRequestList()</text><text fill="#000000" font-family="sans-serif" font-size="11.2" lengthAdjust="spacing" textLength="96" x="164.4" y="76.2516">+removeFromList()</text></g><!--class DisplayListController--><g id="elem_DisplayListController"><rect codeLine="17" fill="#F1F1F1" height="50.9125" id="DisplayListController" rx="2" ry="2" style="stroke:#181818;stroke-width:0.4000000000000001;" width="142.4" x="141.2" y="155.2"/><ellipse cx="158.96" cy="168" fill="#ADD1B2" rx="8.8" ry="8.8" style="stroke:#181818;stroke-width:0.8000000000000002;"/><path d="M161.1725,164.7 Q161.2975,164.525 161.4475,164.4375 Q161.5975,164.35 161.7725,164.35 Q162.0725,164.35 162.26,164.5625 Q162.4475,164.7625 162.4475,165.25 L162.4475,166.4125 Q162.4475,166.9 162.26,167.1125 Q162.0725,167.325 161.7725,167.325 Q161.4975,167.325 161.335,167.1625 Q161.1725,167.0125 161.085,166.6 Q161.0475,166.3125 160.8975,166.1625 Q160.635,165.8625 160.1475,165.6875 Q159.66,165.5125 159.16,165.5125 Q158.5475,165.5125 158.035,165.775 Q157.535,166.0375 157.135,166.6375 Q156.7475,167.2375 156.7475,168.0625 L156.7475,168.9375 Q156.7475,169.925 157.46,170.5875 Q158.1725,171.2375 159.4475,171.2375 Q160.1975,171.2375 160.7225,171.0375 Q161.035,170.9125 161.3725,170.5625 Q161.585,170.35 161.6975,170.2875 Q161.8225,170.225 161.985,170.225 Q162.2475,170.225 162.4475,170.4375 Q162.66,170.6375 162.66,170.9125 Q162.66,171.1875 162.385,171.5125 Q161.985,171.975 161.3475,172.2375 Q160.485,172.6 159.4475,172.6 Q158.235,172.6 157.2725,172.1 Q156.485,171.7 155.935,170.85 Q155.385,169.9875 155.385,168.9625 L155.385,168.0375 Q155.385,166.975 155.8725,166.0625 Q156.3725,165.1375 157.2475,164.65 Q158.1225,164.15 159.11,164.15 Q159.6975,164.15 160.21,164.2875 Q160.735,164.4125 161.1725,164.7 Z " fill="#000000"/><text fill="#000000" font-family="sans-serif" font-size="11.2" lengthAdjust="spacing" textLength="104" x="171.44" y="171.8828">DisplayListController</text><line style="stroke:#181818;stroke-width:0.4000000000000001;" x1="142" x2="282.8" y1="180.8" y2="180.8"/><text fill="#000000" font-family="sans-serif" font-size="11.2" lengthAdjust="spacing" textLength="132.8" x="146" y="194.1391">-repositories: Repositories</text><line style="stroke:#181818;stroke-width:0.4000000000000001;" x1="142" x2="282.8" y1="199.7125" y2="199.7125"/></g><!--class RequestListRepository--><g id="elem_RequestListRepository"><rect codeLine="21" fill="#F1F1F1" height="63.425" id="RequestListRepository" rx="2" ry="2" style="stroke:#181818;stroke-width:0.4000000000000001;" width="140" x="296.8" y="267.2"/><ellipse cx="308.8" cy="280" fill="#ADD1B2" rx="8.8" ry="8.8" style="stroke:#181818;stroke-width:0.8000000000000002;"/><path d="M311.0125,276.7 Q311.1375,276.525 311.2875,276.4375 Q311.4375,276.35 311.6125,276.35 Q311.9125,276.35 312.1,276.5625 Q312.2875,276.7625 312.2875,277.25 L312.2875,278.4125 Q312.2875,278.9 312.1,279.1125 Q311.9125,279.325 311.6125,279.325 Q311.3375,279.325 311.175,279.1625 Q311.0125,279.0125 310.925,278.6 Q310.8875,278.3125 310.7375,278.1625 Q310.475,277.8625 309.9875,277.6875 Q309.5,277.5125 309,277.5125 Q308.3875,277.5125 307.875,277.775 Q307.375,278.0375 306.975,278.6375 Q306.5875,279.2375 306.5875,280.0625 L306.5875,280.9375 Q306.5875,281.925 307.3,282.5875 Q308.0125,283.2375 309.2875,283.2375 Q310.0375,283.2375 310.5625,283.0375 Q310.875,282.9125 311.2125,282.5625 Q311.425,282.35 311.5375,282.2875 Q311.6625,282.225 311.825,282.225 Q312.0875,282.225 312.2875,282.4375 Q312.5,282.6375 312.5,282.9125 Q312.5,283.1875 312.225,283.5125 Q311.825,283.975 311.1875,284.2375 Q310.325,284.6 309.2875,284.6 Q308.075,284.6 307.1125,284.1 Q306.325,283.7 305.775,282.85 Q305.225,281.9875 305.225,280.9625 L305.225,280.0375 Q305.225,278.975 305.7125,278.0625 Q306.2125,277.1375 307.0875,276.65 Q307.9625,276.15 308.95,276.15 Q309.5375,276.15 310.05,276.2875 Q310.575,276.4125 311.0125,276.7 Z " fill="#000000"/><text fill="#000000" font-family="sans-serif" font-size="11.2" lengthAdjust="spacing" textLength="114.4" x="320" y="283.8828">RequestListRepository</text><line style="stroke:#181818;stroke-width:0.4000000000000001;" x1="297.6" x2="436" y1="292.8" y2="292.8"/><line style="stroke:#181818;stroke-width:0.4000000000000001;" x1="297.6" x2="436" y1="299.2" y2="299.2"/><text fill="#000000" font-family="sans-serif" font-size="11.2" lengthAdjust="spacing" textLength="90.4" x="301.6" y="312.5391">+getRequestList()</text><text fill="#000000" font-family="sans-serif" font-size="11.2" lengthAdjust="spacing" textLength="96" x="301.6" y="325.0516">+removeFromList()</text></g><!--class PropertyRepository--><g id="elem_PropertyRepository"><rect codeLine="25" fill="#F1F1F1" height="50.9125" id="PropertyRepository" rx="2" ry="2" style="stroke:#181818;stroke-width:0.4000000000000001;" width="123.2" x="408.4" y="155.2"/><ellipse cx="420.4" cy="168" fill="#ADD1B2" rx="8.8" ry="8.8" style="stroke:#181818;stroke-width:0.8000000000000002;"/><path d="M422.6125,164.7 Q422.7375,164.525 422.8875,164.4375 Q423.0375,164.35 423.2125,164.35 Q423.5125,164.35 423.7,164.5625 Q423.8875,164.7625 423.8875,165.25 L423.8875,166.4125 Q423.8875,166.9 423.7,167.1125 Q423.5125,167.325 423.2125,167.325 Q422.9375,167.325 422.775,167.1625 Q422.6125,167.0125 422.525,166.6 Q422.4875,166.3125 422.3375,166.1625 Q422.075,165.8625 421.5875,165.6875 Q421.1,165.5125 420.6,165.5125 Q419.9875,165.5125 419.475,165.775 Q418.975,166.0375 418.575,166.6375 Q418.1875,167.2375 418.1875,168.0625 L418.1875,168.9375 Q418.1875,169.925 418.9,170.5875 Q419.6125,171.2375 420.8875,171.2375 Q421.6375,171.2375 422.1625,171.0375 Q422.475,170.9125 422.8125,170.5625 Q423.025,170.35 423.1375,170.2875 Q423.2625,170.225 423.425,170.225 Q423.6875,170.225 423.8875,170.4375 Q424.1,170.6375 424.1,170.9125 Q424.1,171.1875 423.825,171.5125 Q423.425,171.975 422.7875,172.2375 Q421.925,172.6 420.8875,172.6 Q419.675,172.6 418.7125,172.1 Q417.925,171.7 417.375,170.85 Q416.825,169.9875 416.825,168.9625 L416.825,168.0375 Q416.825,166.975 417.3125,166.0625 Q417.8125,165.1375 418.6875,164.65 Q419.5625,164.15 420.55,164.15 Q421.1375,164.15 421.65,164.2875 Q422.175,164.4125 422.6125,164.7 Z " fill="#000000"/><text fill="#000000" font-family="sans-serif" font-size="11.2" lengthAdjust="spacing" textLength="97.6" x="431.6" y="171.8828">PropertyRepository</text><line style="stroke:#181818;stroke-width:0.4000000000000001;" x1="409.2" x2="530.8" y1="180.8" y2="180.8"/><line style="stroke:#181818;stroke-width:0.4000000000000001;" x1="409.2" x2="530.8" y1="187.2" y2="187.2"/><text fill="#000000" font-family="sans-serif" font-size="11.2" lengthAdjust="spacing" textLength="76.8" x="413.2" y="200.5391">+addProperty()</text></g><!--class Repositories--><g id="elem_Repositories"><rect codeLine="28" fill="#F1F1F1" height="50.9125" id="Repositories" rx="2" ry="2" style="stroke:#181818;stroke-width:0.4000000000000001;" width="88.8" x="58.4" y="273.2"/><ellipse cx="70.4" cy="286" fill="#ADD1B2" rx="8.8" ry="8.8" style="stroke:#181818;stroke-width:0.8000000000000002;"/><path d="M72.6125,282.7 Q72.7375,282.525 72.8875,282.4375 Q73.0375,282.35 73.2125,282.35 Q73.5125,282.35 73.7,282.5625 Q73.8875,282.7625 73.8875,283.25 L73.8875,284.4125 Q73.8875,284.9 73.7,285.1125 Q73.5125,285.325 73.2125,285.325 Q72.9375,285.325 72.775,285.1625 Q72.6125,285.0125 72.525,284.6 Q72.4875,284.3125 72.3375,284.1625 Q72.075,283.8625 71.5875,283.6875 Q71.1,283.5125 70.6,283.5125 Q69.9875,283.5125 69.475,283.775 Q68.975,284.0375 68.575,284.6375 Q68.1875,285.2375 68.1875,286.0625 L68.1875,286.9375 Q68.1875,287.925 68.9,288.5875 Q69.6125,289.2375 70.8875,289.2375 Q71.6375,289.2375 72.1625,289.0375 Q72.475,288.9125 72.8125,288.5625 Q73.025,288.35 73.1375,288.2875 Q73.2625,288.225 73.425,288.225 Q73.6875,288.225 73.8875,288.4375 Q74.1,288.6375 74.1,288.9125 Q74.1,289.1875 73.825,289.5125 Q73.425,289.975 72.7875,290.2375 Q71.925,290.6 70.8875,290.6 Q69.675,290.6 68.7125,290.1 Q67.925,289.7 67.375,288.85 Q66.825,287.9875 66.825,286.9625 L66.825,286.0375 Q66.825,284.975 67.3125,284.0625 Q67.8125,283.1375 68.6875,282.65 Q69.5625,282.15 70.55,282.15 Q71.1375,282.15 71.65,282.2875 Q72.175,282.4125 72.6125,282.7 Z " fill="#000000"/><text fill="#000000" font-family="sans-serif" font-size="11.2" lengthAdjust="spacing" textLength="63.2" x="81.6" y="289.8828">Repositories</text><line style="stroke:#181818;stroke-width:0.4000000000000001;" x1="59.2" x2="146.4" y1="298.8" y2="298.8"/><line style="stroke:#181818;stroke-width:0.4000000000000001;" x1="59.2" x2="146.4" y1="305.2" y2="305.2"/><text fill="#000000" font-family="sans-serif" font-size="11.2" lengthAdjust="spacing" textLength="78.4" x="63.2" y="318.5391">+getInstances()</text></g><!--link Agent to DisplayListUI--><g id="link_Agent_DisplayListUI"><path codeLine="31" d="M96.032,50 C114.424,50 135.888,50 155.344,50 " fill="none" id="Agent-to-DisplayListUI" style="stroke:#181818;stroke-width:0.8000000000000002;"/><polygon fill="#181818" points="159.456,50,152.256,46.8,155.456,50,152.256,53.2,159.456,50" style="stroke:#181818;stroke-width:0.8000000000000002;"/><text fill="#000000" font-family="sans-serif" font-size="10.4" lengthAdjust="spacing" textLength="34.4" x="110.6" y="45.0148">Display</text></g><!--link DisplayListUI to DisplayListController--><g id="link_DisplayListUI_DisplayListController"><path codeLine="32" d="M212.4,81.744 C212.4,102.816 212.4,130.504 212.4,151.12 " fill="none" id="DisplayListUI-to-DisplayListController" style="stroke:#181818;stroke-width:0.8000000000000002;"/><polygon fill="#181818" points="212.4,155.144,215.6,147.944,212.4,151.144,209.2,147.944,212.4,155.144" style="stroke:#181818;stroke-width:0.8000000000000002;"/><text fill="#000000" font-family="sans-serif" font-size="10.4" lengthAdjust="spacing" textLength="95.2" x="213.2" y="128.6148">DisplayListController</text></g><!--link DisplayListController to Repositories--><g id="link_DisplayListController_Repositories"><path codeLine="33" d="M140.976,203.712 C99.28,216.624 54.8,230.4 54.8,230.4 C54.8,230.4 54.8,243.2 54.8,243.2 C54.8,243.2 66.512,256.568 78.36,270.096 " fill="none" id="DisplayListController-to-Repositories" style="stroke:#181818;stroke-width:0.8000000000000002;"/><polygon fill="#181818" points="81.048,273.168,78.7009,265.6466,78.4083,270.1627,73.8923,269.8701,81.048,273.168" style="stroke:#181818;stroke-width:0.8000000000000002;"/><text fill="#000000" font-family="sans-serif" font-size="10.4" lengthAdjust="spacing" textLength="57.6" x="55.6" y="240.6148">Repositories</text></g><!--link Repositories to DisplayListController--><g id="link_Repositories_DisplayListController"><path codeLine="34" d="M118.888,272.832 C131.168,253.608 146,230.4 146,230.4 C146,230.4 159.904,220.184 174.984,209.096 " fill="none" id="Repositories-to-DisplayListController" style="stroke:#181818;stroke-width:0.8000000000000002;"/><polygon fill="#181818" points="178.424,206.568,170.7263,208.2489,175.1995,208.9349,174.5134,213.4081,178.424,206.568" style="stroke:#181818;stroke-width:0.8000000000000002;"/><text fill="#000000" font-family="sans-serif" font-size="10.4" lengthAdjust="spacing" textLength="95.2" x="146.8" y="240.6148">DisplayListController</text></g><!--link DisplayListController to RequestListRepository--><g id="link_DisplayListController_RequestListRepository"><path codeLine="35" d="M237.784,206.656 C255.056,223.712 274.8,243.2 274.8,243.2 C274.8,243.2 291.832,253.344 311.24,264.904 " fill="none" id="DisplayListController-to-RequestListRepository" style="stroke:#181818;stroke-width:0.8000000000000002;"/><polygon fill="#181818" points="314.888,267.08,310.351,260.6383,311.455,265.0271,307.0663,266.1311,314.888,267.08" style="stroke:#181818;stroke-width:0.8000000000000002;"/><text fill="#000000" font-family="sans-serif" font-size="10.4" lengthAdjust="spacing" textLength="95.2" x="275.6" y="240.6148">DisplayListController</text></g><!--link RequestListRepository to DisplayListController--><g id="link_RequestListRepository_DisplayListController"><path codeLine="36" d="M371.312,267.08 C373.128,254.648 374.8,243.2 374.8,243.2 C374.8,243.2 374.8,230.4 374.8,230.4 C374.8,230.4 330.008,216.944 287.472,204.16 " fill="none" id="RequestListRepository-to-DisplayListController" style="stroke:#181818;stroke-width:0.8000000000000002;"/><polygon fill="#181818" points="283.632,203.008,289.6018,208.1501,287.4617,204.1626,291.4492,202.0226,283.632,203.008" style="stroke:#181818;stroke-width:0.8000000000000002;"/><text fill="#000000" font-family="sans-serif" font-size="10.4" lengthAdjust="spacing" textLength="95.2" x="375.6" y="240.6148">DisplayListController</text></g><!--link DisplayListController to PropertyRepository--><g id="link_DisplayListController_PropertyRepository"><path codeLine="37" d="M283.752,193.072 C293.808,194.8 300.8,196 300.8,196 C300.8,196 391.2,196 391.2,196 C391.2,196 396.464,194.984 404.272,193.48 " fill="none" id="DisplayListController-to-PropertyRepository" style="stroke:#181818;stroke-width:0.8000000000000002;"/><polygon fill="#181818" points="408.296,192.704,400.6161,190.9437,404.3702,193.4708,401.843,197.225,408.296,192.704" style="stroke:#181818;stroke-width:0.8000000000000002;"/><text fill="#000000" font-family="sans-serif" font-size="10.4" lengthAdjust="spacing" textLength="88.8" x="301.6" y="193.4148">PropertyRepository</text></g><!--link PropertyRepository to DisplayListController--><g id="link_PropertyRepository_DisplayListController"><path codeLine="38" d="M408.296,180.8 C372.16,180.8 326.256,180.8 287.968,180.8 " fill="none" id="PropertyRepository-to-DisplayListController" style="stroke:#181818;stroke-width:0.8000000000000002;"/><polygon fill="#181818" points="283.816,180.8,291.016,184,287.816,180.8,291.016,177.6,283.816,180.8" style="stroke:#181818;stroke-width:0.8000000000000002;"/><text fill="#000000" font-family="sans-serif" font-size="10.4" lengthAdjust="spacing" textLength="95.2" x="298.4" y="175.8148">DisplayListController</text></g><!--link Repositories to Repositories--><g id="link_Repositories_Repositories"><path codeLine="39" d="M147.344,287.4 C162.752,287.28 175.2,291.08 175.2,298.8 C175.2,305.792 164.976,309.568 151.592,310.128 " fill="none" id="Repositories-to-Repositories" style="stroke:#181818;stroke-width:0.8000000000000002;"/><polygon fill="#181818" points="147.344,310.2,154.589,313.2968,151.3436,310.1429,154.4976,306.8975,147.344,310.2" style="stroke:#181818;stroke-width:0.8000000000000002;"/><text fill="#000000" font-family="sans-serif" font-size="10.4" lengthAdjust="spacing" textLength="59.2" x="180" y="302.6148">getInstances</text></g><!--SRC=[hPB1JiCm38RFv2bo1A5Ad7kOD86G9ks0Ml40eJLTj3G9jZTK9jwTj6fB2ja1jDxy-yjlwtTfhwrNg5hfLRLN3PJS6P085IlR610q0xHJjNlNjf6lob3SCTe2TnwaTwRh2n4rAwE8rioeNmuCcyhPKd-0l1D3GwuRi7mILraPYE3jW-WTyhUYwXg1A49sBeoGuSkqPNbKBCJdQFUWoHlLRJNnyqQU0dNR01VmTW3YNhs-wJM4rXtX4LqxQedtzyuoEcC01vyCmJlIx503vRA8gl1wV1uDce7k7siyeVE0tFqq2LbChOYETvc7RIo54rP00pZ4BBFLCg1yAiKojomSsYxXA8qyhOiqFNaLv-DRx9zTV6xg96VDqlZ5bbgbJfidH97W_hv5dEol6yG_oHS0]--></g></svg>